<?xml version="1.0" standalone="no"?>
 <!DOCTYPE svg PUBLIC "-//W3C//DTD SVG 1.1//EN" 
 "http://www.w3.org/Graphics/SVG/1.1/DTD/svg11.dtd"> 
<svg
  xmlns:svg="http://www.w3.org/2000/svg"
  xmlns="http://www.w3.org/2000/svg"
  xmlns:xlink="http://www.w3.org/1999/xlink"
  version="1.1"
  width="70.9676mm" height="95.5802mm" viewBox="0.0000 0.0000 70.9676 95.5802">
<title>SVG Image created as SEPIC-A-F_Silkscreen.svg date 2024/09/19 09:59:25 </title>
  <desc>Image generated by PCBNEW </desc>
<g style="fill:#000000; fill-opacity:1.0000;stroke:#000000; stroke-opacity:1.0000;
stroke-linecap:round; stroke-linejoin:round;"
 transform="translate(0 0) scale(1 1)">
<path style="fill:none; 
stroke:#F2EDA1; stroke-width:0.1000; stroke-opacity:1; 
stroke-linecap:round; stroke-linejoin:round;fill:none"
d="M 0.6300,16.8882
58.2900,16.8882
58.2900,94.9183
0.6300,94.9183
Z" /> 
</g>
<g style="fill:none; 
stroke:#F2EDA1; stroke-width:0.1000; stroke-opacity:1; 
stroke-linecap:round; stroke-linejoin:round;">
<text x="38.1200" y="80.5632"
textLength="9.9571" font-size="1.3333" lengthAdjust="spacingAndGlyphs"
text-anchor="start" opacity="0">Kardos Milán</text>
<g class="stroked-text"><desc>Kardos Milán</desc>
<path d="M38.4239 80.4357
L38.4239 79.4357
" />
<path d="M38.9953 80.4357
L38.5667 79.8642
" />
<path d="M38.9953 79.4357
L38.4239 80.0071
" />
<path d="M39.8525 80.4357
L39.8525 79.9119
" />
<path d="M39.8525 79.9119
L39.8048 79.8166
" />
<path d="M39.8048 79.8166
L39.7096 79.7690
" />
<path d="M39.7096 79.7690
L39.5191 79.7690
" />
<path d="M39.5191 79.7690
L39.4239 79.8166
" />
<path d="M39.8525 80.3880
L39.7572 80.4357
" />
<path d="M39.7572 80.4357
L39.5191 80.4357
" />
<path d="M39.5191 80.4357
L39.4239 80.3880
" />
<path d="M39.4239 80.3880
L39.3763 80.2928
" />
<path d="M39.3763 80.2928
L39.3763 80.1976
" />
<path d="M39.3763 80.1976
L39.4239 80.1023
" />
<path d="M39.4239 80.1023
L39.5191 80.0547
" />
<path d="M39.5191 80.0547
L39.7572 80.0547
" />
<path d="M39.7572 80.0547
L39.8525 80.0071
" />
<path d="M40.3286 80.4357
L40.3286 79.7690
" />
<path d="M40.3286 79.9595
L40.3763 79.8642
" />
<path d="M40.3763 79.8642
L40.4239 79.8166
" />
<path d="M40.4239 79.8166
L40.5191 79.7690
" />
<path d="M40.5191 79.7690
L40.6144 79.7690
" />
<path d="M41.3763 80.4357
L41.3763 79.4357
" />
<path d="M41.3763 80.3880
L41.2810 80.4357
" />
<path d="M41.2810 80.4357
L41.0906 80.4357
" />
<path d="M41.0906 80.4357
L40.9953 80.3880
" />
<path d="M40.9953 80.3880
L40.9477 80.3404
" />
<path d="M40.9477 80.3404
L40.9001 80.2452
" />
<path d="M40.9001 80.2452
L40.9001 79.9595
" />
<path d="M40.9001 79.9595
L40.9477 79.8642
" />
<path d="M40.9477 79.8642
L40.9953 79.8166
" />
<path d="M40.9953 79.8166
L41.0906 79.7690
" />
<path d="M41.0906 79.7690
L41.2810 79.7690
" />
<path d="M41.2810 79.7690
L41.3763 79.8166
" />
<path d="M41.9953 80.4357
L41.9001 80.3880
" />
<path d="M41.9001 80.3880
L41.8525 80.3404
" />
<path d="M41.8525 80.3404
L41.8048 80.2452
" />
<path d="M41.8048 80.2452
L41.8048 79.9595
" />
<path d="M41.8048 79.9595
L41.8525 79.8642
" />
<path d="M41.8525 79.8642
L41.9001 79.8166
" />
<path d="M41.9001 79.8166
L41.9953 79.7690
" />
<path d="M41.9953 79.7690
L42.1382 79.7690
" />
<path d="M42.1382 79.7690
L42.2334 79.8166
" />
<path d="M42.2334 79.8166
L42.2810 79.8642
" />
<path d="M42.2810 79.8642
L42.3286 79.9595
" />
<path d="M42.3286 79.9595
L42.3286 80.2452
" />
<path d="M42.3286 80.2452
L42.2810 80.3404
" />
<path d="M42.2810 80.3404
L42.2334 80.3880
" />
<path d="M42.2334 80.3880
L42.1382 80.4357
" />
<path d="M42.1382 80.4357
L41.9953 80.4357
" />
<path d="M42.7096 80.3880
L42.8048 80.4357
" />
<path d="M42.8048 80.4357
L42.9953 80.4357
" />
<path d="M42.9953 80.4357
L43.0906 80.3880
" />
<path d="M43.0906 80.3880
L43.1382 80.2928
" />
<path d="M43.1382 80.2928
L43.1382 80.2452
" />
<path d="M43.1382 80.2452
L43.0906 80.1500
" />
<path d="M43.0906 80.1500
L42.9953 80.1023
" />
<path d="M42.9953 80.1023
L42.8525 80.1023
" />
<path d="M42.8525 80.1023
L42.7572 80.0547
" />
<path d="M42.7572 80.0547
L42.7096 79.9595
" />
<path d="M42.7096 79.9595
L42.7096 79.9119
" />
<path d="M42.7096 79.9119
L42.7572 79.8166
" />
<path d="M42.7572 79.8166
L42.8525 79.7690
" />
<path d="M42.8525 79.7690
L42.9953 79.7690
" />
<path d="M42.9953 79.7690
L43.0906 79.8166
" />
<path d="M44.3286 80.4357
L44.3286 79.4357
" />
<path d="M44.3286 79.4357
L44.6620 80.1500
" />
<path d="M44.6620 80.1500
L44.9953 79.4357
" />
<path d="M44.9953 79.4357
L44.9953 80.4357
" />
<path d="M45.4715 80.4357
L45.4715 79.7690
" />
<path d="M45.4715 79.4357
L45.4239 79.4833
" />
<path d="M45.4239 79.4833
L45.4715 79.5309
" />
<path d="M45.4715 79.5309
L45.5191 79.4833
" />
<path d="M45.5191 79.4833
L45.4715 79.4357
" />
<path d="M45.4715 79.4357
L45.4715 79.5309
" />
<path d="M46.0906 80.4357
L45.9953 80.3880
" />
<path d="M45.9953 80.3880
L45.9477 80.2928
" />
<path d="M45.9477 80.2928
L45.9477 79.4357
" />
<path d="M46.9001 80.4357
L46.9001 79.9119
" />
<path d="M46.9001 79.9119
L46.8525 79.8166
" />
<path d="M46.8525 79.8166
L46.7572 79.7690
" />
<path d="M46.7572 79.7690
L46.5667 79.7690
" />
<path d="M46.5667 79.7690
L46.4715 79.8166
" />
<path d="M46.9001 80.3880
L46.8048 80.4357
" />
<path d="M46.8048 80.4357
L46.5667 80.4357
" />
<path d="M46.5667 80.4357
L46.4715 80.3880
" />
<path d="M46.4715 80.3880
L46.4239 80.2928
" />
<path d="M46.4239 80.2928
L46.4239 80.1976
" />
<path d="M46.4239 80.1976
L46.4715 80.1023
" />
<path d="M46.4715 80.1023
L46.5667 80.0547
" />
<path d="M46.5667 80.0547
L46.8048 80.0547
" />
<path d="M46.8048 80.0547
L46.9001 80.0071
" />
<path d="M46.7572 79.3880
L46.6144 79.5309
" />
<path d="M47.3763 79.7690
L47.3763 80.4357
" />
<path d="M47.3763 79.8642
L47.4239 79.8166
" />
<path d="M47.4239 79.8166
L47.5191 79.7690
" />
<path d="M47.5191 79.7690
L47.6620 79.7690
" />
<path d="M47.6620 79.7690
L47.7572 79.8166
" />
<path d="M47.7572 79.8166
L47.8048 79.9119
" />
<path d="M47.8048 79.9119
L47.8048 80.4357
" />
</g><text x="34.6450" y="82.1882"
textLength="13.5762" font-size="1.3333" lengthAdjust="spacingAndGlyphs"
text-anchor="start" opacity="0">Robert Bosch Kft.</text>
<g class="stroked-text"><desc>Robert Bosch Kft.</desc>
<path d="M35.5203 82.0607
L35.1870 81.5845
" />
<path d="M34.9489 82.0607
L34.9489 81.0607
" />
<path d="M34.9489 81.0607
L35.3298 81.0607
" />
<path d="M35.3298 81.0607
L35.4251 81.1083
" />
<path d="M35.4251 81.1083
L35.4727 81.1559
" />
<path d="M35.4727 81.1559
L35.5203 81.2511
" />
<path d="M35.5203 81.2511
L35.5203 81.3940
" />
<path d="M35.5203 81.3940
L35.4727 81.4892
" />
<path d="M35.4727 81.4892
L35.4251 81.5369
" />
<path d="M35.4251 81.5369
L35.3298 81.5845
" />
<path d="M35.3298 81.5845
L34.9489 81.5845
" />
<path d="M36.0917 82.0607
L35.9965 82.0130
" />
<path d="M35.9965 82.0130
L35.9489 81.9654
" />
<path d="M35.9489 81.9654
L35.9013 81.8702
" />
<path d="M35.9013 81.8702
L35.9013 81.5845
" />
<path d="M35.9013 81.5845
L35.9489 81.4892
" />
<path d="M35.9489 81.4892
L35.9965 81.4416
" />
<path d="M35.9965 81.4416
L36.0917 81.3940
" />
<path d="M36.0917 81.3940
L36.2346 81.3940
" />
<path d="M36.2346 81.3940
L36.3298 81.4416
" />
<path d="M36.3298 81.4416
L36.3775 81.4892
" />
<path d="M36.3775 81.4892
L36.4251 81.5845
" />
<path d="M36.4251 81.5845
L36.4251 81.8702
" />
<path d="M36.4251 81.8702
L36.3775 81.9654
" />
<path d="M36.3775 81.9654
L36.3298 82.0130
" />
<path d="M36.3298 82.0130
L36.2346 82.0607
" />
<path d="M36.2346 82.0607
L36.0917 82.0607
" />
<path d="M36.8536 82.0607
L36.8536 81.0607
" />
<path d="M36.8536 81.4416
L36.9489 81.3940
" />
<path d="M36.9489 81.3940
L37.1394 81.3940
" />
<path d="M37.1394 81.3940
L37.2346 81.4416
" />
<path d="M37.2346 81.4416
L37.2822 81.4892
" />
<path d="M37.2822 81.4892
L37.3298 81.5845
" />
<path d="M37.3298 81.5845
L37.3298 81.8702
" />
<path d="M37.3298 81.8702
L37.2822 81.9654
" />
<path d="M37.2822 81.9654
L37.2346 82.0130
" />
<path d="M37.2346 82.0130
L37.1394 82.0607
" />
<path d="M37.1394 82.0607
L36.9489 82.0607
" />
<path d="M36.9489 82.0607
L36.8536 82.0130
" />
<path d="M38.1394 82.0130
L38.0441 82.0607
" />
<path d="M38.0441 82.0607
L37.8536 82.0607
" />
<path d="M37.8536 82.0607
L37.7584 82.0130
" />
<path d="M37.7584 82.0130
L37.7108 81.9178
" />
<path d="M37.7108 81.9178
L37.7108 81.5369
" />
<path d="M37.7108 81.5369
L37.7584 81.4416
" />
<path d="M37.7584 81.4416
L37.8536 81.3940
" />
<path d="M37.8536 81.3940
L38.0441 81.3940
" />
<path d="M38.0441 81.3940
L38.1394 81.4416
" />
<path d="M38.1394 81.4416
L38.1870 81.5369
" />
<path d="M38.1870 81.5369
L38.1870 81.6321
" />
<path d="M38.1870 81.6321
L37.7108 81.7273
" />
<path d="M38.6156 82.0607
L38.6156 81.3940
" />
<path d="M38.6156 81.5845
L38.6632 81.4892
" />
<path d="M38.6632 81.4892
L38.7108 81.4416
" />
<path d="M38.7108 81.4416
L38.8060 81.3940
" />
<path d="M38.8060 81.3940
L38.9013 81.3940
" />
<path d="M39.0917 81.3940
L39.4727 81.3940
" />
<path d="M39.2346 81.0607
L39.2346 81.9178
" />
<path d="M39.2346 81.9178
L39.2822 82.0130
" />
<path d="M39.2822 82.0130
L39.3775 82.0607
" />
<path d="M39.3775 82.0607
L39.4727 82.0607
" />
<path d="M40.9013 81.5369
L41.0441 81.5845
" />
<path d="M41.0441 81.5845
L41.0917 81.6321
" />
<path d="M41.0917 81.6321
L41.1394 81.7273
" />
<path d="M41.1394 81.7273
L41.1394 81.8702
" />
<path d="M41.1394 81.8702
L41.0917 81.9654
" />
<path d="M41.0917 81.9654
L41.0441 82.0130
" />
<path d="M41.0441 82.0130
L40.9489 82.0607
" />
<path d="M40.9489 82.0607
L40.5679 82.0607
" />
<path d="M40.5679 82.0607
L40.5679 81.0607
" />
<path d="M40.5679 81.0607
L40.9013 81.0607
" />
<path d="M40.9013 81.0607
L40.9965 81.1083
" />
<path d="M40.9965 81.1083
L41.0441 81.1559
" />
<path d="M41.0441 81.1559
L41.0917 81.2511
" />
<path d="M41.0917 81.2511
L41.0917 81.3464
" />
<path d="M41.0917 81.3464
L41.0441 81.4416
" />
<path d="M41.0441 81.4416
L40.9965 81.4892
" />
<path d="M40.9965 81.4892
L40.9013 81.5369
" />
<path d="M40.9013 81.5369
L40.5679 81.5369
" />
<path d="M41.7108 82.0607
L41.6156 82.0130
" />
<path d="M41.6156 82.0130
L41.5679 81.9654
" />
<path d="M41.5679 81.9654
L41.5203 81.8702
" />
<path d="M41.5203 81.8702
L41.5203 81.5845
" />
<path d="M41.5203 81.5845
L41.5679 81.4892
" />
<path d="M41.5679 81.4892
L41.6156 81.4416
" />
<path d="M41.6156 81.4416
L41.7108 81.3940
" />
<path d="M41.7108 81.3940
L41.8536 81.3940
" />
<path d="M41.8536 81.3940
L41.9489 81.4416
" />
<path d="M41.9489 81.4416
L41.9965 81.4892
" />
<path d="M41.9965 81.4892
L42.0441 81.5845
" />
<path d="M42.0441 81.5845
L42.0441 81.8702
" />
<path d="M42.0441 81.8702
L41.9965 81.9654
" />
<path d="M41.9965 81.9654
L41.9489 82.0130
" />
<path d="M41.9489 82.0130
L41.8536 82.0607
" />
<path d="M41.8536 82.0607
L41.7108 82.0607
" />
<path d="M42.4251 82.0130
L42.5203 82.0607
" />
<path d="M42.5203 82.0607
L42.7108 82.0607
" />
<path d="M42.7108 82.0607
L42.8060 82.0130
" />
<path d="M42.8060 82.0130
L42.8536 81.9178
" />
<path d="M42.8536 81.9178
L42.8536 81.8702
" />
<path d="M42.8536 81.8702
L42.8060 81.7750
" />
<path d="M42.8060 81.7750
L42.7108 81.7273
" />
<path d="M42.7108 81.7273
L42.5679 81.7273
" />
<path d="M42.5679 81.7273
L42.4727 81.6797
" />
<path d="M42.4727 81.6797
L42.4251 81.5845
" />
<path d="M42.4251 81.5845
L42.4251 81.5369
" />
<path d="M42.4251 81.5369
L42.4727 81.4416
" />
<path d="M42.4727 81.4416
L42.5679 81.3940
" />
<path d="M42.5679 81.3940
L42.7108 81.3940
" />
<path d="M42.7108 81.3940
L42.8060 81.4416
" />
<path d="M43.7108 82.0130
L43.6156 82.0607
" />
<path d="M43.6156 82.0607
L43.4251 82.0607
" />
<path d="M43.4251 82.0607
L43.3298 82.0130
" />
<path d="M43.3298 82.0130
L43.2822 81.9654
" />
<path d="M43.2822 81.9654
L43.2346 81.8702
" />
<path d="M43.2346 81.8702
L43.2346 81.5845
" />
<path d="M43.2346 81.5845
L43.2822 81.4892
" />
<path d="M43.2822 81.4892
L43.3298 81.4416
" />
<path d="M43.3298 81.4416
L43.4251 81.3940
" />
<path d="M43.4251 81.3940
L43.6156 81.3940
" />
<path d="M43.6156 81.3940
L43.7108 81.4416
" />
<path d="M44.1394 82.0607
L44.1394 81.0607
" />
<path d="M44.5679 82.0607
L44.5679 81.5369
" />
<path d="M44.5679 81.5369
L44.5203 81.4416
" />
<path d="M44.5203 81.4416
L44.4251 81.3940
" />
<path d="M44.4251 81.3940
L44.2822 81.3940
" />
<path d="M44.2822 81.3940
L44.1870 81.4416
" />
<path d="M44.1870 81.4416
L44.1394 81.4892
" />
<path d="M45.8060 82.0607
L45.8060 81.0607
" />
<path d="M46.3775 82.0607
L45.9489 81.4892
" />
<path d="M46.3775 81.0607
L45.8060 81.6321
" />
<path d="M46.6632 81.3940
L47.0441 81.3940
" />
<path d="M46.8060 82.0607
L46.8060 81.2035
" />
<path d="M46.8060 81.2035
L46.8536 81.1083
" />
<path d="M46.8536 81.1083
L46.9489 81.0607
" />
<path d="M46.9489 81.0607
L47.0441 81.0607
" />
<path d="M47.2346 81.3940
L47.6156 81.3940
" />
<path d="M47.3775 81.0607
L47.3775 81.9178
" />
<path d="M47.3775 81.9178
L47.4251 82.0130
" />
<path d="M47.4251 82.0130
L47.5203 82.0607
" />
<path d="M47.5203 82.0607
L47.6156 82.0607
" />
<path d="M47.9489 81.9654
L47.9965 82.0130
" />
<path d="M47.9965 82.0130
L47.9489 82.0607
" />
<path d="M47.9489 82.0607
L47.9013 82.0130
" />
<path d="M47.9013 82.0130
L47.9489 81.9654
" />
<path d="M47.9489 81.9654
L47.9489 82.0607
" />
</g></g>
<g style="fill:none; 
stroke:#F2EDA1; stroke-width:0.6000; stroke-opacity:1; 
stroke-linecap:round; stroke-linejoin:round;">
<text x="28.3450" y="78.6632"
textLength="20.4857" font-size="4.0000" lengthAdjust="spacingAndGlyphs"
text-anchor="start" opacity="0">SEPIC-A</text>
<g class="stroked-text"><desc>SEPIC-A</desc>
<path d="M29.3112 78.1221
L29.7397 78.2649
" />
<path d="M29.7397 78.2649
L30.4540 78.2649
" />
<path d="M30.4540 78.2649
L30.7397 78.1221
" />
<path d="M30.7397 78.1221
L30.8826 77.9792
" />
<path d="M30.8826 77.9792
L31.0254 77.6935
" />
<path d="M31.0254 77.6935
L31.0254 77.4078
" />
<path d="M31.0254 77.4078
L30.8826 77.1221
" />
<path d="M30.8826 77.1221
L30.7397 76.9792
" />
<path d="M30.7397 76.9792
L30.4540 76.8363
" />
<path d="M30.4540 76.8363
L29.8826 76.6935
" />
<path d="M29.8826 76.6935
L29.5969 76.5506
" />
<path d="M29.5969 76.5506
L29.4540 76.4078
" />
<path d="M29.4540 76.4078
L29.3112 76.1221
" />
<path d="M29.3112 76.1221
L29.3112 75.8363
" />
<path d="M29.3112 75.8363
L29.4540 75.5506
" />
<path d="M29.4540 75.5506
L29.5969 75.4078
" />
<path d="M29.5969 75.4078
L29.8826 75.2649
" />
<path d="M29.8826 75.2649
L30.5969 75.2649
" />
<path d="M30.5969 75.2649
L31.0254 75.4078
" />
<path d="M32.3112 76.6935
L33.3112 76.6935
" />
<path d="M33.7397 78.2649
L32.3112 78.2649
" />
<path d="M32.3112 78.2649
L32.3112 75.2649
" />
<path d="M32.3112 75.2649
L33.7397 75.2649
" />
<path d="M35.0254 78.2649
L35.0254 75.2649
" />
<path d="M35.0254 75.2649
L36.1683 75.2649
" />
<path d="M36.1683 75.2649
L36.4540 75.4078
" />
<path d="M36.4540 75.4078
L36.5969 75.5506
" />
<path d="M36.5969 75.5506
L36.7397 75.8363
" />
<path d="M36.7397 75.8363
L36.7397 76.2649
" />
<path d="M36.7397 76.2649
L36.5969 76.5506
" />
<path d="M36.5969 76.5506
L36.4540 76.6935
" />
<path d="M36.4540 76.6935
L36.1683 76.8363
" />
<path d="M36.1683 76.8363
L35.0254 76.8363
" />
<path d="M38.0254 78.2649
L38.0254 75.2649
" />
<path d="M41.1683 77.9792
L41.0254 78.1221
" />
<path d="M41.0254 78.1221
L40.5969 78.2649
" />
<path d="M40.5969 78.2649
L40.3112 78.2649
" />
<path d="M40.3112 78.2649
L39.8826 78.1221
" />
<path d="M39.8826 78.1221
L39.5969 77.8363
" />
<path d="M39.5969 77.8363
L39.4540 77.5506
" />
<path d="M39.4540 77.5506
L39.3112 76.9792
" />
<path d="M39.3112 76.9792
L39.3112 76.5506
" />
<path d="M39.3112 76.5506
L39.4540 75.9792
" />
<path d="M39.4540 75.9792
L39.5969 75.6935
" />
<path d="M39.5969 75.6935
L39.8826 75.4078
" />
<path d="M39.8826 75.4078
L40.3112 75.2649
" />
<path d="M40.3112 75.2649
L40.5969 75.2649
" />
<path d="M40.5969 75.2649
L41.0254 75.4078
" />
<path d="M41.0254 75.4078
L41.1683 75.5506
" />
<path d="M42.4540 77.1221
L44.7397 77.1221
" />
<path d="M46.0254 77.4078
L47.4540 77.4078
" />
<path d="M45.7397 78.2649
L46.7397 75.2649
" />
<path d="M46.7397 75.2649
L47.7397 78.2649
" />
</g></g>
<g style="fill:none; 
stroke:#F2EDA1; stroke-width:0.1200; stroke-opacity:1; 
stroke-linecap:round; stroke-linejoin:round;">
<path d="M29.5850 72.0495
L29.5850 71.5270
" />
<path d="M31.0550 72.0495
L31.0550 71.5270
" />
<path d="M15.0229 49.4632
L15.4771 49.4632
" />
<path d="M15.0229 50.9333
L15.4771 50.9333
" />
<path d="M16.9850 53.4653
L16.9850 53.0112
" />
<path d="M18.4550 53.4653
L18.4550 53.0112
" />
</g>
<g style="fill:#F2EDA1; fill-opacity:1.0000; stroke:none;">
<circle cx="4.0500" cy="88.7682" r="0.0500" /> 
<circle cx="4.1500" cy="88.7682" r="0.0500" /> 
</g>
<g style="fill:none; 
stroke:#F2EDA1; stroke-width:0.2000; stroke-opacity:1; 
stroke-linecap:round; stroke-linejoin:round;">
<path d="M4.6000 83.7182
L26.0000 83.7182
" />
<path d="M4.6000 94.4183
L4.6000 83.7182
" />
<path d="M26.0000 83.7182
L26.0000 94.4183
" />
<path d="M26.0000 83.8683
L28.6000 83.8683
" />
<path d="M26.0000 94.4183
L4.6000 94.4183
" />
<path d="M28.6000 83.8683
L28.6000 93.5682
" />
<path d="M28.6000 93.5682
L26.0000 93.5682
" />
</g>
<g style="fill:none; 
stroke:#F2EDA1; stroke-width:0.1000; stroke-opacity:1; 
stroke-linecap:round; stroke-linejoin:round;">
<path d="M4.1500 88.7682 A0.0500 0.0500 0.0 0 0 4.0500 88.7682" />
<path d="M4.0500 88.7682 A0.0500 0.0500 0.0 0 0 4.1500 88.7682" />
</g>
<g style="fill:none; 
stroke:#F2EDA1; stroke-width:0.1200; stroke-opacity:1; 
stroke-linecap:round; stroke-linejoin:round;">
<path d="M27.0100 41.0120
L27.0100 39.5895
" />
<path d="M28.8300 41.0120
L28.8300 39.5895
" />
<path d="M15.0229 47.4932
L15.4771 47.4932
" />
<path d="M15.0229 48.9632
L15.4771 48.9632
" />
<path d="M9.0812 44.0282
L9.3738 44.0282
" />
<path d="M9.0812 45.0482
L9.3738 45.0482
" />
<path d="M28.8850 34.7653
L28.8850 34.3112
" />
<path d="M30.3550 34.7653
L30.3550 34.3112
" />
<path d="M10.7653 29.6907
L11.2747 29.6907
" />
<path d="M10.7653 30.7357
L11.2747 30.7357
" />
<path d="M31.8438 55.5032
L31.3212 55.5032
" />
<path d="M31.8438 56.9733
L31.3212 56.9733
" />
<path d="M9.5350 78.0770
L9.5350 78.5995
" />
<path d="M11.0050 78.0770
L11.0050 78.5995
" />
</g>
<g style="fill:#F2EDA1; fill-opacity:1.0000; stroke:none;">
<circle cx="21.2650" cy="48.7002" r="0.0500" /> 
<circle cx="21.2650" cy="48.8002" r="0.0500" /> 
</g>
<g style="fill:none; 
stroke:#F2EDA1; stroke-width:0.1000; stroke-opacity:1; 
stroke-linecap:round; stroke-linejoin:round;">
<path d="M21.2650 48.8002 A0.0500 0.0500 0.0 0 0 21.2650 48.7003" />
<path d="M21.2650 48.7003 A0.0500 0.0500 0.0 0 0 21.2650 48.8002" />
</g>
<g style="fill:none; 
stroke:#F2EDA1; stroke-width:0.1200; stroke-opacity:1; 
stroke-linecap:round; stroke-linejoin:round;">
<path d="M17.7367 55.2782
L17.9683 55.2782
" />
<path d="M17.7367 55.9982
L17.9683 55.9982
" />
<path d="M25.1700 50.4581
L25.1700 50.7934
" />
<path d="M25.9300 50.4581
L25.9300 50.7934
" />
<path d="M36.2850 71.6270
L36.2850 72.1495
" />
<path d="M37.7550 71.6270
L37.7550 72.1495
" />
<path d="M13.7600 57.8899
L13.7600 58.1216
" />
<path d="M14.4800 57.8899
L14.4800 58.1216
" />
</g>
<g style="fill:#F2EDA1; fill-opacity:1.0000; stroke:none;">
<circle cx="4.4100" cy="22.5282" r="0.0500" /> 
<circle cx="4.5100" cy="22.5282" r="0.0500" /> 
</g>
<g style="fill:none; 
stroke:#F2EDA1; stroke-width:0.2000; stroke-opacity:1; 
stroke-linecap:round; stroke-linejoin:round;">
<path d="M4.9600 17.4782
L26.3600 17.4782
" />
<path d="M4.9600 28.1782
L4.9600 17.4782
" />
<path d="M26.3600 17.4782
L26.3600 28.1782
" />
<path d="M26.3600 17.6282
L28.9600 17.6282
" />
<path d="M26.3600 28.1782
L4.9600 28.1782
" />
<path d="M28.9600 17.6282
L28.9600 27.3282
" />
<path d="M28.9600 27.3282
L26.3600 27.3282
" />
</g>
<g style="fill:none; 
stroke:#F2EDA1; stroke-width:0.1000; stroke-opacity:1; 
stroke-linecap:round; stroke-linejoin:round;">
<path d="M4.5100 22.5282 A0.0500 0.0500 0.0 0 0 4.4100 22.5282" />
<path d="M4.4100 22.5282 A0.0500 0.0500 0.0 0 0 4.5100 22.5282" />
</g>
<g style="fill:none; 
stroke:#F2EDA1; stroke-width:0.1200; stroke-opacity:1; 
stroke-linecap:round; stroke-linejoin:round;">
<path d="M12.2929 42.0033
L12.7471 42.0033
" />
<path d="M12.2929 43.4733
L12.7471 43.4733
" />
<path d="M37.2850 48.6112
L37.2850 49.0653
" />
<path d="M38.7550 48.6112
L38.7550 49.0653
" />
<path d="M34.1850 71.5645
L34.1850 72.0870
" />
<path d="M35.6550 71.5645
L35.6550 72.0870
" />
<path d="M50.6850 71.9620
L50.6850 71.4395
" />
<path d="M52.1550 71.9620
L52.1550 71.4395
" />
<path d="M47.9712 63.2782
L49.3938 63.2782
" />
<path d="M47.9712 65.9982
L49.3938 65.9982
" />
<path d="M53.7247 51.1657
L53.2153 51.1657
" />
<path d="M53.7247 52.2107
L53.2153 52.2107
" />
<path d="M11.6600 74.5645
L11.6600 75.9870
" />
<path d="M14.3800 74.5645
L14.3800 75.9870
" />
<path d="M15.1600 74.5645
L15.1600 75.9870
" />
<path d="M17.8800 74.5645
L17.8800 75.9870
" />
<path d="M24.5478 48.6283
L24.3322 48.6283
" />
<path d="M24.5478 49.3483
L24.3322 49.3483
" />
<path d="M20.2212 39.5033
L20.7438 39.5033
" />
<path d="M20.2212 40.9733
L20.7438 40.9733
" />
<path d="M7.2850 54.2070
L7.2850 54.7295
" />
<path d="M8.7550 54.2070
L8.7550 54.7295
" />
<path d="M4.9100 54.5270
L4.9100 55.9495
" />
<path d="M6.7300 54.5270
L6.7300 55.9495
" />
<path d="M18.8438 34.2533
L18.3212 34.2533
" />
<path d="M18.8438 35.7233
L18.3212 35.7233
" />
<path d="M48.6350 32.9370
L48.6350 32.4145
" />
<path d="M50.1050 32.9370
L50.1050 32.4145
" />
<path d="M8.8249 45.6582
L9.1601 45.6582
" />
<path d="M8.8249 46.4183
L9.1601 46.4183
" />
</g>
<g style="fill:none; 
stroke:#F2EDA1; stroke-width:0.1000; stroke-opacity:1; 
stroke-linecap:round; stroke-linejoin:round;">
<path d="M20.4700 74.2882
L26.6700 74.2882
" />
<path d="M26.6700 80.1882
L20.4700 80.1882
" />
</g>
<g style="fill:none; 
stroke:#F2EDA1; stroke-width:0.2000; stroke-opacity:1; 
stroke-linecap:round; stroke-linejoin:round;">
<circle cx="27.6700" cy="77.2382" r="0.1500" /> 
</g>
<g style="fill:none; 
stroke:#F2EDA1; stroke-width:0.1200; stroke-opacity:1; 
stroke-linecap:round; stroke-linejoin:round;">
<path d="M26.8850 34.7653
L26.8850 34.3112
" />
<path d="M28.3550 34.7653
L28.3550 34.3112
" />
<path d="M18.1929 43.5033
L18.6471 43.5033
" />
<path d="M18.1929 44.9733
L18.6471 44.9733
" />
<path d="M48.4850 71.9995
L48.4850 71.4770
" />
<path d="M49.9550 71.9995
L49.9550 71.4770
" />
<path d="M22.7929 67.2032
L23.2471 67.2032
" />
<path d="M22.7929 68.6732
L23.2471 68.6732
" />
<path d="M12.2829 36.4733
L12.7371 36.4733
" />
<path d="M12.2829 37.9432
L12.7371 37.9432
" />
<path d="M50.3122 29.5407
L49.8028 29.5407
" />
<path d="M50.3122 30.5857
L49.8028 30.5857
" />
<path d="M35.2700 34.9782
L36.5200 34.9782
" />
<path d="M35.8950 34.3532
L35.8950 35.6032
" />
<path d="M36.7600 33.4427
L36.7600 36.2282
" />
<path d="M36.7600 33.4427
L37.8244 32.3783
" />
<path d="M36.7600 42.0338
L36.7600 39.2482
" />
<path d="M36.7600 42.0338
L37.8244 43.0983
" />
<path d="M37.8244 32.3783
L47.4800 32.3783
" />
<path d="M37.8244 43.0983
L47.4800 43.0983
" />
<path d="M47.4800 32.3783
L47.4800 36.2282
" />
<path d="M47.4800 43.0983
L47.4800 39.2482
" />
<path d="M15.1403 60.4407
L15.6497 60.4407
" />
<path d="M15.1403 61.4857
L15.6497 61.4857
" />
<path d="M44.9850 71.5145
L44.9850 72.0370
" />
<path d="M46.4550 71.5145
L46.4550 72.0370
" />
<path d="M32.8100 37.3470
L32.8100 37.0545
" />
<path d="M33.8300 37.3470
L33.8300 37.0545
" />
<path d="M18.9600 70.6895
L18.9600 72.1120
" />
<path d="M21.6800 70.6895
L21.6800 72.1120
" />
<path d="M18.8688 36.2782
L17.4462 36.2782
" />
<path d="M18.8688 38.9982
L17.4462 38.9982
" />
<path d="M24.2600 39.2620
L24.2600 37.8395
" />
<path d="M26.0800 39.2620
L26.0800 37.8395
" />
</g>
<g style="fill:none; 
stroke:#F2EDA1; stroke-width:0.1000; stroke-opacity:1; 
stroke-linecap:round; stroke-linejoin:round;">
<path d="M20.1200 60.7782
L26.3200 60.7782
" />
<path d="M26.3200 66.6782
L20.1200 66.6782
" />
</g>
<g style="fill:none; 
stroke:#F2EDA1; stroke-width:0.2000; stroke-opacity:1; 
stroke-linecap:round; stroke-linejoin:round;">
<circle cx="27.1200" cy="63.7282" r="0.1500" /> 
</g>
<g style="fill:none; 
stroke:#F2EDA1; stroke-width:0.1200; stroke-opacity:1; 
stroke-linecap:round; stroke-linejoin:round;">
<path d="M47.9712 66.7782
L49.3938 66.7782
" />
<path d="M47.9712 69.4982
L49.3938 69.4982
" />
<path d="M29.5100 41.0120
L29.5100 39.5895
" />
<path d="M31.3300 41.0120
L31.3300 39.5895
" />
<path d="M17.4173 58.4522
L16.8947 58.4522
" />
<path d="M17.4173 59.9222
L16.8947 59.9222
" />
<path d="M7.6000 49.4070
L7.6000 49.1145
" />
<path d="M8.6200 49.4070
L8.6200 49.1145
" />
</g>
<g style="fill:none; 
stroke:#F2EDA1; stroke-width:0.1000; stroke-opacity:1; 
stroke-linecap:round; stroke-linejoin:round;">
<path d="M30.8600 83.7082
L54.8600 83.7082
" />
<path d="M30.8600 94.4382
L30.8600 83.7082
" />
<path d="M54.8600 83.7082
L54.8600 94.4382
" />
<path d="M54.8600 94.4382
L30.8600 94.4382
" />
</g>
<g style="fill:none; 
stroke:#F2EDA1; stroke-width:0.1200; stroke-opacity:1; 
stroke-linecap:round; stroke-linejoin:round;">
<path d="M10.9600 33.0995
L10.9600 32.5770
" />
<path d="M12.4300 33.0995
L12.4300 32.5770
" />
<path d="M5.5850 49.0520
L5.5850 49.5745
" />
<path d="M7.0550 49.0520
L7.0550 49.5745
" />
<path d="M19.1367 47.4782
L19.3683 47.4782
" />
<path d="M19.1367 48.1982
L19.3683 48.1982
" />
<path d="M31.6850 72.0870
L31.6850 71.5645
" />
<path d="M33.1550 72.0870
L33.1550 71.5645
" />
<path d="M23.4929 80.9032
L23.9471 80.9032
" />
<path d="M23.4929 82.3732
L23.9471 82.3732
" />
<path d="M23.1600 59.6982
L23.1600 54.6382
" />
<path d="M23.1600 59.6982
L25.8800 59.6982
" />
<path d="M25.8800 59.6982
L25.8800 54.6382
" />
<path d="M18.1929 41.5033
L18.6471 41.5033
" />
<path d="M18.1929 42.9733
L18.6471 42.9733
" />
<path d="M49.0850 78.5395
L49.0850 79.0620
" />
<path d="M50.5550 78.5395
L50.5550 79.0620
" />
<path d="M11.2800 51.0782
L11.2800 47.4183
" />
<path d="M11.2800 51.0782
L13.1800 51.0782
" />
<path d="M13.1800 51.0782
L13.1800 47.4183
" />
</g>
<g style="fill:none; 
stroke:#F2EDA1; stroke-width:0.1000; stroke-opacity:1; 
stroke-linecap:round; stroke-linejoin:round;">
<path d="M31.1700 17.4232
L55.1700 17.4232
" />
<path d="M31.1700 28.1532
L31.1700 17.4232
" />
<path d="M55.1700 17.4232
L55.1700 28.1532
" />
<path d="M55.1700 28.1532
L31.1700 28.1532
" />
</g>
<g style="fill:none; 
stroke:#F2EDA1; stroke-width:0.1200; stroke-opacity:1; 
stroke-linecap:round; stroke-linejoin:round;">
<path d="M39.8929 70.2532
L40.3471 70.2532
" />
<path d="M39.8929 71.7232
L40.3471 71.7232
" />
<path d="M11.2400 58.2034
L11.2400 57.8681
" />
<path d="M12.0000 58.2034
L12.0000 57.8681
" />
</g>
<g style="fill:none; 
stroke:#F2EDA1; stroke-width:0.2000; stroke-opacity:1; 
stroke-linecap:round; stroke-linejoin:round;">
<path d="M11.3080 51.5932
L14.5080 51.5932
" />
<path d="M11.3080 56.4932
L11.3080 51.5932
" />
<path d="M14.5080 51.5932
L14.5080 56.4932
" />
<path d="M14.5080 56.4932
L11.3080 56.4932
" />
<path d="M16.3830 56.6482
L14.8580 56.6482
" />
</g>
<g style="fill:none; 
stroke:#F2EDA1; stroke-width:0.1200; stroke-opacity:1; 
stroke-linecap:round; stroke-linejoin:round;">
<path d="M42.1850 64.1995
L42.1850 63.6770
" />
<path d="M43.6550 64.1995
L43.6550 63.6770
" />
<path d="M25.5600 70.6895
L25.5600 72.1120
" />
<path d="M28.2800 70.6895
L28.2800 72.1120
" />
<path d="M21.0600 32.5282
L21.0600 37.5882
" />
<path d="M23.7800 32.5282
L21.0600 32.5282
" />
<path d="M23.7800 32.5282
L23.7800 37.5882
" />
<path d="M18.1929 45.5033
L18.6471 45.5033
" />
<path d="M18.1929 46.9733
L18.6471 46.9733
" />
<path d="M44.2850 64.1995
L44.2850 63.6770
" />
<path d="M45.7550 64.1995
L45.7550 63.6770
" />
<path d="M42.8850 71.5520
L42.8850 72.0745
" />
<path d="M44.3550 71.5520
L44.3550 72.0745
" />
<path d="M18.8188 32.2533
L18.2962 32.2533
" />
<path d="M18.8188 33.7233
L18.2962 33.7233
" />
<path d="M22.2600 70.6895
L22.2600 72.1120
" />
<path d="M24.9800 70.6895
L24.9800 72.1120
" />
<path d="M26.3200 50.0632
L26.3200 47.2132
" />
<path d="M33.6200 43.0882
L29.3200 43.0882
" />
<path d="M33.6200 54.8882
L29.3200 54.8882
" />
<path d="M36.8200 49.8382
L36.8200 46.9382
" />
<path d="M26.4600 58.5120
L26.4600 57.0895
" />
<path d="M29.1800 58.5120
L29.1800 57.0895
" />
<path d="M12.5825 38.3783
L11.9325 38.3783
" />
<path d="M12.5825 38.3783
L13.2325 38.3783
" />
<path d="M12.5825 41.4982
L11.9325 41.4982
" />
<path d="M12.5825 41.4982
L13.2325 41.4982
" />
<path style="fill:#F2EDA1; fill-opacity:1.0000; 
stroke:#F2EDA1; stroke-width:0.1200; stroke-opacity:1; 
stroke-linecap:round; stroke-linejoin:round;fill-rule:evenodd;"
d="M 11.4200,38.4282
11.1800,38.0983
11.6600,38.0983
Z" /> 
</g>
<g style="fill:none; 
stroke:#F2EDA1; stroke-width:0.1200; stroke-opacity:1; 
stroke-linecap:round; stroke-linejoin:round;">
<path d="M9.1403 80.7157
L9.6497 80.7157
" />
<path d="M9.1403 81.7608
L9.6497 81.7608
" />
<path d="M29.7700 66.1882
L29.7700 61.8882
" />
<path d="M34.5950 58.8882
L37.4450 58.8882
" />
<path d="M34.8200 69.3882
L37.7200 69.3882
" />
<path d="M41.5700 66.1882
L41.5700 61.8882
" />
<path d="M30.8850 34.7653
L30.8850 34.3112
" />
<path d="M32.3550 34.7653
L32.3550 34.3112
" />
<path d="M18.3929 30.2532
L18.8471 30.2532
" />
<path d="M18.3929 31.7233
L18.8471 31.7233
" />
<path d="M19.3300 54.9653
L19.3300 50.6112
" />
<path d="M22.7500 54.9653
L22.7500 50.6112
" />
<path d="M50.0872 81.2657
L49.5778 81.2657
" />
<path d="M50.0872 82.3107
L49.5778 82.3107
" />
<path d="M51.4172 49.0542
L51.9398 49.0542
" />
<path d="M51.4172 50.5242
L51.9398 50.5242
" />
<path style="fill:none; 
stroke:#D0D2CD; stroke-width:0.0500; stroke-opacity:1; 
stroke-linecap:round; stroke-linejoin:round;fill:none"
d="M 0.0500,16.3382
58.9200,16.3382
58.9200,95.5382
0.0500,95.5382
Z" /> 
</g> 
</svg>
