<?xml version="1.0" standalone="no"?>
 <!DOCTYPE svg PUBLIC "-//W3C//DTD SVG 1.1//EN" 
 "http://www.w3.org/Graphics/SVG/1.1/DTD/svg11.dtd"> 
<svg
  xmlns:svg="http://www.w3.org/2000/svg"
  xmlns="http://www.w3.org/2000/svg"
  xmlns:xlink="http://www.w3.org/1999/xlink"
  version="1.1"
  width="70.9676mm" height="95.5802mm" viewBox="0.0000 0.0000 70.9676 95.5802">
<title>SVG Image created as SEPIC-A-In3_Cu.svg date 2024/09/19 09:59:25 </title>
  <desc>Image generated by PCBNEW </desc>
<g style="fill:#000000; fill-opacity:1.0000;stroke:#000000; stroke-opacity:1.0000;
stroke-linecap:round; stroke-linejoin:round;"
 transform="translate(0 0) scale(1 1)">
<path style="fill:#4FCBCB; fill-opacity:1.0000; 
stroke:#4FCBCB; stroke-width:0.2000; stroke-opacity:1; 
stroke-linecap:round; stroke-linejoin:round;fill-rule:evenodd;"
d="M 14.5450,32.8132
16.9950,32.8132
16.9950,35.8132
14.5450,35.8132
Z" /> 
<path style="fill:#4FCBCB; fill-opacity:1.0000; stroke:none;fill-rule:evenodd;"
d="M 6.6225,90.2458
6.6225,87.2908
9.5775,87.2908
9.5775,90.2458
Z" /> 
</g>
<g style="fill:#4FCBCB; fill-opacity:1.0000; stroke:none;">
<circle cx="23.6000" cy="88.7682" r="1.4775" /> 
<path style="fill:#4FCBCB; fill-opacity:1.0000; stroke:none;fill-rule:evenodd;"
d="M 6.9825,24.0057
6.9825,21.0508
9.9375,21.0508
9.9375,24.0057
Z" /> 
</g>
<g style="fill:#4FCBCB; fill-opacity:1.0000; stroke:none;">
<circle cx="23.9600" cy="22.5282" r="1.4775" /> 
</g>
<g style="fill:#4FCBCB; fill-opacity:1.0000; stroke:none;">
<circle cx="2.1500" cy="32.8653" r="0.4000" /> 
</g>
<g style="fill:#4FCBCB; fill-opacity:1.0000; stroke:none;">
<circle cx="2.8529" cy="31.1682" r="0.4000" /> 
</g>
<g style="fill:#4FCBCB; fill-opacity:1.0000; stroke:none;">
<circle cx="2.8529" cy="34.5624" r="0.4000" /> 
</g>
<g style="fill:#4FCBCB; fill-opacity:1.0000; stroke:none;">
<circle cx="4.5500" cy="30.4653" r="0.4000" /> 
</g>
<g style="fill:#4FCBCB; fill-opacity:1.0000; stroke:none;">
<circle cx="4.5500" cy="32.8653" r="3.2000" /> 
</g>
<g style="fill:#4FCBCB; fill-opacity:1.0000; stroke:none;">
<circle cx="4.5500" cy="35.2653" r="0.4000" /> 
</g>
<g style="fill:#4FCBCB; fill-opacity:1.0000; stroke:none;">
<circle cx="6.2471" cy="31.1682" r="0.4000" /> 
</g>
<g style="fill:#4FCBCB; fill-opacity:1.0000; stroke:none;">
<circle cx="6.2471" cy="34.5624" r="0.4000" /> 
</g>
<g style="fill:#4FCBCB; fill-opacity:1.0000; stroke:none;">
<circle cx="6.9500" cy="32.8653" r="0.4000" /> 
</g>
<g style="fill:#4FCBCB; fill-opacity:1.0000; stroke:none;">
<circle cx="50.6100" cy="89.3582" r="1.4775" /> 
</g>
<g style="fill:#4FCBCB; fill-opacity:1.0000; stroke:none;">
<circle cx="35.1100" cy="89.3582" r="1.4775" /> 
</g>
<g style="fill:#4FCBCB; fill-opacity:1.0000; stroke:none;">
<circle cx="52.0800" cy="79.0583" r="0.4000" /> 
</g>
<g style="fill:#4FCBCB; fill-opacity:1.0000; stroke:none;">
<circle cx="52.7829" cy="77.3612" r="0.4000" /> 
</g>
<g style="fill:#4FCBCB; fill-opacity:1.0000; stroke:none;">
<circle cx="52.7829" cy="80.7553" r="0.4000" /> 
</g>
<g style="fill:#4FCBCB; fill-opacity:1.0000; stroke:none;">
<circle cx="54.4800" cy="76.6582" r="0.4000" /> 
</g>
<g style="fill:#4FCBCB; fill-opacity:1.0000; stroke:none;">
<circle cx="54.4800" cy="79.0583" r="3.2000" /> 
</g>
<g style="fill:#4FCBCB; fill-opacity:1.0000; stroke:none;">
<circle cx="54.4800" cy="81.4582" r="0.4000" /> 
</g>
<g style="fill:#4FCBCB; fill-opacity:1.0000; stroke:none;">
<circle cx="56.1771" cy="77.3612" r="0.4000" /> 
</g>
<g style="fill:#4FCBCB; fill-opacity:1.0000; stroke:none;">
<circle cx="56.1771" cy="80.7553" r="0.4000" /> 
</g>
<g style="fill:#4FCBCB; fill-opacity:1.0000; stroke:none;">
<circle cx="56.8800" cy="79.0583" r="0.4000" /> 
</g>
<g style="fill:#4FCBCB; fill-opacity:1.0000; stroke:none;">
<circle cx="50.9200" cy="23.0732" r="1.4775" /> 
</g>
<g style="fill:#4FCBCB; fill-opacity:1.0000; stroke:none;">
<circle cx="35.4200" cy="23.0732" r="1.4775" /> 
</g>
<g style="fill:#4FCBCB; fill-opacity:1.0000; stroke:none;">
<circle cx="2.1500" cy="79.0583" r="0.4000" /> 
</g>
<g style="fill:#4FCBCB; fill-opacity:1.0000; stroke:none;">
<circle cx="2.8529" cy="77.3612" r="0.4000" /> 
</g>
<g style="fill:#4FCBCB; fill-opacity:1.0000; stroke:none;">
<circle cx="2.8529" cy="80.7553" r="0.4000" /> 
</g>
<g style="fill:#4FCBCB; fill-opacity:1.0000; stroke:none;">
<circle cx="4.5500" cy="76.6582" r="0.4000" /> 
</g>
<g style="fill:#4FCBCB; fill-opacity:1.0000; stroke:none;">
<circle cx="4.5500" cy="79.0583" r="3.2000" /> 
</g>
<g style="fill:#4FCBCB; fill-opacity:1.0000; stroke:none;">
<circle cx="4.5500" cy="81.4582" r="0.4000" /> 
</g>
<g style="fill:#4FCBCB; fill-opacity:1.0000; stroke:none;">
<circle cx="6.2471" cy="77.3612" r="0.4000" /> 
</g>
<g style="fill:#4FCBCB; fill-opacity:1.0000; stroke:none;">
<circle cx="6.2471" cy="80.7553" r="0.4000" /> 
</g>
<g style="fill:#4FCBCB; fill-opacity:1.0000; stroke:none;">
<circle cx="6.9500" cy="79.0583" r="0.4000" /> 
</g>
<g style="fill:#4FCBCB; fill-opacity:1.0000; stroke:none;">
<circle cx="52.0800" cy="32.8582" r="0.4000" /> 
</g>
<g style="fill:#4FCBCB; fill-opacity:1.0000; stroke:none;">
<circle cx="52.7829" cy="31.1612" r="0.4000" /> 
</g>
<g style="fill:#4FCBCB; fill-opacity:1.0000; stroke:none;">
<circle cx="52.7829" cy="34.5553" r="0.4000" /> 
</g>
<g style="fill:#4FCBCB; fill-opacity:1.0000; stroke:none;">
<circle cx="54.4800" cy="30.4582" r="0.4000" /> 
</g>
<g style="fill:#4FCBCB; fill-opacity:1.0000; stroke:none;">
<circle cx="54.4800" cy="32.8582" r="3.2000" /> 
</g>
<g style="fill:#4FCBCB; fill-opacity:1.0000; stroke:none;">
<circle cx="54.4800" cy="35.2582" r="0.4000" /> 
</g>
<g style="fill:#4FCBCB; fill-opacity:1.0000; stroke:none;">
<circle cx="56.1771" cy="31.1612" r="0.4000" /> 
</g>
<g style="fill:#4FCBCB; fill-opacity:1.0000; stroke:none;">
<circle cx="56.1771" cy="34.5553" r="0.4000" /> 
</g>
<g style="fill:#4FCBCB; fill-opacity:1.0000; stroke:none;">
<circle cx="56.8800" cy="32.8582" r="0.4000" /> 
</g>
<g style="fill:#ECECEC; fill-opacity:1.0000; stroke:none;">
<circle cx="2.4240" cy="39.2142" r="0.3000" /> 
</g>
<g style="fill:#ECECEC; fill-opacity:1.0000; stroke:none;">
<circle cx="25.8910" cy="93.7313" r="0.3000" /> 
</g>
<g style="fill:#ECECEC; fill-opacity:1.0000; stroke:none;">
<circle cx="56.3990" cy="59.8332" r="0.3000" /> 
</g>
<g style="fill:#ECECEC; fill-opacity:1.0000; stroke:none;">
<circle cx="2.4240" cy="69.2142" r="0.3000" /> 
</g>
<g style="fill:#ECECEC; fill-opacity:1.0000; stroke:none;">
<circle cx="29.4200" cy="18.2383" r="0.3000" /> 
</g>
<g style="fill:#ECECEC; fill-opacity:1.0000; stroke:none;">
<circle cx="41.4200" cy="18.2383" r="0.3000" /> 
</g>
<g style="fill:#ECECEC; fill-opacity:1.0000; stroke:none;">
<circle cx="56.3990" cy="62.8332" r="0.3000" /> 
</g>
<g style="fill:#ECECEC; fill-opacity:1.0000; stroke:none;">
<circle cx="2.4240" cy="90.0482" r="0.3000" /> 
</g>
<g style="fill:#ECECEC; fill-opacity:1.0000; stroke:none;">
<circle cx="56.2720" cy="91.4453" r="0.3000" /> 
</g>
<g style="fill:#ECECEC; fill-opacity:1.0000; stroke:none;">
<circle cx="7.8910" cy="93.7313" r="0.3000" /> 
</g>
<g style="fill:#ECECEC; fill-opacity:1.0000; stroke:none;">
<circle cx="56.3990" cy="26.8332" r="0.3000" /> 
</g>
<g style="fill:#ECECEC; fill-opacity:1.0000; stroke:none;">
<circle cx="56.2720" cy="85.9052" r="0.3000" /> 
</g>
<g style="fill:#ECECEC; fill-opacity:1.0000; stroke:none;">
<circle cx="47.4200" cy="18.2383" r="0.3000" /> 
</g>
<g style="fill:#ECECEC; fill-opacity:1.0000; stroke:none;">
<circle cx="28.8910" cy="93.7313" r="0.3000" /> 
</g>
<g style="fill:#ECECEC; fill-opacity:1.0000; stroke:none;">
<circle cx="56.3990" cy="41.8332" r="0.3000" /> 
</g>
<g style="fill:#ECECEC; fill-opacity:1.0000; stroke:none;">
<circle cx="56.2720" cy="82.9052" r="0.3000" /> 
</g>
<g style="fill:#ECECEC; fill-opacity:1.0000; stroke:none;">
<circle cx="11.4200" cy="18.2383" r="0.3000" /> 
</g>
<g style="fill:#ECECEC; fill-opacity:1.0000; stroke:none;">
<circle cx="8.4200" cy="18.2383" r="0.3000" /> 
</g>
<g style="fill:#ECECEC; fill-opacity:1.0000; stroke:none;">
<circle cx="4.8910" cy="93.7313" r="0.3000" /> 
</g>
<g style="fill:#ECECEC; fill-opacity:1.0000; stroke:none;">
<circle cx="2.4240" cy="42.2142" r="0.3000" /> 
</g>
<g style="fill:#ECECEC; fill-opacity:1.0000; stroke:none;">
<circle cx="56.2720" cy="93.7313" r="0.3000" /> 
</g>
<g style="fill:#ECECEC; fill-opacity:1.0000; stroke:none;">
<circle cx="19.8910" cy="93.7313" r="0.3000" /> 
</g>
<g style="fill:#ECECEC; fill-opacity:1.0000; stroke:none;">
<circle cx="49.8910" cy="93.7313" r="0.3000" /> 
</g>
<g style="fill:#ECECEC; fill-opacity:1.0000; stroke:none;">
<circle cx="2.4240" cy="21.2142" r="0.3000" /> 
</g>
<g style="fill:#ECECEC; fill-opacity:1.0000; stroke:none;">
<circle cx="2.4200" cy="18.2383" r="0.3000" /> 
</g>
<g style="fill:#ECECEC; fill-opacity:1.0000; stroke:none;">
<circle cx="22.8910" cy="93.7313" r="0.3000" /> 
</g>
<g style="fill:#ECECEC; fill-opacity:1.0000; stroke:none;">
<circle cx="2.4240" cy="84.0482" r="0.3000" /> 
</g>
<g style="fill:#ECECEC; fill-opacity:1.0000; stroke:none;">
<circle cx="26.4200" cy="18.2383" r="0.3000" /> 
</g>
<g style="fill:#ECECEC; fill-opacity:1.0000; stroke:none;">
<circle cx="2.4240" cy="45.2142" r="0.3000" /> 
</g>
<g style="fill:#ECECEC; fill-opacity:1.0000; stroke:none;">
<circle cx="31.8910" cy="93.7313" r="0.3000" /> 
</g>
<g style="fill:#ECECEC; fill-opacity:1.0000; stroke:none;">
<circle cx="40.8910" cy="93.7313" r="0.3000" /> 
</g>
<g style="fill:#ECECEC; fill-opacity:1.0000; stroke:none;">
<circle cx="2.4240" cy="48.2142" r="0.3000" /> 
</g>
<g style="fill:#ECECEC; fill-opacity:1.0000; stroke:none;">
<circle cx="2.4240" cy="24.2142" r="0.3000" /> 
</g>
<g style="fill:#ECECEC; fill-opacity:1.0000; stroke:none;">
<circle cx="43.8910" cy="93.7313" r="0.3000" /> 
</g>
<g style="fill:#ECECEC; fill-opacity:1.0000; stroke:none;">
<circle cx="38.4200" cy="18.2383" r="0.3000" /> 
</g>
<g style="fill:#ECECEC; fill-opacity:1.0000; stroke:none;">
<circle cx="46.8910" cy="93.7313" r="0.3000" /> 
</g>
<g style="fill:#ECECEC; fill-opacity:1.0000; stroke:none;">
<circle cx="37.8910" cy="93.7313" r="0.3000" /> 
</g>
<g style="fill:#ECECEC; fill-opacity:1.0000; stroke:none;">
<circle cx="56.4200" cy="18.2383" r="0.3000" /> 
</g>
<g style="fill:#ECECEC; fill-opacity:1.0000; stroke:none;">
<circle cx="2.4240" cy="66.2142" r="0.3000" /> 
</g>
<g style="fill:#ECECEC; fill-opacity:1.0000; stroke:none;">
<circle cx="2.4240" cy="63.2142" r="0.3000" /> 
</g>
<g style="fill:#ECECEC; fill-opacity:1.0000; stroke:none;">
<circle cx="56.3990" cy="56.8332" r="0.3000" /> 
</g>
<g style="fill:#ECECEC; fill-opacity:1.0000; stroke:none;">
<circle cx="2.4240" cy="27.2142" r="0.3000" /> 
</g>
<g style="fill:#ECECEC; fill-opacity:1.0000; stroke:none;">
<circle cx="56.3990" cy="53.8332" r="0.3000" /> 
</g>
<g style="fill:#ECECEC; fill-opacity:1.0000; stroke:none;">
<circle cx="56.3990" cy="50.8332" r="0.3000" /> 
</g>
<g style="fill:#ECECEC; fill-opacity:1.0000; stroke:none;">
<circle cx="44.4200" cy="18.2383" r="0.3000" /> 
</g>
<g style="fill:#ECECEC; fill-opacity:1.0000; stroke:none;">
<circle cx="32.4200" cy="18.2383" r="0.3000" /> 
</g>
<g style="fill:#ECECEC; fill-opacity:1.0000; stroke:none;">
<circle cx="2.4240" cy="54.2142" r="0.3000" /> 
</g>
<g style="fill:#ECECEC; fill-opacity:1.0000; stroke:none;">
<circle cx="56.3990" cy="47.8332" r="0.3000" /> 
</g>
<g style="fill:#ECECEC; fill-opacity:1.0000; stroke:none;">
<circle cx="23.4200" cy="18.2383" r="0.3000" /> 
</g>
<g style="fill:#ECECEC; fill-opacity:1.0000; stroke:none;">
<circle cx="53.4200" cy="18.2383" r="0.3000" /> 
</g>
<g style="fill:#ECECEC; fill-opacity:1.0000; stroke:none;">
<circle cx="50.4200" cy="18.2383" r="0.3000" /> 
</g>
<g style="fill:#ECECEC; fill-opacity:1.0000; stroke:none;">
<circle cx="56.3990" cy="68.8332" r="0.3000" /> 
</g>
<g style="fill:#ECECEC; fill-opacity:1.0000; stroke:none;">
<circle cx="56.3990" cy="74.8332" r="0.3000" /> 
</g>
<g style="fill:#ECECEC; fill-opacity:1.0000; stroke:none;">
<circle cx="13.8910" cy="93.7313" r="0.3000" /> 
</g>
<g style="fill:#ECECEC; fill-opacity:1.0000; stroke:none;">
<circle cx="56.3990" cy="23.8332" r="0.3000" /> 
</g>
<g style="fill:#ECECEC; fill-opacity:1.0000; stroke:none;">
<circle cx="56.3990" cy="38.8332" r="0.3000" /> 
</g>
<g style="fill:#ECECEC; fill-opacity:1.0000; stroke:none;">
<circle cx="10.8910" cy="93.7313" r="0.3000" /> 
</g>
<g style="fill:#ECECEC; fill-opacity:1.0000; stroke:none;">
<circle cx="56.2720" cy="88.9052" r="0.3000" /> 
</g>
<g style="fill:#ECECEC; fill-opacity:1.0000; stroke:none;">
<circle cx="52.8910" cy="93.7313" r="0.3000" /> 
</g>
<g style="fill:#ECECEC; fill-opacity:1.0000; stroke:none;">
<circle cx="56.3990" cy="20.8332" r="0.3000" /> 
</g>
<g style="fill:#ECECEC; fill-opacity:1.0000; stroke:none;">
<circle cx="20.4200" cy="18.2383" r="0.3000" /> 
</g>
<g style="fill:#ECECEC; fill-opacity:1.0000; stroke:none;">
<circle cx="35.4200" cy="18.2383" r="0.3000" /> 
</g>
<g style="fill:#ECECEC; fill-opacity:1.0000; stroke:none;">
<circle cx="56.3990" cy="65.8332" r="0.3000" /> 
</g>
<g style="fill:#ECECEC; fill-opacity:1.0000; stroke:none;">
<circle cx="2.4240" cy="60.2142" r="0.3000" /> 
</g>
<g style="fill:#ECECEC; fill-opacity:1.0000; stroke:none;">
<circle cx="5.4200" cy="18.2383" r="0.3000" /> 
</g>
<g style="fill:#ECECEC; fill-opacity:1.0000; stroke:none;">
<circle cx="2.4240" cy="75.2142" r="0.3000" /> 
</g>
<g style="fill:#ECECEC; fill-opacity:1.0000; stroke:none;">
<circle cx="2.4240" cy="93.7313" r="0.3000" /> 
</g>
<g style="fill:#ECECEC; fill-opacity:1.0000; stroke:none;">
<circle cx="56.3990" cy="71.8332" r="0.3000" /> 
</g>
<g style="fill:#ECECEC; fill-opacity:1.0000; stroke:none;">
<circle cx="17.4200" cy="18.2383" r="0.3000" /> 
</g>
<g style="fill:#ECECEC; fill-opacity:1.0000; stroke:none;">
<circle cx="16.8910" cy="93.7313" r="0.3000" /> 
</g>
<g style="fill:#ECECEC; fill-opacity:1.0000; stroke:none;">
<circle cx="34.8910" cy="93.7313" r="0.3000" /> 
</g>
<g style="fill:#ECECEC; fill-opacity:1.0000; stroke:none;">
<circle cx="2.4240" cy="72.2142" r="0.3000" /> 
</g>
<g style="fill:#ECECEC; fill-opacity:1.0000; stroke:none;">
<circle cx="2.4240" cy="57.2142" r="0.3000" /> 
</g>
<g style="fill:#ECECEC; fill-opacity:1.0000; stroke:none;">
<circle cx="2.4240" cy="87.0482" r="0.3000" /> 
</g>
<g style="fill:#ECECEC; fill-opacity:1.0000; stroke:none;">
<circle cx="2.4240" cy="51.2142" r="0.3000" /> 
</g>
<g style="fill:#ECECEC; fill-opacity:1.0000; stroke:none;">
<circle cx="14.4200" cy="18.2383" r="0.3000" /> 
</g>
<g style="fill:#ECECEC; fill-opacity:1.0000; stroke:none;">
<circle cx="56.3990" cy="44.8332" r="0.3000" /> 
</g>
<g style="fill:#ECECEC; fill-opacity:1.0000; stroke:none;">
<circle cx="42.3200" cy="66.0382" r="0.3000" /> 
</g>
<g style="fill:#ECECEC; fill-opacity:1.0000; stroke:none;">
<circle cx="41.6200" cy="66.0382" r="0.3000" /> 
</g>
<g style="fill:#ECECEC; fill-opacity:1.0000; stroke:none;">
<circle cx="41.7200" cy="66.7382" r="0.3000" /> 
</g>
<g style="fill:#ECECEC; fill-opacity:1.0000; stroke:none;">
<circle cx="49.1200" cy="35.7383" r="0.3000" /> 
</g>
<g style="fill:#ECECEC; fill-opacity:1.0000; stroke:none;">
<circle cx="49.7200" cy="36.0382" r="0.3000" /> 
</g>
<g style="fill:#ECECEC; fill-opacity:1.0000; stroke:none;">
<circle cx="49.1200" cy="37.8382" r="0.3000" /> 
</g>
<g style="fill:#ECECEC; fill-opacity:1.0000; stroke:none;">
<circle cx="49.7200" cy="36.8382" r="0.3000" /> 
</g>
<g style="fill:#ECECEC; fill-opacity:1.0000; stroke:none;">
<circle cx="49.1200" cy="36.4382" r="0.3000" /> 
</g>
<g style="fill:#ECECEC; fill-opacity:1.0000; stroke:none;">
<circle cx="49.1200" cy="39.2383" r="0.3000" /> 
</g>
<g style="fill:#ECECEC; fill-opacity:1.0000; stroke:none;">
<circle cx="49.7200" cy="37.5382" r="0.3000" /> 
</g>
<g style="fill:#ECECEC; fill-opacity:1.0000; stroke:none;">
<circle cx="49.8200" cy="76.8383" r="0.3000" /> 
</g>
<g style="fill:#ECECEC; fill-opacity:1.0000; stroke:none;">
<circle cx="49.1200" cy="37.1382" r="0.3000" /> 
</g>
<g style="fill:#ECECEC; fill-opacity:1.0000; stroke:none;">
<circle cx="49.1200" cy="38.5382" r="0.3000" /> 
</g>
<g style="fill:#ECECEC; fill-opacity:1.0000; stroke:none;">
<circle cx="49.2870" cy="49.7892" r="0.3000" /> 
</g>
<g style="fill:#ECECEC; fill-opacity:1.0000; stroke:none;">
<circle cx="41.3200" cy="45.2383" r="0.3000" /> 
</g>
<g style="fill:#ECECEC; fill-opacity:1.0000; stroke:none;">
<circle cx="10.2950" cy="75.9633" r="0.3000" /> 
</g>
<g style="fill:#ECECEC; fill-opacity:1.0000; stroke:none;">
<circle cx="12.7700" cy="33.8633" r="0.3000" /> 
</g>
<g style="fill:#ECECEC; fill-opacity:1.0000; stroke:none;">
<circle cx="19.4420" cy="59.1872" r="0.3000" /> 
</g>
<g style="fill:#ECECEC; fill-opacity:1.0000; stroke:none;">
<circle cx="40.6200" cy="45.2383" r="0.3000" /> 
</g>
<g style="fill:#ECECEC; fill-opacity:1.0000; stroke:none;">
<circle cx="39.8200" cy="45.2383" r="0.3000" /> 
</g>
<g style="fill:#ECECEC; fill-opacity:1.0000; stroke:none;">
<circle cx="15.3976" cy="35.0147" r="0.3000" /> 
</g>
<g style="fill:#ECECEC; fill-opacity:1.0000; stroke:none;">
<circle cx="29.9200" cy="65.7382" r="0.3000" /> 
</g>
<g style="fill:#ECECEC; fill-opacity:1.0000; stroke:none;">
<circle cx="29.9200" cy="66.4382" r="0.3000" /> 
</g>
<g style="fill:#ECECEC; fill-opacity:1.0000; stroke:none;">
<circle cx="6.2900" cy="52.3882" r="0.3000" /> 
</g>
<g style="fill:#ECECEC; fill-opacity:1.0000; stroke:none;">
<circle cx="10.4200" cy="37.0382" r="0.3000" /> 
</g>
<g style="fill:#ECECEC; fill-opacity:1.0000; stroke:none;">
<circle cx="21.3200" cy="57.9382" r="0.3000" /> 
</g>
<g style="fill:#ECECEC; fill-opacity:1.0000; stroke:none;">
<circle cx="20.8200" cy="33.7383" r="0.3000" /> 
</g>
<g style="fill:#ECECEC; fill-opacity:1.0000; stroke:none;">
<circle cx="20.8200" cy="34.5382" r="0.3000" /> 
</g>
<g style="fill:#ECECEC; fill-opacity:1.0000; stroke:none;">
<circle cx="21.6200" cy="32.2383" r="0.3000" /> 
</g>
<g style="fill:#ECECEC; fill-opacity:1.0000; stroke:none;">
<circle cx="24.1200" cy="33.0382" r="0.3000" /> 
</g>
<g style="fill:#ECECEC; fill-opacity:1.0000; stroke:none;">
<circle cx="21.6200" cy="34.5382" r="0.3000" /> 
</g>
<g style="fill:#ECECEC; fill-opacity:1.0000; stroke:none;">
<circle cx="20.8200" cy="32.2383" r="0.3000" /> 
</g>
<g style="fill:#ECECEC; fill-opacity:1.0000; stroke:none;">
<circle cx="23.2200" cy="32.2383" r="0.3000" /> 
</g>
<g style="fill:#ECECEC; fill-opacity:1.0000; stroke:none;">
<circle cx="24.1200" cy="34.5382" r="0.3000" /> 
</g>
<g style="fill:#ECECEC; fill-opacity:1.0000; stroke:none;">
<circle cx="24.1200" cy="32.2383" r="0.3000" /> 
</g>
<g style="fill:#ECECEC; fill-opacity:1.0000; stroke:none;">
<circle cx="22.4200" cy="32.2383" r="0.3000" /> 
</g>
<g style="fill:#ECECEC; fill-opacity:1.0000; stroke:none;">
<circle cx="20.8200" cy="33.0382" r="0.3000" /> 
</g>
<g style="fill:#ECECEC; fill-opacity:1.0000; stroke:none;">
<circle cx="23.3200" cy="34.5382" r="0.3000" /> 
</g>
<g style="fill:#ECECEC; fill-opacity:1.0000; stroke:none;">
<circle cx="38.5200" cy="45.2383" r="0.3000" /> 
</g>
<g style="fill:#ECECEC; fill-opacity:1.0000; stroke:none;">
<circle cx="24.1200" cy="33.8382" r="0.3000" /> 
</g>
<g style="fill:#ECECEC; fill-opacity:1.0000; stroke:none;">
<circle cx="37.4200" cy="45.2383" r="0.3000" /> 
</g>
<g style="fill:#ECECEC; fill-opacity:1.0000; stroke:none;">
<circle cx="22.5200" cy="34.5382" r="0.3000" /> 
</g>
<g style="fill:#ECECEC; fill-opacity:1.0000; stroke:none;">
<circle cx="22.7400" cy="36.1983" r="0.3000" /> 
</g>
<g style="fill:#ECECEC; fill-opacity:1.0000; stroke:none;">
<circle cx="21.8200" cy="36.7782" r="0.3000" /> 
</g>
<g style="fill:#ECECEC; fill-opacity:1.0000; stroke:none;">
<circle cx="22.4500" cy="36.7782" r="0.3000" /> 
</g>
<g style="fill:#ECECEC; fill-opacity:1.0000; stroke:none;">
<circle cx="23.0800" cy="36.7782" r="0.3000" /> 
</g>
<g style="fill:#ECECEC; fill-opacity:1.0000; stroke:none;">
<circle cx="21.0200" cy="37.6382" r="0.3000" /> 
</g>
<g style="fill:#ECECEC; fill-opacity:1.0000; stroke:none;">
<circle cx="23.3600" cy="36.1782" r="0.3000" /> 
</g>
<g style="fill:#ECECEC; fill-opacity:1.0000; stroke:none;">
<circle cx="21.0200" cy="37.0382" r="0.3000" /> 
</g>
<g style="fill:#ECECEC; fill-opacity:1.0000; stroke:none;">
<circle cx="21.5100" cy="36.1983" r="0.3000" /> 
</g>
<g style="fill:#ECECEC; fill-opacity:1.0000; stroke:none;">
<circle cx="21.0200" cy="38.2383" r="0.3000" /> 
</g>
<g style="fill:#ECECEC; fill-opacity:1.0000; stroke:none;">
<circle cx="22.1200" cy="36.1983" r="0.3000" /> 
</g>
<g style="fill:#ECECEC; fill-opacity:1.0000; stroke:none;">
<circle cx="23.0200" cy="44.2383" r="0.3000" /> 
</g>
<g style="fill:#ECECEC; fill-opacity:1.0000; stroke:none;">
<circle cx="23.9200" cy="43.6382" r="0.3000" /> 
</g>
<g style="fill:#ECECEC; fill-opacity:1.0000; stroke:none;">
<circle cx="21.4800" cy="43.6982" r="0.3000" /> 
</g>
<g style="fill:#ECECEC; fill-opacity:1.0000; stroke:none;">
<circle cx="22.2000" cy="43.6882" r="0.3000" /> 
</g>
<g style="fill:#ECECEC; fill-opacity:1.0000; stroke:none;">
<circle cx="23.0200" cy="43.2383" r="0.3000" /> 
</g>
<g style="fill:#ECECEC; fill-opacity:1.0000; stroke:none;">
<circle cx="24.7200" cy="43.6382" r="0.3000" /> 
</g>
<g style="fill:#ECECEC; fill-opacity:1.0000; stroke:none;">
<circle cx="24.8100" cy="49.9883" r="0.3000" /> 
</g>
<g style="fill:#ECECEC; fill-opacity:1.0000; stroke:none;">
<circle cx="17.8390" cy="49.6785" r="0.3000" /> 
</g>
<g style="fill:#ECECEC; fill-opacity:1.0000; stroke:none;">
<circle cx="12.6200" cy="78.8383" r="0.3000" /> 
</g>
<g style="fill:#ECECEC; fill-opacity:1.0000; stroke:none;">
<circle cx="12.6200" cy="78.1382" r="0.3000" /> 
</g>
<g style="fill:#ECECEC; fill-opacity:1.0000; stroke:none;">
<circle cx="11.9200" cy="78.1382" r="0.3000" /> 
</g>
<g style="fill:#ECECEC; fill-opacity:1.0000; stroke:none;">
<circle cx="13.3200" cy="78.1382" r="0.3000" /> 
</g>
<g style="fill:#ECECEC; fill-opacity:1.0000; stroke:none;">
<circle cx="13.3200" cy="78.8383" r="0.3000" /> 
</g>
<g style="fill:#ECECEC; fill-opacity:1.0000; stroke:none;">
<circle cx="16.7200" cy="39.5382" r="0.3000" /> 
</g>
<g style="fill:#ECECEC; fill-opacity:1.0000; stroke:none;">
<circle cx="16.2200" cy="34.9382" r="0.3000" /> 
</g>
<g style="fill:#ECECEC; fill-opacity:1.0000; stroke:none;">
<circle cx="24.6200" cy="52.8382" r="0.3000" /> 
</g>
<g style="fill:#ECECEC; fill-opacity:1.0000; stroke:none;">
<circle cx="7.5000" cy="56.7383" r="0.3000" /> 
</g>
<g style="fill:#ECECEC; fill-opacity:1.0000; stroke:none;">
<circle cx="25.3200" cy="52.8382" r="0.3000" /> 
</g>
<g style="fill:#ECECEC; fill-opacity:1.0000; stroke:none;">
<circle cx="23.9200" cy="52.8382" r="0.3000" /> 
</g>
<g style="fill:#ECECEC; fill-opacity:1.0000; stroke:none;">
<circle cx="16.2200" cy="33.5382" r="0.3000" /> 
</g>
<g style="fill:#ECECEC; fill-opacity:1.0000; stroke:none;">
<circle cx="16.2200" cy="34.2383" r="0.3000" /> 
</g>
<g style="fill:#ECECEC; fill-opacity:1.0000; stroke:none;">
<circle cx="23.2200" cy="52.8382" r="0.3000" /> 
</g>
<g style="fill:#ECECEC; fill-opacity:1.0000; stroke:none;">
<circle cx="16.1200" cy="41.5282" r="0.3000" /> 
</g>
<g style="fill:#ECECEC; fill-opacity:1.0000; stroke:none;">
<circle cx="16.1200" cy="42.1782" r="0.3000" /> 
</g>
<g style="fill:#ECECEC; fill-opacity:1.0000; stroke:none;">
<circle cx="14.2200" cy="78.1382" r="0.3000" /> 
</g>
<g style="fill:#ECECEC; fill-opacity:1.0000; stroke:none;">
<circle cx="15.4200" cy="33.5382" r="0.3000" /> 
</g>
<g style="fill:#ECECEC; fill-opacity:1.0000; stroke:none;">
<circle cx="16.1200" cy="39.5382" r="0.3000" /> 
</g>
<g style="fill:#ECECEC; fill-opacity:1.0000; stroke:none;">
<circle cx="16.1200" cy="40.8882" r="0.3000" /> 
</g>
<g style="fill:#ECECEC; fill-opacity:1.0000; stroke:none;">
<circle cx="15.4200" cy="34.2383" r="0.3000" /> 
</g>
<g style="fill:#ECECEC; fill-opacity:1.0000; stroke:none;">
<circle cx="14.3650" cy="53.4282" r="0.3000" /> 
</g>
<g style="fill:#ECECEC; fill-opacity:1.0000; stroke:none;">
<circle cx="16.1200" cy="40.1882" r="0.3000" /> 
</g>
<g style="fill:#ECECEC; fill-opacity:1.0000; stroke:none;">
<circle cx="5.9200" cy="45.9382" r="0.3000" /> 
</g>
<g style="fill:#ECECEC; fill-opacity:1.0000; stroke:none;">
<circle cx="8.2200" cy="56.7383" r="0.3000" /> 
</g>
<g style="fill:#ECECEC; fill-opacity:1.0000; stroke:none;">
<circle cx="7.8200" cy="47.3382" r="0.3000" /> 
</g>
<g style="fill:#ECECEC; fill-opacity:1.0000; stroke:none;">
<circle cx="8.9200" cy="57.4382" r="0.3000" /> 
</g>
<g style="fill:#ECECEC; fill-opacity:1.0000; stroke:none;">
<circle cx="8.2200" cy="57.4382" r="0.3000" /> 
</g>
<g style="fill:#ECECEC; fill-opacity:1.0000; stroke:none;">
<circle cx="7.5200" cy="57.4382" r="0.3000" /> 
</g>
<g style="fill:#ECECEC; fill-opacity:1.0000; stroke:none;">
<circle cx="5.9200" cy="46.7383" r="0.3000" /> 
</g>
<g style="fill:#ECECEC; fill-opacity:1.0000; stroke:none;">
<circle cx="36.8200" cy="57.5382" r="0.3000" /> 
</g>
<g style="fill:#ECECEC; fill-opacity:1.0000; stroke:none;">
<circle cx="36.8200" cy="56.8382" r="0.3000" /> 
</g>
<g style="fill:#ECECEC; fill-opacity:1.0000; stroke:none;">
<circle cx="36.1200" cy="57.5382" r="0.3000" /> 
</g>
<g style="fill:#ECECEC; fill-opacity:1.0000; stroke:none;">
<circle cx="15.7300" cy="32.0583" r="0.3000" /> 
</g>
<g style="fill:#ECECEC; fill-opacity:1.0000; stroke:none;">
<circle cx="11.6200" cy="56.2782" r="0.3000" /> 
</g>
<g style="fill:#ECECEC; fill-opacity:1.0000; stroke:none;">
<circle cx="14.7400" cy="42.7482" r="0.3000" /> 
</g>
<g style="fill:#ECECEC; fill-opacity:1.0000; stroke:none;">
<circle cx="14.1200" cy="56.3382" r="0.3000" /> 
</g>
<g style="fill:none; 
stroke:#4FCBCB; stroke-width:0.3000; stroke-opacity:1; 
stroke-linecap:round; stroke-linejoin:round;">
<path d="M15.4200 34.2383
L15.3179 34.2383
" />
<path style="fill:#4FCBCB; fill-opacity:1.0000; stroke:none;fill-rule:evenodd;"
d="M 16.2630,59.8579
16.3088,59.9107
16.3200,59.9622
16.3200,65.7142
16.3003,65.7813
16.2475,65.8270
16.1960,65.8383
10.0440,65.8383
9.9770,65.8186
9.9312,65.7658
9.9200,65.7142
9.9200,59.9622
9.9397,59.8952
9.9925,59.8495
10.0440,59.8382
16.1960,59.8382
Z" /> 
<path style="fill:#4FCBCB; fill-opacity:1.0000; stroke:none;fill-rule:evenodd;"
d="M 57.9462,17.4580
58.0132,17.4778
58.0588,17.5307
58.0699,17.5821
58.0201,94.4055
58.0004,94.4725
57.9475,94.5182
57.8972,94.5294
3.1964,95.0377
3.1953,95.0378
1.1139,95.0378
1.0469,95.0181
1.0011,94.9653
0.9899,94.9138
0.9897,94.4725
0.9718,57.8801
3.9153,57.8801
3.9171,57.9312
3.9177,57.9382
3.9177,57.9383
3.9193,57.9562
3.9193,57.9562
3.9262,58.0068
3.9262,58.0068
3.9729,58.1429
3.9729,58.1429
4.0023,58.2004
4.0047,58.2051
4.0878,58.3226
4.0878,58.3226
5.6820,60.0054
5.7139,60.0676
5.7160,60.0899
5.7904,72.2872
5.7906,72.3173
5.8097,75.4555
5.8114,75.7332
5.8293,75.8636
5.8293,75.8636
5.8463,75.9254
5.8463,75.9254
5.8972,76.0467
5.8972,76.0467
5.9867,76.1594
6.0375,76.2074
6.0375,76.2074
6.0872,76.2424
6.0946,76.2517
6.4251,76.4663
6.4356,76.4740
6.6858,76.6766
6.6954,76.6852
6.9230,76.9128
6.9317,76.9225
7.1343,77.1727
7.1419,77.1831
7.3172,77.4531
7.3237,77.4643
7.4098,77.6333
7.4098,77.6333
7.4716,77.7271
7.4716,77.7271
7.5066,77.7692
7.5066,77.7692
7.5066,77.7692
7.5877,77.8471
7.9674,78.1382
7.9674,78.1382
8.2916,78.3868
8.4907,78.5394
8.7659,78.7504
8.8072,78.8068
8.8145,78.8488
8.8145,86.6662
8.7948,86.7333
8.7420,86.7790
8.6905,86.7903
6.5746,86.7903
6.5746,86.7903
6.5150,86.7967
6.3802,86.8470
6.3802,86.8470
6.2650,86.9332
6.2650,86.9332
6.1787,87.0484
6.1787,87.0484
6.1284,87.1833
6.1220,87.2429
6.1220,87.2429
6.1220,90.2936
6.1220,90.2936
6.1284,90.3532
6.1787,90.4881
6.1787,90.4881
6.2650,90.6033
6.2650,90.6033
6.3802,90.6895
6.3802,90.6895
6.5150,90.7398
6.5150,90.7398
6.5219,90.7406
6.5746,90.7462
8.6905,90.7462
8.7575,90.7659
8.8033,90.8187
8.8145,90.8702
8.8145,91.7146
8.8259,91.8214
8.8259,91.8214
8.8370,91.8726
8.8370,91.8726
8.8707,91.9746
8.9482,92.0959
8.9482,92.0959
8.9482,92.0959
8.9939,92.1488
8.9939,92.1488
9.1024,92.2433
9.2331,92.3034
9.3001,92.3232
9.3002,92.3232
9.3002,92.3232
9.4425,92.3441
49.9911,92.4434
50.1058,92.4306
50.1605,92.4179
50.2693,92.3794
50.3882,92.2984
50.4398,92.2513
50.4398,92.2513
50.5311,92.1401
50.5873,92.0077
50.6052,91.9401
50.6219,91.7972
50.6130,91.4598
50.6309,91.3923
50.6824,91.3452
50.7281,91.3329
50.8922,91.3211
51.1687,91.2610
51.4338,91.1621
51.6821,91.0265
51.9086,90.8569
52.1087,90.6569
52.2782,90.4304
52.4138,90.1820
52.5127,89.9169
52.5729,89.6405
52.5931,89.3582
52.5729,89.0760
52.5127,88.7996
52.4138,88.5345
52.2782,88.2861
52.2782,88.2861
52.1087,88.0596
52.1087,88.0596
51.9086,87.8596
51.9086,87.8596
51.6821,87.6900
51.6821,87.6900
51.4338,87.5544
51.4338,87.5544
51.3333,87.5169
51.1687,87.4555
51.1687,87.4555
51.1687,87.4555
50.8922,87.3954
50.8922,87.3954
50.6165,87.3757
50.5510,87.3512
50.5091,87.2953
50.5013,87.2553
50.3368,81.0565
50.3547,80.9890
50.4062,80.9418
50.4130,80.9388
51.0408,80.6772
51.1073,80.6435
51.1386,80.6247
51.1995,80.5816
51.2963,80.4751
51.3354,80.4172
51.3354,80.4172
51.3354,80.4172
51.3387,80.4106
51.3390,80.4099
51.3983,80.2878
51.4222,80.1459
51.4238,80.0761
51.4238,80.0761
51.4067,79.9332
51.3522,79.7297
51.3495,79.7170
51.2992,79.3991
51.2978,79.3862
51.2810,79.0647
51.2810,79.0518
51.2978,78.7303
51.2992,78.7174
51.3495,78.3995
51.3522,78.3868
51.4355,78.0758
51.4395,78.0635
51.4837,77.9485
51.5088,77.8595
51.5170,77.8150
51.5255,77.7229
51.5255,77.4239
51.5452,77.3569
51.5678,77.3306
53.7108,75.4555
53.7599,75.4061
53.7823,75.3803
53.8242,75.3247
53.8846,75.1941
53.9046,75.1272
53.9258,74.9849
54.1165,36.5547
54.1148,36.5114
54.1131,36.4902
54.1078,36.4472
54.0640,36.3102
54.0334,36.2473
53.9528,36.1282
53.8419,36.0365
53.7843,36.0015
53.7828,36.0005
53.7822,36.0002
53.6897,35.9606
53.6358,35.9161
53.6145,35.8495
53.6145,35.8460
53.6200,34.7383
51.3667,32.4072
51.3342,32.3453
51.3333,32.3016
51.3495,32.1995
51.3522,32.1868
51.3695,32.1224
51.3695,32.1224
51.3864,32.0079
51.3882,31.9515
51.3787,31.8361
51.3307,31.7005
51.3307,31.7005
51.3307,31.7005
51.3307,31.7005
51.2913,31.6254
51.2835,31.6182
51.2490,31.5704
51.2257,31.5045
51.2255,31.4978
51.2255,28.4743
51.2255,28.4743
51.2054,28.3331
51.2054,28.3331
51.2054,28.3331
51.1860,28.2666
51.1272,28.1366
50.8381,27.6818
50.7094,27.4795
50.6901,27.4150
50.6899,27.4051
50.6543,25.1725
50.6729,25.1051
50.7250,25.0585
50.7871,25.0468
50.9200,25.0563
50.9200,25.0563
50.9402,25.0549
51.2022,25.0361
51.4787,24.9760
51.7438,24.8771
51.9921,24.7415
52.2186,24.5719
52.4187,24.3719
52.5882,24.1454
52.7238,23.8970
52.8227,23.6319
52.8829,23.3555
52.9031,23.0732
52.8829,22.7910
52.8227,22.5146
52.7238,22.2495
52.5882,22.0011
52.5882,22.0011
52.4187,21.7746
52.4187,21.7746
52.2186,21.5746
52.2186,21.5746
51.9921,21.4050
51.9921,21.4050
51.7438,21.2694
51.7438,21.2694
51.6433,21.2319
51.4787,21.1705
51.4787,21.1705
51.4787,21.1705
51.2022,21.1104
51.2022,21.1104
50.9200,21.0902
50.9200,21.0902
50.7203,21.1045
50.6520,21.0896
50.6026,21.0402
50.5874,20.9828
50.5774,20.3525
50.5774,20.3525
50.5774,20.3525
50.5649,20.2485
50.5603,20.2286
50.5535,20.1987
50.5308,20.1316
50.5199,20.0995
50.5199,20.0995
50.5199,20.0995
50.4418,19.9787
50.4404,19.9771
50.3959,19.9260
50.3959,19.9260
50.2869,19.8321
50.2869,19.8321
50.1558,19.7727
50.1558,19.7727
50.1558,19.7727
50.0933,19.7545
50.0912,19.7538
50.0887,19.7532
50.0427,19.7467
49.9463,19.7331
9.2423,19.8424
9.1355,19.8541
9.0844,19.8653
8.9825,19.8993
8.8615,19.9771
8.8615,19.9771
8.8087,20.0228
8.7144,20.1316
8.7144,20.1316
8.6547,20.2625
8.6350,20.3295
8.6185,20.4439
8.5895,20.5075
8.5307,20.5452
8.4958,20.5502
6.9346,20.5502
6.9346,20.5503
6.8750,20.5567
6.7402,20.6070
6.7402,20.6070
6.6250,20.6932
6.6250,20.6932
6.5387,20.8084
6.5387,20.8084
6.4884,20.9433
6.4820,21.0029
6.4820,21.0029
6.4820,24.0536
6.4820,24.0536
6.4884,24.1132
6.5387,24.2481
6.5387,24.2481
6.6250,24.3633
6.6250,24.3633
6.7402,24.4495
6.7402,24.4495
6.8750,24.4998
6.8750,24.4998
6.8819,24.5006
6.9346,24.5062
8.4905,24.5062
8.5575,24.5259
8.6033,24.5787
8.6145,24.6302
8.6145,27.1940
8.6153,27.2229
8.6161,27.2371
8.6186,27.2659
8.6552,27.4051
8.6552,27.4051
8.6825,27.4694
8.6825,27.4694
8.7568,27.5926
8.8298,27.6818
8.8570,27.7462
8.8457,27.8137
8.6100,28.3082
8.6100,28.3082
8.5902,33.5184
8.5800,33.5528
8.5800,39.4882
8.5603,39.5553
8.5566,39.5607
7.1838,41.4668
7.1692,41.4837
6.2699,42.3491
6.2336,42.3840
6.2336,42.3840
5.8551,42.7482
4.3067,44.2382
4.2691,44.2785
4.2518,44.2993
4.2188,44.3435
4.2188,44.3435
4.1571,44.4735
4.1364,44.5402
4.1138,44.6823
4.1138,44.6823
4.0830,46.7307
4.0829,46.7382
4.0829,46.7382
4.0738,47.3382
4.0388,49.6709
4.0386,49.6785
4.0386,49.6785
4.0340,49.9882
3.9980,52.3807
3.9979,52.3882
3.9979,52.3882
3.9911,52.8382
3.9824,53.4207
3.9823,53.4282
3.9823,53.4282
3.9394,56.2782
3.9326,56.7307
3.9325,56.7382
3.9325,56.7383
3.9153,57.8801
0.9718,57.8801
0.9600,33.7789
0.9797,33.7118
0.9954,33.6921
1.0000,33.6874
1.0000,33.6874
1.0000,17.4625
1.0197,17.3955
1.0725,17.3497
1.1243,17.3385
Z" /> 
<path style="fill:#4FCBCB; fill-opacity:1.0000; stroke:none;fill-rule:evenodd;"
d="M 16.2630,66.4579
16.3088,66.5107
16.3200,66.5622
16.3200,72.3143
16.3003,72.3813
16.2475,72.4270
16.1960,72.4382
10.0440,72.4382
9.9770,72.4186
9.9312,72.3658
9.9200,72.3143
9.9200,66.5622
9.9397,66.4952
9.9925,66.4495
10.0440,66.4382
16.1960,66.4382
Z" /> 
<path style="fill:#4FCBCB; fill-opacity:1.0000; stroke:none;fill-rule:evenodd;"
d="M 25.3630,35.8634
25.4088,35.9162
25.4200,35.9677
25.4200,38.8143
25.4003,38.8813
25.3475,38.9270
25.2960,38.9382
20.2440,38.9382
20.1770,38.9186
20.1312,38.8658
20.1200,38.8143
20.1200,35.9677
20.1397,35.9007
20.1925,35.8550
20.2440,35.8438
25.2960,35.8438
Z" /> 
<path style="fill:#4FCBCB; fill-opacity:1.0000; stroke:none;fill-rule:evenodd;"
d="M 26.2630,41.3579
26.3088,41.4107
26.3200,41.4622
26.3200,46.2134
26.3003,46.2805
26.2475,46.3262
26.1952,46.3374
20.3334,46.2991
20.2665,46.2789
20.2211,46.2258
20.2102,46.1748
20.2198,41.4620
20.2396,41.3950
20.2925,41.3494
20.3438,41.3382
26.1960,41.3382
Z" /> 
<path style="fill:#4FCBCB; fill-opacity:1.0000; stroke:none;fill-rule:evenodd;"
d="M 25.3630,31.6579
25.4088,31.7107
25.4200,31.7622
25.4200,35.2142
25.4003,35.2813
25.3475,35.3270
25.2960,35.3382
20.2440,35.3382
20.1770,35.3186
20.1312,35.2658
20.1200,35.2142
20.1200,31.7622
20.1397,31.6952
20.1925,31.6495
20.2440,31.6382
25.2960,31.6382
Z" /> 
<path style="fill:#4FCBCB; fill-opacity:1.0000; stroke:none;fill-rule:evenodd;"
d="M 11.9722,77.8473
11.9992,77.8534
12.0621,77.8754
12.0866,77.8833
12.0988,77.8869
12.1237,77.8935
12.2669,77.9067
12.3336,77.9033
12.3356,77.9032
12.3367,77.9031
12.3367,77.9031
12.3367,77.9031
12.4779,77.8754
12.5408,77.8534
12.5678,77.8473
12.6061,77.8429
12.6339,77.8429
12.6722,77.8473
12.6992,77.8534
12.7621,77.8754
12.7866,77.8833
12.7988,77.8869
12.8237,77.8935
12.9669,77.9067
13.0336,77.9033
13.0356,77.9032
13.0367,77.9031
13.0367,77.9031
13.0367,77.9031
13.1779,77.8754
13.2408,77.8534
13.2678,77.8473
13.3061,77.8429
13.3339,77.8429
13.3722,77.8473
13.3992,77.8534
13.4331,77.8653
13.4621,77.8754
13.4680,77.8775
13.4779,77.8815
13.5616,77.9192
13.5616,77.9192
13.5616,77.9192
13.5616,77.9192
13.5640,77.9201
13.5647,77.9206
13.5655,77.9209
13.5654,77.9211
13.6201,77.9618
13.6447,78.0272
13.6450,78.0364
13.6450,78.7910
13.6310,78.8482
13.6250,78.8599
13.6250,78.8599
13.5921,78.9539
13.5800,78.9789
13.5595,79.0115
13.5422,79.0332
13.5150,79.0605
13.4933,79.0778
13.4671,79.0942
13.4011,79.1132
13.2338,79.1132
13.1928,79.1063
13.1779,79.1011
13.1534,79.0932
13.1412,79.0896
13.1412,79.0896
13.1412,79.0896
13.1163,79.0830
13.1163,79.0830
12.9730,79.0698
12.9033,79.0734
12.7621,79.1011
12.7621,79.1011
12.7472,79.1063
12.7062,79.1132
12.5389,79.1132
12.4729,79.0942
12.4729,79.0942
12.4467,79.0778
12.4250,79.0605
12.3978,79.0332
12.3805,79.0115
12.3600,78.9789
12.3479,78.9539
12.3270,78.8940
12.3200,78.8530
12.3200,78.4882
12.0305,78.4882
11.9729,78.4732
11.9657,78.4732
11.9447,78.4646
11.9436,78.4640
11.9354,78.4562
11.9156,78.4492
11.9156,78.4492
11.9143,78.4488
11.9143,78.4488
11.9084,78.4467
11.9084,78.4467
11.9077,78.4465
11.9077,78.4465
11.8977,78.4430
11.8600,78.4298
11.8044,78.4103
11.7794,78.3983
11.7467,78.3778
11.7250,78.3605
11.6978,78.3332
11.6805,78.3115
11.6600,78.2789
11.6479,78.2539
11.6352,78.2175
11.6290,78.1904
11.6247,78.1521
11.6247,78.1244
11.6290,78.0861
11.6352,78.0590
11.6479,78.0226
11.6600,77.9976
11.6805,77.9650
11.6978,77.9433
11.7250,77.9160
11.7467,77.8987
11.7794,77.8782
11.8044,77.8662
11.8408,77.8534
11.8678,77.8473
11.8928,77.8444
11.9061,77.8429
11.9339,77.8429
Z" /> 
<path style="fill:#4FCBCB; fill-opacity:1.0000; stroke:none;fill-rule:evenodd;"
d="M 8.2722,56.4473
8.2992,56.4534
8.3356,56.4662
8.3606,56.4782
8.3933,56.4987
8.4150,56.5160
8.4422,56.5433
8.4595,56.5650
8.4800,56.5976
8.4921,56.6226
8.5374,56.7520
8.5377,56.7524
8.5459,56.7681
8.5463,56.7691
8.5470,56.7747
8.5526,56.7848
8.5575,56.7950
8.5592,56.7988
8.5594,56.7991
8.5671,56.8114
8.5798,56.8348
8.5950,56.8942
8.5950,57.1133
8.8633,57.1133
8.9043,57.1202
8.9216,57.1263
8.9216,57.1263
8.9342,57.1307
9.0356,57.1662
9.0606,57.1782
9.0933,57.1987
9.1150,57.2160
9.1422,57.2433
9.1595,57.2650
9.1800,57.2976
9.1921,57.3226
9.2048,57.3590
9.2110,57.3861
9.2110,57.3861
9.2153,57.4244
9.2153,57.4521
9.2130,57.4722
9.2110,57.4904
9.2048,57.5175
9.1975,57.5382
9.1975,57.5383
9.1921,57.5539
9.1800,57.5789
9.1595,57.6115
9.1422,57.6332
9.1150,57.6605
9.0933,57.6778
9.0606,57.6983
9.0356,57.7103
8.9992,57.7231
8.9722,57.7292
8.9440,57.7324
8.9339,57.7336
8.9061,57.7336
8.8678,57.7292
8.8408,57.7231
8.8408,57.7231
8.8044,57.7103
8.7779,57.7011
8.7534,57.6932
8.7534,57.6932
8.7477,57.6915
8.7413,57.6896
8.7163,57.6830
8.7163,57.6830
8.6840,57.6800
8.5730,57.6698
8.5033,57.6734
8.5021,57.6735
8.5001,57.6740
8.3621,57.7011
8.3621,57.7011
8.3356,57.7103
8.2992,57.7231
8.2722,57.7292
8.2339,57.7336
8.2061,57.7336
8.1678,57.7292
8.1408,57.7231
8.0779,57.7011
8.0534,57.6932
8.0412,57.6896
8.0412,57.6896
8.0412,57.6896
8.0163,57.6830
8.0163,57.6830
7.8730,57.6698
7.8033,57.6734
7.6621,57.7011
7.6621,57.7011
7.5992,57.7231
7.5722,57.7292
7.5339,57.7336
7.5061,57.7336
7.4678,57.7292
7.4408,57.7231
7.4044,57.7103
7.3794,57.6983
7.3712,57.6932
7.3467,57.6778
7.3250,57.6605
7.2978,57.6332
7.2805,57.6115
7.2600,57.5789
7.2479,57.5539
7.2352,57.5175
7.2290,57.4904
7.2247,57.4521
7.2247,57.4244
7.2290,57.3861
7.2352,57.3590
7.2472,57.3247
7.2479,57.3226
7.2551,57.3002
7.2586,57.2880
7.2632,57.2708
7.2995,57.2111
7.3623,57.1804
7.4180,57.1837
7.4352,57.1887
7.4352,57.1887
7.4352,57.1887
7.5648,57.1887
7.5648,57.1887
7.6891,57.1523
7.6891,57.1523
7.7191,57.1329
7.7862,57.1133
7.8950,57.1133
7.8950,56.9848
7.9062,56.9332
7.9367,56.8665
7.9551,56.7383
7.9387,56.6242
7.9487,56.5550
7.9944,56.5022
8.0376,56.4849
8.0679,56.4789
8.1408,56.4534
8.1678,56.4473
8.2061,56.4429
8.2339,56.4429
Z" /> 
<path style="fill:#4FCBCB; fill-opacity:1.0000; stroke:none;fill-rule:evenodd;"
d="M 50.0147,20.2581
50.0606,20.3108
50.0720,20.3606
50.0853,21.1998
50.0667,21.2671
50.0208,21.3106
49.8479,21.4050
49.8479,21.4050
49.6214,21.5746
49.6214,21.5746
49.4213,21.7746
49.4213,21.7746
49.2518,22.0011
49.2517,22.0011
49.1162,22.2495
49.1162,22.2495
49.0173,22.5146
48.9571,22.7910
48.9571,22.7910
48.9369,23.0732
48.9369,23.0733
48.9571,23.3555
48.9571,23.3555
49.0173,23.6319
49.0173,23.6319
49.0787,23.7965
49.1162,23.8970
49.1162,23.8970
49.2517,24.1454
49.2518,24.1454
49.4213,24.3719
49.4213,24.3719
49.6214,24.5719
49.6214,24.5719
49.8479,24.7415
49.8479,24.7415
50.0810,24.8688
50.1305,24.9182
50.1456,24.9757
50.1875,27.6007
50.7006,28.4078
50.7200,28.4743
50.7200,31.7382
50.8506,31.8733
50.8830,31.9352
50.8812,31.9916
50.8554,32.0878
50.8554,32.0878
50.7947,32.4709
50.7744,32.8582
50.7744,32.8582
50.7947,33.2456
50.8411,33.5382
50.8554,33.6287
50.9359,33.9292
50.9558,34.0033
51.0948,34.3654
51.2709,34.7110
51.4821,35.0363
51.6262,35.2142
51.7262,35.3378
52.0005,35.6120
52.1168,35.7062
52.3019,35.8561
52.4738,35.9678
52.6272,36.0674
52.9728,36.2435
53.3349,36.3825
53.5191,36.4318
53.5788,36.4682
53.6093,36.5310
53.6110,36.5522
53.4203,74.9824
53.4003,75.0493
53.3779,75.0751
51.0200,77.1382
51.0200,77.7229
51.0118,77.7673
50.9558,77.9132
50.8554,78.2878
50.8554,78.2878
50.7947,78.6709
50.7744,79.0582
50.7744,79.0583
50.7947,79.4456
50.8554,79.8287
50.8554,79.8287
50.9185,80.0640
50.9168,80.1339
50.8776,80.1917
50.8464,80.2106
49.8200,80.6382
49.8200,80.6383
49.9991,87.3856
49.9812,87.4531
49.9297,87.5003
49.9185,87.5051
49.7862,87.5544
49.7862,87.5544
49.5379,87.6900
49.5379,87.6900
49.3114,87.8596
49.3114,87.8596
49.1113,88.0596
49.1113,88.0596
48.9418,88.2861
48.9417,88.2861
48.8062,88.5345
48.8062,88.5345
48.7312,88.7355
48.7190,88.7682
48.7073,88.7996
48.6471,89.0760
48.6471,89.0760
48.6269,89.3582
48.6269,89.3583
48.6471,89.6405
48.6471,89.6405
48.6906,89.8404
48.7073,89.9169
48.7632,90.0669
48.8062,90.1820
48.8062,90.1820
48.9417,90.4304
48.9418,90.4304
49.1113,90.6569
49.1113,90.6569
49.3114,90.8569
49.3114,90.8569
49.5379,91.0265
49.5379,91.0265
49.7862,91.1621
49.7862,91.1621
49.7862,91.1621
50.0241,91.2508
50.0801,91.2927
50.1045,91.3582
50.1047,91.3637
50.1166,91.8106
50.0987,91.8782
50.0471,91.9253
49.9924,91.9379
9.4437,91.8386
9.3767,91.8187
9.3311,91.7658
9.3200,91.7146
9.3200,90.8702
9.3397,90.8032
9.3925,90.7575
9.4440,90.7462
9.6254,90.7462
9.6850,90.7398
9.8198,90.6895
9.9350,90.6033
10.0213,90.4881
10.0716,90.3532
10.0780,90.2936
10.0780,88.7683
21.6169,88.7683
21.6371,89.0505
21.6371,89.0505
21.6973,89.3269
21.6973,89.3269
21.7587,89.4915
21.7962,89.5920
21.7962,89.5920
21.9317,89.8404
21.9318,89.8404
22.1013,90.0669
22.1013,90.0669
22.3014,90.2669
22.3014,90.2669
22.5279,90.4365
22.5279,90.4365
22.7762,90.5721
22.7762,90.5721
22.7762,90.5721
23.0413,90.6710
23.3178,90.7311
23.5783,90.7497
23.6000,90.7513
23.6000,90.7513
23.6000,90.7513
23.6202,90.7499
23.8822,90.7311
24.1587,90.6710
24.4238,90.5721
24.6721,90.4365
24.8986,90.2669
25.0987,90.0669
25.2682,89.8404
25.4038,89.5920
25.4910,89.3583
33.1269,89.3583
33.1471,89.6405
33.1471,89.6405
33.1906,89.8404
33.2073,89.9169
33.2632,90.0669
33.3062,90.1820
33.3062,90.1820
33.4417,90.4304
33.4418,90.4304
33.6113,90.6569
33.6113,90.6569
33.8114,90.8569
33.8114,90.8569
34.0379,91.0265
34.0379,91.0265
34.2862,91.1621
34.2862,91.1621
34.2862,91.1621
34.5513,91.2610
34.8278,91.3211
35.0883,91.3397
35.1100,91.3413
35.1100,91.3413
35.1100,91.3413
35.1302,91.3399
35.3922,91.3211
35.6687,91.2610
35.9338,91.1621
36.1821,91.0265
36.4086,90.8569
36.6087,90.6569
36.7782,90.4304
36.9138,90.1820
37.0127,89.9169
37.0729,89.6405
37.0931,89.3582
37.0729,89.0760
37.0127,88.7996
36.9138,88.5345
36.8874,88.4860
36.7783,88.2861
36.7782,88.2861
36.6087,88.0596
36.6087,88.0596
36.4086,87.8596
36.4086,87.8596
36.1821,87.6900
36.1821,87.6900
35.9338,87.5544
35.9338,87.5544
35.7886,87.5003
35.6687,87.4555
35.6687,87.4555
35.6687,87.4555
35.3922,87.3954
35.3922,87.3954
35.1100,87.3752
35.1100,87.3752
34.8278,87.3954
34.8278,87.3954
34.5513,87.4555
34.5513,87.4555
34.5513,87.4555
34.5135,87.4696
34.2862,87.5544
34.2862,87.5544
34.0379,87.6900
34.0379,87.6900
33.8114,87.8596
33.8114,87.8596
33.6113,88.0596
33.6113,88.0596
33.4418,88.2861
33.4417,88.2861
33.3062,88.5345
33.3062,88.5345
33.2312,88.7355
33.2190,88.7682
33.2073,88.7996
33.1471,89.0760
33.1471,89.0760
33.1269,89.3582
33.1269,89.3583
25.4910,89.3583
25.5027,89.3269
25.5629,89.0505
25.5831,88.7682
25.5629,88.4860
25.5027,88.2096
25.4038,87.9445
25.3575,87.8596
25.2683,87.6961
25.2682,87.6961
25.0987,87.4696
25.0987,87.4696
24.8986,87.2696
24.8986,87.2696
24.6721,87.1000
24.6721,87.1000
24.4238,86.9644
24.4238,86.9644
24.3233,86.9269
24.1587,86.8655
24.1587,86.8655
24.1587,86.8655
23.8822,86.8054
23.8822,86.8054
23.6000,86.7852
23.6000,86.7852
23.3178,86.8054
23.3178,86.8054
23.0413,86.8655
23.0413,86.8655
23.0413,86.8655
22.9772,86.8894
22.7762,86.9644
22.7762,86.9644
22.5279,87.1000
22.5279,87.1000
22.3014,87.2696
22.3014,87.2696
22.1013,87.4696
22.1013,87.4696
21.9318,87.6961
21.9317,87.6961
21.7962,87.9445
21.7962,87.9445
21.6973,88.2096
21.6371,88.4860
21.6371,88.4860
21.6169,88.7682
21.6169,88.7683
10.0780,88.7683
10.0780,87.2429
10.0716,87.1833
10.0405,87.1000
10.0213,87.0484
10.0213,87.0484
9.9350,86.9332
9.9350,86.9332
9.8198,86.8470
9.8198,86.8470
9.6850,86.7967
9.6850,86.7967
9.6254,86.7903
9.6254,86.7903
9.6254,86.7903
9.6254,86.7903
9.4440,86.7903
9.3770,86.7706
9.3312,86.7178
9.3200,86.6662
9.3200,78.5382
8.7983,78.1383
11.1144,78.1383
11.1346,78.3175
11.1346,78.3175
11.1942,78.4878
11.2259,78.5382
11.2902,78.6405
11.4177,78.7681
11.5705,78.8640
11.7407,78.9236
11.7408,78.9236
11.7412,78.9237
11.7415,78.9239
11.7473,78.9259
11.7470,78.9269
11.8022,78.9578
11.8314,79.0113
11.8323,79.0109
11.8344,79.0167
11.8345,79.0170
11.8346,79.0175
11.8346,79.0175
11.8665,79.1087
11.8942,79.1878
11.8942,79.1878
11.9902,79.3405
12.1177,79.4681
12.2705,79.5640
12.4407,79.6236
12.4407,79.6236
12.4407,79.6236
12.6200,79.6438
12.6200,79.6438
12.6200,79.6438
12.7992,79.6236
12.7993,79.6236
12.7993,79.6236
12.7993,79.6236
12.7993,79.6236
12.9290,79.5782
12.9988,79.5746
13.0110,79.5782
13.1407,79.6236
13.1407,79.6236
13.1407,79.6236
13.1407,79.6236
13.1407,79.6236
13.3200,79.6438
13.3200,79.6438
13.3200,79.6438
13.4992,79.6236
13.4993,79.6236
13.4993,79.6236
13.6695,79.5640
13.8223,79.4681
13.9498,79.3405
14.0458,79.1878
14.1021,79.0269
14.1428,78.9701
14.2078,78.9443
14.2191,78.9438
14.2200,78.9438
14.3992,78.9236
14.3993,78.9236
14.3993,78.9236
14.5695,78.8640
14.7223,78.7681
14.8498,78.6405
14.9458,78.4878
15.0054,78.3175
15.0054,78.3175
15.0256,78.1383
15.0256,78.1382
15.0054,77.9590
15.0054,77.9590
14.9458,77.7887
14.8498,77.6360
14.7223,77.5084
14.5695,77.4125
14.3993,77.3529
14.3992,77.3529
14.2200,77.3327
14.2200,77.3327
14.0407,77.3529
14.0407,77.3529
13.8705,77.4125
13.8360,77.4341
13.7687,77.4531
13.7040,77.4341
13.6695,77.4125
13.4993,77.3529
13.4992,77.3529
13.3200,77.3327
13.3200,77.3327
13.1407,77.3529
13.1407,77.3529
13.0110,77.3983
12.9412,77.4019
12.9290,77.3983
12.7993,77.3529
12.7992,77.3529
12.6200,77.3327
12.6200,77.3327
12.4407,77.3529
12.4407,77.3529
12.3110,77.3983
12.2412,77.4019
12.2290,77.3983
12.0993,77.3529
12.0992,77.3529
11.9200,77.3327
11.9200,77.3327
11.7408,77.3529
11.7407,77.3529
11.5705,77.4125
11.4177,77.5084
11.2902,77.6360
11.1942,77.7887
11.1346,77.9590
11.1346,77.9590
11.1144,78.1382
11.1144,78.1383
8.7983,78.1383
7.8952,77.4459
7.8602,77.4038
7.8592,77.4019
7.7591,77.2055
7.5479,76.8802
7.3038,76.5787
7.0295,76.3045
6.7281,76.0604
6.7281,76.0604
6.4028,75.8491
6.4028,75.8491
6.3846,75.8399
6.3338,75.7919
6.3169,75.7301
6.2961,72.3143
9.4145,72.3143
9.4145,72.3143
9.4261,72.4217
9.4261,72.4217
9.4373,72.4732
9.4714,72.5757
9.4714,72.5758
9.5492,72.6968
9.5492,72.6968
9.5949,72.7496
9.5949,72.7496
9.5949,72.7496
9.7037,72.8438
9.7037,72.8438
9.7037,72.8438
9.7979,72.8869
9.8345,72.9036
9.9016,72.9233
9.9016,72.9233
10.0440,72.9437
10.0440,72.9437
16.1960,72.9437
16.1960,72.9437
16.3035,72.9322
16.3550,72.9210
16.3892,72.9096
16.4575,72.8869
16.4575,72.8869
16.4575,72.8869
16.5785,72.8091
16.6313,72.7633
16.7256,72.6546
16.7853,72.5237
16.8050,72.4567
16.8050,72.4567
16.8255,72.3143
16.8255,66.5622
16.8139,66.4548
16.8103,66.4383
29.1144,66.4383
29.1346,66.6175
29.1346,66.6175
29.1942,66.7878
29.2211,66.8306
29.2902,66.9405
29.4177,67.0681
29.5705,67.1640
29.7407,67.2236
29.7407,67.2236
29.9200,67.2438
29.9200,67.2438
29.9200,67.2438
30.0992,67.2236
30.0993,67.2236
30.0993,67.2236
30.2695,67.1640
30.4223,67.0681
30.5498,66.9405
30.6458,66.7878
30.7054,66.6175
30.7116,66.5622
30.7256,66.4383
30.7256,66.4382
30.7054,66.2590
30.7054,66.2590
30.6600,66.1292
30.6564,66.0594
30.6600,66.0473
30.6631,66.0383
40.8144,66.0383
40.8346,66.2175
40.8346,66.2175
40.8942,66.3878
40.8942,66.3878
40.9269,66.4398
40.9459,66.5070
40.9389,66.5467
40.9346,66.5590
40.9346,66.5590
40.9144,66.7382
40.9144,66.7383
40.9346,66.9175
40.9346,66.9175
40.9942,67.0878
41.0796,67.2236
41.0902,67.2405
41.2177,67.3681
41.3705,67.4640
41.5407,67.5236
41.5407,67.5236
41.7200,67.5438
41.7200,67.5438
41.7200,67.5438
41.8992,67.5236
41.8993,67.5236
41.8993,67.5236
42.0695,67.4640
42.2223,67.3681
42.3498,67.2405
42.4458,67.0878
42.5054,66.9175
42.5079,66.8950
42.5350,66.8306
42.5902,66.7918
42.6695,66.7640
42.8223,66.6681
42.9498,66.5405
43.0458,66.3878
43.1054,66.2175
43.1054,66.2175
43.1256,66.0383
43.1256,66.0382
43.1054,65.8590
43.1054,65.8590
43.0923,65.8217
43.0458,65.6887
42.9498,65.5360
42.8223,65.4084
42.7909,65.3887
42.6695,65.3125
42.4993,65.2529
42.4992,65.2529
42.3200,65.2327
42.3200,65.2327
42.1407,65.2529
42.1407,65.2529
42.0110,65.2983
41.9412,65.3019
41.9290,65.2983
41.7993,65.2529
41.7992,65.2529
41.6200,65.2327
41.6200,65.2327
41.4408,65.2529
41.4407,65.2529
41.2705,65.3125
41.1177,65.4084
40.9902,65.5360
40.8942,65.6887
40.8346,65.8590
40.8346,65.8590
40.8144,66.0382
40.8144,66.0383
30.6631,66.0383
30.7054,65.9175
30.7054,65.9175
30.7256,65.7383
30.7256,65.7382
30.7054,65.5590
30.7054,65.5590
30.6458,65.3887
30.5498,65.2360
30.4223,65.1084
30.2695,65.0125
30.0993,64.9529
30.0992,64.9529
29.9200,64.9327
29.9200,64.9327
29.7407,64.9529
29.7407,64.9529
29.5705,65.0125
29.4177,65.1084
29.2902,65.2360
29.1942,65.3887
29.1346,65.5590
29.1346,65.5590
29.1144,65.7382
29.1144,65.7383
29.1346,65.9175
29.1346,65.9175
29.1800,66.0473
29.1836,66.1171
29.1800,66.1292
29.1346,66.2590
29.1346,66.2590
29.1144,66.4382
29.1144,66.4383
16.8103,66.4383
16.8027,66.4033
16.7976,66.3878
16.7686,66.3008
16.7686,66.3007
16.7096,66.2090
16.6900,66.1419
16.7096,66.0749
16.7202,66.0607
16.7256,66.0546
16.7853,65.9237
16.8050,65.8567
16.8050,65.8567
16.8255,65.7142
16.8255,59.9622
16.8139,59.8548
16.8027,59.8033
16.8026,59.8030
16.7686,59.7008
16.7686,59.7007
16.6908,59.5797
16.6908,59.5797
16.6908,59.5797
16.6451,59.5269
16.6451,59.5269
16.6451,59.5269
16.5363,59.4327
16.5363,59.4327
16.5363,59.4327
16.4055,59.3729
16.4055,59.3729
16.4055,59.3729
16.3384,59.3532
16.3384,59.3532
16.3384,59.3532
16.2763,59.3443
16.1960,59.3327
10.0440,59.3327
10.0440,59.3327
10.0440,59.3328
9.9365,59.3443
9.9365,59.3443
9.8850,59.3555
9.7825,59.3896
9.7825,59.3896
9.6615,59.4674
9.6615,59.4674
9.6087,59.5132
9.5144,59.6219
9.5144,59.6219
9.4547,59.7528
9.4350,59.8198
9.4299,59.8548
9.4145,59.9622
9.4145,65.7142
9.4145,65.7143
9.4261,65.8217
9.4261,65.8217
9.4373,65.8732
9.4714,65.9757
9.4714,65.9758
9.5304,66.0675
9.5500,66.1346
9.5304,66.2016
9.5198,66.2158
9.5144,66.2219
9.5144,66.2219
9.4547,66.3528
9.4350,66.4198
9.4224,66.5070
9.4145,66.5622
9.4145,72.3143
6.2961,72.3143
6.2200,59.8382
4.8958,58.4405
4.4547,57.9749
4.4229,57.9127
4.4208,57.8878
4.4227,57.7590
4.4380,56.7383
6.6944,56.7383
6.7146,56.9175
6.7146,56.9175
6.7700,57.0759
6.7736,57.1457
6.7700,57.1578
6.7346,57.2590
6.7346,57.2590
6.7144,57.4382
6.7144,57.4383
6.7346,57.6175
6.7346,57.6175
6.7942,57.7878
6.8570,57.8878
6.8902,57.9405
7.0177,58.0681
7.1705,58.1640
7.3407,58.2236
7.3407,58.2236
7.3407,58.2236
7.5200,58.2438
7.5200,58.2438
7.5200,58.2438
7.6992,58.2236
7.6993,58.2236
7.6993,58.2236
7.6993,58.2236
7.6993,58.2236
7.8290,58.1782
7.8988,58.1746
7.9110,58.1782
8.0407,58.2236
8.0407,58.2236
8.0407,58.2236
8.0407,58.2236
8.0407,58.2236
8.2200,58.2438
8.2200,58.2438
8.2200,58.2438
8.3992,58.2236
8.3993,58.2236
8.3993,58.2236
8.3993,58.2236
8.3993,58.2236
8.4560,58.2038
8.5290,58.1782
8.5988,58.1746
8.6110,58.1782
8.7407,58.2236
8.7407,58.2236
8.7407,58.2236
8.7407,58.2236
8.7408,58.2236
8.9200,58.2438
8.9200,58.2438
8.9200,58.2438
9.0993,58.2236
9.0993,58.2236
9.0993,58.2236
9.2695,58.1640
9.4223,58.0681
9.5498,57.9405
9.5512,57.9383
20.5144,57.9383
20.5346,58.1175
20.5346,58.1175
20.5942,58.2878
20.6167,58.3236
20.6902,58.4405
20.8177,58.5681
20.9705,58.6640
21.1407,58.7236
21.1408,58.7236
21.3200,58.7438
21.3200,58.7438
21.3200,58.7438
21.4992,58.7236
21.4993,58.7236
21.4993,58.7236
21.6695,58.6640
21.8223,58.5681
21.9498,58.4405
22.0458,58.2878
22.1054,58.1175
22.1054,58.1175
22.1256,57.9383
22.1256,57.9382
22.1054,57.7590
22.1054,57.7590
22.0908,57.7175
22.0458,57.5887
22.0141,57.5383
35.3144,57.5383
35.3346,57.7175
35.3346,57.7175
35.3942,57.8878
35.4490,57.9749
35.4902,58.0405
35.6177,58.1681
35.7705,58.2640
35.8383,58.2878
35.9407,58.3236
35.9408,58.3236
36.1200,58.3438
36.1200,58.3438
36.1200,58.3438
36.2992,58.3236
36.2993,58.3236
36.2993,58.3236
36.2993,58.3236
36.2993,58.3236
36.4290,58.2782
36.4988,58.2746
36.5110,58.2782
36.6407,58.3236
36.6407,58.3236
36.6407,58.3236
36.6407,58.3236
36.6407,58.3236
36.8200,58.3438
36.8200,58.3438
36.8200,58.3438
36.9992,58.3236
36.9993,58.3236
36.9993,58.3236
37.1695,58.2640
37.3223,58.1681
37.4498,58.0405
37.5458,57.8878
37.6054,57.7175
37.6054,57.7175
37.6256,57.5383
37.6256,57.5382
37.6054,57.3590
37.6054,57.3590
37.5600,57.2292
37.5564,57.1594
37.5599,57.1473
37.5892,57.0636
37.6054,57.0175
37.6054,57.0175
37.6256,56.8382
37.6256,56.8382
37.6054,56.6590
37.6054,56.6590
37.5913,56.6186
37.5458,56.4887
37.5262,56.4575
37.4512,56.3382
37.4498,56.3360
37.3223,56.2084
37.1695,56.1125
36.9993,56.0529
36.9992,56.0529
36.8200,56.0327
36.8200,56.0327
36.6407,56.0529
36.6407,56.0529
36.4705,56.1125
36.3177,56.2084
36.1902,56.3360
36.0942,56.4887
36.0346,56.6590
36.0345,56.6595
36.0344,56.6598
36.0323,56.6656
36.0313,56.6652
36.0004,56.7205
35.9470,56.7496
35.9473,56.7506
35.9415,56.7526
35.9412,56.7528
35.9407,56.7529
35.7705,56.8125
35.6177,56.9084
35.4902,57.0360
35.3942,57.1887
35.3346,57.3590
35.3346,57.3590
35.3144,57.5382
35.3144,57.5383
22.0141,57.5383
21.9498,57.4360
21.8223,57.3084
21.6695,57.2125
21.4993,57.1529
21.4992,57.1529
21.3200,57.1327
21.3200,57.1327
21.1408,57.1529
21.1407,57.1529
20.9705,57.2125
20.8177,57.3084
20.6902,57.4360
20.5942,57.5887
20.5346,57.7590
20.5346,57.7590
20.5144,57.9382
20.5144,57.9383
9.5512,57.9383
9.6458,57.7878
9.7054,57.6175
9.7054,57.6175
9.7256,57.4383
9.7256,57.4382
9.7054,57.2590
9.7054,57.2590
9.6891,57.2125
9.6458,57.0887
9.6452,57.0878
9.5498,56.9360
9.4223,56.8084
9.2695,56.7125
9.0992,56.6529
9.0988,56.6528
9.0985,56.6526
9.0927,56.6506
9.0930,56.6496
9.0378,56.6186
9.0086,56.5652
9.0077,56.5656
9.0056,56.5597
9.0055,56.5595
9.0054,56.5590
8.9458,56.3887
8.8764,56.2783
10.8144,56.2783
10.8346,56.4575
10.8346,56.4575
10.8942,56.6278
10.9708,56.7496
10.9902,56.7805
11.1177,56.9081
11.2705,57.0040
11.3618,57.0360
11.4407,57.0636
11.4407,57.0636
11.6200,57.0838
11.6200,57.0838
11.6200,57.0838
11.7992,57.0636
11.7993,57.0636
11.7993,57.0636
11.9695,57.0040
12.1223,56.9081
12.2498,56.7805
12.3458,56.6278
12.4054,56.4575
12.4054,56.4575
12.4188,56.3383
13.3144,56.3383
13.3346,56.5175
13.3346,56.5175
13.3942,56.6878
13.4351,56.7529
13.4902,56.8405
13.6177,56.9681
13.6750,57.0040
13.7698,57.0636
13.7705,57.0640
13.8977,57.1086
13.9407,57.1236
13.9407,57.1236
14.1200,57.1438
14.1200,57.1438
14.1200,57.1438
14.2992,57.1236
14.2993,57.1236
14.2993,57.1236
14.4695,57.0640
14.6223,56.9681
14.7498,56.8405
14.8458,56.6878
14.9054,56.5175
14.9086,56.4887
14.9256,56.3383
14.9256,56.3382
14.9054,56.1590
14.9054,56.1590
14.8564,56.0190
14.8458,55.9887
14.8233,55.9529
14.7498,55.8360
14.6223,55.7084
14.4695,55.6125
14.2993,55.5529
14.2992,55.5529
14.1200,55.5327
14.1200,55.5327
13.9407,55.5529
13.9407,55.5529
13.7705,55.6125
13.6177,55.7084
13.4902,55.8360
13.3942,55.9887
13.3346,56.1590
13.3346,56.1590
13.3144,56.3382
13.3144,56.3383
12.4188,56.3383
12.4256,56.2783
12.4256,56.2782
12.4054,56.0990
12.4054,56.0990
12.3726,56.0054
12.3458,55.9287
12.2498,55.7760
12.1223,55.6484
11.9695,55.5525
11.7993,55.4929
11.7992,55.4929
11.6200,55.4727
11.6200,55.4727
11.4407,55.4929
11.4407,55.4929
11.2705,55.5525
11.1177,55.6484
10.9902,55.7760
10.8942,55.9287
10.8346,56.0990
10.8346,56.0990
10.8144,56.2782
10.8144,56.2783
8.8764,56.2783
8.8498,56.2360
8.7223,56.1084
8.5695,56.0125
8.3993,55.9529
8.3992,55.9529
8.2200,55.9327
8.2200,55.9327
8.0407,55.9529
8.0407,55.9529
7.9010,56.0018
7.8312,56.0054
7.8190,56.0018
7.6793,55.9529
7.6792,55.9529
7.5000,55.9327
7.5000,55.9327
7.3207,55.9529
7.3207,55.9529
7.1505,56.0125
6.9977,56.1084
6.8702,56.2360
6.7742,56.3887
6.7146,56.5590
6.7146,56.5590
6.6944,56.7382
6.6944,56.7383
4.4380,56.7383
4.4878,53.4283
13.5594,53.4283
13.5796,53.6075
13.5796,53.6075
13.6392,53.7778
13.7352,53.9305
13.8627,54.0581
14.0155,54.1540
14.1857,54.2136
14.1857,54.2136
14.3650,54.2338
14.3650,54.2338
14.3650,54.2338
14.5442,54.2136
14.5443,54.2136
14.5443,54.2136
14.7145,54.1540
14.8673,54.0581
14.9948,53.9305
15.0908,53.7778
15.1504,53.6075
15.1541,53.5746
15.1706,53.4283
15.1706,53.4282
15.1504,53.2490
15.1504,53.2490
15.1031,53.1140
15.0908,53.0787
14.9948,52.9260
14.9071,52.8383
22.4144,52.8383
22.4346,53.0175
22.4346,53.0175
22.4942,53.1878
22.5327,53.2490
22.5902,53.3405
22.7177,53.4681
22.8705,53.5640
22.9947,53.6075
23.0407,53.6236
23.0407,53.6236
23.2200,53.6438
23.2200,53.6438
23.2200,53.6438
23.3992,53.6236
23.3993,53.6236
23.3993,53.6236
23.3993,53.6236
23.3993,53.6236
23.5290,53.5782
23.5988,53.5746
23.6110,53.5782
23.7407,53.6236
23.7407,53.6236
23.7407,53.6236
23.7407,53.6236
23.7407,53.6236
23.9200,53.6438
23.9200,53.6438
23.9200,53.6438
24.0992,53.6236
24.0993,53.6236
24.0993,53.6236
24.0993,53.6236
24.0993,53.6236
24.2290,53.5782
24.2988,53.5746
24.3110,53.5782
24.4407,53.6236
24.4407,53.6236
24.4407,53.6236
24.4407,53.6236
24.4407,53.6236
24.6200,53.6438
24.6200,53.6438
24.6200,53.6438
24.7992,53.6236
24.7993,53.6236
24.7993,53.6236
24.7993,53.6236
24.7993,53.6236
24.9290,53.5782
24.9988,53.5746
25.0110,53.5782
25.1407,53.6236
25.1407,53.6236
25.1407,53.6236
25.1407,53.6236
25.1408,53.6236
25.3200,53.6438
25.3200,53.6438
25.3200,53.6438
25.4992,53.6236
25.4993,53.6236
25.4993,53.6236
25.6695,53.5640
25.8223,53.4681
25.9498,53.3405
26.0458,53.1878
26.1054,53.0175
26.1054,53.0175
26.1256,52.8383
26.1256,52.8382
26.1054,52.6590
26.1054,52.6590
26.0458,52.4887
25.9498,52.3360
25.8223,52.2084
25.6695,52.1125
25.4993,52.0529
25.4992,52.0529
25.3200,52.0327
25.3200,52.0327
25.1408,52.0529
25.1407,52.0529
25.0110,52.0983
24.9412,52.1019
24.9290,52.0983
24.7993,52.0529
24.7992,52.0529
24.6200,52.0327
24.6200,52.0327
24.4407,52.0529
24.4407,52.0529
24.3110,52.0983
24.2412,52.1019
24.2290,52.0983
24.0993,52.0529
24.0992,52.0529
23.9200,52.0327
23.9200,52.0327
23.7407,52.0529
23.7407,52.0529
23.6110,52.0983
23.5412,52.1019
23.5290,52.0983
23.3993,52.0529
23.3992,52.0529
23.2200,52.0327
23.2200,52.0327
23.0407,52.0529
23.0407,52.0529
22.8705,52.1125
22.7177,52.2084
22.5902,52.3360
22.4942,52.4887
22.4346,52.6590
22.4346,52.6590
22.4144,52.8382
22.4144,52.8383
14.9071,52.8383
14.8673,52.7984
14.7707,52.7378
14.7145,52.7025
14.5443,52.6429
14.5442,52.6429
14.3650,52.6227
14.3650,52.6227
14.1857,52.6429
14.1857,52.6429
14.0155,52.7025
13.8627,52.7984
13.7352,52.9260
13.6392,53.0787
13.5796,53.2490
13.5796,53.2490
13.5594,53.4282
13.5594,53.4283
4.4878,53.4283
4.5035,52.3883
5.4844,52.3883
5.5046,52.5675
5.5046,52.5675
5.5642,52.7378
5.6273,52.8383
5.6602,52.8905
5.7877,53.0181
5.9405,53.1140
6.1107,53.1736
6.1107,53.1736
6.2900,53.1938
6.2900,53.1938
6.2900,53.1938
6.4692,53.1736
6.4693,53.1736
6.4693,53.1736
6.6395,53.1140
6.7923,53.0181
6.9198,52.8905
7.0158,52.7378
7.0754,52.5675
7.0842,52.4887
7.0956,52.3883
7.0956,52.3882
7.0754,52.2090
7.0754,52.2090
7.0366,52.0983
7.0158,52.0387
6.9198,51.8860
6.7923,51.7584
6.6395,51.6625
6.4693,51.6029
6.4692,51.6029
6.2900,51.5827
6.2900,51.5827
6.1107,51.6029
6.1107,51.6029
5.9405,51.6625
5.7877,51.7584
5.6602,51.8860
5.5642,52.0387
5.5046,52.2090
5.5046,52.2090
5.4844,52.3882
5.4844,52.3883
4.5035,52.3883
4.5442,49.6785
17.0334,49.6785
17.0536,49.8577
17.0536,49.8577
17.1132,50.0280
17.2091,50.1807
17.3367,50.3083
17.4894,50.4043
17.6597,50.4638
17.6597,50.4638
17.8389,50.4840
17.8390,50.4840
17.8390,50.4840
18.0182,50.4638
18.0182,50.4638
18.0182,50.4638
18.1885,50.4043
18.3412,50.3083
18.4688,50.1807
18.5647,50.0280
18.5786,49.9883
24.0044,49.9883
24.0246,50.1675
24.0246,50.1675
24.0842,50.3378
24.1761,50.4840
24.1802,50.4905
24.3077,50.6181
24.4605,50.7140
24.6307,50.7736
24.6307,50.7736
24.8100,50.7938
24.8100,50.7938
24.8100,50.7938
24.9892,50.7736
24.9893,50.7736
24.9893,50.7736
25.1595,50.7140
25.3123,50.6181
25.4398,50.4905
25.5358,50.3378
25.5954,50.1675
25.5954,50.1675
25.6156,49.9883
25.6156,49.9882
25.5954,49.8090
25.5954,49.8090
25.5497,49.6785
25.5358,49.6387
25.4398,49.4860
25.3123,49.3584
25.2653,49.3289
25.1595,49.2625
24.9893,49.2029
24.9892,49.2029
24.8100,49.1827
24.8100,49.1827
24.6307,49.2029
24.6307,49.2029
24.4605,49.2625
24.3077,49.3584
24.1802,49.4860
24.0842,49.6387
24.0246,49.8090
24.0246,49.8090
24.0044,49.9882
24.0044,49.9883
18.5786,49.9883
18.6243,49.8577
18.6298,49.8090
18.6445,49.6785
18.6445,49.6785
18.6243,49.4992
18.6243,49.4992
18.5647,49.3289
18.4688,49.1762
18.3412,49.0487
18.1885,48.9527
18.0182,48.8931
18.0182,48.8931
17.8390,48.8729
17.8389,48.8729
17.6597,48.8931
17.6597,48.8931
17.4894,48.9527
17.3367,49.0487
17.2091,49.1762
17.1132,49.3289
17.0536,49.4992
17.0536,49.4992
17.0334,49.6785
17.0334,49.6785
4.5442,49.6785
4.5884,46.7383
5.1144,46.7383
5.1346,46.9175
5.1346,46.9175
5.1942,47.0878
5.2902,47.2405
5.4177,47.3681
5.5705,47.4640
5.7233,47.5175
5.7407,47.5236
5.7407,47.5236
5.9200,47.5438
5.9200,47.5438
5.9200,47.5438
6.0992,47.5236
6.0993,47.5236
6.0993,47.5236
6.2695,47.4640
6.4223,47.3681
6.4521,47.3383
7.0144,47.3383
7.0346,47.5175
7.0346,47.5175
7.0942,47.6878
7.1902,47.8405
7.3177,47.9681
7.4705,48.0640
7.6407,48.1236
7.6407,48.1236
7.8200,48.1438
7.8200,48.1438
7.8200,48.1438
7.9992,48.1236
7.9993,48.1236
7.9993,48.1236
8.1695,48.0640
8.3223,47.9681
8.4498,47.8405
8.5458,47.6878
8.6054,47.5175
8.6114,47.4640
8.6256,47.3383
8.6256,47.3382
8.6054,47.1590
8.6054,47.1590
8.5458,46.9887
8.4542,46.8429
8.4498,46.8360
8.3223,46.7084
8.3126,46.7024
8.1695,46.6125
7.9993,46.5529
7.9992,46.5529
7.8200,46.5327
7.8200,46.5327
7.6407,46.5529
7.6407,46.5529
7.4705,46.6125
7.3177,46.7084
7.1902,46.8360
7.0942,46.9887
7.0346,47.1590
7.0346,47.1590
7.0144,47.3382
7.0144,47.3383
6.4521,47.3383
6.5498,47.2405
6.6458,47.0878
6.7054,46.9175
6.7163,46.8205
6.7256,46.7383
6.7256,46.7382
6.7054,46.5590
6.7054,46.5590
6.6435,46.3822
6.6456,46.3814
6.6360,46.3231
6.6444,46.2947
6.6435,46.2943
6.6857,46.1738
19.7047,46.1738
19.7048,46.1738
19.7158,46.2802
19.7158,46.2802
19.7267,46.3312
19.7267,46.3312
19.7599,46.4328
19.7599,46.4328
19.8369,46.5544
19.8823,46.6075
19.9905,46.7024
20.1209,46.7630
20.1878,46.7831
20.3301,46.8045
26.1919,46.8429
26.3010,46.8317
26.3533,46.8205
26.4575,46.7860
26.5785,46.7083
26.6313,46.6625
26.7256,46.5538
26.7853,46.4229
26.8050,46.3559
26.8050,46.3559
26.8255,46.2134
26.8255,45.2383
36.6144,45.2383
36.6346,45.4175
36.6346,45.4175
36.6942,45.5878
36.7902,45.7405
36.9177,45.8681
37.0705,45.9640
37.2407,46.0236
37.2407,46.0236
37.4200,46.0438
37.4200,46.0438
37.4200,46.0438
37.5992,46.0236
37.5993,46.0236
37.5993,46.0236
37.7695,45.9640
37.9040,45.8795
37.9713,45.8605
38.0360,45.8795
38.1007,45.9202
38.1705,45.9640
38.3407,46.0236
38.3407,46.0236
38.5200,46.0438
38.5200,46.0438
38.5200,46.0438
38.6992,46.0236
38.6993,46.0236
38.6993,46.0236
38.8695,45.9640
39.0223,45.8681
39.1498,45.7405
39.2458,45.5878
39.3054,45.4175
39.3054,45.4175
39.3256,45.2383
39.3256,45.2382
39.3054,45.0590
39.3054,45.0590
39.2458,44.8887
39.1498,44.7360
39.0223,44.6084
38.8695,44.5125
38.6993,44.4529
38.6992,44.4529
38.5200,44.4327
38.5200,44.4327
38.3407,44.4529
38.3407,44.4529
38.1705,44.5125
38.0360,44.5970
37.9687,44.6160
37.9040,44.5970
37.7695,44.5125
37.5993,44.4529
37.5992,44.4529
37.4200,44.4327
37.4200,44.4327
37.2407,44.4529
37.2407,44.4529
37.0705,44.5125
36.9177,44.6084
36.7902,44.7360
36.6942,44.8887
36.6346,45.0590
36.6346,45.0590
36.6144,45.2382
36.6144,45.2383
26.8255,45.2383
26.8255,41.4622
26.8139,41.3548
26.8027,41.3033
26.8026,41.3030
26.7686,41.2008
26.7686,41.2007
26.6908,41.0797
26.6908,41.0797
26.6802,41.0675
26.6451,41.0269
26.6451,41.0269
26.6451,41.0269
26.5363,40.9327
26.5363,40.9327
26.5363,40.9327
26.4055,40.8729
26.4055,40.8729
26.4055,40.8729
26.3455,40.8553
26.3384,40.8532
26.2756,40.8442
26.1960,40.8327
20.3438,40.8327
20.3437,40.8327
20.2368,40.8442
20.2368,40.8442
20.2368,40.8442
20.2368,40.8442
20.1855,40.8553
20.1855,40.8553
20.1855,40.8553
20.1855,40.8553
20.0834,40.8891
20.0834,40.8891
19.9622,40.9666
19.9622,40.9667
19.9093,41.0123
19.8149,41.1208
19.7548,41.2516
19.7381,41.3080
19.7356,41.3144
19.7143,41.4610
19.7143,41.4610
19.7049,46.1175
19.7047,46.1738
6.6857,46.1738
6.7054,46.1175
6.7054,46.1175
6.7256,45.9383
6.7256,45.9382
6.7054,45.7590
6.7054,45.7590
6.6458,45.5887
6.6452,45.5878
6.5498,45.4360
6.4223,45.3084
6.2695,45.2125
6.0993,45.1529
6.0992,45.1529
5.9200,45.1327
5.9200,45.1327
5.7407,45.1529
5.7407,45.1529
5.5705,45.2125
5.4177,45.3084
5.2902,45.4360
5.1942,45.5887
5.1346,45.7590
5.1346,45.7590
5.1144,45.9382
5.1144,45.9383
5.1346,46.1175
5.1346,46.1175
5.1965,46.2943
5.1944,46.2951
5.2040,46.3534
5.1956,46.3818
5.1965,46.3822
5.1346,46.5590
5.1346,46.5590
5.1144,46.7382
5.1144,46.7383
4.5884,46.7383
4.6192,44.6899
4.6399,44.6232
4.6572,44.6024
6.5841,42.7483
13.9344,42.7483
13.9546,42.9275
13.9546,42.9275
14.0142,43.0978
14.1102,43.2505
14.2377,43.3781
14.3905,43.4740
14.5607,43.5336
14.5607,43.5336
14.7400,43.5538
14.7400,43.5538
14.7400,43.5538
14.9192,43.5336
14.9193,43.5336
14.9193,43.5336
15.0895,43.4740
15.2423,43.3781
15.3698,43.2505
15.4658,43.0978
15.5249,42.9288
15.5656,42.8720
15.6306,42.8463
15.6992,42.8597
15.7079,42.8647
15.7195,42.8720
15.7705,42.9040
15.8375,42.9275
15.9407,42.9636
15.9407,42.9636
16.1200,42.9838
16.1200,42.9838
16.1200,42.9838
16.2992,42.9636
16.2993,42.9636
16.2993,42.9636
16.4695,42.9040
16.6223,42.8081
16.7498,42.6805
16.8458,42.5278
16.9054,42.3575
16.9256,42.1782
16.9188,42.1184
16.9054,41.9990
16.9054,41.9990
16.9054,41.9990
16.8687,41.8942
16.8651,41.8244
16.8687,41.8123
16.9054,41.7075
16.9256,41.5282
16.9054,41.3490
16.8704,41.2492
16.8669,41.1794
16.8704,41.1673
16.9054,41.0675
16.9255,40.8891
16.9256,40.8883
16.9256,40.8882
16.9054,40.7090
16.9054,40.7090
16.8600,40.5792
16.8564,40.5094
16.8600,40.4973
16.9040,40.3714
16.9447,40.3146
16.9801,40.2953
17.0695,40.2640
17.2223,40.1681
17.3498,40.0405
17.4458,39.8878
17.5054,39.7175
17.5256,39.5382
17.5149,39.4437
17.5054,39.3590
17.5054,39.3590
17.4671,39.2496
17.4458,39.1887
17.3498,39.0360
17.2223,38.9084
17.0724,38.8143
19.6145,38.8143
19.6145,38.8143
19.6261,38.9217
19.6261,38.9217
19.6373,38.9732
19.6714,39.0757
19.6714,39.0758
19.7492,39.1968
19.7492,39.1968
19.7949,39.2496
19.7949,39.2496
19.7949,39.2496
19.9037,39.3438
19.9037,39.3438
19.9037,39.3438
19.9979,39.3869
20.0345,39.4036
20.1016,39.4233
20.1016,39.4233
20.2440,39.4438
20.2440,39.4438
25.2960,39.4438
25.2960,39.4438
25.4035,39.4322
25.4550,39.4210
25.4892,39.4096
25.5575,39.3869
25.5575,39.3869
25.5575,39.3869
25.6785,39.3091
25.7313,39.2633
25.8256,39.1546
25.8853,39.0237
25.9050,38.9567
25.9050,38.9567
25.9255,38.8143
25.9255,35.9677
25.9139,35.8603
25.9027,35.8088
25.9026,35.8085
25.8686,35.7063
25.8686,35.7062
25.8686,35.7062
25.8396,35.6610
25.8199,35.5940
25.8311,35.5425
25.8853,35.4237
25.9050,35.3567
25.9050,35.3567
25.9255,35.2142
25.9255,31.7622
25.9139,31.6548
25.9027,31.6033
25.8870,31.5560
25.8686,31.5008
25.8686,31.5007
25.7908,31.3797
25.7908,31.3797
25.7660,31.3511
25.7451,31.3269
25.7451,31.3269
25.7451,31.3269
25.6363,31.2327
25.6363,31.2327
25.6363,31.2327
25.5055,31.1729
25.5055,31.1729
25.5055,31.1729
25.4384,31.1532
25.4384,31.1532
25.4384,31.1532
25.3763,31.1443
25.2960,31.1327
20.2440,31.1327
20.2440,31.1327
20.2440,31.1328
20.1365,31.1443
20.1365,31.1443
20.0850,31.1555
19.9825,31.1896
19.9825,31.1896
19.8615,31.2674
19.8615,31.2674
19.8087,31.3132
19.7144,31.4219
19.7144,31.4219
19.6547,31.5528
19.6350,31.6198
19.6299,31.6548
19.6145,31.7622
19.6145,35.2142
19.6145,35.2143
19.6261,35.3217
19.6261,35.3217
19.6373,35.3732
19.6714,35.4757
19.6714,35.4758
19.7004,35.5209
19.7201,35.5880
19.7089,35.6395
19.6547,35.7583
19.6350,35.8253
19.6299,35.8603
19.6145,35.9677
19.6145,38.8143
17.0724,38.8143
17.0695,38.8125
16.8993,38.7529
16.8992,38.7529
16.7200,38.7327
16.7200,38.7327
16.5407,38.7529
16.5407,38.7529
16.4610,38.7808
16.3912,38.7844
16.3790,38.7808
16.2993,38.7529
16.1200,38.7327
16.1200,38.7327
15.9407,38.7529
15.9407,38.7529
15.7705,38.8125
15.6177,38.9084
15.4902,39.0360
15.3942,39.1887
15.3346,39.3590
15.3346,39.3590
15.3144,39.5382
15.3144,39.5383
15.3346,39.7175
15.3713,39.8223
15.3749,39.8921
15.3713,39.9042
15.3346,40.0090
15.3144,40.1882
15.3144,40.1883
15.3346,40.3675
15.3346,40.3675
15.3800,40.4973
15.3836,40.5671
15.3800,40.5792
15.3346,40.7090
15.3346,40.7090
15.3144,40.8882
15.3144,40.8883
15.3346,41.0675
15.3346,41.0675
15.3695,41.1673
15.3731,41.2371
15.3695,41.2492
15.3346,41.3490
15.3346,41.3490
15.3144,41.5282
15.3144,41.5283
15.3346,41.7075
15.3713,41.8123
15.3749,41.8821
15.3713,41.8942
15.3351,41.9977
15.2944,42.0545
15.2294,42.0802
15.1608,42.0668
15.1521,42.0618
15.0895,42.0225
14.9193,41.9629
14.9192,41.9629
14.7400,41.9427
14.7400,41.9427
14.5607,41.9629
14.5607,41.9629
14.3905,42.0225
14.2377,42.1184
14.1102,42.2460
14.0142,42.3987
13.9546,42.5690
13.9546,42.5690
13.9344,42.7482
13.9344,42.7483
6.5841,42.7483
9.9200,39.5382
9.9347,37.8902
9.9550,37.8233
10.0082,37.7780
10.0775,37.7687
10.0997,37.7743
10.2407,37.8236
10.2407,37.8236
10.2407,37.8236
10.2407,37.8236
10.2408,37.8236
10.4200,37.8438
10.4200,37.8438
10.4200,37.8438
10.5992,37.8236
10.5993,37.8236
10.5993,37.8236
10.7695,37.7640
10.9223,37.6681
11.0498,37.5405
11.1458,37.3878
11.2054,37.2175
11.2256,37.0382
11.2054,36.8590
11.1458,36.6887
11.0498,36.5360
10.9223,36.4084
10.8809,36.3825
10.7695,36.3125
10.5993,36.2529
10.5992,36.2529
10.4200,36.2327
10.4200,36.2327
10.2408,36.2529
10.2407,36.2529
10.1149,36.2969
10.0452,36.3005
9.9845,36.2657
9.9523,36.2037
9.9500,36.1788
9.9673,34.2383
14.6144,34.2383
14.6346,34.4175
14.6346,34.4175
14.6942,34.5878
14.7202,34.6292
14.7902,34.7405
14.9177,34.8681
15.0705,34.9640
15.2407,35.0236
15.2407,35.0236
15.3310,35.0338
15.3954,35.0608
15.4341,35.1160
15.4942,35.2878
15.5479,35.3732
15.5902,35.4405
15.7177,35.5681
15.7877,35.6120
15.8314,35.6395
15.8705,35.6640
15.9911,35.7062
16.0407,35.7236
16.0407,35.7236
16.2200,35.7438
16.2200,35.7438
16.2200,35.7438
16.3992,35.7236
16.3993,35.7236
16.3993,35.7236
16.5695,35.6640
16.7223,35.5681
16.8498,35.4405
16.9458,35.2878
17.0054,35.1175
17.0137,35.0434
17.0256,34.9383
17.0256,34.9382
17.0054,34.7590
17.0054,34.7590
16.9600,34.6292
16.9564,34.5594
16.9600,34.5473
17.0054,34.4175
17.0054,34.4175
17.0256,34.2383
17.0256,34.2382
17.0054,34.0590
17.0054,34.0590
16.9600,33.9292
16.9564,33.8594
16.9600,33.8473
17.0054,33.7175
17.0054,33.7175
17.0256,33.5383
17.0256,33.5382
17.0054,33.3590
17.0054,33.3590
16.9682,33.2526
16.9458,33.1887
16.8498,33.0360
16.7223,32.9084
16.5695,32.8125
16.4134,32.7578
16.3567,32.7171
16.3309,32.6522
16.3444,32.5836
16.3574,32.5635
16.3598,32.5605
16.3598,32.5605
16.4558,32.4078
16.5154,32.2375
16.5356,32.0583
16.5281,31.9916
16.5154,31.8790
16.5154,31.8790
16.5134,31.8733
16.4558,31.7087
16.3598,31.5560
16.2323,31.4284
16.2219,31.4219
16.0795,31.3325
15.9093,31.2729
15.9092,31.2729
15.7300,31.2527
15.7300,31.2527
15.5507,31.2729
15.5507,31.2729
15.3805,31.3325
15.2277,31.4284
15.1002,31.5560
15.0042,31.7087
14.9446,31.8790
14.9446,31.8790
14.9244,32.0582
14.9244,32.0583
14.9446,32.2375
14.9446,32.2375
15.0042,32.4078
15.1002,32.5605
15.1396,32.5999
15.1731,32.6612
15.1681,32.7309
15.1262,32.7869
15.0929,32.8046
15.0705,32.8125
14.9177,32.9084
14.7902,33.0360
14.6942,33.1887
14.6346,33.3590
14.6346,33.3590
14.6144,33.5382
14.6144,33.5383
14.6346,33.7175
14.6346,33.7175
14.6800,33.8473
14.6836,33.9171
14.6800,33.9292
14.6346,34.0590
14.6346,34.0590
14.6144,34.2382
14.6144,34.2383
9.9673,34.2383
10.0200,28.3382
9.4166,27.6007
9.1480,27.2725
9.1208,27.2082
9.1200,27.1940
9.1200,23.0733
33.4369,23.0733
33.4571,23.3555
33.4571,23.3555
33.5173,23.6319
33.5173,23.6319
33.5787,23.7965
33.6162,23.8970
33.6162,23.8970
33.7517,24.1454
33.7518,24.1454
33.9213,24.3719
33.9213,24.3719
34.1214,24.5719
34.1214,24.5719
34.3479,24.7415
34.3479,24.7415
34.5962,24.8771
34.5962,24.8771
34.5962,24.8771
34.8613,24.9760
35.1378,25.0361
35.3983,25.0547
35.4200,25.0563
35.4200,25.0563
35.4200,25.0563
35.4402,25.0549
35.7022,25.0361
35.9787,24.9760
36.2438,24.8771
36.4921,24.7415
36.7186,24.5719
36.9187,24.3719
37.0882,24.1454
37.2238,23.8970
37.3227,23.6319
37.3829,23.3555
37.4031,23.0732
37.3829,22.7910
37.3227,22.5146
37.2238,22.2495
37.0882,22.0011
37.0882,22.0011
36.9187,21.7746
36.9187,21.7746
36.7186,21.5746
36.7186,21.5746
36.4921,21.4050
36.4921,21.4050
36.2438,21.2694
36.2438,21.2694
36.1433,21.2319
35.9787,21.1705
35.9787,21.1705
35.9787,21.1705
35.7022,21.1104
35.7022,21.1104
35.4200,21.0902
35.4200,21.0902
35.1378,21.1104
35.1378,21.1104
34.8613,21.1705
34.8613,21.1705
34.8613,21.1705
34.7972,21.1944
34.5962,21.2694
34.5962,21.2694
34.3479,21.4050
34.3479,21.4050
34.1214,21.5746
34.1214,21.5746
33.9213,21.7746
33.9213,21.7746
33.7518,22.0011
33.7517,22.0011
33.6162,22.2495
33.6162,22.2495
33.5173,22.5146
33.4571,22.7910
33.4571,22.7910
33.4369,23.0732
33.4369,23.0733
9.1200,23.0733
9.1200,20.4719
9.1397,20.4049
9.1925,20.3591
9.2437,20.3479
49.9476,20.2386
Z" /> 
</g>
<g style="fill:#FFFFFF; fill-opacity:1.0000; stroke:none;">
<circle cx="2.4240" cy="39.2142" r="0.1500" /> 
</g>
<g style="fill:#FFFFFF; fill-opacity:1.0000; stroke:none;">
<circle cx="25.8910" cy="93.7313" r="0.1500" /> 
</g>
<g style="fill:#FFFFFF; fill-opacity:1.0000; stroke:none;">
<circle cx="56.3990" cy="59.8332" r="0.1500" /> 
</g>
<g style="fill:#FFFFFF; fill-opacity:1.0000; stroke:none;">
<circle cx="2.4240" cy="69.2142" r="0.1500" /> 
</g>
<g style="fill:#FFFFFF; fill-opacity:1.0000; stroke:none;">
<circle cx="29.4200" cy="18.2383" r="0.1500" /> 
</g>
<g style="fill:#FFFFFF; fill-opacity:1.0000; stroke:none;">
<circle cx="41.4200" cy="18.2383" r="0.1500" /> 
</g>
<g style="fill:#FFFFFF; fill-opacity:1.0000; stroke:none;">
<circle cx="56.3990" cy="62.8332" r="0.1500" /> 
</g>
<g style="fill:#FFFFFF; fill-opacity:1.0000; stroke:none;">
<circle cx="2.4240" cy="90.0482" r="0.1500" /> 
</g>
<g style="fill:#FFFFFF; fill-opacity:1.0000; stroke:none;">
<circle cx="56.2720" cy="91.4453" r="0.1500" /> 
</g>
<g style="fill:#FFFFFF; fill-opacity:1.0000; stroke:none;">
<circle cx="7.8910" cy="93.7313" r="0.1500" /> 
</g>
<g style="fill:#FFFFFF; fill-opacity:1.0000; stroke:none;">
<circle cx="56.3990" cy="26.8332" r="0.1500" /> 
</g>
<g style="fill:#FFFFFF; fill-opacity:1.0000; stroke:none;">
<circle cx="56.2720" cy="85.9052" r="0.1500" /> 
</g>
<g style="fill:#FFFFFF; fill-opacity:1.0000; stroke:none;">
<circle cx="47.4200" cy="18.2383" r="0.1500" /> 
</g>
<g style="fill:#FFFFFF; fill-opacity:1.0000; stroke:none;">
<circle cx="28.8910" cy="93.7313" r="0.1500" /> 
</g>
<g style="fill:#FFFFFF; fill-opacity:1.0000; stroke:none;">
<circle cx="56.3990" cy="41.8332" r="0.1500" /> 
</g>
<g style="fill:#FFFFFF; fill-opacity:1.0000; stroke:none;">
<circle cx="56.2720" cy="82.9052" r="0.1500" /> 
</g>
<g style="fill:#FFFFFF; fill-opacity:1.0000; stroke:none;">
<circle cx="11.4200" cy="18.2383" r="0.1500" /> 
</g>
<g style="fill:#FFFFFF; fill-opacity:1.0000; stroke:none;">
<circle cx="8.4200" cy="18.2383" r="0.1500" /> 
</g>
<g style="fill:#FFFFFF; fill-opacity:1.0000; stroke:none;">
<circle cx="4.8910" cy="93.7313" r="0.1500" /> 
</g>
<g style="fill:#FFFFFF; fill-opacity:1.0000; stroke:none;">
<circle cx="2.4240" cy="42.2142" r="0.1500" /> 
</g>
<g style="fill:#FFFFFF; fill-opacity:1.0000; stroke:none;">
<circle cx="56.2720" cy="93.7313" r="0.1500" /> 
</g>
<g style="fill:#FFFFFF; fill-opacity:1.0000; stroke:none;">
<circle cx="19.8910" cy="93.7313" r="0.1500" /> 
</g>
<g style="fill:#FFFFFF; fill-opacity:1.0000; stroke:none;">
<circle cx="49.8910" cy="93.7313" r="0.1500" /> 
</g>
<g style="fill:#FFFFFF; fill-opacity:1.0000; stroke:none;">
<circle cx="2.4240" cy="21.2142" r="0.1500" /> 
</g>
<g style="fill:#FFFFFF; fill-opacity:1.0000; stroke:none;">
<circle cx="2.4200" cy="18.2383" r="0.1500" /> 
</g>
<g style="fill:#FFFFFF; fill-opacity:1.0000; stroke:none;">
<circle cx="22.8910" cy="93.7313" r="0.1500" /> 
</g>
<g style="fill:#FFFFFF; fill-opacity:1.0000; stroke:none;">
<circle cx="2.4240" cy="84.0482" r="0.1500" /> 
</g>
<g style="fill:#FFFFFF; fill-opacity:1.0000; stroke:none;">
<circle cx="26.4200" cy="18.2383" r="0.1500" /> 
</g>
<g style="fill:#FFFFFF; fill-opacity:1.0000; stroke:none;">
<circle cx="2.4240" cy="45.2142" r="0.1500" /> 
</g>
<g style="fill:#FFFFFF; fill-opacity:1.0000; stroke:none;">
<circle cx="31.8910" cy="93.7313" r="0.1500" /> 
</g>
<g style="fill:#FFFFFF; fill-opacity:1.0000; stroke:none;">
<circle cx="40.8910" cy="93.7313" r="0.1500" /> 
</g>
<g style="fill:#FFFFFF; fill-opacity:1.0000; stroke:none;">
<circle cx="2.4240" cy="48.2142" r="0.1500" /> 
</g>
<g style="fill:#FFFFFF; fill-opacity:1.0000; stroke:none;">
<circle cx="2.4240" cy="24.2142" r="0.1500" /> 
</g>
<g style="fill:#FFFFFF; fill-opacity:1.0000; stroke:none;">
<circle cx="43.8910" cy="93.7313" r="0.1500" /> 
</g>
<g style="fill:#FFFFFF; fill-opacity:1.0000; stroke:none;">
<circle cx="38.4200" cy="18.2383" r="0.1500" /> 
</g>
<g style="fill:#FFFFFF; fill-opacity:1.0000; stroke:none;">
<circle cx="46.8910" cy="93.7313" r="0.1500" /> 
</g>
<g style="fill:#FFFFFF; fill-opacity:1.0000; stroke:none;">
<circle cx="37.8910" cy="93.7313" r="0.1500" /> 
</g>
<g style="fill:#FFFFFF; fill-opacity:1.0000; stroke:none;">
<circle cx="56.4200" cy="18.2383" r="0.1500" /> 
</g>
<g style="fill:#FFFFFF; fill-opacity:1.0000; stroke:none;">
<circle cx="2.4240" cy="66.2142" r="0.1500" /> 
</g>
<g style="fill:#FFFFFF; fill-opacity:1.0000; stroke:none;">
<circle cx="2.4240" cy="63.2142" r="0.1500" /> 
</g>
<g style="fill:#FFFFFF; fill-opacity:1.0000; stroke:none;">
<circle cx="56.3990" cy="56.8332" r="0.1500" /> 
</g>
<g style="fill:#FFFFFF; fill-opacity:1.0000; stroke:none;">
<circle cx="2.4240" cy="27.2142" r="0.1500" /> 
</g>
<g style="fill:#FFFFFF; fill-opacity:1.0000; stroke:none;">
<circle cx="56.3990" cy="53.8332" r="0.1500" /> 
</g>
<g style="fill:#FFFFFF; fill-opacity:1.0000; stroke:none;">
<circle cx="56.3990" cy="50.8332" r="0.1500" /> 
</g>
<g style="fill:#FFFFFF; fill-opacity:1.0000; stroke:none;">
<circle cx="44.4200" cy="18.2383" r="0.1500" /> 
</g>
<g style="fill:#FFFFFF; fill-opacity:1.0000; stroke:none;">
<circle cx="32.4200" cy="18.2383" r="0.1500" /> 
</g>
<g style="fill:#FFFFFF; fill-opacity:1.0000; stroke:none;">
<circle cx="2.4240" cy="54.2142" r="0.1500" /> 
</g>
<g style="fill:#FFFFFF; fill-opacity:1.0000; stroke:none;">
<circle cx="56.3990" cy="47.8332" r="0.1500" /> 
</g>
<g style="fill:#FFFFFF; fill-opacity:1.0000; stroke:none;">
<circle cx="23.4200" cy="18.2383" r="0.1500" /> 
</g>
<g style="fill:#FFFFFF; fill-opacity:1.0000; stroke:none;">
<circle cx="53.4200" cy="18.2383" r="0.1500" /> 
</g>
<g style="fill:#FFFFFF; fill-opacity:1.0000; stroke:none;">
<circle cx="50.4200" cy="18.2383" r="0.1500" /> 
</g>
<g style="fill:#FFFFFF; fill-opacity:1.0000; stroke:none;">
<circle cx="56.3990" cy="68.8332" r="0.1500" /> 
</g>
<g style="fill:#FFFFFF; fill-opacity:1.0000; stroke:none;">
<circle cx="56.3990" cy="74.8332" r="0.1500" /> 
</g>
<g style="fill:#FFFFFF; fill-opacity:1.0000; stroke:none;">
<circle cx="13.8910" cy="93.7313" r="0.1500" /> 
</g>
<g style="fill:#FFFFFF; fill-opacity:1.0000; stroke:none;">
<circle cx="56.3990" cy="23.8332" r="0.1500" /> 
</g>
<g style="fill:#FFFFFF; fill-opacity:1.0000; stroke:none;">
<circle cx="56.3990" cy="38.8332" r="0.1500" /> 
</g>
<g style="fill:#FFFFFF; fill-opacity:1.0000; stroke:none;">
<circle cx="10.8910" cy="93.7313" r="0.1500" /> 
</g>
<g style="fill:#FFFFFF; fill-opacity:1.0000; stroke:none;">
<circle cx="56.2720" cy="88.9052" r="0.1500" /> 
</g>
<g style="fill:#FFFFFF; fill-opacity:1.0000; stroke:none;">
<circle cx="52.8910" cy="93.7313" r="0.1500" /> 
</g>
<g style="fill:#FFFFFF; fill-opacity:1.0000; stroke:none;">
<circle cx="56.3990" cy="20.8332" r="0.1500" /> 
</g>
<g style="fill:#FFFFFF; fill-opacity:1.0000; stroke:none;">
<circle cx="20.4200" cy="18.2383" r="0.1500" /> 
</g>
<g style="fill:#FFFFFF; fill-opacity:1.0000; stroke:none;">
<circle cx="35.4200" cy="18.2383" r="0.1500" /> 
</g>
<g style="fill:#FFFFFF; fill-opacity:1.0000; stroke:none;">
<circle cx="56.3990" cy="65.8332" r="0.1500" /> 
</g>
<g style="fill:#FFFFFF; fill-opacity:1.0000; stroke:none;">
<circle cx="2.4240" cy="60.2142" r="0.1500" /> 
</g>
<g style="fill:#FFFFFF; fill-opacity:1.0000; stroke:none;">
<circle cx="5.4200" cy="18.2383" r="0.1500" /> 
</g>
<g style="fill:#FFFFFF; fill-opacity:1.0000; stroke:none;">
<circle cx="2.4240" cy="75.2142" r="0.1500" /> 
</g>
<g style="fill:#FFFFFF; fill-opacity:1.0000; stroke:none;">
<circle cx="2.4240" cy="93.7313" r="0.1500" /> 
</g>
<g style="fill:#FFFFFF; fill-opacity:1.0000; stroke:none;">
<circle cx="56.3990" cy="71.8332" r="0.1500" /> 
</g>
<g style="fill:#FFFFFF; fill-opacity:1.0000; stroke:none;">
<circle cx="17.4200" cy="18.2383" r="0.1500" /> 
</g>
<g style="fill:#FFFFFF; fill-opacity:1.0000; stroke:none;">
<circle cx="16.8910" cy="93.7313" r="0.1500" /> 
</g>
<g style="fill:#FFFFFF; fill-opacity:1.0000; stroke:none;">
<circle cx="34.8910" cy="93.7313" r="0.1500" /> 
</g>
<g style="fill:#FFFFFF; fill-opacity:1.0000; stroke:none;">
<circle cx="2.4240" cy="72.2142" r="0.1500" /> 
</g>
<g style="fill:#FFFFFF; fill-opacity:1.0000; stroke:none;">
<circle cx="2.4240" cy="57.2142" r="0.1500" /> 
</g>
<g style="fill:#FFFFFF; fill-opacity:1.0000; stroke:none;">
<circle cx="2.4240" cy="87.0482" r="0.1500" /> 
</g>
<g style="fill:#FFFFFF; fill-opacity:1.0000; stroke:none;">
<circle cx="2.4240" cy="51.2142" r="0.1500" /> 
</g>
<g style="fill:#FFFFFF; fill-opacity:1.0000; stroke:none;">
<circle cx="14.4200" cy="18.2383" r="0.1500" /> 
</g>
<g style="fill:#FFFFFF; fill-opacity:1.0000; stroke:none;">
<circle cx="56.3990" cy="44.8332" r="0.1500" /> 
</g>
<g style="fill:#FFFFFF; fill-opacity:1.0000; stroke:none;">
<circle cx="42.3200" cy="66.0382" r="0.1500" /> 
</g>
<g style="fill:#FFFFFF; fill-opacity:1.0000; stroke:none;">
<circle cx="41.6200" cy="66.0382" r="0.1500" /> 
</g>
<g style="fill:#FFFFFF; fill-opacity:1.0000; stroke:none;">
<circle cx="41.7200" cy="66.7382" r="0.1500" /> 
</g>
<g style="fill:#FFFFFF; fill-opacity:1.0000; stroke:none;">
<circle cx="49.1200" cy="35.7383" r="0.1500" /> 
</g>
<g style="fill:#FFFFFF; fill-opacity:1.0000; stroke:none;">
<circle cx="49.7200" cy="36.0382" r="0.1500" /> 
</g>
<g style="fill:#FFFFFF; fill-opacity:1.0000; stroke:none;">
<circle cx="49.1200" cy="37.8382" r="0.1500" /> 
</g>
<g style="fill:#FFFFFF; fill-opacity:1.0000; stroke:none;">
<circle cx="49.7200" cy="36.8382" r="0.1500" /> 
</g>
<g style="fill:#FFFFFF; fill-opacity:1.0000; stroke:none;">
<circle cx="49.1200" cy="36.4382" r="0.1500" /> 
</g>
<g style="fill:#FFFFFF; fill-opacity:1.0000; stroke:none;">
<circle cx="49.1200" cy="39.2383" r="0.1500" /> 
</g>
<g style="fill:#FFFFFF; fill-opacity:1.0000; stroke:none;">
<circle cx="49.7200" cy="37.5382" r="0.1500" /> 
</g>
<g style="fill:#FFFFFF; fill-opacity:1.0000; stroke:none;">
<circle cx="49.8200" cy="76.8383" r="0.1500" /> 
</g>
<g style="fill:#FFFFFF; fill-opacity:1.0000; stroke:none;">
<circle cx="49.1200" cy="37.1382" r="0.1500" /> 
</g>
<g style="fill:#FFFFFF; fill-opacity:1.0000; stroke:none;">
<circle cx="49.1200" cy="38.5382" r="0.1500" /> 
</g>
<g style="fill:#FFFFFF; fill-opacity:1.0000; stroke:none;">
<circle cx="49.2870" cy="49.7892" r="0.1500" /> 
</g>
<g style="fill:#FFFFFF; fill-opacity:1.0000; stroke:none;">
<circle cx="41.3200" cy="45.2383" r="0.1500" /> 
</g>
<g style="fill:#FFFFFF; fill-opacity:1.0000; stroke:none;">
<circle cx="10.2950" cy="75.9633" r="0.1500" /> 
</g>
<g style="fill:#FFFFFF; fill-opacity:1.0000; stroke:none;">
<circle cx="12.7700" cy="33.8633" r="0.1500" /> 
</g>
<g style="fill:#FFFFFF; fill-opacity:1.0000; stroke:none;">
<circle cx="19.4420" cy="59.1872" r="0.1500" /> 
</g>
<g style="fill:#FFFFFF; fill-opacity:1.0000; stroke:none;">
<circle cx="40.6200" cy="45.2383" r="0.1500" /> 
</g>
<g style="fill:#FFFFFF; fill-opacity:1.0000; stroke:none;">
<circle cx="39.8200" cy="45.2383" r="0.1500" /> 
</g>
<g style="fill:#FFFFFF; fill-opacity:1.0000; stroke:none;">
<circle cx="15.3976" cy="35.0147" r="0.1500" /> 
</g>
<g style="fill:#FFFFFF; fill-opacity:1.0000; stroke:none;">
<circle cx="29.9200" cy="65.7382" r="0.1500" /> 
</g>
<g style="fill:#FFFFFF; fill-opacity:1.0000; stroke:none;">
<circle cx="29.9200" cy="66.4382" r="0.1500" /> 
</g>
<g style="fill:#FFFFFF; fill-opacity:1.0000; stroke:none;">
<circle cx="6.2900" cy="52.3882" r="0.1500" /> 
</g>
<g style="fill:#FFFFFF; fill-opacity:1.0000; stroke:none;">
<circle cx="10.4200" cy="37.0382" r="0.1500" /> 
</g>
<g style="fill:#FFFFFF; fill-opacity:1.0000; stroke:none;">
<circle cx="21.3200" cy="57.9382" r="0.1500" /> 
</g>
<g style="fill:#FFFFFF; fill-opacity:1.0000; stroke:none;">
<circle cx="20.8200" cy="33.7383" r="0.1500" /> 
</g>
<g style="fill:#FFFFFF; fill-opacity:1.0000; stroke:none;">
<circle cx="20.8200" cy="34.5382" r="0.1500" /> 
</g>
<g style="fill:#FFFFFF; fill-opacity:1.0000; stroke:none;">
<circle cx="21.6200" cy="32.2383" r="0.1500" /> 
</g>
<g style="fill:#FFFFFF; fill-opacity:1.0000; stroke:none;">
<circle cx="24.1200" cy="33.0382" r="0.1500" /> 
</g>
<g style="fill:#FFFFFF; fill-opacity:1.0000; stroke:none;">
<circle cx="21.6200" cy="34.5382" r="0.1500" /> 
</g>
<g style="fill:#FFFFFF; fill-opacity:1.0000; stroke:none;">
<circle cx="20.8200" cy="32.2383" r="0.1500" /> 
</g>
<g style="fill:#FFFFFF; fill-opacity:1.0000; stroke:none;">
<circle cx="23.2200" cy="32.2383" r="0.1500" /> 
</g>
<g style="fill:#FFFFFF; fill-opacity:1.0000; stroke:none;">
<circle cx="24.1200" cy="34.5382" r="0.1500" /> 
</g>
<g style="fill:#FFFFFF; fill-opacity:1.0000; stroke:none;">
<circle cx="24.1200" cy="32.2383" r="0.1500" /> 
</g>
<g style="fill:#FFFFFF; fill-opacity:1.0000; stroke:none;">
<circle cx="22.4200" cy="32.2383" r="0.1500" /> 
</g>
<g style="fill:#FFFFFF; fill-opacity:1.0000; stroke:none;">
<circle cx="20.8200" cy="33.0382" r="0.1500" /> 
</g>
<g style="fill:#FFFFFF; fill-opacity:1.0000; stroke:none;">
<circle cx="23.3200" cy="34.5382" r="0.1500" /> 
</g>
<g style="fill:#FFFFFF; fill-opacity:1.0000; stroke:none;">
<circle cx="38.5200" cy="45.2383" r="0.1500" /> 
</g>
<g style="fill:#FFFFFF; fill-opacity:1.0000; stroke:none;">
<circle cx="24.1200" cy="33.8382" r="0.1500" /> 
</g>
<g style="fill:#FFFFFF; fill-opacity:1.0000; stroke:none;">
<circle cx="37.4200" cy="45.2383" r="0.1500" /> 
</g>
<g style="fill:#FFFFFF; fill-opacity:1.0000; stroke:none;">
<circle cx="22.5200" cy="34.5382" r="0.1500" /> 
</g>
<g style="fill:#FFFFFF; fill-opacity:1.0000; stroke:none;">
<circle cx="22.7400" cy="36.1983" r="0.1500" /> 
</g>
<g style="fill:#FFFFFF; fill-opacity:1.0000; stroke:none;">
<circle cx="21.8200" cy="36.7782" r="0.1500" /> 
</g>
<g style="fill:#FFFFFF; fill-opacity:1.0000; stroke:none;">
<circle cx="22.4500" cy="36.7782" r="0.1500" /> 
</g>
<g style="fill:#FFFFFF; fill-opacity:1.0000; stroke:none;">
<circle cx="23.0800" cy="36.7782" r="0.1500" /> 
</g>
<g style="fill:#FFFFFF; fill-opacity:1.0000; stroke:none;">
<circle cx="21.0200" cy="37.6382" r="0.1500" /> 
</g>
<g style="fill:#FFFFFF; fill-opacity:1.0000; stroke:none;">
<circle cx="23.3600" cy="36.1782" r="0.1500" /> 
</g>
<g style="fill:#FFFFFF; fill-opacity:1.0000; stroke:none;">
<circle cx="21.0200" cy="37.0382" r="0.1500" /> 
</g>
<g style="fill:#FFFFFF; fill-opacity:1.0000; stroke:none;">
<circle cx="21.5100" cy="36.1983" r="0.1500" /> 
</g>
<g style="fill:#FFFFFF; fill-opacity:1.0000; stroke:none;">
<circle cx="21.0200" cy="38.2383" r="0.1500" /> 
</g>
<g style="fill:#FFFFFF; fill-opacity:1.0000; stroke:none;">
<circle cx="22.1200" cy="36.1983" r="0.1500" /> 
</g>
<g style="fill:#FFFFFF; fill-opacity:1.0000; stroke:none;">
<circle cx="23.0200" cy="44.2383" r="0.1500" /> 
</g>
<g style="fill:#FFFFFF; fill-opacity:1.0000; stroke:none;">
<circle cx="23.9200" cy="43.6382" r="0.1500" /> 
</g>
<g style="fill:#FFFFFF; fill-opacity:1.0000; stroke:none;">
<circle cx="21.4800" cy="43.6982" r="0.1500" /> 
</g>
<g style="fill:#FFFFFF; fill-opacity:1.0000; stroke:none;">
<circle cx="22.2000" cy="43.6882" r="0.1500" /> 
</g>
<g style="fill:#FFFFFF; fill-opacity:1.0000; stroke:none;">
<circle cx="23.0200" cy="43.2383" r="0.1500" /> 
</g>
<g style="fill:#FFFFFF; fill-opacity:1.0000; stroke:none;">
<circle cx="24.7200" cy="43.6382" r="0.1500" /> 
</g>
<g style="fill:#FFFFFF; fill-opacity:1.0000; stroke:none;">
<circle cx="24.8100" cy="49.9883" r="0.1500" /> 
</g>
<g style="fill:#FFFFFF; fill-opacity:1.0000; stroke:none;">
<circle cx="17.8390" cy="49.6785" r="0.1500" /> 
</g>
<g style="fill:#FFFFFF; fill-opacity:1.0000; stroke:none;">
<circle cx="12.6200" cy="78.8383" r="0.1500" /> 
</g>
<g style="fill:#FFFFFF; fill-opacity:1.0000; stroke:none;">
<circle cx="12.6200" cy="78.1382" r="0.1500" /> 
</g>
<g style="fill:#FFFFFF; fill-opacity:1.0000; stroke:none;">
<circle cx="11.9200" cy="78.1382" r="0.1500" /> 
</g>
<g style="fill:#FFFFFF; fill-opacity:1.0000; stroke:none;">
<circle cx="13.3200" cy="78.1382" r="0.1500" /> 
</g>
<g style="fill:#FFFFFF; fill-opacity:1.0000; stroke:none;">
<circle cx="13.3200" cy="78.8383" r="0.1500" /> 
</g>
<g style="fill:#FFFFFF; fill-opacity:1.0000; stroke:none;">
<circle cx="16.7200" cy="39.5382" r="0.1500" /> 
</g>
<g style="fill:#FFFFFF; fill-opacity:1.0000; stroke:none;">
<circle cx="16.2200" cy="34.9382" r="0.1500" /> 
</g>
<g style="fill:#FFFFFF; fill-opacity:1.0000; stroke:none;">
<circle cx="24.6200" cy="52.8382" r="0.1500" /> 
</g>
<g style="fill:#FFFFFF; fill-opacity:1.0000; stroke:none;">
<circle cx="7.5000" cy="56.7383" r="0.1500" /> 
</g>
<g style="fill:#FFFFFF; fill-opacity:1.0000; stroke:none;">
<circle cx="25.3200" cy="52.8382" r="0.1500" /> 
</g>
<g style="fill:#FFFFFF; fill-opacity:1.0000; stroke:none;">
<circle cx="23.9200" cy="52.8382" r="0.1500" /> 
</g>
<g style="fill:#FFFFFF; fill-opacity:1.0000; stroke:none;">
<circle cx="16.2200" cy="33.5382" r="0.1500" /> 
</g>
<g style="fill:#FFFFFF; fill-opacity:1.0000; stroke:none;">
<circle cx="16.2200" cy="34.2383" r="0.1500" /> 
</g>
<g style="fill:#FFFFFF; fill-opacity:1.0000; stroke:none;">
<circle cx="23.2200" cy="52.8382" r="0.1500" /> 
</g>
<g style="fill:#FFFFFF; fill-opacity:1.0000; stroke:none;">
<circle cx="16.1200" cy="41.5282" r="0.1500" /> 
</g>
<g style="fill:#FFFFFF; fill-opacity:1.0000; stroke:none;">
<circle cx="16.1200" cy="42.1782" r="0.1500" /> 
</g>
<g style="fill:#FFFFFF; fill-opacity:1.0000; stroke:none;">
<circle cx="14.2200" cy="78.1382" r="0.1500" /> 
</g>
<g style="fill:#FFFFFF; fill-opacity:1.0000; stroke:none;">
<circle cx="15.4200" cy="33.5382" r="0.1500" /> 
</g>
<g style="fill:#FFFFFF; fill-opacity:1.0000; stroke:none;">
<circle cx="16.1200" cy="39.5382" r="0.1500" /> 
</g>
<g style="fill:#FFFFFF; fill-opacity:1.0000; stroke:none;">
<circle cx="16.1200" cy="40.8882" r="0.1500" /> 
</g>
<g style="fill:#FFFFFF; fill-opacity:1.0000; stroke:none;">
<circle cx="15.4200" cy="34.2383" r="0.1500" /> 
</g>
<g style="fill:#FFFFFF; fill-opacity:1.0000; stroke:none;">
<circle cx="14.3650" cy="53.4282" r="0.1500" /> 
</g>
<g style="fill:#FFFFFF; fill-opacity:1.0000; stroke:none;">
<circle cx="16.1200" cy="40.1882" r="0.1500" /> 
</g>
<g style="fill:#FFFFFF; fill-opacity:1.0000; stroke:none;">
<circle cx="5.9200" cy="45.9382" r="0.1500" /> 
</g>
<g style="fill:#FFFFFF; fill-opacity:1.0000; stroke:none;">
<circle cx="8.2200" cy="56.7383" r="0.1500" /> 
</g>
<g style="fill:#FFFFFF; fill-opacity:1.0000; stroke:none;">
<circle cx="7.8200" cy="47.3382" r="0.1500" /> 
</g>
<g style="fill:#FFFFFF; fill-opacity:1.0000; stroke:none;">
<circle cx="8.9200" cy="57.4382" r="0.1500" /> 
</g>
<g style="fill:#FFFFFF; fill-opacity:1.0000; stroke:none;">
<circle cx="8.2200" cy="57.4382" r="0.1500" /> 
</g>
<g style="fill:#FFFFFF; fill-opacity:1.0000; stroke:none;">
<circle cx="7.5200" cy="57.4382" r="0.1500" /> 
</g>
<g style="fill:#FFFFFF; fill-opacity:1.0000; stroke:none;">
<circle cx="5.9200" cy="46.7383" r="0.1500" /> 
</g>
<g style="fill:#FFFFFF; fill-opacity:1.0000; stroke:none;">
<circle cx="36.8200" cy="57.5382" r="0.1500" /> 
</g>
<g style="fill:#FFFFFF; fill-opacity:1.0000; stroke:none;">
<circle cx="36.8200" cy="56.8382" r="0.1500" /> 
</g>
<g style="fill:#FFFFFF; fill-opacity:1.0000; stroke:none;">
<circle cx="36.1200" cy="57.5382" r="0.1500" /> 
</g>
<g style="fill:#FFFFFF; fill-opacity:1.0000; stroke:none;">
<circle cx="15.7300" cy="32.0583" r="0.1500" /> 
</g>
<g style="fill:#FFFFFF; fill-opacity:1.0000; stroke:none;">
<circle cx="11.6200" cy="56.2782" r="0.1500" /> 
</g>
<g style="fill:#FFFFFF; fill-opacity:1.0000; stroke:none;">
<circle cx="14.7400" cy="42.7482" r="0.1500" /> 
</g>
<g style="fill:#FFFFFF; fill-opacity:1.0000; stroke:none;">
<circle cx="14.1200" cy="56.3382" r="0.1500" /> 
</g>
<g style="fill:#FFFFFF; fill-opacity:1.0000; stroke:none;">
<circle cx="8.1000" cy="88.7682" r="0.9850" /> 
</g>
<g style="fill:#FFFFFF; fill-opacity:1.0000; stroke:none;">
<circle cx="23.6000" cy="88.7682" r="0.9850" /> 
</g>
<g style="fill:#FFFFFF; fill-opacity:1.0000; stroke:none;">
<circle cx="8.4600" cy="22.5282" r="0.9850" /> 
</g>
<g style="fill:#FFFFFF; fill-opacity:1.0000; stroke:none;">
<circle cx="23.9600" cy="22.5282" r="0.9850" /> 
</g>
<g style="fill:#FFFFFF; fill-opacity:1.0000; stroke:none;">
<circle cx="2.1500" cy="32.8653" r="0.2500" /> 
</g>
<g style="fill:#FFFFFF; fill-opacity:1.0000; stroke:none;">
<circle cx="2.8529" cy="31.1682" r="0.2500" /> 
</g>
<g style="fill:#FFFFFF; fill-opacity:1.0000; stroke:none;">
<circle cx="2.8529" cy="34.5624" r="0.2500" /> 
</g>
<g style="fill:#FFFFFF; fill-opacity:1.0000; stroke:none;">
<circle cx="4.5500" cy="30.4653" r="0.2500" /> 
</g>
<g style="fill:#FFFFFF; fill-opacity:1.0000; stroke:none;">
<circle cx="4.5500" cy="32.8653" r="1.6000" /> 
</g>
<g style="fill:#FFFFFF; fill-opacity:1.0000; stroke:none;">
<circle cx="4.5500" cy="35.2653" r="0.2500" /> 
</g>
<g style="fill:#FFFFFF; fill-opacity:1.0000; stroke:none;">
<circle cx="6.2471" cy="31.1682" r="0.2500" /> 
</g>
<g style="fill:#FFFFFF; fill-opacity:1.0000; stroke:none;">
<circle cx="6.2471" cy="34.5624" r="0.2500" /> 
</g>
<g style="fill:#FFFFFF; fill-opacity:1.0000; stroke:none;">
<circle cx="6.9500" cy="32.8653" r="0.2500" /> 
</g>
<g style="fill:#FFFFFF; fill-opacity:1.0000; stroke:none;">
<circle cx="50.6100" cy="89.3582" r="0.9850" /> 
</g>
<g style="fill:#FFFFFF; fill-opacity:1.0000; stroke:none;">
<circle cx="35.1100" cy="89.3582" r="0.9850" /> 
</g>
<g style="fill:#FFFFFF; fill-opacity:1.0000; stroke:none;">
<circle cx="52.0800" cy="79.0583" r="0.2500" /> 
</g>
<g style="fill:#FFFFFF; fill-opacity:1.0000; stroke:none;">
<circle cx="52.7829" cy="77.3612" r="0.2500" /> 
</g>
<g style="fill:#FFFFFF; fill-opacity:1.0000; stroke:none;">
<circle cx="52.7829" cy="80.7553" r="0.2500" /> 
</g>
<g style="fill:#FFFFFF; fill-opacity:1.0000; stroke:none;">
<circle cx="54.4800" cy="76.6582" r="0.2500" /> 
</g>
<g style="fill:#FFFFFF; fill-opacity:1.0000; stroke:none;">
<circle cx="54.4800" cy="79.0583" r="1.6000" /> 
</g>
<g style="fill:#FFFFFF; fill-opacity:1.0000; stroke:none;">
<circle cx="54.4800" cy="81.4582" r="0.2500" /> 
</g>
<g style="fill:#FFFFFF; fill-opacity:1.0000; stroke:none;">
<circle cx="56.1771" cy="77.3612" r="0.2500" /> 
</g>
<g style="fill:#FFFFFF; fill-opacity:1.0000; stroke:none;">
<circle cx="56.1771" cy="80.7553" r="0.2500" /> 
</g>
<g style="fill:#FFFFFF; fill-opacity:1.0000; stroke:none;">
<circle cx="56.8800" cy="79.0583" r="0.2500" /> 
</g>
<g style="fill:#FFFFFF; fill-opacity:1.0000; stroke:none;">
<circle cx="50.9200" cy="23.0732" r="0.9850" /> 
</g>
<g style="fill:#FFFFFF; fill-opacity:1.0000; stroke:none;">
<circle cx="35.4200" cy="23.0732" r="0.9850" /> 
</g>
<g style="fill:#FFFFFF; fill-opacity:1.0000; stroke:none;">
<circle cx="2.1500" cy="79.0583" r="0.2500" /> 
</g>
<g style="fill:#FFFFFF; fill-opacity:1.0000; stroke:none;">
<circle cx="2.8529" cy="77.3612" r="0.2500" /> 
</g>
<g style="fill:#FFFFFF; fill-opacity:1.0000; stroke:none;">
<circle cx="2.8529" cy="80.7553" r="0.2500" /> 
</g>
<g style="fill:#FFFFFF; fill-opacity:1.0000; stroke:none;">
<circle cx="4.5500" cy="76.6582" r="0.2500" /> 
</g>
<g style="fill:#FFFFFF; fill-opacity:1.0000; stroke:none;">
<circle cx="4.5500" cy="79.0583" r="1.6000" /> 
</g>
<g style="fill:#FFFFFF; fill-opacity:1.0000; stroke:none;">
<circle cx="4.5500" cy="81.4582" r="0.2500" /> 
</g>
<g style="fill:#FFFFFF; fill-opacity:1.0000; stroke:none;">
<circle cx="6.2471" cy="77.3612" r="0.2500" /> 
</g>
<g style="fill:#FFFFFF; fill-opacity:1.0000; stroke:none;">
<circle cx="6.2471" cy="80.7553" r="0.2500" /> 
</g>
<g style="fill:#FFFFFF; fill-opacity:1.0000; stroke:none;">
<circle cx="6.9500" cy="79.0583" r="0.2500" /> 
</g>
<g style="fill:#FFFFFF; fill-opacity:1.0000; stroke:none;">
<circle cx="52.0800" cy="32.8582" r="0.2500" /> 
</g>
<g style="fill:#FFFFFF; fill-opacity:1.0000; stroke:none;">
<circle cx="52.7829" cy="31.1612" r="0.2500" /> 
</g>
<g style="fill:#FFFFFF; fill-opacity:1.0000; stroke:none;">
<circle cx="52.7829" cy="34.5553" r="0.2500" /> 
</g>
<g style="fill:#FFFFFF; fill-opacity:1.0000; stroke:none;">
<circle cx="54.4800" cy="30.4582" r="0.2500" /> 
</g>
<g style="fill:#FFFFFF; fill-opacity:1.0000; stroke:none;">
<circle cx="54.4800" cy="32.8582" r="1.6000" /> 
</g>
<g style="fill:#FFFFFF; fill-opacity:1.0000; stroke:none;">
<circle cx="54.4800" cy="35.2582" r="0.2500" /> 
</g>
<g style="fill:#FFFFFF; fill-opacity:1.0000; stroke:none;">
<circle cx="56.1771" cy="31.1612" r="0.2500" /> 
</g>
<g style="fill:#FFFFFF; fill-opacity:1.0000; stroke:none;">
<circle cx="56.1771" cy="34.5553" r="0.2500" /> 
</g>
<g style="fill:#FFFFFF; fill-opacity:1.0000; stroke:none;">
<circle cx="56.8800" cy="32.8582" r="0.2500" /> 
<path style="fill:none; 
stroke:#D0D2CD; stroke-width:0.0500; stroke-opacity:1; 
stroke-linecap:round; stroke-linejoin:round;fill:none"
d="M 0.0500,16.3382
58.9200,16.3382
58.9200,95.5382
0.0500,95.5382
Z" /> 
</g> 
</svg>
