<?xml version="1.0" standalone="no"?>
 <!DOCTYPE svg PUBLIC "-//W3C//DTD SVG 1.1//EN" 
 "http://www.w3.org/Graphics/SVG/1.1/DTD/svg11.dtd"> 
<svg
  xmlns:svg="http://www.w3.org/2000/svg"
  xmlns="http://www.w3.org/2000/svg"
  xmlns:xlink="http://www.w3.org/1999/xlink"
  version="1.1"
  width="70.9676mm" height="95.5802mm" viewBox="0.0000 0.0000 70.9676 95.5802">
<title>SVG Image created as SEPIC-A-In2_Cu.svg date 2024/09/19 09:59:25 </title>
  <desc>Image generated by PCBNEW </desc>
<g style="fill:#000000; fill-opacity:1.0000;stroke:#000000; stroke-opacity:1.0000;
stroke-linecap:round; stroke-linejoin:round;"
 transform="translate(0 0) scale(1 1)">
<path style="fill:#CE7D2C; fill-opacity:1.0000; 
stroke:#CE7D2C; stroke-width:0.0500; stroke-opacity:1; 
stroke-linecap:round; stroke-linejoin:round;fill-rule:evenodd;"
d="M 13.5300,77.2232
15.6000,77.2232
15.6000,79.2133
13.5300,79.2133
Z" /> 
</g>
<g style="fill:none; 
stroke:#CE7D2C; stroke-width:0.2000; stroke-opacity:1; 
stroke-linecap:round; stroke-linejoin:round;">
<path d="M14.2200 78.1382
L13.4200 78.1382
" />
<path style="fill:#CE7D2C; fill-opacity:1.0000; 
stroke:#CE7D2C; stroke-width:0.0010; stroke-opacity:1; 
stroke-linecap:round; stroke-linejoin:round;fill-rule:evenodd;"
d="M 4.4211,55.5983
9.6300,55.5983
9.6300,57.1982
4.4211,57.1982
Z" /> 
<path style="fill:#CE7D2C; fill-opacity:1.0000; 
stroke:#CE7D2C; stroke-width:0.0500; stroke-opacity:1; 
stroke-linecap:round; stroke-linejoin:round;fill-rule:evenodd;"
d="M 11.3600,77.2283
13.8600,77.2283
13.8600,79.2182
11.3600,79.2182
Z" /> 
</g>
<g style="fill:none; 
stroke:#CE7D2C; stroke-width:0.2000; stroke-opacity:1; 
stroke-linecap:round; stroke-linejoin:round;">
<path d="M8.2200 56.7383
L8.2200 57.4382
" />
<path style="fill:#CE7D2C; fill-opacity:1.0000; 
stroke:#CE7D2C; stroke-width:0.0500; stroke-opacity:1; 
stroke-linecap:round; stroke-linejoin:round;fill-rule:evenodd;"
d="M 11.9850,76.7582
14.3600,76.7582
14.3600,77.5082
11.9850,77.5082
Z" /> 
</g>
<g style="fill:none; 
stroke:#CE7D2C; stroke-width:0.2000; stroke-opacity:1; 
stroke-linecap:round; stroke-linejoin:round;">
<path d="M8.9200 57.4382
L8.2200 56.7383
" />
<path d="M7.5200 57.4382
L7.4950 56.7383
" />
<path d="M7.5200 57.4382
L8.2200 57.4382
" />
<path d="M8.2200 57.4382
L8.9200 57.4382
" />
<path style="fill:#CE7D2C; fill-opacity:1.0000; 
stroke:#CE7D2C; stroke-width:0.0010; stroke-opacity:1; 
stroke-linecap:round; stroke-linejoin:round;fill-rule:evenodd;"
d="M 5.3100,57.0582
9.6277,57.0582
9.6277,58.2182
5.3100,58.2182
Z" /> 
<path style="fill:#CE7D2C; fill-opacity:1.0000; stroke:none;fill-rule:evenodd;"
d="M 6.6225,90.2458
6.6225,87.2908
9.5775,87.2908
9.5775,90.2458
Z" /> 
</g>
<g style="fill:#CE7D2C; fill-opacity:1.0000; stroke:none;">
<circle cx="23.6000" cy="88.7682" r="1.4775" /> 
<path style="fill:#CE7D2C; fill-opacity:1.0000; stroke:none;fill-rule:evenodd;"
d="M 6.9825,24.0057
6.9825,21.0508
9.9375,21.0508
9.9375,24.0057
Z" /> 
</g>
<g style="fill:#CE7D2C; fill-opacity:1.0000; stroke:none;">
<circle cx="23.9600" cy="22.5282" r="1.4775" /> 
</g>
<g style="fill:#CE7D2C; fill-opacity:1.0000; stroke:none;">
<circle cx="2.1500" cy="32.8653" r="0.4000" /> 
</g>
<g style="fill:#CE7D2C; fill-opacity:1.0000; stroke:none;">
<circle cx="2.8529" cy="31.1682" r="0.4000" /> 
</g>
<g style="fill:#CE7D2C; fill-opacity:1.0000; stroke:none;">
<circle cx="2.8529" cy="34.5624" r="0.4000" /> 
</g>
<g style="fill:#CE7D2C; fill-opacity:1.0000; stroke:none;">
<circle cx="4.5500" cy="30.4653" r="0.4000" /> 
</g>
<g style="fill:#CE7D2C; fill-opacity:1.0000; stroke:none;">
<circle cx="4.5500" cy="32.8653" r="3.2000" /> 
</g>
<g style="fill:#CE7D2C; fill-opacity:1.0000; stroke:none;">
<circle cx="4.5500" cy="35.2653" r="0.4000" /> 
</g>
<g style="fill:#CE7D2C; fill-opacity:1.0000; stroke:none;">
<circle cx="6.2471" cy="31.1682" r="0.4000" /> 
</g>
<g style="fill:#CE7D2C; fill-opacity:1.0000; stroke:none;">
<circle cx="6.2471" cy="34.5624" r="0.4000" /> 
</g>
<g style="fill:#CE7D2C; fill-opacity:1.0000; stroke:none;">
<circle cx="6.9500" cy="32.8653" r="0.4000" /> 
</g>
<g style="fill:#CE7D2C; fill-opacity:1.0000; stroke:none;">
<circle cx="50.6100" cy="89.3582" r="1.4775" /> 
</g>
<g style="fill:#CE7D2C; fill-opacity:1.0000; stroke:none;">
<circle cx="35.1100" cy="89.3582" r="1.4775" /> 
</g>
<g style="fill:#CE7D2C; fill-opacity:1.0000; stroke:none;">
<circle cx="52.0800" cy="79.0583" r="0.4000" /> 
</g>
<g style="fill:#CE7D2C; fill-opacity:1.0000; stroke:none;">
<circle cx="52.7829" cy="77.3612" r="0.4000" /> 
</g>
<g style="fill:#CE7D2C; fill-opacity:1.0000; stroke:none;">
<circle cx="52.7829" cy="80.7553" r="0.4000" /> 
</g>
<g style="fill:#CE7D2C; fill-opacity:1.0000; stroke:none;">
<circle cx="54.4800" cy="76.6582" r="0.4000" /> 
</g>
<g style="fill:#CE7D2C; fill-opacity:1.0000; stroke:none;">
<circle cx="54.4800" cy="79.0583" r="3.2000" /> 
</g>
<g style="fill:#CE7D2C; fill-opacity:1.0000; stroke:none;">
<circle cx="54.4800" cy="81.4582" r="0.4000" /> 
</g>
<g style="fill:#CE7D2C; fill-opacity:1.0000; stroke:none;">
<circle cx="56.1771" cy="77.3612" r="0.4000" /> 
</g>
<g style="fill:#CE7D2C; fill-opacity:1.0000; stroke:none;">
<circle cx="56.1771" cy="80.7553" r="0.4000" /> 
</g>
<g style="fill:#CE7D2C; fill-opacity:1.0000; stroke:none;">
<circle cx="56.8800" cy="79.0583" r="0.4000" /> 
</g>
<g style="fill:#CE7D2C; fill-opacity:1.0000; stroke:none;">
<circle cx="50.9200" cy="23.0732" r="1.4775" /> 
</g>
<g style="fill:#CE7D2C; fill-opacity:1.0000; stroke:none;">
<circle cx="35.4200" cy="23.0732" r="1.4775" /> 
</g>
<g style="fill:#CE7D2C; fill-opacity:1.0000; stroke:none;">
<circle cx="2.1500" cy="79.0583" r="0.4000" /> 
</g>
<g style="fill:#CE7D2C; fill-opacity:1.0000; stroke:none;">
<circle cx="2.8529" cy="77.3612" r="0.4000" /> 
</g>
<g style="fill:#CE7D2C; fill-opacity:1.0000; stroke:none;">
<circle cx="2.8529" cy="80.7553" r="0.4000" /> 
</g>
<g style="fill:#CE7D2C; fill-opacity:1.0000; stroke:none;">
<circle cx="4.5500" cy="76.6582" r="0.4000" /> 
</g>
<g style="fill:#CE7D2C; fill-opacity:1.0000; stroke:none;">
<circle cx="4.5500" cy="79.0583" r="3.2000" /> 
</g>
<g style="fill:#CE7D2C; fill-opacity:1.0000; stroke:none;">
<circle cx="4.5500" cy="81.4582" r="0.4000" /> 
</g>
<g style="fill:#CE7D2C; fill-opacity:1.0000; stroke:none;">
<circle cx="6.2471" cy="77.3612" r="0.4000" /> 
</g>
<g style="fill:#CE7D2C; fill-opacity:1.0000; stroke:none;">
<circle cx="6.2471" cy="80.7553" r="0.4000" /> 
</g>
<g style="fill:#CE7D2C; fill-opacity:1.0000; stroke:none;">
<circle cx="6.9500" cy="79.0583" r="0.4000" /> 
</g>
<g style="fill:#CE7D2C; fill-opacity:1.0000; stroke:none;">
<circle cx="52.0800" cy="32.8582" r="0.4000" /> 
</g>
<g style="fill:#CE7D2C; fill-opacity:1.0000; stroke:none;">
<circle cx="52.7829" cy="31.1612" r="0.4000" /> 
</g>
<g style="fill:#CE7D2C; fill-opacity:1.0000; stroke:none;">
<circle cx="52.7829" cy="34.5553" r="0.4000" /> 
</g>
<g style="fill:#CE7D2C; fill-opacity:1.0000; stroke:none;">
<circle cx="54.4800" cy="30.4582" r="0.4000" /> 
</g>
<g style="fill:#CE7D2C; fill-opacity:1.0000; stroke:none;">
<circle cx="54.4800" cy="32.8582" r="3.2000" /> 
</g>
<g style="fill:#CE7D2C; fill-opacity:1.0000; stroke:none;">
<circle cx="54.4800" cy="35.2582" r="0.4000" /> 
</g>
<g style="fill:#CE7D2C; fill-opacity:1.0000; stroke:none;">
<circle cx="56.1771" cy="31.1612" r="0.4000" /> 
</g>
<g style="fill:#CE7D2C; fill-opacity:1.0000; stroke:none;">
<circle cx="56.1771" cy="34.5553" r="0.4000" /> 
</g>
<g style="fill:#CE7D2C; fill-opacity:1.0000; stroke:none;">
<circle cx="56.8800" cy="32.8582" r="0.4000" /> 
</g>
<g style="fill:#ECECEC; fill-opacity:1.0000; stroke:none;">
<circle cx="2.4240" cy="39.2142" r="0.3000" /> 
</g>
<g style="fill:#ECECEC; fill-opacity:1.0000; stroke:none;">
<circle cx="25.8910" cy="93.7313" r="0.3000" /> 
</g>
<g style="fill:#ECECEC; fill-opacity:1.0000; stroke:none;">
<circle cx="56.3990" cy="59.8332" r="0.3000" /> 
</g>
<g style="fill:#ECECEC; fill-opacity:1.0000; stroke:none;">
<circle cx="2.4240" cy="69.2142" r="0.3000" /> 
</g>
<g style="fill:#ECECEC; fill-opacity:1.0000; stroke:none;">
<circle cx="29.4200" cy="18.2383" r="0.3000" /> 
</g>
<g style="fill:#ECECEC; fill-opacity:1.0000; stroke:none;">
<circle cx="41.4200" cy="18.2383" r="0.3000" /> 
</g>
<g style="fill:#ECECEC; fill-opacity:1.0000; stroke:none;">
<circle cx="56.3990" cy="62.8332" r="0.3000" /> 
</g>
<g style="fill:#ECECEC; fill-opacity:1.0000; stroke:none;">
<circle cx="2.4240" cy="90.0482" r="0.3000" /> 
</g>
<g style="fill:#ECECEC; fill-opacity:1.0000; stroke:none;">
<circle cx="56.2720" cy="91.4453" r="0.3000" /> 
</g>
<g style="fill:#ECECEC; fill-opacity:1.0000; stroke:none;">
<circle cx="7.8910" cy="93.7313" r="0.3000" /> 
</g>
<g style="fill:#ECECEC; fill-opacity:1.0000; stroke:none;">
<circle cx="56.3990" cy="26.8332" r="0.3000" /> 
</g>
<g style="fill:#ECECEC; fill-opacity:1.0000; stroke:none;">
<circle cx="56.2720" cy="85.9052" r="0.3000" /> 
</g>
<g style="fill:#ECECEC; fill-opacity:1.0000; stroke:none;">
<circle cx="47.4200" cy="18.2383" r="0.3000" /> 
</g>
<g style="fill:#ECECEC; fill-opacity:1.0000; stroke:none;">
<circle cx="28.8910" cy="93.7313" r="0.3000" /> 
</g>
<g style="fill:#ECECEC; fill-opacity:1.0000; stroke:none;">
<circle cx="56.3990" cy="41.8332" r="0.3000" /> 
</g>
<g style="fill:#ECECEC; fill-opacity:1.0000; stroke:none;">
<circle cx="56.2720" cy="82.9052" r="0.3000" /> 
</g>
<g style="fill:#ECECEC; fill-opacity:1.0000; stroke:none;">
<circle cx="11.4200" cy="18.2383" r="0.3000" /> 
</g>
<g style="fill:#ECECEC; fill-opacity:1.0000; stroke:none;">
<circle cx="8.4200" cy="18.2383" r="0.3000" /> 
</g>
<g style="fill:#ECECEC; fill-opacity:1.0000; stroke:none;">
<circle cx="4.8910" cy="93.7313" r="0.3000" /> 
</g>
<g style="fill:#ECECEC; fill-opacity:1.0000; stroke:none;">
<circle cx="2.4240" cy="42.2142" r="0.3000" /> 
</g>
<g style="fill:#ECECEC; fill-opacity:1.0000; stroke:none;">
<circle cx="56.2720" cy="93.7313" r="0.3000" /> 
</g>
<g style="fill:#ECECEC; fill-opacity:1.0000; stroke:none;">
<circle cx="19.8910" cy="93.7313" r="0.3000" /> 
</g>
<g style="fill:#ECECEC; fill-opacity:1.0000; stroke:none;">
<circle cx="49.8910" cy="93.7313" r="0.3000" /> 
</g>
<g style="fill:#ECECEC; fill-opacity:1.0000; stroke:none;">
<circle cx="2.4240" cy="21.2142" r="0.3000" /> 
</g>
<g style="fill:#ECECEC; fill-opacity:1.0000; stroke:none;">
<circle cx="2.4200" cy="18.2383" r="0.3000" /> 
</g>
<g style="fill:#ECECEC; fill-opacity:1.0000; stroke:none;">
<circle cx="22.8910" cy="93.7313" r="0.3000" /> 
</g>
<g style="fill:#ECECEC; fill-opacity:1.0000; stroke:none;">
<circle cx="2.4240" cy="84.0482" r="0.3000" /> 
</g>
<g style="fill:#ECECEC; fill-opacity:1.0000; stroke:none;">
<circle cx="26.4200" cy="18.2383" r="0.3000" /> 
</g>
<g style="fill:#ECECEC; fill-opacity:1.0000; stroke:none;">
<circle cx="2.4240" cy="45.2142" r="0.3000" /> 
</g>
<g style="fill:#ECECEC; fill-opacity:1.0000; stroke:none;">
<circle cx="31.8910" cy="93.7313" r="0.3000" /> 
</g>
<g style="fill:#ECECEC; fill-opacity:1.0000; stroke:none;">
<circle cx="40.8910" cy="93.7313" r="0.3000" /> 
</g>
<g style="fill:#ECECEC; fill-opacity:1.0000; stroke:none;">
<circle cx="2.4240" cy="48.2142" r="0.3000" /> 
</g>
<g style="fill:#ECECEC; fill-opacity:1.0000; stroke:none;">
<circle cx="2.4240" cy="24.2142" r="0.3000" /> 
</g>
<g style="fill:#ECECEC; fill-opacity:1.0000; stroke:none;">
<circle cx="43.8910" cy="93.7313" r="0.3000" /> 
</g>
<g style="fill:#ECECEC; fill-opacity:1.0000; stroke:none;">
<circle cx="38.4200" cy="18.2383" r="0.3000" /> 
</g>
<g style="fill:#ECECEC; fill-opacity:1.0000; stroke:none;">
<circle cx="46.8910" cy="93.7313" r="0.3000" /> 
</g>
<g style="fill:#ECECEC; fill-opacity:1.0000; stroke:none;">
<circle cx="37.8910" cy="93.7313" r="0.3000" /> 
</g>
<g style="fill:#ECECEC; fill-opacity:1.0000; stroke:none;">
<circle cx="56.4200" cy="18.2383" r="0.3000" /> 
</g>
<g style="fill:#ECECEC; fill-opacity:1.0000; stroke:none;">
<circle cx="2.4240" cy="66.2142" r="0.3000" /> 
</g>
<g style="fill:#ECECEC; fill-opacity:1.0000; stroke:none;">
<circle cx="2.4240" cy="63.2142" r="0.3000" /> 
</g>
<g style="fill:#ECECEC; fill-opacity:1.0000; stroke:none;">
<circle cx="56.3990" cy="56.8332" r="0.3000" /> 
</g>
<g style="fill:#ECECEC; fill-opacity:1.0000; stroke:none;">
<circle cx="2.4240" cy="27.2142" r="0.3000" /> 
</g>
<g style="fill:#ECECEC; fill-opacity:1.0000; stroke:none;">
<circle cx="56.3990" cy="53.8332" r="0.3000" /> 
</g>
<g style="fill:#ECECEC; fill-opacity:1.0000; stroke:none;">
<circle cx="56.3990" cy="50.8332" r="0.3000" /> 
</g>
<g style="fill:#ECECEC; fill-opacity:1.0000; stroke:none;">
<circle cx="44.4200" cy="18.2383" r="0.3000" /> 
</g>
<g style="fill:#ECECEC; fill-opacity:1.0000; stroke:none;">
<circle cx="32.4200" cy="18.2383" r="0.3000" /> 
</g>
<g style="fill:#ECECEC; fill-opacity:1.0000; stroke:none;">
<circle cx="2.4240" cy="54.2142" r="0.3000" /> 
</g>
<g style="fill:#ECECEC; fill-opacity:1.0000; stroke:none;">
<circle cx="56.3990" cy="47.8332" r="0.3000" /> 
</g>
<g style="fill:#ECECEC; fill-opacity:1.0000; stroke:none;">
<circle cx="23.4200" cy="18.2383" r="0.3000" /> 
</g>
<g style="fill:#ECECEC; fill-opacity:1.0000; stroke:none;">
<circle cx="53.4200" cy="18.2383" r="0.3000" /> 
</g>
<g style="fill:#ECECEC; fill-opacity:1.0000; stroke:none;">
<circle cx="50.4200" cy="18.2383" r="0.3000" /> 
</g>
<g style="fill:#ECECEC; fill-opacity:1.0000; stroke:none;">
<circle cx="56.3990" cy="68.8332" r="0.3000" /> 
</g>
<g style="fill:#ECECEC; fill-opacity:1.0000; stroke:none;">
<circle cx="56.3990" cy="74.8332" r="0.3000" /> 
</g>
<g style="fill:#ECECEC; fill-opacity:1.0000; stroke:none;">
<circle cx="13.8910" cy="93.7313" r="0.3000" /> 
</g>
<g style="fill:#ECECEC; fill-opacity:1.0000; stroke:none;">
<circle cx="56.3990" cy="23.8332" r="0.3000" /> 
</g>
<g style="fill:#ECECEC; fill-opacity:1.0000; stroke:none;">
<circle cx="56.3990" cy="38.8332" r="0.3000" /> 
</g>
<g style="fill:#ECECEC; fill-opacity:1.0000; stroke:none;">
<circle cx="10.8910" cy="93.7313" r="0.3000" /> 
</g>
<g style="fill:#ECECEC; fill-opacity:1.0000; stroke:none;">
<circle cx="56.2720" cy="88.9052" r="0.3000" /> 
</g>
<g style="fill:#ECECEC; fill-opacity:1.0000; stroke:none;">
<circle cx="52.8910" cy="93.7313" r="0.3000" /> 
</g>
<g style="fill:#ECECEC; fill-opacity:1.0000; stroke:none;">
<circle cx="56.3990" cy="20.8332" r="0.3000" /> 
</g>
<g style="fill:#ECECEC; fill-opacity:1.0000; stroke:none;">
<circle cx="20.4200" cy="18.2383" r="0.3000" /> 
</g>
<g style="fill:#ECECEC; fill-opacity:1.0000; stroke:none;">
<circle cx="35.4200" cy="18.2383" r="0.3000" /> 
</g>
<g style="fill:#ECECEC; fill-opacity:1.0000; stroke:none;">
<circle cx="56.3990" cy="65.8332" r="0.3000" /> 
</g>
<g style="fill:#ECECEC; fill-opacity:1.0000; stroke:none;">
<circle cx="2.4240" cy="60.2142" r="0.3000" /> 
</g>
<g style="fill:#ECECEC; fill-opacity:1.0000; stroke:none;">
<circle cx="5.4200" cy="18.2383" r="0.3000" /> 
</g>
<g style="fill:#ECECEC; fill-opacity:1.0000; stroke:none;">
<circle cx="2.4240" cy="75.2142" r="0.3000" /> 
</g>
<g style="fill:#ECECEC; fill-opacity:1.0000; stroke:none;">
<circle cx="2.4240" cy="93.7313" r="0.3000" /> 
</g>
<g style="fill:#ECECEC; fill-opacity:1.0000; stroke:none;">
<circle cx="56.3990" cy="71.8332" r="0.3000" /> 
</g>
<g style="fill:#ECECEC; fill-opacity:1.0000; stroke:none;">
<circle cx="17.4200" cy="18.2383" r="0.3000" /> 
</g>
<g style="fill:#ECECEC; fill-opacity:1.0000; stroke:none;">
<circle cx="16.8910" cy="93.7313" r="0.3000" /> 
</g>
<g style="fill:#ECECEC; fill-opacity:1.0000; stroke:none;">
<circle cx="34.8910" cy="93.7313" r="0.3000" /> 
</g>
<g style="fill:#ECECEC; fill-opacity:1.0000; stroke:none;">
<circle cx="2.4240" cy="72.2142" r="0.3000" /> 
</g>
<g style="fill:#ECECEC; fill-opacity:1.0000; stroke:none;">
<circle cx="2.4240" cy="57.2142" r="0.3000" /> 
</g>
<g style="fill:#ECECEC; fill-opacity:1.0000; stroke:none;">
<circle cx="2.4240" cy="87.0482" r="0.3000" /> 
</g>
<g style="fill:#ECECEC; fill-opacity:1.0000; stroke:none;">
<circle cx="2.4240" cy="51.2142" r="0.3000" /> 
</g>
<g style="fill:#ECECEC; fill-opacity:1.0000; stroke:none;">
<circle cx="14.4200" cy="18.2383" r="0.3000" /> 
</g>
<g style="fill:#ECECEC; fill-opacity:1.0000; stroke:none;">
<circle cx="56.3990" cy="44.8332" r="0.3000" /> 
</g>
<g style="fill:#ECECEC; fill-opacity:1.0000; stroke:none;">
<circle cx="42.3200" cy="66.0382" r="0.3000" /> 
</g>
<g style="fill:#ECECEC; fill-opacity:1.0000; stroke:none;">
<circle cx="41.6200" cy="66.0382" r="0.3000" /> 
</g>
<g style="fill:#ECECEC; fill-opacity:1.0000; stroke:none;">
<circle cx="41.7200" cy="66.7382" r="0.3000" /> 
</g>
<g style="fill:#ECECEC; fill-opacity:1.0000; stroke:none;">
<circle cx="49.1200" cy="35.7383" r="0.3000" /> 
</g>
<g style="fill:#ECECEC; fill-opacity:1.0000; stroke:none;">
<circle cx="49.7200" cy="36.0382" r="0.3000" /> 
</g>
<g style="fill:#ECECEC; fill-opacity:1.0000; stroke:none;">
<circle cx="49.1200" cy="37.8382" r="0.3000" /> 
</g>
<g style="fill:#ECECEC; fill-opacity:1.0000; stroke:none;">
<circle cx="49.7200" cy="36.8382" r="0.3000" /> 
</g>
<g style="fill:#ECECEC; fill-opacity:1.0000; stroke:none;">
<circle cx="49.1200" cy="36.4382" r="0.3000" /> 
</g>
<g style="fill:#ECECEC; fill-opacity:1.0000; stroke:none;">
<circle cx="49.1200" cy="39.2383" r="0.3000" /> 
</g>
<g style="fill:#ECECEC; fill-opacity:1.0000; stroke:none;">
<circle cx="49.7200" cy="37.5382" r="0.3000" /> 
</g>
<g style="fill:#ECECEC; fill-opacity:1.0000; stroke:none;">
<circle cx="49.8200" cy="76.8383" r="0.3000" /> 
</g>
<g style="fill:#ECECEC; fill-opacity:1.0000; stroke:none;">
<circle cx="49.1200" cy="37.1382" r="0.3000" /> 
</g>
<g style="fill:#ECECEC; fill-opacity:1.0000; stroke:none;">
<circle cx="49.1200" cy="38.5382" r="0.3000" /> 
</g>
<g style="fill:#ECECEC; fill-opacity:1.0000; stroke:none;">
<circle cx="49.2870" cy="49.7892" r="0.3000" /> 
</g>
<g style="fill:#ECECEC; fill-opacity:1.0000; stroke:none;">
<circle cx="41.3200" cy="45.2383" r="0.3000" /> 
</g>
<g style="fill:#ECECEC; fill-opacity:1.0000; stroke:none;">
<circle cx="10.2950" cy="75.9633" r="0.3000" /> 
</g>
<g style="fill:#ECECEC; fill-opacity:1.0000; stroke:none;">
<circle cx="12.7700" cy="33.8633" r="0.3000" /> 
</g>
<g style="fill:#ECECEC; fill-opacity:1.0000; stroke:none;">
<circle cx="19.4420" cy="59.1872" r="0.3000" /> 
</g>
<g style="fill:#ECECEC; fill-opacity:1.0000; stroke:none;">
<circle cx="40.6200" cy="45.2383" r="0.3000" /> 
</g>
<g style="fill:#ECECEC; fill-opacity:1.0000; stroke:none;">
<circle cx="39.8200" cy="45.2383" r="0.3000" /> 
</g>
<g style="fill:#ECECEC; fill-opacity:1.0000; stroke:none;">
<circle cx="15.3976" cy="35.0147" r="0.3000" /> 
</g>
<g style="fill:#ECECEC; fill-opacity:1.0000; stroke:none;">
<circle cx="29.9200" cy="65.7382" r="0.3000" /> 
</g>
<g style="fill:#ECECEC; fill-opacity:1.0000; stroke:none;">
<circle cx="29.9200" cy="66.4382" r="0.3000" /> 
</g>
<g style="fill:#ECECEC; fill-opacity:1.0000; stroke:none;">
<circle cx="6.2900" cy="52.3882" r="0.3000" /> 
</g>
<g style="fill:#ECECEC; fill-opacity:1.0000; stroke:none;">
<circle cx="10.4200" cy="37.0382" r="0.3000" /> 
</g>
<g style="fill:#ECECEC; fill-opacity:1.0000; stroke:none;">
<circle cx="21.3200" cy="57.9382" r="0.3000" /> 
</g>
<g style="fill:#ECECEC; fill-opacity:1.0000; stroke:none;">
<circle cx="20.8200" cy="33.7383" r="0.3000" /> 
</g>
<g style="fill:#ECECEC; fill-opacity:1.0000; stroke:none;">
<circle cx="20.8200" cy="34.5382" r="0.3000" /> 
</g>
<g style="fill:#ECECEC; fill-opacity:1.0000; stroke:none;">
<circle cx="21.6200" cy="32.2383" r="0.3000" /> 
</g>
<g style="fill:#ECECEC; fill-opacity:1.0000; stroke:none;">
<circle cx="24.1200" cy="33.0382" r="0.3000" /> 
</g>
<g style="fill:#ECECEC; fill-opacity:1.0000; stroke:none;">
<circle cx="21.6200" cy="34.5382" r="0.3000" /> 
</g>
<g style="fill:#ECECEC; fill-opacity:1.0000; stroke:none;">
<circle cx="20.8200" cy="32.2383" r="0.3000" /> 
</g>
<g style="fill:#ECECEC; fill-opacity:1.0000; stroke:none;">
<circle cx="23.2200" cy="32.2383" r="0.3000" /> 
</g>
<g style="fill:#ECECEC; fill-opacity:1.0000; stroke:none;">
<circle cx="24.1200" cy="34.5382" r="0.3000" /> 
</g>
<g style="fill:#ECECEC; fill-opacity:1.0000; stroke:none;">
<circle cx="24.1200" cy="32.2383" r="0.3000" /> 
</g>
<g style="fill:#ECECEC; fill-opacity:1.0000; stroke:none;">
<circle cx="22.4200" cy="32.2383" r="0.3000" /> 
</g>
<g style="fill:#ECECEC; fill-opacity:1.0000; stroke:none;">
<circle cx="20.8200" cy="33.0382" r="0.3000" /> 
</g>
<g style="fill:#ECECEC; fill-opacity:1.0000; stroke:none;">
<circle cx="23.3200" cy="34.5382" r="0.3000" /> 
</g>
<g style="fill:#ECECEC; fill-opacity:1.0000; stroke:none;">
<circle cx="38.5200" cy="45.2383" r="0.3000" /> 
</g>
<g style="fill:#ECECEC; fill-opacity:1.0000; stroke:none;">
<circle cx="24.1200" cy="33.8382" r="0.3000" /> 
</g>
<g style="fill:#ECECEC; fill-opacity:1.0000; stroke:none;">
<circle cx="37.4200" cy="45.2383" r="0.3000" /> 
</g>
<g style="fill:#ECECEC; fill-opacity:1.0000; stroke:none;">
<circle cx="22.5200" cy="34.5382" r="0.3000" /> 
</g>
<g style="fill:#ECECEC; fill-opacity:1.0000; stroke:none;">
<circle cx="22.7400" cy="36.1983" r="0.3000" /> 
</g>
<g style="fill:#ECECEC; fill-opacity:1.0000; stroke:none;">
<circle cx="21.8200" cy="36.7782" r="0.3000" /> 
</g>
<g style="fill:#ECECEC; fill-opacity:1.0000; stroke:none;">
<circle cx="22.4500" cy="36.7782" r="0.3000" /> 
</g>
<g style="fill:#ECECEC; fill-opacity:1.0000; stroke:none;">
<circle cx="23.0800" cy="36.7782" r="0.3000" /> 
</g>
<g style="fill:#ECECEC; fill-opacity:1.0000; stroke:none;">
<circle cx="21.0200" cy="37.6382" r="0.3000" /> 
</g>
<g style="fill:#ECECEC; fill-opacity:1.0000; stroke:none;">
<circle cx="23.3600" cy="36.1782" r="0.3000" /> 
</g>
<g style="fill:#ECECEC; fill-opacity:1.0000; stroke:none;">
<circle cx="21.0200" cy="37.0382" r="0.3000" /> 
</g>
<g style="fill:#ECECEC; fill-opacity:1.0000; stroke:none;">
<circle cx="21.5100" cy="36.1983" r="0.3000" /> 
</g>
<g style="fill:#ECECEC; fill-opacity:1.0000; stroke:none;">
<circle cx="21.0200" cy="38.2383" r="0.3000" /> 
</g>
<g style="fill:#ECECEC; fill-opacity:1.0000; stroke:none;">
<circle cx="22.1200" cy="36.1983" r="0.3000" /> 
</g>
<g style="fill:#ECECEC; fill-opacity:1.0000; stroke:none;">
<circle cx="23.0200" cy="44.2383" r="0.3000" /> 
</g>
<g style="fill:#ECECEC; fill-opacity:1.0000; stroke:none;">
<circle cx="23.9200" cy="43.6382" r="0.3000" /> 
</g>
<g style="fill:#ECECEC; fill-opacity:1.0000; stroke:none;">
<circle cx="21.4800" cy="43.6982" r="0.3000" /> 
</g>
<g style="fill:#ECECEC; fill-opacity:1.0000; stroke:none;">
<circle cx="22.2000" cy="43.6882" r="0.3000" /> 
</g>
<g style="fill:#ECECEC; fill-opacity:1.0000; stroke:none;">
<circle cx="23.0200" cy="43.2383" r="0.3000" /> 
</g>
<g style="fill:#ECECEC; fill-opacity:1.0000; stroke:none;">
<circle cx="24.7200" cy="43.6382" r="0.3000" /> 
</g>
<g style="fill:#ECECEC; fill-opacity:1.0000; stroke:none;">
<circle cx="24.8100" cy="49.9883" r="0.3000" /> 
</g>
<g style="fill:#ECECEC; fill-opacity:1.0000; stroke:none;">
<circle cx="17.8390" cy="49.6785" r="0.3000" /> 
</g>
<g style="fill:#ECECEC; fill-opacity:1.0000; stroke:none;">
<circle cx="12.6200" cy="78.8383" r="0.3000" /> 
</g>
<g style="fill:#ECECEC; fill-opacity:1.0000; stroke:none;">
<circle cx="12.6200" cy="78.1382" r="0.3000" /> 
</g>
<g style="fill:#ECECEC; fill-opacity:1.0000; stroke:none;">
<circle cx="11.9200" cy="78.1382" r="0.3000" /> 
</g>
<g style="fill:#ECECEC; fill-opacity:1.0000; stroke:none;">
<circle cx="13.3200" cy="78.1382" r="0.3000" /> 
</g>
<g style="fill:#ECECEC; fill-opacity:1.0000; stroke:none;">
<circle cx="13.3200" cy="78.8383" r="0.3000" /> 
</g>
<g style="fill:#ECECEC; fill-opacity:1.0000; stroke:none;">
<circle cx="16.7200" cy="39.5382" r="0.3000" /> 
</g>
<g style="fill:#ECECEC; fill-opacity:1.0000; stroke:none;">
<circle cx="16.2200" cy="34.9382" r="0.3000" /> 
</g>
<g style="fill:#ECECEC; fill-opacity:1.0000; stroke:none;">
<circle cx="24.6200" cy="52.8382" r="0.3000" /> 
</g>
<g style="fill:#ECECEC; fill-opacity:1.0000; stroke:none;">
<circle cx="7.5000" cy="56.7383" r="0.3000" /> 
</g>
<g style="fill:#ECECEC; fill-opacity:1.0000; stroke:none;">
<circle cx="25.3200" cy="52.8382" r="0.3000" /> 
</g>
<g style="fill:#ECECEC; fill-opacity:1.0000; stroke:none;">
<circle cx="23.9200" cy="52.8382" r="0.3000" /> 
</g>
<g style="fill:#ECECEC; fill-opacity:1.0000; stroke:none;">
<circle cx="16.2200" cy="33.5382" r="0.3000" /> 
</g>
<g style="fill:#ECECEC; fill-opacity:1.0000; stroke:none;">
<circle cx="16.2200" cy="34.2383" r="0.3000" /> 
</g>
<g style="fill:#ECECEC; fill-opacity:1.0000; stroke:none;">
<circle cx="23.2200" cy="52.8382" r="0.3000" /> 
</g>
<g style="fill:#ECECEC; fill-opacity:1.0000; stroke:none;">
<circle cx="16.1200" cy="41.5282" r="0.3000" /> 
</g>
<g style="fill:#ECECEC; fill-opacity:1.0000; stroke:none;">
<circle cx="16.1200" cy="42.1782" r="0.3000" /> 
</g>
<g style="fill:#ECECEC; fill-opacity:1.0000; stroke:none;">
<circle cx="14.2200" cy="78.1382" r="0.3000" /> 
</g>
<g style="fill:#ECECEC; fill-opacity:1.0000; stroke:none;">
<circle cx="15.4200" cy="33.5382" r="0.3000" /> 
</g>
<g style="fill:#ECECEC; fill-opacity:1.0000; stroke:none;">
<circle cx="16.1200" cy="39.5382" r="0.3000" /> 
</g>
<g style="fill:#ECECEC; fill-opacity:1.0000; stroke:none;">
<circle cx="16.1200" cy="40.8882" r="0.3000" /> 
</g>
<g style="fill:#ECECEC; fill-opacity:1.0000; stroke:none;">
<circle cx="15.4200" cy="34.2383" r="0.3000" /> 
</g>
<g style="fill:#ECECEC; fill-opacity:1.0000; stroke:none;">
<circle cx="14.3650" cy="53.4282" r="0.3000" /> 
</g>
<g style="fill:#ECECEC; fill-opacity:1.0000; stroke:none;">
<circle cx="16.1200" cy="40.1882" r="0.3000" /> 
</g>
<g style="fill:#ECECEC; fill-opacity:1.0000; stroke:none;">
<circle cx="5.9200" cy="45.9382" r="0.3000" /> 
</g>
<g style="fill:#ECECEC; fill-opacity:1.0000; stroke:none;">
<circle cx="8.2200" cy="56.7383" r="0.3000" /> 
</g>
<g style="fill:#ECECEC; fill-opacity:1.0000; stroke:none;">
<circle cx="7.8200" cy="47.3382" r="0.3000" /> 
</g>
<g style="fill:#ECECEC; fill-opacity:1.0000; stroke:none;">
<circle cx="8.9200" cy="57.4382" r="0.3000" /> 
</g>
<g style="fill:#ECECEC; fill-opacity:1.0000; stroke:none;">
<circle cx="8.2200" cy="57.4382" r="0.3000" /> 
</g>
<g style="fill:#ECECEC; fill-opacity:1.0000; stroke:none;">
<circle cx="7.5200" cy="57.4382" r="0.3000" /> 
</g>
<g style="fill:#ECECEC; fill-opacity:1.0000; stroke:none;">
<circle cx="5.9200" cy="46.7383" r="0.3000" /> 
</g>
<g style="fill:#ECECEC; fill-opacity:1.0000; stroke:none;">
<circle cx="36.8200" cy="57.5382" r="0.3000" /> 
</g>
<g style="fill:#ECECEC; fill-opacity:1.0000; stroke:none;">
<circle cx="36.8200" cy="56.8382" r="0.3000" /> 
</g>
<g style="fill:#ECECEC; fill-opacity:1.0000; stroke:none;">
<circle cx="36.1200" cy="57.5382" r="0.3000" /> 
</g>
<g style="fill:#ECECEC; fill-opacity:1.0000; stroke:none;">
<circle cx="15.7300" cy="32.0583" r="0.3000" /> 
</g>
<g style="fill:#ECECEC; fill-opacity:1.0000; stroke:none;">
<circle cx="11.6200" cy="56.2782" r="0.3000" /> 
</g>
<g style="fill:#ECECEC; fill-opacity:1.0000; stroke:none;">
<circle cx="14.7400" cy="42.7482" r="0.3000" /> 
</g>
<g style="fill:#ECECEC; fill-opacity:1.0000; stroke:none;">
<circle cx="14.1200" cy="56.3382" r="0.3000" /> 
<path style="fill:#CE7D2C; fill-opacity:1.0000; stroke:none;fill-rule:evenodd;"
d="M 16.2630,59.8579
16.3088,59.9107
16.3200,59.9622
16.3200,65.7142
16.3003,65.7813
16.2475,65.8270
16.1960,65.8383
10.0440,65.8383
9.9770,65.8186
9.9312,65.7658
9.9200,65.7142
9.9200,59.9622
9.9397,59.8952
9.9925,59.8495
10.0440,59.8382
16.1960,59.8382
Z" /> 
<path style="fill:#CE7D2C; fill-opacity:1.0000; stroke:none;fill-rule:evenodd;"
d="M 57.9462,17.4580
58.0132,17.4778
58.0588,17.5307
58.0699,17.5821
58.0201,94.4055
58.0004,94.4725
57.9475,94.5182
57.8972,94.5294
3.1964,95.0377
3.1953,95.0378
1.1139,95.0378
1.0469,95.0181
1.0011,94.9653
0.9899,94.9138
0.9897,94.4725
0.9713,56.8143
3.9145,56.8143
3.9194,56.8602
3.9202,56.8734
3.9202,57.2642
3.9543,57.3916
3.9799,57.4360
4.0202,57.5059
4.1135,57.5991
4.2278,57.6651
4.3281,57.6920
4.3878,57.7284
4.4183,57.7912
4.4200,57.8118
4.4200,57.9382
4.4200,57.9382
4.8115,58.3515
4.8413,58.4047
4.8431,58.4116
4.9091,58.5259
5.0024,58.6191
5.0801,58.6640
5.1237,58.6892
5.1226,58.6910
5.1528,58.7117
6.1873,59.8037
6.2191,59.8659
6.2212,59.8858
6.3200,63.6366
6.3200,63.6399
6.3200,76.2382
9.2714,78.5010
9.3127,78.5574
9.3200,78.5994
9.3200,86.6662
9.3003,86.7333
9.2475,86.7790
9.1960,86.7903
6.5746,86.7903
6.5746,86.7903
6.5150,86.7967
6.3802,86.8470
6.3802,86.8470
6.2650,86.9332
6.2650,86.9332
6.1787,87.0484
6.1787,87.0484
6.1284,87.1833
6.1220,87.2429
6.1220,87.2429
6.1220,90.2936
6.1220,90.2936
6.1284,90.3532
6.1787,90.4881
6.1787,90.4881
6.2650,90.6033
6.2650,90.6033
6.3802,90.6895
6.3802,90.6895
6.5150,90.7398
6.5150,90.7398
6.5219,90.7406
6.5746,90.7462
9.1960,90.7462
9.2630,90.7659
9.3088,90.8187
9.3200,90.8702
9.3200,91.8383
50.1200,91.9382
50.1065,91.4301
50.1244,91.3626
50.1760,91.3155
50.2448,91.3037
50.2568,91.3057
50.3278,91.3211
50.5843,91.3395
50.6100,91.3413
50.6100,91.3413
50.6100,91.3413
50.6302,91.3399
50.8922,91.3211
51.1687,91.2610
51.4338,91.1621
51.6821,91.0265
51.9086,90.8569
52.1087,90.6569
52.2782,90.4304
52.4138,90.1820
52.5127,89.9169
52.5729,89.6405
52.5931,89.3582
52.5729,89.0760
52.5127,88.7996
52.4138,88.5345
52.3874,88.4860
52.2783,88.2861
52.2782,88.2861
52.1087,88.0596
52.1087,88.0596
51.9086,87.8596
51.9086,87.8596
51.6821,87.6900
51.6821,87.6900
51.4338,87.5544
51.4338,87.5544
51.3333,87.5169
51.1687,87.4555
51.1687,87.4555
51.1687,87.4555
50.8922,87.3954
50.8922,87.3954
50.6100,87.3752
50.6100,87.3752
50.3278,87.3954
50.3278,87.3954
50.1476,87.4346
50.0779,87.4296
50.0220,87.3877
49.9976,87.3223
49.9973,87.3168
49.8223,80.7233
49.8402,80.6557
49.8917,80.6086
49.8985,80.6055
51.0200,80.1382
51.0200,77.1945
51.0397,77.1275
51.0623,77.1012
52.0486,76.2382
53.4200,75.0382
53.5709,44.6288
53.6200,34.7383
53.6200,34.7383
53.6200,34.7383
51.7736,32.8281
50.7548,31.7743
50.7224,31.7124
50.7200,31.6881
50.7200,28.4383
50.2063,27.6303
50.1869,27.5657
50.1472,25.0767
50.1658,25.0093
50.2179,24.9628
50.2869,24.9517
50.3145,24.9585
50.3613,24.9760
50.3613,24.9760
50.3613,24.9760
50.5992,25.0277
50.6378,25.0361
50.8983,25.0547
50.9200,25.0563
50.9200,25.0563
50.9200,25.0563
50.9402,25.0549
51.2022,25.0361
51.4787,24.9760
51.7438,24.8771
51.9921,24.7415
52.2186,24.5719
52.4187,24.3719
52.5882,24.1454
52.7238,23.8970
52.8227,23.6319
52.8829,23.3555
52.9031,23.0732
52.8829,22.7910
52.8227,22.5146
52.7238,22.2495
52.5882,22.0011
52.5646,21.9696
52.4187,21.7746
52.4187,21.7746
52.2186,21.5746
52.2186,21.5746
51.9921,21.4050
51.9921,21.4050
51.7438,21.2694
51.7438,21.2694
51.6371,21.2296
51.4787,21.1705
51.4787,21.1705
51.4787,21.1705
51.2022,21.1104
51.2022,21.1104
50.9200,21.0902
50.9200,21.0902
50.6378,21.1104
50.6378,21.1104
50.3613,21.1705
50.3613,21.1705
50.3613,21.1705
50.3351,21.1803
50.2510,21.2117
50.1813,21.2166
50.1200,21.1832
50.0865,21.1218
50.0837,21.0975
50.0700,20.2383
50.0700,20.2383
9.1200,20.3483
9.1200,20.4262
9.1003,20.4933
9.0475,20.5390
8.9960,20.5502
6.9346,20.5502
6.9346,20.5503
6.8750,20.5567
6.7402,20.6070
6.7402,20.6070
6.6250,20.6932
6.6250,20.6932
6.5387,20.8084
6.5387,20.8084
6.4884,20.9433
6.4820,21.0029
6.4820,21.0029
6.4820,24.0536
6.4820,24.0536
6.4884,24.1132
6.5387,24.2481
6.5387,24.2481
6.6250,24.3633
6.6250,24.3633
6.7402,24.4495
6.7402,24.4495
6.8750,24.4998
6.8750,24.4998
6.8819,24.5006
6.9346,24.5062
8.9960,24.5062
9.0630,24.5259
9.1088,24.5787
9.1200,24.6302
9.1200,27.2102
9.1079,27.2636
8.6100,28.3082
8.6100,28.3082
8.5902,33.5184
8.5800,33.5528
8.5800,39.4882
8.5603,39.5553
8.5566,39.5607
5.6259,43.6301
5.6129,43.6453
5.1618,44.0964
5.1005,44.1299
5.0741,44.1328
4.7458,44.1328
4.6348,44.1451
4.6348,44.1451
4.5816,44.1571
4.5816,44.1571
4.4759,44.1935
4.3561,44.2731
4.3039,44.3196
4.3039,44.3196
4.2113,44.4297
4.1535,44.5615
4.1535,44.5615
4.1348,44.6288
4.1348,44.6288
4.1164,44.7715
4.1164,44.7715
4.2114,51.2307
4.1927,51.2980
4.1866,51.3069
4.0404,51.5019
4.0297,51.5167
4.0246,51.5241
4.0144,51.5392
4.0144,51.5392
3.9547,51.6701
3.9350,51.7372
3.9145,51.8796
3.9145,56.8143
0.9713,56.8143
0.9600,33.7789
0.9797,33.7118
0.9954,33.6921
1.0000,33.6874
1.0000,33.6874
1.0000,17.4625
1.0197,17.3955
1.0725,17.3497
1.1243,17.3385
Z" /> 
<path style="fill:#CE7D2C; fill-opacity:1.0000; stroke:none;fill-rule:evenodd;"
d="M 16.2630,66.4579
16.3088,66.5107
16.3200,66.5622
16.3200,72.3143
16.3003,72.3813
16.2475,72.4270
16.1960,72.4382
10.0440,72.4382
9.9770,72.4186
9.9312,72.3658
9.9200,72.3143
9.9200,66.5622
9.9397,66.4952
9.9925,66.4495
10.0440,66.4382
16.1960,66.4382
Z" /> 
<path style="fill:#CE7D2C; fill-opacity:1.0000; stroke:none;fill-rule:evenodd;"
d="M 25.3630,35.8634
25.4088,35.9162
25.4200,35.9677
25.4200,38.8143
25.4003,38.8813
25.3475,38.9270
25.2960,38.9382
20.2440,38.9382
20.1770,38.9186
20.1312,38.8658
20.1200,38.8143
20.1200,35.9677
20.1397,35.9007
20.1925,35.8550
20.2440,35.8438
25.2960,35.8438
Z" /> 
<path style="fill:#CE7D2C; fill-opacity:1.0000; stroke:none;fill-rule:evenodd;"
d="M 26.2630,41.3579
26.3088,41.4107
26.3200,41.4622
26.3200,46.2134
26.3003,46.2805
26.2475,46.3262
26.1952,46.3374
20.3334,46.2991
20.2665,46.2789
20.2211,46.2258
20.2102,46.1748
20.2198,41.4620
20.2396,41.3950
20.2925,41.3494
20.3438,41.3382
26.1960,41.3382
Z" /> 
<path style="fill:#CE7D2C; fill-opacity:1.0000; stroke:none;fill-rule:evenodd;"
d="M 25.3630,31.6579
25.4088,31.7107
25.4200,31.7622
25.4200,35.2142
25.4003,35.2813
25.3475,35.3270
25.2960,35.3382
20.2440,35.3382
20.1770,35.3186
20.1312,35.2658
20.1200,35.2142
20.1200,31.7622
20.1397,31.6952
20.1925,31.6495
20.2440,31.6382
25.2960,31.6382
Z" /> 
<path style="fill:#CE7D2C; fill-opacity:1.0000; stroke:none;fill-rule:evenodd;"
d="M 16.4057,33.2834
16.4514,33.3362
16.4626,33.3860
16.4722,34.1019
16.4823,34.8600
16.4843,35.0130
16.4655,35.0803
16.4134,35.1268
16.3603,35.1387
15.9768,35.1387
15.9097,35.1190
15.8640,35.0662
15.8547,35.0234
15.8540,35.0235
15.8343,34.8865
15.8343,34.8865
15.8222,34.8599
15.8110,34.8084
15.8110,34.5887
15.5636,34.5887
15.5287,34.5837
15.5008,34.5755
15.4624,34.5642
15.4624,34.5642
15.3329,34.5642
15.3322,34.5642
15.2652,34.5445
15.2194,34.4917
15.2082,34.4426
15.1884,33.3900
15.2068,33.3226
15.2587,33.2759
15.3124,33.2637
16.3386,33.2637
Z" /> 
<path style="fill:#CE7D2C; fill-opacity:1.0000; stroke:none;fill-rule:evenodd;"
d="M 49.5172,20.7649
49.5631,20.8176
49.5745,20.8674
49.5783,21.1055
49.5783,21.1055
49.5816,21.1555
49.5844,21.1799
49.5844,21.1799
49.5926,21.2293
49.5926,21.2293
49.6429,21.3641
49.6429,21.3641
49.6763,21.4254
49.7626,21.5406
49.7655,21.5435
49.7675,21.5472
49.7679,21.5477
49.7678,21.5477
49.7990,21.6048
49.7940,21.6745
49.7622,21.7221
49.6130,21.8605
49.6130,21.8605
49.4468,22.0689
49.3136,22.2996
49.2162,22.5477
49.2162,22.5477
49.1569,22.8075
49.1569,22.8075
49.1370,23.0732
49.1370,23.0733
49.1569,23.3390
49.1569,23.3390
49.2162,23.5988
49.2162,23.5988
49.2162,23.5988
49.3136,23.8469
49.4468,24.0776
49.5403,24.1949
49.6130,24.2860
49.6130,24.2860
49.8114,24.4701
49.8471,24.5301
49.8447,24.5999
49.8220,24.6407
49.7363,24.7429
49.6786,24.8747
49.6604,24.9405
49.6600,24.9419
49.6418,25.0848
49.6815,27.5738
49.7027,27.7108
49.7221,27.7754
49.7221,27.7754
49.7797,27.9015
49.7797,27.9015
49.9610,28.1866
50.1951,28.5549
50.2145,28.6214
50.2145,31.6881
50.2170,31.7379
50.2170,31.7379
50.2170,31.7379
50.2194,31.7622
50.2267,31.8115
50.2747,31.9471
50.2747,31.9471
50.2747,31.9471
50.3071,32.0090
50.3914,32.1256
50.9436,32.6969
50.9761,32.7588
50.9783,32.7896
50.9747,32.8582
50.9939,33.2247
51.0513,33.5870
51.1076,33.7972
51.1463,33.9415
51.2777,34.2840
51.4443,34.6109
51.6441,34.9186
51.6942,34.9804
51.8751,35.2038
52.1345,35.4632
52.1345,35.4632
52.4196,35.6941
52.7273,35.8939
52.7273,35.8939
53.0397,36.0531
53.0905,36.1011
53.1074,36.1642
52.9159,74.7520
52.8959,74.8189
52.8736,74.8447
50.7295,76.7208
50.6795,76.7711
50.6568,76.7974
50.6568,76.7974
50.6144,76.8542
50.5547,76.9851
50.5350,77.0521
50.5145,77.1945
50.5145,79.7186
50.4948,79.7856
50.4420,79.8314
50.4382,79.8330
49.7041,80.1389
49.6901,80.1450
49.6833,80.1481
49.6696,80.1545
49.5632,80.2270
49.5507,80.2355
49.5507,80.2355
49.4991,80.2826
49.4078,80.3938
49.4078,80.3938
49.3515,80.5263
49.3515,80.5263
49.3411,80.5655
49.3336,80.5938
49.3336,80.5938
49.3336,80.5938
49.3329,80.5996
49.3328,80.6010
49.3169,80.7367
49.4920,87.3302
49.4924,87.3415
49.4927,87.3469
49.4927,87.3470
49.4934,87.3583
49.4934,87.3583
49.4934,87.3583
49.5239,87.4989
49.5239,87.4989
49.5391,87.5396
49.5484,87.5644
49.5484,87.5644
49.6173,87.6906
49.6173,87.6906
49.6259,87.6993
49.6594,87.7606
49.6544,87.8303
49.6126,87.8862
49.6081,87.8894
49.4983,87.9643
49.3030,88.1455
49.3030,88.1455
49.1368,88.3539
49.0036,88.5846
48.9062,88.8327
48.9062,88.8327
48.8469,89.0925
48.8469,89.0925
48.8270,89.3582
48.8270,89.3583
48.8469,89.6240
48.8469,89.6240
48.9062,89.8838
48.9062,89.8838
48.9062,89.8838
49.0036,90.1319
49.1368,90.3626
49.3030,90.5710
49.4983,90.7522
49.6308,90.8426
49.6939,90.8856
49.7382,90.9396
49.7463,91.0090
49.7199,91.0667
49.6921,91.1007
49.6920,91.1007
49.6358,91.2331
49.6358,91.2331
49.6179,91.3006
49.6154,91.3216
49.5881,91.3859
49.5303,91.4252
49.4920,91.4312
9.9492,91.3343
9.8822,91.3144
9.8366,91.2615
9.8255,91.2103
9.8255,90.8703
9.8255,90.8702
9.8139,90.7628
9.8139,90.7628
9.8027,90.7113
9.8026,90.7108
9.7686,90.6087
9.7653,90.6017
9.7681,90.6004
9.7524,90.5472
9.7721,90.4801
9.7887,90.4595
9.8297,90.4185
9.8751,90.3157
9.8780,90.2906
9.8780,88.7683
21.8170,88.7683
21.8369,89.0340
21.8369,89.0340
21.8962,89.2938
21.8962,89.2938
21.8962,89.2938
21.9936,89.5419
22.1268,89.7726
22.2930,89.9810
22.4883,90.1622
22.7085,90.3124
22.9486,90.4280
23.2032,90.5065
23.2032,90.5065
23.2033,90.5065
23.4667,90.5462
23.4668,90.5462
23.4668,90.5463
23.4668,90.5463
23.7332,90.5463
23.7332,90.5463
23.7332,90.5462
23.9967,90.5065
23.9967,90.5065
23.9968,90.5065
24.2514,90.4280
24.4915,90.3124
24.7117,90.1622
24.9070,89.9810
25.0732,89.7726
25.2064,89.5419
25.2785,89.3583
33.3270,89.3583
33.3469,89.6240
33.3469,89.6240
33.4062,89.8838
33.4062,89.8838
33.4062,89.8838
33.5036,90.1319
33.6368,90.3626
33.8030,90.5710
33.9983,90.7522
34.2185,90.9024
34.4586,91.0180
34.7132,91.0965
34.7132,91.0965
34.7133,91.0965
34.9767,91.1362
34.9768,91.1362
34.9768,91.1362
34.9768,91.1362
35.2432,91.1362
35.2432,91.1362
35.2432,91.1362
35.5067,91.0965
35.5067,91.0965
35.5068,91.0965
35.7614,91.0180
36.0015,90.9024
36.2217,90.7522
36.4170,90.5710
36.5832,90.3626
36.7164,90.1319
36.8138,89.8838
36.8731,89.6240
36.8930,89.3582
36.8882,89.2938
36.8731,89.0925
36.8731,89.0925
36.8731,89.0925
36.8138,88.8327
36.7164,88.5846
36.5832,88.3539
36.4170,88.1455
36.2217,87.9643
36.0015,87.8141
35.7614,87.6985
35.7359,87.6906
35.5068,87.6200
35.5067,87.6200
35.2432,87.5802
35.2432,87.5802
34.9768,87.5802
34.9767,87.5802
34.7133,87.6200
34.7132,87.6200
34.4586,87.6985
34.2185,87.8141
34.2185,87.8141
33.9983,87.9643
33.8030,88.1455
33.8030,88.1455
33.6368,88.3539
33.5036,88.5846
33.4062,88.8327
33.4062,88.8327
33.3469,89.0925
33.3469,89.0925
33.3270,89.3582
33.3270,89.3583
25.2785,89.3583
25.3038,89.2938
25.3631,89.0340
25.3782,88.8327
25.3830,88.7683
25.3830,88.7682
25.3631,88.5025
25.3631,88.5025
25.3631,88.5025
25.3038,88.2427
25.2064,87.9946
25.0732,87.7639
24.9070,87.5555
24.7117,87.3743
24.4915,87.2241
24.4845,87.2208
24.2514,87.1085
23.9968,87.0300
23.9967,87.0300
23.7332,86.9902
23.7332,86.9902
23.4668,86.9902
23.4667,86.9902
23.2033,87.0300
23.2032,87.0300
22.9486,87.1085
22.7085,87.2241
22.7085,87.2241
22.4883,87.3743
22.2930,87.5555
22.2930,87.5555
22.1268,87.7639
21.9936,87.9946
21.8962,88.2427
21.8962,88.2427
21.8369,88.5025
21.8369,88.5025
21.8170,88.7682
21.8170,88.7683
9.8780,88.7683
9.8780,87.2459
9.8780,87.2459
9.8751,87.2208
9.8751,87.2208
9.8751,87.2208
9.8297,87.1180
9.8202,87.1085
9.7842,87.0724
9.7507,87.0111
9.7557,86.9414
9.7591,86.9333
9.7853,86.8757
9.8050,86.8087
9.8050,86.8087
9.8255,86.6662
9.8255,78.5994
9.8180,78.5125
9.8106,78.4705
9.7883,78.3862
9.7208,78.2592
9.6801,78.2034
9.6796,78.2028
9.5790,78.0999
9.5790,78.0999
6.8741,76.0261
6.8328,75.9696
6.8255,75.9277
6.8255,63.6398
6.8255,63.6332
6.8255,63.6332
6.8254,63.6300
6.8253,63.6233
6.7266,59.8725
6.7239,59.8319
6.7218,59.8121
6.7158,59.7719
6.6692,59.6358
6.6374,59.5736
6.6374,59.5736
6.6374,59.5736
6.5543,59.4561
6.5543,59.4561
5.8882,58.7530
5.8564,58.6908
5.8633,58.6213
5.9066,58.5665
5.9727,58.5439
5.9782,58.5437
7.4872,58.5437
7.4880,58.5437
7.5108,58.5428
7.5203,58.5421
7.5475,58.5430
7.5528,58.5437
8.1872,58.5437
8.1880,58.5437
8.2108,58.5428
8.2203,58.5421
8.2475,58.5430
8.2528,58.5437
8.8872,58.5437
8.8880,58.5437
8.9108,58.5428
8.9203,58.5421
8.9475,58.5430
8.9528,58.5437
20.6640,58.5437
20.6654,58.5437
20.6821,58.5432
20.6968,58.5423
20.7989,58.5182
20.8631,58.4907
20.9057,58.4672
20.9739,58.4520
21.0131,58.4611
21.0172,58.4628
21.0172,58.4628
21.1632,58.5233
21.2141,58.5300
21.2780,58.5583
21.3165,58.6166
21.3173,58.6864
21.2856,58.7406
17.0372,62.9890
16.9759,63.0225
16.9062,63.0175
16.8502,62.9757
16.8258,62.9102
16.8255,62.9013
16.8255,59.9623
16.8255,59.9622
16.8139,59.8548
16.8027,59.8033
16.7923,59.7719
16.7686,59.7008
16.7686,59.7007
16.6908,59.5797
16.6908,59.5797
16.6855,59.5736
16.6451,59.5269
16.6451,59.5269
16.6451,59.5269
16.5363,59.4327
16.5363,59.4327
16.5363,59.4327
16.4055,59.3729
16.4055,59.3729
16.4055,59.3729
16.3384,59.3532
16.3384,59.3532
16.3384,59.3532
16.2763,59.3443
16.1960,59.3327
10.0440,59.3327
10.0440,59.3327
10.0440,59.3328
9.9365,59.3443
9.9365,59.3443
9.8850,59.3555
9.7825,59.3896
9.7825,59.3896
9.6615,59.4674
9.6615,59.4674
9.6087,59.5132
9.5144,59.6219
9.5144,59.6219
9.4547,59.7528
9.4350,59.8198
9.4299,59.8548
9.4145,59.9622
9.4145,65.7142
9.4145,65.7143
9.4261,65.8217
9.4261,65.8217
9.4373,65.8732
9.4714,65.9757
9.4714,65.9758
9.5304,66.0675
9.5500,66.1346
9.5304,66.2016
9.5198,66.2158
9.5144,66.2219
9.5144,66.2219
9.4547,66.3528
9.4350,66.4198
9.4323,66.4382
9.4145,66.5622
9.4145,72.3143
9.4145,72.3143
9.4261,72.4217
9.4261,72.4217
9.4373,72.4732
9.4714,72.5757
9.4714,72.5758
9.5492,72.6968
9.5492,72.6968
9.5949,72.7496
9.5949,72.7496
9.5949,72.7496
9.7037,72.8438
9.8345,72.9036
9.9016,72.9233
9.9016,72.9233
10.0440,72.9437
10.0440,72.9437
15.8956,72.9437
15.9626,72.9634
16.0084,73.0162
16.0183,73.0854
15.9893,73.1490
15.9731,73.1646
15.7923,73.3092
11.8694,76.4475
11.8539,76.4581
11.7851,76.4978
11.7851,76.4978
11.7245,76.5584
11.7245,76.5584
11.6817,76.6326
11.6817,76.6326
11.6595,76.7154
11.6595,76.7507
11.6594,76.7559
11.6588,76.7711
11.6582,76.7840
11.6357,76.8501
11.5811,76.8936
11.5343,76.9027
11.3171,76.9027
11.2344,76.9249
11.2344,76.9249
11.1601,76.9678
11.1601,76.9678
11.0995,77.0284
11.0995,77.0284
11.0567,77.1026
11.0567,77.1026
11.0345,77.1854
11.0345,77.2721
11.0148,77.3391
10.9829,77.3727
10.9024,77.4307
10.9024,77.4307
10.8411,77.5247
10.8411,77.5247
10.8378,77.5328
10.8351,77.5394
10.8145,77.6498
10.8145,79.2267
10.8146,79.2338
10.8146,79.2338
10.8377,79.3436
10.8378,79.3437
10.8411,79.3518
10.8468,79.3647
10.8468,79.3647
10.9124,79.4558
10.9124,79.4558
10.9124,79.4558
11.0065,79.5171
11.0146,79.5205
11.0211,79.5231
11.1315,79.5438
11.1315,79.5438
13.9029,79.5438
13.9029,79.5438
13.9057,79.5430
13.9378,79.5387
14.2159,79.5387
14.2335,79.5400
14.2595,79.5438
14.2595,79.5438
15.4960,79.5438
15.4960,79.5438
15.5359,79.5395
15.5491,79.5387
15.6429,79.5387
15.6429,79.5387
15.7256,79.5166
15.7999,79.4737
15.8605,79.4131
15.9033,79.3389
15.9255,79.2561
15.9255,77.8389
15.9452,77.7719
15.9699,77.7438
16.2144,77.5394
21.2722,73.3092
21.3042,73.2783
21.3281,73.2514
21.3403,73.2369
21.3923,73.1375
21.4128,73.0707
21.4261,72.9847
21.5023,66.4383
29.3143,66.4383
29.3350,66.5950
29.3350,66.5950
29.3943,66.7383
29.3955,66.7411
29.4917,66.8665
29.6172,66.9628
29.7632,67.0233
29.8416,67.0336
29.9200,67.0439
29.9200,67.0439
29.9200,67.0439
29.9723,67.0371
30.0768,67.0233
30.2228,66.9628
30.3483,66.8665
30.4445,66.7411
30.5050,66.5950
30.5257,66.4382
30.5050,66.2815
30.4720,66.2016
30.4447,66.1357
30.4372,66.0662
30.4447,66.0408
30.4457,66.0383
41.0143,66.0383
41.0350,66.1950
41.0350,66.1950
41.0955,66.3411
41.1422,66.4020
41.1674,66.4672
41.1584,66.5249
41.1350,66.5815
41.1350,66.5815
41.1143,66.7382
41.1143,66.7383
41.1350,66.8950
41.1350,66.8950
41.1955,67.0411
41.2917,67.1665
41.4172,67.2628
41.5632,67.3233
41.6416,67.3336
41.7200,67.3439
41.7200,67.3439
41.7200,67.3439
41.7723,67.3371
41.8768,67.3233
42.0228,67.2628
42.1483,67.1665
42.2445,67.0411
42.3050,66.8950
42.3257,66.7382
42.3257,66.7382
42.3260,66.7358
42.3543,66.6719
42.4126,66.6335
42.4327,66.6291
42.4768,66.6233
42.6228,66.5628
42.7483,66.4665
42.8445,66.3411
42.9050,66.1950
42.9257,66.0382
42.9050,65.8815
42.8445,65.7354
42.7483,65.6100
42.6228,65.5137
42.6225,65.5136
42.4768,65.4532
42.4768,65.4532
42.3200,65.4326
42.3200,65.4326
42.1632,65.4532
42.1632,65.4532
42.0175,65.5136
41.9480,65.5211
41.9225,65.5136
41.7768,65.4532
41.7768,65.4532
41.6200,65.4326
41.6200,65.4326
41.4632,65.4532
41.4632,65.4532
41.3172,65.5137
41.1917,65.6100
41.0955,65.7354
41.0350,65.8815
41.0350,65.8815
41.0143,66.0382
41.0143,66.0383
30.4457,66.0383
30.4722,65.9743
30.5050,65.8950
30.5257,65.7382
30.5225,65.7142
30.5050,65.5815
30.5050,65.5815
30.4445,65.4354
30.3483,65.3100
30.2228,65.2137
30.0768,65.1532
30.0768,65.1532
29.9200,65.1326
29.9200,65.1326
29.7632,65.1532
29.7632,65.1532
29.6172,65.2137
29.4917,65.3100
29.3955,65.4354
29.3350,65.5815
29.3350,65.5815
29.3143,65.7382
29.3143,65.7383
29.3350,65.8950
29.3350,65.8950
29.3953,66.0408
29.4028,66.1103
29.3953,66.1357
29.3350,66.2815
29.3350,66.2815
29.3143,66.4382
29.3143,66.4383
21.5023,66.4383
21.5236,64.6046
21.5440,64.5378
21.5557,64.5228
26.0353,59.5797
27.1185,58.3845
27.1781,58.3480
27.2104,58.3438
32.3652,58.3438
32.3652,58.3438
32.4049,58.3412
32.4369,58.3370
32.4509,58.3348
32.5559,58.2951
32.6156,58.2588
32.6827,58.2035
33.2888,57.5383
35.5143,57.5383
35.5350,57.6950
35.5350,57.6950
35.5497,57.7307
35.5955,57.8411
35.6917,57.9665
35.8172,58.0628
35.9632,58.1233
36.0416,58.1336
36.1200,58.1439
36.1200,58.1439
36.1200,58.1439
36.1723,58.1371
36.2768,58.1233
36.3560,58.0905
36.4225,58.0629
36.4920,58.0554
36.5175,58.0629
36.6121,58.1021
36.6632,58.1233
36.7416,58.1336
36.8200,58.1439
36.8200,58.1439
36.8200,58.1439
36.8723,58.1371
36.9768,58.1233
37.1228,58.0628
37.2483,57.9665
37.3445,57.8411
37.4050,57.6950
37.4257,57.5382
37.4050,57.3815
37.3447,57.2357
37.3372,57.1662
37.3447,57.1408
37.3574,57.1100
37.4050,56.9950
37.4257,56.8382
37.4050,56.6815
37.3445,56.5354
37.2483,56.4100
37.1228,56.3137
36.9768,56.2532
36.9768,56.2532
36.8200,56.2326
36.8200,56.2326
36.6632,56.2532
36.6632,56.2532
36.5172,56.3137
36.3917,56.4100
36.2955,56.5354
36.2350,56.6815
36.2350,56.6815
36.2158,56.8273
36.1875,56.8912
36.1292,56.9296
36.1090,56.9340
35.9857,56.9502
35.9632,56.9532
35.9632,56.9532
35.8172,57.0137
35.6917,57.1100
35.5955,57.2354
35.5350,57.3815
35.5350,57.3815
35.5143,57.5382
35.5143,57.5383
33.2888,57.5383
36.7135,53.7795
36.7299,53.7599
36.7426,53.7434
36.7934,53.6433
36.8131,53.5763
36.8255,53.4902
36.8255,45.7904
36.8452,45.7234
36.8980,45.6776
36.9671,45.6677
37.0250,45.6921
37.1172,45.7628
37.2632,45.8233
37.3416,45.8336
37.4200,45.8439
37.4200,45.8439
37.4200,45.8439
37.4723,45.8371
37.5768,45.8233
37.7228,45.7628
37.8483,45.6665
37.8716,45.6361
37.9281,45.5949
37.9978,45.5908
38.0587,45.6250
38.0684,45.6361
38.0917,45.6665
38.2172,45.7628
38.3632,45.8233
38.4416,45.8336
38.5200,45.8439
38.5200,45.8439
38.5200,45.8439
38.5723,45.8371
38.6768,45.8233
38.8228,45.7628
38.9483,45.6665
39.0445,45.5411
39.1050,45.3950
39.1257,45.2383
39.1050,45.0815
39.0445,44.9354
38.9483,44.8100
38.8228,44.7137
38.6768,44.6532
38.6768,44.6532
38.5200,44.6326
38.5200,44.6326
38.3632,44.6532
38.3632,44.6532
38.2172,44.7137
38.2172,44.7137
38.0917,44.8100
38.0684,44.8404
38.0119,44.8816
37.9422,44.8857
37.8813,44.8515
37.8716,44.8404
37.8483,44.8100
37.7228,44.7137
37.5768,44.6532
37.5768,44.6532
37.4200,44.6326
37.4200,44.6326
37.2632,44.6532
37.2632,44.6532
37.1172,44.7137
37.0250,44.7844
36.9598,44.8096
36.8914,44.7956
36.8414,44.7468
36.8255,44.6861
36.8255,31.2617
36.8186,31.1974
36.8186,31.1974
36.8077,31.1464
36.8076,31.1463
36.7970,31.1087
36.7916,31.0995
36.7407,31.0116
36.7407,31.0116
36.7407,31.0116
36.6952,30.9586
36.6952,30.9586
36.6951,30.9586
36.6680,30.9327
36.6506,30.9162
36.5507,30.8649
36.5507,30.8649
36.4838,30.8450
36.4838,30.8450
36.3977,30.8323
36.3977,30.8323
36.3977,30.8323
30.0460,30.8065
25.8115,30.7894
25.8115,30.7894
25.8115,30.7894
25.7891,30.7901
25.7891,30.7901
25.7890,30.7901
25.7709,30.7914
25.6652,30.8183
25.6017,30.8473
25.5486,30.8783
25.5486,30.8783
25.4716,30.9600
25.4716,30.9600
25.4324,31.0210
25.3796,31.0667
25.3274,31.0779
20.2334,31.0505
20.1665,31.0304
20.1268,30.9886
20.1011,30.9442
20.1011,30.9442
20.0556,30.8912
20.0556,30.8912
20.0555,30.8912
20.0346,30.8713
20.0110,30.8489
19.9111,30.7976
19.9111,30.7976
19.8442,30.7776
19.8441,30.7776
19.7581,30.7649
19.7581,30.7649
19.7581,30.7649
18.1201,30.7583
18.1201,30.7583
18.1201,30.7583
18.0553,30.7649
18.0553,30.7649
18.0039,30.7759
18.0039,30.7759
17.9658,30.7866
17.8686,30.8428
17.8686,30.8428
17.8155,30.8882
17.7731,30.9327
17.7731,30.9328
17.7217,31.0326
17.7217,31.0326
17.7017,31.0995
17.7017,31.0995
17.7003,31.1087
17.6889,31.1855
17.6658,35.5980
17.6457,35.6649
17.6067,35.7030
15.1438,37.2168
15.1438,37.2168
15.0904,37.2585
15.0512,37.2968
15.0512,37.2968
15.0231,37.3283
14.9719,37.4282
14.9719,37.4282
14.9519,37.4952
14.9519,37.4952
14.9393,37.5812
14.9393,37.5812
14.9237,42.0258
14.9037,42.0928
14.8508,42.1383
14.7835,42.1483
14.7400,42.1426
14.7400,42.1426
14.5832,42.1632
14.5832,42.1632
14.4372,42.2237
14.3117,42.3200
14.2155,42.4454
14.1550,42.5915
14.1550,42.5915
14.1343,42.7482
14.1343,42.7483
14.1550,42.9050
14.1550,42.9050
14.2155,43.0511
14.3117,43.1765
14.4372,43.2728
14.5832,43.3333
14.6616,43.3436
14.7400,43.3539
14.7400,43.3539
14.7784,43.3489
14.8474,43.3596
14.8997,43.4060
14.9186,43.4722
14.9167,44.0092
14.8968,44.0762
14.8438,44.1217
14.7927,44.1328
6.1284,44.1328
6.0613,44.1131
6.0156,44.0603
6.0056,43.9911
6.0308,43.9323
6.0360,43.9256
6.0360,43.9255
7.5542,41.8176
7.5688,41.8007
9.9200,39.5382
9.9367,37.6722
9.9569,37.6054
10.0102,37.5601
10.0794,37.5508
10.1090,37.5612
10.1097,37.5597
10.1172,37.5628
10.1172,37.5628
10.2632,37.6233
10.3416,37.6336
10.4200,37.6439
10.4200,37.6439
10.4200,37.6439
10.4723,37.6371
10.5768,37.6233
10.7228,37.5628
10.8483,37.4665
10.9445,37.3411
11.0050,37.1950
11.0257,37.0382
11.0050,36.8815
10.9445,36.7354
10.8483,36.6100
10.7228,36.5137
10.7205,36.5127
10.5768,36.4532
10.5768,36.4532
10.4200,36.4326
10.4200,36.4326
10.2632,36.4532
10.2632,36.4532
10.1195,36.5127
10.0500,36.5202
9.9875,36.4889
9.9519,36.4289
9.9480,36.3971
9.9673,34.2383
14.8143,34.2383
14.8350,34.3950
14.8350,34.3950
14.8955,34.5411
14.8955,34.5411
14.9163,34.5682
14.9318,34.5946
14.9319,34.5949
14.9885,34.6918
14.9886,34.6918
15.0343,34.7446
15.0343,34.7446
15.0790,34.7868
15.0790,34.7868
15.0790,34.7868
15.1791,34.8377
15.2462,34.8573
15.3322,34.8697
15.4007,34.8697
15.4356,34.8747
15.4426,34.8768
15.4427,34.8768
15.4428,34.8768
15.4428,34.8768
15.4448,34.8774
15.4447,34.8779
15.5041,34.9103
15.5376,34.9716
15.5392,34.9804
15.5516,35.0670
15.5570,35.0949
15.5572,35.0955
15.5600,35.1063
15.5654,35.1311
15.5655,35.1312
15.5655,35.1312
15.5764,35.1694
15.6120,35.2303
15.6331,35.2663
15.6331,35.2663
15.6788,35.3191
15.6789,35.3191
15.7236,35.3613
15.7236,35.3613
15.7236,35.3613
15.8237,35.4121
15.8429,35.4178
15.8460,35.4187
15.8866,35.4393
15.9172,35.4628
15.9172,35.4628
15.9172,35.4628
16.0632,35.5233
16.1416,35.5336
16.2200,35.5439
16.2200,35.5439
16.2200,35.5439
16.2723,35.5371
16.3768,35.5233
16.5228,35.4628
16.6483,35.3665
16.7445,35.2411
16.8050,35.0950
16.8257,34.9382
16.8050,34.7815
16.7953,34.7579
16.7858,34.7121
16.7827,34.4753
16.7921,34.4262
16.8050,34.3950
16.8257,34.2383
16.8050,34.0815
16.7856,34.0346
16.7762,33.9888
16.7736,33.7972
16.7831,33.7481
16.8050,33.6950
16.8257,33.5382
16.8050,33.3815
16.7445,33.2354
16.7318,33.2188
16.7232,33.2059
16.6823,33.1361
16.6823,33.1361
16.6366,33.0833
16.6366,33.0833
16.5918,33.0412
16.5918,33.0412
16.5918,33.0412
16.4918,32.9903
16.4918,32.9903
16.4918,32.9903
16.4247,32.9706
16.4247,32.9706
16.4247,32.9706
16.4247,32.9706
16.4229,32.9702
16.4018,32.9636
16.3768,32.9532
16.3768,32.9532
16.2200,32.9326
16.2200,32.9326
16.0632,32.9532
16.0604,32.9540
16.0283,32.9582
15.6117,32.9582
15.5796,32.9540
15.5768,32.9532
15.4200,32.9326
15.4200,32.9326
15.2632,32.9532
15.2281,32.9677
15.2082,32.9741
15.1910,32.9780
15.1910,32.9780
15.1910,32.9780
15.1502,32.9903
15.1502,32.9903
15.1502,32.9903
15.0544,33.0488
15.0024,33.0956
15.0024,33.0956
14.9611,33.1411
14.9550,33.1536
14.9418,33.1750
14.8955,33.2354
14.8350,33.3815
14.8350,33.3815
14.8143,33.5382
14.8143,33.5383
14.8350,33.6950
14.8350,33.6950
14.8822,33.8090
14.8916,33.8541
14.8927,33.9149
14.8833,33.9647
14.8350,34.0815
14.8143,34.2382
14.8143,34.2383
9.9673,34.2383
9.9868,32.0583
15.1243,32.0583
15.1450,32.2150
15.1450,32.2150
15.2055,32.3611
15.3017,32.4865
15.4272,32.5828
15.5732,32.6433
15.6516,32.6536
15.7300,32.6639
15.7300,32.6639
15.7300,32.6639
15.7823,32.6571
15.8868,32.6433
16.0328,32.5828
16.1583,32.4865
16.2545,32.3611
16.3150,32.2150
16.3357,32.0583
16.3150,31.9015
16.2545,31.7554
16.1583,31.6300
16.0328,31.5337
15.8868,31.4732
15.8868,31.4732
15.7300,31.4526
15.7300,31.4526
15.5732,31.4732
15.5732,31.4732
15.4272,31.5337
15.3017,31.6300
15.2055,31.7554
15.1450,31.9015
15.1450,31.9015
15.1243,32.0582
15.1243,32.0583
9.9868,32.0583
10.0200,28.3382
9.8959,28.1866
9.5237,27.7316
9.4964,27.6673
9.5077,27.5997
9.5643,27.4811
9.6010,27.3751
9.6130,27.3217
9.6255,27.2102
9.6255,24.6302
9.6139,24.5228
9.6027,24.4713
9.6014,24.4672
9.5686,24.3687
9.5686,24.3687
9.4908,24.2477
9.4908,24.2477
9.4908,24.2477
9.4451,24.1949
9.3363,24.1007
9.2055,24.0409
9.2055,24.0409
9.2055,24.0409
9.2013,24.0394
9.2020,24.0374
9.1503,24.0042
9.1213,23.9406
9.1200,23.9230
9.1200,23.0733
33.6370,23.0733
33.6569,23.3390
33.6569,23.3390
33.7162,23.5988
33.7162,23.5988
33.7162,23.5988
33.8136,23.8469
33.9468,24.0776
34.1130,24.2860
34.3083,24.4672
34.5285,24.6174
34.7686,24.7330
35.0232,24.8115
35.0232,24.8115
35.0233,24.8115
35.2867,24.8512
35.2868,24.8512
35.2868,24.8513
35.2868,24.8513
35.5532,24.8513
35.5532,24.8513
35.5532,24.8512
35.8167,24.8115
35.8167,24.8115
35.8168,24.8115
36.0714,24.7330
36.3115,24.6174
36.5317,24.4672
36.7270,24.2860
36.8932,24.0776
37.0264,23.8469
37.1238,23.5988
37.1831,23.3390
37.2030,23.0732
37.1831,22.8075
37.1238,22.5477
37.0264,22.2996
36.8932,22.0689
36.7270,21.8605
36.5317,21.6793
36.3115,21.5291
36.0714,21.4135
35.9112,21.3641
35.8168,21.3350
35.8167,21.3350
35.5532,21.2952
35.5532,21.2952
35.2868,21.2952
35.2867,21.2952
35.0233,21.3350
35.0232,21.3350
34.7686,21.4135
34.5285,21.5291
34.5285,21.5291
34.3083,21.6793
34.1130,21.8605
34.1130,21.8605
33.9468,22.0689
33.8136,22.2996
33.7162,22.5477
33.7162,22.5477
33.6569,22.8075
33.6569,22.8075
33.6370,23.0732
33.6370,23.0733
9.1200,23.0733
9.1200,21.1340
9.1397,21.0670
9.1925,21.0213
9.2048,21.0164
9.2575,20.9989
9.3785,20.9211
9.4225,20.8830
9.4860,20.8540
9.5033,20.8527
49.4502,20.7454
Z" /> 
<path style="fill:#CE7D2C; fill-opacity:1.0000; stroke:none;fill-rule:evenodd;"
d="M 7.0725,57.3526
7.0759,57.3607
7.0758,57.3624
7.0649,57.4382
7.0833,57.5665
7.1371,57.6843
7.1371,57.6843
7.2219,57.7822
7.2220,57.7822
7.3309,57.8523
7.4036,57.8736
7.4552,57.8887
7.4552,57.8887
7.5848,57.8887
7.7091,57.8523
7.8180,57.7822
7.8613,57.7323
7.8692,57.7284
7.8775,57.7311
7.8787,57.7323
7.9220,57.7822
8.0309,57.8523
8.1200,57.8784
8.1200,58.1382
7.0200,58.1382
7.0200,57.3492
7.0644,57.3492
Z" /> 
<path style="fill:#CE7D2C; fill-opacity:1.0000; stroke:none;fill-rule:evenodd;"
d="M 11.8702,77.6416
11.8856,77.6570
11.9501,77.6838
12.0199,77.6838
13.3430,77.6838
13.3511,77.6871
13.3545,77.6953
13.3545,77.8866
13.3511,77.8947
13.3474,77.8972
13.2781,77.9259
13.2076,77.9964
13.1695,78.0884
13.1695,78.1881
13.1695,78.1881
13.1695,78.1881
13.2076,78.2801
13.2781,78.3506
13.3474,78.3793
13.3536,78.3855
13.3545,78.3899
13.3545,79.2267
13.3511,79.2349
13.3430,79.2382
11.1315,79.2382
11.1234,79.2349
11.1200,79.2267
11.1200,77.6497
11.1234,77.6416
11.1315,77.6382
11.8620,77.6382
Z" /> 
<path style="fill:#CE7D2C; fill-opacity:1.0000; stroke:none;fill-rule:evenodd;"
d="M 7.9672,56.7922
7.9695,56.7991
7.9695,56.8957
7.9661,56.9039
7.9580,56.9072
7.9360,56.9072
7.9278,56.9039
7.9245,56.8957
7.9255,56.8910
7.9367,56.8665
7.9466,56.7975
7.9511,56.7899
7.9596,56.7877
Z" /> 
<path style="fill:#CE7D2C; fill-opacity:1.0000; stroke:none;fill-rule:evenodd;"
d="M 9.6200,56.2827
9.6200,56.8957
9.6166,56.9039
9.6085,56.9072
8.4820,56.9072
8.4739,56.9039
8.4705,56.8957
8.4705,56.6884
8.4693,56.6855
8.4324,56.5964
8.3619,56.5259
8.2698,56.4877
8.1702,56.4877
8.0781,56.5259
8.0781,56.5259
8.0076,56.5964
8.0076,56.5964
8.0076,56.5964
8.0020,56.6100
7.9696,56.6883
7.9633,56.6945
7.9545,56.6945
7.9483,56.6883
7.9476,56.6855
7.9367,56.6100
7.9367,56.6100
7.8829,56.4922
7.8829,56.4922
7.7980,56.3943
7.7980,56.3943
7.6891,56.3242
7.5648,56.2877
7.5648,56.2877
7.4352,56.2877
7.4352,56.2877
7.3109,56.3242
7.2020,56.3943
7.2020,56.3943
7.1200,56.4889
7.1200,55.8382
9.6200,55.8382
Z" /> 
<path style="fill:#CE7D2C; fill-opacity:1.0000; stroke:none;fill-rule:evenodd;"
d="M 19.7569,31.0704
19.8239,31.0903
19.8694,31.1433
19.8791,31.2125
19.8498,31.2760
19.8376,31.2881
19.8087,31.3132
19.7144,31.4219
19.7144,31.4219
19.6547,31.5528
19.6350,31.6198
19.6299,31.6548
19.6145,31.7622
19.6145,35.2142
19.6145,35.2143
19.6261,35.3217
19.6261,35.3217
19.6373,35.3732
19.6714,35.4757
19.6714,35.4758
19.7004,35.5209
19.7201,35.5880
19.7089,35.6395
19.6547,35.7583
19.6350,35.8253
19.6299,35.8603
19.6145,35.9677
19.6145,38.8143
19.6145,38.8143
19.6261,38.9217
19.6261,38.9217
19.6373,38.9732
19.6714,39.0757
19.6714,39.0758
19.7492,39.1968
19.7492,39.1968
19.7949,39.2496
19.7949,39.2496
19.7949,39.2496
19.9037,39.3438
19.9037,39.3438
19.9037,39.3438
19.9979,39.3869
20.0345,39.4036
20.1016,39.4233
20.1016,39.4233
20.2440,39.4438
20.2440,39.4438
25.2960,39.4438
25.2960,39.4438
25.4035,39.4322
25.4550,39.4210
25.4892,39.4096
25.5575,39.3869
25.5575,39.3869
25.5575,39.3869
25.6785,39.3091
25.7313,39.2633
25.8256,39.1546
25.8853,39.0237
25.9050,38.9567
25.9050,38.9567
25.9255,38.8143
25.9255,35.9677
25.9139,35.8603
25.9027,35.8088
25.9026,35.8085
25.8686,35.7063
25.8686,35.7062
25.8686,35.7062
25.8396,35.6610
25.8199,35.5940
25.8311,35.5425
25.8853,35.4237
25.9050,35.3567
25.9050,35.3567
25.9255,35.2142
25.9255,31.7622
25.9139,31.6548
25.9027,31.6033
25.8941,31.5774
25.8686,31.5008
25.8686,31.5007
25.7908,31.3797
25.7908,31.3797
25.7908,31.3797
25.7451,31.3269
25.7451,31.3269
25.7451,31.3269
25.7286,31.3126
25.6908,31.2538
25.6908,31.1840
25.7286,31.1252
25.7921,31.0962
25.8103,31.0949
36.3965,31.1377
36.4635,31.1577
36.5090,31.2107
36.5200,31.2617
36.5200,53.4902
36.5003,53.5573
36.4877,53.5737
32.4569,57.9978
32.3972,58.0341
32.3652,58.0382
27.0200,58.0382
21.2200,64.4382
21.1207,72.9812
21.1002,73.0480
21.0762,73.0749
15.6200,77.6382
15.6200,79.1142
15.6003,79.1813
15.5475,79.2270
15.4960,79.2382
14.2595,79.2382
14.1925,79.2186
14.1467,79.1658
14.1355,79.1142
14.1355,77.1735
14.1355,77.1735
14.0936,77.0722
14.0161,76.9947
13.9148,76.9527
12.0804,76.9527
12.0133,76.9331
11.9676,76.8803
11.9576,76.8111
11.9867,76.7475
12.0029,76.7319
16.6200,73.0382
16.6200,72.8227
16.6397,72.7556
16.6503,72.7415
16.7256,72.6546
16.7853,72.5237
16.8050,72.4567
16.8050,72.4567
16.8255,72.3143
16.8255,66.5622
16.8139,66.4548
16.8027,66.4033
16.8026,66.4030
16.7686,66.3008
16.7686,66.3007
16.7096,66.2090
16.6900,66.1419
16.7096,66.0749
16.7202,66.0607
16.7256,66.0546
16.7853,65.9237
16.8050,65.8567
16.8050,65.8567
16.8255,65.7142
16.8255,63.6841
16.8452,63.6171
16.8618,63.5964
22.2200,58.2383
21.9761,58.2383
21.9090,58.2186
21.8633,58.1658
21.8533,58.0966
21.8563,58.0822
21.8563,58.0820
21.8563,58.0820
21.8563,58.0820
21.8752,57.9382
21.8563,57.7945
21.8009,57.6606
21.7126,57.5456
21.5976,57.4574
21.5976,57.4574
21.5976,57.4574
21.4637,57.4019
21.4637,57.4019
21.4637,57.4019
21.3919,57.3925
21.3200,57.3830
21.3200,57.3830
21.1763,57.4019
21.1763,57.4019
21.0424,57.4574
20.9274,57.5456
20.8391,57.6606
20.7837,57.7945
20.7837,57.7945
20.7673,57.9191
20.7647,57.9382
20.7779,58.0382
20.7837,58.0820
20.7837,58.0822
20.7837,58.0823
20.7847,58.0900
20.7835,58.0902
20.7821,58.1520
20.7429,58.2099
20.6787,58.2374
20.6639,58.2383
8.9528,58.2383
8.9222,58.2293
8.9063,58.2368
8.8872,58.2383
8.2528,58.2383
8.2222,58.2293
8.2063,58.2368
8.1872,58.2383
7.5528,58.2383
7.5222,58.2293
7.5063,58.2368
7.4872,58.2383
5.9440,58.2383
5.8770,58.2186
5.8312,58.1658
5.8200,58.1142
5.8200,57.5732
5.8397,57.5062
5.8925,57.4605
5.9440,57.4492
6.8575,57.4492
6.9245,57.4689
6.9702,57.5217
6.9804,57.5571
6.9837,57.5820
6.9837,57.5820
7.0200,57.6697
7.0200,58.1382
8.1200,58.1382
8.1200,57.9803
8.2001,57.9909
8.2034,57.9913
8.2156,57.9967
8.2179,57.9953
8.2366,57.9913
8.2396,57.9909
8.3637,57.9746
8.4976,57.9191
8.4976,57.9191
8.5047,57.9150
8.5059,57.9171
8.5597,57.8963
8.6281,57.9103
8.6364,57.9157
8.6424,57.9191
8.6424,57.9191
8.7763,57.9746
8.9001,57.9909
8.9034,57.9913
8.9156,57.9967
8.9179,57.9953
8.9366,57.9913
8.9396,57.9909
9.0637,57.9746
9.1976,57.9191
9.3126,57.8309
9.4009,57.7159
9.4563,57.5820
9.4596,57.5571
9.4879,57.4932
9.5462,57.4547
9.5825,57.4492
9.6799,57.4492
9.6799,57.4492
9.7722,57.4110
9.7722,57.4110
9.7722,57.4110
9.8428,57.3404
9.8428,57.3404
9.8428,57.3404
9.8810,57.2482
9.8810,56.7743
9.9007,56.7073
9.9270,56.6780
9.9908,56.6262
10.3132,56.2782
11.0648,56.2782
11.0837,56.4220
11.0837,56.4220
11.1391,56.5559
11.1391,56.5559
11.1391,56.5559
11.2274,56.6709
11.3424,56.7591
11.4763,56.8146
11.6033,56.8313
11.6200,56.8335
11.6200,56.8335
11.6200,56.8335
11.6350,56.8315
11.7637,56.8146
11.8976,56.7591
12.0126,56.6709
12.1009,56.5559
12.1563,56.4220
12.1674,56.3382
13.5648,56.3382
13.5837,56.4820
13.5837,56.4820
13.6391,56.6159
13.6391,56.6159
13.6391,56.6159
13.7274,56.7309
13.8424,56.8191
13.9763,56.8746
14.1033,56.8913
14.1200,56.8935
14.1200,56.8935
14.1200,56.8935
14.1350,56.8915
14.2637,56.8746
14.3976,56.8191
14.5126,56.7309
14.6009,56.6159
14.6563,56.4820
14.6753,56.3382
14.6563,56.1945
14.6009,56.0606
14.5126,55.9456
14.3976,55.8574
14.3976,55.8574
14.3976,55.8574
14.2637,55.8019
14.2637,55.8019
14.2637,55.8019
14.1919,55.7925
14.1200,55.7830
14.1200,55.7830
13.9763,55.8019
13.9763,55.8019
13.8424,55.8574
13.7274,55.9456
13.6391,56.0606
13.5837,56.1945
13.5837,56.1945
13.5648,56.3382
13.5648,56.3382
12.1674,56.3382
12.1753,56.2782
12.1563,56.1345
12.1009,56.0006
12.0126,55.8856
11.8976,55.7974
11.8976,55.7974
11.8976,55.7974
11.7637,55.7419
11.7637,55.7419
11.7637,55.7419
11.6919,55.7325
11.6200,55.7230
11.6200,55.7230
11.4763,55.7419
11.4763,55.7419
11.3424,55.7974
11.2274,55.8856
11.1391,56.0006
11.0837,56.1345
11.0837,56.1345
11.0648,56.2782
11.0648,56.2782
10.3132,56.2782
15.5578,50.6175
15.5866,50.5835
15.5999,50.5663
15.6256,50.5300
15.6853,50.3991
15.7050,50.3321
15.7050,50.3321
15.7255,50.1896
15.7255,49.6785
17.2837,49.6785
17.2879,49.7106
17.3026,49.8222
17.3026,49.8222
17.3581,49.9561
17.3581,49.9561
17.3581,49.9561
17.4463,50.0711
17.5613,50.1593
17.6952,50.2148
17.8222,50.2315
17.8390,50.2337
17.8390,50.2337
17.8390,50.2337
17.8539,50.2317
17.9827,50.2148
18.1166,50.1593
18.2316,50.0711
18.2951,49.9883
24.2547,49.9883
24.2737,50.1320
24.2737,50.1320
24.3291,50.2659
24.3291,50.2659
24.3291,50.2659
24.4174,50.3809
24.5324,50.4691
24.6663,50.5246
24.7933,50.5413
24.8100,50.5435
24.8100,50.5435
24.8100,50.5435
24.8250,50.5415
24.9537,50.5246
25.0876,50.4691
25.2026,50.3809
25.2909,50.2659
25.3463,50.1320
25.3652,49.9883
25.3463,49.8445
25.2909,49.7106
25.2026,49.5956
25.0876,49.5074
25.0876,49.5074
25.0876,49.5074
24.9537,49.4519
24.9537,49.4519
24.9537,49.4519
24.8819,49.4425
24.8100,49.4330
24.8100,49.4330
24.6663,49.4519
24.6663,49.4519
24.5324,49.5074
24.4174,49.5956
24.3291,49.7106
24.2737,49.8445
24.2737,49.8445
24.2547,49.9882
24.2547,49.9883
18.2951,49.9883
18.3198,49.9561
18.3753,49.8222
18.3942,49.6785
18.3753,49.5348
18.3198,49.4008
18.2316,49.2858
18.1166,49.1976
18.1166,49.1976
18.1166,49.1976
17.9827,49.1421
17.9827,49.1421
17.9827,49.1421
17.9108,49.1327
17.8390,49.1232
17.8390,49.1232
17.6952,49.1421
17.6952,49.1421
17.5613,49.1976
17.4463,49.2858
17.3581,49.4008
17.3026,49.5348
17.3026,49.5348
17.2837,49.6785
15.7255,49.6785
15.7255,46.1738
19.7047,46.1738
19.7048,46.1738
19.7158,46.2802
19.7158,46.2802
19.7267,46.3312
19.7267,46.3312
19.7599,46.4328
19.7599,46.4328
19.8369,46.5544
19.8823,46.6075
19.9905,46.7024
20.1209,46.7630
20.1878,46.7831
20.3301,46.8045
26.1919,46.8429
26.3010,46.8317
26.3533,46.8205
26.4575,46.7860
26.5785,46.7083
26.6313,46.6625
26.7256,46.5538
26.7853,46.4229
26.8050,46.3559
26.8050,46.3559
26.8255,46.2134
26.8255,41.4622
26.8139,41.3548
26.8027,41.3033
26.8026,41.3030
26.7686,41.2008
26.7686,41.2007
26.6908,41.0797
26.6908,41.0797
26.6908,41.0797
26.6451,41.0269
26.6451,41.0269
26.6451,41.0269
26.5363,40.9327
26.5363,40.9327
26.5363,40.9327
26.4055,40.8729
26.4055,40.8729
26.4055,40.8729
26.3455,40.8553
26.3384,40.8532
26.2756,40.8442
26.1960,40.8327
20.3438,40.8327
20.3437,40.8327
20.2368,40.8442
20.2368,40.8442
20.2368,40.8442
20.2368,40.8442
20.1855,40.8553
20.1855,40.8553
20.1855,40.8553
20.1855,40.8553
20.0834,40.8891
20.0834,40.8891
19.9622,40.9666
19.9622,40.9667
19.9093,41.0123
19.8149,41.1208
19.7548,41.2516
19.7381,41.3080
19.7356,41.3144
19.7143,41.4610
19.7143,41.4610
19.7047,46.1738
15.7255,46.1738
15.7255,44.7622
15.7139,44.6548
15.7027,44.6033
15.7026,44.6030
15.6686,44.5008
15.6686,44.5007
15.5908,44.3797
15.5908,44.3797
15.5908,44.3797
15.5451,44.3269
15.5451,44.3269
15.5451,44.3269
15.4363,44.2327
15.4363,44.2327
15.4363,44.2327
15.3055,44.1729
15.3027,44.1719
15.3019,44.1713
15.3014,44.1711
15.3015,44.1710
15.2468,44.1300
15.2224,44.0646
15.2220,44.0553
15.2256,43.0386
15.2350,42.9916
15.2763,42.8920
15.2952,42.7482
15.2763,42.6045
15.2371,42.5098
15.2276,42.4619
15.2448,37.5823
15.2647,37.5153
15.3038,37.4771
17.9700,35.8382
17.9944,31.1871
18.0144,31.1202
18.0674,31.0747
18.1188,31.0638
Z" /> 
<path style="fill:#CE7D2C; fill-opacity:1.0000; stroke:none;fill-rule:evenodd;"
d="M 15.1630,44.6579
15.2088,44.7107
15.2200,44.7622
15.2200,50.1896
15.2003,50.2567
15.1870,50.2739
9.6200,56.2827
9.6200,55.8382
7.1200,55.8382
7.1200,56.0316
6.9977,56.1084
6.8702,56.2360
6.7742,56.3887
6.7443,56.4742
6.7036,56.5310
6.6386,56.5567
6.6273,56.5572
5.2440,56.5572
5.1166,56.5914
5.0024,56.6573
5.0024,56.6574
4.9091,56.7506
4.9091,56.7506
4.8391,56.8719
4.8371,56.8708
4.8006,56.9161
4.7343,56.9382
4.7299,56.9382
4.5440,56.9382
4.4770,56.9186
4.4312,56.8658
4.4200,56.8142
4.4200,52.3883
5.4844,52.3883
5.5046,52.5675
5.5046,52.5675
5.5642,52.7378
5.6023,52.7984
5.6602,52.8905
5.7877,53.0181
5.9405,53.1140
6.1107,53.1736
6.1107,53.1736
6.2900,53.1938
6.2900,53.1938
6.2900,53.1938
6.4692,53.1736
6.4693,53.1736
6.4693,53.1736
6.6395,53.1140
6.7923,53.0181
6.9198,52.8905
7.0158,52.7378
7.0754,52.5675
7.0956,52.3882
7.0754,52.2090
7.0158,52.0387
6.9198,51.8860
6.7923,51.7584
6.6395,51.6625
6.4693,51.6029
6.4692,51.6029
6.2900,51.5827
6.2900,51.5827
6.1107,51.6029
6.1107,51.6029
5.9405,51.6625
5.7877,51.7584
5.6602,51.8860
5.5642,52.0387
5.5046,52.2090
5.5046,52.2090
5.4844,52.3882
5.4844,52.3883
4.4200,52.3883
4.4200,51.8796
4.4397,51.8125
4.4448,51.8052
4.4799,51.7584
4.7200,51.4382
4.6218,44.7641
4.6405,44.6968
4.6927,44.6502
4.7458,44.6382
15.0960,44.6382
Z" /> 
</g>
<g style="fill:#FFFFFF; fill-opacity:1.0000; stroke:none;">
<circle cx="2.4240" cy="39.2142" r="0.1500" /> 
</g>
<g style="fill:#FFFFFF; fill-opacity:1.0000; stroke:none;">
<circle cx="25.8910" cy="93.7313" r="0.1500" /> 
</g>
<g style="fill:#FFFFFF; fill-opacity:1.0000; stroke:none;">
<circle cx="56.3990" cy="59.8332" r="0.1500" /> 
</g>
<g style="fill:#FFFFFF; fill-opacity:1.0000; stroke:none;">
<circle cx="2.4240" cy="69.2142" r="0.1500" /> 
</g>
<g style="fill:#FFFFFF; fill-opacity:1.0000; stroke:none;">
<circle cx="29.4200" cy="18.2383" r="0.1500" /> 
</g>
<g style="fill:#FFFFFF; fill-opacity:1.0000; stroke:none;">
<circle cx="41.4200" cy="18.2383" r="0.1500" /> 
</g>
<g style="fill:#FFFFFF; fill-opacity:1.0000; stroke:none;">
<circle cx="56.3990" cy="62.8332" r="0.1500" /> 
</g>
<g style="fill:#FFFFFF; fill-opacity:1.0000; stroke:none;">
<circle cx="2.4240" cy="90.0482" r="0.1500" /> 
</g>
<g style="fill:#FFFFFF; fill-opacity:1.0000; stroke:none;">
<circle cx="56.2720" cy="91.4453" r="0.1500" /> 
</g>
<g style="fill:#FFFFFF; fill-opacity:1.0000; stroke:none;">
<circle cx="7.8910" cy="93.7313" r="0.1500" /> 
</g>
<g style="fill:#FFFFFF; fill-opacity:1.0000; stroke:none;">
<circle cx="56.3990" cy="26.8332" r="0.1500" /> 
</g>
<g style="fill:#FFFFFF; fill-opacity:1.0000; stroke:none;">
<circle cx="56.2720" cy="85.9052" r="0.1500" /> 
</g>
<g style="fill:#FFFFFF; fill-opacity:1.0000; stroke:none;">
<circle cx="47.4200" cy="18.2383" r="0.1500" /> 
</g>
<g style="fill:#FFFFFF; fill-opacity:1.0000; stroke:none;">
<circle cx="28.8910" cy="93.7313" r="0.1500" /> 
</g>
<g style="fill:#FFFFFF; fill-opacity:1.0000; stroke:none;">
<circle cx="56.3990" cy="41.8332" r="0.1500" /> 
</g>
<g style="fill:#FFFFFF; fill-opacity:1.0000; stroke:none;">
<circle cx="56.2720" cy="82.9052" r="0.1500" /> 
</g>
<g style="fill:#FFFFFF; fill-opacity:1.0000; stroke:none;">
<circle cx="11.4200" cy="18.2383" r="0.1500" /> 
</g>
<g style="fill:#FFFFFF; fill-opacity:1.0000; stroke:none;">
<circle cx="8.4200" cy="18.2383" r="0.1500" /> 
</g>
<g style="fill:#FFFFFF; fill-opacity:1.0000; stroke:none;">
<circle cx="4.8910" cy="93.7313" r="0.1500" /> 
</g>
<g style="fill:#FFFFFF; fill-opacity:1.0000; stroke:none;">
<circle cx="2.4240" cy="42.2142" r="0.1500" /> 
</g>
<g style="fill:#FFFFFF; fill-opacity:1.0000; stroke:none;">
<circle cx="56.2720" cy="93.7313" r="0.1500" /> 
</g>
<g style="fill:#FFFFFF; fill-opacity:1.0000; stroke:none;">
<circle cx="19.8910" cy="93.7313" r="0.1500" /> 
</g>
<g style="fill:#FFFFFF; fill-opacity:1.0000; stroke:none;">
<circle cx="49.8910" cy="93.7313" r="0.1500" /> 
</g>
<g style="fill:#FFFFFF; fill-opacity:1.0000; stroke:none;">
<circle cx="2.4240" cy="21.2142" r="0.1500" /> 
</g>
<g style="fill:#FFFFFF; fill-opacity:1.0000; stroke:none;">
<circle cx="2.4200" cy="18.2383" r="0.1500" /> 
</g>
<g style="fill:#FFFFFF; fill-opacity:1.0000; stroke:none;">
<circle cx="22.8910" cy="93.7313" r="0.1500" /> 
</g>
<g style="fill:#FFFFFF; fill-opacity:1.0000; stroke:none;">
<circle cx="2.4240" cy="84.0482" r="0.1500" /> 
</g>
<g style="fill:#FFFFFF; fill-opacity:1.0000; stroke:none;">
<circle cx="26.4200" cy="18.2383" r="0.1500" /> 
</g>
<g style="fill:#FFFFFF; fill-opacity:1.0000; stroke:none;">
<circle cx="2.4240" cy="45.2142" r="0.1500" /> 
</g>
<g style="fill:#FFFFFF; fill-opacity:1.0000; stroke:none;">
<circle cx="31.8910" cy="93.7313" r="0.1500" /> 
</g>
<g style="fill:#FFFFFF; fill-opacity:1.0000; stroke:none;">
<circle cx="40.8910" cy="93.7313" r="0.1500" /> 
</g>
<g style="fill:#FFFFFF; fill-opacity:1.0000; stroke:none;">
<circle cx="2.4240" cy="48.2142" r="0.1500" /> 
</g>
<g style="fill:#FFFFFF; fill-opacity:1.0000; stroke:none;">
<circle cx="2.4240" cy="24.2142" r="0.1500" /> 
</g>
<g style="fill:#FFFFFF; fill-opacity:1.0000; stroke:none;">
<circle cx="43.8910" cy="93.7313" r="0.1500" /> 
</g>
<g style="fill:#FFFFFF; fill-opacity:1.0000; stroke:none;">
<circle cx="38.4200" cy="18.2383" r="0.1500" /> 
</g>
<g style="fill:#FFFFFF; fill-opacity:1.0000; stroke:none;">
<circle cx="46.8910" cy="93.7313" r="0.1500" /> 
</g>
<g style="fill:#FFFFFF; fill-opacity:1.0000; stroke:none;">
<circle cx="37.8910" cy="93.7313" r="0.1500" /> 
</g>
<g style="fill:#FFFFFF; fill-opacity:1.0000; stroke:none;">
<circle cx="56.4200" cy="18.2383" r="0.1500" /> 
</g>
<g style="fill:#FFFFFF; fill-opacity:1.0000; stroke:none;">
<circle cx="2.4240" cy="66.2142" r="0.1500" /> 
</g>
<g style="fill:#FFFFFF; fill-opacity:1.0000; stroke:none;">
<circle cx="2.4240" cy="63.2142" r="0.1500" /> 
</g>
<g style="fill:#FFFFFF; fill-opacity:1.0000; stroke:none;">
<circle cx="56.3990" cy="56.8332" r="0.1500" /> 
</g>
<g style="fill:#FFFFFF; fill-opacity:1.0000; stroke:none;">
<circle cx="2.4240" cy="27.2142" r="0.1500" /> 
</g>
<g style="fill:#FFFFFF; fill-opacity:1.0000; stroke:none;">
<circle cx="56.3990" cy="53.8332" r="0.1500" /> 
</g>
<g style="fill:#FFFFFF; fill-opacity:1.0000; stroke:none;">
<circle cx="56.3990" cy="50.8332" r="0.1500" /> 
</g>
<g style="fill:#FFFFFF; fill-opacity:1.0000; stroke:none;">
<circle cx="44.4200" cy="18.2383" r="0.1500" /> 
</g>
<g style="fill:#FFFFFF; fill-opacity:1.0000; stroke:none;">
<circle cx="32.4200" cy="18.2383" r="0.1500" /> 
</g>
<g style="fill:#FFFFFF; fill-opacity:1.0000; stroke:none;">
<circle cx="2.4240" cy="54.2142" r="0.1500" /> 
</g>
<g style="fill:#FFFFFF; fill-opacity:1.0000; stroke:none;">
<circle cx="56.3990" cy="47.8332" r="0.1500" /> 
</g>
<g style="fill:#FFFFFF; fill-opacity:1.0000; stroke:none;">
<circle cx="23.4200" cy="18.2383" r="0.1500" /> 
</g>
<g style="fill:#FFFFFF; fill-opacity:1.0000; stroke:none;">
<circle cx="53.4200" cy="18.2383" r="0.1500" /> 
</g>
<g style="fill:#FFFFFF; fill-opacity:1.0000; stroke:none;">
<circle cx="50.4200" cy="18.2383" r="0.1500" /> 
</g>
<g style="fill:#FFFFFF; fill-opacity:1.0000; stroke:none;">
<circle cx="56.3990" cy="68.8332" r="0.1500" /> 
</g>
<g style="fill:#FFFFFF; fill-opacity:1.0000; stroke:none;">
<circle cx="56.3990" cy="74.8332" r="0.1500" /> 
</g>
<g style="fill:#FFFFFF; fill-opacity:1.0000; stroke:none;">
<circle cx="13.8910" cy="93.7313" r="0.1500" /> 
</g>
<g style="fill:#FFFFFF; fill-opacity:1.0000; stroke:none;">
<circle cx="56.3990" cy="23.8332" r="0.1500" /> 
</g>
<g style="fill:#FFFFFF; fill-opacity:1.0000; stroke:none;">
<circle cx="56.3990" cy="38.8332" r="0.1500" /> 
</g>
<g style="fill:#FFFFFF; fill-opacity:1.0000; stroke:none;">
<circle cx="10.8910" cy="93.7313" r="0.1500" /> 
</g>
<g style="fill:#FFFFFF; fill-opacity:1.0000; stroke:none;">
<circle cx="56.2720" cy="88.9052" r="0.1500" /> 
</g>
<g style="fill:#FFFFFF; fill-opacity:1.0000; stroke:none;">
<circle cx="52.8910" cy="93.7313" r="0.1500" /> 
</g>
<g style="fill:#FFFFFF; fill-opacity:1.0000; stroke:none;">
<circle cx="56.3990" cy="20.8332" r="0.1500" /> 
</g>
<g style="fill:#FFFFFF; fill-opacity:1.0000; stroke:none;">
<circle cx="20.4200" cy="18.2383" r="0.1500" /> 
</g>
<g style="fill:#FFFFFF; fill-opacity:1.0000; stroke:none;">
<circle cx="35.4200" cy="18.2383" r="0.1500" /> 
</g>
<g style="fill:#FFFFFF; fill-opacity:1.0000; stroke:none;">
<circle cx="56.3990" cy="65.8332" r="0.1500" /> 
</g>
<g style="fill:#FFFFFF; fill-opacity:1.0000; stroke:none;">
<circle cx="2.4240" cy="60.2142" r="0.1500" /> 
</g>
<g style="fill:#FFFFFF; fill-opacity:1.0000; stroke:none;">
<circle cx="5.4200" cy="18.2383" r="0.1500" /> 
</g>
<g style="fill:#FFFFFF; fill-opacity:1.0000; stroke:none;">
<circle cx="2.4240" cy="75.2142" r="0.1500" /> 
</g>
<g style="fill:#FFFFFF; fill-opacity:1.0000; stroke:none;">
<circle cx="2.4240" cy="93.7313" r="0.1500" /> 
</g>
<g style="fill:#FFFFFF; fill-opacity:1.0000; stroke:none;">
<circle cx="56.3990" cy="71.8332" r="0.1500" /> 
</g>
<g style="fill:#FFFFFF; fill-opacity:1.0000; stroke:none;">
<circle cx="17.4200" cy="18.2383" r="0.1500" /> 
</g>
<g style="fill:#FFFFFF; fill-opacity:1.0000; stroke:none;">
<circle cx="16.8910" cy="93.7313" r="0.1500" /> 
</g>
<g style="fill:#FFFFFF; fill-opacity:1.0000; stroke:none;">
<circle cx="34.8910" cy="93.7313" r="0.1500" /> 
</g>
<g style="fill:#FFFFFF; fill-opacity:1.0000; stroke:none;">
<circle cx="2.4240" cy="72.2142" r="0.1500" /> 
</g>
<g style="fill:#FFFFFF; fill-opacity:1.0000; stroke:none;">
<circle cx="2.4240" cy="57.2142" r="0.1500" /> 
</g>
<g style="fill:#FFFFFF; fill-opacity:1.0000; stroke:none;">
<circle cx="2.4240" cy="87.0482" r="0.1500" /> 
</g>
<g style="fill:#FFFFFF; fill-opacity:1.0000; stroke:none;">
<circle cx="2.4240" cy="51.2142" r="0.1500" /> 
</g>
<g style="fill:#FFFFFF; fill-opacity:1.0000; stroke:none;">
<circle cx="14.4200" cy="18.2383" r="0.1500" /> 
</g>
<g style="fill:#FFFFFF; fill-opacity:1.0000; stroke:none;">
<circle cx="56.3990" cy="44.8332" r="0.1500" /> 
</g>
<g style="fill:#FFFFFF; fill-opacity:1.0000; stroke:none;">
<circle cx="42.3200" cy="66.0382" r="0.1500" /> 
</g>
<g style="fill:#FFFFFF; fill-opacity:1.0000; stroke:none;">
<circle cx="41.6200" cy="66.0382" r="0.1500" /> 
</g>
<g style="fill:#FFFFFF; fill-opacity:1.0000; stroke:none;">
<circle cx="41.7200" cy="66.7382" r="0.1500" /> 
</g>
<g style="fill:#FFFFFF; fill-opacity:1.0000; stroke:none;">
<circle cx="49.1200" cy="35.7383" r="0.1500" /> 
</g>
<g style="fill:#FFFFFF; fill-opacity:1.0000; stroke:none;">
<circle cx="49.7200" cy="36.0382" r="0.1500" /> 
</g>
<g style="fill:#FFFFFF; fill-opacity:1.0000; stroke:none;">
<circle cx="49.1200" cy="37.8382" r="0.1500" /> 
</g>
<g style="fill:#FFFFFF; fill-opacity:1.0000; stroke:none;">
<circle cx="49.7200" cy="36.8382" r="0.1500" /> 
</g>
<g style="fill:#FFFFFF; fill-opacity:1.0000; stroke:none;">
<circle cx="49.1200" cy="36.4382" r="0.1500" /> 
</g>
<g style="fill:#FFFFFF; fill-opacity:1.0000; stroke:none;">
<circle cx="49.1200" cy="39.2383" r="0.1500" /> 
</g>
<g style="fill:#FFFFFF; fill-opacity:1.0000; stroke:none;">
<circle cx="49.7200" cy="37.5382" r="0.1500" /> 
</g>
<g style="fill:#FFFFFF; fill-opacity:1.0000; stroke:none;">
<circle cx="49.8200" cy="76.8383" r="0.1500" /> 
</g>
<g style="fill:#FFFFFF; fill-opacity:1.0000; stroke:none;">
<circle cx="49.1200" cy="37.1382" r="0.1500" /> 
</g>
<g style="fill:#FFFFFF; fill-opacity:1.0000; stroke:none;">
<circle cx="49.1200" cy="38.5382" r="0.1500" /> 
</g>
<g style="fill:#FFFFFF; fill-opacity:1.0000; stroke:none;">
<circle cx="49.2870" cy="49.7892" r="0.1500" /> 
</g>
<g style="fill:#FFFFFF; fill-opacity:1.0000; stroke:none;">
<circle cx="41.3200" cy="45.2383" r="0.1500" /> 
</g>
<g style="fill:#FFFFFF; fill-opacity:1.0000; stroke:none;">
<circle cx="10.2950" cy="75.9633" r="0.1500" /> 
</g>
<g style="fill:#FFFFFF; fill-opacity:1.0000; stroke:none;">
<circle cx="12.7700" cy="33.8633" r="0.1500" /> 
</g>
<g style="fill:#FFFFFF; fill-opacity:1.0000; stroke:none;">
<circle cx="19.4420" cy="59.1872" r="0.1500" /> 
</g>
<g style="fill:#FFFFFF; fill-opacity:1.0000; stroke:none;">
<circle cx="40.6200" cy="45.2383" r="0.1500" /> 
</g>
<g style="fill:#FFFFFF; fill-opacity:1.0000; stroke:none;">
<circle cx="39.8200" cy="45.2383" r="0.1500" /> 
</g>
<g style="fill:#FFFFFF; fill-opacity:1.0000; stroke:none;">
<circle cx="15.3976" cy="35.0147" r="0.1500" /> 
</g>
<g style="fill:#FFFFFF; fill-opacity:1.0000; stroke:none;">
<circle cx="29.9200" cy="65.7382" r="0.1500" /> 
</g>
<g style="fill:#FFFFFF; fill-opacity:1.0000; stroke:none;">
<circle cx="29.9200" cy="66.4382" r="0.1500" /> 
</g>
<g style="fill:#FFFFFF; fill-opacity:1.0000; stroke:none;">
<circle cx="6.2900" cy="52.3882" r="0.1500" /> 
</g>
<g style="fill:#FFFFFF; fill-opacity:1.0000; stroke:none;">
<circle cx="10.4200" cy="37.0382" r="0.1500" /> 
</g>
<g style="fill:#FFFFFF; fill-opacity:1.0000; stroke:none;">
<circle cx="21.3200" cy="57.9382" r="0.1500" /> 
</g>
<g style="fill:#FFFFFF; fill-opacity:1.0000; stroke:none;">
<circle cx="20.8200" cy="33.7383" r="0.1500" /> 
</g>
<g style="fill:#FFFFFF; fill-opacity:1.0000; stroke:none;">
<circle cx="20.8200" cy="34.5382" r="0.1500" /> 
</g>
<g style="fill:#FFFFFF; fill-opacity:1.0000; stroke:none;">
<circle cx="21.6200" cy="32.2383" r="0.1500" /> 
</g>
<g style="fill:#FFFFFF; fill-opacity:1.0000; stroke:none;">
<circle cx="24.1200" cy="33.0382" r="0.1500" /> 
</g>
<g style="fill:#FFFFFF; fill-opacity:1.0000; stroke:none;">
<circle cx="21.6200" cy="34.5382" r="0.1500" /> 
</g>
<g style="fill:#FFFFFF; fill-opacity:1.0000; stroke:none;">
<circle cx="20.8200" cy="32.2383" r="0.1500" /> 
</g>
<g style="fill:#FFFFFF; fill-opacity:1.0000; stroke:none;">
<circle cx="23.2200" cy="32.2383" r="0.1500" /> 
</g>
<g style="fill:#FFFFFF; fill-opacity:1.0000; stroke:none;">
<circle cx="24.1200" cy="34.5382" r="0.1500" /> 
</g>
<g style="fill:#FFFFFF; fill-opacity:1.0000; stroke:none;">
<circle cx="24.1200" cy="32.2383" r="0.1500" /> 
</g>
<g style="fill:#FFFFFF; fill-opacity:1.0000; stroke:none;">
<circle cx="22.4200" cy="32.2383" r="0.1500" /> 
</g>
<g style="fill:#FFFFFF; fill-opacity:1.0000; stroke:none;">
<circle cx="20.8200" cy="33.0382" r="0.1500" /> 
</g>
<g style="fill:#FFFFFF; fill-opacity:1.0000; stroke:none;">
<circle cx="23.3200" cy="34.5382" r="0.1500" /> 
</g>
<g style="fill:#FFFFFF; fill-opacity:1.0000; stroke:none;">
<circle cx="38.5200" cy="45.2383" r="0.1500" /> 
</g>
<g style="fill:#FFFFFF; fill-opacity:1.0000; stroke:none;">
<circle cx="24.1200" cy="33.8382" r="0.1500" /> 
</g>
<g style="fill:#FFFFFF; fill-opacity:1.0000; stroke:none;">
<circle cx="37.4200" cy="45.2383" r="0.1500" /> 
</g>
<g style="fill:#FFFFFF; fill-opacity:1.0000; stroke:none;">
<circle cx="22.5200" cy="34.5382" r="0.1500" /> 
</g>
<g style="fill:#FFFFFF; fill-opacity:1.0000; stroke:none;">
<circle cx="22.7400" cy="36.1983" r="0.1500" /> 
</g>
<g style="fill:#FFFFFF; fill-opacity:1.0000; stroke:none;">
<circle cx="21.8200" cy="36.7782" r="0.1500" /> 
</g>
<g style="fill:#FFFFFF; fill-opacity:1.0000; stroke:none;">
<circle cx="22.4500" cy="36.7782" r="0.1500" /> 
</g>
<g style="fill:#FFFFFF; fill-opacity:1.0000; stroke:none;">
<circle cx="23.0800" cy="36.7782" r="0.1500" /> 
</g>
<g style="fill:#FFFFFF; fill-opacity:1.0000; stroke:none;">
<circle cx="21.0200" cy="37.6382" r="0.1500" /> 
</g>
<g style="fill:#FFFFFF; fill-opacity:1.0000; stroke:none;">
<circle cx="23.3600" cy="36.1782" r="0.1500" /> 
</g>
<g style="fill:#FFFFFF; fill-opacity:1.0000; stroke:none;">
<circle cx="21.0200" cy="37.0382" r="0.1500" /> 
</g>
<g style="fill:#FFFFFF; fill-opacity:1.0000; stroke:none;">
<circle cx="21.5100" cy="36.1983" r="0.1500" /> 
</g>
<g style="fill:#FFFFFF; fill-opacity:1.0000; stroke:none;">
<circle cx="21.0200" cy="38.2383" r="0.1500" /> 
</g>
<g style="fill:#FFFFFF; fill-opacity:1.0000; stroke:none;">
<circle cx="22.1200" cy="36.1983" r="0.1500" /> 
</g>
<g style="fill:#FFFFFF; fill-opacity:1.0000; stroke:none;">
<circle cx="23.0200" cy="44.2383" r="0.1500" /> 
</g>
<g style="fill:#FFFFFF; fill-opacity:1.0000; stroke:none;">
<circle cx="23.9200" cy="43.6382" r="0.1500" /> 
</g>
<g style="fill:#FFFFFF; fill-opacity:1.0000; stroke:none;">
<circle cx="21.4800" cy="43.6982" r="0.1500" /> 
</g>
<g style="fill:#FFFFFF; fill-opacity:1.0000; stroke:none;">
<circle cx="22.2000" cy="43.6882" r="0.1500" /> 
</g>
<g style="fill:#FFFFFF; fill-opacity:1.0000; stroke:none;">
<circle cx="23.0200" cy="43.2383" r="0.1500" /> 
</g>
<g style="fill:#FFFFFF; fill-opacity:1.0000; stroke:none;">
<circle cx="24.7200" cy="43.6382" r="0.1500" /> 
</g>
<g style="fill:#FFFFFF; fill-opacity:1.0000; stroke:none;">
<circle cx="24.8100" cy="49.9883" r="0.1500" /> 
</g>
<g style="fill:#FFFFFF; fill-opacity:1.0000; stroke:none;">
<circle cx="17.8390" cy="49.6785" r="0.1500" /> 
</g>
<g style="fill:#FFFFFF; fill-opacity:1.0000; stroke:none;">
<circle cx="12.6200" cy="78.8383" r="0.1500" /> 
</g>
<g style="fill:#FFFFFF; fill-opacity:1.0000; stroke:none;">
<circle cx="12.6200" cy="78.1382" r="0.1500" /> 
</g>
<g style="fill:#FFFFFF; fill-opacity:1.0000; stroke:none;">
<circle cx="11.9200" cy="78.1382" r="0.1500" /> 
</g>
<g style="fill:#FFFFFF; fill-opacity:1.0000; stroke:none;">
<circle cx="13.3200" cy="78.1382" r="0.1500" /> 
</g>
<g style="fill:#FFFFFF; fill-opacity:1.0000; stroke:none;">
<circle cx="13.3200" cy="78.8383" r="0.1500" /> 
</g>
<g style="fill:#FFFFFF; fill-opacity:1.0000; stroke:none;">
<circle cx="16.7200" cy="39.5382" r="0.1500" /> 
</g>
<g style="fill:#FFFFFF; fill-opacity:1.0000; stroke:none;">
<circle cx="16.2200" cy="34.9382" r="0.1500" /> 
</g>
<g style="fill:#FFFFFF; fill-opacity:1.0000; stroke:none;">
<circle cx="24.6200" cy="52.8382" r="0.1500" /> 
</g>
<g style="fill:#FFFFFF; fill-opacity:1.0000; stroke:none;">
<circle cx="7.5000" cy="56.7383" r="0.1500" /> 
</g>
<g style="fill:#FFFFFF; fill-opacity:1.0000; stroke:none;">
<circle cx="25.3200" cy="52.8382" r="0.1500" /> 
</g>
<g style="fill:#FFFFFF; fill-opacity:1.0000; stroke:none;">
<circle cx="23.9200" cy="52.8382" r="0.1500" /> 
</g>
<g style="fill:#FFFFFF; fill-opacity:1.0000; stroke:none;">
<circle cx="16.2200" cy="33.5382" r="0.1500" /> 
</g>
<g style="fill:#FFFFFF; fill-opacity:1.0000; stroke:none;">
<circle cx="16.2200" cy="34.2383" r="0.1500" /> 
</g>
<g style="fill:#FFFFFF; fill-opacity:1.0000; stroke:none;">
<circle cx="23.2200" cy="52.8382" r="0.1500" /> 
</g>
<g style="fill:#FFFFFF; fill-opacity:1.0000; stroke:none;">
<circle cx="16.1200" cy="41.5282" r="0.1500" /> 
</g>
<g style="fill:#FFFFFF; fill-opacity:1.0000; stroke:none;">
<circle cx="16.1200" cy="42.1782" r="0.1500" /> 
</g>
<g style="fill:#FFFFFF; fill-opacity:1.0000; stroke:none;">
<circle cx="14.2200" cy="78.1382" r="0.1500" /> 
</g>
<g style="fill:#FFFFFF; fill-opacity:1.0000; stroke:none;">
<circle cx="15.4200" cy="33.5382" r="0.1500" /> 
</g>
<g style="fill:#FFFFFF; fill-opacity:1.0000; stroke:none;">
<circle cx="16.1200" cy="39.5382" r="0.1500" /> 
</g>
<g style="fill:#FFFFFF; fill-opacity:1.0000; stroke:none;">
<circle cx="16.1200" cy="40.8882" r="0.1500" /> 
</g>
<g style="fill:#FFFFFF; fill-opacity:1.0000; stroke:none;">
<circle cx="15.4200" cy="34.2383" r="0.1500" /> 
</g>
<g style="fill:#FFFFFF; fill-opacity:1.0000; stroke:none;">
<circle cx="14.3650" cy="53.4282" r="0.1500" /> 
</g>
<g style="fill:#FFFFFF; fill-opacity:1.0000; stroke:none;">
<circle cx="16.1200" cy="40.1882" r="0.1500" /> 
</g>
<g style="fill:#FFFFFF; fill-opacity:1.0000; stroke:none;">
<circle cx="5.9200" cy="45.9382" r="0.1500" /> 
</g>
<g style="fill:#FFFFFF; fill-opacity:1.0000; stroke:none;">
<circle cx="8.2200" cy="56.7383" r="0.1500" /> 
</g>
<g style="fill:#FFFFFF; fill-opacity:1.0000; stroke:none;">
<circle cx="7.8200" cy="47.3382" r="0.1500" /> 
</g>
<g style="fill:#FFFFFF; fill-opacity:1.0000; stroke:none;">
<circle cx="8.9200" cy="57.4382" r="0.1500" /> 
</g>
<g style="fill:#FFFFFF; fill-opacity:1.0000; stroke:none;">
<circle cx="8.2200" cy="57.4382" r="0.1500" /> 
</g>
<g style="fill:#FFFFFF; fill-opacity:1.0000; stroke:none;">
<circle cx="7.5200" cy="57.4382" r="0.1500" /> 
</g>
<g style="fill:#FFFFFF; fill-opacity:1.0000; stroke:none;">
<circle cx="5.9200" cy="46.7383" r="0.1500" /> 
</g>
<g style="fill:#FFFFFF; fill-opacity:1.0000; stroke:none;">
<circle cx="36.8200" cy="57.5382" r="0.1500" /> 
</g>
<g style="fill:#FFFFFF; fill-opacity:1.0000; stroke:none;">
<circle cx="36.8200" cy="56.8382" r="0.1500" /> 
</g>
<g style="fill:#FFFFFF; fill-opacity:1.0000; stroke:none;">
<circle cx="36.1200" cy="57.5382" r="0.1500" /> 
</g>
<g style="fill:#FFFFFF; fill-opacity:1.0000; stroke:none;">
<circle cx="15.7300" cy="32.0583" r="0.1500" /> 
</g>
<g style="fill:#FFFFFF; fill-opacity:1.0000; stroke:none;">
<circle cx="11.6200" cy="56.2782" r="0.1500" /> 
</g>
<g style="fill:#FFFFFF; fill-opacity:1.0000; stroke:none;">
<circle cx="14.7400" cy="42.7482" r="0.1500" /> 
</g>
<g style="fill:#FFFFFF; fill-opacity:1.0000; stroke:none;">
<circle cx="14.1200" cy="56.3382" r="0.1500" /> 
</g>
<g style="fill:#FFFFFF; fill-opacity:1.0000; stroke:none;">
<circle cx="8.1000" cy="88.7682" r="0.9850" /> 
</g>
<g style="fill:#FFFFFF; fill-opacity:1.0000; stroke:none;">
<circle cx="23.6000" cy="88.7682" r="0.9850" /> 
</g>
<g style="fill:#FFFFFF; fill-opacity:1.0000; stroke:none;">
<circle cx="8.4600" cy="22.5282" r="0.9850" /> 
</g>
<g style="fill:#FFFFFF; fill-opacity:1.0000; stroke:none;">
<circle cx="23.9600" cy="22.5282" r="0.9850" /> 
</g>
<g style="fill:#FFFFFF; fill-opacity:1.0000; stroke:none;">
<circle cx="2.1500" cy="32.8653" r="0.2500" /> 
</g>
<g style="fill:#FFFFFF; fill-opacity:1.0000; stroke:none;">
<circle cx="2.8529" cy="31.1682" r="0.2500" /> 
</g>
<g style="fill:#FFFFFF; fill-opacity:1.0000; stroke:none;">
<circle cx="2.8529" cy="34.5624" r="0.2500" /> 
</g>
<g style="fill:#FFFFFF; fill-opacity:1.0000; stroke:none;">
<circle cx="4.5500" cy="30.4653" r="0.2500" /> 
</g>
<g style="fill:#FFFFFF; fill-opacity:1.0000; stroke:none;">
<circle cx="4.5500" cy="32.8653" r="1.6000" /> 
</g>
<g style="fill:#FFFFFF; fill-opacity:1.0000; stroke:none;">
<circle cx="4.5500" cy="35.2653" r="0.2500" /> 
</g>
<g style="fill:#FFFFFF; fill-opacity:1.0000; stroke:none;">
<circle cx="6.2471" cy="31.1682" r="0.2500" /> 
</g>
<g style="fill:#FFFFFF; fill-opacity:1.0000; stroke:none;">
<circle cx="6.2471" cy="34.5624" r="0.2500" /> 
</g>
<g style="fill:#FFFFFF; fill-opacity:1.0000; stroke:none;">
<circle cx="6.9500" cy="32.8653" r="0.2500" /> 
</g>
<g style="fill:#FFFFFF; fill-opacity:1.0000; stroke:none;">
<circle cx="50.6100" cy="89.3582" r="0.9850" /> 
</g>
<g style="fill:#FFFFFF; fill-opacity:1.0000; stroke:none;">
<circle cx="35.1100" cy="89.3582" r="0.9850" /> 
</g>
<g style="fill:#FFFFFF; fill-opacity:1.0000; stroke:none;">
<circle cx="52.0800" cy="79.0583" r="0.2500" /> 
</g>
<g style="fill:#FFFFFF; fill-opacity:1.0000; stroke:none;">
<circle cx="52.7829" cy="77.3612" r="0.2500" /> 
</g>
<g style="fill:#FFFFFF; fill-opacity:1.0000; stroke:none;">
<circle cx="52.7829" cy="80.7553" r="0.2500" /> 
</g>
<g style="fill:#FFFFFF; fill-opacity:1.0000; stroke:none;">
<circle cx="54.4800" cy="76.6582" r="0.2500" /> 
</g>
<g style="fill:#FFFFFF; fill-opacity:1.0000; stroke:none;">
<circle cx="54.4800" cy="79.0583" r="1.6000" /> 
</g>
<g style="fill:#FFFFFF; fill-opacity:1.0000; stroke:none;">
<circle cx="54.4800" cy="81.4582" r="0.2500" /> 
</g>
<g style="fill:#FFFFFF; fill-opacity:1.0000; stroke:none;">
<circle cx="56.1771" cy="77.3612" r="0.2500" /> 
</g>
<g style="fill:#FFFFFF; fill-opacity:1.0000; stroke:none;">
<circle cx="56.1771" cy="80.7553" r="0.2500" /> 
</g>
<g style="fill:#FFFFFF; fill-opacity:1.0000; stroke:none;">
<circle cx="56.8800" cy="79.0583" r="0.2500" /> 
</g>
<g style="fill:#FFFFFF; fill-opacity:1.0000; stroke:none;">
<circle cx="50.9200" cy="23.0732" r="0.9850" /> 
</g>
<g style="fill:#FFFFFF; fill-opacity:1.0000; stroke:none;">
<circle cx="35.4200" cy="23.0732" r="0.9850" /> 
</g>
<g style="fill:#FFFFFF; fill-opacity:1.0000; stroke:none;">
<circle cx="2.1500" cy="79.0583" r="0.2500" /> 
</g>
<g style="fill:#FFFFFF; fill-opacity:1.0000; stroke:none;">
<circle cx="2.8529" cy="77.3612" r="0.2500" /> 
</g>
<g style="fill:#FFFFFF; fill-opacity:1.0000; stroke:none;">
<circle cx="2.8529" cy="80.7553" r="0.2500" /> 
</g>
<g style="fill:#FFFFFF; fill-opacity:1.0000; stroke:none;">
<circle cx="4.5500" cy="76.6582" r="0.2500" /> 
</g>
<g style="fill:#FFFFFF; fill-opacity:1.0000; stroke:none;">
<circle cx="4.5500" cy="79.0583" r="1.6000" /> 
</g>
<g style="fill:#FFFFFF; fill-opacity:1.0000; stroke:none;">
<circle cx="4.5500" cy="81.4582" r="0.2500" /> 
</g>
<g style="fill:#FFFFFF; fill-opacity:1.0000; stroke:none;">
<circle cx="6.2471" cy="77.3612" r="0.2500" /> 
</g>
<g style="fill:#FFFFFF; fill-opacity:1.0000; stroke:none;">
<circle cx="6.2471" cy="80.7553" r="0.2500" /> 
</g>
<g style="fill:#FFFFFF; fill-opacity:1.0000; stroke:none;">
<circle cx="6.9500" cy="79.0583" r="0.2500" /> 
</g>
<g style="fill:#FFFFFF; fill-opacity:1.0000; stroke:none;">
<circle cx="52.0800" cy="32.8582" r="0.2500" /> 
</g>
<g style="fill:#FFFFFF; fill-opacity:1.0000; stroke:none;">
<circle cx="52.7829" cy="31.1612" r="0.2500" /> 
</g>
<g style="fill:#FFFFFF; fill-opacity:1.0000; stroke:none;">
<circle cx="52.7829" cy="34.5553" r="0.2500" /> 
</g>
<g style="fill:#FFFFFF; fill-opacity:1.0000; stroke:none;">
<circle cx="54.4800" cy="30.4582" r="0.2500" /> 
</g>
<g style="fill:#FFFFFF; fill-opacity:1.0000; stroke:none;">
<circle cx="54.4800" cy="32.8582" r="1.6000" /> 
</g>
<g style="fill:#FFFFFF; fill-opacity:1.0000; stroke:none;">
<circle cx="54.4800" cy="35.2582" r="0.2500" /> 
</g>
<g style="fill:#FFFFFF; fill-opacity:1.0000; stroke:none;">
<circle cx="56.1771" cy="31.1612" r="0.2500" /> 
</g>
<g style="fill:#FFFFFF; fill-opacity:1.0000; stroke:none;">
<circle cx="56.1771" cy="34.5553" r="0.2500" /> 
</g>
<g style="fill:#FFFFFF; fill-opacity:1.0000; stroke:none;">
<circle cx="56.8800" cy="32.8582" r="0.2500" /> 
<path style="fill:none; 
stroke:#D0D2CD; stroke-width:0.0500; stroke-opacity:1; 
stroke-linecap:round; stroke-linejoin:round;fill:none"
d="M 0.0500,16.3382
58.9200,16.3382
58.9200,95.5382
0.0500,95.5382
Z" /> 
</g> 
</svg>
