<?xml version="1.0" standalone="no"?>
 <!DOCTYPE svg PUBLIC "-//W3C//DTD SVG 1.1//EN" 
 "http://www.w3.org/Graphics/SVG/1.1/DTD/svg11.dtd"> 
<svg
  xmlns:svg="http://www.w3.org/2000/svg"
  xmlns="http://www.w3.org/2000/svg"
  xmlns:xlink="http://www.w3.org/1999/xlink"
  version="1.1"
  width="70.9676mm" height="95.5802mm" viewBox="0.0000 0.0000 70.9676 95.5802">
<title>SVG Image created as SEPIC-A-B_Paste.svg date 2024/09/19 09:59:25 </title>
  <desc>Image generated by PCBNEW </desc>
<g style="fill:#000000; fill-opacity:1.0000;stroke:#000000; stroke-opacity:1.0000;
stroke-linecap:round; stroke-linejoin:round;"
 transform="translate(0 0) scale(1 1)">
<path style="fill:#00C2C2; fill-opacity:0.9000; stroke:none;fill-rule:evenodd;"
d="M 34.5200,59.2882
34.5390,59.1926
34.5932,59.1115
34.6743,59.0573
34.7700,59.0382
35.4700,59.0382
35.5657,59.0573
35.6468,59.1115
35.7010,59.1926
35.7200,59.2882
35.7200,60.1882
35.7010,60.2839
35.6468,60.3650
35.5657,60.4192
35.4700,60.4382
34.7700,60.4382
34.6743,60.4192
34.5932,60.3650
34.5390,60.2839
34.5200,60.1882
Z" /> 
<path style="fill:#00C2C2; fill-opacity:0.9000; stroke:none;fill-rule:evenodd;"
d="M 36.5200,59.2882
36.5390,59.1926
36.5932,59.1115
36.6743,59.0573
36.7700,59.0382
37.4700,59.0382
37.5657,59.0573
37.6468,59.1115
37.7010,59.1926
37.7200,59.2882
37.7200,60.1882
37.7010,60.2839
37.6468,60.3650
37.5657,60.4192
37.4700,60.4382
36.7700,60.4382
36.6743,60.4192
36.5932,60.3650
36.5390,60.2839
36.5200,60.1882
Z" /> 
<path style="fill:#00C2C2; fill-opacity:0.9000; stroke:none;fill-rule:evenodd;"
d="M 50.2700,77.1418
50.3657,77.1608
50.4468,77.2150
50.5010,77.2961
50.5200,77.3918
50.5200,78.0667
50.5010,78.1624
50.4468,78.2435
50.3657,78.2977
50.2700,78.3167
49.3200,78.3167
49.2243,78.2977
49.1432,78.2435
49.0890,78.1624
49.0700,78.0667
49.0700,77.3918
49.0890,77.2961
49.1432,77.2150
49.2243,77.1608
49.3200,77.1418
Z" /> 
<path style="fill:#00C2C2; fill-opacity:0.9000; stroke:none;fill-rule:evenodd;"
d="M 50.2700,79.2167
50.3657,79.2358
50.4468,79.2900
50.5010,79.3711
50.5200,79.4667
50.5200,80.1418
50.5010,80.2374
50.4468,80.3185
50.3657,80.3727
50.2700,80.3918
49.3200,80.3918
49.2243,80.3727
49.1432,80.3185
49.0890,80.2374
49.0700,80.1418
49.0700,79.4667
49.0890,79.3711
49.1432,79.2900
49.2243,79.2358
49.3200,79.2167
Z" /> 
<path style="fill:#00C2C2; fill-opacity:0.9000; stroke:none;fill-rule:evenodd;"
d="M 38.3575,42.9632
38.3765,42.8676
38.4307,42.7865
38.5118,42.7323
38.6075,42.7132
39.2825,42.7132
39.3782,42.7323
39.4593,42.7865
39.5135,42.8676
39.5325,42.9632
39.5325,43.9132
39.5135,44.0089
39.4593,44.0900
39.3782,44.1442
39.2825,44.1632
38.6075,44.1632
38.5118,44.1442
38.4307,44.0900
38.3765,44.0089
38.3575,43.9132
Z" /> 
<path style="fill:#00C2C2; fill-opacity:0.9000; stroke:none;fill-rule:evenodd;"
d="M 40.4325,42.9632
40.4515,42.8676
40.5057,42.7865
40.5868,42.7323
40.6825,42.7132
41.3575,42.7132
41.4532,42.7323
41.5343,42.7865
41.5885,42.8676
41.6075,42.9632
41.6075,43.9132
41.5885,44.0089
41.5343,44.0900
41.4532,44.1442
41.3575,44.1632
40.6825,44.1632
40.5868,44.1442
40.5057,44.0900
40.4515,44.0089
40.4325,43.9132
Z" /> 
<path style="fill:#00C2C2; fill-opacity:0.9000; stroke:none;fill-rule:evenodd;"
d="M 3.0825,57.2507
3.1006,57.1599
3.1521,57.0828
3.2291,57.0313
3.3200,57.0132
3.8200,57.0132
3.9109,57.0313
3.9879,57.0828
4.0394,57.1599
4.0575,57.2507
4.0575,57.7257
4.0394,57.8166
3.9879,57.8937
3.9109,57.9452
3.8200,57.9632
3.3200,57.9632
3.2291,57.9452
3.1521,57.8937
3.1006,57.8166
3.0825,57.7257
Z" /> 
<path style="fill:#00C2C2; fill-opacity:0.9000; stroke:none;fill-rule:evenodd;"
d="M 4.9075,57.2507
4.9256,57.1599
4.9771,57.0828
5.0541,57.0313
5.1450,57.0132
5.6450,57.0132
5.7359,57.0313
5.8129,57.0828
5.8644,57.1599
5.8825,57.2507
5.8825,57.7257
5.8644,57.8166
5.8129,57.8937
5.7359,57.9452
5.6450,57.9632
5.1450,57.9632
5.0541,57.9452
4.9771,57.8937
4.9256,57.8166
4.9075,57.7257
Z" /> 
<path style="fill:#00C2C2; fill-opacity:0.9000; stroke:none;fill-rule:evenodd;"
d="M 42.8075,56.9382
42.7885,57.0339
42.7343,57.1150
42.6532,57.1692
42.5575,57.1882
41.7325,57.1882
41.6368,57.1692
41.5557,57.1150
41.5015,57.0339
41.4825,56.9382
41.4825,54.7383
41.5015,54.6426
41.5557,54.5615
41.6368,54.5073
41.7325,54.4883
42.5575,54.4883
42.6532,54.5073
42.7343,54.5615
42.7885,54.6426
42.8075,54.7383
Z" /> 
<path style="fill:#00C2C2; fill-opacity:0.9000; stroke:none;fill-rule:evenodd;"
d="M 39.6825,56.9382
39.6635,57.0339
39.6093,57.1150
39.5282,57.1692
39.4325,57.1882
38.6075,57.1882
38.5118,57.1692
38.4307,57.1150
38.3765,57.0339
38.3575,56.9382
38.3575,54.7383
38.3765,54.6426
38.4307,54.5615
38.5118,54.5073
38.6075,54.4883
39.4325,54.4883
39.5282,54.5073
39.6093,54.5615
39.6635,54.6426
39.6825,54.7383
Z" /> 
<path style="fill:#00C2C2; fill-opacity:0.9000; stroke:none;fill-rule:evenodd;"
d="M 10.7730,76.6337
10.8687,76.6528
10.9498,76.7070
11.0040,76.7881
11.0230,76.8837
11.0230,77.5588
11.0040,77.6544
10.9498,77.7355
10.8687,77.7897
10.7730,77.8088
9.8230,77.8088
9.7273,77.7897
9.6462,77.7355
9.5920,77.6544
9.5730,77.5588
9.5730,76.8837
9.5920,76.7881
9.6462,76.7070
9.7273,76.6528
9.8230,76.6337
Z" /> 
<path style="fill:#00C2C2; fill-opacity:0.9000; stroke:none;fill-rule:evenodd;"
d="M 10.7730,78.7087
10.8687,78.7278
10.9498,78.7820
11.0040,78.8631
11.0230,78.9587
11.0230,79.6337
11.0040,79.7294
10.9498,79.8105
10.8687,79.8647
10.7730,79.8837
9.8230,79.8837
9.7273,79.8647
9.6462,79.8105
9.5920,79.7294
9.5730,79.6337
9.5730,78.9587
9.5920,78.8631
9.6462,78.7820
9.7273,78.7278
9.8230,78.7087
Z" /> 
<path style="fill:#00C2C2; fill-opacity:0.9000; stroke:none;fill-rule:evenodd;"
d="M 54.8515,51.9007
54.8334,51.9916
54.7819,52.0687
54.7049,52.1202
54.6140,52.1382
54.1140,52.1382
54.0231,52.1202
53.9461,52.0687
53.8946,51.9916
53.8765,51.9007
53.8765,51.4258
53.8946,51.3349
53.9461,51.2578
54.0231,51.2063
54.1140,51.1882
54.6140,51.1882
54.7049,51.2063
54.7819,51.2578
54.8334,51.3349
54.8515,51.4258
Z" /> 
<path style="fill:#00C2C2; fill-opacity:0.9000; stroke:none;fill-rule:evenodd;"
d="M 53.0265,51.9007
53.0084,51.9916
52.9569,52.0687
52.8799,52.1202
52.7890,52.1382
52.2890,52.1382
52.1981,52.1202
52.1211,52.0687
52.0696,51.9916
52.0515,51.9007
52.0515,51.4258
52.0696,51.3349
52.1211,51.2578
52.1981,51.2063
52.2890,51.1882
52.7890,51.1882
52.8799,51.2063
52.9569,51.2578
53.0084,51.3349
53.0265,51.4258
Z" /> 
<path style="fill:#00C2C2; fill-opacity:0.9000; stroke:none;fill-rule:evenodd;"
d="M 50.0535,49.3143
50.0725,49.2186
50.1267,49.1375
50.2078,49.0833
50.3035,49.0643
50.9785,49.0643
51.0742,49.0833
51.1553,49.1375
51.2095,49.2186
51.2285,49.3143
51.2285,50.2642
51.2095,50.3599
51.1553,50.4410
51.0742,50.4952
50.9785,50.5142
50.3035,50.5142
50.2078,50.4952
50.1267,50.4410
50.0725,50.3599
50.0535,50.2642
Z" /> 
<path style="fill:#00C2C2; fill-opacity:0.9000; stroke:none;fill-rule:evenodd;"
d="M 52.1285,49.3143
52.1475,49.2186
52.2017,49.1375
52.2828,49.0833
52.3785,49.0643
53.0535,49.0643
53.1492,49.0833
53.2303,49.1375
53.2845,49.2186
53.3035,49.3143
53.3035,50.2642
53.2845,50.3599
53.2303,50.4410
53.1492,50.4952
53.0535,50.5142
52.3785,50.5142
52.2828,50.4952
52.2017,50.4410
52.1475,50.3599
52.1285,50.2642
Z" /> 
<path style="fill:#00C2C2; fill-opacity:0.9000; stroke:none;fill-rule:evenodd;"
d="M 51.9325,29.7257
51.9144,29.8166
51.8629,29.8937
51.7859,29.9452
51.6950,29.9632
51.1950,29.9632
51.1041,29.9452
51.0271,29.8937
50.9756,29.8166
50.9575,29.7257
50.9575,29.2508
50.9756,29.1599
51.0271,29.0828
51.1041,29.0313
51.1950,29.0132
51.6950,29.0132
51.7859,29.0313
51.8629,29.0828
51.9144,29.1599
51.9325,29.2508
Z" /> 
<path style="fill:#00C2C2; fill-opacity:0.9000; stroke:none;fill-rule:evenodd;"
d="M 50.1075,29.7257
50.0894,29.8166
50.0379,29.8937
49.9609,29.9452
49.8700,29.9632
49.3700,29.9632
49.2791,29.9452
49.2021,29.8937
49.1506,29.8166
49.1325,29.7257
49.1325,29.2508
49.1506,29.1599
49.2021,29.0828
49.2791,29.0313
49.3700,29.0132
49.8700,29.0132
49.9609,29.0313
50.0379,29.0828
50.0894,29.1599
50.1075,29.2508
Z" /> 
<path style="fill:#00C2C2; fill-opacity:0.9000; stroke:none;fill-rule:evenodd;"
d="M 7.3575,28.8758
7.3756,28.7849
7.4271,28.7078
7.5041,28.6563
7.5950,28.6382
8.0950,28.6382
8.1859,28.6563
8.2629,28.7078
8.3144,28.7849
8.3325,28.8758
8.3325,29.3507
8.3144,29.4416
8.2629,29.5187
8.1859,29.5702
8.0950,29.5882
7.5950,29.5882
7.5041,29.5702
7.4271,29.5187
7.3756,29.4416
7.3575,29.3507
Z" /> 
<path style="fill:#00C2C2; fill-opacity:0.9000; stroke:none;fill-rule:evenodd;"
d="M 9.1825,28.8758
9.2006,28.7849
9.2521,28.7078
9.3291,28.6563
9.4200,28.6382
9.9200,28.6382
10.0109,28.6563
10.0879,28.7078
10.1394,28.7849
10.1575,28.8758
10.1575,29.3507
10.1394,29.4416
10.0879,29.5187
10.0109,29.5702
9.9200,29.5882
9.4200,29.5882
9.3291,29.5702
9.2521,29.5187
9.2006,29.4416
9.1825,29.3507
Z" /> 
<path style="fill:#00C2C2; fill-opacity:0.9000; stroke:none;fill-rule:evenodd;"
d="M 42.7825,60.2383
42.7635,60.3339
42.7093,60.4150
42.6282,60.4692
42.5325,60.4883
41.7075,60.4883
41.6118,60.4692
41.5307,60.4150
41.4765,60.3339
41.4575,60.2383
41.4575,58.0382
41.4765,57.9426
41.5307,57.8615
41.6118,57.8073
41.7075,57.7882
42.5325,57.7882
42.6282,57.8073
42.7093,57.8615
42.7635,57.9426
42.7825,58.0382
Z" /> 
<path style="fill:#00C2C2; fill-opacity:0.9000; stroke:none;fill-rule:evenodd;"
d="M 39.6575,60.2383
39.6385,60.3339
39.5843,60.4150
39.5032,60.4692
39.4075,60.4883
38.5825,60.4883
38.4868,60.4692
38.4057,60.4150
38.3515,60.3339
38.3325,60.2383
38.3325,58.0382
38.3515,57.9426
38.4057,57.8615
38.4868,57.8073
38.5825,57.7882
39.4075,57.7882
39.5032,57.8073
39.5843,57.8615
39.6385,57.9426
39.6575,58.0382
Z" /> 
<path style="fill:#00C2C2; fill-opacity:0.9000; stroke:none;fill-rule:evenodd;"
d="M 7.7105,59.9162
7.6915,60.0119
7.6373,60.0930
7.5562,60.1472
7.4605,60.1662
6.7855,60.1662
6.6898,60.1472
6.6087,60.0930
6.5545,60.0119
6.5355,59.9162
6.5355,58.9662
6.5545,58.8706
6.6087,58.7895
6.6898,58.7353
6.7855,58.7162
7.4605,58.7162
7.5562,58.7353
7.6373,58.7895
7.6915,58.8706
7.7105,58.9662
Z" /> 
<path style="fill:#00C2C2; fill-opacity:0.9000; stroke:none;fill-rule:evenodd;"
d="M 5.6355,59.9162
5.6165,60.0119
5.5623,60.0930
5.4812,60.1472
5.3855,60.1662
4.7105,60.1662
4.6148,60.1472
4.5337,60.0930
4.4795,60.0119
4.4605,59.9162
4.4605,58.9662
4.4795,58.8706
4.5337,58.7895
4.6148,58.7353
4.7105,58.7162
5.3855,58.7162
5.4812,58.7353
5.5623,58.7895
5.6165,58.8706
5.6355,58.9662
Z" /> 
<path style="fill:#00C2C2; fill-opacity:0.9000; stroke:none;fill-rule:evenodd;"
d="M 37.7325,46.4382
37.7515,46.3426
37.8057,46.2615
37.8868,46.2073
37.9825,46.1882
38.8075,46.1882
38.9032,46.2073
38.9843,46.2615
39.0385,46.3426
39.0575,46.4382
39.0575,48.6382
39.0385,48.7339
38.9843,48.8150
38.9032,48.8692
38.8075,48.8882
37.9825,48.8882
37.8868,48.8692
37.8057,48.8150
37.7515,48.7339
37.7325,48.6382
Z" /> 
<path style="fill:#00C2C2; fill-opacity:0.9000; stroke:none;fill-rule:evenodd;"
d="M 40.8575,46.4382
40.8765,46.3426
40.9307,46.2615
41.0118,46.2073
41.1075,46.1882
41.9325,46.1882
42.0282,46.2073
42.1093,46.2615
42.1635,46.3426
42.1825,46.4382
42.1825,48.6382
42.1635,48.7339
42.1093,48.8150
42.0282,48.8692
41.9325,48.8882
41.1075,48.8882
41.0118,48.8692
40.9307,48.8150
40.8765,48.7339
40.8575,48.6382
Z" /> 
<path style="fill:#00C2C2; fill-opacity:0.9000; stroke:none;fill-rule:evenodd;"
d="M 49.0660,33.8882
48.9703,33.8692
48.8892,33.8150
48.8350,33.7339
48.8160,33.6382
48.8160,32.9632
48.8350,32.8676
48.8892,32.7865
48.9703,32.7323
49.0660,32.7132
50.0160,32.7132
50.1117,32.7323
50.1928,32.7865
50.2470,32.8676
50.2660,32.9632
50.2660,33.6382
50.2470,33.7339
50.1928,33.8150
50.1117,33.8692
50.0160,33.8882
Z" /> 
<path style="fill:#00C2C2; fill-opacity:0.9000; stroke:none;fill-rule:evenodd;"
d="M 49.0660,31.8133
48.9703,31.7942
48.8892,31.7400
48.8350,31.6589
48.8160,31.5633
48.8160,30.8882
48.8350,30.7926
48.8892,30.7115
48.9703,30.6573
49.0660,30.6382
50.0160,30.6382
50.1117,30.6573
50.1928,30.7115
50.2470,30.7926
50.2660,30.8882
50.2660,31.5633
50.2470,31.6589
50.1928,31.7400
50.1117,31.7942
50.0160,31.8133
Z" /> 
<path style="fill:#00C2C2; fill-opacity:0.9000; stroke:none;fill-rule:evenodd;"
d="M 12.0500,31.5953
12.0310,31.6909
11.9768,31.7720
11.8957,31.8262
11.8000,31.8453
11.1250,31.8453
11.0293,31.8262
10.9482,31.7720
10.8940,31.6909
10.8750,31.5953
10.8750,30.6452
10.8940,30.5496
10.9482,30.4685
11.0293,30.4143
11.1250,30.3952
11.8000,30.3952
11.8957,30.4143
11.9768,30.4685
12.0310,30.5496
12.0500,30.6452
Z" /> 
<path style="fill:#00C2C2; fill-opacity:0.9000; stroke:none;fill-rule:evenodd;"
d="M 9.9750,31.5953
9.9560,31.6909
9.9018,31.7720
9.8207,31.8262
9.7250,31.8453
9.0500,31.8453
8.9543,31.8262
8.8732,31.7720
8.8190,31.6909
8.8000,31.5953
8.8000,30.6452
8.8190,30.5496
8.8732,30.4685
8.9543,30.4143
9.0500,30.3952
9.7250,30.3952
9.8207,30.4143
9.9018,30.4685
9.9560,30.5496
9.9750,30.6452
Z" /> 
<path style="fill:#00C2C2; fill-opacity:0.9000; stroke:none;fill-rule:evenodd;"
d="M 38.3575,40.8633
38.3765,40.7676
38.4307,40.6865
38.5118,40.6323
38.6075,40.6133
39.2825,40.6133
39.3782,40.6323
39.4593,40.6865
39.5135,40.7676
39.5325,40.8633
39.5325,41.8132
39.5135,41.9089
39.4593,41.9900
39.3782,42.0442
39.2825,42.0632
38.6075,42.0632
38.5118,42.0442
38.4307,41.9900
38.3765,41.9089
38.3575,41.8132
Z" /> 
<path style="fill:#00C2C2; fill-opacity:0.9000; stroke:none;fill-rule:evenodd;"
d="M 40.4325,40.8633
40.4515,40.7676
40.5057,40.6865
40.5868,40.6323
40.6825,40.6133
41.3575,40.6133
41.4532,40.6323
41.5343,40.6865
41.5885,40.7676
41.6075,40.8633
41.6075,41.8132
41.5885,41.9089
41.5343,41.9900
41.4532,42.0442
41.3575,42.0632
40.6825,42.0632
40.5868,42.0442
40.5057,41.9900
40.4515,41.9089
40.4325,41.8132
Z" /> 
<path style="fill:#00C2C2; fill-opacity:0.9000; stroke:none;fill-rule:evenodd;"
d="M 42.8075,53.6382
42.7885,53.7339
42.7343,53.8150
42.6532,53.8692
42.5575,53.8882
41.7325,53.8882
41.6368,53.8692
41.5557,53.8150
41.5015,53.7339
41.4825,53.6382
41.4825,51.4382
41.5015,51.3426
41.5557,51.2615
41.6368,51.2073
41.7325,51.1882
42.5575,51.1882
42.6532,51.2073
42.7343,51.2615
42.7885,51.3426
42.8075,51.4382
Z" /> 
<path style="fill:#00C2C2; fill-opacity:0.9000; stroke:none;fill-rule:evenodd;"
d="M 39.6825,53.6382
39.6635,53.7339
39.6093,53.8150
39.5282,53.8692
39.4325,53.8882
38.6075,53.8882
38.5118,53.8692
38.4307,53.8150
38.3765,53.7339
38.3575,53.6382
38.3575,51.4382
38.3765,51.3426
38.4307,51.2615
38.5118,51.2073
38.6075,51.1882
39.4325,51.1882
39.5282,51.2073
39.6093,51.2615
39.6635,51.3426
39.6825,51.4382
Z" /> 
<path style="fill:#00C2C2; fill-opacity:0.9000; stroke:none;fill-rule:evenodd;"
d="M 7.8075,80.9507
7.8256,80.8599
7.8771,80.7828
7.9541,80.7313
8.0450,80.7133
8.5450,80.7133
8.6359,80.7313
8.7129,80.7828
8.7644,80.8599
8.7825,80.9507
8.7825,81.4257
8.7644,81.5166
8.7129,81.5937
8.6359,81.6452
8.5450,81.6632
8.0450,81.6632
7.9541,81.6452
7.8771,81.5937
7.8256,81.5166
7.8075,81.4257
Z" /> 
<path style="fill:#00C2C2; fill-opacity:0.9000; stroke:none;fill-rule:evenodd;"
d="M 9.6325,80.9507
9.6506,80.8599
9.7021,80.7828
9.7791,80.7313
9.8700,80.7133
10.3700,80.7133
10.4609,80.7313
10.5379,80.7828
10.5894,80.8599
10.6075,80.9507
10.6075,81.4257
10.5894,81.5166
10.5379,81.5937
10.4609,81.6452
10.3700,81.6632
9.8700,81.6632
9.7791,81.6452
9.7021,81.5937
9.6506,81.5166
9.6325,81.4257
Z" /> 
<path style="fill:#00C2C2; fill-opacity:0.9000; stroke:none;fill-rule:evenodd;"
d="M 51.6765,81.9038
51.6584,81.9946
51.6069,82.0717
51.5299,82.1232
51.4390,82.1412
50.9390,82.1412
50.8481,82.1232
50.7711,82.0717
50.7196,81.9946
50.7015,81.9038
50.7015,81.4287
50.7196,81.3379
50.7711,81.2608
50.8481,81.2093
50.9390,81.1912
51.4390,81.1912
51.5299,81.2093
51.6069,81.2608
51.6584,81.3379
51.6765,81.4287
Z" /> 
<path style="fill:#00C2C2; fill-opacity:0.9000; stroke:none;fill-rule:evenodd;"
d="M 49.8515,81.9038
49.8334,81.9946
49.7819,82.0717
49.7049,82.1232
49.6140,82.1412
49.1140,82.1412
49.0231,82.1232
48.9461,82.0717
48.8946,81.9946
48.8765,81.9038
48.8765,81.4287
48.8946,81.3379
48.9461,81.2608
49.0231,81.2093
49.1140,81.1912
49.6140,81.1912
49.7049,81.2093
49.7819,81.2608
49.8334,81.3379
49.8515,81.4287
Z" /> 
<path style="fill:none; 
stroke:#D0D2CD; stroke-width:0.0500; stroke-opacity:1; 
stroke-linecap:round; stroke-linejoin:round;fill:none"
d="M 0.0500,16.3382
58.9200,16.3382
58.9200,95.5382
0.0500,95.5382
Z" /> 
</g> 
</svg>
