<?xml version="1.0" standalone="no"?>
 <!DOCTYPE svg PUBLIC "-//W3C//DTD SVG 1.1//EN" 
 "http://www.w3.org/Graphics/SVG/1.1/DTD/svg11.dtd"> 
<svg
  xmlns:svg="http://www.w3.org/2000/svg"
  xmlns="http://www.w3.org/2000/svg"
  xmlns:xlink="http://www.w3.org/1999/xlink"
  version="1.1"
  width="70.9676mm" height="95.5802mm" viewBox="0.0000 0.0000 70.9676 95.5802">
<title>SVG Image created as SEPIC-A-In1_Cu.svg date 2024/09/19 09:59:25 </title>
  <desc>Image generated by PCBNEW </desc>
<g style="fill:#000000; fill-opacity:1.0000;stroke:#000000; stroke-opacity:1.0000;
stroke-linecap:round; stroke-linejoin:round;"
 transform="translate(0 0) scale(1 1)">
<path style="fill:#7FC87F; fill-opacity:1.0000; stroke:none;fill-rule:evenodd;"
d="M 6.6225,90.2458
6.6225,87.2908
9.5775,87.2908
9.5775,90.2458
Z" /> 
</g>
<g style="fill:#7FC87F; fill-opacity:1.0000; stroke:none;">
<circle cx="23.6000" cy="88.7682" r="1.4775" /> 
<path style="fill:#7FC87F; fill-opacity:1.0000; stroke:none;fill-rule:evenodd;"
d="M 6.9825,24.0057
6.9825,21.0508
9.9375,21.0508
9.9375,24.0057
Z" /> 
</g>
<g style="fill:#7FC87F; fill-opacity:1.0000; stroke:none;">
<circle cx="23.9600" cy="22.5282" r="1.4775" /> 
</g>
<g style="fill:#7FC87F; fill-opacity:1.0000; stroke:none;">
<circle cx="2.1500" cy="32.8653" r="0.4000" /> 
</g>
<g style="fill:#7FC87F; fill-opacity:1.0000; stroke:none;">
<circle cx="2.8529" cy="31.1682" r="0.4000" /> 
</g>
<g style="fill:#7FC87F; fill-opacity:1.0000; stroke:none;">
<circle cx="2.8529" cy="34.5624" r="0.4000" /> 
</g>
<g style="fill:#7FC87F; fill-opacity:1.0000; stroke:none;">
<circle cx="4.5500" cy="30.4653" r="0.4000" /> 
</g>
<g style="fill:#7FC87F; fill-opacity:1.0000; stroke:none;">
<circle cx="4.5500" cy="32.8653" r="3.2000" /> 
</g>
<g style="fill:#7FC87F; fill-opacity:1.0000; stroke:none;">
<circle cx="4.5500" cy="35.2653" r="0.4000" /> 
</g>
<g style="fill:#7FC87F; fill-opacity:1.0000; stroke:none;">
<circle cx="6.2471" cy="31.1682" r="0.4000" /> 
</g>
<g style="fill:#7FC87F; fill-opacity:1.0000; stroke:none;">
<circle cx="6.2471" cy="34.5624" r="0.4000" /> 
</g>
<g style="fill:#7FC87F; fill-opacity:1.0000; stroke:none;">
<circle cx="6.9500" cy="32.8653" r="0.4000" /> 
</g>
<g style="fill:#7FC87F; fill-opacity:1.0000; stroke:none;">
<circle cx="50.6100" cy="89.3582" r="1.4775" /> 
</g>
<g style="fill:#7FC87F; fill-opacity:1.0000; stroke:none;">
<circle cx="35.1100" cy="89.3582" r="1.4775" /> 
</g>
<g style="fill:#7FC87F; fill-opacity:1.0000; stroke:none;">
<circle cx="52.0800" cy="79.0583" r="0.4000" /> 
</g>
<g style="fill:#7FC87F; fill-opacity:1.0000; stroke:none;">
<circle cx="52.7829" cy="77.3612" r="0.4000" /> 
</g>
<g style="fill:#7FC87F; fill-opacity:1.0000; stroke:none;">
<circle cx="52.7829" cy="80.7553" r="0.4000" /> 
</g>
<g style="fill:#7FC87F; fill-opacity:1.0000; stroke:none;">
<circle cx="54.4800" cy="76.6582" r="0.4000" /> 
</g>
<g style="fill:#7FC87F; fill-opacity:1.0000; stroke:none;">
<circle cx="54.4800" cy="79.0583" r="3.2000" /> 
</g>
<g style="fill:#7FC87F; fill-opacity:1.0000; stroke:none;">
<circle cx="54.4800" cy="81.4582" r="0.4000" /> 
</g>
<g style="fill:#7FC87F; fill-opacity:1.0000; stroke:none;">
<circle cx="56.1771" cy="77.3612" r="0.4000" /> 
</g>
<g style="fill:#7FC87F; fill-opacity:1.0000; stroke:none;">
<circle cx="56.1771" cy="80.7553" r="0.4000" /> 
</g>
<g style="fill:#7FC87F; fill-opacity:1.0000; stroke:none;">
<circle cx="56.8800" cy="79.0583" r="0.4000" /> 
</g>
<g style="fill:#7FC87F; fill-opacity:1.0000; stroke:none;">
<circle cx="50.9200" cy="23.0732" r="1.4775" /> 
</g>
<g style="fill:#7FC87F; fill-opacity:1.0000; stroke:none;">
<circle cx="35.4200" cy="23.0732" r="1.4775" /> 
</g>
<g style="fill:#7FC87F; fill-opacity:1.0000; stroke:none;">
<circle cx="2.1500" cy="79.0583" r="0.4000" /> 
</g>
<g style="fill:#7FC87F; fill-opacity:1.0000; stroke:none;">
<circle cx="2.8529" cy="77.3612" r="0.4000" /> 
</g>
<g style="fill:#7FC87F; fill-opacity:1.0000; stroke:none;">
<circle cx="2.8529" cy="80.7553" r="0.4000" /> 
</g>
<g style="fill:#7FC87F; fill-opacity:1.0000; stroke:none;">
<circle cx="4.5500" cy="76.6582" r="0.4000" /> 
</g>
<g style="fill:#7FC87F; fill-opacity:1.0000; stroke:none;">
<circle cx="4.5500" cy="79.0583" r="3.2000" /> 
</g>
<g style="fill:#7FC87F; fill-opacity:1.0000; stroke:none;">
<circle cx="4.5500" cy="81.4582" r="0.4000" /> 
</g>
<g style="fill:#7FC87F; fill-opacity:1.0000; stroke:none;">
<circle cx="6.2471" cy="77.3612" r="0.4000" /> 
</g>
<g style="fill:#7FC87F; fill-opacity:1.0000; stroke:none;">
<circle cx="6.2471" cy="80.7553" r="0.4000" /> 
</g>
<g style="fill:#7FC87F; fill-opacity:1.0000; stroke:none;">
<circle cx="6.9500" cy="79.0583" r="0.4000" /> 
</g>
<g style="fill:#7FC87F; fill-opacity:1.0000; stroke:none;">
<circle cx="52.0800" cy="32.8582" r="0.4000" /> 
</g>
<g style="fill:#7FC87F; fill-opacity:1.0000; stroke:none;">
<circle cx="52.7829" cy="31.1612" r="0.4000" /> 
</g>
<g style="fill:#7FC87F; fill-opacity:1.0000; stroke:none;">
<circle cx="52.7829" cy="34.5553" r="0.4000" /> 
</g>
<g style="fill:#7FC87F; fill-opacity:1.0000; stroke:none;">
<circle cx="54.4800" cy="30.4582" r="0.4000" /> 
</g>
<g style="fill:#7FC87F; fill-opacity:1.0000; stroke:none;">
<circle cx="54.4800" cy="32.8582" r="3.2000" /> 
</g>
<g style="fill:#7FC87F; fill-opacity:1.0000; stroke:none;">
<circle cx="54.4800" cy="35.2582" r="0.4000" /> 
</g>
<g style="fill:#7FC87F; fill-opacity:1.0000; stroke:none;">
<circle cx="56.1771" cy="31.1612" r="0.4000" /> 
</g>
<g style="fill:#7FC87F; fill-opacity:1.0000; stroke:none;">
<circle cx="56.1771" cy="34.5553" r="0.4000" /> 
</g>
<g style="fill:#7FC87F; fill-opacity:1.0000; stroke:none;">
<circle cx="56.8800" cy="32.8582" r="0.4000" /> 
</g>
<g style="fill:#ECECEC; fill-opacity:1.0000; stroke:none;">
<circle cx="2.4240" cy="39.2142" r="0.3000" /> 
</g>
<g style="fill:#ECECEC; fill-opacity:1.0000; stroke:none;">
<circle cx="25.8910" cy="93.7313" r="0.3000" /> 
</g>
<g style="fill:#ECECEC; fill-opacity:1.0000; stroke:none;">
<circle cx="56.3990" cy="59.8332" r="0.3000" /> 
</g>
<g style="fill:#ECECEC; fill-opacity:1.0000; stroke:none;">
<circle cx="2.4240" cy="69.2142" r="0.3000" /> 
</g>
<g style="fill:#ECECEC; fill-opacity:1.0000; stroke:none;">
<circle cx="29.4200" cy="18.2383" r="0.3000" /> 
</g>
<g style="fill:#ECECEC; fill-opacity:1.0000; stroke:none;">
<circle cx="41.4200" cy="18.2383" r="0.3000" /> 
</g>
<g style="fill:#ECECEC; fill-opacity:1.0000; stroke:none;">
<circle cx="56.3990" cy="62.8332" r="0.3000" /> 
</g>
<g style="fill:#ECECEC; fill-opacity:1.0000; stroke:none;">
<circle cx="2.4240" cy="90.0482" r="0.3000" /> 
</g>
<g style="fill:#ECECEC; fill-opacity:1.0000; stroke:none;">
<circle cx="56.2720" cy="91.4453" r="0.3000" /> 
</g>
<g style="fill:#ECECEC; fill-opacity:1.0000; stroke:none;">
<circle cx="7.8910" cy="93.7313" r="0.3000" /> 
</g>
<g style="fill:#ECECEC; fill-opacity:1.0000; stroke:none;">
<circle cx="56.3990" cy="26.8332" r="0.3000" /> 
</g>
<g style="fill:#ECECEC; fill-opacity:1.0000; stroke:none;">
<circle cx="56.2720" cy="85.9052" r="0.3000" /> 
</g>
<g style="fill:#ECECEC; fill-opacity:1.0000; stroke:none;">
<circle cx="47.4200" cy="18.2383" r="0.3000" /> 
</g>
<g style="fill:#ECECEC; fill-opacity:1.0000; stroke:none;">
<circle cx="28.8910" cy="93.7313" r="0.3000" /> 
</g>
<g style="fill:#ECECEC; fill-opacity:1.0000; stroke:none;">
<circle cx="56.3990" cy="41.8332" r="0.3000" /> 
</g>
<g style="fill:#ECECEC; fill-opacity:1.0000; stroke:none;">
<circle cx="56.2720" cy="82.9052" r="0.3000" /> 
</g>
<g style="fill:#ECECEC; fill-opacity:1.0000; stroke:none;">
<circle cx="11.4200" cy="18.2383" r="0.3000" /> 
</g>
<g style="fill:#ECECEC; fill-opacity:1.0000; stroke:none;">
<circle cx="8.4200" cy="18.2383" r="0.3000" /> 
</g>
<g style="fill:#ECECEC; fill-opacity:1.0000; stroke:none;">
<circle cx="4.8910" cy="93.7313" r="0.3000" /> 
</g>
<g style="fill:#ECECEC; fill-opacity:1.0000; stroke:none;">
<circle cx="2.4240" cy="42.2142" r="0.3000" /> 
</g>
<g style="fill:#ECECEC; fill-opacity:1.0000; stroke:none;">
<circle cx="56.2720" cy="93.7313" r="0.3000" /> 
</g>
<g style="fill:#ECECEC; fill-opacity:1.0000; stroke:none;">
<circle cx="19.8910" cy="93.7313" r="0.3000" /> 
</g>
<g style="fill:#ECECEC; fill-opacity:1.0000; stroke:none;">
<circle cx="49.8910" cy="93.7313" r="0.3000" /> 
</g>
<g style="fill:#ECECEC; fill-opacity:1.0000; stroke:none;">
<circle cx="2.4240" cy="21.2142" r="0.3000" /> 
</g>
<g style="fill:#ECECEC; fill-opacity:1.0000; stroke:none;">
<circle cx="2.4200" cy="18.2383" r="0.3000" /> 
</g>
<g style="fill:#ECECEC; fill-opacity:1.0000; stroke:none;">
<circle cx="22.8910" cy="93.7313" r="0.3000" /> 
</g>
<g style="fill:#ECECEC; fill-opacity:1.0000; stroke:none;">
<circle cx="2.4240" cy="84.0482" r="0.3000" /> 
</g>
<g style="fill:#ECECEC; fill-opacity:1.0000; stroke:none;">
<circle cx="26.4200" cy="18.2383" r="0.3000" /> 
</g>
<g style="fill:#ECECEC; fill-opacity:1.0000; stroke:none;">
<circle cx="2.4240" cy="45.2142" r="0.3000" /> 
</g>
<g style="fill:#ECECEC; fill-opacity:1.0000; stroke:none;">
<circle cx="31.8910" cy="93.7313" r="0.3000" /> 
</g>
<g style="fill:#ECECEC; fill-opacity:1.0000; stroke:none;">
<circle cx="40.8910" cy="93.7313" r="0.3000" /> 
</g>
<g style="fill:#ECECEC; fill-opacity:1.0000; stroke:none;">
<circle cx="2.4240" cy="48.2142" r="0.3000" /> 
</g>
<g style="fill:#ECECEC; fill-opacity:1.0000; stroke:none;">
<circle cx="2.4240" cy="24.2142" r="0.3000" /> 
</g>
<g style="fill:#ECECEC; fill-opacity:1.0000; stroke:none;">
<circle cx="43.8910" cy="93.7313" r="0.3000" /> 
</g>
<g style="fill:#ECECEC; fill-opacity:1.0000; stroke:none;">
<circle cx="38.4200" cy="18.2383" r="0.3000" /> 
</g>
<g style="fill:#ECECEC; fill-opacity:1.0000; stroke:none;">
<circle cx="46.8910" cy="93.7313" r="0.3000" /> 
</g>
<g style="fill:#ECECEC; fill-opacity:1.0000; stroke:none;">
<circle cx="37.8910" cy="93.7313" r="0.3000" /> 
</g>
<g style="fill:#ECECEC; fill-opacity:1.0000; stroke:none;">
<circle cx="56.4200" cy="18.2383" r="0.3000" /> 
</g>
<g style="fill:#ECECEC; fill-opacity:1.0000; stroke:none;">
<circle cx="2.4240" cy="66.2142" r="0.3000" /> 
</g>
<g style="fill:#ECECEC; fill-opacity:1.0000; stroke:none;">
<circle cx="2.4240" cy="63.2142" r="0.3000" /> 
</g>
<g style="fill:#ECECEC; fill-opacity:1.0000; stroke:none;">
<circle cx="56.3990" cy="56.8332" r="0.3000" /> 
</g>
<g style="fill:#ECECEC; fill-opacity:1.0000; stroke:none;">
<circle cx="2.4240" cy="27.2142" r="0.3000" /> 
</g>
<g style="fill:#ECECEC; fill-opacity:1.0000; stroke:none;">
<circle cx="56.3990" cy="53.8332" r="0.3000" /> 
</g>
<g style="fill:#ECECEC; fill-opacity:1.0000; stroke:none;">
<circle cx="56.3990" cy="50.8332" r="0.3000" /> 
</g>
<g style="fill:#ECECEC; fill-opacity:1.0000; stroke:none;">
<circle cx="44.4200" cy="18.2383" r="0.3000" /> 
</g>
<g style="fill:#ECECEC; fill-opacity:1.0000; stroke:none;">
<circle cx="32.4200" cy="18.2383" r="0.3000" /> 
</g>
<g style="fill:#ECECEC; fill-opacity:1.0000; stroke:none;">
<circle cx="2.4240" cy="54.2142" r="0.3000" /> 
</g>
<g style="fill:#ECECEC; fill-opacity:1.0000; stroke:none;">
<circle cx="56.3990" cy="47.8332" r="0.3000" /> 
</g>
<g style="fill:#ECECEC; fill-opacity:1.0000; stroke:none;">
<circle cx="23.4200" cy="18.2383" r="0.3000" /> 
</g>
<g style="fill:#ECECEC; fill-opacity:1.0000; stroke:none;">
<circle cx="53.4200" cy="18.2383" r="0.3000" /> 
</g>
<g style="fill:#ECECEC; fill-opacity:1.0000; stroke:none;">
<circle cx="50.4200" cy="18.2383" r="0.3000" /> 
</g>
<g style="fill:#ECECEC; fill-opacity:1.0000; stroke:none;">
<circle cx="56.3990" cy="68.8332" r="0.3000" /> 
</g>
<g style="fill:#ECECEC; fill-opacity:1.0000; stroke:none;">
<circle cx="56.3990" cy="74.8332" r="0.3000" /> 
</g>
<g style="fill:#ECECEC; fill-opacity:1.0000; stroke:none;">
<circle cx="13.8910" cy="93.7313" r="0.3000" /> 
</g>
<g style="fill:#ECECEC; fill-opacity:1.0000; stroke:none;">
<circle cx="56.3990" cy="23.8332" r="0.3000" /> 
</g>
<g style="fill:#ECECEC; fill-opacity:1.0000; stroke:none;">
<circle cx="56.3990" cy="38.8332" r="0.3000" /> 
</g>
<g style="fill:#ECECEC; fill-opacity:1.0000; stroke:none;">
<circle cx="10.8910" cy="93.7313" r="0.3000" /> 
</g>
<g style="fill:#ECECEC; fill-opacity:1.0000; stroke:none;">
<circle cx="56.2720" cy="88.9052" r="0.3000" /> 
</g>
<g style="fill:#ECECEC; fill-opacity:1.0000; stroke:none;">
<circle cx="52.8910" cy="93.7313" r="0.3000" /> 
</g>
<g style="fill:#ECECEC; fill-opacity:1.0000; stroke:none;">
<circle cx="56.3990" cy="20.8332" r="0.3000" /> 
</g>
<g style="fill:#ECECEC; fill-opacity:1.0000; stroke:none;">
<circle cx="20.4200" cy="18.2383" r="0.3000" /> 
</g>
<g style="fill:#ECECEC; fill-opacity:1.0000; stroke:none;">
<circle cx="35.4200" cy="18.2383" r="0.3000" /> 
</g>
<g style="fill:#ECECEC; fill-opacity:1.0000; stroke:none;">
<circle cx="56.3990" cy="65.8332" r="0.3000" /> 
</g>
<g style="fill:#ECECEC; fill-opacity:1.0000; stroke:none;">
<circle cx="2.4240" cy="60.2142" r="0.3000" /> 
</g>
<g style="fill:#ECECEC; fill-opacity:1.0000; stroke:none;">
<circle cx="5.4200" cy="18.2383" r="0.3000" /> 
</g>
<g style="fill:#ECECEC; fill-opacity:1.0000; stroke:none;">
<circle cx="2.4240" cy="75.2142" r="0.3000" /> 
</g>
<g style="fill:#ECECEC; fill-opacity:1.0000; stroke:none;">
<circle cx="2.4240" cy="93.7313" r="0.3000" /> 
</g>
<g style="fill:#ECECEC; fill-opacity:1.0000; stroke:none;">
<circle cx="56.3990" cy="71.8332" r="0.3000" /> 
</g>
<g style="fill:#ECECEC; fill-opacity:1.0000; stroke:none;">
<circle cx="17.4200" cy="18.2383" r="0.3000" /> 
</g>
<g style="fill:#ECECEC; fill-opacity:1.0000; stroke:none;">
<circle cx="16.8910" cy="93.7313" r="0.3000" /> 
</g>
<g style="fill:#ECECEC; fill-opacity:1.0000; stroke:none;">
<circle cx="34.8910" cy="93.7313" r="0.3000" /> 
</g>
<g style="fill:#ECECEC; fill-opacity:1.0000; stroke:none;">
<circle cx="2.4240" cy="72.2142" r="0.3000" /> 
</g>
<g style="fill:#ECECEC; fill-opacity:1.0000; stroke:none;">
<circle cx="2.4240" cy="57.2142" r="0.3000" /> 
</g>
<g style="fill:#ECECEC; fill-opacity:1.0000; stroke:none;">
<circle cx="2.4240" cy="87.0482" r="0.3000" /> 
</g>
<g style="fill:#ECECEC; fill-opacity:1.0000; stroke:none;">
<circle cx="2.4240" cy="51.2142" r="0.3000" /> 
</g>
<g style="fill:#ECECEC; fill-opacity:1.0000; stroke:none;">
<circle cx="14.4200" cy="18.2383" r="0.3000" /> 
</g>
<g style="fill:#ECECEC; fill-opacity:1.0000; stroke:none;">
<circle cx="56.3990" cy="44.8332" r="0.3000" /> 
</g>
<g style="fill:#ECECEC; fill-opacity:1.0000; stroke:none;">
<circle cx="42.3200" cy="66.0382" r="0.3000" /> 
</g>
<g style="fill:#ECECEC; fill-opacity:1.0000; stroke:none;">
<circle cx="41.6200" cy="66.0382" r="0.3000" /> 
</g>
<g style="fill:#ECECEC; fill-opacity:1.0000; stroke:none;">
<circle cx="41.7200" cy="66.7382" r="0.3000" /> 
</g>
<g style="fill:#ECECEC; fill-opacity:1.0000; stroke:none;">
<circle cx="49.1200" cy="35.7383" r="0.3000" /> 
</g>
<g style="fill:#ECECEC; fill-opacity:1.0000; stroke:none;">
<circle cx="49.7200" cy="36.0382" r="0.3000" /> 
</g>
<g style="fill:#ECECEC; fill-opacity:1.0000; stroke:none;">
<circle cx="49.1200" cy="37.8382" r="0.3000" /> 
</g>
<g style="fill:#ECECEC; fill-opacity:1.0000; stroke:none;">
<circle cx="49.7200" cy="36.8382" r="0.3000" /> 
</g>
<g style="fill:#ECECEC; fill-opacity:1.0000; stroke:none;">
<circle cx="49.1200" cy="36.4382" r="0.3000" /> 
</g>
<g style="fill:#ECECEC; fill-opacity:1.0000; stroke:none;">
<circle cx="49.1200" cy="39.2383" r="0.3000" /> 
</g>
<g style="fill:#ECECEC; fill-opacity:1.0000; stroke:none;">
<circle cx="49.7200" cy="37.5382" r="0.3000" /> 
</g>
<g style="fill:#ECECEC; fill-opacity:1.0000; stroke:none;">
<circle cx="49.8200" cy="76.8383" r="0.3000" /> 
</g>
<g style="fill:#ECECEC; fill-opacity:1.0000; stroke:none;">
<circle cx="49.1200" cy="37.1382" r="0.3000" /> 
</g>
<g style="fill:#ECECEC; fill-opacity:1.0000; stroke:none;">
<circle cx="49.1200" cy="38.5382" r="0.3000" /> 
</g>
<g style="fill:#ECECEC; fill-opacity:1.0000; stroke:none;">
<circle cx="49.2870" cy="49.7892" r="0.3000" /> 
</g>
<g style="fill:#ECECEC; fill-opacity:1.0000; stroke:none;">
<circle cx="41.3200" cy="45.2383" r="0.3000" /> 
</g>
<g style="fill:#ECECEC; fill-opacity:1.0000; stroke:none;">
<circle cx="10.2950" cy="75.9633" r="0.3000" /> 
</g>
<g style="fill:#ECECEC; fill-opacity:1.0000; stroke:none;">
<circle cx="12.7700" cy="33.8633" r="0.3000" /> 
</g>
<g style="fill:#ECECEC; fill-opacity:1.0000; stroke:none;">
<circle cx="19.4420" cy="59.1872" r="0.3000" /> 
</g>
<g style="fill:#ECECEC; fill-opacity:1.0000; stroke:none;">
<circle cx="40.6200" cy="45.2383" r="0.3000" /> 
</g>
<g style="fill:#ECECEC; fill-opacity:1.0000; stroke:none;">
<circle cx="39.8200" cy="45.2383" r="0.3000" /> 
</g>
<g style="fill:#ECECEC; fill-opacity:1.0000; stroke:none;">
<circle cx="15.3976" cy="35.0147" r="0.3000" /> 
</g>
<g style="fill:#ECECEC; fill-opacity:1.0000; stroke:none;">
<circle cx="29.9200" cy="65.7382" r="0.3000" /> 
</g>
<g style="fill:#ECECEC; fill-opacity:1.0000; stroke:none;">
<circle cx="29.9200" cy="66.4382" r="0.3000" /> 
</g>
<g style="fill:#ECECEC; fill-opacity:1.0000; stroke:none;">
<circle cx="6.2900" cy="52.3882" r="0.3000" /> 
</g>
<g style="fill:#ECECEC; fill-opacity:1.0000; stroke:none;">
<circle cx="10.4200" cy="37.0382" r="0.3000" /> 
</g>
<g style="fill:#ECECEC; fill-opacity:1.0000; stroke:none;">
<circle cx="21.3200" cy="57.9382" r="0.3000" /> 
</g>
<g style="fill:#ECECEC; fill-opacity:1.0000; stroke:none;">
<circle cx="20.8200" cy="33.7383" r="0.3000" /> 
</g>
<g style="fill:#ECECEC; fill-opacity:1.0000; stroke:none;">
<circle cx="20.8200" cy="34.5382" r="0.3000" /> 
</g>
<g style="fill:#ECECEC; fill-opacity:1.0000; stroke:none;">
<circle cx="21.6200" cy="32.2383" r="0.3000" /> 
</g>
<g style="fill:#ECECEC; fill-opacity:1.0000; stroke:none;">
<circle cx="24.1200" cy="33.0382" r="0.3000" /> 
</g>
<g style="fill:#ECECEC; fill-opacity:1.0000; stroke:none;">
<circle cx="21.6200" cy="34.5382" r="0.3000" /> 
</g>
<g style="fill:#ECECEC; fill-opacity:1.0000; stroke:none;">
<circle cx="20.8200" cy="32.2383" r="0.3000" /> 
</g>
<g style="fill:#ECECEC; fill-opacity:1.0000; stroke:none;">
<circle cx="23.2200" cy="32.2383" r="0.3000" /> 
</g>
<g style="fill:#ECECEC; fill-opacity:1.0000; stroke:none;">
<circle cx="24.1200" cy="34.5382" r="0.3000" /> 
</g>
<g style="fill:#ECECEC; fill-opacity:1.0000; stroke:none;">
<circle cx="24.1200" cy="32.2383" r="0.3000" /> 
</g>
<g style="fill:#ECECEC; fill-opacity:1.0000; stroke:none;">
<circle cx="22.4200" cy="32.2383" r="0.3000" /> 
</g>
<g style="fill:#ECECEC; fill-opacity:1.0000; stroke:none;">
<circle cx="20.8200" cy="33.0382" r="0.3000" /> 
</g>
<g style="fill:#ECECEC; fill-opacity:1.0000; stroke:none;">
<circle cx="23.3200" cy="34.5382" r="0.3000" /> 
</g>
<g style="fill:#ECECEC; fill-opacity:1.0000; stroke:none;">
<circle cx="38.5200" cy="45.2383" r="0.3000" /> 
</g>
<g style="fill:#ECECEC; fill-opacity:1.0000; stroke:none;">
<circle cx="24.1200" cy="33.8382" r="0.3000" /> 
</g>
<g style="fill:#ECECEC; fill-opacity:1.0000; stroke:none;">
<circle cx="37.4200" cy="45.2383" r="0.3000" /> 
</g>
<g style="fill:#ECECEC; fill-opacity:1.0000; stroke:none;">
<circle cx="22.5200" cy="34.5382" r="0.3000" /> 
</g>
<g style="fill:#ECECEC; fill-opacity:1.0000; stroke:none;">
<circle cx="22.7400" cy="36.1983" r="0.3000" /> 
</g>
<g style="fill:#ECECEC; fill-opacity:1.0000; stroke:none;">
<circle cx="21.8200" cy="36.7782" r="0.3000" /> 
</g>
<g style="fill:#ECECEC; fill-opacity:1.0000; stroke:none;">
<circle cx="22.4500" cy="36.7782" r="0.3000" /> 
</g>
<g style="fill:#ECECEC; fill-opacity:1.0000; stroke:none;">
<circle cx="23.0800" cy="36.7782" r="0.3000" /> 
</g>
<g style="fill:#ECECEC; fill-opacity:1.0000; stroke:none;">
<circle cx="21.0200" cy="37.6382" r="0.3000" /> 
</g>
<g style="fill:#ECECEC; fill-opacity:1.0000; stroke:none;">
<circle cx="23.3600" cy="36.1782" r="0.3000" /> 
</g>
<g style="fill:#ECECEC; fill-opacity:1.0000; stroke:none;">
<circle cx="21.0200" cy="37.0382" r="0.3000" /> 
</g>
<g style="fill:#ECECEC; fill-opacity:1.0000; stroke:none;">
<circle cx="21.5100" cy="36.1983" r="0.3000" /> 
</g>
<g style="fill:#ECECEC; fill-opacity:1.0000; stroke:none;">
<circle cx="21.0200" cy="38.2383" r="0.3000" /> 
</g>
<g style="fill:#ECECEC; fill-opacity:1.0000; stroke:none;">
<circle cx="22.1200" cy="36.1983" r="0.3000" /> 
</g>
<g style="fill:#ECECEC; fill-opacity:1.0000; stroke:none;">
<circle cx="23.0200" cy="44.2383" r="0.3000" /> 
</g>
<g style="fill:#ECECEC; fill-opacity:1.0000; stroke:none;">
<circle cx="23.9200" cy="43.6382" r="0.3000" /> 
</g>
<g style="fill:#ECECEC; fill-opacity:1.0000; stroke:none;">
<circle cx="21.4800" cy="43.6982" r="0.3000" /> 
</g>
<g style="fill:#ECECEC; fill-opacity:1.0000; stroke:none;">
<circle cx="22.2000" cy="43.6882" r="0.3000" /> 
</g>
<g style="fill:#ECECEC; fill-opacity:1.0000; stroke:none;">
<circle cx="23.0200" cy="43.2383" r="0.3000" /> 
</g>
<g style="fill:#ECECEC; fill-opacity:1.0000; stroke:none;">
<circle cx="24.7200" cy="43.6382" r="0.3000" /> 
</g>
<g style="fill:#ECECEC; fill-opacity:1.0000; stroke:none;">
<circle cx="24.8100" cy="49.9883" r="0.3000" /> 
</g>
<g style="fill:#ECECEC; fill-opacity:1.0000; stroke:none;">
<circle cx="17.8390" cy="49.6785" r="0.3000" /> 
</g>
<g style="fill:#ECECEC; fill-opacity:1.0000; stroke:none;">
<circle cx="12.6200" cy="78.8383" r="0.3000" /> 
</g>
<g style="fill:#ECECEC; fill-opacity:1.0000; stroke:none;">
<circle cx="12.6200" cy="78.1382" r="0.3000" /> 
</g>
<g style="fill:#ECECEC; fill-opacity:1.0000; stroke:none;">
<circle cx="11.9200" cy="78.1382" r="0.3000" /> 
</g>
<g style="fill:#ECECEC; fill-opacity:1.0000; stroke:none;">
<circle cx="13.3200" cy="78.1382" r="0.3000" /> 
</g>
<g style="fill:#ECECEC; fill-opacity:1.0000; stroke:none;">
<circle cx="13.3200" cy="78.8383" r="0.3000" /> 
</g>
<g style="fill:#ECECEC; fill-opacity:1.0000; stroke:none;">
<circle cx="16.7200" cy="39.5382" r="0.3000" /> 
</g>
<g style="fill:#ECECEC; fill-opacity:1.0000; stroke:none;">
<circle cx="16.2200" cy="34.9382" r="0.3000" /> 
</g>
<g style="fill:#ECECEC; fill-opacity:1.0000; stroke:none;">
<circle cx="24.6200" cy="52.8382" r="0.3000" /> 
</g>
<g style="fill:#ECECEC; fill-opacity:1.0000; stroke:none;">
<circle cx="7.5000" cy="56.7383" r="0.3000" /> 
</g>
<g style="fill:#ECECEC; fill-opacity:1.0000; stroke:none;">
<circle cx="25.3200" cy="52.8382" r="0.3000" /> 
</g>
<g style="fill:#ECECEC; fill-opacity:1.0000; stroke:none;">
<circle cx="23.9200" cy="52.8382" r="0.3000" /> 
</g>
<g style="fill:#ECECEC; fill-opacity:1.0000; stroke:none;">
<circle cx="16.2200" cy="33.5382" r="0.3000" /> 
</g>
<g style="fill:#ECECEC; fill-opacity:1.0000; stroke:none;">
<circle cx="16.2200" cy="34.2383" r="0.3000" /> 
</g>
<g style="fill:#ECECEC; fill-opacity:1.0000; stroke:none;">
<circle cx="23.2200" cy="52.8382" r="0.3000" /> 
</g>
<g style="fill:#ECECEC; fill-opacity:1.0000; stroke:none;">
<circle cx="16.1200" cy="41.5282" r="0.3000" /> 
</g>
<g style="fill:#ECECEC; fill-opacity:1.0000; stroke:none;">
<circle cx="16.1200" cy="42.1782" r="0.3000" /> 
</g>
<g style="fill:#ECECEC; fill-opacity:1.0000; stroke:none;">
<circle cx="14.2200" cy="78.1382" r="0.3000" /> 
</g>
<g style="fill:#ECECEC; fill-opacity:1.0000; stroke:none;">
<circle cx="15.4200" cy="33.5382" r="0.3000" /> 
</g>
<g style="fill:#ECECEC; fill-opacity:1.0000; stroke:none;">
<circle cx="16.1200" cy="39.5382" r="0.3000" /> 
</g>
<g style="fill:#ECECEC; fill-opacity:1.0000; stroke:none;">
<circle cx="16.1200" cy="40.8882" r="0.3000" /> 
</g>
<g style="fill:#ECECEC; fill-opacity:1.0000; stroke:none;">
<circle cx="15.4200" cy="34.2383" r="0.3000" /> 
</g>
<g style="fill:#ECECEC; fill-opacity:1.0000; stroke:none;">
<circle cx="14.3650" cy="53.4282" r="0.3000" /> 
</g>
<g style="fill:#ECECEC; fill-opacity:1.0000; stroke:none;">
<circle cx="16.1200" cy="40.1882" r="0.3000" /> 
</g>
<g style="fill:#ECECEC; fill-opacity:1.0000; stroke:none;">
<circle cx="5.9200" cy="45.9382" r="0.3000" /> 
</g>
<g style="fill:#ECECEC; fill-opacity:1.0000; stroke:none;">
<circle cx="8.2200" cy="56.7383" r="0.3000" /> 
</g>
<g style="fill:#ECECEC; fill-opacity:1.0000; stroke:none;">
<circle cx="7.8200" cy="47.3382" r="0.3000" /> 
</g>
<g style="fill:#ECECEC; fill-opacity:1.0000; stroke:none;">
<circle cx="8.9200" cy="57.4382" r="0.3000" /> 
</g>
<g style="fill:#ECECEC; fill-opacity:1.0000; stroke:none;">
<circle cx="8.2200" cy="57.4382" r="0.3000" /> 
</g>
<g style="fill:#ECECEC; fill-opacity:1.0000; stroke:none;">
<circle cx="7.5200" cy="57.4382" r="0.3000" /> 
</g>
<g style="fill:#ECECEC; fill-opacity:1.0000; stroke:none;">
<circle cx="5.9200" cy="46.7383" r="0.3000" /> 
</g>
<g style="fill:#ECECEC; fill-opacity:1.0000; stroke:none;">
<circle cx="36.8200" cy="57.5382" r="0.3000" /> 
</g>
<g style="fill:#ECECEC; fill-opacity:1.0000; stroke:none;">
<circle cx="36.8200" cy="56.8382" r="0.3000" /> 
</g>
<g style="fill:#ECECEC; fill-opacity:1.0000; stroke:none;">
<circle cx="36.1200" cy="57.5382" r="0.3000" /> 
</g>
<g style="fill:#ECECEC; fill-opacity:1.0000; stroke:none;">
<circle cx="15.7300" cy="32.0583" r="0.3000" /> 
</g>
<g style="fill:#ECECEC; fill-opacity:1.0000; stroke:none;">
<circle cx="11.6200" cy="56.2782" r="0.3000" /> 
</g>
<g style="fill:#ECECEC; fill-opacity:1.0000; stroke:none;">
<circle cx="14.7400" cy="42.7482" r="0.3000" /> 
</g>
<g style="fill:#ECECEC; fill-opacity:1.0000; stroke:none;">
<circle cx="14.1200" cy="56.3382" r="0.3000" /> 
<path style="fill:#7FC87F; fill-opacity:1.0000; stroke:none;fill-rule:evenodd;"
d="M 50.0147,20.2581
50.0606,20.3108
50.0720,20.3606
50.0889,21.4207
50.0703,21.4881
50.0316,21.5255
50.0323,21.5265
49.8083,21.6793
49.6130,21.8605
49.6130,21.8605
49.4468,22.0689
49.3136,22.2996
49.2162,22.5477
49.2162,22.5477
49.1569,22.8075
49.1569,22.8075
49.1370,23.0732
49.1370,23.0733
49.1569,23.3390
49.1569,23.3390
49.2162,23.5988
49.2162,23.5988
49.2162,23.5988
49.3136,23.8469
49.4468,24.0776
49.6130,24.2860
49.8083,24.4672
50.0285,24.6174
50.0718,24.6382
50.1236,24.6850
50.1420,24.7479
50.1875,27.6007
50.7006,28.4078
50.7200,28.4743
50.7200,31.7382
50.8778,31.9015
51.0149,32.0433
51.0473,32.1052
51.0482,32.1489
50.9939,32.4918
50.9747,32.8582
50.9747,32.8582
50.9939,33.2247
51.0513,33.5870
51.0513,33.5870
51.1463,33.9415
51.2777,34.2840
51.4443,34.6109
51.6441,34.9186
51.6600,34.9382
51.8751,35.2038
52.1345,35.4632
52.2919,35.5906
52.4196,35.6941
52.7273,35.8939
52.7273,35.8939
53.0543,36.0605
53.3968,36.1920
53.5201,36.2250
53.5798,36.2614
53.6103,36.3242
53.6120,36.3454
53.4203,74.9824
53.4003,75.0493
53.3779,75.0751
51.0553,77.1073
50.9919,77.1367
50.9730,77.1380
49.7408,77.1316
12.7200,76.9382
9.2200,74.9382
9.2200,72.7382
7.3200,72.7382
6.4430,72.7382
6.3760,72.7186
6.3302,72.6658
6.3190,72.6152
6.3146,72.0382
6.2200,59.8382
6.2200,59.8382
6.2200,59.8382
4.4547,57.9749
4.4229,57.9127
4.4208,57.8878
4.4215,57.8382
6.1200,57.8382
6.2317,57.9127
6.5470,58.1229
6.5476,58.1233
6.6308,58.1788
7.2245,58.5746
8.5171,59.4363
8.5228,59.4403
9.2704,60.0010
9.3122,60.0570
9.3200,60.1002
9.3200,72.7382
9.5356,72.7382
9.6026,72.7579
9.6168,72.7685
9.7037,72.8438
9.7037,72.8438
9.7037,72.8438
9.7037,72.8438
9.7037,72.8438
9.7979,72.8869
9.8345,72.9036
9.9016,72.9233
9.9016,72.9233
10.0440,72.9437
10.0440,72.9437
16.1960,72.9437
16.1960,72.9437
16.3035,72.9322
16.3550,72.9210
16.3892,72.9096
16.4575,72.8869
16.4575,72.8869
16.4575,72.8869
16.5785,72.8091
16.6253,72.7685
16.6889,72.7395
16.7065,72.7382
18.1200,72.7382
18.1200,70.5622
18.1397,70.4952
18.1925,70.4495
18.2440,70.4382
28.4200,70.4382
28.4200,66.4383
29.3143,66.4383
29.3350,66.5950
29.3350,66.5950
29.3955,66.7411
29.4917,66.8665
29.6172,66.9628
29.7632,67.0233
29.8416,67.0336
29.9200,67.0439
29.9200,67.0439
29.9200,67.0439
29.9723,67.0371
30.0768,67.0233
30.2228,66.9628
30.3483,66.8665
30.4445,66.7411
30.5050,66.5950
30.5257,66.4382
30.5050,66.2815
30.4804,66.2219
30.4447,66.1357
30.4372,66.0662
30.4447,66.0408
30.4932,65.9237
30.5050,65.8950
30.5257,65.7382
30.5225,65.7142
30.5050,65.5815
30.5050,65.5815
30.4445,65.4354
30.3483,65.3100
30.2228,65.2137
30.0768,65.1532
30.0768,65.1532
29.9200,65.1326
29.9200,65.1326
29.7632,65.1532
29.7632,65.1532
29.6172,65.2137
29.4917,65.3100
29.3955,65.4354
29.3350,65.5815
29.3350,65.5815
29.3143,65.7382
29.3143,65.7383
29.3350,65.8950
29.3350,65.8950
29.3953,66.0408
29.4028,66.1103
29.3953,66.1357
29.3350,66.2815
29.3350,66.2815
29.3143,66.4382
29.3143,66.4383
28.4200,66.4383
28.4200,63.4622
28.4397,63.3952
28.4925,63.3495
28.5440,63.3382
32.0960,63.3382
32.1630,63.3579
32.2088,63.4107
32.2200,63.4622
32.2200,72.0382
33.2200,73.0382
44.6200,73.0382
46.3200,73.0382
46.3200,68.0382
46.3200,66.5382
46.3200,64.5382
41.8714,64.5382
41.8043,64.5186
41.7837,64.5019
35.8563,58.5746
35.8228,58.5132
35.8200,58.4869
35.8200,58.2458
35.8397,58.1788
35.8925,58.1330
35.9602,58.1229
35.9632,58.1233
35.9632,58.1233
36.1200,58.1439
36.1200,58.1439
36.1723,58.1371
36.2768,58.1233
36.3560,58.0905
36.4225,58.0629
36.4920,58.0554
36.5175,58.0629
36.5950,58.0950
36.6632,58.1233
36.7372,58.1330
36.8200,58.1439
36.8200,58.1439
36.8200,58.1439
36.8723,58.1371
36.9768,58.1233
37.1228,58.0628
37.2483,57.9665
37.3445,57.8411
37.4050,57.6950
37.4257,57.5382
37.4050,57.3815
37.3447,57.2357
37.3372,57.1662
37.3447,57.1408
37.3610,57.1013
37.4050,56.9950
37.4188,56.8905
37.4257,56.8382
37.4257,56.8382
37.4050,56.6815
37.4050,56.6815
37.3445,56.5354
37.2483,56.4100
37.1228,56.3137
36.9768,56.2532
36.9768,56.2532
36.8200,56.2326
36.8200,56.2326
36.6632,56.2532
36.6632,56.2532
36.5172,56.3137
36.3917,56.4100
36.2955,56.5354
36.2350,56.6815
36.2350,56.6815
36.2158,56.8273
36.1875,56.8912
36.1292,56.9296
36.1090,56.9340
35.9923,56.9494
35.9632,56.9532
35.9632,56.9532
35.9602,56.9536
35.8912,56.9428
35.8389,56.8965
35.8200,56.8307
35.8200,56.4921
35.8397,56.4251
35.8594,56.4015
36.0183,56.2532
37.3200,55.0382
37.3200,50.1720
37.3371,50.1091
39.3200,46.7383
39.3200,45.6382
39.1450,45.4632
39.1115,45.4019
39.1097,45.3594
39.1257,45.2383
39.1050,45.0815
39.0650,44.9848
39.0575,44.9153
39.0827,44.8599
39.4200,44.4382
39.4200,42.1623
39.4397,42.0952
39.4925,42.0495
39.5440,42.0382
42.9200,42.0382
42.9200,34.5382
36.5440,34.5382
36.4770,34.5186
36.4312,34.4658
36.4200,34.4142
36.4200,27.9383
16.5763,27.9383
16.5092,27.9186
16.4829,27.8959
15.1200,26.3382
15.1200,26.3382
13.9200,26.2382
15.8792,28.4078
17.6124,30.3271
17.6427,30.3901
17.6443,30.4119
17.5459,37.6978
17.5253,37.7645
17.4904,37.7994
15.3200,39.2383
15.3200,42.1849
15.3003,42.2520
15.2475,42.2977
15.1784,42.3077
15.1205,42.2833
15.0428,42.2237
14.8968,42.1632
14.8968,42.1632
14.7400,42.1426
14.7400,42.1426
14.5832,42.1632
14.5832,42.1632
14.4372,42.2237
14.3117,42.3200
14.2155,42.4454
14.1550,42.5915
14.1550,42.5915
14.1343,42.7482
14.1343,42.7483
14.1550,42.9050
14.1550,42.9050
14.2155,43.0511
14.3117,43.1765
14.4372,43.2728
14.5832,43.3333
14.6616,43.3436
14.7400,43.3539
14.7400,43.3539
14.7400,43.3539
14.7923,43.3471
14.8968,43.3333
15.0428,43.2728
15.1361,43.2012
15.2013,43.1760
15.2697,43.1901
15.3084,43.2278
15.3200,43.2382
15.3200,43.2383
19.1788,46.7013
19.2156,46.7607
19.2200,46.7936
19.2200,50.9142
19.2003,50.9813
19.1475,51.0270
19.0960,51.0382
14.5440,51.0382
14.4770,51.0186
14.4312,50.9658
14.4200,50.9142
14.4200,49.6785
17.2333,49.6785
17.2539,49.8352
17.2539,49.8352
17.3144,49.9813
17.4107,50.1068
17.5361,50.2030
17.6822,50.2635
17.7606,50.2738
17.8390,50.2842
17.8390,50.2842
17.8390,50.2842
17.8912,50.2773
17.9957,50.2635
18.1418,50.2030
18.2672,50.1068
18.3635,49.9813
18.4240,49.8352
18.4446,49.6785
18.4240,49.5217
18.3635,49.3756
18.2672,49.2502
18.1418,49.1539
17.9957,49.0934
17.9957,49.0934
17.8390,49.0728
17.8390,49.0728
17.6822,49.0934
17.6822,49.0934
17.5361,49.1539
17.4107,49.2502
17.3144,49.3756
17.2539,49.5217
17.2539,49.5217
17.2333,49.6785
17.2333,49.6785
14.4200,49.6785
14.4200,48.6382
14.4200,48.6382
12.6770,48.7351
12.6090,48.7191
12.5805,48.6970
12.5243,48.6382
10.4200,46.4382
10.3253,46.4330
8.6200,46.3382
8.6200,46.3382
8.4533,46.8593
8.4141,46.9171
8.3498,46.9446
8.2810,46.9330
8.2550,46.9145
8.2547,46.9149
8.2483,46.9100
8.2483,46.9100
8.1228,46.8137
8.0742,46.7936
7.9768,46.7532
7.9768,46.7532
7.8200,46.7326
7.8200,46.7326
7.6632,46.7532
7.6632,46.7532
7.5172,46.8137
7.3917,46.9100
7.2955,47.0354
7.2350,47.1815
7.2350,47.1815
7.2143,47.3382
7.2143,47.3383
7.2350,47.4950
7.2350,47.4950
7.2955,47.6411
7.3917,47.7665
7.5172,47.8628
7.6632,47.9233
7.7416,47.9336
7.8200,47.9439
7.8200,47.9439
7.9249,47.9301
7.9939,47.9409
8.0462,47.9873
8.0651,48.0545
8.0592,48.0909
7.8200,48.8382
7.8200,54.9927
7.8003,55.0597
7.7905,55.0730
6.1200,57.0382
6.1200,57.0382
6.1200,57.8382
4.4215,57.8382
4.4237,57.6950
4.5035,52.3883
5.6843,52.3883
5.7050,52.5450
5.7050,52.5450
5.7655,52.6911
5.8617,52.8165
5.9872,52.9128
6.1332,52.9733
6.2116,52.9836
6.2900,52.9939
6.2900,52.9939
6.2900,52.9939
6.3423,52.9871
6.4468,52.9733
6.5928,52.9128
6.7183,52.8165
6.8145,52.6911
6.8750,52.5450
6.8957,52.3882
6.8750,52.2315
6.8145,52.0854
6.7183,51.9600
6.5928,51.8637
6.4468,51.8032
6.4468,51.8032
6.2900,51.7826
6.2900,51.7826
6.1332,51.8032
6.1332,51.8032
5.9872,51.8637
5.8617,51.9600
5.7655,52.0854
5.7050,52.2315
5.7050,52.2315
5.6843,52.3882
5.6843,52.3883
4.5035,52.3883
4.5884,46.7383
5.3143,46.7383
5.3350,46.8950
5.3350,46.8950
5.3432,46.9149
5.3955,47.0411
5.4917,47.1665
5.6172,47.2628
5.7632,47.3233
5.8416,47.3336
5.9200,47.3439
5.9200,47.3439
5.9200,47.3439
5.9723,47.3371
6.0768,47.3233
6.2228,47.2628
6.3483,47.1665
6.4445,47.0411
6.5050,46.8950
6.5257,46.7383
6.5050,46.5815
6.4445,46.4354
6.4279,46.4137
6.4027,46.3486
6.4167,46.2801
6.4279,46.2628
6.4445,46.2411
6.5050,46.0950
6.5257,45.9382
6.5050,45.7815
6.4445,45.6354
6.3483,45.5100
6.2228,45.4137
6.1777,45.3950
6.0768,45.3532
6.0768,45.3532
5.9200,45.3326
5.9200,45.3326
5.7632,45.3532
5.7632,45.3532
5.6172,45.4137
5.4917,45.5100
5.3955,45.6354
5.3350,45.7815
5.3350,45.7815
5.3143,45.9382
5.3143,45.9383
5.3350,46.0950
5.3350,46.0950
5.3955,46.2411
5.4121,46.2628
5.4373,46.3279
5.4232,46.3964
5.4121,46.4137
5.3955,46.4354
5.3350,46.5815
5.3350,46.5815
5.3143,46.7382
5.3143,46.7383
4.5884,46.7383
4.6192,44.6899
4.6399,44.6232
4.6572,44.6024
9.9200,39.5382
9.9367,37.6722
9.9569,37.6054
10.0102,37.5601
10.0794,37.5508
10.1090,37.5612
10.1097,37.5597
10.1172,37.5628
10.1172,37.5628
10.2632,37.6233
10.3416,37.6336
10.4200,37.6439
10.4200,37.6439
10.4200,37.6439
10.4723,37.6371
10.5768,37.6233
10.7228,37.5628
10.8483,37.4665
10.9445,37.3411
11.0050,37.1950
11.0257,37.0382
11.0050,36.8815
10.9445,36.7354
10.8483,36.6100
10.7228,36.5137
10.7205,36.5127
10.5768,36.4532
10.5768,36.4532
10.4200,36.4326
10.4200,36.4326
10.2632,36.4532
10.2632,36.4532
10.1195,36.5127
10.0500,36.5202
9.9875,36.4889
9.9519,36.4289
9.9480,36.3971
9.9673,34.2383
14.8143,34.2383
14.8350,34.3950
14.8350,34.3950
14.8953,34.5408
14.8955,34.5411
14.9917,34.6665
15.1172,34.7628
15.2632,34.8233
15.4200,34.8439
15.4759,34.8366
15.5449,34.8473
15.5972,34.8937
15.6150,34.9433
15.6350,35.0950
15.6350,35.0950
15.6800,35.2038
15.6955,35.2411
15.7917,35.3665
15.9172,35.4628
16.0632,35.5233
16.1416,35.5336
16.2200,35.5439
16.2200,35.5439
16.2200,35.5439
16.2723,35.5371
16.3768,35.5233
16.5228,35.4628
16.6483,35.3665
16.7445,35.2411
16.8050,35.0950
16.8257,34.9382
16.8050,34.7815
16.7574,34.6665
16.7447,34.6357
16.7372,34.5662
16.7447,34.5408
16.7971,34.4142
16.8050,34.3950
16.8257,34.2383
16.8050,34.0815
16.7470,33.9414
16.7447,33.9357
16.7372,33.8662
16.7447,33.8408
16.7722,33.7743
16.8050,33.6950
16.8257,33.5382
16.8050,33.3815
16.7445,33.2354
16.6483,33.1100
16.5228,33.0137
16.3768,32.9532
16.3768,32.9532
16.2200,32.9326
16.2200,32.9326
16.0632,32.9532
16.0632,32.9532
15.9172,33.0137
15.8955,33.0303
15.8303,33.0555
15.7619,33.0415
15.7445,33.0303
15.7228,33.0137
15.5768,32.9532
15.5768,32.9532
15.4200,32.9326
15.4200,32.9326
15.2632,32.9532
15.2632,32.9532
15.1172,33.0137
14.9917,33.1100
14.8955,33.2354
14.8350,33.3815
14.8350,33.3815
14.8143,33.5382
14.8143,33.5383
14.8350,33.6950
14.8350,33.6950
14.8953,33.8408
14.9028,33.9103
14.8953,33.9357
14.8350,34.0815
14.8350,34.0815
14.8143,34.2382
14.8143,34.2383
9.9673,34.2383
9.9868,32.0583
15.1243,32.0583
15.1450,32.2150
15.1450,32.2150
15.2055,32.3611
15.3017,32.4865
15.4272,32.5828
15.5732,32.6433
15.6516,32.6536
15.7300,32.6639
15.7300,32.6639
15.7300,32.6639
15.7823,32.6571
15.8868,32.6433
16.0328,32.5828
16.1583,32.4865
16.2545,32.3611
16.3150,32.2150
16.3357,32.0583
16.3150,31.9015
16.2545,31.7554
16.1583,31.6300
16.0328,31.5337
15.9532,31.5007
15.8868,31.4732
15.8868,31.4732
15.7300,31.4526
15.7300,31.4526
15.5732,31.4732
15.5732,31.4732
15.4272,31.5337
15.3017,31.6300
15.2055,31.7554
15.1450,31.9015
15.1450,31.9015
15.1243,32.0582
15.1243,32.0583
9.9868,32.0583
10.0200,28.3382
9.4166,27.6007
9.1480,27.2725
9.1208,27.2082
9.1200,27.1940
9.1200,23.0733
33.6370,23.0733
33.6569,23.3390
33.6569,23.3390
33.7162,23.5988
33.7162,23.5988
33.7162,23.5988
33.8136,23.8469
33.9468,24.0776
34.1130,24.2860
34.3083,24.4672
34.5285,24.6174
34.7686,24.7330
35.0232,24.8115
35.0232,24.8115
35.0233,24.8115
35.2867,24.8512
35.2868,24.8512
35.2868,24.8513
35.2868,24.8513
35.5532,24.8513
35.5532,24.8513
35.5532,24.8512
35.8167,24.8115
35.8167,24.8115
35.8168,24.8115
36.0714,24.7330
36.3115,24.6174
36.5317,24.4672
36.7270,24.2860
36.8932,24.0776
37.0264,23.8469
37.1238,23.5988
37.1831,23.3390
37.2030,23.0732
37.1831,22.8075
37.1238,22.5477
37.0264,22.2996
36.8932,22.0689
36.7270,21.8605
36.5317,21.6793
36.3115,21.5291
36.0714,21.4135
35.8168,21.3350
35.8167,21.3350
35.5532,21.2952
35.5532,21.2952
35.2868,21.2952
35.2867,21.2952
35.0233,21.3350
35.0232,21.3350
34.7686,21.4135
34.5285,21.5291
34.5285,21.5291
34.3083,21.6793
34.1130,21.8605
34.1130,21.8605
33.9468,22.0689
33.8136,22.2996
33.7162,22.5477
33.7162,22.5477
33.6569,22.8075
33.6569,22.8075
33.6370,23.0732
33.6370,23.0733
9.1200,23.0733
9.1200,20.4719
9.1397,20.4049
9.1925,20.3591
9.2437,20.3479
49.9476,20.2386
Z" /> 
<path style="fill:#7FC87F; fill-opacity:1.0000; stroke:none;fill-rule:evenodd;"
d="M 9.2200,74.9382
12.7200,76.9382
49.7408,77.1316
49.7408,77.1316
50.0034,87.3841
49.9854,87.4516
49.9338,87.4987
49.9228,87.5035
49.7862,87.5544
49.7862,87.5544
49.5379,87.6900
49.5379,87.6900
49.3114,87.8596
49.3114,87.8596
49.1113,88.0596
49.1113,88.0596
48.9418,88.2861
48.9417,88.2861
48.8062,88.5345
48.8062,88.5345
48.7312,88.7355
48.7190,88.7682
48.7073,88.7996
48.6471,89.0760
48.6471,89.0760
48.6269,89.3582
48.6269,89.3583
48.6471,89.6405
48.6471,89.6405
48.6906,89.8404
48.7073,89.9169
48.7632,90.0669
48.8062,90.1820
48.8062,90.1820
48.9417,90.4304
48.9418,90.4304
49.1113,90.6569
49.1113,90.6569
49.3114,90.8569
49.3114,90.8569
49.5379,91.0265
49.5379,91.0265
49.7862,91.1621
49.7862,91.1621
49.7862,91.1621
49.7862,91.1621
50.0247,91.2510
50.0806,91.2929
50.1050,91.3584
50.1053,91.3640
50.1167,91.8108
50.0988,91.8783
50.0472,91.9254
49.9925,91.9379
9.4437,91.8386
9.3767,91.8187
9.3311,91.7658
9.3200,91.7146
9.3200,90.8702
9.3397,90.8032
9.3925,90.7575
9.4440,90.7462
9.6254,90.7462
9.6850,90.7398
9.8198,90.6895
9.9350,90.6033
10.0213,90.4881
10.0716,90.3532
10.0780,90.2936
10.0780,88.7683
21.6169,88.7683
21.6371,89.0505
21.6371,89.0505
21.6973,89.3269
21.6973,89.3269
21.7587,89.4915
21.7962,89.5920
21.7962,89.5920
21.9317,89.8404
21.9318,89.8404
22.1013,90.0669
22.1013,90.0669
22.3014,90.2669
22.3014,90.2669
22.5279,90.4365
22.5279,90.4365
22.7762,90.5721
22.7762,90.5721
22.7762,90.5721
23.0413,90.6710
23.3178,90.7311
23.5783,90.7497
23.6000,90.7513
23.6000,90.7513
23.6000,90.7513
23.6202,90.7499
23.8822,90.7311
24.1587,90.6710
24.4238,90.5721
24.6721,90.4365
24.8986,90.2669
25.0987,90.0669
25.2682,89.8404
25.4038,89.5920
25.4910,89.3583
33.1269,89.3583
33.1471,89.6405
33.1471,89.6405
33.1906,89.8404
33.2073,89.9169
33.2632,90.0669
33.3062,90.1820
33.3062,90.1820
33.4417,90.4304
33.4418,90.4304
33.6113,90.6569
33.6113,90.6569
33.8114,90.8569
33.8114,90.8569
34.0379,91.0265
34.0379,91.0265
34.2862,91.1621
34.2862,91.1621
34.2862,91.1621
34.5513,91.2610
34.8278,91.3211
35.0883,91.3397
35.1100,91.3413
35.1100,91.3413
35.1100,91.3413
35.1302,91.3399
35.3922,91.3211
35.6687,91.2610
35.9338,91.1621
36.1821,91.0265
36.4086,90.8569
36.6087,90.6569
36.7782,90.4304
36.9138,90.1820
37.0127,89.9169
37.0729,89.6405
37.0931,89.3582
37.0729,89.0760
37.0127,88.7996
36.9138,88.5345
36.8874,88.4860
36.7783,88.2861
36.7782,88.2861
36.6087,88.0596
36.6087,88.0596
36.4086,87.8596
36.4086,87.8596
36.1821,87.6900
36.1821,87.6900
35.9338,87.5544
35.9338,87.5544
35.7845,87.4987
35.6687,87.4555
35.6687,87.4555
35.6687,87.4555
35.3922,87.3954
35.3922,87.3954
35.1100,87.3752
35.1100,87.3752
34.8278,87.3954
34.8278,87.3954
34.5513,87.4555
34.5513,87.4555
34.5513,87.4555
34.5135,87.4696
34.2862,87.5544
34.2862,87.5544
34.0379,87.6900
34.0379,87.6900
33.8114,87.8596
33.8114,87.8596
33.6113,88.0596
33.6113,88.0596
33.4418,88.2861
33.4417,88.2861
33.3062,88.5345
33.3062,88.5345
33.2312,88.7355
33.2190,88.7682
33.2073,88.7996
33.1471,89.0760
33.1471,89.0760
33.1269,89.3582
33.1269,89.3583
25.4910,89.3583
25.5027,89.3269
25.5629,89.0505
25.5831,88.7682
25.5629,88.4860
25.5027,88.2096
25.4038,87.9445
25.3575,87.8596
25.2683,87.6961
25.2682,87.6961
25.0987,87.4696
25.0987,87.4696
24.8986,87.2696
24.8986,87.2696
24.6721,87.1000
24.6721,87.1000
24.4238,86.9644
24.4238,86.9644
24.3233,86.9269
24.1587,86.8655
24.1587,86.8655
24.1587,86.8655
23.8822,86.8054
23.8822,86.8054
23.6000,86.7852
23.6000,86.7852
23.3178,86.8054
23.3178,86.8054
23.0413,86.8655
23.0413,86.8655
23.0413,86.8655
22.9772,86.8894
22.7762,86.9644
22.7762,86.9644
22.5279,87.1000
22.5279,87.1000
22.3014,87.2696
22.3014,87.2696
22.1013,87.4696
22.1013,87.4696
21.9318,87.6961
21.9317,87.6961
21.7962,87.9445
21.7962,87.9445
21.6973,88.2096
21.6371,88.4860
21.6371,88.4860
21.6169,88.7682
21.6169,88.7683
10.0780,88.7683
10.0780,87.2429
10.0716,87.1833
10.0405,87.1000
10.0213,87.0484
10.0213,87.0484
9.9350,86.9332
9.9350,86.9332
9.8198,86.8470
9.8198,86.8470
9.6850,86.7967
9.6850,86.7967
9.6254,86.7903
9.6254,86.7903
9.6254,86.7903
9.6254,86.7903
9.4440,86.7903
9.3770,86.7706
9.3312,86.7178
9.3200,86.6662
9.3200,78.1383
11.1144,78.1383
11.1346,78.3175
11.1346,78.3175
11.1942,78.4878
11.2902,78.6405
11.4177,78.7681
11.5705,78.8640
11.7407,78.9236
11.7408,78.9236
11.7412,78.9237
11.7415,78.9239
11.7473,78.9259
11.7470,78.9269
11.8022,78.9578
11.8314,79.0113
11.8323,79.0109
11.8344,79.0167
11.8345,79.0170
11.8346,79.0175
11.8346,79.0175
11.8665,79.1087
11.8942,79.1878
11.8942,79.1878
11.9902,79.3405
12.1177,79.4681
12.2705,79.5640
12.4407,79.6236
12.4407,79.6236
12.4407,79.6236
12.6200,79.6438
12.6200,79.6438
12.6200,79.6438
12.7992,79.6236
12.7993,79.6236
12.7993,79.6236
12.7993,79.6236
12.7993,79.6236
12.9290,79.5782
12.9988,79.5746
13.0110,79.5782
13.1407,79.6236
13.1407,79.6236
13.1407,79.6236
13.1407,79.6236
13.1407,79.6236
13.3200,79.6438
13.3200,79.6438
13.3200,79.6438
13.4992,79.6236
13.4993,79.6236
13.4993,79.6236
13.6695,79.5640
13.8223,79.4681
13.9498,79.3405
14.0458,79.1878
14.1021,79.0269
14.1428,78.9701
14.2078,78.9443
14.2191,78.9438
14.2200,78.9438
14.3992,78.9236
14.3993,78.9236
14.3993,78.9236
14.5695,78.8640
14.7223,78.7681
14.8498,78.6405
14.9458,78.4878
15.0054,78.3175
15.0256,78.1382
15.0054,77.9590
14.9458,77.7887
14.8498,77.6360
14.7223,77.5084
14.6700,77.4756
14.5695,77.4125
14.3993,77.3529
14.3992,77.3529
14.2200,77.3327
14.2200,77.3327
14.0407,77.3529
14.0407,77.3529
13.8705,77.4125
13.8360,77.4341
13.7687,77.4531
13.7040,77.4341
13.6695,77.4125
13.4993,77.3529
13.4992,77.3529
13.3200,77.3327
13.3200,77.3327
13.1407,77.3529
13.1407,77.3529
13.0110,77.3983
12.9412,77.4019
12.9290,77.3983
12.7993,77.3529
12.7992,77.3529
12.6200,77.3327
12.6200,77.3327
12.4407,77.3529
12.4407,77.3529
12.3110,77.3983
12.2412,77.4019
12.2290,77.3983
12.0993,77.3529
12.0992,77.3529
11.9200,77.3327
11.9200,77.3327
11.7408,77.3529
11.7407,77.3529
11.5705,77.4125
11.4177,77.5084
11.2902,77.6360
11.1942,77.7887
11.1346,77.9590
11.1346,77.9590
11.1144,78.1382
11.1144,78.1383
9.3200,78.1383
9.3200,77.5383
9.3200,77.5382
7.3586,75.6749
7.3235,75.6145
7.3200,75.5850
7.3200,72.7382
9.2200,72.7382
Z" /> 
<path style="fill:#7FC87F; fill-opacity:1.0000; stroke:none;fill-rule:evenodd;"
d="M 16.2630,59.8579
16.3088,59.9107
16.3200,59.9622
16.3200,65.7142
16.3003,65.7813
16.2475,65.8270
16.1960,65.8383
10.0440,65.8383
9.9770,65.8186
9.9312,65.7658
9.9200,65.7142
9.9200,59.9622
9.9397,59.8952
9.9925,59.8495
10.0440,59.8382
16.1960,59.8382
Z" /> 
<path style="fill:#7FC87F; fill-opacity:1.0000; stroke:none;fill-rule:evenodd;"
d="M 57.9462,17.4580
58.0132,17.4778
58.0588,17.5307
58.0699,17.5821
58.0201,94.4055
58.0004,94.4725
57.9475,94.5182
57.8972,94.5294
3.1964,95.0377
3.1953,95.0378
1.1139,95.0378
1.0469,95.0181
1.0011,94.9653
0.9899,94.9138
0.9897,94.4725
0.9718,57.8801
3.9153,57.8801
3.9171,57.9312
3.9193,57.9562
3.9193,57.9562
3.9262,58.0068
3.9262,58.0068
3.9642,58.1175
3.9729,58.1429
3.9837,58.1640
4.0047,58.2051
4.0878,58.3226
4.0878,58.3226
5.6825,60.0059
5.7143,60.0681
5.7164,60.0902
5.8136,72.6191
5.8136,72.6191
5.8255,72.7246
5.8255,72.7246
5.8367,72.7751
5.8704,72.8758
5.8704,72.8758
5.9482,72.9968
5.9482,72.9968
5.9940,73.0496
5.9940,73.0496
5.9940,73.0496
6.1027,73.1438
6.1027,73.1438
6.1027,73.1438
6.2336,73.2036
6.2377,73.2051
6.2371,73.2068
6.2897,73.2406
6.3187,73.3041
6.3200,73.3218
6.3200,76.2382
8.7659,78.1135
8.8072,78.1699
8.8145,78.2119
8.8145,86.6662
8.7948,86.7333
8.7420,86.7790
8.6905,86.7903
6.5746,86.7903
6.5746,86.7903
6.5150,86.7967
6.3802,86.8470
6.3802,86.8470
6.2650,86.9332
6.2650,86.9332
6.1787,87.0484
6.1787,87.0484
6.1284,87.1833
6.1220,87.2429
6.1220,87.2429
6.1220,90.2936
6.1220,90.2936
6.1284,90.3532
6.1787,90.4881
6.1787,90.4881
6.2650,90.6033
6.2650,90.6033
6.3802,90.6895
6.3802,90.6895
6.5150,90.7398
6.5150,90.7398
6.5219,90.7406
6.5746,90.7462
8.6905,90.7462
8.7575,90.7659
8.8033,90.8187
8.8145,90.8702
8.8145,91.7146
8.8259,91.8214
8.8259,91.8214
8.8370,91.8726
8.8370,91.8726
8.8707,91.9746
8.9482,92.0959
8.9482,92.0959
8.9482,92.0959
8.9939,92.1488
8.9939,92.1488
9.1024,92.2433
9.2331,92.3034
9.3001,92.3232
9.3002,92.3232
9.3002,92.3232
9.4425,92.3441
49.9912,92.4434
50.0876,92.4326
50.1056,92.4306
50.1056,92.4306
50.1056,92.4306
50.1603,92.4180
50.2689,92.3797
50.3879,92.2988
50.4375,92.2536
50.4389,92.2523
50.4395,92.2517
50.4395,92.2517
50.4395,92.2517
50.5309,92.1406
50.5873,92.0082
50.6052,91.9407
50.6221,91.7978
50.6134,91.4597
50.6314,91.3922
50.6830,91.3451
50.7285,91.3328
50.8922,91.3211
51.1687,91.2610
51.4338,91.1621
51.6821,91.0265
51.9086,90.8569
52.1087,90.6569
52.2782,90.4304
52.4138,90.1820
52.5127,89.9169
52.5729,89.6405
52.5931,89.3582
52.5729,89.0760
52.5127,88.7996
52.4138,88.5345
52.2782,88.2861
52.2782,88.2861
52.1087,88.0596
52.1087,88.0596
51.9086,87.8596
51.9086,87.8596
51.6821,87.6900
51.6821,87.6900
51.4338,87.5544
51.4338,87.5544
51.3333,87.5169
51.1687,87.4555
51.1687,87.4555
51.1687,87.4555
50.8922,87.3954
50.8922,87.3954
50.6209,87.3760
50.5554,87.3516
50.5135,87.2956
50.5058,87.2555
50.4826,86.3530
50.3330,80.5103
50.3510,80.4428
50.4026,80.3957
50.4092,80.3927
51.0200,80.1382
51.0200,77.7428
51.0397,77.6758
51.0925,77.6301
51.1085,77.6240
51.2041,77.5955
51.2675,77.5661
51.2676,77.5661
51.3882,77.4878
53.7108,75.4555
53.7600,75.4061
53.7823,75.3803
53.8242,75.3247
53.8846,75.1941
53.9046,75.1272
53.9258,74.9849
54.1170,36.4578
54.1175,36.3479
54.1175,36.3479
54.1175,36.3479
54.1159,36.3046
54.1142,36.2834
54.1088,36.2404
54.0650,36.1034
54.0345,36.0405
54.0345,36.0405
53.9538,35.9214
53.8429,35.8298
53.7832,35.7934
53.7832,35.7934
53.7832,35.7934
53.6907,35.7538
53.6368,35.7093
53.6156,35.6427
53.6155,35.6392
53.6200,34.7383
51.5406,32.5872
51.5082,32.5253
51.5073,32.4816
51.5475,32.2280
51.5536,32.1388
51.5527,32.0951
51.5430,32.0061
51.4950,31.8705
51.4626,31.8086
51.3783,31.6920
51.3424,31.6548
51.2603,31.5699
51.2279,31.5080
51.2255,31.4837
51.2255,28.4743
51.2255,28.4743
51.2054,28.3331
51.2054,28.3331
51.2054,28.3331
51.1860,28.2666
51.1272,28.1366
50.8381,27.6818
50.7094,27.4795
50.6901,27.4150
50.6899,27.4051
50.6543,25.1725
50.6729,25.1051
50.7250,25.0585
50.7871,25.0468
50.9200,25.0563
50.9200,25.0563
50.9402,25.0549
51.2022,25.0361
51.4787,24.9760
51.7438,24.8771
51.9921,24.7415
52.2186,24.5719
52.4187,24.3719
52.5882,24.1454
52.7238,23.8970
52.8227,23.6319
52.8829,23.3555
52.9031,23.0732
52.8829,22.7910
52.8227,22.5146
52.7238,22.2495
52.5882,22.0011
52.5882,22.0011
52.4187,21.7746
52.4187,21.7746
52.2186,21.5746
52.2186,21.5746
51.9921,21.4050
51.9921,21.4050
51.7438,21.2694
51.7438,21.2694
51.6433,21.2319
51.4787,21.1705
51.4787,21.1705
51.4787,21.1705
51.2022,21.1104
51.2022,21.1104
50.9200,21.0902
50.9200,21.0902
50.7203,21.1045
50.6520,21.0896
50.6026,21.0402
50.5874,20.9828
50.5868,20.9433
50.5774,20.3525
50.5774,20.3525
50.5774,20.3525
50.5649,20.2486
50.5649,20.2486
50.5535,20.1987
50.5308,20.1316
50.5199,20.0995
50.5199,20.0995
50.5199,20.0995
50.4418,19.9787
50.4404,19.9771
50.3959,19.9260
50.3959,19.9260
50.2869,19.8321
50.2869,19.8321
50.1558,19.7727
50.1558,19.7727
50.1558,19.7727
50.0933,19.7545
50.0912,19.7538
50.0887,19.7532
50.0427,19.7467
49.9463,19.7331
9.2423,19.8424
9.1355,19.8541
9.0844,19.8653
8.9825,19.8993
8.8615,19.9771
8.8615,19.9771
8.8087,20.0228
8.7144,20.1316
8.7144,20.1316
8.6547,20.2625
8.6350,20.3295
8.6185,20.4439
8.5895,20.5075
8.5307,20.5452
8.4958,20.5502
6.9346,20.5502
6.9346,20.5503
6.8750,20.5567
6.7402,20.6070
6.7402,20.6070
6.6250,20.6932
6.6250,20.6932
6.5387,20.8084
6.5387,20.8084
6.4884,20.9433
6.4820,21.0029
6.4820,21.0029
6.4820,24.0536
6.4820,24.0536
6.4884,24.1132
6.5387,24.2481
6.5387,24.2481
6.6250,24.3633
6.6250,24.3633
6.7402,24.4495
6.7402,24.4495
6.8750,24.4998
6.8750,24.4998
6.8819,24.5006
6.9346,24.5062
8.4905,24.5062
8.5575,24.5259
8.6033,24.5787
8.6145,24.6302
8.6145,27.1940
8.6153,27.2229
8.6161,27.2371
8.6186,27.2659
8.6552,27.4051
8.6552,27.4051
8.6825,27.4694
8.6825,27.4694
8.7568,27.5926
8.8298,27.6818
8.8570,27.7462
8.8457,27.8137
8.6100,28.3082
8.6100,28.3082
8.5902,33.5184
8.5800,33.5528
8.5800,39.4882
8.5603,39.5553
8.5566,39.5607
7.1838,41.4668
7.1692,41.4837
5.8551,42.7483
4.3067,44.2382
4.2691,44.2785
4.2518,44.2993
4.2188,44.3435
4.2188,44.3435
4.1571,44.4735
4.1364,44.5402
4.1138,44.6823
4.1138,44.6823
4.0949,45.9383
4.0830,46.7307
4.0829,46.7382
4.0829,46.7383
3.9980,52.3807
3.9979,52.3882
3.9979,52.3883
3.9200,57.5677
3.9200,57.5677
3.9161,57.8306
3.9161,57.8306
3.9153,57.8801
0.9718,57.8801
0.9600,33.7789
0.9797,33.7118
0.9954,33.6921
1.0000,33.6874
1.0000,33.6874
1.0000,17.4625
1.0197,17.3955
1.0725,17.3497
1.1243,17.3385
Z" /> 
<path style="fill:#7FC87F; fill-opacity:1.0000; stroke:none;fill-rule:evenodd;"
d="M 16.2630,66.4579
16.3088,66.5107
16.3200,66.5622
16.3200,72.3143
16.3003,72.3813
16.2475,72.4270
16.1960,72.4382
10.0440,72.4382
9.9770,72.4186
9.9312,72.3658
9.9200,72.3143
9.9200,66.5622
9.9397,66.4952
9.9925,66.4495
10.0440,66.4382
16.1960,66.4382
Z" /> 
<path style="fill:#7FC87F; fill-opacity:1.0000; stroke:none;fill-rule:evenodd;"
d="M 25.3630,35.8634
25.4088,35.9162
25.4200,35.9677
25.4200,38.8143
25.4003,38.8813
25.3475,38.9270
25.2960,38.9382
20.2440,38.9382
20.1770,38.9186
20.1312,38.8658
20.1200,38.8143
20.1200,35.9677
20.1397,35.9007
20.1925,35.8550
20.2440,35.8438
25.2960,35.8438
Z" /> 
<path style="fill:#7FC87F; fill-opacity:1.0000; stroke:none;fill-rule:evenodd;"
d="M 26.2630,41.3579
26.3088,41.4107
26.3200,41.4622
26.3200,46.2134
26.3003,46.2805
26.2475,46.3262
26.1952,46.3374
20.3334,46.2991
20.2665,46.2789
20.2211,46.2258
20.2102,46.1748
20.2198,41.4620
20.2396,41.3950
20.2925,41.3494
20.3438,41.3382
26.1960,41.3382
Z" /> 
<path style="fill:#7FC87F; fill-opacity:1.0000; stroke:none;fill-rule:evenodd;"
d="M 25.3630,31.6579
25.4088,31.7107
25.4200,31.7622
25.4200,35.2142
25.4003,35.2813
25.3475,35.3270
25.2960,35.3382
20.2440,35.3382
20.1770,35.3186
20.1312,35.2658
20.1200,35.2142
20.1200,31.7622
20.1397,31.6952
20.1925,31.6495
20.2440,31.6382
25.2960,31.6382
Z" /> 
<path style="fill:#7FC87F; fill-opacity:1.0000; stroke:none;fill-rule:evenodd;"
d="M 15.5508,33.2731
15.5586,33.2764
15.5782,33.2866
15.5793,33.2873
15.5794,33.2874
15.5967,33.2985
15.7005,33.3408
15.7689,33.3548
15.7689,33.3548
15.7689,33.3548
15.7764,33.3556
15.8301,33.3610
15.8301,33.3610
15.8301,33.3610
15.9405,33.3405
15.9405,33.3405
15.9405,33.3405
16.0056,33.3153
16.0505,33.2901
16.0637,33.2837
16.0892,33.2731
16.1366,33.2637
16.3034,33.2637
16.3508,33.2731
16.3537,33.2743
16.3817,33.2905
16.4145,33.3156
16.4557,33.3721
16.4630,33.4124
16.4667,33.6889
16.4596,33.7318
16.4515,33.7547
16.4515,33.7547
16.4441,33.7801
16.4422,33.7870
16.4422,33.7870
16.4334,33.8989
16.4334,33.8989
16.4409,33.9684
16.4409,33.9684
16.4624,34.0526
16.4624,34.0526
16.4627,34.0534
16.4628,34.0538
16.4638,34.0568
16.4635,34.0569
16.4721,34.0991
16.4757,34.3655
16.4663,34.4146
16.4624,34.4239
16.4624,34.4239
16.4515,34.4547
16.4515,34.4547
16.4441,34.4801
16.4422,34.4870
16.4422,34.4870
16.4334,34.5989
16.4334,34.5989
16.4409,34.6684
16.4409,34.6684
16.4624,34.7526
16.4624,34.7526
16.4724,34.7766
16.4818,34.8224
16.4843,35.0130
16.4655,35.0803
16.4134,35.1268
16.3603,35.1387
16.0666,35.1387
15.9995,35.1190
15.9538,35.0662
15.9520,35.0622
15.9388,35.0303
15.9305,34.9991
15.9179,34.9035
15.9179,34.9035
15.9025,34.8400
15.8846,34.7904
15.8688,34.7539
15.8371,34.7130
15.8115,34.6480
15.8110,34.6370
15.8110,34.5887
15.7356,34.5887
15.6943,34.5816
15.5920,34.5455
15.5229,34.5347
15.4360,34.5337
15.4316,34.5340
15.4315,34.5337
15.4038,34.5337
15.3592,34.5278
15.3279,34.5194
15.2863,34.5022
15.2583,34.4860
15.2557,34.4840
15.2145,34.4276
15.2072,34.3880
15.1995,33.9763
15.1998,33.9644
15.2049,33.8989
15.2066,33.8776
15.1991,33.8081
15.1991,33.8081
15.1983,33.8038
15.1987,33.8037
15.1958,33.7819
15.1887,33.4074
15.2071,33.3400
15.2372,33.3067
15.2583,33.2905
15.2863,33.2743
15.2892,33.2731
15.3366,33.2637
15.5034,33.2637
Z" /> 
<path style="fill:#7FC87F; fill-opacity:1.0000; stroke:none;fill-rule:evenodd;"
d="M 11.9722,77.8473
11.9992,77.8534
12.0621,77.8754
12.0866,77.8833
12.0988,77.8869
12.1237,77.8935
12.2669,77.9067
12.3336,77.9033
12.3356,77.9032
12.3367,77.9031
12.3367,77.9031
12.3367,77.9031
12.4779,77.8754
12.5408,77.8534
12.5678,77.8473
12.6061,77.8429
12.6339,77.8429
12.6722,77.8473
12.6992,77.8534
12.7621,77.8754
12.7866,77.8833
12.7988,77.8869
12.8237,77.8935
12.9669,77.9067
13.0336,77.9033
13.0356,77.9032
13.0367,77.9031
13.0367,77.9031
13.0367,77.9031
13.1779,77.8754
13.2408,77.8534
13.2678,77.8473
13.3061,77.8429
13.3339,77.8429
13.3722,77.8473
13.3992,77.8534
13.4621,77.8754
13.4680,77.8775
13.4779,77.8815
13.5616,77.9192
13.5616,77.9192
13.5616,77.9192
13.5616,77.9192
13.5640,77.9201
13.5647,77.9206
13.5655,77.9209
13.5654,77.9211
13.6201,77.9618
13.6447,78.0272
13.6450,78.0364
13.6450,78.7910
13.6310,78.8482
13.6250,78.8599
13.6250,78.8599
13.5921,78.9539
13.5800,78.9789
13.5595,79.0115
13.5422,79.0332
13.5150,79.0605
13.4933,79.0778
13.4671,79.0942
13.4011,79.1132
13.2338,79.1132
13.1928,79.1063
13.1779,79.1011
13.1534,79.0932
13.1412,79.0896
13.1412,79.0896
13.1412,79.0896
13.1163,79.0830
13.1163,79.0830
12.9730,79.0698
12.9033,79.0734
12.7621,79.1011
12.7621,79.1011
12.7472,79.1063
12.7062,79.1132
12.5389,79.1132
12.4729,79.0942
12.4729,79.0942
12.4467,79.0778
12.4250,79.0605
12.3978,79.0332
12.3805,79.0115
12.3600,78.9789
12.3479,78.9539
12.3270,78.8940
12.3200,78.8530
12.3200,78.4882
12.0305,78.4882
11.9729,78.4732
11.9657,78.4732
11.9447,78.4646
11.9436,78.4640
11.9354,78.4562
11.9156,78.4492
11.9156,78.4492
11.9143,78.4488
11.9143,78.4488
11.9084,78.4467
11.9084,78.4467
11.9077,78.4465
11.9077,78.4465
11.8977,78.4430
11.8600,78.4298
11.8044,78.4103
11.7794,78.3983
11.7467,78.3778
11.7250,78.3605
11.6978,78.3332
11.6805,78.3115
11.6600,78.2789
11.6479,78.2539
11.6352,78.2175
11.6290,78.1904
11.6247,78.1521
11.6247,78.1244
11.6290,78.0861
11.6352,78.0590
11.6479,78.0226
11.6600,77.9976
11.6805,77.9650
11.6978,77.9433
11.7250,77.9160
11.7467,77.8987
11.7794,77.8782
11.8044,77.8662
11.8408,77.8534
11.8678,77.8473
11.8928,77.8444
11.9061,77.8429
11.9339,77.8429
Z" /> 
<path style="fill:#7FC87F; fill-opacity:1.0000; stroke:none;fill-rule:evenodd;"
d="M 8.5380,56.4579
8.5838,56.5107
8.5950,56.5622
8.5950,57.1133
9.1710,57.1133
9.2380,57.1329
9.2838,57.1857
9.2950,57.2372
9.2950,57.6392
9.2753,57.7063
9.2225,57.7520
9.1710,57.7632
7.3190,57.7632
7.2520,57.7436
7.2062,57.6908
7.1950,57.6392
7.1950,57.2839
7.2147,57.2168
7.2675,57.1711
7.3366,57.1611
7.3539,57.1649
7.4352,57.1887
7.4352,57.1887
7.4352,57.1887
7.5648,57.1887
7.5648,57.1887
7.6891,57.1523
7.6891,57.1523
7.7191,57.1329
7.7862,57.1133
7.8950,57.1133
7.8950,56.9848
7.9062,56.9332
7.9367,56.8665
7.9551,56.7383
7.9367,56.6100
7.9367,56.6100
7.9342,56.6015
7.9365,56.6008
7.9285,56.5446
7.9575,56.4810
8.0163,56.4433
8.0512,56.4382
8.4710,56.4382
Z" /> 
</g>
<g style="fill:#FFFFFF; fill-opacity:1.0000; stroke:none;">
<circle cx="2.4240" cy="39.2142" r="0.1500" /> 
</g>
<g style="fill:#FFFFFF; fill-opacity:1.0000; stroke:none;">
<circle cx="25.8910" cy="93.7313" r="0.1500" /> 
</g>
<g style="fill:#FFFFFF; fill-opacity:1.0000; stroke:none;">
<circle cx="56.3990" cy="59.8332" r="0.1500" /> 
</g>
<g style="fill:#FFFFFF; fill-opacity:1.0000; stroke:none;">
<circle cx="2.4240" cy="69.2142" r="0.1500" /> 
</g>
<g style="fill:#FFFFFF; fill-opacity:1.0000; stroke:none;">
<circle cx="29.4200" cy="18.2383" r="0.1500" /> 
</g>
<g style="fill:#FFFFFF; fill-opacity:1.0000; stroke:none;">
<circle cx="41.4200" cy="18.2383" r="0.1500" /> 
</g>
<g style="fill:#FFFFFF; fill-opacity:1.0000; stroke:none;">
<circle cx="56.3990" cy="62.8332" r="0.1500" /> 
</g>
<g style="fill:#FFFFFF; fill-opacity:1.0000; stroke:none;">
<circle cx="2.4240" cy="90.0482" r="0.1500" /> 
</g>
<g style="fill:#FFFFFF; fill-opacity:1.0000; stroke:none;">
<circle cx="56.2720" cy="91.4453" r="0.1500" /> 
</g>
<g style="fill:#FFFFFF; fill-opacity:1.0000; stroke:none;">
<circle cx="7.8910" cy="93.7313" r="0.1500" /> 
</g>
<g style="fill:#FFFFFF; fill-opacity:1.0000; stroke:none;">
<circle cx="56.3990" cy="26.8332" r="0.1500" /> 
</g>
<g style="fill:#FFFFFF; fill-opacity:1.0000; stroke:none;">
<circle cx="56.2720" cy="85.9052" r="0.1500" /> 
</g>
<g style="fill:#FFFFFF; fill-opacity:1.0000; stroke:none;">
<circle cx="47.4200" cy="18.2383" r="0.1500" /> 
</g>
<g style="fill:#FFFFFF; fill-opacity:1.0000; stroke:none;">
<circle cx="28.8910" cy="93.7313" r="0.1500" /> 
</g>
<g style="fill:#FFFFFF; fill-opacity:1.0000; stroke:none;">
<circle cx="56.3990" cy="41.8332" r="0.1500" /> 
</g>
<g style="fill:#FFFFFF; fill-opacity:1.0000; stroke:none;">
<circle cx="56.2720" cy="82.9052" r="0.1500" /> 
</g>
<g style="fill:#FFFFFF; fill-opacity:1.0000; stroke:none;">
<circle cx="11.4200" cy="18.2383" r="0.1500" /> 
</g>
<g style="fill:#FFFFFF; fill-opacity:1.0000; stroke:none;">
<circle cx="8.4200" cy="18.2383" r="0.1500" /> 
</g>
<g style="fill:#FFFFFF; fill-opacity:1.0000; stroke:none;">
<circle cx="4.8910" cy="93.7313" r="0.1500" /> 
</g>
<g style="fill:#FFFFFF; fill-opacity:1.0000; stroke:none;">
<circle cx="2.4240" cy="42.2142" r="0.1500" /> 
</g>
<g style="fill:#FFFFFF; fill-opacity:1.0000; stroke:none;">
<circle cx="56.2720" cy="93.7313" r="0.1500" /> 
</g>
<g style="fill:#FFFFFF; fill-opacity:1.0000; stroke:none;">
<circle cx="19.8910" cy="93.7313" r="0.1500" /> 
</g>
<g style="fill:#FFFFFF; fill-opacity:1.0000; stroke:none;">
<circle cx="49.8910" cy="93.7313" r="0.1500" /> 
</g>
<g style="fill:#FFFFFF; fill-opacity:1.0000; stroke:none;">
<circle cx="2.4240" cy="21.2142" r="0.1500" /> 
</g>
<g style="fill:#FFFFFF; fill-opacity:1.0000; stroke:none;">
<circle cx="2.4200" cy="18.2383" r="0.1500" /> 
</g>
<g style="fill:#FFFFFF; fill-opacity:1.0000; stroke:none;">
<circle cx="22.8910" cy="93.7313" r="0.1500" /> 
</g>
<g style="fill:#FFFFFF; fill-opacity:1.0000; stroke:none;">
<circle cx="2.4240" cy="84.0482" r="0.1500" /> 
</g>
<g style="fill:#FFFFFF; fill-opacity:1.0000; stroke:none;">
<circle cx="26.4200" cy="18.2383" r="0.1500" /> 
</g>
<g style="fill:#FFFFFF; fill-opacity:1.0000; stroke:none;">
<circle cx="2.4240" cy="45.2142" r="0.1500" /> 
</g>
<g style="fill:#FFFFFF; fill-opacity:1.0000; stroke:none;">
<circle cx="31.8910" cy="93.7313" r="0.1500" /> 
</g>
<g style="fill:#FFFFFF; fill-opacity:1.0000; stroke:none;">
<circle cx="40.8910" cy="93.7313" r="0.1500" /> 
</g>
<g style="fill:#FFFFFF; fill-opacity:1.0000; stroke:none;">
<circle cx="2.4240" cy="48.2142" r="0.1500" /> 
</g>
<g style="fill:#FFFFFF; fill-opacity:1.0000; stroke:none;">
<circle cx="2.4240" cy="24.2142" r="0.1500" /> 
</g>
<g style="fill:#FFFFFF; fill-opacity:1.0000; stroke:none;">
<circle cx="43.8910" cy="93.7313" r="0.1500" /> 
</g>
<g style="fill:#FFFFFF; fill-opacity:1.0000; stroke:none;">
<circle cx="38.4200" cy="18.2383" r="0.1500" /> 
</g>
<g style="fill:#FFFFFF; fill-opacity:1.0000; stroke:none;">
<circle cx="46.8910" cy="93.7313" r="0.1500" /> 
</g>
<g style="fill:#FFFFFF; fill-opacity:1.0000; stroke:none;">
<circle cx="37.8910" cy="93.7313" r="0.1500" /> 
</g>
<g style="fill:#FFFFFF; fill-opacity:1.0000; stroke:none;">
<circle cx="56.4200" cy="18.2383" r="0.1500" /> 
</g>
<g style="fill:#FFFFFF; fill-opacity:1.0000; stroke:none;">
<circle cx="2.4240" cy="66.2142" r="0.1500" /> 
</g>
<g style="fill:#FFFFFF; fill-opacity:1.0000; stroke:none;">
<circle cx="2.4240" cy="63.2142" r="0.1500" /> 
</g>
<g style="fill:#FFFFFF; fill-opacity:1.0000; stroke:none;">
<circle cx="56.3990" cy="56.8332" r="0.1500" /> 
</g>
<g style="fill:#FFFFFF; fill-opacity:1.0000; stroke:none;">
<circle cx="2.4240" cy="27.2142" r="0.1500" /> 
</g>
<g style="fill:#FFFFFF; fill-opacity:1.0000; stroke:none;">
<circle cx="56.3990" cy="53.8332" r="0.1500" /> 
</g>
<g style="fill:#FFFFFF; fill-opacity:1.0000; stroke:none;">
<circle cx="56.3990" cy="50.8332" r="0.1500" /> 
</g>
<g style="fill:#FFFFFF; fill-opacity:1.0000; stroke:none;">
<circle cx="44.4200" cy="18.2383" r="0.1500" /> 
</g>
<g style="fill:#FFFFFF; fill-opacity:1.0000; stroke:none;">
<circle cx="32.4200" cy="18.2383" r="0.1500" /> 
</g>
<g style="fill:#FFFFFF; fill-opacity:1.0000; stroke:none;">
<circle cx="2.4240" cy="54.2142" r="0.1500" /> 
</g>
<g style="fill:#FFFFFF; fill-opacity:1.0000; stroke:none;">
<circle cx="56.3990" cy="47.8332" r="0.1500" /> 
</g>
<g style="fill:#FFFFFF; fill-opacity:1.0000; stroke:none;">
<circle cx="23.4200" cy="18.2383" r="0.1500" /> 
</g>
<g style="fill:#FFFFFF; fill-opacity:1.0000; stroke:none;">
<circle cx="53.4200" cy="18.2383" r="0.1500" /> 
</g>
<g style="fill:#FFFFFF; fill-opacity:1.0000; stroke:none;">
<circle cx="50.4200" cy="18.2383" r="0.1500" /> 
</g>
<g style="fill:#FFFFFF; fill-opacity:1.0000; stroke:none;">
<circle cx="56.3990" cy="68.8332" r="0.1500" /> 
</g>
<g style="fill:#FFFFFF; fill-opacity:1.0000; stroke:none;">
<circle cx="56.3990" cy="74.8332" r="0.1500" /> 
</g>
<g style="fill:#FFFFFF; fill-opacity:1.0000; stroke:none;">
<circle cx="13.8910" cy="93.7313" r="0.1500" /> 
</g>
<g style="fill:#FFFFFF; fill-opacity:1.0000; stroke:none;">
<circle cx="56.3990" cy="23.8332" r="0.1500" /> 
</g>
<g style="fill:#FFFFFF; fill-opacity:1.0000; stroke:none;">
<circle cx="56.3990" cy="38.8332" r="0.1500" /> 
</g>
<g style="fill:#FFFFFF; fill-opacity:1.0000; stroke:none;">
<circle cx="10.8910" cy="93.7313" r="0.1500" /> 
</g>
<g style="fill:#FFFFFF; fill-opacity:1.0000; stroke:none;">
<circle cx="56.2720" cy="88.9052" r="0.1500" /> 
</g>
<g style="fill:#FFFFFF; fill-opacity:1.0000; stroke:none;">
<circle cx="52.8910" cy="93.7313" r="0.1500" /> 
</g>
<g style="fill:#FFFFFF; fill-opacity:1.0000; stroke:none;">
<circle cx="56.3990" cy="20.8332" r="0.1500" /> 
</g>
<g style="fill:#FFFFFF; fill-opacity:1.0000; stroke:none;">
<circle cx="20.4200" cy="18.2383" r="0.1500" /> 
</g>
<g style="fill:#FFFFFF; fill-opacity:1.0000; stroke:none;">
<circle cx="35.4200" cy="18.2383" r="0.1500" /> 
</g>
<g style="fill:#FFFFFF; fill-opacity:1.0000; stroke:none;">
<circle cx="56.3990" cy="65.8332" r="0.1500" /> 
</g>
<g style="fill:#FFFFFF; fill-opacity:1.0000; stroke:none;">
<circle cx="2.4240" cy="60.2142" r="0.1500" /> 
</g>
<g style="fill:#FFFFFF; fill-opacity:1.0000; stroke:none;">
<circle cx="5.4200" cy="18.2383" r="0.1500" /> 
</g>
<g style="fill:#FFFFFF; fill-opacity:1.0000; stroke:none;">
<circle cx="2.4240" cy="75.2142" r="0.1500" /> 
</g>
<g style="fill:#FFFFFF; fill-opacity:1.0000; stroke:none;">
<circle cx="2.4240" cy="93.7313" r="0.1500" /> 
</g>
<g style="fill:#FFFFFF; fill-opacity:1.0000; stroke:none;">
<circle cx="56.3990" cy="71.8332" r="0.1500" /> 
</g>
<g style="fill:#FFFFFF; fill-opacity:1.0000; stroke:none;">
<circle cx="17.4200" cy="18.2383" r="0.1500" /> 
</g>
<g style="fill:#FFFFFF; fill-opacity:1.0000; stroke:none;">
<circle cx="16.8910" cy="93.7313" r="0.1500" /> 
</g>
<g style="fill:#FFFFFF; fill-opacity:1.0000; stroke:none;">
<circle cx="34.8910" cy="93.7313" r="0.1500" /> 
</g>
<g style="fill:#FFFFFF; fill-opacity:1.0000; stroke:none;">
<circle cx="2.4240" cy="72.2142" r="0.1500" /> 
</g>
<g style="fill:#FFFFFF; fill-opacity:1.0000; stroke:none;">
<circle cx="2.4240" cy="57.2142" r="0.1500" /> 
</g>
<g style="fill:#FFFFFF; fill-opacity:1.0000; stroke:none;">
<circle cx="2.4240" cy="87.0482" r="0.1500" /> 
</g>
<g style="fill:#FFFFFF; fill-opacity:1.0000; stroke:none;">
<circle cx="2.4240" cy="51.2142" r="0.1500" /> 
</g>
<g style="fill:#FFFFFF; fill-opacity:1.0000; stroke:none;">
<circle cx="14.4200" cy="18.2383" r="0.1500" /> 
</g>
<g style="fill:#FFFFFF; fill-opacity:1.0000; stroke:none;">
<circle cx="56.3990" cy="44.8332" r="0.1500" /> 
</g>
<g style="fill:#FFFFFF; fill-opacity:1.0000; stroke:none;">
<circle cx="42.3200" cy="66.0382" r="0.1500" /> 
</g>
<g style="fill:#FFFFFF; fill-opacity:1.0000; stroke:none;">
<circle cx="41.6200" cy="66.0382" r="0.1500" /> 
</g>
<g style="fill:#FFFFFF; fill-opacity:1.0000; stroke:none;">
<circle cx="41.7200" cy="66.7382" r="0.1500" /> 
</g>
<g style="fill:#FFFFFF; fill-opacity:1.0000; stroke:none;">
<circle cx="49.1200" cy="35.7383" r="0.1500" /> 
</g>
<g style="fill:#FFFFFF; fill-opacity:1.0000; stroke:none;">
<circle cx="49.7200" cy="36.0382" r="0.1500" /> 
</g>
<g style="fill:#FFFFFF; fill-opacity:1.0000; stroke:none;">
<circle cx="49.1200" cy="37.8382" r="0.1500" /> 
</g>
<g style="fill:#FFFFFF; fill-opacity:1.0000; stroke:none;">
<circle cx="49.7200" cy="36.8382" r="0.1500" /> 
</g>
<g style="fill:#FFFFFF; fill-opacity:1.0000; stroke:none;">
<circle cx="49.1200" cy="36.4382" r="0.1500" /> 
</g>
<g style="fill:#FFFFFF; fill-opacity:1.0000; stroke:none;">
<circle cx="49.1200" cy="39.2383" r="0.1500" /> 
</g>
<g style="fill:#FFFFFF; fill-opacity:1.0000; stroke:none;">
<circle cx="49.7200" cy="37.5382" r="0.1500" /> 
</g>
<g style="fill:#FFFFFF; fill-opacity:1.0000; stroke:none;">
<circle cx="49.8200" cy="76.8383" r="0.1500" /> 
</g>
<g style="fill:#FFFFFF; fill-opacity:1.0000; stroke:none;">
<circle cx="49.1200" cy="37.1382" r="0.1500" /> 
</g>
<g style="fill:#FFFFFF; fill-opacity:1.0000; stroke:none;">
<circle cx="49.1200" cy="38.5382" r="0.1500" /> 
</g>
<g style="fill:#FFFFFF; fill-opacity:1.0000; stroke:none;">
<circle cx="49.2870" cy="49.7892" r="0.1500" /> 
</g>
<g style="fill:#FFFFFF; fill-opacity:1.0000; stroke:none;">
<circle cx="41.3200" cy="45.2383" r="0.1500" /> 
</g>
<g style="fill:#FFFFFF; fill-opacity:1.0000; stroke:none;">
<circle cx="10.2950" cy="75.9633" r="0.1500" /> 
</g>
<g style="fill:#FFFFFF; fill-opacity:1.0000; stroke:none;">
<circle cx="12.7700" cy="33.8633" r="0.1500" /> 
</g>
<g style="fill:#FFFFFF; fill-opacity:1.0000; stroke:none;">
<circle cx="19.4420" cy="59.1872" r="0.1500" /> 
</g>
<g style="fill:#FFFFFF; fill-opacity:1.0000; stroke:none;">
<circle cx="40.6200" cy="45.2383" r="0.1500" /> 
</g>
<g style="fill:#FFFFFF; fill-opacity:1.0000; stroke:none;">
<circle cx="39.8200" cy="45.2383" r="0.1500" /> 
</g>
<g style="fill:#FFFFFF; fill-opacity:1.0000; stroke:none;">
<circle cx="15.3976" cy="35.0147" r="0.1500" /> 
</g>
<g style="fill:#FFFFFF; fill-opacity:1.0000; stroke:none;">
<circle cx="29.9200" cy="65.7382" r="0.1500" /> 
</g>
<g style="fill:#FFFFFF; fill-opacity:1.0000; stroke:none;">
<circle cx="29.9200" cy="66.4382" r="0.1500" /> 
</g>
<g style="fill:#FFFFFF; fill-opacity:1.0000; stroke:none;">
<circle cx="6.2900" cy="52.3882" r="0.1500" /> 
</g>
<g style="fill:#FFFFFF; fill-opacity:1.0000; stroke:none;">
<circle cx="10.4200" cy="37.0382" r="0.1500" /> 
</g>
<g style="fill:#FFFFFF; fill-opacity:1.0000; stroke:none;">
<circle cx="21.3200" cy="57.9382" r="0.1500" /> 
</g>
<g style="fill:#FFFFFF; fill-opacity:1.0000; stroke:none;">
<circle cx="20.8200" cy="33.7383" r="0.1500" /> 
</g>
<g style="fill:#FFFFFF; fill-opacity:1.0000; stroke:none;">
<circle cx="20.8200" cy="34.5382" r="0.1500" /> 
</g>
<g style="fill:#FFFFFF; fill-opacity:1.0000; stroke:none;">
<circle cx="21.6200" cy="32.2383" r="0.1500" /> 
</g>
<g style="fill:#FFFFFF; fill-opacity:1.0000; stroke:none;">
<circle cx="24.1200" cy="33.0382" r="0.1500" /> 
</g>
<g style="fill:#FFFFFF; fill-opacity:1.0000; stroke:none;">
<circle cx="21.6200" cy="34.5382" r="0.1500" /> 
</g>
<g style="fill:#FFFFFF; fill-opacity:1.0000; stroke:none;">
<circle cx="20.8200" cy="32.2383" r="0.1500" /> 
</g>
<g style="fill:#FFFFFF; fill-opacity:1.0000; stroke:none;">
<circle cx="23.2200" cy="32.2383" r="0.1500" /> 
</g>
<g style="fill:#FFFFFF; fill-opacity:1.0000; stroke:none;">
<circle cx="24.1200" cy="34.5382" r="0.1500" /> 
</g>
<g style="fill:#FFFFFF; fill-opacity:1.0000; stroke:none;">
<circle cx="24.1200" cy="32.2383" r="0.1500" /> 
</g>
<g style="fill:#FFFFFF; fill-opacity:1.0000; stroke:none;">
<circle cx="22.4200" cy="32.2383" r="0.1500" /> 
</g>
<g style="fill:#FFFFFF; fill-opacity:1.0000; stroke:none;">
<circle cx="20.8200" cy="33.0382" r="0.1500" /> 
</g>
<g style="fill:#FFFFFF; fill-opacity:1.0000; stroke:none;">
<circle cx="23.3200" cy="34.5382" r="0.1500" /> 
</g>
<g style="fill:#FFFFFF; fill-opacity:1.0000; stroke:none;">
<circle cx="38.5200" cy="45.2383" r="0.1500" /> 
</g>
<g style="fill:#FFFFFF; fill-opacity:1.0000; stroke:none;">
<circle cx="24.1200" cy="33.8382" r="0.1500" /> 
</g>
<g style="fill:#FFFFFF; fill-opacity:1.0000; stroke:none;">
<circle cx="37.4200" cy="45.2383" r="0.1500" /> 
</g>
<g style="fill:#FFFFFF; fill-opacity:1.0000; stroke:none;">
<circle cx="22.5200" cy="34.5382" r="0.1500" /> 
</g>
<g style="fill:#FFFFFF; fill-opacity:1.0000; stroke:none;">
<circle cx="22.7400" cy="36.1983" r="0.1500" /> 
</g>
<g style="fill:#FFFFFF; fill-opacity:1.0000; stroke:none;">
<circle cx="21.8200" cy="36.7782" r="0.1500" /> 
</g>
<g style="fill:#FFFFFF; fill-opacity:1.0000; stroke:none;">
<circle cx="22.4500" cy="36.7782" r="0.1500" /> 
</g>
<g style="fill:#FFFFFF; fill-opacity:1.0000; stroke:none;">
<circle cx="23.0800" cy="36.7782" r="0.1500" /> 
</g>
<g style="fill:#FFFFFF; fill-opacity:1.0000; stroke:none;">
<circle cx="21.0200" cy="37.6382" r="0.1500" /> 
</g>
<g style="fill:#FFFFFF; fill-opacity:1.0000; stroke:none;">
<circle cx="23.3600" cy="36.1782" r="0.1500" /> 
</g>
<g style="fill:#FFFFFF; fill-opacity:1.0000; stroke:none;">
<circle cx="21.0200" cy="37.0382" r="0.1500" /> 
</g>
<g style="fill:#FFFFFF; fill-opacity:1.0000; stroke:none;">
<circle cx="21.5100" cy="36.1983" r="0.1500" /> 
</g>
<g style="fill:#FFFFFF; fill-opacity:1.0000; stroke:none;">
<circle cx="21.0200" cy="38.2383" r="0.1500" /> 
</g>
<g style="fill:#FFFFFF; fill-opacity:1.0000; stroke:none;">
<circle cx="22.1200" cy="36.1983" r="0.1500" /> 
</g>
<g style="fill:#FFFFFF; fill-opacity:1.0000; stroke:none;">
<circle cx="23.0200" cy="44.2383" r="0.1500" /> 
</g>
<g style="fill:#FFFFFF; fill-opacity:1.0000; stroke:none;">
<circle cx="23.9200" cy="43.6382" r="0.1500" /> 
</g>
<g style="fill:#FFFFFF; fill-opacity:1.0000; stroke:none;">
<circle cx="21.4800" cy="43.6982" r="0.1500" /> 
</g>
<g style="fill:#FFFFFF; fill-opacity:1.0000; stroke:none;">
<circle cx="22.2000" cy="43.6882" r="0.1500" /> 
</g>
<g style="fill:#FFFFFF; fill-opacity:1.0000; stroke:none;">
<circle cx="23.0200" cy="43.2383" r="0.1500" /> 
</g>
<g style="fill:#FFFFFF; fill-opacity:1.0000; stroke:none;">
<circle cx="24.7200" cy="43.6382" r="0.1500" /> 
</g>
<g style="fill:#FFFFFF; fill-opacity:1.0000; stroke:none;">
<circle cx="24.8100" cy="49.9883" r="0.1500" /> 
</g>
<g style="fill:#FFFFFF; fill-opacity:1.0000; stroke:none;">
<circle cx="17.8390" cy="49.6785" r="0.1500" /> 
</g>
<g style="fill:#FFFFFF; fill-opacity:1.0000; stroke:none;">
<circle cx="12.6200" cy="78.8383" r="0.1500" /> 
</g>
<g style="fill:#FFFFFF; fill-opacity:1.0000; stroke:none;">
<circle cx="12.6200" cy="78.1382" r="0.1500" /> 
</g>
<g style="fill:#FFFFFF; fill-opacity:1.0000; stroke:none;">
<circle cx="11.9200" cy="78.1382" r="0.1500" /> 
</g>
<g style="fill:#FFFFFF; fill-opacity:1.0000; stroke:none;">
<circle cx="13.3200" cy="78.1382" r="0.1500" /> 
</g>
<g style="fill:#FFFFFF; fill-opacity:1.0000; stroke:none;">
<circle cx="13.3200" cy="78.8383" r="0.1500" /> 
</g>
<g style="fill:#FFFFFF; fill-opacity:1.0000; stroke:none;">
<circle cx="16.7200" cy="39.5382" r="0.1500" /> 
</g>
<g style="fill:#FFFFFF; fill-opacity:1.0000; stroke:none;">
<circle cx="16.2200" cy="34.9382" r="0.1500" /> 
</g>
<g style="fill:#FFFFFF; fill-opacity:1.0000; stroke:none;">
<circle cx="24.6200" cy="52.8382" r="0.1500" /> 
</g>
<g style="fill:#FFFFFF; fill-opacity:1.0000; stroke:none;">
<circle cx="7.5000" cy="56.7383" r="0.1500" /> 
</g>
<g style="fill:#FFFFFF; fill-opacity:1.0000; stroke:none;">
<circle cx="25.3200" cy="52.8382" r="0.1500" /> 
</g>
<g style="fill:#FFFFFF; fill-opacity:1.0000; stroke:none;">
<circle cx="23.9200" cy="52.8382" r="0.1500" /> 
</g>
<g style="fill:#FFFFFF; fill-opacity:1.0000; stroke:none;">
<circle cx="16.2200" cy="33.5382" r="0.1500" /> 
</g>
<g style="fill:#FFFFFF; fill-opacity:1.0000; stroke:none;">
<circle cx="16.2200" cy="34.2383" r="0.1500" /> 
</g>
<g style="fill:#FFFFFF; fill-opacity:1.0000; stroke:none;">
<circle cx="23.2200" cy="52.8382" r="0.1500" /> 
</g>
<g style="fill:#FFFFFF; fill-opacity:1.0000; stroke:none;">
<circle cx="16.1200" cy="41.5282" r="0.1500" /> 
</g>
<g style="fill:#FFFFFF; fill-opacity:1.0000; stroke:none;">
<circle cx="16.1200" cy="42.1782" r="0.1500" /> 
</g>
<g style="fill:#FFFFFF; fill-opacity:1.0000; stroke:none;">
<circle cx="14.2200" cy="78.1382" r="0.1500" /> 
</g>
<g style="fill:#FFFFFF; fill-opacity:1.0000; stroke:none;">
<circle cx="15.4200" cy="33.5382" r="0.1500" /> 
</g>
<g style="fill:#FFFFFF; fill-opacity:1.0000; stroke:none;">
<circle cx="16.1200" cy="39.5382" r="0.1500" /> 
</g>
<g style="fill:#FFFFFF; fill-opacity:1.0000; stroke:none;">
<circle cx="16.1200" cy="40.8882" r="0.1500" /> 
</g>
<g style="fill:#FFFFFF; fill-opacity:1.0000; stroke:none;">
<circle cx="15.4200" cy="34.2383" r="0.1500" /> 
</g>
<g style="fill:#FFFFFF; fill-opacity:1.0000; stroke:none;">
<circle cx="14.3650" cy="53.4282" r="0.1500" /> 
</g>
<g style="fill:#FFFFFF; fill-opacity:1.0000; stroke:none;">
<circle cx="16.1200" cy="40.1882" r="0.1500" /> 
</g>
<g style="fill:#FFFFFF; fill-opacity:1.0000; stroke:none;">
<circle cx="5.9200" cy="45.9382" r="0.1500" /> 
</g>
<g style="fill:#FFFFFF; fill-opacity:1.0000; stroke:none;">
<circle cx="8.2200" cy="56.7383" r="0.1500" /> 
</g>
<g style="fill:#FFFFFF; fill-opacity:1.0000; stroke:none;">
<circle cx="7.8200" cy="47.3382" r="0.1500" /> 
</g>
<g style="fill:#FFFFFF; fill-opacity:1.0000; stroke:none;">
<circle cx="8.9200" cy="57.4382" r="0.1500" /> 
</g>
<g style="fill:#FFFFFF; fill-opacity:1.0000; stroke:none;">
<circle cx="8.2200" cy="57.4382" r="0.1500" /> 
</g>
<g style="fill:#FFFFFF; fill-opacity:1.0000; stroke:none;">
<circle cx="7.5200" cy="57.4382" r="0.1500" /> 
</g>
<g style="fill:#FFFFFF; fill-opacity:1.0000; stroke:none;">
<circle cx="5.9200" cy="46.7383" r="0.1500" /> 
</g>
<g style="fill:#FFFFFF; fill-opacity:1.0000; stroke:none;">
<circle cx="36.8200" cy="57.5382" r="0.1500" /> 
</g>
<g style="fill:#FFFFFF; fill-opacity:1.0000; stroke:none;">
<circle cx="36.8200" cy="56.8382" r="0.1500" /> 
</g>
<g style="fill:#FFFFFF; fill-opacity:1.0000; stroke:none;">
<circle cx="36.1200" cy="57.5382" r="0.1500" /> 
</g>
<g style="fill:#FFFFFF; fill-opacity:1.0000; stroke:none;">
<circle cx="15.7300" cy="32.0583" r="0.1500" /> 
</g>
<g style="fill:#FFFFFF; fill-opacity:1.0000; stroke:none;">
<circle cx="11.6200" cy="56.2782" r="0.1500" /> 
</g>
<g style="fill:#FFFFFF; fill-opacity:1.0000; stroke:none;">
<circle cx="14.7400" cy="42.7482" r="0.1500" /> 
</g>
<g style="fill:#FFFFFF; fill-opacity:1.0000; stroke:none;">
<circle cx="14.1200" cy="56.3382" r="0.1500" /> 
</g>
<g style="fill:#FFFFFF; fill-opacity:1.0000; stroke:none;">
<circle cx="8.1000" cy="88.7682" r="0.9850" /> 
</g>
<g style="fill:#FFFFFF; fill-opacity:1.0000; stroke:none;">
<circle cx="23.6000" cy="88.7682" r="0.9850" /> 
</g>
<g style="fill:#FFFFFF; fill-opacity:1.0000; stroke:none;">
<circle cx="8.4600" cy="22.5282" r="0.9850" /> 
</g>
<g style="fill:#FFFFFF; fill-opacity:1.0000; stroke:none;">
<circle cx="23.9600" cy="22.5282" r="0.9850" /> 
</g>
<g style="fill:#FFFFFF; fill-opacity:1.0000; stroke:none;">
<circle cx="2.1500" cy="32.8653" r="0.2500" /> 
</g>
<g style="fill:#FFFFFF; fill-opacity:1.0000; stroke:none;">
<circle cx="2.8529" cy="31.1682" r="0.2500" /> 
</g>
<g style="fill:#FFFFFF; fill-opacity:1.0000; stroke:none;">
<circle cx="2.8529" cy="34.5624" r="0.2500" /> 
</g>
<g style="fill:#FFFFFF; fill-opacity:1.0000; stroke:none;">
<circle cx="4.5500" cy="30.4653" r="0.2500" /> 
</g>
<g style="fill:#FFFFFF; fill-opacity:1.0000; stroke:none;">
<circle cx="4.5500" cy="32.8653" r="1.6000" /> 
</g>
<g style="fill:#FFFFFF; fill-opacity:1.0000; stroke:none;">
<circle cx="4.5500" cy="35.2653" r="0.2500" /> 
</g>
<g style="fill:#FFFFFF; fill-opacity:1.0000; stroke:none;">
<circle cx="6.2471" cy="31.1682" r="0.2500" /> 
</g>
<g style="fill:#FFFFFF; fill-opacity:1.0000; stroke:none;">
<circle cx="6.2471" cy="34.5624" r="0.2500" /> 
</g>
<g style="fill:#FFFFFF; fill-opacity:1.0000; stroke:none;">
<circle cx="6.9500" cy="32.8653" r="0.2500" /> 
</g>
<g style="fill:#FFFFFF; fill-opacity:1.0000; stroke:none;">
<circle cx="50.6100" cy="89.3582" r="0.9850" /> 
</g>
<g style="fill:#FFFFFF; fill-opacity:1.0000; stroke:none;">
<circle cx="35.1100" cy="89.3582" r="0.9850" /> 
</g>
<g style="fill:#FFFFFF; fill-opacity:1.0000; stroke:none;">
<circle cx="52.0800" cy="79.0583" r="0.2500" /> 
</g>
<g style="fill:#FFFFFF; fill-opacity:1.0000; stroke:none;">
<circle cx="52.7829" cy="77.3612" r="0.2500" /> 
</g>
<g style="fill:#FFFFFF; fill-opacity:1.0000; stroke:none;">
<circle cx="52.7829" cy="80.7553" r="0.2500" /> 
</g>
<g style="fill:#FFFFFF; fill-opacity:1.0000; stroke:none;">
<circle cx="54.4800" cy="76.6582" r="0.2500" /> 
</g>
<g style="fill:#FFFFFF; fill-opacity:1.0000; stroke:none;">
<circle cx="54.4800" cy="79.0583" r="1.6000" /> 
</g>
<g style="fill:#FFFFFF; fill-opacity:1.0000; stroke:none;">
<circle cx="54.4800" cy="81.4582" r="0.2500" /> 
</g>
<g style="fill:#FFFFFF; fill-opacity:1.0000; stroke:none;">
<circle cx="56.1771" cy="77.3612" r="0.2500" /> 
</g>
<g style="fill:#FFFFFF; fill-opacity:1.0000; stroke:none;">
<circle cx="56.1771" cy="80.7553" r="0.2500" /> 
</g>
<g style="fill:#FFFFFF; fill-opacity:1.0000; stroke:none;">
<circle cx="56.8800" cy="79.0583" r="0.2500" /> 
</g>
<g style="fill:#FFFFFF; fill-opacity:1.0000; stroke:none;">
<circle cx="50.9200" cy="23.0732" r="0.9850" /> 
</g>
<g style="fill:#FFFFFF; fill-opacity:1.0000; stroke:none;">
<circle cx="35.4200" cy="23.0732" r="0.9850" /> 
</g>
<g style="fill:#FFFFFF; fill-opacity:1.0000; stroke:none;">
<circle cx="2.1500" cy="79.0583" r="0.2500" /> 
</g>
<g style="fill:#FFFFFF; fill-opacity:1.0000; stroke:none;">
<circle cx="2.8529" cy="77.3612" r="0.2500" /> 
</g>
<g style="fill:#FFFFFF; fill-opacity:1.0000; stroke:none;">
<circle cx="2.8529" cy="80.7553" r="0.2500" /> 
</g>
<g style="fill:#FFFFFF; fill-opacity:1.0000; stroke:none;">
<circle cx="4.5500" cy="76.6582" r="0.2500" /> 
</g>
<g style="fill:#FFFFFF; fill-opacity:1.0000; stroke:none;">
<circle cx="4.5500" cy="79.0583" r="1.6000" /> 
</g>
<g style="fill:#FFFFFF; fill-opacity:1.0000; stroke:none;">
<circle cx="4.5500" cy="81.4582" r="0.2500" /> 
</g>
<g style="fill:#FFFFFF; fill-opacity:1.0000; stroke:none;">
<circle cx="6.2471" cy="77.3612" r="0.2500" /> 
</g>
<g style="fill:#FFFFFF; fill-opacity:1.0000; stroke:none;">
<circle cx="6.2471" cy="80.7553" r="0.2500" /> 
</g>
<g style="fill:#FFFFFF; fill-opacity:1.0000; stroke:none;">
<circle cx="6.9500" cy="79.0583" r="0.2500" /> 
</g>
<g style="fill:#FFFFFF; fill-opacity:1.0000; stroke:none;">
<circle cx="52.0800" cy="32.8582" r="0.2500" /> 
</g>
<g style="fill:#FFFFFF; fill-opacity:1.0000; stroke:none;">
<circle cx="52.7829" cy="31.1612" r="0.2500" /> 
</g>
<g style="fill:#FFFFFF; fill-opacity:1.0000; stroke:none;">
<circle cx="52.7829" cy="34.5553" r="0.2500" /> 
</g>
<g style="fill:#FFFFFF; fill-opacity:1.0000; stroke:none;">
<circle cx="54.4800" cy="30.4582" r="0.2500" /> 
</g>
<g style="fill:#FFFFFF; fill-opacity:1.0000; stroke:none;">
<circle cx="54.4800" cy="32.8582" r="1.6000" /> 
</g>
<g style="fill:#FFFFFF; fill-opacity:1.0000; stroke:none;">
<circle cx="54.4800" cy="35.2582" r="0.2500" /> 
</g>
<g style="fill:#FFFFFF; fill-opacity:1.0000; stroke:none;">
<circle cx="56.1771" cy="31.1612" r="0.2500" /> 
</g>
<g style="fill:#FFFFFF; fill-opacity:1.0000; stroke:none;">
<circle cx="56.1771" cy="34.5553" r="0.2500" /> 
</g>
<g style="fill:#FFFFFF; fill-opacity:1.0000; stroke:none;">
<circle cx="56.8800" cy="32.8582" r="0.2500" /> 
<path style="fill:none; 
stroke:#D0D2CD; stroke-width:0.0500; stroke-opacity:1; 
stroke-linecap:round; stroke-linejoin:round;fill:none"
d="M 0.0500,16.3382
58.9200,16.3382
58.9200,95.5382
0.0500,95.5382
Z" /> 
</g> 
</svg>
