<?xml version="1.0" standalone="no"?>
 <!DOCTYPE svg PUBLIC "-//W3C//DTD SVG 1.1//EN" 
 "http://www.w3.org/Graphics/SVG/1.1/DTD/svg11.dtd"> 
<svg
  xmlns:svg="http://www.w3.org/2000/svg"
  xmlns="http://www.w3.org/2000/svg"
  xmlns:xlink="http://www.w3.org/1999/xlink"
  version="1.1"
  width="70.9676mm" height="95.5802mm" viewBox="0.0000 0.0000 70.9676 95.5802">
<title>SVG Image created as SEPIC-A-F_Paste.svg date 2024/09/19 09:59:25 </title>
  <desc>Image generated by PCBNEW </desc>
<g style="fill:#000000; fill-opacity:1.0000;stroke:#000000; stroke-opacity:1.0000;
stroke-linecap:round; stroke-linejoin:round;"
 transform="translate(0 0) scale(1 1)">
<path style="fill:#B4A09A; fill-opacity:0.9000; stroke:none;fill-rule:evenodd;"
d="M 29.8450,73.4132
29.7493,73.3942
29.6682,73.3400
29.6140,73.2589
29.5950,73.1632
29.5950,72.4882
29.6140,72.3926
29.6682,72.3115
29.7493,72.2573
29.8450,72.2382
30.7950,72.2382
30.8907,72.2573
30.9718,72.3115
31.0260,72.3926
31.0450,72.4882
31.0450,73.1632
31.0260,73.2589
30.9718,73.3400
30.8907,73.3942
30.7950,73.4132
Z" /> 
<path style="fill:#B4A09A; fill-opacity:0.9000; stroke:none;fill-rule:evenodd;"
d="M 29.8450,71.3383
29.7493,71.3192
29.6682,71.2650
29.6140,71.1839
29.5950,71.0883
29.5950,70.4132
29.6140,70.3176
29.6682,70.2365
29.7493,70.1823
29.8450,70.1632
30.7950,70.1632
30.8907,70.1823
30.9718,70.2365
31.0260,70.3176
31.0450,70.4132
31.0450,71.0883
31.0260,71.1839
30.9718,71.2650
30.8907,71.3192
30.7950,71.3383
Z" /> 
<path style="fill:#B4A09A; fill-opacity:0.9000; stroke:none;fill-rule:evenodd;"
d="M 13.6500,49.7482
13.6690,49.6526
13.7232,49.5715
13.8043,49.5173
13.9000,49.4982
14.6000,49.4982
14.6957,49.5173
14.7768,49.5715
14.8310,49.6526
14.8500,49.7482
14.8500,50.6482
14.8310,50.7439
14.7768,50.8250
14.6957,50.8792
14.6000,50.8982
13.9000,50.8982
13.8043,50.8792
13.7232,50.8250
13.6690,50.7439
13.6500,50.6482
Z" /> 
<path style="fill:#B4A09A; fill-opacity:0.9000; stroke:none;fill-rule:evenodd;"
d="M 15.6500,49.7482
15.6690,49.6526
15.7232,49.5715
15.8043,49.5173
15.9000,49.4982
16.6000,49.4982
16.6957,49.5173
16.7768,49.5715
16.8310,49.6526
16.8500,49.7482
16.8500,50.6482
16.8310,50.7439
16.7768,50.8250
16.6957,50.8792
16.6000,50.8982
15.9000,50.8982
15.8043,50.8792
15.7232,50.8250
15.6690,50.7439
15.6500,50.6482
Z" /> 
<path style="fill:#B4A09A; fill-opacity:0.9000; stroke:none;fill-rule:evenodd;"
d="M 17.2700,54.8382
17.1743,54.8192
17.0932,54.7650
17.0390,54.6839
17.0200,54.5882
17.0200,53.8882
17.0390,53.7926
17.0932,53.7115
17.1743,53.6573
17.2700,53.6382
18.1700,53.6382
18.2657,53.6573
18.3468,53.7115
18.4010,53.7926
18.4200,53.8882
18.4200,54.5882
18.4010,54.6839
18.3468,54.7650
18.2657,54.8192
18.1700,54.8382
Z" /> 
<path style="fill:#B4A09A; fill-opacity:0.9000; stroke:none;fill-rule:evenodd;"
d="M 17.2700,52.8382
17.1743,52.8192
17.0932,52.7650
17.0390,52.6839
17.0200,52.5882
17.0200,51.8882
17.0390,51.7926
17.0932,51.7115
17.1743,51.6573
17.2700,51.6382
18.1700,51.6382
18.2657,51.6573
18.3468,51.7115
18.4010,51.7926
18.4200,51.8882
18.4200,52.5882
18.4010,52.6839
18.3468,52.7650
18.2657,52.8192
18.1700,52.8382
Z" /> 
<path style="fill:#B4A09A; fill-opacity:0.9000; stroke:none;fill-rule:evenodd;"
d="M 27.2700,42.5257
27.1743,42.5067
27.0932,42.4525
27.0390,42.3714
27.0200,42.2757
27.0200,41.4507
27.0390,41.3551
27.0932,41.2740
27.1743,41.2198
27.2700,41.2007
28.5700,41.2007
28.6657,41.2198
28.7468,41.2740
28.8010,41.3551
28.8200,41.4507
28.8200,42.2757
28.8010,42.3714
28.7468,42.4525
28.6657,42.5067
28.5700,42.5257
Z" /> 
<path style="fill:#B4A09A; fill-opacity:0.9000; stroke:none;fill-rule:evenodd;"
d="M 27.2700,39.4007
27.1743,39.3817
27.0932,39.3275
27.0390,39.2464
27.0200,39.1507
27.0200,38.3257
27.0390,38.2301
27.0932,38.1490
27.1743,38.0948
27.2700,38.0757
28.5700,38.0757
28.6657,38.0948
28.7468,38.1490
28.8010,38.2301
28.8200,38.3257
28.8200,39.1507
28.8010,39.2464
28.7468,39.3275
28.6657,39.3817
28.5700,39.4007
Z" /> 
<path style="fill:#B4A09A; fill-opacity:0.9000; stroke:none;fill-rule:evenodd;"
d="M 13.6500,47.7782
13.6690,47.6826
13.7232,47.6015
13.8043,47.5473
13.9000,47.5282
14.6000,47.5282
14.6957,47.5473
14.7768,47.6015
14.8310,47.6826
14.8500,47.7782
14.8500,48.6782
14.8310,48.7739
14.7768,48.8550
14.6957,48.9092
14.6000,48.9282
13.9000,48.9282
13.8043,48.9092
13.7232,48.8550
13.6690,48.7739
13.6500,48.6782
Z" /> 
<path style="fill:#B4A09A; fill-opacity:0.9000; stroke:none;fill-rule:evenodd;"
d="M 15.6500,47.7782
15.6690,47.6826
15.7232,47.6015
15.8043,47.5473
15.9000,47.5282
16.6000,47.5282
16.6957,47.5473
16.7768,47.6015
16.8310,47.6826
16.8500,47.7782
16.8500,48.6782
16.8310,48.7739
16.7768,48.8550
16.6957,48.9092
16.6000,48.9282
15.9000,48.9282
15.8043,48.9092
15.7232,48.8550
15.6690,48.7739
15.6500,48.6782
Z" /> 
<path style="fill:#B4A09A; fill-opacity:0.9000; stroke:none;fill-rule:evenodd;"
d="M 7.8275,44.3008
7.8456,44.2099
7.8971,44.1328
7.9741,44.0813
8.0650,44.0632
8.6650,44.0632
8.7559,44.0813
8.8329,44.1328
8.8844,44.2099
8.9025,44.3008
8.9025,44.7757
8.8844,44.8666
8.8329,44.9437
8.7559,44.9952
8.6650,45.0132
8.0650,45.0132
7.9741,44.9952
7.8971,44.9437
7.8456,44.8666
7.8275,44.7757
Z" /> 
<path style="fill:#B4A09A; fill-opacity:0.9000; stroke:none;fill-rule:evenodd;"
d="M 9.5525,44.3008
9.5706,44.2099
9.6221,44.1328
9.6991,44.0813
9.7900,44.0632
10.3900,44.0632
10.4809,44.0813
10.5579,44.1328
10.6094,44.2099
10.6275,44.3008
10.6275,44.7757
10.6094,44.8666
10.5579,44.9437
10.4809,44.9952
10.3900,45.0132
9.7900,45.0132
9.6991,44.9952
9.6221,44.9437
9.5706,44.8666
9.5525,44.7757
Z" /> 
<path style="fill:#B4A09A; fill-opacity:0.9000; stroke:none;fill-rule:evenodd;"
d="M 29.1700,36.1382
29.0743,36.1192
28.9932,36.0650
28.9390,35.9839
28.9200,35.8882
28.9200,35.1882
28.9390,35.0926
28.9932,35.0115
29.0743,34.9573
29.1700,34.9382
30.0700,34.9382
30.1657,34.9573
30.2468,35.0115
30.3010,35.0926
30.3200,35.1882
30.3200,35.8882
30.3010,35.9839
30.2468,36.0650
30.1657,36.1192
30.0700,36.1382
Z" /> 
<path style="fill:#B4A09A; fill-opacity:0.9000; stroke:none;fill-rule:evenodd;"
d="M 29.1700,34.1382
29.0743,34.1192
28.9932,34.0650
28.9390,33.9839
28.9200,33.8882
28.9200,33.1882
28.9390,33.0926
28.9932,33.0115
29.0743,32.9573
29.1700,32.9382
30.0700,32.9382
30.1657,32.9573
30.2468,33.0115
30.3010,33.0926
30.3200,33.1882
30.3200,33.8882
30.3010,33.9839
30.2468,34.0650
30.1657,34.1192
30.0700,34.1382
Z" /> 
<path style="fill:#B4A09A; fill-opacity:0.9000; stroke:none;fill-rule:evenodd;"
d="M 9.6200,29.9757
9.6381,29.8849
9.6896,29.8078
9.7666,29.7563
9.8575,29.7382
10.3575,29.7382
10.4484,29.7563
10.5254,29.8078
10.5769,29.8849
10.5950,29.9757
10.5950,30.4507
10.5769,30.5416
10.5254,30.6187
10.4484,30.6702
10.3575,30.6883
9.8575,30.6883
9.7666,30.6702
9.6896,30.6187
9.6381,30.5416
9.6200,30.4507
Z" /> 
<path style="fill:#B4A09A; fill-opacity:0.9000; stroke:none;fill-rule:evenodd;"
d="M 11.4450,29.9757
11.4631,29.8849
11.5146,29.8078
11.5916,29.7563
11.6825,29.7382
12.1825,29.7382
12.2734,29.7563
12.3504,29.8078
12.4019,29.8849
12.4200,29.9757
12.4200,30.4507
12.4019,30.5416
12.3504,30.6187
12.2734,30.6702
12.1825,30.6883
11.6825,30.6883
11.5916,30.6702
11.5146,30.6187
11.4631,30.5416
11.4450,30.4507
Z" /> 
<path style="fill:#B4A09A; fill-opacity:0.9000; stroke:none;fill-rule:evenodd;"
d="M 33.2075,56.7132
33.1885,56.8089
33.1343,56.8900
33.0532,56.9442
32.9575,56.9632
32.2825,56.9632
32.1868,56.9442
32.1057,56.8900
32.0515,56.8089
32.0325,56.7132
32.0325,55.7632
32.0515,55.6676
32.1057,55.5865
32.1868,55.5323
32.2825,55.5132
32.9575,55.5132
33.0532,55.5323
33.1343,55.5865
33.1885,55.6676
33.2075,55.7632
Z" /> 
<path style="fill:#B4A09A; fill-opacity:0.9000; stroke:none;fill-rule:evenodd;"
d="M 31.1325,56.7132
31.1135,56.8089
31.0593,56.8900
30.9782,56.9442
30.8825,56.9632
30.2075,56.9632
30.1118,56.9442
30.0307,56.8900
29.9765,56.8089
29.9575,56.7132
29.9575,55.7632
29.9765,55.6676
30.0307,55.5865
30.1118,55.5323
30.2075,55.5132
30.8825,55.5132
30.9782,55.5323
31.0593,55.5865
31.1135,55.6676
31.1325,55.7632
Z" /> 
<path style="fill:#B4A09A; fill-opacity:0.9000; stroke:none;fill-rule:evenodd;"
d="M 10.7450,76.7133
10.8407,76.7323
10.9218,76.7865
10.9760,76.8676
10.9950,76.9633
10.9950,77.6382
10.9760,77.7339
10.9218,77.8150
10.8407,77.8692
10.7450,77.8882
9.7950,77.8882
9.6993,77.8692
9.6182,77.8150
9.5640,77.7339
9.5450,77.6382
9.5450,76.9633
9.5640,76.8676
9.6182,76.7865
9.6993,76.7323
9.7950,76.7133
Z" /> 
<path style="fill:#B4A09A; fill-opacity:0.9000; stroke:none;fill-rule:evenodd;"
d="M 10.7450,78.7882
10.8407,78.8073
10.9218,78.8615
10.9760,78.9426
10.9950,79.0382
10.9950,79.7133
10.9760,79.8089
10.9218,79.8900
10.8407,79.9442
10.7450,79.9633
9.7950,79.9633
9.6993,79.9442
9.6182,79.8900
9.5640,79.8089
9.5450,79.7133
9.5450,79.0382
9.5640,78.9426
9.6182,78.8615
9.6993,78.8073
9.7950,78.7882
Z" /> 
<path style="fill:#B4A09A; fill-opacity:0.9000; stroke:none;fill-rule:evenodd;"
d="M 20.9150,48.2882
20.9150,47.1382
21.6150,47.1382
21.6150,48.2882
Z" /> 
<path style="fill:#B4A09A; fill-opacity:0.9000; stroke:none;fill-rule:evenodd;"
d="M 22.1850,48.2882
22.1850,47.1382
22.8850,47.1382
22.8850,48.2882
Z" /> 
<path style="fill:#B4A09A; fill-opacity:0.9000; stroke:none;fill-rule:evenodd;"
d="M 23.4550,48.2882
23.4550,47.1382
24.1550,47.1382
24.1550,48.2882
Z" /> 
<path style="fill:#B4A09A; fill-opacity:0.9000; stroke:none;fill-rule:evenodd;"
d="M 24.7250,48.2882
24.7250,47.1382
25.4250,47.1382
25.4250,48.2882
Z" /> 
<path style="fill:#B4A09A; fill-opacity:0.9000; stroke:none;fill-rule:evenodd;"
d="M 25.2700,46.0882
21.0700,46.0882
21.0700,42.9883
25.2700,42.9883
Z" /> 
<path style="fill:#B4A09A; fill-opacity:0.9000; stroke:none;fill-rule:evenodd;"
d="M 25.5200,42.9883
20.8200,42.9883
20.8200,41.4883
25.5200,41.4883
Z" /> 
<path style="fill:#B4A09A; fill-opacity:0.9000; stroke:none;fill-rule:evenodd;"
d="M 16.9175,55.4832
16.9293,55.4239
16.9629,55.3736
17.0132,55.3400
17.0725,55.3282
17.4975,55.3282
17.5568,55.3400
17.6071,55.3736
17.6407,55.4239
17.6525,55.4832
17.6525,55.7933
17.6407,55.8526
17.6071,55.9029
17.5568,55.9365
17.4975,55.9482
17.0725,55.9482
17.0132,55.9365
16.9629,55.9029
16.9293,55.8526
16.9175,55.7933
Z" /> 
<path style="fill:#B4A09A; fill-opacity:0.9000; stroke:none;fill-rule:evenodd;"
d="M 18.0525,55.4832
18.0643,55.4239
18.0979,55.3736
18.1482,55.3400
18.2075,55.3282
18.6325,55.3282
18.6918,55.3400
18.7421,55.3736
18.7757,55.4239
18.7875,55.4832
18.7875,55.7933
18.7757,55.8526
18.7421,55.9029
18.6918,55.9365
18.6325,55.9482
18.2075,55.9482
18.1482,55.9365
18.0979,55.9029
18.0643,55.8526
18.0525,55.7933
Z" /> 
<path style="fill:#B4A09A; fill-opacity:0.9000; stroke:none;fill-rule:evenodd;"
d="M 25.7100,49.6707
25.7712,49.6829
25.8231,49.7176
25.8578,49.7695
25.8700,49.8307
25.8700,50.2257
25.8578,50.2870
25.8231,50.3389
25.7712,50.3736
25.7100,50.3857
25.3900,50.3857
25.3288,50.3736
25.2769,50.3389
25.2422,50.2870
25.2300,50.2257
25.2300,49.8307
25.2422,49.7695
25.2769,49.7176
25.3288,49.6829
25.3900,49.6707
Z" /> 
<path style="fill:#B4A09A; fill-opacity:0.9000; stroke:none;fill-rule:evenodd;"
d="M 25.7100,50.8657
25.7712,50.8779
25.8231,50.9126
25.8578,50.9645
25.8700,51.0257
25.8700,51.4207
25.8578,51.4820
25.8231,51.5339
25.7712,51.5686
25.7100,51.5807
25.3900,51.5807
25.3288,51.5686
25.2769,51.5339
25.2422,51.4820
25.2300,51.4207
25.2300,51.0257
25.2422,50.9645
25.2769,50.9126
25.3288,50.8779
25.3900,50.8657
Z" /> 
<path style="fill:#B4A09A; fill-opacity:0.9000; stroke:none;fill-rule:evenodd;"
d="M 37.4950,70.2632
37.5907,70.2823
37.6718,70.3365
37.7260,70.4176
37.7450,70.5132
37.7450,71.1882
37.7260,71.2839
37.6718,71.3650
37.5907,71.4192
37.4950,71.4382
36.5450,71.4382
36.4493,71.4192
36.3682,71.3650
36.3140,71.2839
36.2950,71.1882
36.2950,70.5132
36.3140,70.4176
36.3682,70.3365
36.4493,70.2823
36.5450,70.2632
Z" /> 
<path style="fill:#B4A09A; fill-opacity:0.9000; stroke:none;fill-rule:evenodd;"
d="M 37.4950,72.3383
37.5907,72.3573
37.6718,72.4115
37.7260,72.4926
37.7450,72.5883
37.7450,73.2632
37.7260,73.3589
37.6718,73.4400
37.5907,73.4942
37.4950,73.5132
36.5450,73.5132
36.4493,73.4942
36.3682,73.4400
36.3140,73.3589
36.2950,73.2632
36.2950,72.5883
36.3140,72.4926
36.3682,72.4115
36.4493,72.3573
36.5450,72.3383
Z" /> 
<path style="fill:#B4A09A; fill-opacity:0.9000; stroke:none;fill-rule:evenodd;"
d="M 14.2750,57.0707
14.3343,57.0825
14.3846,57.1161
14.4182,57.1664
14.4300,57.2257
14.4300,57.6507
14.4182,57.7101
14.3846,57.7604
14.3343,57.7940
14.2750,57.8057
13.9650,57.8057
13.9057,57.7940
13.8554,57.7604
13.8218,57.7101
13.8100,57.6507
13.8100,57.2257
13.8218,57.1664
13.8554,57.1161
13.9057,57.0825
13.9650,57.0707
Z" /> 
<path style="fill:#B4A09A; fill-opacity:0.9000; stroke:none;fill-rule:evenodd;"
d="M 14.2750,58.2057
14.3343,58.2175
14.3846,58.2511
14.4182,58.3014
14.4300,58.3607
14.4300,58.7858
14.4182,58.8451
14.3846,58.8954
14.3343,58.9290
14.2750,58.9407
13.9650,58.9407
13.9057,58.9290
13.8554,58.8954
13.8218,58.8451
13.8100,58.7858
13.8100,58.3607
13.8218,58.3014
13.8554,58.2511
13.9057,58.2175
13.9650,58.2057
Z" /> 
<path style="fill:#B4A09A; fill-opacity:0.9000; stroke:none;fill-rule:evenodd;"
d="M 15.3700,35.0132
15.3509,35.0094
15.3346,34.9986
15.3238,34.9824
15.3200,34.9632
15.3200,34.8633
15.3238,34.8441
15.3346,34.8279
15.3509,34.8171
15.3700,34.8132
15.4700,34.8132
15.4891,34.8171
15.5054,34.8279
15.5162,34.8441
15.5200,34.8633
15.5200,34.9632
15.5162,34.9824
15.5054,34.9986
15.4891,35.0094
15.4700,35.0132
Z" /> 
<path style="fill:#B4A09A; fill-opacity:0.9000; stroke:none;fill-rule:evenodd;"
d="M 15.3700,34.4132
15.3509,34.4094
15.3346,34.3986
15.3238,34.3824
15.3200,34.3633
15.3200,34.2632
15.3238,34.2441
15.3346,34.2279
15.3509,34.2171
15.3700,34.2132
15.4700,34.2132
15.4891,34.2171
15.5054,34.2279
15.5162,34.2441
15.5200,34.2632
15.5200,34.3633
15.5162,34.3824
15.5054,34.3986
15.4891,34.4094
15.4700,34.4132
Z" /> 
<path style="fill:#B4A09A; fill-opacity:0.9000; stroke:none;fill-rule:evenodd;"
d="M 10.9200,42.2882
10.9390,42.1926
10.9932,42.1115
11.0743,42.0573
11.1700,42.0382
11.8700,42.0382
11.9657,42.0573
12.0468,42.1115
12.1010,42.1926
12.1200,42.2882
12.1200,43.1882
12.1010,43.2839
12.0468,43.3650
11.9657,43.4192
11.8700,43.4382
11.1700,43.4382
11.0743,43.4192
10.9932,43.3650
10.9390,43.2839
10.9200,43.1882
Z" /> 
<path style="fill:#B4A09A; fill-opacity:0.9000; stroke:none;fill-rule:evenodd;"
d="M 12.9200,42.2882
12.9390,42.1926
12.9932,42.1115
13.0743,42.0573
13.1700,42.0382
13.8700,42.0382
13.9657,42.0573
14.0468,42.1115
14.1010,42.1926
14.1200,42.2882
14.1200,43.1882
14.1010,43.2839
14.0468,43.3650
13.9657,43.4192
13.8700,43.4382
13.1700,43.4382
13.0743,43.4192
12.9932,43.3650
12.9390,43.2839
12.9200,43.1882
Z" /> 
<path style="fill:#B4A09A; fill-opacity:0.9000; stroke:none;fill-rule:evenodd;"
d="M 38.4700,47.2383
38.5657,47.2573
38.6468,47.3115
38.7010,47.3926
38.7200,47.4883
38.7200,48.1882
38.7010,48.2839
38.6468,48.3650
38.5657,48.4192
38.4700,48.4382
37.5700,48.4382
37.4743,48.4192
37.3932,48.3650
37.3390,48.2839
37.3200,48.1882
37.3200,47.4883
37.3390,47.3926
37.3932,47.3115
37.4743,47.2573
37.5700,47.2383
Z" /> 
<path style="fill:#B4A09A; fill-opacity:0.9000; stroke:none;fill-rule:evenodd;"
d="M 38.4700,49.2383
38.5657,49.2573
38.6468,49.3115
38.7010,49.3926
38.7200,49.4883
38.7200,50.1882
38.7010,50.2839
38.6468,50.3650
38.5657,50.4192
38.4700,50.4382
37.5700,50.4382
37.4743,50.4192
37.3932,50.3650
37.3390,50.2839
37.3200,50.1882
37.3200,49.4883
37.3390,49.3926
37.3932,49.3115
37.4743,49.2573
37.5700,49.2383
Z" /> 
<path style="fill:#B4A09A; fill-opacity:0.9000; stroke:none;fill-rule:evenodd;"
d="M 35.3950,70.2007
35.4907,70.2198
35.5718,70.2740
35.6260,70.3551
35.6450,70.4507
35.6450,71.1257
35.6260,71.2214
35.5718,71.3025
35.4907,71.3567
35.3950,71.3757
34.4450,71.3757
34.3493,71.3567
34.2682,71.3025
34.2140,71.2214
34.1950,71.1257
34.1950,70.4507
34.2140,70.3551
34.2682,70.2740
34.3493,70.2198
34.4450,70.2007
Z" /> 
<path style="fill:#B4A09A; fill-opacity:0.9000; stroke:none;fill-rule:evenodd;"
d="M 35.3950,72.2758
35.4907,72.2948
35.5718,72.3490
35.6260,72.4301
35.6450,72.5258
35.6450,73.2007
35.6260,73.2964
35.5718,73.3775
35.4907,73.4317
35.3950,73.4507
34.4450,73.4507
34.3493,73.4317
34.2682,73.3775
34.2140,73.2964
34.1950,73.2007
34.1950,72.5258
34.2140,72.4301
34.2682,72.3490
34.3493,72.2948
34.4450,72.2758
Z" /> 
<path style="fill:#B4A09A; fill-opacity:0.9000; stroke:none;fill-rule:evenodd;"
d="M 50.9450,73.3257
50.8493,73.3067
50.7682,73.2525
50.7140,73.1714
50.6950,73.0757
50.6950,72.4008
50.7140,72.3051
50.7682,72.2240
50.8493,72.1698
50.9450,72.1508
51.8950,72.1508
51.9907,72.1698
52.0718,72.2240
52.1260,72.3051
52.1450,72.4008
52.1450,73.0757
52.1260,73.1714
52.0718,73.2525
51.9907,73.3067
51.8950,73.3257
Z" /> 
<path style="fill:#B4A09A; fill-opacity:0.9000; stroke:none;fill-rule:evenodd;"
d="M 50.9450,71.2507
50.8493,71.2317
50.7682,71.1775
50.7140,71.0964
50.6950,71.0007
50.6950,70.3257
50.7140,70.2301
50.7682,70.1490
50.8493,70.0948
50.9450,70.0757
51.8950,70.0757
51.9907,70.0948
52.0718,70.1490
52.1260,70.2301
52.1450,70.3257
52.1450,71.0007
52.1260,71.0964
52.0718,71.1775
51.9907,71.2317
51.8950,71.2507
Z" /> 
<path style="fill:#B4A09A; fill-opacity:0.9000; stroke:none;fill-rule:evenodd;"
d="M 46.4575,63.5382
46.4765,63.4426
46.5307,63.3615
46.6118,63.3073
46.7075,63.2882
47.5325,63.2882
47.6282,63.3073
47.7093,63.3615
47.7635,63.4426
47.7825,63.5382
47.7825,65.7382
47.7635,65.8339
47.7093,65.9150
47.6282,65.9692
47.5325,65.9882
46.7075,65.9882
46.6118,65.9692
46.5307,65.9150
46.4765,65.8339
46.4575,65.7382
Z" /> 
<path style="fill:#B4A09A; fill-opacity:0.9000; stroke:none;fill-rule:evenodd;"
d="M 49.5825,63.5382
49.6015,63.4426
49.6557,63.3615
49.7368,63.3073
49.8325,63.2882
50.6575,63.2882
50.7532,63.3073
50.8343,63.3615
50.8885,63.4426
50.9075,63.5382
50.9075,65.7382
50.8885,65.8339
50.8343,65.9150
50.7532,65.9692
50.6575,65.9882
49.8325,65.9882
49.7368,65.9692
49.6557,65.9150
49.6015,65.8339
49.5825,65.7382
Z" /> 
<path style="fill:#B4A09A; fill-opacity:0.9000; stroke:none;fill-rule:evenodd;"
d="M 54.8700,51.9258
54.8519,52.0166
54.8004,52.0937
54.7234,52.1452
54.6325,52.1632
54.1325,52.1632
54.0416,52.1452
53.9646,52.0937
53.9131,52.0166
53.8950,51.9258
53.8950,51.4507
53.9131,51.3599
53.9646,51.2828
54.0416,51.2313
54.1325,51.2132
54.6325,51.2132
54.7234,51.2313
54.8004,51.2828
54.8519,51.3599
54.8700,51.4507
Z" /> 
<path style="fill:#B4A09A; fill-opacity:0.9000; stroke:none;fill-rule:evenodd;"
d="M 53.0450,51.9258
53.0269,52.0166
52.9754,52.0937
52.8984,52.1452
52.8075,52.1632
52.3075,52.1632
52.2166,52.1452
52.1396,52.0937
52.0881,52.0166
52.0700,51.9258
52.0700,51.4507
52.0881,51.3599
52.1396,51.2828
52.2166,51.2313
52.3075,51.2132
52.8075,51.2132
52.8984,51.2313
52.9754,51.2828
53.0269,51.3599
53.0450,51.4507
Z" /> 
<path style="fill:#B4A09A; fill-opacity:0.9000; stroke:none;fill-rule:evenodd;"
d="M 14.1200,73.0507
14.2157,73.0698
14.2968,73.1240
14.3510,73.2051
14.3700,73.3007
14.3700,74.1257
14.3510,74.2214
14.2968,74.3025
14.2157,74.3567
14.1200,74.3757
11.9200,74.3757
11.8243,74.3567
11.7432,74.3025
11.6890,74.2214
11.6700,74.1257
11.6700,73.3007
11.6890,73.2051
11.7432,73.1240
11.8243,73.0698
11.9200,73.0507
Z" /> 
<path style="fill:#B4A09A; fill-opacity:0.9000; stroke:none;fill-rule:evenodd;"
d="M 14.1200,76.1757
14.2157,76.1948
14.2968,76.2490
14.3510,76.3301
14.3700,76.4257
14.3700,77.2507
14.3510,77.3464
14.2968,77.4275
14.2157,77.4817
14.1200,77.5007
11.9200,77.5007
11.8243,77.4817
11.7432,77.4275
11.6890,77.3464
11.6700,77.2507
11.6700,76.4257
11.6890,76.3301
11.7432,76.2490
11.8243,76.1948
11.9200,76.1757
Z" /> 
<path style="fill:#B4A09A; fill-opacity:0.9000; stroke:none;fill-rule:evenodd;"
d="M 17.6200,73.0507
17.7157,73.0698
17.7968,73.1240
17.8510,73.2051
17.8700,73.3007
17.8700,74.1257
17.8510,74.2214
17.7968,74.3025
17.7157,74.3567
17.6200,74.3757
15.4200,74.3757
15.3243,74.3567
15.2432,74.3025
15.1890,74.2214
15.1700,74.1257
15.1700,73.3007
15.1890,73.2051
15.2432,73.1240
15.3243,73.0698
15.4200,73.0507
Z" /> 
<path style="fill:#B4A09A; fill-opacity:0.9000; stroke:none;fill-rule:evenodd;"
d="M 17.6200,76.1757
17.7157,76.1948
17.7968,76.2490
17.8510,76.3301
17.8700,76.4257
17.8700,77.2507
17.8510,77.3464
17.7968,77.4275
17.7157,77.4817
17.6200,77.5007
15.4200,77.5007
15.3243,77.4817
15.2432,77.4275
15.1890,77.3464
15.1700,77.2507
15.1700,76.4257
15.1890,76.3301
15.2432,76.2490
15.3243,76.1948
15.4200,76.1757
Z" /> 
<path style="fill:#B4A09A; fill-opacity:0.9000; stroke:none;fill-rule:evenodd;"
d="M 25.2000,49.1582
25.1893,49.2118
25.1590,49.2572
25.1136,49.2876
25.0600,49.2982
24.7800,49.2982
24.7264,49.2876
24.6810,49.2572
24.6507,49.2118
24.6400,49.1582
24.6400,48.8182
24.6507,48.7647
24.6810,48.7193
24.7264,48.6889
24.7800,48.6782
25.0600,48.6782
25.1136,48.6889
25.1590,48.7193
25.1893,48.7647
25.2000,48.8182
Z" /> 
<path style="fill:#B4A09A; fill-opacity:0.9000; stroke:none;fill-rule:evenodd;"
d="M 24.2400,49.1582
24.2293,49.2118
24.1990,49.2572
24.1536,49.2876
24.1000,49.2982
23.8200,49.2982
23.7664,49.2876
23.7210,49.2572
23.6907,49.2118
23.6800,49.1582
23.6800,48.8182
23.6907,48.7647
23.7210,48.7193
23.7664,48.6889
23.8200,48.6782
24.1000,48.6782
24.1536,48.6889
24.1990,48.7193
24.2293,48.7647
24.2400,48.8182
Z" /> 
<path style="fill:#B4A09A; fill-opacity:0.9000; stroke:none;fill-rule:evenodd;"
d="M 18.8575,39.7632
18.8765,39.6676
18.9307,39.5865
19.0118,39.5323
19.1075,39.5132
19.7825,39.5132
19.8782,39.5323
19.9593,39.5865
20.0135,39.6676
20.0325,39.7632
20.0325,40.7132
20.0135,40.8089
19.9593,40.8900
19.8782,40.9442
19.7825,40.9632
19.1075,40.9632
19.0118,40.9442
18.9307,40.8900
18.8765,40.8089
18.8575,40.7132
Z" /> 
<path style="fill:#B4A09A; fill-opacity:0.9000; stroke:none;fill-rule:evenodd;"
d="M 20.9325,39.7632
20.9515,39.6676
21.0057,39.5865
21.0868,39.5323
21.1825,39.5132
21.8575,39.5132
21.9532,39.5323
22.0343,39.5865
22.0885,39.6676
22.1075,39.7632
22.1075,40.7132
22.0885,40.8089
22.0343,40.8900
21.9532,40.9442
21.8575,40.9632
21.1825,40.9632
21.0868,40.9442
21.0057,40.8900
20.9515,40.8089
20.9325,40.7132
Z" /> 
<path style="fill:#B4A09A; fill-opacity:0.9000; stroke:none;fill-rule:evenodd;"
d="M 8.4950,52.8432
8.5907,52.8623
8.6718,52.9165
8.7260,52.9976
8.7450,53.0932
8.7450,53.7682
8.7260,53.8639
8.6718,53.9450
8.5907,53.9992
8.4950,54.0182
7.5450,54.0182
7.4493,53.9992
7.3682,53.9450
7.3140,53.8639
7.2950,53.7682
7.2950,53.0932
7.3140,52.9976
7.3682,52.9165
7.4493,52.8623
7.5450,52.8432
Z" /> 
<path style="fill:#B4A09A; fill-opacity:0.9000; stroke:none;fill-rule:evenodd;"
d="M 8.4950,54.9183
8.5907,54.9373
8.6718,54.9915
8.7260,55.0726
8.7450,55.1683
8.7450,55.8432
8.7260,55.9389
8.6718,56.0200
8.5907,56.0742
8.4950,56.0932
7.5450,56.0932
7.4493,56.0742
7.3682,56.0200
7.3140,55.9389
7.2950,55.8432
7.2950,55.1683
7.3140,55.0726
7.3682,54.9915
7.4493,54.9373
7.5450,54.9183
Z" /> 
<path style="fill:#B4A09A; fill-opacity:0.9000; stroke:none;fill-rule:evenodd;"
d="M 6.4700,53.0132
6.5657,53.0323
6.6468,53.0865
6.7010,53.1676
6.7200,53.2632
6.7200,54.0882
6.7010,54.1839
6.6468,54.2650
6.5657,54.3192
6.4700,54.3382
5.1700,54.3382
5.0743,54.3192
4.9932,54.2650
4.9390,54.1839
4.9200,54.0882
4.9200,53.2632
4.9390,53.1676
4.9932,53.0865
5.0743,53.0323
5.1700,53.0132
Z" /> 
<path style="fill:#B4A09A; fill-opacity:0.9000; stroke:none;fill-rule:evenodd;"
d="M 6.4700,56.1382
6.5657,56.1573
6.6468,56.2115
6.7010,56.2926
6.7200,56.3882
6.7200,57.2132
6.7010,57.3089
6.6468,57.3900
6.5657,57.4442
6.4700,57.4632
5.1700,57.4632
5.0743,57.4442
4.9932,57.3900
4.9390,57.3089
4.9200,57.2132
4.9200,56.3882
4.9390,56.2926
4.9932,56.2115
5.0743,56.1573
5.1700,56.1382
Z" /> 
<path style="fill:#B4A09A; fill-opacity:0.9000; stroke:none;fill-rule:evenodd;"
d="M 20.2075,35.4632
20.1885,35.5589
20.1343,35.6400
20.0532,35.6942
19.9575,35.7132
19.2825,35.7132
19.1868,35.6942
19.1057,35.6400
19.0515,35.5589
19.0325,35.4632
19.0325,34.5132
19.0515,34.4176
19.1057,34.3365
19.1868,34.2823
19.2825,34.2632
19.9575,34.2632
20.0532,34.2823
20.1343,34.3365
20.1885,34.4176
20.2075,34.5132
Z" /> 
<path style="fill:#B4A09A; fill-opacity:0.9000; stroke:none;fill-rule:evenodd;"
d="M 18.1325,35.4632
18.1135,35.5589
18.0593,35.6400
17.9782,35.6942
17.8825,35.7132
17.2075,35.7132
17.1118,35.6942
17.0307,35.6400
16.9765,35.5589
16.9575,35.4632
16.9575,34.5132
16.9765,34.4176
17.0307,34.3365
17.1118,34.2823
17.2075,34.2632
17.8825,34.2632
17.9782,34.2823
18.0593,34.3365
18.1135,34.4176
18.1325,34.5132
Z" /> 
<path style="fill:#B4A09A; fill-opacity:0.9000; stroke:none;fill-rule:evenodd;"
d="M 48.8950,34.3008
48.7993,34.2817
48.7182,34.2275
48.6640,34.1464
48.6450,34.0508
48.6450,33.3757
48.6640,33.2801
48.7182,33.1990
48.7993,33.1448
48.8950,33.1257
49.8450,33.1257
49.9407,33.1448
50.0218,33.1990
50.0760,33.2801
50.0950,33.3757
50.0950,34.0508
50.0760,34.1464
50.0218,34.2275
49.9407,34.2817
49.8450,34.3008
Z" /> 
<path style="fill:#B4A09A; fill-opacity:0.9000; stroke:none;fill-rule:evenodd;"
d="M 48.8950,32.2257
48.7993,32.2067
48.7182,32.1525
48.6640,32.0714
48.6450,31.9757
48.6450,31.3007
48.6640,31.2051
48.7182,31.1240
48.7993,31.0698
48.8950,31.0507
49.8450,31.0507
49.9407,31.0698
50.0218,31.1240
50.0760,31.2051
50.0950,31.3007
50.0950,31.9757
50.0760,32.0714
50.0218,32.1525
49.9407,32.2067
49.8450,32.2257
Z" /> 
<path style="fill:#B4A09A; fill-opacity:0.9000; stroke:none;fill-rule:evenodd;"
d="M 8.0375,45.8783
8.0497,45.8170
8.0844,45.7651
8.1363,45.7304
8.1975,45.7182
8.5925,45.7182
8.6537,45.7304
8.7056,45.7651
8.7403,45.8170
8.7525,45.8783
8.7525,46.1982
8.7403,46.2595
8.7056,46.3114
8.6537,46.3461
8.5925,46.3582
8.1975,46.3582
8.1363,46.3461
8.0844,46.3114
8.0497,46.2595
8.0375,46.1982
Z" /> 
<path style="fill:#B4A09A; fill-opacity:0.9000; stroke:none;fill-rule:evenodd;"
d="M 9.2325,45.8783
9.2447,45.8170
9.2794,45.7651
9.3313,45.7304
9.3925,45.7182
9.7875,45.7182
9.8487,45.7304
9.9006,45.7651
9.9353,45.8170
9.9475,45.8783
9.9475,46.1982
9.9353,46.2595
9.9006,46.3114
9.8487,46.3461
9.7875,46.3582
9.3925,46.3582
9.3313,46.3461
9.2794,46.3114
9.2447,46.2595
9.2325,46.1982
Z" /> 
<path style="fill:#B4A09A; fill-opacity:0.9000; stroke:none;fill-rule:evenodd;"
d="M 27.0700,76.1382
27.0700,78.3383
25.3700,78.3383
25.3700,76.1382
Z" /> 
<path style="fill:#B4A09A; fill-opacity:0.9000; stroke:none;fill-rule:evenodd;"
d="M 21.7700,76.1382
21.7700,78.3383
20.0700,78.3383
20.0700,76.1382
Z" /> 
<path style="fill:#B4A09A; fill-opacity:0.9000; stroke:none;fill-rule:evenodd;"
d="M 27.1700,36.1382
27.0743,36.1192
26.9932,36.0650
26.9390,35.9839
26.9200,35.8882
26.9200,35.1882
26.9390,35.0926
26.9932,35.0115
27.0743,34.9573
27.1700,34.9382
28.0700,34.9382
28.1657,34.9573
28.2468,35.0115
28.3010,35.0926
28.3200,35.1882
28.3200,35.8882
28.3010,35.9839
28.2468,36.0650
28.1657,36.1192
28.0700,36.1382
Z" /> 
<path style="fill:#B4A09A; fill-opacity:0.9000; stroke:none;fill-rule:evenodd;"
d="M 27.1700,34.1382
27.0743,34.1192
26.9932,34.0650
26.9390,33.9839
26.9200,33.8882
26.9200,33.1882
26.9390,33.0926
26.9932,33.0115
27.0743,32.9573
27.1700,32.9382
28.0700,32.9382
28.1657,32.9573
28.2468,33.0115
28.3010,33.0926
28.3200,33.1882
28.3200,33.8882
28.3010,33.9839
28.2468,34.0650
28.1657,34.1192
28.0700,34.1382
Z" /> 
<path style="fill:#B4A09A; fill-opacity:0.9000; stroke:none;fill-rule:evenodd;"
d="M 16.8200,43.7882
16.8390,43.6926
16.8932,43.6115
16.9743,43.5573
17.0700,43.5382
17.7700,43.5382
17.8657,43.5573
17.9468,43.6115
18.0010,43.6926
18.0200,43.7882
18.0200,44.6882
18.0010,44.7839
17.9468,44.8650
17.8657,44.9192
17.7700,44.9382
17.0700,44.9382
16.9743,44.9192
16.8932,44.8650
16.8390,44.7839
16.8200,44.6882
Z" /> 
<path style="fill:#B4A09A; fill-opacity:0.9000; stroke:none;fill-rule:evenodd;"
d="M 18.8200,43.7882
18.8390,43.6926
18.8932,43.6115
18.9743,43.5573
19.0700,43.5382
19.7700,43.5382
19.8657,43.5573
19.9468,43.6115
20.0010,43.6926
20.0200,43.7882
20.0200,44.6882
20.0010,44.7839
19.9468,44.8650
19.8657,44.9192
19.7700,44.9382
19.0700,44.9382
18.9743,44.9192
18.8932,44.8650
18.8390,44.7839
18.8200,44.6882
Z" /> 
<path style="fill:#B4A09A; fill-opacity:0.9000; stroke:none;fill-rule:evenodd;"
d="M 48.7450,73.3632
48.6493,73.3442
48.5682,73.2900
48.5140,73.2089
48.4950,73.1132
48.4950,72.4382
48.5140,72.3426
48.5682,72.2615
48.6493,72.2073
48.7450,72.1882
49.6950,72.1882
49.7907,72.2073
49.8718,72.2615
49.9260,72.3426
49.9450,72.4382
49.9450,73.1132
49.9260,73.2089
49.8718,73.2900
49.7907,73.3442
49.6950,73.3632
Z" /> 
<path style="fill:#B4A09A; fill-opacity:0.9000; stroke:none;fill-rule:evenodd;"
d="M 48.7450,71.2882
48.6493,71.2692
48.5682,71.2150
48.5140,71.1339
48.4950,71.0382
48.4950,70.3632
48.5140,70.2676
48.5682,70.1865
48.6493,70.1323
48.7450,70.1132
49.6950,70.1132
49.7907,70.1323
49.8718,70.1865
49.9260,70.2676
49.9450,70.3632
49.9450,71.0382
49.9260,71.1339
49.8718,71.2150
49.7907,71.2692
49.6950,71.2882
Z" /> 
<path style="fill:#B4A09A; fill-opacity:0.9000; stroke:none;fill-rule:evenodd;"
d="M 21.4200,67.4882
21.4390,67.3926
21.4932,67.3115
21.5743,67.2573
21.6700,67.2382
22.3700,67.2382
22.4657,67.2573
22.5468,67.3115
22.6010,67.3926
22.6200,67.4882
22.6200,68.3882
22.6010,68.4839
22.5468,68.5650
22.4657,68.6192
22.3700,68.6382
21.6700,68.6382
21.5743,68.6192
21.4932,68.5650
21.4390,68.4839
21.4200,68.3882
Z" /> 
<path style="fill:#B4A09A; fill-opacity:0.9000; stroke:none;fill-rule:evenodd;"
d="M 23.4200,67.4882
23.4390,67.3926
23.4932,67.3115
23.5743,67.2573
23.6700,67.2382
24.3700,67.2382
24.4657,67.2573
24.5468,67.3115
24.6010,67.3926
24.6200,67.4882
24.6200,68.3882
24.6010,68.4839
24.5468,68.5650
24.4657,68.6192
24.3700,68.6382
23.6700,68.6382
23.5743,68.6192
23.4932,68.5650
23.4390,68.4839
23.4200,68.3882
Z" /> 
<path style="fill:#B4A09A; fill-opacity:0.9000; stroke:none;fill-rule:evenodd;"
d="M 10.9100,36.7582
10.9290,36.6626
10.9832,36.5815
11.0643,36.5273
11.1600,36.5082
11.8600,36.5082
11.9557,36.5273
12.0368,36.5815
12.0910,36.6626
12.1100,36.7582
12.1100,37.6582
12.0910,37.7539
12.0368,37.8350
11.9557,37.8892
11.8600,37.9082
11.1600,37.9082
11.0643,37.8892
10.9832,37.8350
10.9290,37.7539
10.9100,37.6582
Z" /> 
<path style="fill:#B4A09A; fill-opacity:0.9000; stroke:none;fill-rule:evenodd;"
d="M 12.9100,36.7582
12.9290,36.6626
12.9832,36.5815
13.0643,36.5273
13.1600,36.5082
13.8600,36.5082
13.9557,36.5273
14.0368,36.5815
14.0910,36.6626
14.1100,36.7582
14.1100,37.6582
14.0910,37.7539
14.0368,37.8350
13.9557,37.8892
13.8600,37.9082
13.1600,37.9082
13.0643,37.8892
12.9832,37.8350
12.9290,37.7539
12.9100,37.6582
Z" /> 
<path style="fill:#B4A09A; fill-opacity:0.9000; stroke:none;fill-rule:evenodd;"
d="M 51.4575,30.3007
51.4394,30.3916
51.3879,30.4687
51.3109,30.5202
51.2200,30.5382
50.7200,30.5382
50.6291,30.5202
50.5521,30.4687
50.5006,30.3916
50.4825,30.3007
50.4825,29.8257
50.5006,29.7349
50.5521,29.6578
50.6291,29.6063
50.7200,29.5882
51.2200,29.5882
51.3109,29.6063
51.3879,29.6578
51.4394,29.7349
51.4575,29.8257
Z" /> 
<path style="fill:#B4A09A; fill-opacity:0.9000; stroke:none;fill-rule:evenodd;"
d="M 49.6325,30.3007
49.6144,30.3916
49.5629,30.4687
49.4859,30.5202
49.3950,30.5382
48.8950,30.5382
48.8041,30.5202
48.7271,30.4687
48.6756,30.3916
48.6575,30.3007
48.6575,29.8257
48.6756,29.7349
48.7271,29.6578
48.8041,29.6063
48.8950,29.5882
49.3950,29.5882
49.4859,29.6063
49.5629,29.6578
49.6144,29.7349
49.6325,29.8257
Z" /> 
<path style="fill:#B4A09A; fill-opacity:0.9000; stroke:none;fill-rule:evenodd;"
d="M 35.7200,36.7383
35.7390,36.6426
35.7932,36.5615
35.8743,36.5073
35.9700,36.4883
39.8700,36.4883
39.9657,36.5073
40.0468,36.5615
40.1010,36.6426
40.1200,36.7383
40.1200,38.7383
40.1010,38.8339
40.0468,38.9150
39.9657,38.9692
39.8700,38.9883
35.9700,38.9883
35.8743,38.9692
35.7932,38.9150
35.7390,38.8339
35.7200,38.7383
Z" /> 
<path style="fill:#B4A09A; fill-opacity:0.9000; stroke:none;fill-rule:evenodd;"
d="M 44.1200,36.7383
44.1390,36.6426
44.1932,36.5615
44.2743,36.5073
44.3700,36.4883
48.2700,36.4883
48.3657,36.5073
48.4468,36.5615
48.5010,36.6426
48.5200,36.7383
48.5200,38.7383
48.5010,38.8339
48.4468,38.9150
48.3657,38.9692
48.2700,38.9883
44.3700,38.9883
44.2743,38.9692
44.1932,38.9150
44.1390,38.8339
44.1200,38.7383
Z" /> 
<path style="fill:#B4A09A; fill-opacity:0.9000; stroke:none;fill-rule:evenodd;"
d="M 13.9950,60.7257
14.0131,60.6349
14.0646,60.5578
14.1416,60.5063
14.2325,60.4883
14.7325,60.4883
14.8234,60.5063
14.9004,60.5578
14.9519,60.6349
14.9700,60.7257
14.9700,61.2007
14.9519,61.2916
14.9004,61.3687
14.8234,61.4202
14.7325,61.4382
14.2325,61.4382
14.1416,61.4202
14.0646,61.3687
14.0131,61.2916
13.9950,61.2007
Z" /> 
<path style="fill:#B4A09A; fill-opacity:0.9000; stroke:none;fill-rule:evenodd;"
d="M 15.8200,60.7257
15.8381,60.6349
15.8896,60.5578
15.9666,60.5063
16.0575,60.4883
16.5575,60.4883
16.6484,60.5063
16.7254,60.5578
16.7769,60.6349
16.7950,60.7257
16.7950,61.2007
16.7769,61.2916
16.7254,61.3687
16.6484,61.4202
16.5575,61.4382
16.0575,61.4382
15.9666,61.4202
15.8896,61.3687
15.8381,61.2916
15.8200,61.2007
Z" /> 
<path style="fill:#B4A09A; fill-opacity:0.9000; stroke:none;fill-rule:evenodd;"
d="M 46.1950,70.1508
46.2907,70.1698
46.3718,70.2240
46.4260,70.3051
46.4450,70.4008
46.4450,71.0757
46.4260,71.1714
46.3718,71.2525
46.2907,71.3067
46.1950,71.3257
45.2450,71.3257
45.1493,71.3067
45.0682,71.2525
45.0140,71.1714
44.9950,71.0757
44.9950,70.4008
45.0140,70.3051
45.0682,70.2240
45.1493,70.1698
45.2450,70.1508
Z" /> 
<path style="fill:#B4A09A; fill-opacity:0.9000; stroke:none;fill-rule:evenodd;"
d="M 46.1950,72.2257
46.2907,72.2448
46.3718,72.2990
46.4260,72.3801
46.4450,72.4757
46.4450,73.1508
46.4260,73.2464
46.3718,73.3275
46.2907,73.3817
46.1950,73.4008
45.2450,73.4008
45.1493,73.3817
45.0682,73.3275
45.0140,73.2464
44.9950,73.1508
44.9950,72.4757
45.0140,72.3801
45.0682,72.2990
45.1493,72.2448
45.2450,72.2257
Z" /> 
<path style="fill:#B4A09A; fill-opacity:0.9000; stroke:none;fill-rule:evenodd;"
d="M 33.0825,38.6007
32.9916,38.5827
32.9146,38.5312
32.8631,38.4541
32.8450,38.3633
32.8450,37.7632
32.8631,37.6724
32.9146,37.5953
32.9916,37.5438
33.0825,37.5257
33.5575,37.5257
33.6484,37.5438
33.7254,37.5953
33.7769,37.6724
33.7950,37.7632
33.7950,38.3633
33.7769,38.4541
33.7254,38.5312
33.6484,38.5827
33.5575,38.6007
Z" /> 
<path style="fill:#B4A09A; fill-opacity:0.9000; stroke:none;fill-rule:evenodd;"
d="M 33.0825,36.8757
32.9916,36.8577
32.9146,36.8062
32.8631,36.7291
32.8450,36.6382
32.8450,36.0382
32.8631,35.9474
32.9146,35.8703
32.9916,35.8188
33.0825,35.8008
33.5575,35.8008
33.6484,35.8188
33.7254,35.8703
33.7769,35.9474
33.7950,36.0382
33.7950,36.6382
33.7769,36.7291
33.7254,36.8062
33.6484,36.8577
33.5575,36.8757
Z" /> 
<path style="fill:#B4A09A; fill-opacity:0.9000; stroke:none;fill-rule:evenodd;"
d="M 21.4200,69.1757
21.5157,69.1948
21.5968,69.2490
21.6510,69.3301
21.6700,69.4257
21.6700,70.2507
21.6510,70.3464
21.5968,70.4275
21.5157,70.4817
21.4200,70.5007
19.2200,70.5007
19.1243,70.4817
19.0432,70.4275
18.9890,70.3464
18.9700,70.2507
18.9700,69.4257
18.9890,69.3301
19.0432,69.2490
19.1243,69.1948
19.2200,69.1757
Z" /> 
<path style="fill:#B4A09A; fill-opacity:0.9000; stroke:none;fill-rule:evenodd;"
d="M 21.4200,72.3007
21.5157,72.3198
21.5968,72.3740
21.6510,72.4551
21.6700,72.5507
21.6700,73.3757
21.6510,73.4714
21.5968,73.5525
21.5157,73.6067
21.4200,73.6257
19.2200,73.6257
19.1243,73.6067
19.0432,73.5525
18.9890,73.4714
18.9700,73.3757
18.9700,72.5507
18.9890,72.4551
19.0432,72.3740
19.1243,72.3198
19.2200,72.3007
Z" /> 
<path style="fill:#B4A09A; fill-opacity:0.9000; stroke:none;fill-rule:evenodd;"
d="M 20.3825,38.7383
20.3635,38.8339
20.3093,38.9150
20.2282,38.9692
20.1325,38.9883
19.3075,38.9883
19.2118,38.9692
19.1307,38.9150
19.0765,38.8339
19.0575,38.7383
19.0575,36.5382
19.0765,36.4426
19.1307,36.3615
19.2118,36.3073
19.3075,36.2882
20.1325,36.2882
20.2282,36.3073
20.3093,36.3615
20.3635,36.4426
20.3825,36.5382
Z" /> 
<path style="fill:#B4A09A; fill-opacity:0.9000; stroke:none;fill-rule:evenodd;"
d="M 17.2575,38.7383
17.2385,38.8339
17.1843,38.9150
17.1032,38.9692
17.0075,38.9883
16.1825,38.9883
16.0868,38.9692
16.0057,38.9150
15.9515,38.8339
15.9325,38.7383
15.9325,36.5382
15.9515,36.4426
16.0057,36.3615
16.0868,36.3073
16.1825,36.2882
17.0075,36.2882
17.1032,36.3073
17.1843,36.3615
17.2385,36.4426
17.2575,36.5382
Z" /> 
<path style="fill:#B4A09A; fill-opacity:0.9000; stroke:none;fill-rule:evenodd;"
d="M 24.5200,40.7757
24.4243,40.7567
24.3432,40.7025
24.2890,40.6214
24.2700,40.5257
24.2700,39.7007
24.2890,39.6051
24.3432,39.5240
24.4243,39.4698
24.5200,39.4507
25.8200,39.4507
25.9157,39.4698
25.9968,39.5240
26.0510,39.6051
26.0700,39.7007
26.0700,40.5257
26.0510,40.6214
25.9968,40.7025
25.9157,40.7567
25.8200,40.7757
Z" /> 
<path style="fill:#B4A09A; fill-opacity:0.9000; stroke:none;fill-rule:evenodd;"
d="M 24.5200,37.6507
24.4243,37.6317
24.3432,37.5775
24.2890,37.4964
24.2700,37.4007
24.2700,36.5757
24.2890,36.4801
24.3432,36.3990
24.4243,36.3448
24.5200,36.3257
25.8200,36.3257
25.9157,36.3448
25.9968,36.3990
26.0510,36.4801
26.0700,36.5757
26.0700,37.4007
26.0510,37.4964
25.9968,37.5775
25.9157,37.6317
25.8200,37.6507
Z" /> 
<path style="fill:#B4A09A; fill-opacity:0.9000; stroke:none;fill-rule:evenodd;"
d="M 26.7200,62.6282
26.7200,64.8282
25.0200,64.8282
25.0200,62.6282
Z" /> 
<path style="fill:#B4A09A; fill-opacity:0.9000; stroke:none;fill-rule:evenodd;"
d="M 21.4200,62.6282
21.4200,64.8282
19.7200,64.8282
19.7200,62.6282
Z" /> 
<path style="fill:#B4A09A; fill-opacity:0.9000; stroke:none;fill-rule:evenodd;"
d="M 46.4575,67.0382
46.4765,66.9426
46.5307,66.8615
46.6118,66.8073
46.7075,66.7882
47.5325,66.7882
47.6282,66.8073
47.7093,66.8615
47.7635,66.9426
47.7825,67.0382
47.7825,69.2382
47.7635,69.3339
47.7093,69.4150
47.6282,69.4692
47.5325,69.4882
46.7075,69.4882
46.6118,69.4692
46.5307,69.4150
46.4765,69.3339
46.4575,69.2382
Z" /> 
<path style="fill:#B4A09A; fill-opacity:0.9000; stroke:none;fill-rule:evenodd;"
d="M 49.5825,67.0382
49.6015,66.9426
49.6557,66.8615
49.7368,66.8073
49.8325,66.7882
50.6575,66.7882
50.7532,66.8073
50.8343,66.8615
50.8885,66.9426
50.9075,67.0382
50.9075,69.2382
50.8885,69.3339
50.8343,69.4150
50.7532,69.4692
50.6575,69.4882
49.8325,69.4882
49.7368,69.4692
49.6557,69.4150
49.6015,69.3339
49.5825,69.2382
Z" /> 
<path style="fill:#B4A09A; fill-opacity:0.9000; stroke:none;fill-rule:evenodd;"
d="M 29.7700,42.5257
29.6743,42.5067
29.5932,42.4525
29.5390,42.3714
29.5200,42.2757
29.5200,41.4507
29.5390,41.3551
29.5932,41.2740
29.6743,41.2198
29.7700,41.2007
31.0700,41.2007
31.1657,41.2198
31.2468,41.2740
31.3010,41.3551
31.3200,41.4507
31.3200,42.2757
31.3010,42.3714
31.2468,42.4525
31.1657,42.5067
31.0700,42.5257
Z" /> 
<path style="fill:#B4A09A; fill-opacity:0.9000; stroke:none;fill-rule:evenodd;"
d="M 29.7700,39.4007
29.6743,39.3817
29.5932,39.3275
29.5390,39.2464
29.5200,39.1507
29.5200,38.3257
29.5390,38.2301
29.5932,38.1490
29.6743,38.0948
29.7700,38.0757
31.0700,38.0757
31.1657,38.0948
31.2468,38.1490
31.3010,38.2301
31.3200,38.3257
31.3200,39.1507
31.3010,39.2464
31.2468,39.3275
31.1657,39.3817
31.0700,39.4007
Z" /> 
<path style="fill:#B4A09A; fill-opacity:0.9000; stroke:none;fill-rule:evenodd;"
d="M 18.7810,59.6623
18.7620,59.7579
18.7078,59.8390
18.6267,59.8932
18.5310,59.9123
17.8560,59.9123
17.7603,59.8932
17.6792,59.8390
17.6250,59.7579
17.6060,59.6623
17.6060,58.7122
17.6250,58.6166
17.6792,58.5355
17.7603,58.4813
17.8560,58.4622
18.5310,58.4622
18.6267,58.4813
18.7078,58.5355
18.7620,58.6166
18.7810,58.7122
Z" /> 
<path style="fill:#B4A09A; fill-opacity:0.9000; stroke:none;fill-rule:evenodd;"
d="M 16.7060,59.6623
16.6870,59.7579
16.6328,59.8390
16.5517,59.8932
16.4560,59.9123
15.7810,59.9123
15.6853,59.8932
15.6042,59.8390
15.5500,59.7579
15.5310,59.6623
15.5310,58.7122
15.5500,58.6166
15.6042,58.5355
15.6853,58.4813
15.7810,58.4622
16.4560,58.4622
16.5517,58.4813
16.6328,58.5355
16.6870,58.6166
16.7060,58.7122
Z" /> 
<path style="fill:#B4A09A; fill-opacity:0.9000; stroke:none;fill-rule:evenodd;"
d="M 7.8725,50.6608
7.7816,50.6427
7.7046,50.5912
7.6531,50.5141
7.6350,50.4232
7.6350,49.8232
7.6531,49.7324
7.7046,49.6553
7.7816,49.6038
7.8725,49.5857
8.3475,49.5857
8.4384,49.6038
8.5154,49.6553
8.5669,49.7324
8.5850,49.8232
8.5850,50.4232
8.5669,50.5141
8.5154,50.5912
8.4384,50.6427
8.3475,50.6608
Z" /> 
<path style="fill:#B4A09A; fill-opacity:0.9000; stroke:none;fill-rule:evenodd;"
d="M 7.8725,48.9357
7.7816,48.9177
7.7046,48.8662
7.6531,48.7891
7.6350,48.6982
7.6350,48.0983
7.6531,48.0074
7.7046,47.9303
7.7816,47.8788
7.8725,47.8607
8.3475,47.8607
8.4384,47.8788
8.5154,47.9303
8.5669,48.0074
8.5850,48.0983
8.5850,48.6982
8.5669,48.7891
8.5154,48.8662
8.4384,48.9177
8.3475,48.9357
Z" /> 
<path style="fill:#B4A09A; fill-opacity:0.9000; stroke:none;fill-rule:evenodd;"
d="M 11.2200,34.4632
11.1243,34.4442
11.0432,34.3900
10.9890,34.3089
10.9700,34.2132
10.9700,33.5382
10.9890,33.4426
11.0432,33.3615
11.1243,33.3073
11.2200,33.2882
12.1700,33.2882
12.2657,33.3073
12.3468,33.3615
12.4010,33.4426
12.4200,33.5382
12.4200,34.2132
12.4010,34.3089
12.3468,34.3900
12.2657,34.4442
12.1700,34.4632
Z" /> 
<path style="fill:#B4A09A; fill-opacity:0.9000; stroke:none;fill-rule:evenodd;"
d="M 11.2200,32.3882
11.1243,32.3692
11.0432,32.3150
10.9890,32.2339
10.9700,32.1382
10.9700,31.4632
10.9890,31.3676
11.0432,31.2865
11.1243,31.2323
11.2200,31.2132
12.1700,31.2132
12.2657,31.2323
12.3468,31.2865
12.4010,31.3676
12.4200,31.4632
12.4200,32.1382
12.4010,32.2339
12.3468,32.3150
12.2657,32.3692
12.1700,32.3882
Z" /> 
<path style="fill:#B4A09A; fill-opacity:0.9000; stroke:none;fill-rule:evenodd;"
d="M 6.7950,47.6882
6.8907,47.7073
6.9718,47.7615
7.0260,47.8426
7.0450,47.9382
7.0450,48.6133
7.0260,48.7089
6.9718,48.7900
6.8907,48.8442
6.7950,48.8633
5.8450,48.8633
5.7493,48.8442
5.6682,48.7900
5.6140,48.7089
5.5950,48.6133
5.5950,47.9382
5.6140,47.8426
5.6682,47.7615
5.7493,47.7073
5.8450,47.6882
Z" /> 
<path style="fill:#B4A09A; fill-opacity:0.9000; stroke:none;fill-rule:evenodd;"
d="M 6.7950,49.7632
6.8907,49.7823
6.9718,49.8365
7.0260,49.9176
7.0450,50.0132
7.0450,50.6882
7.0260,50.7839
6.9718,50.8650
6.8907,50.9192
6.7950,50.9382
5.8450,50.9382
5.7493,50.9192
5.6682,50.8650
5.6140,50.7839
5.5950,50.6882
5.5950,50.0132
5.6140,49.9176
5.6682,49.8365
5.7493,49.7823
5.8450,49.7632
Z" /> 
<path style="fill:#B4A09A; fill-opacity:0.9000; stroke:none;fill-rule:evenodd;"
d="M 18.3175,47.6833
18.3293,47.6239
18.3629,47.5736
18.4132,47.5400
18.4725,47.5282
18.8975,47.5282
18.9568,47.5400
19.0071,47.5736
19.0407,47.6239
19.0525,47.6833
19.0525,47.9932
19.0407,48.0526
19.0071,48.1029
18.9568,48.1365
18.8975,48.1482
18.4725,48.1482
18.4132,48.1365
18.3629,48.1029
18.3293,48.0526
18.3175,47.9932
Z" /> 
<path style="fill:#B4A09A; fill-opacity:0.9000; stroke:none;fill-rule:evenodd;"
d="M 19.4525,47.6833
19.4643,47.6239
19.4979,47.5736
19.5482,47.5400
19.6075,47.5282
20.0325,47.5282
20.0918,47.5400
20.1421,47.5736
20.1757,47.6239
20.1875,47.6833
20.1875,47.9932
20.1757,48.0526
20.1421,48.1029
20.0918,48.1365
20.0325,48.1482
19.6075,48.1482
19.5482,48.1365
19.4979,48.1029
19.4643,48.0526
19.4525,47.9932
Z" /> 
<path style="fill:#B4A09A; fill-opacity:0.9000; stroke:none;fill-rule:evenodd;"
d="M 31.9450,73.4507
31.8493,73.4317
31.7682,73.3775
31.7140,73.2964
31.6950,73.2007
31.6950,72.5258
31.7140,72.4301
31.7682,72.3490
31.8493,72.2948
31.9450,72.2758
32.8950,72.2758
32.9907,72.2948
33.0718,72.3490
33.1260,72.4301
33.1450,72.5258
33.1450,73.2007
33.1260,73.2964
33.0718,73.3775
32.9907,73.4317
32.8950,73.4507
Z" /> 
<path style="fill:#B4A09A; fill-opacity:0.9000; stroke:none;fill-rule:evenodd;"
d="M 31.9450,71.3757
31.8493,71.3567
31.7682,71.3025
31.7140,71.2214
31.6950,71.1257
31.6950,70.4507
31.7140,70.3551
31.7682,70.2740
31.8493,70.2198
31.9450,70.2007
32.8950,70.2007
32.9907,70.2198
33.0718,70.2740
33.1260,70.3551
33.1450,70.4507
33.1450,71.1257
33.1260,71.2214
33.0718,71.3025
32.9907,71.3567
32.8950,71.3757
Z" /> 
<path style="fill:#B4A09A; fill-opacity:0.9000; stroke:none;fill-rule:evenodd;"
d="M 22.1200,81.1882
22.1390,81.0926
22.1932,81.0115
22.2743,80.9573
22.3700,80.9382
23.0700,80.9382
23.1657,80.9573
23.2468,81.0115
23.3010,81.0926
23.3200,81.1882
23.3200,82.0883
23.3010,82.1839
23.2468,82.2650
23.1657,82.3192
23.0700,82.3383
22.3700,82.3383
22.2743,82.3192
22.1932,82.2650
22.1390,82.1839
22.1200,82.0883
Z" /> 
<path style="fill:#B4A09A; fill-opacity:0.9000; stroke:none;fill-rule:evenodd;"
d="M 24.1200,81.1882
24.1390,81.0926
24.1932,81.0115
24.2743,80.9573
24.3700,80.9382
25.0700,80.9382
25.1657,80.9573
25.2468,81.0115
25.3010,81.0926
25.3200,81.1882
25.3200,82.0883
25.3010,82.1839
25.2468,82.2650
25.1657,82.3192
25.0700,82.3383
24.3700,82.3383
24.2743,82.3192
24.1932,82.2650
24.1390,82.1839
24.1200,82.0883
Z" /> 
<path style="fill:#B4A09A; fill-opacity:0.9000; stroke:none;fill-rule:evenodd;"
d="M 23.7200,59.4382
23.6243,59.4192
23.5432,59.3650
23.4890,59.2839
23.4700,59.1882
23.4700,58.2882
23.4890,58.1926
23.5432,58.1115
23.6243,58.0573
23.7200,58.0382
25.3200,58.0382
25.4157,58.0573
25.4968,58.1115
25.5510,58.1926
25.5700,58.2882
25.5700,59.1882
25.5510,59.2839
25.4968,59.3650
25.4157,59.4192
25.3200,59.4382
Z" /> 
<path style="fill:#B4A09A; fill-opacity:0.9000; stroke:none;fill-rule:evenodd;"
d="M 23.7200,55.0382
23.6243,55.0192
23.5432,54.9650
23.4890,54.8839
23.4700,54.7882
23.4700,53.8882
23.4890,53.7926
23.5432,53.7115
23.6243,53.6573
23.7200,53.6382
25.3200,53.6382
25.4157,53.6573
25.4968,53.7115
25.5510,53.7926
25.5700,53.8882
25.5700,54.7882
25.5510,54.8839
25.4968,54.9650
25.4157,55.0192
25.3200,55.0382
Z" /> 
<path style="fill:#B4A09A; fill-opacity:0.9000; stroke:none;fill-rule:evenodd;"
d="M 16.8200,41.7882
16.8390,41.6926
16.8932,41.6115
16.9743,41.5573
17.0700,41.5382
17.7700,41.5382
17.8657,41.5573
17.9468,41.6115
18.0010,41.6926
18.0200,41.7882
18.0200,42.6882
18.0010,42.7839
17.9468,42.8650
17.8657,42.9192
17.7700,42.9382
17.0700,42.9382
16.9743,42.9192
16.8932,42.8650
16.8390,42.7839
16.8200,42.6882
Z" /> 
<path style="fill:#B4A09A; fill-opacity:0.9000; stroke:none;fill-rule:evenodd;"
d="M 18.8200,41.7882
18.8390,41.6926
18.8932,41.6115
18.9743,41.5573
19.0700,41.5382
19.7700,41.5382
19.8657,41.5573
19.9468,41.6115
20.0010,41.6926
20.0200,41.7882
20.0200,42.6882
20.0010,42.7839
19.9468,42.8650
19.8657,42.9192
19.7700,42.9382
19.0700,42.9382
18.9743,42.9192
18.8932,42.8650
18.8390,42.7839
18.8200,42.6882
Z" /> 
<path style="fill:#B4A09A; fill-opacity:0.9000; stroke:none;fill-rule:evenodd;"
d="M 50.2950,77.1757
50.3907,77.1948
50.4718,77.2490
50.5260,77.3301
50.5450,77.4257
50.5450,78.1007
50.5260,78.1964
50.4718,78.2775
50.3907,78.3317
50.2950,78.3507
49.3450,78.3507
49.2493,78.3317
49.1682,78.2775
49.1140,78.1964
49.0950,78.1007
49.0950,77.4257
49.1140,77.3301
49.1682,77.2490
49.2493,77.1948
49.3450,77.1757
Z" /> 
<path style="fill:#B4A09A; fill-opacity:0.9000; stroke:none;fill-rule:evenodd;"
d="M 50.2950,79.2507
50.3907,79.2698
50.4718,79.3240
50.5260,79.4051
50.5450,79.5007
50.5450,80.1757
50.5260,80.2714
50.4718,80.3525
50.3907,80.4067
50.2950,80.4257
49.3450,80.4257
49.2493,80.4067
49.1682,80.3525
49.1140,80.2714
49.0950,80.1757
49.0950,79.5007
49.1140,79.4051
49.1682,79.3240
49.2493,79.2698
49.3450,79.2507
Z" /> 
<path style="fill:#B4A09A; fill-opacity:0.9000; stroke:none;fill-rule:evenodd;"
d="M 12.8300,50.8182
11.6300,50.8182
11.6300,49.6182
12.8300,49.6182
Z" /> 
<path style="fill:#B4A09A; fill-opacity:0.9000; stroke:none;fill-rule:evenodd;"
d="M 12.8300,48.0182
11.6300,48.0182
11.6300,46.8182
12.8300,46.8182
Z" /> 
<path style="fill:#B4A09A; fill-opacity:0.9000; stroke:none;fill-rule:evenodd;"
d="M 38.5200,70.5382
38.5390,70.4426
38.5932,70.3615
38.6743,70.3073
38.7700,70.2882
39.4700,70.2882
39.5657,70.3073
39.6468,70.3615
39.7010,70.4426
39.7200,70.5382
39.7200,71.4382
39.7010,71.5339
39.6468,71.6150
39.5657,71.6692
39.4700,71.6882
38.7700,71.6882
38.6743,71.6692
38.5932,71.6150
38.5390,71.5339
38.5200,71.4382
Z" /> 
<path style="fill:#B4A09A; fill-opacity:0.9000; stroke:none;fill-rule:evenodd;"
d="M 40.5200,70.5382
40.5390,70.4426
40.5932,70.3615
40.6743,70.3073
40.7700,70.2882
41.4700,70.2882
41.5657,70.3073
41.6468,70.3615
41.7010,70.4426
41.7200,70.5382
41.7200,71.4382
41.7010,71.5339
41.6468,71.6150
41.5657,71.6692
41.4700,71.6882
40.7700,71.6882
40.6743,71.6692
40.5932,71.6150
40.5390,71.5339
40.5200,71.4382
Z" /> 
<path style="fill:#B4A09A; fill-opacity:0.9000; stroke:none;fill-rule:evenodd;"
d="M 11.4600,58.9907
11.3988,58.9786
11.3469,58.9439
11.3122,58.8920
11.3000,58.8307
11.3000,58.4357
11.3122,58.3745
11.3469,58.3226
11.3988,58.2879
11.4600,58.2757
11.7800,58.2757
11.8412,58.2879
11.8931,58.3226
11.9278,58.3745
11.9400,58.4357
11.9400,58.8307
11.9278,58.8920
11.8931,58.9439
11.8412,58.9786
11.7800,58.9907
Z" /> 
<path style="fill:#B4A09A; fill-opacity:0.9000; stroke:none;fill-rule:evenodd;"
d="M 11.4600,57.7957
11.3988,57.7836
11.3469,57.7489
11.3122,57.6970
11.3000,57.6357
11.3000,57.2407
11.3122,57.1795
11.3469,57.1276
11.3988,57.0929
11.4600,57.0807
11.7800,57.0807
11.8412,57.0929
11.8931,57.1276
11.9278,57.1795
11.9400,57.2407
11.9400,57.6357
11.9278,57.6970
11.8931,57.7489
11.8412,57.7836
11.7800,57.7957
Z" /> 
<path style="fill:#B4A09A; fill-opacity:0.9000; stroke:none;fill-rule:evenodd;"
d="M 7.5450,56.6882
7.5641,56.6921
7.5804,56.7029
7.5912,56.7191
7.5950,56.7383
7.5950,56.8382
7.5912,56.8574
7.5804,56.8736
7.5641,56.8844
7.5450,56.8882
7.4450,56.8882
7.4259,56.8844
7.4096,56.8736
7.3988,56.8574
7.3950,56.8382
7.3950,56.7383
7.3988,56.7191
7.4096,56.7029
7.4259,56.6921
7.4450,56.6882
Z" /> 
<path style="fill:#B4A09A; fill-opacity:0.9000; stroke:none;fill-rule:evenodd;"
d="M 7.5450,57.2882
7.5641,57.2921
7.5804,57.3029
7.5912,57.3191
7.5950,57.3382
7.5950,57.4382
7.5912,57.4574
7.5804,57.4736
7.5641,57.4844
7.5450,57.4883
7.4450,57.4883
7.4259,57.4844
7.4096,57.4736
7.3988,57.4574
7.3950,57.4382
7.3950,57.3382
7.3988,57.3191
7.4096,57.3029
7.4259,57.2921
7.4450,57.2882
Z" /> 
<path style="fill:#B4A09A; fill-opacity:0.9000; stroke:none;fill-rule:evenodd;"
d="M 13.3200,78.0883
13.3238,78.0691
13.3346,78.0529
13.3509,78.0421
13.3700,78.0382
13.4700,78.0382
13.4891,78.0421
13.5054,78.0529
13.5162,78.0691
13.5200,78.0883
13.5200,78.1882
13.5162,78.2074
13.5054,78.2236
13.4891,78.2344
13.4700,78.2382
13.3700,78.2382
13.3509,78.2344
13.3346,78.2236
13.3238,78.2074
13.3200,78.1882
Z" /> 
<path style="fill:#B4A09A; fill-opacity:0.9000; stroke:none;fill-rule:evenodd;"
d="M 13.9200,78.0883
13.9238,78.0691
13.9346,78.0529
13.9509,78.0421
13.9700,78.0382
14.0700,78.0382
14.0891,78.0421
14.1054,78.0529
14.1162,78.0691
14.1200,78.0883
14.1200,78.1882
14.1162,78.2074
14.1054,78.2236
14.0891,78.2344
14.0700,78.2382
13.9700,78.2382
13.9509,78.2344
13.9346,78.2236
13.9238,78.2074
13.9200,78.1882
Z" /> 
<path style="fill:#B4A09A; fill-opacity:0.9000; stroke:none;fill-rule:evenodd;"
d="M 14.8575,55.5983
16.3825,55.5983
16.3825,56.2982
14.8575,56.2982
Z" /> 
<path style="fill:#B4A09A; fill-opacity:0.9000; stroke:none;fill-rule:evenodd;"
d="M 14.8575,54.3282
16.3825,54.3282
16.3825,55.0282
14.8575,55.0282
Z" /> 
<path style="fill:#B4A09A; fill-opacity:0.9000; stroke:none;fill-rule:evenodd;"
d="M 14.8575,53.0583
16.3825,53.0583
16.3825,53.7582
14.8575,53.7582
Z" /> 
<path style="fill:#B4A09A; fill-opacity:0.9000; stroke:none;fill-rule:evenodd;"
d="M 14.8575,51.7882
16.3825,51.7882
16.3825,52.4883
14.8575,52.4883
Z" /> 
<path style="fill:#B4A09A; fill-opacity:0.9000; stroke:none;fill-rule:evenodd;"
d="M 9.4335,51.7882
10.9585,51.7882
10.9585,52.4883
9.4335,52.4883
Z" /> 
<path style="fill:#B4A09A; fill-opacity:0.9000; stroke:none;fill-rule:evenodd;"
d="M 9.4335,53.0583
10.9585,53.0583
10.9585,53.7582
9.4335,53.7582
Z" /> 
<path style="fill:#B4A09A; fill-opacity:0.9000; stroke:none;fill-rule:evenodd;"
d="M 9.4335,54.3282
10.9585,54.3282
10.9585,55.0282
9.4335,55.0282
Z" /> 
<path style="fill:#B4A09A; fill-opacity:0.9000; stroke:none;fill-rule:evenodd;"
d="M 9.4335,55.5983
10.9585,55.5983
10.9585,56.2982
9.4335,56.2982
Z" /> 
<path style="fill:#B4A09A; fill-opacity:0.9000; stroke:none;fill-rule:evenodd;"
d="M 42.4450,65.5632
42.3493,65.5442
42.2682,65.4900
42.2140,65.4089
42.1950,65.3132
42.1950,64.6382
42.2140,64.5426
42.2682,64.4615
42.3493,64.4073
42.4450,64.3882
43.3950,64.3882
43.4907,64.4073
43.5718,64.4615
43.6260,64.5426
43.6450,64.6382
43.6450,65.3132
43.6260,65.4089
43.5718,65.4900
43.4907,65.5442
43.3950,65.5632
Z" /> 
<path style="fill:#B4A09A; fill-opacity:0.9000; stroke:none;fill-rule:evenodd;"
d="M 42.4450,63.4882
42.3493,63.4692
42.2682,63.4150
42.2140,63.3339
42.1950,63.2382
42.1950,62.5632
42.2140,62.4676
42.2682,62.3865
42.3493,62.3323
42.4450,62.3132
43.3950,62.3132
43.4907,62.3323
43.5718,62.3865
43.6260,62.4676
43.6450,62.5632
43.6450,63.2382
43.6260,63.3339
43.5718,63.4150
43.4907,63.4692
43.3950,63.4882
Z" /> 
<path style="fill:#B4A09A; fill-opacity:0.9000; stroke:none;fill-rule:evenodd;"
d="M 28.0200,69.1757
28.1157,69.1948
28.1968,69.2490
28.2510,69.3301
28.2700,69.4257
28.2700,70.2507
28.2510,70.3464
28.1968,70.4275
28.1157,70.4817
28.0200,70.5007
25.8200,70.5007
25.7243,70.4817
25.6432,70.4275
25.5890,70.3464
25.5700,70.2507
25.5700,69.4257
25.5890,69.3301
25.6432,69.2490
25.7243,69.1948
25.8200,69.1757
Z" /> 
<path style="fill:#B4A09A; fill-opacity:0.9000; stroke:none;fill-rule:evenodd;"
d="M 28.0200,72.3007
28.1157,72.3198
28.1968,72.3740
28.2510,72.4551
28.2700,72.5507
28.2700,73.3757
28.2510,73.4714
28.1968,73.5525
28.1157,73.6067
28.0200,73.6257
25.8200,73.6257
25.7243,73.6067
25.6432,73.5525
25.5890,73.4714
25.5700,73.3757
25.5700,72.5507
25.5890,72.4551
25.6432,72.3740
25.7243,72.3198
25.8200,72.3007
Z" /> 
<path style="fill:#B4A09A; fill-opacity:0.9000; stroke:none;fill-rule:evenodd;"
d="M 23.2200,32.7882
23.3157,32.8073
23.3968,32.8615
23.4510,32.9426
23.4700,33.0382
23.4700,33.9382
23.4510,34.0339
23.3968,34.1150
23.3157,34.1692
23.2200,34.1882
21.6200,34.1882
21.5243,34.1692
21.4432,34.1150
21.3890,34.0339
21.3700,33.9382
21.3700,33.0382
21.3890,32.9426
21.4432,32.8615
21.5243,32.8073
21.6200,32.7882
Z" /> 
<path style="fill:#B4A09A; fill-opacity:0.9000; stroke:none;fill-rule:evenodd;"
d="M 23.2200,37.1882
23.3157,37.2073
23.3968,37.2615
23.4510,37.3426
23.4700,37.4382
23.4700,38.3382
23.4510,38.4339
23.3968,38.5150
23.3157,38.5692
23.2200,38.5882
21.6200,38.5882
21.5243,38.5692
21.4432,38.5150
21.3890,38.4339
21.3700,38.3382
21.3700,37.4382
21.3890,37.3426
21.4432,37.2615
21.5243,37.2073
21.6200,37.1882
Z" /> 
<path style="fill:#B4A09A; fill-opacity:0.9000; stroke:none;fill-rule:evenodd;"
d="M 16.8200,45.7882
16.8390,45.6926
16.8932,45.6115
16.9743,45.5573
17.0700,45.5382
17.7700,45.5382
17.8657,45.5573
17.9468,45.6115
18.0010,45.6926
18.0200,45.7882
18.0200,46.6882
18.0010,46.7839
17.9468,46.8650
17.8657,46.9192
17.7700,46.9382
17.0700,46.9382
16.9743,46.9192
16.8932,46.8650
16.8390,46.7839
16.8200,46.6882
Z" /> 
<path style="fill:#B4A09A; fill-opacity:0.9000; stroke:none;fill-rule:evenodd;"
d="M 18.8200,45.7882
18.8390,45.6926
18.8932,45.6115
18.9743,45.5573
19.0700,45.5382
19.7700,45.5382
19.8657,45.5573
19.9468,45.6115
20.0010,45.6926
20.0200,45.7882
20.0200,46.6882
20.0010,46.7839
19.9468,46.8650
19.8657,46.9192
19.7700,46.9382
19.0700,46.9382
18.9743,46.9192
18.8932,46.8650
18.8390,46.7839
18.8200,46.6882
Z" /> 
<path style="fill:#B4A09A; fill-opacity:0.9000; stroke:none;fill-rule:evenodd;"
d="M 44.5450,65.5632
44.4493,65.5442
44.3682,65.4900
44.3140,65.4089
44.2950,65.3132
44.2950,64.6382
44.3140,64.5426
44.3682,64.4615
44.4493,64.4073
44.5450,64.3882
45.4950,64.3882
45.5907,64.4073
45.6718,64.4615
45.7260,64.5426
45.7450,64.6382
45.7450,65.3132
45.7260,65.4089
45.6718,65.4900
45.5907,65.5442
45.4950,65.5632
Z" /> 
<path style="fill:#B4A09A; fill-opacity:0.9000; stroke:none;fill-rule:evenodd;"
d="M 44.5450,63.4882
44.4493,63.4692
44.3682,63.4150
44.3140,63.3339
44.2950,63.2382
44.2950,62.5632
44.3140,62.4676
44.3682,62.3865
44.4493,62.3323
44.5450,62.3132
45.4950,62.3132
45.5907,62.3323
45.6718,62.3865
45.7260,62.4676
45.7450,62.5632
45.7450,63.2382
45.7260,63.3339
45.6718,63.4150
45.5907,63.4692
45.4950,63.4882
Z" /> 
<path style="fill:#B4A09A; fill-opacity:0.9000; stroke:none;fill-rule:evenodd;"
d="M 44.0950,70.1882
44.1907,70.2073
44.2718,70.2615
44.3260,70.3426
44.3450,70.4382
44.3450,71.1132
44.3260,71.2089
44.2718,71.2900
44.1907,71.3442
44.0950,71.3632
43.1450,71.3632
43.0493,71.3442
42.9682,71.2900
42.9140,71.2089
42.8950,71.1132
42.8950,70.4382
42.9140,70.3426
42.9682,70.2615
43.0493,70.2073
43.1450,70.1882
Z" /> 
<path style="fill:#B4A09A; fill-opacity:0.9000; stroke:none;fill-rule:evenodd;"
d="M 44.0950,72.2632
44.1907,72.2823
44.2718,72.3365
44.3260,72.4176
44.3450,72.5132
44.3450,73.1882
44.3260,73.2839
44.2718,73.3650
44.1907,73.4192
44.0950,73.4382
43.1450,73.4382
43.0493,73.4192
42.9682,73.3650
42.9140,73.2839
42.8950,73.1882
42.8950,72.5132
42.9140,72.4176
42.9682,72.3365
43.0493,72.2823
43.1450,72.2632
Z" /> 
<path style="fill:#B4A09A; fill-opacity:0.9000; stroke:none;fill-rule:evenodd;"
d="M 20.1825,33.4632
20.1635,33.5589
20.1093,33.6400
20.0282,33.6942
19.9325,33.7132
19.2575,33.7132
19.1618,33.6942
19.0807,33.6400
19.0265,33.5589
19.0075,33.4632
19.0075,32.5132
19.0265,32.4176
19.0807,32.3365
19.1618,32.2823
19.2575,32.2632
19.9325,32.2632
20.0282,32.2823
20.1093,32.3365
20.1635,32.4176
20.1825,32.5132
Z" /> 
<path style="fill:#B4A09A; fill-opacity:0.9000; stroke:none;fill-rule:evenodd;"
d="M 18.1075,33.4632
18.0885,33.5589
18.0343,33.6400
17.9532,33.6942
17.8575,33.7132
17.1825,33.7132
17.0868,33.6942
17.0057,33.6400
16.9515,33.5589
16.9325,33.4632
16.9325,32.5132
16.9515,32.4176
17.0057,32.3365
17.0868,32.2823
17.1825,32.2632
17.8575,32.2632
17.9532,32.2823
18.0343,32.3365
18.0885,32.4176
18.1075,32.5132
Z" /> 
<path style="fill:#B4A09A; fill-opacity:0.9000; stroke:none;fill-rule:evenodd;"
d="M 24.7200,69.1757
24.8157,69.1948
24.8968,69.2490
24.9510,69.3301
24.9700,69.4257
24.9700,70.2507
24.9510,70.3464
24.8968,70.4275
24.8157,70.4817
24.7200,70.5007
22.5200,70.5007
22.4243,70.4817
22.3432,70.4275
22.2890,70.3464
22.2700,70.2507
22.2700,69.4257
22.2890,69.3301
22.3432,69.2490
22.4243,69.1948
22.5200,69.1757
Z" /> 
<path style="fill:#B4A09A; fill-opacity:0.9000; stroke:none;fill-rule:evenodd;"
d="M 24.7200,72.3007
24.8157,72.3198
24.8968,72.3740
24.9510,72.4551
24.9700,72.5507
24.9700,73.3757
24.9510,73.4714
24.8968,73.5525
24.8157,73.6067
24.7200,73.6257
22.5200,73.6257
22.4243,73.6067
22.3432,73.5525
22.2890,73.4714
22.2700,73.3757
22.2700,72.5507
22.2890,72.4551
22.3432,72.3740
22.4243,72.3198
22.5200,72.3007
Z" /> 
<path style="fill:#B4A09A; fill-opacity:0.9000; stroke:none;fill-rule:evenodd;"
d="M 35.4700,45.7160
35.4531,45.8011
35.4049,45.8732
35.3328,45.9213
35.2478,45.9382
32.5922,45.9382
32.5072,45.9213
32.4351,45.8732
32.3869,45.8011
32.3700,45.7160
32.3700,43.7605
32.3869,43.6754
32.4351,43.6033
32.5072,43.5552
32.5922,43.5382
35.2478,43.5382
35.3328,43.5552
35.4049,43.6033
35.4531,43.6754
35.4700,43.7605
Z" /> 
<path style="fill:#B4A09A; fill-opacity:0.9000; stroke:none;fill-rule:evenodd;"
d="M 30.7700,45.7160
30.7531,45.8011
30.7049,45.8732
30.6328,45.9213
30.5478,45.9382
27.8922,45.9382
27.8072,45.9213
27.7351,45.8732
27.6869,45.8011
27.6700,45.7160
27.6700,43.7605
27.6869,43.6754
27.7351,43.6033
27.8072,43.5552
27.8922,43.5382
30.5478,43.5382
30.6328,43.5552
30.7049,43.6033
30.7531,43.6754
30.7700,43.7605
Z" /> 
<path style="fill:#B4A09A; fill-opacity:0.9000; stroke:none;fill-rule:evenodd;"
d="M 30.7200,54.1160
30.7031,54.2011
30.6549,54.2732
30.5828,54.3213
30.4978,54.3382
27.8422,54.3382
27.7572,54.3213
27.6851,54.2732
27.6369,54.2011
27.6200,54.1160
27.6200,52.1605
27.6369,52.0754
27.6851,52.0033
27.7572,51.9552
27.8422,51.9382
30.4978,51.9382
30.5828,51.9552
30.6549,52.0033
30.7031,52.0754
30.7200,52.1605
Z" /> 
<path style="fill:#B4A09A; fill-opacity:0.9000; stroke:none;fill-rule:evenodd;"
d="M 35.4200,54.1160
35.4031,54.2011
35.3549,54.2732
35.2828,54.3213
35.1978,54.3382
32.5422,54.3382
32.4572,54.3213
32.3851,54.2732
32.3369,54.2011
32.3200,54.1160
32.3200,52.1605
32.3369,52.0754
32.3851,52.0033
32.4572,51.9552
32.5422,51.9382
35.1978,51.9382
35.2828,51.9552
35.3549,52.0033
35.4031,52.0754
35.4200,52.1605
Z" /> 
<path style="fill:#B4A09A; fill-opacity:0.9000; stroke:none;fill-rule:evenodd;"
d="M 26.7200,60.0257
26.6243,60.0067
26.5432,59.9525
26.4890,59.8714
26.4700,59.7757
26.4700,58.9507
26.4890,58.8551
26.5432,58.7740
26.6243,58.7198
26.7200,58.7007
28.9200,58.7007
29.0157,58.7198
29.0968,58.7740
29.1510,58.8551
29.1700,58.9507
29.1700,59.7757
29.1510,59.8714
29.0968,59.9525
29.0157,60.0067
28.9200,60.0257
Z" /> 
<path style="fill:#B4A09A; fill-opacity:0.9000; stroke:none;fill-rule:evenodd;"
d="M 26.7200,56.9007
26.6243,56.8817
26.5432,56.8275
26.4890,56.7464
26.4700,56.6507
26.4700,55.8257
26.4890,55.7301
26.5432,55.6490
26.6243,55.5948
26.7200,55.5757
28.9200,55.5757
29.0157,55.5948
29.0968,55.6490
29.1510,55.7301
29.1700,55.8257
29.1700,56.6507
29.1510,56.7464
29.0968,56.8275
29.0157,56.8817
28.9200,56.9007
Z" /> 
<path style="fill:#B4A09A; fill-opacity:0.9000; stroke:none;fill-rule:evenodd;"
d="M 10.9075,38.8382
10.9189,38.7808
10.9514,38.7322
11.0001,38.6997
11.0575,38.6882
12.2325,38.6882
12.2899,38.6997
12.3386,38.7322
12.3711,38.7808
12.3825,38.8382
12.3825,39.1382
12.3711,39.1957
12.3386,39.2443
12.2899,39.2768
12.2325,39.2882
11.0575,39.2882
11.0001,39.2768
10.9514,39.2443
10.9189,39.1957
10.9075,39.1382
Z" /> 
<path style="fill:#B4A09A; fill-opacity:0.9000; stroke:none;fill-rule:evenodd;"
d="M 10.9075,40.7383
10.9189,40.6808
10.9514,40.6322
11.0001,40.5997
11.0575,40.5882
12.2325,40.5882
12.2899,40.5997
12.3386,40.6322
12.3711,40.6808
12.3825,40.7383
12.3825,41.0382
12.3711,41.0957
12.3386,41.1443
12.2899,41.1768
12.2325,41.1882
11.0575,41.1882
11.0001,41.1768
10.9514,41.1443
10.9189,41.0957
10.9075,41.0382
Z" /> 
<path style="fill:#B4A09A; fill-opacity:0.9000; stroke:none;fill-rule:evenodd;"
d="M 12.7825,39.7882
12.7939,39.7308
12.8264,39.6822
12.8751,39.6497
12.9325,39.6382
14.1075,39.6382
14.1649,39.6497
14.2136,39.6822
14.2461,39.7308
14.2575,39.7882
14.2575,40.0882
14.2461,40.1457
14.2136,40.1943
14.1649,40.2268
14.1075,40.2383
12.9325,40.2383
12.8751,40.2268
12.8264,40.1943
12.7939,40.1457
12.7825,40.0882
Z" /> 
<path style="fill:#B4A09A; fill-opacity:0.9000; stroke:none;fill-rule:evenodd;"
d="M 7.9950,81.0007
8.0131,80.9099
8.0646,80.8328
8.1416,80.7813
8.2325,80.7632
8.7325,80.7632
8.8234,80.7813
8.9004,80.8328
8.9519,80.9099
8.9700,81.0007
8.9700,81.4757
8.9519,81.5666
8.9004,81.6437
8.8234,81.6952
8.7325,81.7133
8.2325,81.7133
8.1416,81.6952
8.0646,81.6437
8.0131,81.5666
7.9950,81.4757
Z" /> 
<path style="fill:#B4A09A; fill-opacity:0.9000; stroke:none;fill-rule:evenodd;"
d="M 9.8200,81.0007
9.8381,80.9099
9.8896,80.8328
9.9666,80.7813
10.0575,80.7632
10.5575,80.7632
10.6484,80.7813
10.7254,80.8328
10.7769,80.9099
10.7950,81.0007
10.7950,81.4757
10.7769,81.5666
10.7254,81.6437
10.6484,81.6952
10.5575,81.7133
10.0575,81.7133
9.9666,81.6952
9.8896,81.6437
9.8381,81.5666
9.8200,81.4757
Z" /> 
<path style="fill:#B4A09A; fill-opacity:0.9000; stroke:none;fill-rule:evenodd;"
d="M 38.9422,68.0382
38.8572,68.0213
38.7851,67.9732
38.7369,67.9011
38.7200,67.8160
38.7200,65.1605
38.7369,65.0754
38.7851,65.0033
38.8572,64.9552
38.9422,64.9382
40.8978,64.9382
40.9828,64.9552
41.0549,65.0033
41.1031,65.0754
41.1200,65.1605
41.1200,67.8160
41.1031,67.9011
41.0549,67.9732
40.9828,68.0213
40.8978,68.0382
Z" /> 
<path style="fill:#B4A09A; fill-opacity:0.9000; stroke:none;fill-rule:evenodd;"
d="M 38.9422,63.3382
38.8572,63.3213
38.7851,63.2732
38.7369,63.2011
38.7200,63.1160
38.7200,60.4605
38.7369,60.3754
38.7851,60.3033
38.8572,60.2552
38.9422,60.2383
40.8978,60.2383
40.9828,60.2552
41.0549,60.3033
41.1031,60.3754
41.1200,60.4605
41.1200,63.1160
41.1031,63.2011
41.0549,63.2732
40.9828,63.3213
40.8978,63.3382
Z" /> 
<path style="fill:#B4A09A; fill-opacity:0.9000; stroke:none;fill-rule:evenodd;"
d="M 30.5422,63.2882
30.4572,63.2713
30.3851,63.2232
30.3369,63.1511
30.3200,63.0660
30.3200,60.4105
30.3369,60.3254
30.3851,60.2533
30.4572,60.2052
30.5422,60.1882
32.4978,60.1882
32.5828,60.2052
32.6549,60.2533
32.7031,60.3254
32.7200,60.4105
32.7200,63.0660
32.7031,63.1511
32.6549,63.2232
32.5828,63.2713
32.4978,63.2882
Z" /> 
<path style="fill:#B4A09A; fill-opacity:0.9000; stroke:none;fill-rule:evenodd;"
d="M 30.5422,67.9882
30.4572,67.9713
30.3851,67.9232
30.3369,67.8511
30.3200,67.7660
30.3200,65.1105
30.3369,65.0254
30.3851,64.9533
30.4572,64.9052
30.5422,64.8882
32.4978,64.8882
32.5828,64.9052
32.6549,64.9533
32.7031,65.0254
32.7200,65.1105
32.7200,67.7660
32.7031,67.8511
32.6549,67.9232
32.5828,67.9713
32.4978,67.9882
Z" /> 
<path style="fill:#B4A09A; fill-opacity:0.9000; stroke:none;fill-rule:evenodd;"
d="M 31.1700,36.1382
31.0743,36.1192
30.9932,36.0650
30.9390,35.9839
30.9200,35.8882
30.9200,35.1882
30.9390,35.0926
30.9932,35.0115
31.0743,34.9573
31.1700,34.9382
32.0700,34.9382
32.1657,34.9573
32.2468,35.0115
32.3010,35.0926
32.3200,35.1882
32.3200,35.8882
32.3010,35.9839
32.2468,36.0650
32.1657,36.1192
32.0700,36.1382
Z" /> 
<path style="fill:#B4A09A; fill-opacity:0.9000; stroke:none;fill-rule:evenodd;"
d="M 31.1700,34.1382
31.0743,34.1192
30.9932,34.0650
30.9390,33.9839
30.9200,33.8882
30.9200,33.1882
30.9390,33.0926
30.9932,33.0115
31.0743,32.9573
31.1700,32.9382
32.0700,32.9382
32.1657,32.9573
32.2468,33.0115
32.3010,33.0926
32.3200,33.1882
32.3200,33.8882
32.3010,33.9839
32.2468,34.0650
32.1657,34.1192
32.0700,34.1382
Z" /> 
<path style="fill:#B4A09A; fill-opacity:0.9000; stroke:none;fill-rule:evenodd;"
d="M 17.0200,30.5382
17.0390,30.4426
17.0932,30.3615
17.1743,30.3073
17.2700,30.2882
17.9700,30.2882
18.0657,30.3073
18.1468,30.3615
18.2010,30.4426
18.2200,30.5382
18.2200,31.4383
18.2010,31.5339
18.1468,31.6150
18.0657,31.6692
17.9700,31.6883
17.2700,31.6883
17.1743,31.6692
17.0932,31.6150
17.0390,31.5339
17.0200,31.4383
Z" /> 
<path style="fill:#B4A09A; fill-opacity:0.9000; stroke:none;fill-rule:evenodd;"
d="M 19.0200,30.5382
19.0390,30.4426
19.0932,30.3615
19.1743,30.3073
19.2700,30.2882
19.9700,30.2882
20.0657,30.3073
20.1468,30.3615
20.2010,30.4426
20.2200,30.5382
20.2200,31.4383
20.2010,31.5339
20.1468,31.6150
20.0657,31.6692
19.9700,31.6883
19.2700,31.6883
19.1743,31.6692
19.0932,31.6150
19.0390,31.5339
19.0200,31.4383
Z" /> 
<path style="fill:#B4A09A; fill-opacity:0.9000; stroke:none;fill-rule:evenodd;"
d="M 19.6150,56.5382
19.5193,56.5192
19.4382,56.4650
19.3840,56.3839
19.3650,56.2882
19.3650,55.3882
19.3840,55.2926
19.4382,55.2115
19.5193,55.1573
19.6150,55.1383
22.4650,55.1382
22.5607,55.1573
22.6418,55.2115
22.6960,55.2926
22.7150,55.3882
22.7150,56.2883
22.6960,56.3839
22.6418,56.4650
22.5607,56.5192
22.4650,56.5382
Z" /> 
<path style="fill:#B4A09A; fill-opacity:0.9000; stroke:none;fill-rule:evenodd;"
d="M 19.6150,50.4382
19.5193,50.4192
19.4382,50.3650
19.3840,50.2839
19.3650,50.1882
19.3650,49.2882
19.3840,49.1926
19.4382,49.1115
19.5193,49.0573
19.6150,49.0383
22.4650,49.0382
22.5607,49.0573
22.6418,49.1115
22.6960,49.1926
22.7150,49.2882
22.7150,50.1883
22.6960,50.2839
22.6418,50.3650
22.5607,50.4192
22.4650,50.4382
Z" /> 
<path style="fill:#B4A09A; fill-opacity:0.9000; stroke:none;fill-rule:evenodd;"
d="M 51.2325,82.0258
51.2144,82.1166
51.1629,82.1937
51.0859,82.2452
50.9950,82.2632
50.4950,82.2632
50.4041,82.2452
50.3271,82.1937
50.2756,82.1166
50.2575,82.0258
50.2575,81.5507
50.2756,81.4599
50.3271,81.3828
50.4041,81.3313
50.4950,81.3132
50.9950,81.3132
51.0859,81.3313
51.1629,81.3828
51.2144,81.4599
51.2325,81.5507
Z" /> 
<path style="fill:#B4A09A; fill-opacity:0.9000; stroke:none;fill-rule:evenodd;"
d="M 49.4075,82.0258
49.3894,82.1166
49.3379,82.1937
49.2609,82.2452
49.1700,82.2632
48.6700,82.2632
48.5791,82.2452
48.5021,82.1937
48.4506,82.1166
48.4325,82.0258
48.4325,81.5507
48.4506,81.4599
48.5021,81.3828
48.5791,81.3313
48.6700,81.3132
49.1700,81.3132
49.2609,81.3313
49.3379,81.3828
49.3894,81.4599
49.4075,81.5507
Z" /> 
<path style="fill:#B4A09A; fill-opacity:0.9000; stroke:none;fill-rule:evenodd;"
d="M 50.0535,49.3143
50.0725,49.2186
50.1267,49.1375
50.2078,49.0833
50.3035,49.0643
50.9785,49.0643
51.0742,49.0833
51.1553,49.1375
51.2095,49.2186
51.2285,49.3143
51.2285,50.2642
51.2095,50.3599
51.1553,50.4410
51.0742,50.4952
50.9785,50.5142
50.3035,50.5142
50.2078,50.4952
50.1267,50.4410
50.0725,50.3599
50.0535,50.2642
Z" /> 
<path style="fill:#B4A09A; fill-opacity:0.9000; stroke:none;fill-rule:evenodd;"
d="M 52.1285,49.3143
52.1475,49.2186
52.2017,49.1375
52.2828,49.0833
52.3785,49.0643
53.0535,49.0643
53.1492,49.0833
53.2303,49.1375
53.2845,49.2186
53.3035,49.3143
53.3035,50.2642
53.2845,50.3599
53.2303,50.4410
53.1492,50.4952
53.0535,50.5142
52.3785,50.5142
52.2828,50.4952
52.2017,50.4410
52.1475,50.3599
52.1285,50.2642
Z" /> 
<path style="fill:none; 
stroke:#D0D2CD; stroke-width:0.0500; stroke-opacity:1; 
stroke-linecap:round; stroke-linejoin:round;fill:none"
d="M 0.0500,16.3382
58.9200,16.3382
58.9200,95.5382
0.0500,95.5382
Z" /> 
</g> 
</svg>
