<?xml version="1.0" standalone="no"?>
 <!DOCTYPE svg PUBLIC "-//W3C//DTD SVG 1.1//EN" 
 "http://www.w3.org/Graphics/SVG/1.1/DTD/svg11.dtd"> 
<svg
  xmlns:svg="http://www.w3.org/2000/svg"
  xmlns="http://www.w3.org/2000/svg"
  xmlns:xlink="http://www.w3.org/1999/xlink"
  version="1.1"
  width="70.9676mm" height="95.5802mm" viewBox="0.0000 0.0000 70.9676 95.5802">
<title>SVG Image created as SEPIC-A-F_Courtyard.svg date 2024/09/19 09:59:25 </title>
  <desc>Image generated by PCBNEW </desc>
<g style="fill:#000000; fill-opacity:1.0000;stroke:#000000; stroke-opacity:1.0000;
stroke-linecap:round; stroke-linejoin:round;"
 transform="translate(0 0) scale(1 1)">
</g>
<g style="fill:none; 
stroke:#FF26E2; stroke-width:0.0500; stroke-opacity:1; 
stroke-linecap:round; stroke-linejoin:round;">
<path d="M29.3400 69.9082
L31.3000 69.9082
" />
<path d="M29.3400 73.6683
L29.3400 69.9082
" />
<path d="M31.3000 69.9082
L31.3000 73.6683
" />
<path d="M31.3000 73.6683
L29.3400 73.6683
" />
<path d="M13.4000 49.2482
L17.1000 49.2482
" />
<path d="M13.4000 51.1482
L13.4000 49.2482
" />
<path d="M17.1000 49.2482
L17.1000 51.1482
" />
<path d="M17.1000 51.1482
L13.4000 51.1482
" />
<path d="M16.7700 51.3882
L18.6700 51.3882
" />
<path d="M16.7700 55.0882
L16.7700 51.3882
" />
<path d="M18.6700 51.3882
L18.6700 55.0882
" />
<path d="M18.6700 55.0882
L16.7700 55.0882
" />
</g>
<g style="fill:none; 
stroke:#FF26E2; stroke-width:0.1000; stroke-opacity:1; 
stroke-linecap:round; stroke-linejoin:round;">
<path d="M3.6000 82.7182
L29.6000 82.7182
" />
<path d="M3.6000 95.4183
L3.6000 82.7182
" />
<path d="M29.6000 82.7182
L29.6000 95.4183
" />
<path d="M29.6000 95.4183
L3.6000 95.4183
" />
</g>
<g style="fill:none; 
stroke:#FF26E2; stroke-width:0.0500; stroke-opacity:1; 
stroke-linecap:round; stroke-linejoin:round;">
<path d="M26.7700 37.8207
L29.0700 37.8207
" />
<path d="M26.7700 42.7807
L26.7700 37.8207
" />
<path d="M29.0700 37.8207
L29.0700 42.7807
" />
<path d="M29.0700 42.7807
L26.7700 42.7807
" />
<path d="M13.4000 47.2782
L17.1000 47.2782
" />
<path d="M13.4000 49.1782
L13.4000 47.2782
" />
<path d="M17.1000 47.2782
L17.1000 49.1782
" />
<path d="M17.1000 49.1782
L13.4000 49.1782
" />
<path d="M7.5775 43.8083
L10.8775 43.8083
" />
<path d="M7.5775 45.2682
L7.5775 43.8083
" />
<path d="M10.8775 43.8083
L10.8775 45.2682
" />
<path d="M10.8775 45.2682
L7.5775 45.2682
" />
<path d="M28.6700 32.6882
L30.5700 32.6882
" />
<path d="M28.6700 36.3882
L28.6700 32.6882
" />
<path d="M30.5700 32.6882
L30.5700 36.3882
" />
<path d="M30.5700 36.3882
L28.6700 36.3882
" />
<path d="M9.3700 29.4832
L12.6700 29.4832
" />
<path d="M9.3700 30.9432
L9.3700 29.4832
" />
<path d="M12.6700 29.4832
L12.6700 30.9432
" />
<path d="M12.6700 30.9432
L9.3700 30.9432
" />
<path d="M29.7025 55.2582
L33.4625 55.2582
" />
<path d="M29.7025 57.2182
L29.7025 55.2582
" />
<path d="M33.4625 55.2582
L33.4625 57.2182
" />
<path d="M33.4625 57.2182
L29.7025 57.2182
" />
<path d="M9.2900 76.4582
L11.2500 76.4582
" />
<path d="M9.2900 80.2182
L9.2900 76.4582
" />
<path d="M11.2500 76.4582
L11.2500 80.2182
" />
<path d="M11.2500 80.2182
L9.2900 80.2182
" />
</g>
<g style="fill:none; 
stroke:#FF26E2; stroke-width:0.1000; stroke-opacity:1; 
stroke-linecap:round; stroke-linejoin:round;">
<path d="M20.3700 41.3002
L25.9200 41.2907
" />
<path d="M20.3700 48.4408
L20.3700 41.3002
" />
<path d="M25.9200 41.2907
L25.9200 48.4312
" />
<path d="M25.9200 48.4312
L20.3700 48.4408
" />
</g>
<g style="fill:none; 
stroke:#FF26E2; stroke-width:0.0500; stroke-opacity:1; 
stroke-linecap:round; stroke-linejoin:round;">
<path d="M16.7725 55.1782
L18.9325 55.1782
" />
<path d="M16.7725 56.0983
L16.7725 55.1782
" />
<path d="M18.9325 55.1782
L18.9325 56.0983
" />
<path d="M18.9325 56.0983
L16.7725 56.0983
" />
<path d="M25.0800 49.5257
L26.0200 49.5257
" />
<path d="M25.0800 51.7257
L25.0800 49.5257
" />
<path d="M26.0200 49.5257
L26.0200 51.7257
" />
<path d="M26.0200 51.7257
L25.0800 51.7257
" />
<path d="M36.0400 70.0083
L38.0000 70.0083
" />
<path d="M36.0400 73.7682
L36.0400 70.0083
" />
<path d="M38.0000 70.0083
L38.0000 73.7682
" />
<path d="M38.0000 73.7682
L36.0400 73.7682
" />
<path d="M13.6600 56.9258
L14.5800 56.9258
" />
<path d="M13.6600 59.0857
L13.6600 56.9258
" />
<path d="M14.5800 56.9258
L14.5800 59.0857
" />
<path d="M14.5800 59.0857
L13.6600 59.0857
" />
</g>
<g style="fill:none; 
stroke:#FF26E2; stroke-width:0.1000; stroke-opacity:1; 
stroke-linecap:round; stroke-linejoin:round;">
<path d="M3.9600 16.4782
L29.9600 16.4782
" />
<path d="M3.9600 29.1782
L3.9600 16.4782
" />
<path d="M29.9600 16.4782
L29.9600 29.1782
" />
<path d="M29.9600 29.1782
L3.9600 29.1782
" />
</g>
<g style="fill:none; 
stroke:#FF26E2; stroke-width:0.0500; stroke-opacity:1; 
stroke-linecap:round; stroke-linejoin:round;">
<path d="M10.6700 41.7882
L14.3700 41.7882
" />
<path d="M10.6700 43.6882
L10.6700 41.7882
" />
<path d="M14.3700 41.7882
L14.3700 43.6882
" />
<path d="M14.3700 43.6882
L10.6700 43.6882
" />
<path d="M37.0700 46.9883
L38.9700 46.9883
" />
<path d="M37.0700 50.6882
L37.0700 46.9883
" />
<path d="M38.9700 46.9883
L38.9700 50.6882
" />
<path d="M38.9700 50.6882
L37.0700 50.6882
" />
<path d="M33.9400 69.9458
L35.9000 69.9458
" />
<path d="M33.9400 73.7057
L33.9400 69.9458
" />
<path d="M35.9000 69.9458
L35.9000 73.7057
" />
<path d="M35.9000 73.7057
L33.9400 73.7057
" />
<path d="M50.4400 69.8208
L52.4000 69.8208
" />
<path d="M50.4400 73.5807
L50.4400 69.8208
" />
<path d="M52.4000 69.8208
L52.4000 73.5807
" />
<path d="M52.4000 73.5807
L50.4400 73.5807
" />
<path d="M46.2025 63.0382
L51.1625 63.0382
" />
<path d="M46.2025 66.2382
L46.2025 63.0382
" />
<path d="M51.1625 63.0382
L51.1625 66.2382
" />
<path d="M51.1625 66.2382
L46.2025 66.2382
" />
<path d="M51.8200 50.9582
L55.1200 50.9582
" />
<path d="M51.8200 52.4183
L51.8200 50.9582
" />
<path d="M55.1200 50.9582
L55.1200 52.4183
" />
<path d="M55.1200 52.4183
L51.8200 52.4183
" />
<path d="M11.4200 72.7957
L14.6200 72.7957
" />
<path d="M11.4200 77.7557
L11.4200 72.7957
" />
<path d="M14.6200 72.7957
L14.6200 77.7557
" />
<path d="M14.6200 77.7557
L11.4200 77.7557
" />
<path d="M14.9200 72.7957
L18.1200 72.7957
" />
<path d="M14.9200 77.7557
L14.9200 72.7957
" />
<path d="M18.1200 72.7957
L18.1200 77.7557
" />
<path d="M18.1200 77.7557
L14.9200 77.7557
" />
<path d="M23.5300 48.5282
L25.3500 48.5282
" />
<path d="M23.5300 49.4482
L23.5300 48.5282
" />
<path d="M25.3500 48.5282
L25.3500 49.4482
" />
<path d="M25.3500 49.4482
L23.5300 49.4482
" />
<path d="M18.6025 39.2582
L22.3625 39.2582
" />
<path d="M18.6025 41.2182
L18.6025 39.2582
" />
<path d="M22.3625 39.2582
L22.3625 41.2182
" />
<path d="M22.3625 41.2182
L18.6025 41.2182
" />
<path d="M7.0400 52.5882
L9.0000 52.5882
" />
<path d="M7.0400 56.3483
L7.0400 52.5882
" />
<path d="M9.0000 52.5882
L9.0000 56.3483
" />
<path d="M9.0000 56.3483
L7.0400 56.3483
" />
<path d="M4.6700 52.7582
L6.9700 52.7582
" />
<path d="M4.6700 57.7182
L4.6700 52.7582
" />
<path d="M6.9700 52.7582
L6.9700 57.7182
" />
<path d="M6.9700 57.7182
L4.6700 57.7182
" />
<circle cx="4.5500" cy="32.8653" r="3.4500" /> 
<path d="M16.7025 34.0082
L20.4625 34.0082
" />
<path d="M16.7025 35.9682
L16.7025 34.0082
" />
<path d="M20.4625 34.0082
L20.4625 35.9682
" />
<path d="M20.4625 35.9682
L16.7025 35.9682
" />
<path d="M48.3900 30.7957
L50.3500 30.7957
" />
<path d="M48.3900 34.5557
L48.3900 30.7957
" />
<path d="M50.3500 30.7957
L50.3500 34.5557
" />
<path d="M50.3500 34.5557
L48.3900 34.5557
" />
<path d="M7.8925 45.5682
L10.0925 45.5682
" />
<path d="M7.8925 46.5082
L7.8925 45.5682
" />
<path d="M10.0925 45.5682
L10.0925 46.5082
" />
<path d="M10.0925 46.5082
L7.8925 46.5082
" />
<path d="M19.9200 73.9882
L28.0700 73.9882
" />
<path d="M19.9200 80.5382
L19.9200 73.9882
" />
<path d="M28.0700 73.9882
L28.0700 80.5382
" />
<path d="M28.0700 80.5382
L19.9200 80.5382
" />
<path d="M26.6700 32.6882
L28.5700 32.6882
" />
<path d="M26.6700 36.3882
L26.6700 32.6882
" />
<path d="M28.5700 32.6882
L28.5700 36.3882
" />
<path d="M28.5700 36.3882
L26.6700 36.3882
" />
<path d="M16.5700 43.2882
L20.2700 43.2882
" />
<path d="M16.5700 45.1882
L16.5700 43.2882
" />
<path d="M20.2700 43.2882
L20.2700 45.1882
" />
<path d="M20.2700 45.1882
L16.5700 45.1882
" />
<path d="M48.2400 69.8582
L50.2000 69.8582
" />
<path d="M48.2400 73.6183
L48.2400 69.8582
" />
<path d="M50.2000 69.8582
L50.2000 73.6183
" />
<path d="M50.2000 73.6183
L48.2400 73.6183
" />
<path d="M21.1700 66.9882
L24.8700 66.9882
" />
<path d="M21.1700 68.8882
L21.1700 66.9882
" />
<path d="M24.8700 66.9882
L24.8700 68.8882
" />
<path d="M24.8700 68.8882
L21.1700 68.8882
" />
<path d="M10.6600 36.2582
L14.3600 36.2582
" />
<path d="M10.6600 38.1582
L10.6600 36.2582
" />
<path d="M14.3600 36.2582
L14.3600 38.1582
" />
<path d="M14.3600 38.1582
L10.6600 38.1582
" />
<path d="M48.4075 29.3332
L51.7075 29.3332
" />
<path d="M48.4075 30.7932
L48.4075 29.3332
" />
<path d="M51.7075 29.3332
L51.7075 30.7932
" />
<path d="M51.7075 30.7932
L48.4075 30.7932
" />
<path d="M35.4700 36.2383
L35.4700 39.2383
" />
<path d="M35.4700 39.2383
L36.6200 39.2383
" />
<path d="M36.6200 33.3882
L36.6200 36.2383
" />
<path d="M36.6200 33.3882
L37.7700 32.2383
" />
<path d="M36.6200 36.2383
L35.4700 36.2383
" />
<path d="M36.6200 39.2383
L36.6200 42.0882
" />
<path d="M36.6200 42.0882
L37.7700 43.2383
" />
<path d="M37.7700 32.2383
L47.6200 32.2383
" />
<path d="M37.7700 43.2383
L47.6200 43.2383
" />
<path d="M47.6200 32.2383
L47.6200 36.2383
" />
<path d="M47.6200 36.2383
L48.7700 36.2383
" />
<path d="M47.6200 39.2383
L47.6200 43.2383
" />
<path d="M48.7700 36.2383
L48.7700 39.2383
" />
<path d="M48.7700 39.2383
L47.6200 39.2383
" />
<path d="M13.7450 60.2332
L17.0450 60.2332
" />
<path d="M13.7450 61.6932
L13.7450 60.2332
" />
<path d="M17.0450 60.2332
L17.0450 61.6932
" />
<path d="M17.0450 61.6932
L13.7450 61.6932
" />
<path d="M44.7400 69.8957
L46.7000 69.8957
" />
<path d="M44.7400 73.6557
L44.7400 69.8957
" />
<path d="M46.7000 69.8957
L46.7000 73.6557
" />
<path d="M46.7000 73.6557
L44.7400 73.6557
" />
<path d="M32.5900 35.5508
L34.0500 35.5508
" />
<path d="M32.5900 38.8507
L32.5900 35.5508
" />
<path d="M34.0500 35.5508
L34.0500 38.8507
" />
<path d="M34.0500 38.8507
L32.5900 38.8507
" />
<path d="M18.7200 68.9207
L21.9200 68.9207
" />
<path d="M18.7200 73.8807
L18.7200 68.9207
" />
<path d="M21.9200 68.9207
L21.9200 73.8807
" />
<path d="M21.9200 73.8807
L18.7200 73.8807
" />
<path d="M15.6775 36.0382
L20.6375 36.0382
" />
<path d="M15.6775 39.2383
L15.6775 36.0382
" />
<path d="M20.6375 36.0382
L20.6375 39.2383
" />
<path d="M20.6375 39.2383
L15.6775 39.2383
" />
<path d="M24.0200 36.0707
L26.3200 36.0707
" />
<path d="M24.0200 41.0307
L24.0200 36.0707
" />
<path d="M26.3200 36.0707
L26.3200 41.0307
" />
<path d="M26.3200 41.0307
L24.0200 41.0307
" />
<path d="M19.4200 60.4282
L27.3200 60.4282
" />
<path d="M19.4200 66.9783
L19.4200 60.4282
" />
<path d="M27.3200 60.4282
L27.3200 66.9783
" />
<path d="M27.3200 66.9783
L19.4200 66.9783
" />
<path d="M46.2025 66.5382
L51.1625 66.5382
" />
<path d="M46.2025 69.7382
L46.2025 66.5382
" />
<path d="M51.1625 66.5382
L51.1625 69.7382
" />
<path d="M51.1625 69.7382
L46.2025 69.7382
" />
<path d="M29.2700 37.8207
L31.5700 37.8207
" />
<path d="M29.2700 42.7807
L29.2700 37.8207
" />
<path d="M31.5700 37.8207
L31.5700 42.7807
" />
<path d="M31.5700 42.7807
L29.2700 42.7807
" />
<path d="M15.2760 58.2072
L19.0360 58.2072
" />
<path d="M15.2760 60.1672
L15.2760 58.2072
" />
<path d="M19.0360 58.2072
L19.0360 60.1672
" />
<path d="M19.0360 60.1672
L15.2760 60.1672
" />
<path d="M7.3800 47.6107
L8.8400 47.6107
" />
<path d="M7.3800 50.9108
L7.3800 47.6107
" />
<path d="M8.8400 47.6107
L8.8400 50.9108
" />
<path d="M8.8400 50.9108
L7.3800 50.9108
" />
</g>
<g style="fill:none; 
stroke:#FF26E2; stroke-width:0.1000; stroke-opacity:1; 
stroke-linecap:round; stroke-linejoin:round;">
<path d="M29.8600 82.7082
L55.8600 82.7082
" />
<path d="M29.8600 95.4382
L29.8600 82.7082
" />
<path d="M55.8600 82.7082
L55.8600 95.4382
" />
<path d="M55.8600 95.4382
L29.8600 95.4382
" />
</g>
<g style="fill:none; 
stroke:#FF26E2; stroke-width:0.0500; stroke-opacity:1; 
stroke-linecap:round; stroke-linejoin:round;">
<path d="M10.7150 30.9582
L12.6750 30.9582
" />
<path d="M10.7150 34.7182
L10.7150 30.9582
" />
<path d="M12.6750 30.9582
L12.6750 34.7182
" />
<path d="M12.6750 34.7182
L10.7150 34.7182
" />
<path d="M5.3400 47.4333
L7.3000 47.4333
" />
<path d="M5.3400 51.1932
L5.3400 47.4333
" />
<path d="M7.3000 47.4333
L7.3000 51.1932
" />
<path d="M7.3000 51.1932
L5.3400 51.1932
" />
<path d="M18.1725 47.3783
L20.3325 47.3783
" />
<path d="M18.1725 48.2982
L18.1725 47.3783
" />
<path d="M20.3325 47.3783
L20.3325 48.2982
" />
<path d="M20.3325 48.2982
L18.1725 48.2982
" />
<path d="M31.4400 69.9458
L33.4000 69.9458
" />
<path d="M31.4400 73.7057
L31.4400 69.9458
" />
<path d="M33.4000 69.9458
L33.4000 73.7057
" />
<path d="M33.4000 73.7057
L31.4400 73.7057
" />
<path d="M21.8700 80.6882
L25.5700 80.6882
" />
<path d="M21.8700 82.5883
L21.8700 80.6882
" />
<path d="M25.5700 80.6882
L25.5700 82.5883
" />
<path d="M25.5700 82.5883
L21.8700 82.5883
" />
<path d="M23.0200 53.3882
L26.0200 53.3882
" />
<path d="M23.0200 59.6882
L23.0200 53.3882
" />
<path d="M23.0200 59.6882
L26.0200 59.6882
" />
<path d="M26.0200 53.3882
L26.0200 59.6882
" />
<path d="M16.5700 41.2882
L20.2700 41.2882
" />
<path d="M16.5700 43.1882
L16.5700 41.2882
" />
<path d="M20.2700 41.2882
L20.2700 43.1882
" />
<path d="M20.2700 43.1882
L16.5700 43.1882
" />
<circle cx="54.4800" cy="79.0583" r="3.4500" /> 
<path d="M48.8400 76.9207
L50.8000 76.9207
" />
<path d="M48.8400 80.6808
L48.8400 76.9207
" />
<path d="M50.8000 76.9207
L50.8000 80.6808
" />
<path d="M50.8000 80.6808
L48.8400 80.6808
" />
<path d="M11.1300 46.5682
L13.3300 46.5682
" />
<path d="M11.1300 51.0682
L11.1300 46.5682
" />
<path d="M11.1300 51.0682
L13.3300 51.0682
" />
<path d="M13.3300 46.5682
L13.3300 51.0682
" />
</g>
<g style="fill:none; 
stroke:#FF26E2; stroke-width:0.1000; stroke-opacity:1; 
stroke-linecap:round; stroke-linejoin:round;">
<path d="M30.1700 16.4232
L56.1700 16.4232
" />
<path d="M30.1700 29.1532
L30.1700 16.4232
" />
<path d="M56.1700 16.4232
L56.1700 29.1532
" />
<path d="M56.1700 29.1532
L30.1700 29.1532
" />
</g>
<g style="fill:none; 
stroke:#FF26E2; stroke-width:0.0500; stroke-opacity:1; 
stroke-linecap:round; stroke-linejoin:round;">
<path d="M38.2700 70.0382
L41.9700 70.0382
" />
<path d="M38.2700 71.9382
L38.2700 70.0382
" />
<path d="M41.9700 70.0382
L41.9700 71.9382
" />
<path d="M41.9700 71.9382
L38.2700 71.9382
" />
<path d="M11.1500 56.9357
L12.0900 56.9357
" />
<path d="M11.1500 59.1357
L11.1500 56.9357
" />
<path d="M12.0900 56.9357
L12.0900 59.1357
" />
<path d="M12.0900 59.1357
L11.1500 59.1357
" />
<path d="M9.1830 51.2933
L16.6330 51.2933
" />
<path d="M9.1830 56.7933
L9.1830 51.2933
" />
<path d="M16.6330 51.2933
L16.6330 56.7933
" />
<path d="M16.6330 56.7933
L9.1830 56.7933
" />
<path d="M41.9400 62.0582
L43.9000 62.0582
" />
<path d="M41.9400 65.8182
L41.9400 62.0582
" />
<path d="M43.9000 62.0582
L43.9000 65.8182
" />
<path d="M43.9000 65.8182
L41.9400 65.8182
" />
<path d="M25.3200 68.9207
L28.5200 68.9207
" />
<path d="M25.3200 73.8807
L25.3200 68.9207
" />
<path d="M28.5200 68.9207
L28.5200 73.8807
" />
<path d="M28.5200 73.8807
L25.3200 73.8807
" />
<path d="M20.9200 38.8382
L20.9200 32.5382
" />
<path d="M23.9200 32.5382
L20.9200 32.5382
" />
<path d="M23.9200 32.5382
L23.9200 38.8382
" />
<path d="M23.9200 38.8382
L20.9200 38.8382
" />
<path d="M16.5700 45.2882
L20.2700 45.2882
" />
<path d="M16.5700 47.1882
L16.5700 45.2882
" />
<path d="M20.2700 45.2882
L20.2700 47.1882
" />
<path d="M20.2700 47.1882
L16.5700 47.1882
" />
<path d="M44.0400 62.0582
L46.0000 62.0582
" />
<path d="M44.0400 65.8182
L44.0400 62.0582
" />
<path d="M46.0000 62.0582
L46.0000 65.8182
" />
<path d="M46.0000 65.8182
L44.0400 65.8182
" />
<path d="M42.6400 69.9333
L44.6000 69.9333
" />
<path d="M42.6400 73.6932
L42.6400 69.9333
" />
<path d="M44.6000 69.9333
L44.6000 73.6932
" />
<path d="M44.6000 73.6932
L42.6400 73.6932
" />
<path d="M16.6775 32.0082
L20.4375 32.0082
" />
<path d="M16.6775 33.9682
L16.6775 32.0082
" />
<path d="M20.4375 32.0082
L20.4375 33.9682
" />
<path d="M20.4375 33.9682
L16.6775 33.9682
" />
<path d="M22.0200 68.9207
L25.2200 68.9207
" />
<path d="M22.0200 73.8807
L22.0200 68.9207
" />
<path d="M25.2200 68.9207
L25.2200 73.8807
" />
<path d="M25.2200 73.8807
L22.0200 73.8807
" />
<path d="M26.1200 55.1382
L26.0700 42.8382
" />
<path d="M37.0200 42.8382
L26.0700 42.8382
" />
<path d="M37.0325 55.1382
L26.1200 55.1382
" />
<path d="M37.0325 55.1382
L37.0200 42.8382
" />
<path d="M26.2200 55.3207
L29.4200 55.3207
" />
<path d="M26.2200 60.2807
L26.2200 55.3207
" />
<path d="M29.4200 55.3207
L29.4200 60.2807
" />
<path d="M29.4200 60.2807
L26.2200 60.2807
" />
<path d="M10.6625 38.2383
L10.6625 41.6382
" />
<path d="M10.6625 41.6382
L14.5025 41.6382
" />
<path d="M14.5025 38.2383
L10.6625 38.2383
" />
<path d="M14.5025 41.6382
L14.5025 38.2383
" />
<circle cx="4.5500" cy="79.0583" r="3.4500" /> 
<path d="M7.7450 80.5082
L11.0450 80.5082
" />
<path d="M7.7450 81.9682
L7.7450 80.5082
" />
<path d="M11.0450 80.5082
L11.0450 81.9682
" />
<path d="M11.0450 81.9682
L7.7450 81.9682
" />
<path d="M29.5200 58.6882
L41.8200 58.6382
" />
<path d="M29.5200 69.6007
L29.5200 58.6882
" />
<path d="M29.5200 69.6007
L41.8200 69.5883
" />
<path d="M41.8200 69.5883
L41.8200 58.6382
" />
<path d="M30.6700 32.6882
L32.5700 32.6882
" />
<path d="M30.6700 36.3882
L30.6700 32.6882
" />
<path d="M32.5700 32.6882
L32.5700 36.3882
" />
<path d="M32.5700 36.3882
L30.6700 36.3882
" />
<path d="M16.7700 30.0382
L20.4700 30.0382
" />
<path d="M16.7700 31.9383
L16.7700 30.0382
" />
<path d="M20.4700 30.0382
L20.4700 31.9383
" />
<path d="M20.4700 31.9383
L16.7700 31.9383
" />
<path d="M19.1200 48.7882
L22.9600 48.7882
" />
<path d="M19.1200 56.7882
L19.1200 48.7882
" />
<path d="M22.9600 48.7882
L22.9600 56.7882
" />
<path d="M22.9600 56.7882
L19.1200 56.7882
" />
<path d="M48.1825 81.0583
L51.4825 81.0583
" />
<path d="M48.1825 82.5182
L48.1825 81.0583
" />
<path d="M51.4825 81.0583
L51.4825 82.5182
" />
<path d="M51.4825 82.5182
L48.1825 82.5182
" />
<path d="M49.7985 48.8092
L53.5585 48.8092
" />
<path d="M49.7985 50.7692
L49.7985 48.8092
" />
<path d="M53.5585 48.8092
L53.5585 50.7692
" />
<path d="M53.5585 50.7692
L49.7985 50.7692
" />
<circle cx="54.4800" cy="32.8582" r="3.4500" /> 
<path style="fill:none; 
stroke:#D0D2CD; stroke-width:0.0500; stroke-opacity:1; 
stroke-linecap:round; stroke-linejoin:round;fill:none"
d="M 0.0500,16.3382
58.9200,16.3382
58.9200,95.5382
0.0500,95.5382
Z" /> 
</g> 
</svg>
