<?xml version="1.0" standalone="no"?>
 <!DOCTYPE svg PUBLIC "-//W3C//DTD SVG 1.1//EN" 
 "http://www.w3.org/Graphics/SVG/1.1/DTD/svg11.dtd"> 
<svg
  xmlns:svg="http://www.w3.org/2000/svg"
  xmlns="http://www.w3.org/2000/svg"
  xmlns:xlink="http://www.w3.org/1999/xlink"
  version="1.1"
  width="68.1482mm" height="85.4964mm" viewBox="0.0000 0.0000 68.1482 85.4964">
<title>SVG Image created as SEPIC-B-B_Courtyard.svg date 2024/09/19 10:24:19 </title>
  <desc>Image generated by PCBNEW </desc>
<g style="fill:#000000; fill-opacity:1.0000;stroke:#000000; stroke-opacity:1.0000;
stroke-linecap:round; stroke-linejoin:round;"
 transform="translate(0 0) scale(1 1)">
</g>
<g style="fill:none; 
stroke:#26E9FF; stroke-width:0.0500; stroke-opacity:1; 
stroke-linecap:round; stroke-linejoin:round;">
<path d="M16.3700 41.0583
L18.2700 41.0583
" />
<path d="M16.3700 44.7582
L16.3700 41.0583
" />
<path d="M18.2700 41.0583
L18.2700 44.7582
" />
<path d="M18.2700 44.7582
L16.3700 44.7582
" />
<path d="M38.1025 32.3783
L41.8625 32.3783
" />
<path d="M38.1025 34.3382
L38.1025 32.3783
" />
<path d="M41.8625 32.3783
L41.8625 34.3382
" />
<path d="M41.8625 34.3382
L38.1025 34.3382
" />
<path d="M2.8325 46.7032
L6.1325 46.7032
" />
<path d="M2.8325 48.1632
L2.8325 46.7032
" />
<path d="M6.1325 46.7032
L6.1325 48.1632
" />
<path d="M6.1325 48.1632
L2.8325 48.1632
" />
<path d="M35.8575 45.6882
L40.8175 45.6882
" />
<path d="M35.8575 48.8882
L35.8575 45.6882
" />
<path d="M40.8175 45.6882
L40.8175 48.8882
" />
<path d="M40.8175 48.8882
L35.8575 48.8882
" />
<path d="M9.3180 66.2987
L11.2780 66.2987
" />
<path d="M9.3180 70.0588
L9.3180 66.2987
" />
<path d="M11.2780 66.2987
L11.2780 70.0588
" />
<path d="M11.2780 70.0588
L9.3180 70.0588
" />
<path d="M51.9825 40.8032
L55.2825 40.8032
" />
<path d="M51.9825 42.2632
L51.9825 40.8032
" />
<path d="M55.2825 40.8032
L55.2825 42.2632
" />
<path d="M55.2825 42.2632
L51.9825 42.2632
" />
<path d="M49.7985 38.7293
L53.5585 38.7293
" />
<path d="M49.7985 40.6893
L49.7985 38.7293
" />
<path d="M53.5585 38.7293
L53.5585 40.6893
" />
<path d="M53.5585 40.6893
L49.7985 40.6893
" />
<path d="M49.0200 18.4032
L52.3200 18.4032
" />
<path d="M49.0200 19.8633
L49.0200 18.4032
" />
<path d="M52.3200 18.4032
L52.3200 19.8633
" />
<path d="M52.3200 19.8633
L49.0200 19.8633
" />
<path d="M36.2000 58.4482
L39.9600 58.4482
" />
<path d="M36.2000 60.4082
L36.2000 58.4482
" />
<path d="M39.9600 58.4482
L39.9600 60.4082
" />
<path d="M39.9600 60.4082
L36.2000 60.4082
" />
<path d="M6.7450 18.3532
L10.0450 18.3532
" />
<path d="M6.7450 19.8133
L6.7450 18.3532
" />
<path d="M10.0450 18.3532
L10.0450 19.8133
" />
<path d="M10.0450 19.8133
L6.7450 19.8133
" />
<path d="M35.9325 49.1882
L40.8925 49.1882
" />
<path d="M35.9325 52.3882
L35.9325 49.1882
" />
<path d="M40.8925 49.1882
L40.8925 52.3882
" />
<path d="M40.8925 52.3882
L35.9325 52.3882
" />
<path d="M4.2775 48.3282
L8.0375 48.3282
" />
<path d="M4.2775 50.2882
L4.2775 48.3282
" />
<path d="M8.0375 48.3282
L8.0375 50.2882
" />
<path d="M8.0375 50.2882
L4.2775 50.2882
" />
<path d="M37.4775 35.8582
L42.4375 35.8582
" />
<path d="M37.4775 39.0583
L37.4775 35.8582
" />
<path d="M42.4375 35.8582
L42.4375 39.0583
" />
<path d="M42.4375 39.0583
L37.4775 39.0583
" />
<path d="M36.1900 56.4382
L39.9500 56.4382
" />
<path d="M36.1900 58.3982
L36.1900 56.4382
" />
<path d="M39.9500 56.4382
L39.9500 58.3982
" />
<path d="M39.9500 58.3982
L36.1900 58.3982
" />
<path d="M48.5610 20.3032
L50.5210 20.3032
" />
<path d="M48.5610 24.0633
L48.5610 20.3032
" />
<path d="M50.5210 20.3032
L50.5210 24.0633
" />
<path d="M50.5210 24.0633
L48.5610 24.0633
" />
<path d="M8.5450 20.0602
L12.3050 20.0602
" />
<path d="M8.5450 22.0203
L8.5450 20.0602
" />
<path d="M12.3050 20.0602
L12.3050 22.0203
" />
<path d="M12.3050 22.0203
L8.5450 22.0203
" />
<path d="M38.1025 30.2782
L41.8625 30.2782
" />
<path d="M38.1025 32.2383
L38.1025 30.2782
" />
<path d="M41.8625 30.2782
L41.8625 32.2383
" />
<path d="M41.8625 32.2383
L38.1025 32.2383
" />
<path d="M35.8525 42.3582
L40.8125 42.3582
" />
<path d="M35.8525 45.5583
L35.8525 42.3582
" />
<path d="M40.8125 42.3582
L40.8125 45.5583
" />
<path d="M40.8125 45.5583
L35.8525 45.5583
" />
<path d="M7.7200 70.3782
L11.0200 70.3782
" />
<path d="M7.7200 71.8383
L7.7200 70.3782
" />
<path d="M11.0200 70.3782
L11.0200 71.8383
" />
<path d="M11.0200 71.8383
L7.7200 71.8383
" />
<path style="fill:none; 
stroke:#D0D2CD; stroke-width:0.0500; stroke-opacity:1; 
stroke-linecap:round; stroke-linejoin:round;fill:none"
d="M 0.0500,6.2582
58.9200,6.2582
58.9200,85.4582
0.0500,85.4582
Z" /> 
</g> 
</svg>
