<?xml version="1.0" standalone="no"?>
 <!DOCTYPE svg PUBLIC "-//W3C//DTD SVG 1.1//EN" 
 "http://www.w3.org/Graphics/SVG/1.1/DTD/svg11.dtd"> 
<svg
  xmlns:svg="http://www.w3.org/2000/svg"
  xmlns="http://www.w3.org/2000/svg"
  xmlns:xlink="http://www.w3.org/1999/xlink"
  version="1.1"
  width="68.1482mm" height="85.4964mm" viewBox="0.0000 0.0000 68.1482 85.4964">
<title>SVG Image created as SEPIC-B-F_Courtyard.svg date 2024/09/19 10:24:19 </title>
  <desc>Image generated by PCBNEW </desc>
<g style="fill:#000000; fill-opacity:1.0000;stroke:#000000; stroke-opacity:1.0000;
stroke-linecap:round; stroke-linejoin:round;"
 transform="translate(0 0) scale(1 1)">
</g>
<g style="fill:none; 
stroke:#FF26E2; stroke-width:0.0500; stroke-opacity:1; 
stroke-linecap:round; stroke-linejoin:round;">
<path d="M23.4400 70.0482
L27.1400 70.0482
" />
<path d="M23.4400 71.9483
L23.4400 70.0482
" />
<path d="M27.1400 70.0482
L27.1400 71.9483
" />
<path d="M27.1400 71.9483
L23.4400 71.9483
" />
<path d="M13.4000 39.1683
L17.1000 39.1683
" />
<path d="M13.4000 41.0682
L13.4000 39.1683
" />
<path d="M17.1000 39.1683
L17.1000 41.0682
" />
<path d="M17.1000 41.0682
L13.4000 41.0682
" />
<path d="M49.0100 65.6082
L50.9100 65.6082
" />
<path d="M49.0100 69.3083
L49.0100 65.6082
" />
<path d="M50.9100 65.6082
L50.9100 69.3083
" />
<path d="M50.9100 69.3083
L49.0100 69.3083
" />
<path d="M26.7700 27.7407
L29.0700 27.7407
" />
<path d="M26.7700 32.7007
L26.7700 27.7407
" />
<path d="M29.0700 27.7407
L29.0700 32.7007
" />
<path d="M29.0700 32.7007
L26.7700 32.7007
" />
<path d="M13.4000 37.1983
L17.1000 37.1983
" />
<path d="M13.4000 39.0983
L13.4000 37.1983
" />
<path d="M17.1000 37.1983
L17.1000 39.0983
" />
<path d="M17.1000 39.0983
L13.4000 39.0983
" />
<path d="M7.0950 33.7533
L10.3950 33.7533
" />
<path d="M7.0950 35.2132
L7.0950 33.7533
" />
<path d="M10.3950 33.7533
L10.3950 35.2132
" />
<path d="M10.3950 35.2132
L7.0950 35.2132
" />
<path d="M28.6700 22.6082
L30.5700 22.6082
" />
<path d="M28.6700 26.3082
L28.6700 22.6082
" />
<path d="M30.5700 22.6082
L30.5700 26.3082
" />
<path d="M30.5700 26.3082
L28.6700 26.3082
" />
<path d="M8.8450 19.4032
L12.1450 19.4032
" />
<path d="M8.8450 20.8633
L8.8450 19.4032
" />
<path d="M12.1450 19.4032
L12.1450 20.8633
" />
<path d="M12.1450 20.8633
L8.8450 20.8633
" />
<path d="M29.7025 45.1782
L33.4625 45.1782
" />
<path d="M29.7025 47.1382
L29.7025 45.1782
" />
<path d="M33.4625 45.1782
L33.4625 47.1382
" />
<path d="M33.4625 47.1382
L29.7025 47.1382
" />
<path d="M5.6900 59.9532
L7.6500 59.9532
" />
<path d="M5.6900 63.7132
L5.6900 59.9532
" />
<path d="M7.6500 59.9532
L7.6500 63.7132
" />
<path d="M7.6500 63.7132
L5.6900 63.7132
" />
</g>
<g style="fill:none; 
stroke:#FF26E2; stroke-width:0.1000; stroke-opacity:1; 
stroke-linecap:round; stroke-linejoin:round;">
<path d="M20.3700 31.2203
L25.9200 31.2107
" />
<path d="M20.3700 38.3607
L20.3700 31.2203
" />
<path d="M25.9200 31.2107
L25.9200 38.3513
" />
<path d="M25.9200 38.3513
L20.3700 38.3607
" />
</g>
<g style="fill:none; 
stroke:#FF26E2; stroke-width:0.0500; stroke-opacity:1; 
stroke-linecap:round; stroke-linejoin:round;">
<path d="M16.6900 42.8257
L17.6100 42.8257
" />
<path d="M16.6900 44.9857
L16.6900 42.8257
" />
<path d="M17.6100 42.8257
L17.6100 44.9857
" />
<path d="M17.6100 44.9857
L16.6900 44.9857
" />
<path d="M25.0800 39.4457
L26.0200 39.4457
" />
<path d="M25.0800 41.6457
L25.0800 39.4457
" />
<path d="M26.0200 39.4457
L26.0200 41.6457
" />
<path d="M26.0200 41.6457
L25.0800 41.6457
" />
<path d="M13.6600 46.8457
L14.5800 46.8457
" />
<path d="M13.6600 49.0057
L13.6600 46.8457
" />
<path d="M14.5800 46.8457
L14.5800 49.0057
" />
<path d="M14.5800 49.0057
L13.6600 49.0057
" />
</g>
<g style="fill:none; 
stroke:#FF26E2; stroke-width:0.1000; stroke-opacity:1; 
stroke-linecap:round; stroke-linejoin:round;">
<path d="M3.6400 6.4182
L29.6400 6.4182
" />
<path d="M3.6400 19.1182
L3.6400 6.4182
" />
<path d="M29.6400 6.4182
L29.6400 19.1182
" />
<path d="M29.6400 19.1182
L3.6400 19.1182
" />
</g>
<g style="fill:none; 
stroke:#FF26E2; stroke-width:0.0500; stroke-opacity:1; 
stroke-linecap:round; stroke-linejoin:round;">
<path d="M10.6700 31.7082
L14.3700 31.7082
" />
<path d="M10.6700 33.6082
L10.6700 31.7082
" />
<path d="M14.3700 31.7082
L14.3700 33.6082
" />
<path d="M14.3700 33.6082
L10.6700 33.6082
" />
<path d="M37.0700 36.9082
L38.9700 36.9082
" />
<path d="M37.0700 40.6082
L37.0700 36.9082
" />
<path d="M38.9700 36.9082
L38.9700 40.6082
" />
<path d="M38.9700 40.6082
L37.0700 40.6082
" />
</g>
<g style="fill:none; 
stroke:#FF26E2; stroke-width:0.1000; stroke-opacity:1; 
stroke-linecap:round; stroke-linejoin:round;">
<path d="M29.8200 63.3582
L48.8700 63.3582
" />
<path d="M29.8200 71.9582
L29.8200 63.3582
" />
<path d="M48.8700 63.3582
L48.8700 71.9582
" />
<path d="M48.8700 71.9582
L29.8200 71.9582
" />
</g>
<g style="fill:none; 
stroke:#FF26E2; stroke-width:0.0500; stroke-opacity:1; 
stroke-linecap:round; stroke-linejoin:round;">
<path d="M51.1800 54.2582
L54.9400 54.2582
" />
<path d="M51.1800 56.2182
L51.1800 54.2582
" />
<path d="M54.9400 54.2582
L54.9400 56.2182
" />
<path d="M54.9400 56.2182
L51.1800 56.2182
" />
<path d="M35.8775 49.0583
L40.8375 49.0583
" />
<path d="M35.8775 52.2582
L35.8775 49.0583
" />
<path d="M40.8375 49.0583
L40.8375 52.2582
" />
<path d="M40.8375 52.2582
L35.8775 52.2582
" />
<path d="M21.0800 56.7582
L24.7800 56.7582
" />
<path d="M21.0800 58.6582
L21.0800 56.7582
" />
<path d="M24.7800 56.7582
L24.7800 58.6582
" />
<path d="M24.7800 58.6582
L21.0800 58.6582
" />
<path d="M51.8280 40.8282
L55.1280 40.8282
" />
<path d="M51.8280 42.2882
L51.8280 40.8282
" />
<path d="M55.1280 40.8282
L55.1280 42.2882
" />
<path d="M55.1280 42.2882
L51.8280 42.2882
" />
<path d="M20.1000 58.8257
L23.3000 58.8257
" />
<path d="M20.1000 63.7858
L20.1000 58.8257
" />
<path d="M23.3000 58.8257
L23.3000 63.7858
" />
<path d="M23.3000 63.7858
L20.1000 63.7858
" />
<path d="M8.3400 58.7507
L19.1400 58.7507
" />
<path d="M8.3400 72.2507
L8.3400 58.7507
" />
<path d="M19.1400 58.7507
L19.1400 72.2507
" />
<path d="M19.1400 72.2507
L8.3400 72.2507
" />
<path d="M23.1100 38.4483
L24.9300 38.4483
" />
<path d="M23.1100 39.3682
L23.1100 38.4483
" />
<path d="M24.9300 38.4483
L24.9300 39.3682
" />
<path d="M24.9300 39.3682
L23.1100 39.3682
" />
<path d="M18.6025 29.1782
L22.3625 29.1782
" />
<path d="M18.6025 31.1382
L18.6025 29.1782
" />
<path d="M22.3625 29.1782
L22.3625 31.1382
" />
<path d="M22.3625 31.1382
L18.6025 31.1382
" />
<path d="M7.0400 42.5082
L9.0000 42.5082
" />
<path d="M7.0400 46.2682
L7.0400 42.5082
" />
<path d="M9.0000 42.5082
L9.0000 46.2682
" />
<path d="M9.0000 46.2682
L7.0400 46.2682
" />
<path d="M4.6700 42.6782
L6.9700 42.6782
" />
<path d="M4.6700 47.6382
L4.6700 42.6782
" />
<path d="M6.9700 42.6782
L6.9700 47.6382
" />
<path d="M6.9700 47.6382
L4.6700 47.6382
" />
<circle cx="4.5500" cy="22.7853" r="3.4500" /> 
<path d="M16.7025 23.9282
L20.4625 23.9282
" />
<path d="M16.7025 25.8882
L16.7025 23.9282
" />
<path d="M20.4625 23.9282
L20.4625 25.8882
" />
<path d="M20.4625 25.8882
L16.7025 25.8882
" />
<path d="M48.6400 20.7658
L50.6000 20.7658
" />
<path d="M48.6400 24.5257
L48.6400 20.7658
" />
<path d="M50.6000 20.7658
L50.6000 24.5257
" />
<path d="M50.6000 24.5257
L48.6400 24.5257
" />
<path d="M7.8925 35.4883
L10.0925 35.4883
" />
<path d="M7.8925 36.4282
L7.8925 35.4883
" />
<path d="M10.0925 35.4883
L10.0925 36.4282
" />
<path d="M10.0925 36.4282
L7.8925 36.4282
" />
<path d="M26.6700 22.6082
L28.5700 22.6082
" />
<path d="M26.6700 26.3082
L26.6700 22.6082
" />
<path d="M28.5700 22.6082
L28.5700 26.3082
" />
<path d="M28.5700 26.3082
L26.6700 26.3082
" />
<path d="M16.5700 33.2082
L20.2700 33.2082
" />
<path d="M16.5700 35.1082
L16.5700 33.2082
" />
<path d="M20.2700 33.2082
L20.2700 35.1082
" />
<path d="M20.2700 35.1082
L16.5700 35.1082
" />
<path d="M51.2175 56.4582
L54.9775 56.4582
" />
<path d="M51.2175 58.4183
L51.2175 56.4582
" />
<path d="M54.9775 56.4582
L54.9775 58.4183
" />
<path d="M54.9775 58.4183
L51.2175 58.4183
" />
<path d="M10.6600 26.1782
L14.3600 26.1782
" />
<path d="M10.6600 28.0782
L10.6600 26.1782
" />
<path d="M14.3600 26.1782
L14.3600 28.0782
" />
<path d="M14.3600 28.0782
L10.6600 28.0782
" />
<path d="M48.4325 19.1532
L51.7325 19.1532
" />
<path d="M48.4325 20.6133
L48.4325 19.1532
" />
<path d="M51.7325 19.1532
L51.7325 20.6133
" />
<path d="M51.7325 20.6133
L48.4325 20.6133
" />
<path d="M35.4700 26.1582
L35.4700 29.1582
" />
<path d="M35.4700 29.1582
L36.6200 29.1582
" />
<path d="M36.6200 23.3082
L36.6200 26.1582
" />
<path d="M36.6200 23.3082
L37.7700 22.1582
" />
<path d="M36.6200 26.1582
L35.4700 26.1582
" />
<path d="M36.6200 29.1582
L36.6200 32.0082
" />
<path d="M36.6200 32.0082
L37.7700 33.1582
" />
<path d="M37.7700 22.1582
L47.6200 22.1582
" />
<path d="M37.7700 33.1582
L47.6200 33.1582
" />
<path d="M47.6200 22.1582
L47.6200 26.1582
" />
<path d="M47.6200 26.1582
L48.7700 26.1582
" />
<path d="M47.6200 29.1582
L47.6200 33.1582
" />
<path d="M48.7700 26.1582
L48.7700 29.1582
" />
<path d="M48.7700 29.1582
L47.6200 29.1582
" />
<path d="M13.3825 50.2282
L16.6825 50.2282
" />
<path d="M13.3825 51.6882
L13.3825 50.2282
" />
<path d="M16.6825 50.2282
L16.6825 51.6882
" />
<path d="M16.6825 51.6882
L13.3825 51.6882
" />
<path d="M32.5900 25.4707
L34.0500 25.4707
" />
<path d="M32.5900 28.7707
L32.5900 25.4707
" />
<path d="M34.0500 25.4707
L34.0500 28.7707
" />
<path d="M34.0500 28.7707
L32.5900 28.7707
" />
<path d="M23.4000 58.8282
L26.6000 58.8282
" />
<path d="M23.4000 63.7882
L23.4000 58.8282
" />
<path d="M26.6000 58.8282
L26.6000 63.7882
" />
<path d="M26.6000 63.7882
L23.4000 63.7882
" />
<path d="M15.6775 25.9582
L20.6375 25.9582
" />
<path d="M15.6775 29.1582
L15.6775 25.9582
" />
<path d="M20.6375 25.9582
L20.6375 29.1582
" />
<path d="M20.6375 29.1582
L15.6775 29.1582
" />
<path d="M24.0200 25.9907
L26.3200 25.9907
" />
<path d="M24.0200 30.9507
L24.0200 25.9907
" />
<path d="M26.3200 25.9907
L26.3200 30.9507
" />
<path d="M26.3200 30.9507
L24.0200 30.9507
" />
<path d="M13.0700 56.7383
L16.7700 56.7383
" />
<path d="M13.0700 58.6382
L13.0700 56.7383
" />
<path d="M16.7700 56.7383
L16.7700 58.6382
" />
<path d="M16.7700 58.6382
L13.0700 58.6382
" />
<path d="M35.8700 45.6782
L40.8300 45.6782
" />
<path d="M35.8700 48.8783
L35.8700 45.6782
" />
<path d="M40.8300 45.6782
L40.8300 48.8783
" />
<path d="M40.8300 48.8783
L35.8700 48.8783
" />
<path d="M29.2700 27.7407
L31.5700 27.7407
" />
<path d="M29.2700 32.7007
L29.2700 27.7407
" />
<path d="M31.5700 27.7407
L31.5700 32.7007
" />
<path d="M31.5700 32.7007
L29.2700 32.7007
" />
<path d="M20.2700 50.6282
L26.6700 50.7282
" />
<path d="M20.2700 56.6282
L20.2700 50.6282
" />
<path d="M26.6700 50.7282
L26.6700 56.6282
" />
<path d="M26.6700 56.6282
L20.2700 56.6282
" />
<path d="M15.2760 48.1272
L19.0360 48.1272
" />
<path d="M15.2760 50.0872
L15.2760 48.1272
" />
<path d="M19.0360 48.1272
L19.0360 50.0872
" />
<path d="M19.0360 50.0872
L15.2760 50.0872
" />
<path d="M7.3800 37.5307
L8.8400 37.5307
" />
<path d="M7.3800 40.8307
L7.3800 37.5307
" />
<path d="M8.8400 37.5307
L8.8400 40.8307
" />
<path d="M8.8400 40.8307
L7.3800 40.8307
" />
</g>
<g style="fill:none; 
stroke:#FF26E2; stroke-width:0.1000; stroke-opacity:1; 
stroke-linecap:round; stroke-linejoin:round;">
<path d="M3.7200 72.4382
L29.7200 72.4382
" />
<path d="M3.7200 85.1683
L3.7200 72.4382
" />
<path d="M29.7200 72.4382
L29.7200 85.1683
" />
<path d="M29.7200 85.1683
L3.7200 85.1683
" />
</g>
<g style="fill:none; 
stroke:#FF26E2; stroke-width:0.0500; stroke-opacity:1; 
stroke-linecap:round; stroke-linejoin:round;">
<path d="M10.4400 20.9657
L12.4000 20.9657
" />
<path d="M10.4400 24.7257
L10.4400 20.9657
" />
<path d="M12.4000 20.9657
L12.4000 24.7257
" />
<path d="M12.4000 24.7257
L10.4400 24.7257
" />
</g>
<g style="fill:none; 
stroke:#FF26E2; stroke-width:0.1000; stroke-opacity:1; 
stroke-linecap:round; stroke-linejoin:round;">
<path d="M30.0300 72.4483
L56.0300 72.4483
" />
<path d="M30.0300 85.1482
L30.0300 72.4483
" />
<path d="M56.0300 72.4483
L56.0300 85.1482
" />
<path d="M56.0300 85.1482
L30.0300 85.1482
" />
</g>
<g style="fill:none; 
stroke:#FF26E2; stroke-width:0.0500; stroke-opacity:1; 
stroke-linecap:round; stroke-linejoin:round;">
<path d="M5.3400 37.3532
L7.3000 37.3532
" />
<path d="M5.3400 41.1133
L5.3400 37.3532
" />
<path d="M7.3000 37.3532
L7.3000 41.1133
" />
<path d="M7.3000 41.1133
L5.3400 41.1133
" />
<path d="M18.1725 37.2982
L20.3325 37.2982
" />
<path d="M18.1725 38.2182
L18.1725 37.2982
" />
<path d="M20.3325 37.2982
L20.3325 38.2182
" />
<path d="M20.3325 38.2182
L18.1725 38.2182
" />
<path d="M23.0200 43.3083
L26.0200 43.3083
" />
<path d="M23.0200 49.6082
L23.0200 43.3083
" />
<path d="M23.0200 49.6082
L26.0200 49.6082
" />
<path d="M26.0200 43.3083
L26.0200 49.6082
" />
<path d="M16.5700 31.2082
L20.2700 31.2082
" />
<path d="M16.5700 33.1082
L16.5700 31.2082
" />
<path d="M20.2700 31.2082
L20.2700 33.1082
" />
<path d="M20.2700 33.1082
L16.5700 33.1082
" />
<path d="M11.1300 36.4883
L13.3300 36.4883
" />
<path d="M11.1300 40.9883
L11.1300 36.4883
" />
<path d="M11.1300 40.9883
L13.3300 40.9883
" />
<path d="M13.3300 36.4883
L13.3300 40.9883
" />
</g>
<g style="fill:none; 
stroke:#FF26E2; stroke-width:0.1000; stroke-opacity:1; 
stroke-linecap:round; stroke-linejoin:round;">
<path d="M30.1700 6.3432
L56.1700 6.3432
" />
<path d="M30.1700 19.0732
L30.1700 6.3432
" />
<path d="M56.1700 6.3432
L56.1700 19.0732
" />
<path d="M56.1700 19.0732
L30.1700 19.0732
" />
</g>
<g style="fill:none; 
stroke:#FF26E2; stroke-width:0.0500; stroke-opacity:1; 
stroke-linecap:round; stroke-linejoin:round;">
<path d="M27.8900 65.5583
L29.7900 65.5583
" />
<path d="M27.8900 69.2583
L27.8900 65.5583
" />
<path d="M29.7900 65.5583
L29.7900 69.2583
" />
<path d="M29.7900 69.2583
L27.8900 69.2583
" />
<path d="M11.1500 46.8558
L12.0900 46.8558
" />
<path d="M11.1500 49.0557
L11.1500 46.8558
" />
<path d="M12.0900 46.8558
L12.0900 49.0557
" />
<path d="M12.0900 49.0557
L11.1500 49.0557
" />
<path d="M9.1830 41.2132
L16.6330 41.2132
" />
<path d="M9.1830 46.7132
L9.1830 41.2132
" />
<path d="M16.6330 41.2132
L16.6330 46.7132
" />
<path d="M16.6330 46.7132
L9.1830 46.7132
" />
<path d="M37.1100 43.7082
L40.8700 43.7082
" />
<path d="M37.1100 45.6683
L37.1100 43.7082
" />
<path d="M40.8700 43.7082
L40.8700 45.6683
" />
<path d="M40.8700 45.6683
L37.1100 45.6683
" />
<path d="M29.9600 58.2282
L33.1600 58.2282
" />
<path d="M29.9600 63.1882
L29.9600 58.2282
" />
<path d="M33.1600 58.2282
L33.1600 63.1882
" />
<path d="M33.1600 63.1882
L29.9600 63.1882
" />
<path d="M20.9200 28.7583
L20.9200 22.4582
" />
<path d="M23.9200 22.4582
L20.9200 22.4582
" />
<path d="M23.9200 22.4582
L23.9200 28.7583
" />
<path d="M23.9200 28.7583
L20.9200 28.7583
" />
<path d="M16.5700 35.2082
L20.2700 35.2082
" />
<path d="M16.5700 37.1082
L16.5700 35.2082
" />
<path d="M20.2700 35.2082
L20.2700 37.1082
" />
<path d="M20.2700 37.1082
L16.5700 37.1082
" />
<path d="M37.1100 41.6683
L40.8700 41.6683
" />
<path d="M37.1100 43.6283
L37.1100 41.6683
" />
<path d="M40.8700 41.6683
L40.8700 43.6283
" />
<path d="M40.8700 43.6283
L37.1100 43.6283
" />
<path d="M16.6775 21.9282
L20.4375 21.9282
" />
<path d="M16.6775 23.8882
L16.6775 21.9282
" />
<path d="M20.4375 21.9282
L20.4375 23.8882
" />
<path d="M20.4375 23.8882
L16.6775 23.8882
" />
<path d="M26.6900 58.2082
L29.8900 58.2082
" />
<path d="M26.6900 63.1683
L26.6900 58.2082
" />
<path d="M29.8900 58.2082
L29.8900 63.1683
" />
<path d="M29.8900 63.1683
L26.6900 63.1683
" />
<path d="M26.1200 45.0583
L26.0700 32.7582
" />
<path d="M37.0200 32.7582
L26.0700 32.7582
" />
<path d="M37.0325 45.0583
L26.1200 45.0583
" />
<path d="M37.0325 45.0583
L37.0200 32.7582
" />
<path d="M26.2200 45.2407
L29.4200 45.2407
" />
<path d="M26.2200 50.2007
L26.2200 45.2407
" />
<path d="M29.4200 45.2407
L29.4200 50.2007
" />
<path d="M29.4200 50.2007
L26.2200 50.2007
" />
<path d="M10.6625 28.1582
L10.6625 31.5582
" />
<path d="M10.6625 31.5582
L14.5025 31.5582
" />
<path d="M14.5025 28.1582
L10.6625 28.1582
" />
<path d="M14.5025 31.5582
L14.5025 28.1582
" />
<circle cx="4.5400" cy="68.8282" r="3.4500" /> 
<path d="M4.1150 61.9582
L5.5750 61.9582
" />
<path d="M4.1150 65.2583
L4.1150 61.9582
" />
<path d="M5.5750 61.9582
L5.5750 65.2583
" />
<path d="M5.5750 65.2583
L4.1150 65.2583
" />
<path d="M30.6700 22.6082
L32.5700 22.6082
" />
<path d="M30.6700 26.3082
L30.6700 22.6082
" />
<path d="M32.5700 22.6082
L32.5700 26.3082
" />
<path d="M32.5700 26.3082
L30.6700 26.3082
" />
<path d="M16.7700 19.9582
L20.4700 19.9582
" />
<path d="M16.7700 21.8582
L16.7700 19.9582
" />
<path d="M20.4700 19.9582
L20.4700 21.8582
" />
<path d="M20.4700 21.8582
L16.7700 21.8582
" />
<path d="M19.1200 38.7082
L22.9600 38.7082
" />
<path d="M19.1200 46.7082
L19.1200 38.7082
" />
<path d="M22.9600 38.7082
L22.9600 46.7082
" />
<path d="M22.9600 46.7082
L19.1200 46.7082
" />
<circle cx="54.4329" cy="68.7812" r="3.4500" /> 
<path d="M49.7985 38.7293
L53.5585 38.7293
" />
<path d="M49.7985 40.6893
L49.7985 38.7293
" />
<path d="M53.5585 38.7293
L53.5585 40.6893
" />
<path d="M53.5585 40.6893
L49.7985 40.6893
" />
<circle cx="54.4800" cy="22.7782" r="3.4500" /> 
<path d="M21.0400 70.0282
L21.1400 64.1282
" />
<path d="M21.1400 64.1282
L27.3400 64.0282
" />
<path d="M27.3400 64.0282
L27.3400 70.0282
" />
<path d="M27.3400 70.0282
L21.0400 70.0282
" />
<path style="fill:none; 
stroke:#D0D2CD; stroke-width:0.0500; stroke-opacity:1; 
stroke-linecap:round; stroke-linejoin:round;fill:none"
d="M 0.0500,6.2582
58.9200,6.2582
58.9200,85.4582
0.0500,85.4582
Z" /> 
</g> 
</svg>
