<?xml version="1.0" standalone="no"?>
 <!DOCTYPE svg PUBLIC "-//W3C//DTD SVG 1.1//EN" 
 "http://www.w3.org/Graphics/SVG/1.1/DTD/svg11.dtd"> 
<svg
  xmlns:svg="http://www.w3.org/2000/svg"
  xmlns="http://www.w3.org/2000/svg"
  xmlns:xlink="http://www.w3.org/1999/xlink"
  version="1.1"
  width="68.1482mm" height="85.4964mm" viewBox="0.0000 0.0000 68.1482 85.4964">
<title>SVG Image created as SEPIC-B-B_Mask.svg date 2024/09/19 10:24:19 </title>
  <desc>Image generated by PCBNEW </desc>
<g style="fill:#000000; fill-opacity:1.0000;stroke:#000000; stroke-opacity:1.0000;
stroke-linecap:round; stroke-linejoin:round;"
 transform="translate(0 0) scale(1 1)">
<path style="fill:#02FFEE; fill-opacity:0.4000; stroke:none;fill-rule:evenodd;"
d="M 26.6175,11.5907
26.6175,14.5457
23.6625,14.5457
23.6625,11.5907
Z" /> 
</g>
<g style="fill:#02FFEE; fill-opacity:0.4000; stroke:none;">
<circle cx="9.6400" cy="13.0682" r="1.4775" /> 
</g>
<g style="fill:#02FFEE; fill-opacity:0.4000; stroke:none;">
<circle cx="2.1500" cy="22.7853" r="0.4000" /> 
</g>
<g style="fill:#02FFEE; fill-opacity:0.4000; stroke:none;">
<circle cx="2.8529" cy="21.0882" r="0.4000" /> 
</g>
<g style="fill:#02FFEE; fill-opacity:0.4000; stroke:none;">
<circle cx="2.8529" cy="24.4824" r="0.4000" /> 
</g>
<g style="fill:#02FFEE; fill-opacity:0.4000; stroke:none;">
<circle cx="4.5500" cy="20.3853" r="0.4000" /> 
</g>
<g style="fill:#02FFEE; fill-opacity:0.4000; stroke:none;">
<circle cx="4.5500" cy="22.7853" r="3.2000" /> 
</g>
<g style="fill:#02FFEE; fill-opacity:0.4000; stroke:none;">
<circle cx="4.5500" cy="25.1853" r="0.4000" /> 
</g>
<g style="fill:#02FFEE; fill-opacity:0.4000; stroke:none;">
<circle cx="6.2471" cy="21.0882" r="0.4000" /> 
</g>
<g style="fill:#02FFEE; fill-opacity:0.4000; stroke:none;">
<circle cx="6.2471" cy="24.4824" r="0.4000" /> 
</g>
<g style="fill:#02FFEE; fill-opacity:0.4000; stroke:none;">
<circle cx="6.9500" cy="22.7853" r="0.4000" /> 
</g>
<g style="fill:#02FFEE; fill-opacity:0.4000; stroke:none;">
<circle cx="24.4700" cy="79.0883" r="1.4775" /> 
</g>
<g style="fill:#02FFEE; fill-opacity:0.4000; stroke:none;">
<circle cx="8.9700" cy="79.0883" r="1.4775" /> 
<path style="fill:#02FFEE; fill-opacity:0.4000; stroke:none;fill-rule:evenodd;"
d="M 33.0525,79.9757
33.0525,77.0207
36.0075,77.0207
36.0075,79.9757
Z" /> 
</g>
<g style="fill:#02FFEE; fill-opacity:0.4000; stroke:none;">
<circle cx="50.0300" cy="78.4982" r="1.4775" /> 
</g>
<g style="fill:#02FFEE; fill-opacity:0.4000; stroke:none;">
<circle cx="50.9200" cy="12.9932" r="1.4775" /> 
</g>
<g style="fill:#02FFEE; fill-opacity:0.4000; stroke:none;">
<circle cx="35.4200" cy="12.9932" r="1.4775" /> 
</g>
<g style="fill:#02FFEE; fill-opacity:0.4000; stroke:none;">
<circle cx="2.1400" cy="68.8282" r="0.4000" /> 
</g>
<g style="fill:#02FFEE; fill-opacity:0.4000; stroke:none;">
<circle cx="2.8429" cy="67.1312" r="0.4000" /> 
</g>
<g style="fill:#02FFEE; fill-opacity:0.4000; stroke:none;">
<circle cx="2.8429" cy="70.5253" r="0.4000" /> 
</g>
<g style="fill:#02FFEE; fill-opacity:0.4000; stroke:none;">
<circle cx="4.5400" cy="66.4282" r="0.4000" /> 
</g>
<g style="fill:#02FFEE; fill-opacity:0.4000; stroke:none;">
<circle cx="4.5400" cy="68.8282" r="3.2000" /> 
</g>
<g style="fill:#02FFEE; fill-opacity:0.4000; stroke:none;">
<circle cx="4.5400" cy="71.2283" r="0.4000" /> 
</g>
<g style="fill:#02FFEE; fill-opacity:0.4000; stroke:none;">
<circle cx="6.2371" cy="67.1312" r="0.4000" /> 
</g>
<g style="fill:#02FFEE; fill-opacity:0.4000; stroke:none;">
<circle cx="6.2371" cy="70.5253" r="0.4000" /> 
</g>
<g style="fill:#02FFEE; fill-opacity:0.4000; stroke:none;">
<circle cx="6.9400" cy="68.8282" r="0.4000" /> 
</g>
<g style="fill:#02FFEE; fill-opacity:0.4000; stroke:none;">
<circle cx="52.0329" cy="68.7812" r="0.4000" /> 
</g>
<g style="fill:#02FFEE; fill-opacity:0.4000; stroke:none;">
<circle cx="52.7359" cy="67.0841" r="0.4000" /> 
</g>
<g style="fill:#02FFEE; fill-opacity:0.4000; stroke:none;">
<circle cx="52.7359" cy="70.4783" r="0.4000" /> 
</g>
<g style="fill:#02FFEE; fill-opacity:0.4000; stroke:none;">
<circle cx="54.4329" cy="66.3812" r="0.4000" /> 
</g>
<g style="fill:#02FFEE; fill-opacity:0.4000; stroke:none;">
<circle cx="54.4329" cy="68.7812" r="3.2000" /> 
</g>
<g style="fill:#02FFEE; fill-opacity:0.4000; stroke:none;">
<circle cx="54.4329" cy="71.1812" r="0.4000" /> 
</g>
<g style="fill:#02FFEE; fill-opacity:0.4000; stroke:none;">
<circle cx="56.1300" cy="67.0841" r="0.4000" /> 
</g>
<g style="fill:#02FFEE; fill-opacity:0.4000; stroke:none;">
<circle cx="56.1300" cy="70.4783" r="0.4000" /> 
</g>
<g style="fill:#02FFEE; fill-opacity:0.4000; stroke:none;">
<circle cx="56.8329" cy="68.7812" r="0.4000" /> 
</g>
<g style="fill:#02FFEE; fill-opacity:0.4000; stroke:none;">
<circle cx="52.0800" cy="22.7782" r="0.4000" /> 
</g>
<g style="fill:#02FFEE; fill-opacity:0.4000; stroke:none;">
<circle cx="52.7829" cy="21.0812" r="0.4000" /> 
</g>
<g style="fill:#02FFEE; fill-opacity:0.4000; stroke:none;">
<circle cx="52.7829" cy="24.4753" r="0.4000" /> 
</g>
<g style="fill:#02FFEE; fill-opacity:0.4000; stroke:none;">
<circle cx="54.4800" cy="20.3782" r="0.4000" /> 
</g>
<g style="fill:#02FFEE; fill-opacity:0.4000; stroke:none;">
<circle cx="54.4800" cy="22.7782" r="3.2000" /> 
</g>
<g style="fill:#02FFEE; fill-opacity:0.4000; stroke:none;">
<circle cx="54.4800" cy="25.1782" r="0.4000" /> 
</g>
<g style="fill:#02FFEE; fill-opacity:0.4000; stroke:none;">
<circle cx="56.1771" cy="21.0812" r="0.4000" /> 
</g>
<g style="fill:#02FFEE; fill-opacity:0.4000; stroke:none;">
<circle cx="56.1771" cy="24.4753" r="0.4000" /> 
</g>
<g style="fill:#02FFEE; fill-opacity:0.4000; stroke:none;">
<circle cx="56.8800" cy="22.7782" r="0.4000" /> 
<path style="fill:#02FFEE; fill-opacity:0.4000; stroke:none;fill-rule:evenodd;"
d="M 16.8700,44.5082
16.7743,44.4892
16.6932,44.4350
16.6390,44.3539
16.6200,44.2582
16.6200,43.5583
16.6390,43.4626
16.6932,43.3815
16.7743,43.3273
16.8700,43.3083
17.7700,43.3083
17.8657,43.3273
17.9468,43.3815
18.0010,43.4626
18.0200,43.5583
18.0200,44.2582
18.0010,44.3539
17.9468,44.4350
17.8657,44.4892
17.7700,44.5082
Z" /> 
<path style="fill:#02FFEE; fill-opacity:0.4000; stroke:none;fill-rule:evenodd;"
d="M 16.8700,42.5082
16.7743,42.4892
16.6932,42.4350
16.6390,42.3539
16.6200,42.2582
16.6200,41.5583
16.6390,41.4626
16.6932,41.3815
16.7743,41.3273
16.8700,41.3083
17.7700,41.3083
17.8657,41.3273
17.9468,41.3815
18.0010,41.4626
18.0200,41.5583
18.0200,42.2582
18.0010,42.3539
17.9468,42.4350
17.8657,42.4892
17.7700,42.5082
Z" /> 
<path style="fill:#02FFEE; fill-opacity:0.4000; stroke:none;fill-rule:evenodd;"
d="M 38.3575,32.8832
38.3765,32.7876
38.4307,32.7065
38.5118,32.6523
38.6075,32.6332
39.2825,32.6332
39.3782,32.6523
39.4593,32.7065
39.5135,32.7876
39.5325,32.8832
39.5325,33.8332
39.5135,33.9289
39.4593,34.0100
39.3782,34.0642
39.2825,34.0832
38.6075,34.0832
38.5118,34.0642
38.4307,34.0100
38.3765,33.9289
38.3575,33.8332
Z" /> 
<path style="fill:#02FFEE; fill-opacity:0.4000; stroke:none;fill-rule:evenodd;"
d="M 40.4325,32.8832
40.4515,32.7876
40.5057,32.7065
40.5868,32.6523
40.6825,32.6332
41.3575,32.6332
41.4532,32.6523
41.5343,32.7065
41.5885,32.7876
41.6075,32.8832
41.6075,33.8332
41.5885,33.9289
41.5343,34.0100
41.4532,34.0642
41.3575,34.0832
40.6825,34.0832
40.5868,34.0642
40.5057,34.0100
40.4515,33.9289
40.4325,33.8332
Z" /> 
<path style="fill:#02FFEE; fill-opacity:0.4000; stroke:none;fill-rule:evenodd;"
d="M 3.0825,47.1957
3.1006,47.1049
3.1521,47.0278
3.2291,46.9763
3.3200,46.9582
3.8200,46.9582
3.9109,46.9763
3.9879,47.0278
4.0394,47.1049
4.0575,47.1957
4.0575,47.6707
4.0394,47.7616
3.9879,47.8387
3.9109,47.8902
3.8200,47.9082
3.3200,47.9082
3.2291,47.8902
3.1521,47.8387
3.1006,47.7616
3.0825,47.6707
Z" /> 
<path style="fill:#02FFEE; fill-opacity:0.4000; stroke:none;fill-rule:evenodd;"
d="M 4.9075,47.1957
4.9256,47.1049
4.9771,47.0278
5.0541,46.9763
5.1450,46.9582
5.6450,46.9582
5.7359,46.9763
5.8129,47.0278
5.8644,47.1049
5.8825,47.1957
5.8825,47.6707
5.8644,47.7616
5.8129,47.8387
5.7359,47.8902
5.6450,47.9082
5.1450,47.9082
5.0541,47.8902
4.9771,47.8387
4.9256,47.7616
4.9075,47.6707
Z" /> 
<path style="fill:#02FFEE; fill-opacity:0.4000; stroke:none;fill-rule:evenodd;"
d="M 36.1125,46.1882
36.1315,46.0926
36.1857,46.0115
36.2668,45.9573
36.3625,45.9382
37.1875,45.9382
37.2832,45.9573
37.3643,46.0115
37.4185,46.0926
37.4375,46.1882
37.4375,48.3882
37.4185,48.4839
37.3643,48.5650
37.2832,48.6192
37.1875,48.6382
36.3625,48.6382
36.2668,48.6192
36.1857,48.5650
36.1315,48.4839
36.1125,48.3882
Z" /> 
<path style="fill:#02FFEE; fill-opacity:0.4000; stroke:none;fill-rule:evenodd;"
d="M 39.2375,46.1882
39.2565,46.0926
39.3107,46.0115
39.3918,45.9573
39.4875,45.9382
40.3125,45.9382
40.4082,45.9573
40.4893,46.0115
40.5435,46.0926
40.5625,46.1882
40.5625,48.3882
40.5435,48.4839
40.4893,48.5650
40.4082,48.6192
40.3125,48.6382
39.4875,48.6382
39.3918,48.6192
39.3107,48.5650
39.2565,48.4839
39.2375,48.3882
Z" /> 
<path style="fill:#02FFEE; fill-opacity:0.4000; stroke:none;fill-rule:evenodd;"
d="M 10.7730,66.5537
10.8687,66.5728
10.9498,66.6270
11.0040,66.7081
11.0230,66.8037
11.0230,67.4787
11.0040,67.5744
10.9498,67.6555
10.8687,67.7097
10.7730,67.7287
9.8230,67.7287
9.7273,67.7097
9.6462,67.6555
9.5920,67.5744
9.5730,67.4787
9.5730,66.8037
9.5920,66.7081
9.6462,66.6270
9.7273,66.5728
9.8230,66.5537
Z" /> 
<path style="fill:#02FFEE; fill-opacity:0.4000; stroke:none;fill-rule:evenodd;"
d="M 10.7730,68.6287
10.8687,68.6478
10.9498,68.7020
11.0040,68.7831
11.0230,68.8787
11.0230,69.5537
11.0040,69.6494
10.9498,69.7305
10.8687,69.7847
10.7730,69.8037
9.8230,69.8037
9.7273,69.7847
9.6462,69.7305
9.5920,69.6494
9.5730,69.5537
9.5730,68.8787
9.5920,68.7831
9.6462,68.7020
9.7273,68.6478
9.8230,68.6287
Z" /> 
<path style="fill:#02FFEE; fill-opacity:0.4000; stroke:none;fill-rule:evenodd;"
d="M 55.0325,41.7707
55.0144,41.8616
54.9629,41.9387
54.8859,41.9902
54.7950,42.0082
54.2950,42.0082
54.2041,41.9902
54.1271,41.9387
54.0756,41.8616
54.0575,41.7707
54.0575,41.2957
54.0756,41.2049
54.1271,41.1278
54.2041,41.0763
54.2950,41.0583
54.7950,41.0583
54.8859,41.0763
54.9629,41.1278
55.0144,41.2049
55.0325,41.2957
Z" /> 
<path style="fill:#02FFEE; fill-opacity:0.4000; stroke:none;fill-rule:evenodd;"
d="M 53.2075,41.7707
53.1894,41.8616
53.1379,41.9387
53.0609,41.9902
52.9700,42.0082
52.4700,42.0082
52.3791,41.9902
52.3021,41.9387
52.2506,41.8616
52.2325,41.7707
52.2325,41.2957
52.2506,41.2049
52.3021,41.1278
52.3791,41.0763
52.4700,41.0583
52.9700,41.0583
53.0609,41.0763
53.1379,41.1278
53.1894,41.2049
53.2075,41.2957
Z" /> 
<path style="fill:#02FFEE; fill-opacity:0.4000; stroke:none;fill-rule:evenodd;"
d="M 50.0535,39.2342
50.0725,39.1386
50.1267,39.0575
50.2078,39.0033
50.3035,38.9842
50.9785,38.9842
51.0742,39.0033
51.1553,39.0575
51.2095,39.1386
51.2285,39.2342
51.2285,40.1842
51.2095,40.2799
51.1553,40.3610
51.0742,40.4152
50.9785,40.4342
50.3035,40.4342
50.2078,40.4152
50.1267,40.3610
50.0725,40.2799
50.0535,40.1842
Z" /> 
<path style="fill:#02FFEE; fill-opacity:0.4000; stroke:none;fill-rule:evenodd;"
d="M 52.1285,39.2342
52.1475,39.1386
52.2017,39.0575
52.2828,39.0033
52.3785,38.9842
53.0535,38.9842
53.1492,39.0033
53.2303,39.0575
53.2845,39.1386
53.3035,39.2342
53.3035,40.1842
53.2845,40.2799
53.2303,40.3610
53.1492,40.4152
53.0535,40.4342
52.3785,40.4342
52.2828,40.4152
52.2017,40.3610
52.1475,40.2799
52.1285,40.1842
Z" /> 
<path style="fill:#02FFEE; fill-opacity:0.4000; stroke:none;fill-rule:evenodd;"
d="M 52.0700,19.3707
52.0519,19.4616
52.0004,19.5387
51.9234,19.5902
51.8325,19.6082
51.3325,19.6082
51.2416,19.5902
51.1646,19.5387
51.1131,19.4616
51.0950,19.3707
51.0950,18.8957
51.1131,18.8049
51.1646,18.7278
51.2416,18.6763
51.3325,18.6582
51.8325,18.6582
51.9234,18.6763
52.0004,18.7278
52.0519,18.8049
52.0700,18.8957
Z" /> 
<path style="fill:#02FFEE; fill-opacity:0.4000; stroke:none;fill-rule:evenodd;"
d="M 50.2450,19.3707
50.2269,19.4616
50.1754,19.5387
50.0984,19.5902
50.0075,19.6082
49.5075,19.6082
49.4166,19.5902
49.3396,19.5387
49.2881,19.4616
49.2700,19.3707
49.2700,18.8957
49.2881,18.8049
49.3396,18.7278
49.4166,18.6763
49.5075,18.6582
50.0075,18.6582
50.0984,18.6763
50.1754,18.7278
50.2269,18.8049
50.2450,18.8957
Z" /> 
<path style="fill:#02FFEE; fill-opacity:0.4000; stroke:none;fill-rule:evenodd;"
d="M 36.4550,58.9532
36.4740,58.8576
36.5282,58.7765
36.6093,58.7223
36.7050,58.7032
37.3800,58.7032
37.4757,58.7223
37.5568,58.7765
37.6110,58.8576
37.6300,58.9532
37.6300,59.9032
37.6110,59.9989
37.5568,60.0800
37.4757,60.1342
37.3800,60.1532
36.7050,60.1532
36.6093,60.1342
36.5282,60.0800
36.4740,59.9989
36.4550,59.9032
Z" /> 
<path style="fill:#02FFEE; fill-opacity:0.4000; stroke:none;fill-rule:evenodd;"
d="M 38.5300,58.9532
38.5490,58.8576
38.6032,58.7765
38.6843,58.7223
38.7800,58.7032
39.4550,58.7032
39.5507,58.7223
39.6318,58.7765
39.6860,58.8576
39.7050,58.9532
39.7050,59.9032
39.6860,59.9989
39.6318,60.0800
39.5507,60.1342
39.4550,60.1532
38.7800,60.1532
38.6843,60.1342
38.6032,60.0800
38.5490,59.9989
38.5300,59.9032
Z" /> 
<path style="fill:#02FFEE; fill-opacity:0.4000; stroke:none;fill-rule:evenodd;"
d="M 6.9950,18.8457
7.0131,18.7549
7.0646,18.6778
7.1416,18.6263
7.2325,18.6082
7.7325,18.6082
7.8234,18.6263
7.9004,18.6778
7.9519,18.7549
7.9700,18.8457
7.9700,19.3208
7.9519,19.4116
7.9004,19.4887
7.8234,19.5402
7.7325,19.5582
7.2325,19.5582
7.1416,19.5402
7.0646,19.4887
7.0131,19.4116
6.9950,19.3208
Z" /> 
<path style="fill:#02FFEE; fill-opacity:0.4000; stroke:none;fill-rule:evenodd;"
d="M 8.8200,18.8457
8.8381,18.7549
8.8896,18.6778
8.9666,18.6263
9.0575,18.6082
9.5575,18.6082
9.6484,18.6263
9.7254,18.6778
9.7769,18.7549
9.7950,18.8457
9.7950,19.3208
9.7769,19.4116
9.7254,19.4887
9.6484,19.5402
9.5575,19.5582
9.0575,19.5582
8.9666,19.5402
8.8896,19.4887
8.8381,19.4116
8.8200,19.3208
Z" /> 
<path style="fill:#02FFEE; fill-opacity:0.4000; stroke:none;fill-rule:evenodd;"
d="M 36.1875,49.6882
36.2065,49.5926
36.2607,49.5115
36.3418,49.4573
36.4375,49.4382
37.2625,49.4382
37.3582,49.4573
37.4393,49.5115
37.4935,49.5926
37.5125,49.6882
37.5125,51.8882
37.4935,51.9839
37.4393,52.0650
37.3582,52.1192
37.2625,52.1382
36.4375,52.1382
36.3418,52.1192
36.2607,52.0650
36.2065,51.9839
36.1875,51.8882
Z" /> 
<path style="fill:#02FFEE; fill-opacity:0.4000; stroke:none;fill-rule:evenodd;"
d="M 39.3125,49.6882
39.3315,49.5926
39.3857,49.5115
39.4668,49.4573
39.5625,49.4382
40.3875,49.4382
40.4832,49.4573
40.5643,49.5115
40.6185,49.5926
40.6375,49.6882
40.6375,51.8882
40.6185,51.9839
40.5643,52.0650
40.4832,52.1192
40.3875,52.1382
39.5625,52.1382
39.4668,52.1192
39.3857,52.0650
39.3315,51.9839
39.3125,51.8882
Z" /> 
<path style="fill:#02FFEE; fill-opacity:0.4000; stroke:none;fill-rule:evenodd;"
d="M 7.7825,49.7832
7.7635,49.8789
7.7093,49.9600
7.6282,50.0142
7.5325,50.0332
6.8575,50.0332
6.7618,50.0142
6.6807,49.9600
6.6265,49.8789
6.6075,49.7832
6.6075,48.8332
6.6265,48.7376
6.6807,48.6565
6.7618,48.6023
6.8575,48.5832
7.5325,48.5832
7.6282,48.6023
7.7093,48.6565
7.7635,48.7376
7.7825,48.8332
Z" /> 
<path style="fill:#02FFEE; fill-opacity:0.4000; stroke:none;fill-rule:evenodd;"
d="M 5.7075,49.7832
5.6885,49.8789
5.6343,49.9600
5.5532,50.0142
5.4575,50.0332
4.7825,50.0332
4.6868,50.0142
4.6057,49.9600
4.5515,49.8789
4.5325,49.7832
4.5325,48.8332
4.5515,48.7376
4.6057,48.6565
4.6868,48.6023
4.7825,48.5832
5.4575,48.5832
5.5532,48.6023
5.6343,48.6565
5.6885,48.7376
5.7075,48.8332
Z" /> 
<path style="fill:#02FFEE; fill-opacity:0.4000; stroke:none;fill-rule:evenodd;"
d="M 37.7325,36.3582
37.7515,36.2626
37.8057,36.1815
37.8868,36.1273
37.9825,36.1082
38.8075,36.1082
38.9032,36.1273
38.9843,36.1815
39.0385,36.2626
39.0575,36.3582
39.0575,38.5583
39.0385,38.6539
38.9843,38.7350
38.9032,38.7892
38.8075,38.8083
37.9825,38.8083
37.8868,38.7892
37.8057,38.7350
37.7515,38.6539
37.7325,38.5583
Z" /> 
<path style="fill:#02FFEE; fill-opacity:0.4000; stroke:none;fill-rule:evenodd;"
d="M 40.8575,36.3582
40.8765,36.2626
40.9307,36.1815
41.0118,36.1273
41.1075,36.1082
41.9325,36.1082
42.0282,36.1273
42.1093,36.1815
42.1635,36.2626
42.1825,36.3582
42.1825,38.5583
42.1635,38.6539
42.1093,38.7350
42.0282,38.7892
41.9325,38.8083
41.1075,38.8083
41.0118,38.7892
40.9307,38.7350
40.8765,38.6539
40.8575,38.5583
Z" /> 
<path style="fill:#02FFEE; fill-opacity:0.4000; stroke:none;fill-rule:evenodd;"
d="M 36.4450,56.9432
36.4640,56.8476
36.5182,56.7665
36.5993,56.7123
36.6950,56.6932
37.3700,56.6932
37.4657,56.7123
37.5468,56.7665
37.6010,56.8476
37.6200,56.9432
37.6200,57.8932
37.6010,57.9889
37.5468,58.0700
37.4657,58.1242
37.3700,58.1432
36.6950,58.1432
36.5993,58.1242
36.5182,58.0700
36.4640,57.9889
36.4450,57.8932
Z" /> 
<path style="fill:#02FFEE; fill-opacity:0.4000; stroke:none;fill-rule:evenodd;"
d="M 38.5200,56.9432
38.5390,56.8476
38.5932,56.7665
38.6743,56.7123
38.7700,56.6932
39.4450,56.6932
39.5407,56.7123
39.6218,56.7665
39.6760,56.8476
39.6950,56.9432
39.6950,57.8932
39.6760,57.9889
39.6218,58.0700
39.5407,58.1242
39.4450,58.1432
38.7700,58.1432
38.6743,58.1242
38.5932,58.0700
38.5390,57.9889
38.5200,57.8932
Z" /> 
<path style="fill:#02FFEE; fill-opacity:0.4000; stroke:none;fill-rule:evenodd;"
d="M 49.0660,23.8082
48.9703,23.7892
48.8892,23.7350
48.8350,23.6539
48.8160,23.5582
48.8160,22.8833
48.8350,22.7876
48.8892,22.7065
48.9703,22.6523
49.0660,22.6333
50.0160,22.6333
50.1117,22.6523
50.1928,22.7065
50.2470,22.7876
50.2660,22.8833
50.2660,23.5582
50.2470,23.6539
50.1928,23.7350
50.1117,23.7892
50.0160,23.8082
Z" /> 
<path style="fill:#02FFEE; fill-opacity:0.4000; stroke:none;fill-rule:evenodd;"
d="M 49.0660,21.7332
48.9703,21.7142
48.8892,21.6600
48.8350,21.5789
48.8160,21.4832
48.8160,20.8082
48.8350,20.7126
48.8892,20.6315
48.9703,20.5773
49.0660,20.5582
50.0160,20.5582
50.1117,20.5773
50.1928,20.6315
50.2470,20.7126
50.2660,20.8082
50.2660,21.4832
50.2470,21.5789
50.1928,21.6600
50.1117,21.7142
50.0160,21.7332
Z" /> 
<path style="fill:#02FFEE; fill-opacity:0.4000; stroke:none;fill-rule:evenodd;"
d="M 12.0500,21.5152
12.0310,21.6109
11.9768,21.6920
11.8957,21.7462
11.8000,21.7652
11.1250,21.7652
11.0293,21.7462
10.9482,21.6920
10.8940,21.6109
10.8750,21.5152
10.8750,20.5652
10.8940,20.4696
10.9482,20.3885
11.0293,20.3343
11.1250,20.3152
11.8000,20.3152
11.8957,20.3343
11.9768,20.3885
12.0310,20.4696
12.0500,20.5652
Z" /> 
<path style="fill:#02FFEE; fill-opacity:0.4000; stroke:none;fill-rule:evenodd;"
d="M 9.9750,21.5152
9.9560,21.6109
9.9018,21.6920
9.8207,21.7462
9.7250,21.7652
9.0500,21.7652
8.9543,21.7462
8.8732,21.6920
8.8190,21.6109
8.8000,21.5152
8.8000,20.5652
8.8190,20.4696
8.8732,20.3885
8.9543,20.3343
9.0500,20.3152
9.7250,20.3152
9.8207,20.3343
9.9018,20.3885
9.9560,20.4696
9.9750,20.5652
Z" /> 
<path style="fill:#02FFEE; fill-opacity:0.4000; stroke:none;fill-rule:evenodd;"
d="M 38.3575,30.7832
38.3765,30.6876
38.4307,30.6065
38.5118,30.5523
38.6075,30.5332
39.2825,30.5332
39.3782,30.5523
39.4593,30.6065
39.5135,30.6876
39.5325,30.7832
39.5325,31.7332
39.5135,31.8289
39.4593,31.9100
39.3782,31.9642
39.2825,31.9832
38.6075,31.9832
38.5118,31.9642
38.4307,31.9100
38.3765,31.8289
38.3575,31.7332
Z" /> 
<path style="fill:#02FFEE; fill-opacity:0.4000; stroke:none;fill-rule:evenodd;"
d="M 40.4325,30.7832
40.4515,30.6876
40.5057,30.6065
40.5868,30.5523
40.6825,30.5332
41.3575,30.5332
41.4532,30.5523
41.5343,30.6065
41.5885,30.6876
41.6075,30.7832
41.6075,31.7332
41.5885,31.8289
41.5343,31.9100
41.4532,31.9642
41.3575,31.9832
40.6825,31.9832
40.5868,31.9642
40.5057,31.9100
40.4515,31.8289
40.4325,31.7332
Z" /> 
<path style="fill:#02FFEE; fill-opacity:0.4000; stroke:none;fill-rule:evenodd;"
d="M 36.1075,42.8582
36.1265,42.7626
36.1807,42.6815
36.2618,42.6273
36.3575,42.6082
37.1825,42.6082
37.2782,42.6273
37.3593,42.6815
37.4135,42.7626
37.4325,42.8582
37.4325,45.0583
37.4135,45.1539
37.3593,45.2350
37.2782,45.2892
37.1825,45.3083
36.3575,45.3083
36.2618,45.2892
36.1807,45.2350
36.1265,45.1539
36.1075,45.0583
Z" /> 
<path style="fill:#02FFEE; fill-opacity:0.4000; stroke:none;fill-rule:evenodd;"
d="M 39.2325,42.8582
39.2515,42.7626
39.3057,42.6815
39.3868,42.6273
39.4825,42.6082
40.3075,42.6082
40.4032,42.6273
40.4843,42.6815
40.5385,42.7626
40.5575,42.8582
40.5575,45.0583
40.5385,45.1539
40.4843,45.2350
40.4032,45.2892
40.3075,45.3083
39.4825,45.3083
39.3868,45.2892
39.3057,45.2350
39.2515,45.1539
39.2325,45.0583
Z" /> 
<path style="fill:#02FFEE; fill-opacity:0.4000; stroke:none;fill-rule:evenodd;"
d="M 7.9700,70.8708
7.9881,70.7799
8.0396,70.7028
8.1166,70.6513
8.2075,70.6333
8.7075,70.6333
8.7984,70.6513
8.8754,70.7028
8.9269,70.7799
8.9450,70.8708
8.9450,71.3457
8.9269,71.4366
8.8754,71.5137
8.7984,71.5652
8.7075,71.5832
8.2075,71.5832
8.1166,71.5652
8.0396,71.5137
7.9881,71.4366
7.9700,71.3457
Z" /> 
<path style="fill:#02FFEE; fill-opacity:0.4000; stroke:none;fill-rule:evenodd;"
d="M 9.7950,70.8708
9.8131,70.7799
9.8646,70.7028
9.9416,70.6513
10.0325,70.6333
10.5325,70.6333
10.6234,70.6513
10.7004,70.7028
10.7519,70.7799
10.7700,70.8708
10.7700,71.3457
10.7519,71.4366
10.7004,71.5137
10.6234,71.5652
10.5325,71.5832
10.0325,71.5832
9.9416,71.5652
9.8646,71.5137
9.8131,71.4366
9.7950,71.3457
Z" /> 
<path style="fill:none; 
stroke:#D0D2CD; stroke-width:0.0500; stroke-opacity:1; 
stroke-linecap:round; stroke-linejoin:round;fill:none"
d="M 0.0500,6.2582
58.9200,6.2582
58.9200,85.4582
0.0500,85.4582
Z" /> 
</g> 
</svg>
