<?xml version="1.0" standalone="no"?>
 <!DOCTYPE svg PUBLIC "-//W3C//DTD SVG 1.1//EN" 
 "http://www.w3.org/Graphics/SVG/1.1/DTD/svg11.dtd"> 
<svg
  xmlns:svg="http://www.w3.org/2000/svg"
  xmlns="http://www.w3.org/2000/svg"
  xmlns:xlink="http://www.w3.org/1999/xlink"
  version="1.1"
  width="68.1482mm" height="85.4964mm" viewBox="0.0000 0.0000 68.1482 85.4964">
<title>SVG Image created as SEPIC-B-F_Silkscreen.svg date 2024/09/19 10:24:19 </title>
  <desc>Image generated by PCBNEW </desc>
<g style="fill:#000000; fill-opacity:1.0000;stroke:#000000; stroke-opacity:1.0000;
stroke-linecap:round; stroke-linejoin:round;"
 transform="translate(0 0) scale(1 1)">
<path style="fill:none; 
stroke:#F2EDA1; stroke-width:0.1000; stroke-opacity:1; 
stroke-linecap:round; stroke-linejoin:round;fill:none"
d="M 0.6300,6.8083
58.2900,6.8083
58.2900,84.8383
0.6300,84.8383
Z" /> 
</g>
<g style="fill:none; 
stroke:#F2EDA1; stroke-width:0.1000; stroke-opacity:1; 
stroke-linecap:round; stroke-linejoin:round;">
<text x="36.4700" y="60.1582"
textLength="9.9571" font-size="1.3333" lengthAdjust="spacingAndGlyphs"
text-anchor="start" opacity="0">Kardos Milán</text>
<g class="stroked-text"><desc>Kardos Milán</desc>
<path d="M36.7739 60.0307
L36.7739 59.0307
" />
<path d="M37.3453 60.0307
L36.9167 59.4592
" />
<path d="M37.3453 59.0307
L36.7739 59.6021
" />
<path d="M38.2025 60.0307
L38.2025 59.5069
" />
<path d="M38.2025 59.5069
L38.1548 59.4116
" />
<path d="M38.1548 59.4116
L38.0596 59.3640
" />
<path d="M38.0596 59.3640
L37.8691 59.3640
" />
<path d="M37.8691 59.3640
L37.7739 59.4116
" />
<path d="M38.2025 59.9830
L38.1072 60.0307
" />
<path d="M38.1072 60.0307
L37.8691 60.0307
" />
<path d="M37.8691 60.0307
L37.7739 59.9830
" />
<path d="M37.7739 59.9830
L37.7263 59.8878
" />
<path d="M37.7263 59.8878
L37.7263 59.7926
" />
<path d="M37.7263 59.7926
L37.7739 59.6973
" />
<path d="M37.7739 59.6973
L37.8691 59.6497
" />
<path d="M37.8691 59.6497
L38.1072 59.6497
" />
<path d="M38.1072 59.6497
L38.2025 59.6021
" />
<path d="M38.6786 60.0307
L38.6786 59.3640
" />
<path d="M38.6786 59.5545
L38.7263 59.4592
" />
<path d="M38.7263 59.4592
L38.7739 59.4116
" />
<path d="M38.7739 59.4116
L38.8691 59.3640
" />
<path d="M38.8691 59.3640
L38.9644 59.3640
" />
<path d="M39.7263 60.0307
L39.7263 59.0307
" />
<path d="M39.7263 59.9830
L39.6310 60.0307
" />
<path d="M39.6310 60.0307
L39.4406 60.0307
" />
<path d="M39.4406 60.0307
L39.3453 59.9830
" />
<path d="M39.3453 59.9830
L39.2977 59.9354
" />
<path d="M39.2977 59.9354
L39.2501 59.8402
" />
<path d="M39.2501 59.8402
L39.2501 59.5545
" />
<path d="M39.2501 59.5545
L39.2977 59.4592
" />
<path d="M39.2977 59.4592
L39.3453 59.4116
" />
<path d="M39.3453 59.4116
L39.4406 59.3640
" />
<path d="M39.4406 59.3640
L39.6310 59.3640
" />
<path d="M39.6310 59.3640
L39.7263 59.4116
" />
<path d="M40.3453 60.0307
L40.2501 59.9830
" />
<path d="M40.2501 59.9830
L40.2025 59.9354
" />
<path d="M40.2025 59.9354
L40.1548 59.8402
" />
<path d="M40.1548 59.8402
L40.1548 59.5545
" />
<path d="M40.1548 59.5545
L40.2025 59.4592
" />
<path d="M40.2025 59.4592
L40.2501 59.4116
" />
<path d="M40.2501 59.4116
L40.3453 59.3640
" />
<path d="M40.3453 59.3640
L40.4882 59.3640
" />
<path d="M40.4882 59.3640
L40.5834 59.4116
" />
<path d="M40.5834 59.4116
L40.6310 59.4592
" />
<path d="M40.6310 59.4592
L40.6786 59.5545
" />
<path d="M40.6786 59.5545
L40.6786 59.8402
" />
<path d="M40.6786 59.8402
L40.6310 59.9354
" />
<path d="M40.6310 59.9354
L40.5834 59.9830
" />
<path d="M40.5834 59.9830
L40.4882 60.0307
" />
<path d="M40.4882 60.0307
L40.3453 60.0307
" />
<path d="M41.0596 59.9830
L41.1548 60.0307
" />
<path d="M41.1548 60.0307
L41.3453 60.0307
" />
<path d="M41.3453 60.0307
L41.4406 59.9830
" />
<path d="M41.4406 59.9830
L41.4882 59.8878
" />
<path d="M41.4882 59.8878
L41.4882 59.8402
" />
<path d="M41.4882 59.8402
L41.4406 59.7450
" />
<path d="M41.4406 59.7450
L41.3453 59.6973
" />
<path d="M41.3453 59.6973
L41.2025 59.6973
" />
<path d="M41.2025 59.6973
L41.1072 59.6497
" />
<path d="M41.1072 59.6497
L41.0596 59.5545
" />
<path d="M41.0596 59.5545
L41.0596 59.5069
" />
<path d="M41.0596 59.5069
L41.1072 59.4116
" />
<path d="M41.1072 59.4116
L41.2025 59.3640
" />
<path d="M41.2025 59.3640
L41.3453 59.3640
" />
<path d="M41.3453 59.3640
L41.4406 59.4116
" />
<path d="M42.6786 60.0307
L42.6786 59.0307
" />
<path d="M42.6786 59.0307
L43.0120 59.7450
" />
<path d="M43.0120 59.7450
L43.3453 59.0307
" />
<path d="M43.3453 59.0307
L43.3453 60.0307
" />
<path d="M43.8215 60.0307
L43.8215 59.3640
" />
<path d="M43.8215 59.0307
L43.7739 59.0783
" />
<path d="M43.7739 59.0783
L43.8215 59.1259
" />
<path d="M43.8215 59.1259
L43.8691 59.0783
" />
<path d="M43.8691 59.0783
L43.8215 59.0307
" />
<path d="M43.8215 59.0307
L43.8215 59.1259
" />
<path d="M44.4406 60.0307
L44.3453 59.9830
" />
<path d="M44.3453 59.9830
L44.2977 59.8878
" />
<path d="M44.2977 59.8878
L44.2977 59.0307
" />
<path d="M45.2501 60.0307
L45.2501 59.5069
" />
<path d="M45.2501 59.5069
L45.2025 59.4116
" />
<path d="M45.2025 59.4116
L45.1072 59.3640
" />
<path d="M45.1072 59.3640
L44.9167 59.3640
" />
<path d="M44.9167 59.3640
L44.8215 59.4116
" />
<path d="M45.2501 59.9830
L45.1548 60.0307
" />
<path d="M45.1548 60.0307
L44.9167 60.0307
" />
<path d="M44.9167 60.0307
L44.8215 59.9830
" />
<path d="M44.8215 59.9830
L44.7739 59.8878
" />
<path d="M44.7739 59.8878
L44.7739 59.7926
" />
<path d="M44.7739 59.7926
L44.8215 59.6973
" />
<path d="M44.8215 59.6973
L44.9167 59.6497
" />
<path d="M44.9167 59.6497
L45.1548 59.6497
" />
<path d="M45.1548 59.6497
L45.2501 59.6021
" />
<path d="M45.1072 58.9830
L44.9644 59.1259
" />
<path d="M45.7263 59.3640
L45.7263 60.0307
" />
<path d="M45.7263 59.4592
L45.7739 59.4116
" />
<path d="M45.7739 59.4116
L45.8691 59.3640
" />
<path d="M45.8691 59.3640
L46.0120 59.3640
" />
<path d="M46.0120 59.3640
L46.1072 59.4116
" />
<path d="M46.1072 59.4116
L46.1548 59.5069
" />
<path d="M46.1548 59.5069
L46.1548 60.0307
" />
</g><text x="36.4450" y="61.5332"
textLength="13.5762" font-size="1.3333" lengthAdjust="spacingAndGlyphs"
text-anchor="start" opacity="0">Robert Bosch Kft.</text>
<g class="stroked-text"><desc>Robert Bosch Kft.</desc>
<path d="M37.3203 61.4057
L36.9870 60.9295
" />
<path d="M36.7489 61.4057
L36.7489 60.4057
" />
<path d="M36.7489 60.4057
L37.1298 60.4057
" />
<path d="M37.1298 60.4057
L37.2251 60.4533
" />
<path d="M37.2251 60.4533
L37.2727 60.5009
" />
<path d="M37.2727 60.5009
L37.3203 60.5961
" />
<path d="M37.3203 60.5961
L37.3203 60.7390
" />
<path d="M37.3203 60.7390
L37.2727 60.8342
" />
<path d="M37.2727 60.8342
L37.2251 60.8819
" />
<path d="M37.2251 60.8819
L37.1298 60.9295
" />
<path d="M37.1298 60.9295
L36.7489 60.9295
" />
<path d="M37.8917 61.4057
L37.7965 61.3580
" />
<path d="M37.7965 61.3580
L37.7489 61.3104
" />
<path d="M37.7489 61.3104
L37.7013 61.2152
" />
<path d="M37.7013 61.2152
L37.7013 60.9295
" />
<path d="M37.7013 60.9295
L37.7489 60.8342
" />
<path d="M37.7489 60.8342
L37.7965 60.7866
" />
<path d="M37.7965 60.7866
L37.8917 60.7390
" />
<path d="M37.8917 60.7390
L38.0346 60.7390
" />
<path d="M38.0346 60.7390
L38.1298 60.7866
" />
<path d="M38.1298 60.7866
L38.1775 60.8342
" />
<path d="M38.1775 60.8342
L38.2251 60.9295
" />
<path d="M38.2251 60.9295
L38.2251 61.2152
" />
<path d="M38.2251 61.2152
L38.1775 61.3104
" />
<path d="M38.1775 61.3104
L38.1298 61.3580
" />
<path d="M38.1298 61.3580
L38.0346 61.4057
" />
<path d="M38.0346 61.4057
L37.8917 61.4057
" />
<path d="M38.6536 61.4057
L38.6536 60.4057
" />
<path d="M38.6536 60.7866
L38.7489 60.7390
" />
<path d="M38.7489 60.7390
L38.9394 60.7390
" />
<path d="M38.9394 60.7390
L39.0346 60.7866
" />
<path d="M39.0346 60.7866
L39.0822 60.8342
" />
<path d="M39.0822 60.8342
L39.1298 60.9295
" />
<path d="M39.1298 60.9295
L39.1298 61.2152
" />
<path d="M39.1298 61.2152
L39.0822 61.3104
" />
<path d="M39.0822 61.3104
L39.0346 61.3580
" />
<path d="M39.0346 61.3580
L38.9394 61.4057
" />
<path d="M38.9394 61.4057
L38.7489 61.4057
" />
<path d="M38.7489 61.4057
L38.6536 61.3580
" />
<path d="M39.9394 61.3580
L39.8441 61.4057
" />
<path d="M39.8441 61.4057
L39.6536 61.4057
" />
<path d="M39.6536 61.4057
L39.5584 61.3580
" />
<path d="M39.5584 61.3580
L39.5108 61.2628
" />
<path d="M39.5108 61.2628
L39.5108 60.8819
" />
<path d="M39.5108 60.8819
L39.5584 60.7866
" />
<path d="M39.5584 60.7866
L39.6536 60.7390
" />
<path d="M39.6536 60.7390
L39.8441 60.7390
" />
<path d="M39.8441 60.7390
L39.9394 60.7866
" />
<path d="M39.9394 60.7866
L39.9870 60.8819
" />
<path d="M39.9870 60.8819
L39.9870 60.9771
" />
<path d="M39.9870 60.9771
L39.5108 61.0723
" />
<path d="M40.4156 61.4057
L40.4156 60.7390
" />
<path d="M40.4156 60.9295
L40.4632 60.8342
" />
<path d="M40.4632 60.8342
L40.5108 60.7866
" />
<path d="M40.5108 60.7866
L40.6060 60.7390
" />
<path d="M40.6060 60.7390
L40.7013 60.7390
" />
<path d="M40.8917 60.7390
L41.2727 60.7390
" />
<path d="M41.0346 60.4057
L41.0346 61.2628
" />
<path d="M41.0346 61.2628
L41.0822 61.3580
" />
<path d="M41.0822 61.3580
L41.1775 61.4057
" />
<path d="M41.1775 61.4057
L41.2727 61.4057
" />
<path d="M42.7013 60.8819
L42.8441 60.9295
" />
<path d="M42.8441 60.9295
L42.8917 60.9771
" />
<path d="M42.8917 60.9771
L42.9394 61.0723
" />
<path d="M42.9394 61.0723
L42.9394 61.2152
" />
<path d="M42.9394 61.2152
L42.8917 61.3104
" />
<path d="M42.8917 61.3104
L42.8441 61.3580
" />
<path d="M42.8441 61.3580
L42.7489 61.4057
" />
<path d="M42.7489 61.4057
L42.3679 61.4057
" />
<path d="M42.3679 61.4057
L42.3679 60.4057
" />
<path d="M42.3679 60.4057
L42.7013 60.4057
" />
<path d="M42.7013 60.4057
L42.7965 60.4533
" />
<path d="M42.7965 60.4533
L42.8441 60.5009
" />
<path d="M42.8441 60.5009
L42.8917 60.5961
" />
<path d="M42.8917 60.5961
L42.8917 60.6914
" />
<path d="M42.8917 60.6914
L42.8441 60.7866
" />
<path d="M42.8441 60.7866
L42.7965 60.8342
" />
<path d="M42.7965 60.8342
L42.7013 60.8819
" />
<path d="M42.7013 60.8819
L42.3679 60.8819
" />
<path d="M43.5108 61.4057
L43.4156 61.3580
" />
<path d="M43.4156 61.3580
L43.3679 61.3104
" />
<path d="M43.3679 61.3104
L43.3203 61.2152
" />
<path d="M43.3203 61.2152
L43.3203 60.9295
" />
<path d="M43.3203 60.9295
L43.3679 60.8342
" />
<path d="M43.3679 60.8342
L43.4156 60.7866
" />
<path d="M43.4156 60.7866
L43.5108 60.7390
" />
<path d="M43.5108 60.7390
L43.6536 60.7390
" />
<path d="M43.6536 60.7390
L43.7489 60.7866
" />
<path d="M43.7489 60.7866
L43.7965 60.8342
" />
<path d="M43.7965 60.8342
L43.8441 60.9295
" />
<path d="M43.8441 60.9295
L43.8441 61.2152
" />
<path d="M43.8441 61.2152
L43.7965 61.3104
" />
<path d="M43.7965 61.3104
L43.7489 61.3580
" />
<path d="M43.7489 61.3580
L43.6536 61.4057
" />
<path d="M43.6536 61.4057
L43.5108 61.4057
" />
<path d="M44.2251 61.3580
L44.3203 61.4057
" />
<path d="M44.3203 61.4057
L44.5108 61.4057
" />
<path d="M44.5108 61.4057
L44.6060 61.3580
" />
<path d="M44.6060 61.3580
L44.6536 61.2628
" />
<path d="M44.6536 61.2628
L44.6536 61.2152
" />
<path d="M44.6536 61.2152
L44.6060 61.1200
" />
<path d="M44.6060 61.1200
L44.5108 61.0723
" />
<path d="M44.5108 61.0723
L44.3679 61.0723
" />
<path d="M44.3679 61.0723
L44.2727 61.0247
" />
<path d="M44.2727 61.0247
L44.2251 60.9295
" />
<path d="M44.2251 60.9295
L44.2251 60.8819
" />
<path d="M44.2251 60.8819
L44.2727 60.7866
" />
<path d="M44.2727 60.7866
L44.3679 60.7390
" />
<path d="M44.3679 60.7390
L44.5108 60.7390
" />
<path d="M44.5108 60.7390
L44.6060 60.7866
" />
<path d="M45.5108 61.3580
L45.4156 61.4057
" />
<path d="M45.4156 61.4057
L45.2251 61.4057
" />
<path d="M45.2251 61.4057
L45.1298 61.3580
" />
<path d="M45.1298 61.3580
L45.0822 61.3104
" />
<path d="M45.0822 61.3104
L45.0346 61.2152
" />
<path d="M45.0346 61.2152
L45.0346 60.9295
" />
<path d="M45.0346 60.9295
L45.0822 60.8342
" />
<path d="M45.0822 60.8342
L45.1298 60.7866
" />
<path d="M45.1298 60.7866
L45.2251 60.7390
" />
<path d="M45.2251 60.7390
L45.4156 60.7390
" />
<path d="M45.4156 60.7390
L45.5108 60.7866
" />
<path d="M45.9394 61.4057
L45.9394 60.4057
" />
<path d="M46.3679 61.4057
L46.3679 60.8819
" />
<path d="M46.3679 60.8819
L46.3203 60.7866
" />
<path d="M46.3203 60.7866
L46.2251 60.7390
" />
<path d="M46.2251 60.7390
L46.0822 60.7390
" />
<path d="M46.0822 60.7390
L45.9870 60.7866
" />
<path d="M45.9870 60.7866
L45.9394 60.8342
" />
<path d="M47.6060 61.4057
L47.6060 60.4057
" />
<path d="M48.1775 61.4057
L47.7489 60.8342
" />
<path d="M48.1775 60.4057
L47.6060 60.9771
" />
<path d="M48.4632 60.7390
L48.8441 60.7390
" />
<path d="M48.6060 61.4057
L48.6060 60.5485
" />
<path d="M48.6060 60.5485
L48.6536 60.4533
" />
<path d="M48.6536 60.4533
L48.7489 60.4057
" />
<path d="M48.7489 60.4057
L48.8441 60.4057
" />
<path d="M49.0346 60.7390
L49.4156 60.7390
" />
<path d="M49.1775 60.4057
L49.1775 61.2628
" />
<path d="M49.1775 61.2628
L49.2251 61.3580
" />
<path d="M49.2251 61.3580
L49.3203 61.4057
" />
<path d="M49.3203 61.4057
L49.4156 61.4057
" />
<path d="M49.7489 61.3104
L49.7965 61.3580
" />
<path d="M49.7965 61.3580
L49.7489 61.4057
" />
<path d="M49.7489 61.4057
L49.7013 61.3580
" />
<path d="M49.7013 61.3580
L49.7489 61.3104
" />
<path d="M49.7489 61.3104
L49.7489 61.4057
" />
</g></g>
<g style="fill:none; 
stroke:#F2EDA1; stroke-width:0.6000; stroke-opacity:1; 
stroke-linecap:round; stroke-linejoin:round;">
<text x="30.5200" y="57.8082"
textLength="20.9143" font-size="4.0000" lengthAdjust="spacingAndGlyphs"
text-anchor="start" opacity="0">SEPIC-B</text>
<g class="stroked-text"><desc>SEPIC-B</desc>
<path d="M31.4862 57.2670
L31.9147 57.4099
" />
<path d="M31.9147 57.4099
L32.6290 57.4099
" />
<path d="M32.6290 57.4099
L32.9147 57.2670
" />
<path d="M32.9147 57.2670
L33.0576 57.1242
" />
<path d="M33.0576 57.1242
L33.2004 56.8385
" />
<path d="M33.2004 56.8385
L33.2004 56.5528
" />
<path d="M33.2004 56.5528
L33.0576 56.2670
" />
<path d="M33.0576 56.2670
L32.9147 56.1242
" />
<path d="M32.9147 56.1242
L32.6290 55.9813
" />
<path d="M32.6290 55.9813
L32.0576 55.8385
" />
<path d="M32.0576 55.8385
L31.7719 55.6956
" />
<path d="M31.7719 55.6956
L31.6290 55.5528
" />
<path d="M31.6290 55.5528
L31.4862 55.2670
" />
<path d="M31.4862 55.2670
L31.4862 54.9813
" />
<path d="M31.4862 54.9813
L31.6290 54.6956
" />
<path d="M31.6290 54.6956
L31.7719 54.5528
" />
<path d="M31.7719 54.5528
L32.0576 54.4099
" />
<path d="M32.0576 54.4099
L32.7719 54.4099
" />
<path d="M32.7719 54.4099
L33.2004 54.5528
" />
<path d="M34.4862 55.8385
L35.4862 55.8385
" />
<path d="M35.9147 57.4099
L34.4862 57.4099
" />
<path d="M34.4862 57.4099
L34.4862 54.4099
" />
<path d="M34.4862 54.4099
L35.9147 54.4099
" />
<path d="M37.2004 57.4099
L37.2004 54.4099
" />
<path d="M37.2004 54.4099
L38.3433 54.4099
" />
<path d="M38.3433 54.4099
L38.6290 54.5528
" />
<path d="M38.6290 54.5528
L38.7719 54.6956
" />
<path d="M38.7719 54.6956
L38.9147 54.9813
" />
<path d="M38.9147 54.9813
L38.9147 55.4099
" />
<path d="M38.9147 55.4099
L38.7719 55.6956
" />
<path d="M38.7719 55.6956
L38.6290 55.8385
" />
<path d="M38.6290 55.8385
L38.3433 55.9813
" />
<path d="M38.3433 55.9813
L37.2004 55.9813
" />
<path d="M40.2004 57.4099
L40.2004 54.4099
" />
<path d="M43.3433 57.1242
L43.2004 57.2670
" />
<path d="M43.2004 57.2670
L42.7719 57.4099
" />
<path d="M42.7719 57.4099
L42.4862 57.4099
" />
<path d="M42.4862 57.4099
L42.0576 57.2670
" />
<path d="M42.0576 57.2670
L41.7719 56.9813
" />
<path d="M41.7719 56.9813
L41.6290 56.6956
" />
<path d="M41.6290 56.6956
L41.4862 56.1242
" />
<path d="M41.4862 56.1242
L41.4862 55.6956
" />
<path d="M41.4862 55.6956
L41.6290 55.1242
" />
<path d="M41.6290 55.1242
L41.7719 54.8385
" />
<path d="M41.7719 54.8385
L42.0576 54.5528
" />
<path d="M42.0576 54.5528
L42.4862 54.4099
" />
<path d="M42.4862 54.4099
L42.7719 54.4099
" />
<path d="M42.7719 54.4099
L43.2004 54.5528
" />
<path d="M43.2004 54.5528
L43.3433 54.6956
" />
<path d="M44.6290 56.2670
L46.9147 56.2670
" />
<path d="M49.3433 55.8385
L49.7719 55.9813
" />
<path d="M49.7719 55.9813
L49.9147 56.1242
" />
<path d="M49.9147 56.1242
L50.0576 56.4099
" />
<path d="M50.0576 56.4099
L50.0576 56.8385
" />
<path d="M50.0576 56.8385
L49.9147 57.1242
" />
<path d="M49.9147 57.1242
L49.7719 57.2670
" />
<path d="M49.7719 57.2670
L49.4862 57.4099
" />
<path d="M49.4862 57.4099
L48.3433 57.4099
" />
<path d="M48.3433 57.4099
L48.3433 54.4099
" />
<path d="M48.3433 54.4099
L49.3433 54.4099
" />
<path d="M49.3433 54.4099
L49.6290 54.5528
" />
<path d="M49.6290 54.5528
L49.7719 54.6956
" />
<path d="M49.7719 54.6956
L49.9147 54.9813
" />
<path d="M49.9147 54.9813
L49.9147 55.2670
" />
<path d="M49.9147 55.2670
L49.7719 55.5528
" />
<path d="M49.7719 55.5528
L49.6290 55.6956
" />
<path d="M49.6290 55.6956
L49.3433 55.8385
" />
<path d="M49.3433 55.8385
L48.3433 55.8385
" />
</g></g>
<g style="fill:none; 
stroke:#F2EDA1; stroke-width:0.2540; stroke-opacity:1; 
stroke-linecap:round; stroke-linejoin:round;">
<g transform="rotate(-90.000000 39.3450 67.6582)">
<text x="39.3450" y="68.2933"
textLength="3.8342" font-size="1.6933" lengthAdjust="spacingAndGlyphs"
text-anchor="middle" opacity="0">FL2</text>
</g>
<g class="stroked-text"><desc>FL2</desc>
<path d="M39.2541 68.5956
L39.2541 69.0190
" />
<path d="M39.9193 69.0190
L38.6493 69.0190
" />
<path d="M38.6493 69.0190
L38.6493 68.4142
" />
<path d="M39.9193 67.3256
L39.9193 67.9304
" />
<path d="M39.9193 67.9304
L38.6493 67.9304
" />
<path d="M38.7703 66.9628
L38.7098 66.9023
" />
<path d="M38.7098 66.9023
L38.6493 66.7813
" />
<path d="M38.6493 66.7813
L38.6493 66.4790
" />
<path d="M38.6493 66.4790
L38.7098 66.3580
" />
<path d="M38.7098 66.3580
L38.7703 66.2975
" />
<path d="M38.7703 66.2975
L38.8912 66.2371
" />
<path d="M38.8912 66.2371
L39.0122 66.2371
" />
<path d="M39.0122 66.2371
L39.1936 66.2975
" />
<path d="M39.1936 66.2975
L39.9193 67.0232
" />
<path d="M39.9193 67.0232
L39.9193 66.2371
" />
</g></g>
<g style="fill:none; 
stroke:#F2EDA1; stroke-width:0.1200; stroke-opacity:1; 
stroke-linecap:round; stroke-linejoin:round;">
<path d="M25.5171 70.2632
L25.0629 70.2632
" />
<path d="M25.5171 71.7332
L25.0629 71.7332
" />
<path d="M15.0229 39.3832
L15.4771 39.3832
" />
<path d="M15.0229 40.8532
L15.4771 40.8532
" />
<path d="M49.2250 67.2312
L49.2250 67.6853
" />
<path d="M50.6950 67.2312
L50.6950 67.6853
" />
<path d="M27.0100 30.9320
L27.0100 29.5095
" />
<path d="M28.8300 30.9320
L28.8300 29.5095
" />
<path d="M15.0229 37.4132
L15.4771 37.4132
" />
<path d="M15.0229 38.8832
L15.4771 38.8832
" />
<path d="M8.5987 33.9733
L8.8913 33.9733
" />
<path d="M8.5987 34.9932
L8.8913 34.9932
" />
<path d="M28.8850 24.6853
L28.8850 24.2312
" />
<path d="M30.3550 24.6853
L30.3550 24.2312
" />
<path d="M10.2403 19.6107
L10.7497 19.6107
" />
<path d="M10.2403 20.6557
L10.7497 20.6557
" />
<path d="M31.8438 45.4232
L31.3212 45.4232
" />
<path d="M31.8438 46.8932
L31.3212 46.8932
" />
<path d="M5.9350 61.5720
L5.9350 62.0945
" />
<path d="M7.4050 61.5720
L7.4050 62.0945
" />
</g>
<g style="fill:#F2EDA1; fill-opacity:1.0000; stroke:none;">
<circle cx="21.2650" cy="38.6202" r="0.0500" /> 
<circle cx="21.2650" cy="38.7203" r="0.0500" /> 
</g>
<g style="fill:none; 
stroke:#F2EDA1; stroke-width:0.1000; stroke-opacity:1; 
stroke-linecap:round; stroke-linejoin:round;">
<path d="M21.2650 38.7202 A0.0500 0.0500 0.0 0 0 21.2650 38.6202" />
<path d="M21.2650 38.6202 A0.0500 0.0500 0.0 0 0 21.2650 38.7202" />
</g>
<g style="fill:none; 
stroke:#F2EDA1; stroke-width:0.1200; stroke-opacity:1; 
stroke-linecap:round; stroke-linejoin:round;">
<path d="M16.7900 44.0216
L16.7900 43.7899
" />
<path d="M17.5100 44.0216
L17.5100 43.7899
" />
<path d="M25.1700 40.3781
L25.1700 40.7134
" />
<path d="M25.9300 40.3781
L25.9300 40.7134
" />
<path d="M13.7600 47.8099
L13.7600 48.0416
" />
<path d="M14.4800 47.8099
L14.4800 48.0416
" />
</g>
<g style="fill:none; 
stroke:#F2EDA1; stroke-width:0.2000; stroke-opacity:1; 
stroke-linecap:round; stroke-linejoin:round;">
<path d="M4.6400 8.2683
L7.2400 8.2683
" />
<path d="M4.6400 17.9682
L4.6400 8.2683
" />
<path d="M7.2400 7.4182
L28.6400 7.4182
" />
<path d="M7.2400 17.9682
L4.6400 17.9682
" />
<path d="M7.2400 18.1182
L7.2400 7.4182
" />
<path d="M28.6400 7.4182
L28.6400 18.1182
" />
<path d="M28.6400 18.1182
L7.2400 18.1182
" />
</g>
<g style="fill:#F2EDA1; fill-opacity:1.0000; stroke:none;">
<circle cx="29.0900" cy="13.0682" r="0.0500" /> 
<circle cx="29.1900" cy="13.0682" r="0.0500" /> 
</g>
<g style="fill:none; 
stroke:#F2EDA1; stroke-width:0.1000; stroke-opacity:1; 
stroke-linecap:round; stroke-linejoin:round;">
<path d="M29.1900 13.0682 A0.0500 0.0500 0.0 0 0 29.0900 13.0682" />
<path d="M29.0900 13.0682 A0.0500 0.0500 0.0 0 0 29.1900 13.0682" />
</g>
<g style="fill:none; 
stroke:#F2EDA1; stroke-width:0.1200; stroke-opacity:1; 
stroke-linecap:round; stroke-linejoin:round;">
<path d="M12.2929 31.9232
L12.7471 31.9232
" />
<path d="M12.2929 33.3933
L12.7471 33.3933
" />
<path d="M37.2850 38.5312
L37.2850 38.9853
" />
<path d="M38.7550 38.5312
L38.7550 38.9853
" />
</g>
<g style="fill:#F2EDA1; fill-opacity:1.0000; stroke:none;">
<circle cx="30.8700" cy="69.9582" r="0.1000" /> 
<circle cx="30.8700" cy="70.0583" r="0.1000" /> 
<circle cx="30.8700" cy="70.0583" r="0.1000" /> 
<circle cx="36.6200" cy="64.3582" r="0.0500" /> 
</g>
<g style="fill:none; 
stroke:#F2EDA1; stroke-width:0.1000; stroke-opacity:1; 
stroke-linecap:round; stroke-linejoin:round;">
<path d="M36.6200 64.3582
L43.1200 64.3582
" />
</g>
<g style="fill:#F2EDA1; fill-opacity:1.0000; stroke:none;">
<circle cx="36.6200" cy="70.9582" r="0.0500" /> 
</g>
<g style="fill:none; 
stroke:#F2EDA1; stroke-width:0.1000; stroke-opacity:1; 
stroke-linecap:round; stroke-linejoin:round;">
<path d="M36.6200 70.9582
L43.1200 70.9582
" />
<path d="M43.1200 64.3582
L36.6200 64.3582
" />
</g>
<g style="fill:#F2EDA1; fill-opacity:1.0000; stroke:none;">
<circle cx="43.1200" cy="64.3582" r="0.0500" /> 
</g>
<g style="fill:none; 
stroke:#F2EDA1; stroke-width:0.1000; stroke-opacity:1; 
stroke-linecap:round; stroke-linejoin:round;">
<path d="M43.1200 70.9582
L36.6200 70.9582
" />
</g>
<g style="fill:#F2EDA1; fill-opacity:1.0000; stroke:none;">
<circle cx="43.1200" cy="70.9582" r="0.0500" /> 
</g>
<g style="fill:none; 
stroke:#F2EDA1; stroke-width:0.2000; stroke-opacity:1; 
stroke-linecap:round; stroke-linejoin:round;">
<path d="M30.8700 70.0583 A0.0500 0.0500 0.0 0 0 30.8700 69.9583" />
<path d="M30.8700 70.0583 A0.0500 0.0500 0.0 0 0 30.8700 69.9583" />
<path d="M30.8700 69.9583 A0.0500 0.0500 0.0 0 0 30.8700 70.0583" />
</g>
<g style="fill:none; 
stroke:#F2EDA1; stroke-width:0.1200; stroke-opacity:1; 
stroke-linecap:round; stroke-linejoin:round;">
<path d="M53.3213 54.5032
L52.7987 54.5032
" />
<path d="M53.3213 55.9733
L52.7987 55.9733
" />
<path d="M37.6462 49.2982
L39.0688 49.2982
" />
<path d="M37.6462 52.0182
L39.0688 52.0182
" />
<path d="M22.7029 56.9733
L23.1571 56.9733
" />
<path d="M22.7029 58.4432
L23.1571 58.4432
" />
<path d="M53.7327 41.0358
L53.2233 41.0358
" />
<path d="M53.7327 42.0807
L53.2233 42.0807
" />
<path d="M20.3400 60.5945
L20.3400 62.0170
" />
<path d="M23.0600 60.5945
L23.0600 62.0170
" />
</g>
<g style="fill:none; 
stroke:#F2EDA1; stroke-width:0.2000; stroke-opacity:1; 
stroke-linecap:round; stroke-linejoin:round;">
<path d="M8.5900 63.0507
L8.5900 70.7007
" />
<path d="M8.5900 70.7007
L11.2400 70.7007
" />
<path d="M11.2400 60.4007
L8.5900 63.0507
" />
</g>
<g style="fill:none; 
stroke:#F2EDA1; stroke-width:0.1200; stroke-opacity:1; 
stroke-linecap:round; stroke-linejoin:round;">
<path d="M12.3800 64.8595
L12.3800 66.2820
" />
</g>
<g style="fill:#F2EDA1; fill-opacity:1.0000; stroke:none;">
<circle cx="13.7400" cy="58.5757" r="0.0250" /> 
<circle cx="13.7400" cy="58.6257" r="0.0250" /> 
</g>
<g style="fill:none; 
stroke:#F2EDA1; stroke-width:0.1200; stroke-opacity:1; 
stroke-linecap:round; stroke-linejoin:round;">
<path d="M15.1000 64.8595
L15.1000 66.2820
" />
</g>
<g style="fill:none; 
stroke:#F2EDA1; stroke-width:0.2000; stroke-opacity:1; 
stroke-linecap:round; stroke-linejoin:round;">
<path d="M16.2400 60.4007
L18.8900 63.0507
" />
<path d="M18.8900 63.0507
L18.8900 70.7007
" />
<path d="M18.8900 70.7007
L16.2400 70.7007
" />
</g>
<g style="fill:none; 
stroke:#F2EDA1; stroke-width:0.0500; stroke-opacity:1; 
stroke-linecap:round; stroke-linejoin:round;">
<path d="M13.7400 58.6257 A0.0250 0.0250 0.0 0 0 13.7400 58.5757" />
<path d="M13.7400 58.5757 A0.0250 0.0250 0.0 0 0 13.7400 58.6257" />
</g>
<g style="fill:none; 
stroke:#F2EDA1; stroke-width:0.1200; stroke-opacity:1; 
stroke-linecap:round; stroke-linejoin:round;">
<path d="M24.1278 38.5482
L23.9122 38.5482
" />
<path d="M24.1278 39.2682
L23.9122 39.2682
" />
<path d="M20.2212 29.4232
L20.7438 29.4232
" />
<path d="M20.2212 30.8932
L20.7438 30.8932
" />
<path d="M7.2850 44.1270
L7.2850 44.6495
" />
<path d="M8.7550 44.1270
L8.7550 44.6495
" />
<path d="M4.9100 44.4470
L4.9100 45.8695
" />
<path d="M6.7300 44.4470
L6.7300 45.8695
" />
<path d="M18.8438 24.1732
L18.3212 24.1732
" />
<path d="M18.8438 25.6432
L18.3212 25.6432
" />
<path d="M48.8850 22.9070
L48.8850 22.3845
" />
<path d="M50.3550 22.9070
L50.3550 22.3845
" />
<path d="M8.8249 35.5782
L9.1601 35.5782
" />
<path d="M8.8249 36.3382
L9.1601 36.3382
" />
<path d="M26.8850 24.6853
L26.8850 24.2312
" />
<path d="M28.3550 24.6853
L28.3550 24.2312
" />
<path d="M18.1929 33.4232
L18.6471 33.4232
" />
<path d="M18.1929 34.8933
L18.6471 34.8933
" />
<path d="M53.3588 56.7032
L52.8362 56.7032
" />
<path d="M53.3588 58.1732
L52.8362 58.1732
" />
<path d="M12.2829 26.3932
L12.7371 26.3932
" />
<path d="M12.2829 27.8632
L12.7371 27.8632
" />
<path d="M50.3372 19.3607
L49.8278 19.3607
" />
<path d="M50.3372 20.4057
L49.8278 20.4057
" />
<path d="M35.2700 24.8982
L36.5200 24.8982
" />
<path d="M35.8950 24.2732
L35.8950 25.5232
" />
<path d="M36.7600 23.3627
L36.7600 26.1482
" />
<path d="M36.7600 23.3627
L37.8244 22.2982
" />
<path d="M36.7600 31.9538
L36.7600 29.1683
" />
<path d="M36.7600 31.9538
L37.8244 33.0183
" />
<path d="M37.8244 22.2982
L47.4800 22.2982
" />
<path d="M37.8244 33.0183
L47.4800 33.0183
" />
<path d="M47.4800 22.2982
L47.4800 26.1482
" />
<path d="M47.4800 33.0183
L47.4800 29.1683
" />
<path d="M14.7778 50.4357
L15.2872 50.4357
" />
<path d="M14.7778 51.4808
L15.2872 51.4808
" />
<path d="M32.8100 27.2670
L32.8100 26.9745
" />
<path d="M33.8300 27.2670
L33.8300 26.9745
" />
<path d="M23.6400 60.5970
L23.6400 62.0195
" />
<path d="M26.3600 60.5970
L26.3600 62.0195
" />
<path d="M18.8688 26.1982
L17.4462 26.1982
" />
<path d="M18.8688 28.9183
L17.4462 28.9183
" />
<path d="M24.2600 29.1820
L24.2600 27.7595
" />
<path d="M26.0800 29.1820
L26.0800 27.7595
" />
<path d="M14.6929 56.9532
L15.1471 56.9532
" />
<path d="M14.6929 58.4232
L15.1471 58.4232
" />
<path d="M37.6387 45.9183
L39.0613 45.9183
" />
<path d="M37.6387 48.6382
L39.0613 48.6382
" />
<path d="M29.5100 30.9320
L29.5100 29.5095
" />
<path d="M31.3300 30.9320
L31.3300 29.5095
" />
</g>
<g style="fill:none; 
stroke:#F2EDA1; stroke-width:0.1000; stroke-opacity:1; 
stroke-linecap:round; stroke-linejoin:round;">
<path d="M20.3700 50.6782
L26.5700 50.6782
" />
<path d="M26.5700 56.5782
L20.3700 56.5782
" />
</g>
<g style="fill:none; 
stroke:#F2EDA1; stroke-width:0.1200; stroke-opacity:1; 
stroke-linecap:round; stroke-linejoin:round;">
<path d="M17.4173 48.3723
L16.8947 48.3723
" />
<path d="M17.4173 49.8422
L16.8947 49.8422
" />
<path d="M7.6000 39.3270
L7.6000 39.0345
" />
<path d="M8.6200 39.3270
L8.6200 39.0345
" />
</g>
<g style="fill:none; 
stroke:#F2EDA1; stroke-width:0.1000; stroke-opacity:1; 
stroke-linecap:round; stroke-linejoin:round;">
<path d="M4.7200 73.4382
L28.7200 73.4382
" />
<path d="M4.7200 84.1683
L4.7200 73.4382
" />
<path d="M28.7200 73.4382
L28.7200 84.1683
" />
<path d="M28.7200 84.1683
L4.7200 84.1683
" />
</g>
<g style="fill:none; 
stroke:#F2EDA1; stroke-width:0.1200; stroke-opacity:1; 
stroke-linecap:round; stroke-linejoin:round;">
<path d="M10.6850 23.1070
L10.6850 22.5845
" />
<path d="M12.1550 23.1070
L12.1550 22.5845
" />
</g>
<g style="fill:#F2EDA1; fill-opacity:1.0000; stroke:none;">
<circle cx="30.4800" cy="78.4982" r="0.0500" /> 
<circle cx="30.5800" cy="78.4982" r="0.0500" /> 
</g>
<g style="fill:none; 
stroke:#F2EDA1; stroke-width:0.2000; stroke-opacity:1; 
stroke-linecap:round; stroke-linejoin:round;">
<path d="M31.0300 73.4483
L52.4300 73.4483
" />
<path d="M31.0300 84.1482
L31.0300 73.4483
" />
<path d="M52.4300 73.4483
L52.4300 84.1482
" />
<path d="M52.4300 73.5982
L55.0300 73.5982
" />
<path d="M52.4300 84.1482
L31.0300 84.1482
" />
<path d="M55.0300 73.5982
L55.0300 83.2982
" />
<path d="M55.0300 83.2982
L52.4300 83.2982
" />
</g>
<g style="fill:none; 
stroke:#F2EDA1; stroke-width:0.1000; stroke-opacity:1; 
stroke-linecap:round; stroke-linejoin:round;">
<path d="M30.5800 78.4982 A0.0500 0.0500 0.0 0 0 30.4800 78.4982" />
<path d="M30.4800 78.4982 A0.0500 0.0500 0.0 0 0 30.5800 78.4982" />
</g>
<g style="fill:none; 
stroke:#F2EDA1; stroke-width:0.1200; stroke-opacity:1; 
stroke-linecap:round; stroke-linejoin:round;">
<path d="M5.5850 38.9720
L5.5850 39.4945
" />
<path d="M7.0550 38.9720
L7.0550 39.4945
" />
<path d="M19.1367 37.3982
L19.3683 37.3982
" />
<path d="M19.1367 38.1182
L19.3683 38.1182
" />
<path d="M23.1600 49.6182
L23.1600 44.5583
" />
<path d="M23.1600 49.6182
L25.8800 49.6182
" />
<path d="M25.8800 49.6182
L25.8800 44.5583
" />
<path d="M18.1929 31.4232
L18.6471 31.4232
" />
<path d="M18.1929 32.8933
L18.6471 32.8933
" />
<path d="M11.2800 40.9982
L11.2800 37.3382
" />
<path d="M11.2800 40.9982
L13.1800 40.9982
" />
<path d="M13.1800 40.9982
L13.1800 37.3382
" />
</g>
<g style="fill:none; 
stroke:#F2EDA1; stroke-width:0.1000; stroke-opacity:1; 
stroke-linecap:round; stroke-linejoin:round;">
<path d="M31.1700 7.3432
L55.1700 7.3432
" />
<path d="M31.1700 18.0732
L31.1700 7.3432
" />
<path d="M55.1700 7.3432
L55.1700 18.0732
" />
<path d="M55.1700 18.0732
L31.1700 18.0732
" />
</g>
<g style="fill:none; 
stroke:#F2EDA1; stroke-width:0.1200; stroke-opacity:1; 
stroke-linecap:round; stroke-linejoin:round;">
<path d="M28.1050 67.1812
L28.1050 67.6353
" />
<path d="M29.5750 67.1812
L29.5750 67.6353
" />
<path d="M11.2400 48.1234
L11.2400 47.7881
" />
<path d="M12.0000 48.1234
L12.0000 47.7881
" />
</g>
<g style="fill:none; 
stroke:#F2EDA1; stroke-width:0.2000; stroke-opacity:1; 
stroke-linecap:round; stroke-linejoin:round;">
<path d="M11.3080 41.5132
L14.5080 41.5132
" />
<path d="M11.3080 46.4132
L11.3080 41.5132
" />
<path d="M14.5080 41.5132
L14.5080 46.4132
" />
<path d="M14.5080 46.4132
L11.3080 46.4132
" />
<path d="M16.3830 46.5682
L14.8580 46.5682
" />
</g>
<g style="fill:none; 
stroke:#F2EDA1; stroke-width:0.1200; stroke-opacity:1; 
stroke-linecap:round; stroke-linejoin:round;">
<path d="M38.7287 43.9532
L39.2513 43.9532
" />
<path d="M38.7287 45.4232
L39.2513 45.4232
" />
<path d="M30.2000 59.9970
L30.2000 61.4195
" />
<path d="M32.9200 59.9970
L32.9200 61.4195
" />
<path d="M21.0600 22.4482
L21.0600 27.5083
" />
<path d="M23.7800 22.4482
L21.0600 22.4482
" />
<path d="M23.7800 22.4482
L23.7800 27.5083
" />
<path d="M18.1929 35.4232
L18.6471 35.4232
" />
<path d="M18.1929 36.8933
L18.6471 36.8933
" />
<path d="M38.7287 41.9132
L39.2513 41.9132
" />
<path d="M38.7287 43.3832
L39.2513 43.3832
" />
<path d="M18.8188 22.1732
L18.2962 22.1732
" />
<path d="M18.8188 23.6432
L18.2962 23.6432
" />
<path d="M26.9300 59.9770
L26.9300 61.3995
" />
<path d="M29.6500 59.9770
L29.6500 61.3995
" />
<path d="M26.3200 39.9832
L26.3200 37.1332
" />
<path d="M33.6200 33.0082
L29.3200 33.0082
" />
<path d="M33.6200 44.8083
L29.3200 44.8083
" />
<path d="M36.8200 39.7582
L36.8200 36.8582
" />
<path d="M26.4600 48.4320
L26.4600 47.0095
" />
<path d="M29.1800 48.4320
L29.1800 47.0095
" />
<path d="M12.5825 28.2982
L11.9325 28.2982
" />
<path d="M12.5825 28.2982
L13.2325 28.2982
" />
<path d="M12.5825 31.4182
L11.9325 31.4182
" />
<path d="M12.5825 31.4182
L13.2325 31.4182
" />
<path style="fill:#F2EDA1; fill-opacity:1.0000; 
stroke:#F2EDA1; stroke-width:0.1200; stroke-opacity:1; 
stroke-linecap:round; stroke-linejoin:round;fill-rule:evenodd;"
d="M 11.4200,28.3483
11.1800,28.0182
11.6600,28.0182
Z" /> 
</g>
<g style="fill:none; 
stroke:#F2EDA1; stroke-width:0.1200; stroke-opacity:1; 
stroke-linecap:round; stroke-linejoin:round;">
<path d="M4.3225 63.8630
L4.3225 63.3535
" />
<path d="M5.3675 63.8630
L5.3675 63.3535
" />
<path d="M30.8850 24.6853
L30.8850 24.2312
" />
<path d="M32.3550 24.6853
L32.3550 24.2312
" />
<path d="M18.3929 20.1732
L18.8471 20.1732
" />
<path d="M18.3929 21.6432
L18.8471 21.6432
" />
<path d="M19.3300 44.8853
L19.3300 40.5312
" />
<path d="M22.7500 44.8853
L22.7500 40.5312
" />
<path d="M51.4172 38.9742
L51.9398 38.9742
" />
<path d="M51.4172 40.4442
L51.9398 40.4442
" />
</g>
<g style="fill:none; 
stroke:#F2EDA1; stroke-width:0.1000; stroke-opacity:1; 
stroke-linecap:round; stroke-linejoin:round;">
<path d="M21.1400 64.0782
L27.3400 64.0782
" />
<path d="M27.3400 69.9783
L21.1400 69.9783
" />
<path style="fill:none; 
stroke:#D0D2CD; stroke-width:0.0500; stroke-opacity:1; 
stroke-linecap:round; stroke-linejoin:round;fill:none"
d="M 0.0500,6.2582
58.9200,6.2582
58.9200,85.4582
0.0500,85.4582
Z" /> 
</g> 
</svg>
