<?xml version="1.0" standalone="no"?>
 <!DOCTYPE svg PUBLIC "-//W3C//DTD SVG 1.1//EN" 
 "http://www.w3.org/Graphics/SVG/1.1/DTD/svg11.dtd"> 
<svg
  xmlns:svg="http://www.w3.org/2000/svg"
  xmlns="http://www.w3.org/2000/svg"
  xmlns:xlink="http://www.w3.org/1999/xlink"
  version="1.1"
  width="68.1482mm" height="85.4964mm" viewBox="0.0000 0.0000 68.1482 85.4964">
<title>SVG Image created as SEPIC-B-F_Paste.svg date 2024/09/19 10:24:19 </title>
  <desc>Image generated by PCBNEW </desc>
<g style="fill:#000000; fill-opacity:1.0000;stroke:#000000; stroke-opacity:1.0000;
stroke-linecap:round; stroke-linejoin:round;"
 transform="translate(0 0) scale(1 1)">
<path style="fill:#B4A09A; fill-opacity:0.9000; stroke:none;fill-rule:evenodd;"
d="M 26.8900,71.4483
26.8710,71.5439
26.8168,71.6250
26.7357,71.6792
26.6400,71.6983
25.9400,71.6983
25.8443,71.6792
25.7632,71.6250
25.7090,71.5439
25.6900,71.4483
25.6900,70.5482
25.7090,70.4526
25.7632,70.3715
25.8443,70.3173
25.9400,70.2982
26.6400,70.2982
26.7357,70.3173
26.8168,70.3715
26.8710,70.4526
26.8900,70.5482
Z" /> 
<path style="fill:#B4A09A; fill-opacity:0.9000; stroke:none;fill-rule:evenodd;"
d="M 24.8900,71.4483
24.8710,71.5439
24.8168,71.6250
24.7357,71.6792
24.6400,71.6983
23.9400,71.6983
23.8443,71.6792
23.7632,71.6250
23.7090,71.5439
23.6900,71.4483
23.6900,70.5482
23.7090,70.4526
23.7632,70.3715
23.8443,70.3173
23.9400,70.2982
24.6400,70.2982
24.7357,70.3173
24.8168,70.3715
24.8710,70.4526
24.8900,70.5482
Z" /> 
<path style="fill:#B4A09A; fill-opacity:0.9000; stroke:none;fill-rule:evenodd;"
d="M 13.6500,39.6683
13.6690,39.5726
13.7232,39.4915
13.8043,39.4373
13.9000,39.4183
14.6000,39.4183
14.6957,39.4373
14.7768,39.4915
14.8310,39.5726
14.8500,39.6683
14.8500,40.5682
14.8310,40.6639
14.7768,40.7450
14.6957,40.7992
14.6000,40.8182
13.9000,40.8182
13.8043,40.7992
13.7232,40.7450
13.6690,40.6639
13.6500,40.5682
Z" /> 
<path style="fill:#B4A09A; fill-opacity:0.9000; stroke:none;fill-rule:evenodd;"
d="M 15.6500,39.6683
15.6690,39.5726
15.7232,39.4915
15.8043,39.4373
15.9000,39.4183
16.6000,39.4183
16.6957,39.4373
16.7768,39.4915
16.8310,39.5726
16.8500,39.6683
16.8500,40.5682
16.8310,40.6639
16.7768,40.7450
16.6957,40.7992
16.6000,40.8182
15.9000,40.8182
15.8043,40.7992
15.7232,40.7450
15.6690,40.6639
15.6500,40.5682
Z" /> 
<path style="fill:#B4A09A; fill-opacity:0.9000; stroke:none;fill-rule:evenodd;"
d="M 50.4100,65.8582
50.5057,65.8773
50.5868,65.9315
50.6410,66.0126
50.6600,66.1082
50.6600,66.8083
50.6410,66.9039
50.5868,66.9850
50.5057,67.0392
50.4100,67.0583
49.5100,67.0583
49.4143,67.0392
49.3332,66.9850
49.2790,66.9039
49.2600,66.8083
49.2600,66.1082
49.2790,66.0126
49.3332,65.9315
49.4143,65.8773
49.5100,65.8582
Z" /> 
<path style="fill:#B4A09A; fill-opacity:0.9000; stroke:none;fill-rule:evenodd;"
d="M 50.4100,67.8582
50.5057,67.8773
50.5868,67.9315
50.6410,68.0126
50.6600,68.1082
50.6600,68.8083
50.6410,68.9039
50.5868,68.9850
50.5057,69.0392
50.4100,69.0583
49.5100,69.0583
49.4143,69.0392
49.3332,68.9850
49.2790,68.9039
49.2600,68.8083
49.2600,68.1082
49.2790,68.0126
49.3332,67.9315
49.4143,67.8773
49.5100,67.8582
Z" /> 
<path style="fill:#B4A09A; fill-opacity:0.9000; stroke:none;fill-rule:evenodd;"
d="M 27.2700,32.4457
27.1743,32.4267
27.0932,32.3725
27.0390,32.2914
27.0200,32.1957
27.0200,31.3707
27.0390,31.2751
27.0932,31.1940
27.1743,31.1398
27.2700,31.1207
28.5700,31.1207
28.6657,31.1398
28.7468,31.1940
28.8010,31.2751
28.8200,31.3707
28.8200,32.1957
28.8010,32.2914
28.7468,32.3725
28.6657,32.4267
28.5700,32.4457
Z" /> 
<path style="fill:#B4A09A; fill-opacity:0.9000; stroke:none;fill-rule:evenodd;"
d="M 27.2700,29.3208
27.1743,29.3017
27.0932,29.2475
27.0390,29.1664
27.0200,29.0708
27.0200,28.2457
27.0390,28.1501
27.0932,28.0690
27.1743,28.0148
27.2700,27.9957
28.5700,27.9957
28.6657,28.0148
28.7468,28.0690
28.8010,28.1501
28.8200,28.2457
28.8200,29.0708
28.8010,29.1664
28.7468,29.2475
28.6657,29.3017
28.5700,29.3208
Z" /> 
<path style="fill:#B4A09A; fill-opacity:0.9000; stroke:none;fill-rule:evenodd;"
d="M 13.6500,37.6983
13.6690,37.6026
13.7232,37.5215
13.8043,37.4673
13.9000,37.4483
14.6000,37.4483
14.6957,37.4673
14.7768,37.5215
14.8310,37.6026
14.8500,37.6983
14.8500,38.5983
14.8310,38.6939
14.7768,38.7750
14.6957,38.8292
14.6000,38.8483
13.9000,38.8483
13.8043,38.8292
13.7232,38.7750
13.6690,38.6939
13.6500,38.5983
Z" /> 
<path style="fill:#B4A09A; fill-opacity:0.9000; stroke:none;fill-rule:evenodd;"
d="M 15.6500,37.6983
15.6690,37.6026
15.7232,37.5215
15.8043,37.4673
15.9000,37.4483
16.6000,37.4483
16.6957,37.4673
16.7768,37.5215
16.8310,37.6026
16.8500,37.6983
16.8500,38.5983
16.8310,38.6939
16.7768,38.7750
16.6957,38.8292
16.6000,38.8483
15.9000,38.8483
15.8043,38.8292
15.7232,38.7750
15.6690,38.6939
15.6500,38.5983
Z" /> 
<path style="fill:#B4A09A; fill-opacity:0.9000; stroke:none;fill-rule:evenodd;"
d="M 7.3450,34.2458
7.3631,34.1549
7.4146,34.0778
7.4916,34.0263
7.5825,34.0082
8.1825,34.0082
8.2734,34.0263
8.3504,34.0778
8.4019,34.1549
8.4200,34.2458
8.4200,34.7207
8.4019,34.8116
8.3504,34.8887
8.2734,34.9402
8.1825,34.9582
7.5825,34.9582
7.4916,34.9402
7.4146,34.8887
7.3631,34.8116
7.3450,34.7207
Z" /> 
<path style="fill:#B4A09A; fill-opacity:0.9000; stroke:none;fill-rule:evenodd;"
d="M 9.0700,34.2458
9.0881,34.1549
9.1396,34.0778
9.2166,34.0263
9.3075,34.0082
9.9075,34.0082
9.9984,34.0263
10.0754,34.0778
10.1269,34.1549
10.1450,34.2458
10.1450,34.7207
10.1269,34.8116
10.0754,34.8887
9.9984,34.9402
9.9075,34.9582
9.3075,34.9582
9.2166,34.9402
9.1396,34.8887
9.0881,34.8116
9.0700,34.7207
Z" /> 
<path style="fill:#B4A09A; fill-opacity:0.9000; stroke:none;fill-rule:evenodd;"
d="M 29.1700,26.0582
29.0743,26.0392
28.9932,25.9850
28.9390,25.9039
28.9200,25.8082
28.9200,25.1082
28.9390,25.0126
28.9932,24.9315
29.0743,24.8773
29.1700,24.8582
30.0700,24.8582
30.1657,24.8773
30.2468,24.9315
30.3010,25.0126
30.3200,25.1082
30.3200,25.8082
30.3010,25.9039
30.2468,25.9850
30.1657,26.0392
30.0700,26.0582
Z" /> 
<path style="fill:#B4A09A; fill-opacity:0.9000; stroke:none;fill-rule:evenodd;"
d="M 29.1700,24.0582
29.0743,24.0392
28.9932,23.9850
28.9390,23.9039
28.9200,23.8082
28.9200,23.1082
28.9390,23.0126
28.9932,22.9315
29.0743,22.8773
29.1700,22.8582
30.0700,22.8582
30.1657,22.8773
30.2468,22.9315
30.3010,23.0126
30.3200,23.1082
30.3200,23.8082
30.3010,23.9039
30.2468,23.9850
30.1657,24.0392
30.0700,24.0582
Z" /> 
<path style="fill:#B4A09A; fill-opacity:0.9000; stroke:none;fill-rule:evenodd;"
d="M 9.0950,19.8957
9.1131,19.8049
9.1646,19.7278
9.2416,19.6763
9.3325,19.6582
9.8325,19.6582
9.9234,19.6763
10.0004,19.7278
10.0519,19.8049
10.0700,19.8957
10.0700,20.3707
10.0519,20.4616
10.0004,20.5387
9.9234,20.5902
9.8325,20.6082
9.3325,20.6082
9.2416,20.5902
9.1646,20.5387
9.1131,20.4616
9.0950,20.3707
Z" /> 
<path style="fill:#B4A09A; fill-opacity:0.9000; stroke:none;fill-rule:evenodd;"
d="M 10.9200,19.8957
10.9381,19.8049
10.9896,19.7278
11.0666,19.6763
11.1575,19.6582
11.6575,19.6582
11.7484,19.6763
11.8254,19.7278
11.8769,19.8049
11.8950,19.8957
11.8950,20.3707
11.8769,20.4616
11.8254,20.5387
11.7484,20.5902
11.6575,20.6082
11.1575,20.6082
11.0666,20.5902
10.9896,20.5387
10.9381,20.4616
10.9200,20.3707
Z" /> 
<path style="fill:#B4A09A; fill-opacity:0.9000; stroke:none;fill-rule:evenodd;"
d="M 33.2075,46.6332
33.1885,46.7289
33.1343,46.8100
33.0532,46.8642
32.9575,46.8832
32.2825,46.8832
32.1868,46.8642
32.1057,46.8100
32.0515,46.7289
32.0325,46.6332
32.0325,45.6833
32.0515,45.5876
32.1057,45.5065
32.1868,45.4523
32.2825,45.4333
32.9575,45.4333
33.0532,45.4523
33.1343,45.5065
33.1885,45.5876
33.2075,45.6833
Z" /> 
<path style="fill:#B4A09A; fill-opacity:0.9000; stroke:none;fill-rule:evenodd;"
d="M 31.1325,46.6332
31.1135,46.7289
31.0593,46.8100
30.9782,46.8642
30.8825,46.8832
30.2075,46.8832
30.1118,46.8642
30.0307,46.8100
29.9765,46.7289
29.9575,46.6332
29.9575,45.6833
29.9765,45.5876
30.0307,45.5065
30.1118,45.4523
30.2075,45.4333
30.8825,45.4333
30.9782,45.4523
31.0593,45.5065
31.1135,45.5876
31.1325,45.6833
Z" /> 
<path style="fill:#B4A09A; fill-opacity:0.9000; stroke:none;fill-rule:evenodd;"
d="M 7.1450,60.2082
7.2407,60.2273
7.3218,60.2815
7.3760,60.3626
7.3950,60.4582
7.3950,61.1332
7.3760,61.2289
7.3218,61.3100
7.2407,61.3642
7.1450,61.3832
6.1950,61.3832
6.0993,61.3642
6.0182,61.3100
5.9640,61.2289
5.9450,61.1332
5.9450,60.4582
5.9640,60.3626
6.0182,60.2815
6.0993,60.2273
6.1950,60.2082
Z" /> 
<path style="fill:#B4A09A; fill-opacity:0.9000; stroke:none;fill-rule:evenodd;"
d="M 7.1450,62.2832
7.2407,62.3023
7.3218,62.3565
7.3760,62.4376
7.3950,62.5332
7.3950,63.2082
7.3760,63.3039
7.3218,63.3850
7.2407,63.4392
7.1450,63.4582
6.1950,63.4582
6.0993,63.4392
6.0182,63.3850
5.9640,63.3039
5.9450,63.2082
5.9450,62.5332
5.9640,62.4376
6.0182,62.3565
6.0993,62.3023
6.1950,62.2832
Z" /> 
<path style="fill:#B4A09A; fill-opacity:0.9000; stroke:none;fill-rule:evenodd;"
d="M 20.9150,38.2082
20.9150,37.0583
21.6150,37.0583
21.6150,38.2082
Z" /> 
<path style="fill:#B4A09A; fill-opacity:0.9000; stroke:none;fill-rule:evenodd;"
d="M 22.1850,38.2082
22.1850,37.0583
22.8850,37.0583
22.8850,38.2082
Z" /> 
<path style="fill:#B4A09A; fill-opacity:0.9000; stroke:none;fill-rule:evenodd;"
d="M 23.4550,38.2082
23.4550,37.0583
24.1550,37.0583
24.1550,38.2082
Z" /> 
<path style="fill:#B4A09A; fill-opacity:0.9000; stroke:none;fill-rule:evenodd;"
d="M 24.7250,38.2082
24.7250,37.0583
25.4250,37.0583
25.4250,38.2082
Z" /> 
<path style="fill:#B4A09A; fill-opacity:0.9000; stroke:none;fill-rule:evenodd;"
d="M 25.2700,36.0082
21.0700,36.0082
21.0700,32.9082
25.2700,32.9082
Z" /> 
<path style="fill:#B4A09A; fill-opacity:0.9000; stroke:none;fill-rule:evenodd;"
d="M 25.5200,32.9082
20.8200,32.9082
20.8200,31.4082
25.5200,31.4082
Z" /> 
<path style="fill:#B4A09A; fill-opacity:0.9000; stroke:none;fill-rule:evenodd;"
d="M 16.9950,44.8407
16.9357,44.8290
16.8854,44.7954
16.8518,44.7451
16.8400,44.6857
16.8400,44.2607
16.8518,44.2014
16.8854,44.1511
16.9357,44.1175
16.9950,44.1058
17.3050,44.1058
17.3643,44.1175
17.4146,44.1511
17.4482,44.2014
17.4600,44.2607
17.4600,44.6857
17.4482,44.7451
17.4146,44.7954
17.3643,44.8290
17.3050,44.8407
Z" /> 
<path style="fill:#B4A09A; fill-opacity:0.9000; stroke:none;fill-rule:evenodd;"
d="M 16.9950,43.7057
16.9357,43.6940
16.8854,43.6604
16.8518,43.6101
16.8400,43.5508
16.8400,43.1257
16.8518,43.0664
16.8854,43.0161
16.9357,42.9825
16.9950,42.9707
17.3050,42.9707
17.3643,42.9825
17.4146,43.0161
17.4482,43.0664
17.4600,43.1257
17.4600,43.5508
17.4482,43.6101
17.4146,43.6604
17.3643,43.6940
17.3050,43.7057
Z" /> 
<path style="fill:#B4A09A; fill-opacity:0.9000; stroke:none;fill-rule:evenodd;"
d="M 25.7100,39.5907
25.7712,39.6029
25.8231,39.6376
25.8578,39.6895
25.8700,39.7507
25.8700,40.1457
25.8578,40.2070
25.8231,40.2589
25.7712,40.2936
25.7100,40.3057
25.3900,40.3057
25.3288,40.2936
25.2769,40.2589
25.2422,40.2070
25.2300,40.1457
25.2300,39.7507
25.2422,39.6895
25.2769,39.6376
25.3288,39.6029
25.3900,39.5907
Z" /> 
<path style="fill:#B4A09A; fill-opacity:0.9000; stroke:none;fill-rule:evenodd;"
d="M 25.7100,40.7858
25.7712,40.7979
25.8231,40.8326
25.8578,40.8845
25.8700,40.9457
25.8700,41.3407
25.8578,41.4020
25.8231,41.4539
25.7712,41.4886
25.7100,41.5007
25.3900,41.5007
25.3288,41.4886
25.2769,41.4539
25.2422,41.4020
25.2300,41.3407
25.2300,40.9457
25.2422,40.8845
25.2769,40.8326
25.3288,40.7979
25.3900,40.7858
Z" /> 
<path style="fill:#B4A09A; fill-opacity:0.9000; stroke:none;fill-rule:evenodd;"
d="M 14.2750,46.9907
14.3343,47.0025
14.3846,47.0361
14.4182,47.0864
14.4300,47.1457
14.4300,47.5707
14.4182,47.6301
14.3846,47.6804
14.3343,47.7140
14.2750,47.7257
13.9650,47.7257
13.9057,47.7140
13.8554,47.6804
13.8218,47.6301
13.8100,47.5707
13.8100,47.1457
13.8218,47.0864
13.8554,47.0361
13.9057,47.0025
13.9650,46.9907
Z" /> 
<path style="fill:#B4A09A; fill-opacity:0.9000; stroke:none;fill-rule:evenodd;"
d="M 14.2750,48.1257
14.3343,48.1375
14.3846,48.1711
14.4182,48.2214
14.4300,48.2807
14.4300,48.7057
14.4182,48.7651
14.3846,48.8154
14.3343,48.8490
14.2750,48.8607
13.9650,48.8607
13.9057,48.8490
13.8554,48.8154
13.8218,48.7651
13.8100,48.7057
13.8100,48.2807
13.8218,48.2214
13.8554,48.1711
13.9057,48.1375
13.9650,48.1257
Z" /> 
<path style="fill:#B4A09A; fill-opacity:0.9000; stroke:none;fill-rule:evenodd;"
d="M 10.9200,32.2082
10.9390,32.1126
10.9932,32.0315
11.0743,31.9773
11.1700,31.9582
11.8700,31.9582
11.9657,31.9773
12.0468,32.0315
12.1010,32.1126
12.1200,32.2082
12.1200,33.1082
12.1010,33.2039
12.0468,33.2850
11.9657,33.3392
11.8700,33.3582
11.1700,33.3582
11.0743,33.3392
10.9932,33.2850
10.9390,33.2039
10.9200,33.1082
Z" /> 
<path style="fill:#B4A09A; fill-opacity:0.9000; stroke:none;fill-rule:evenodd;"
d="M 12.9200,32.2082
12.9390,32.1126
12.9932,32.0315
13.0743,31.9773
13.1700,31.9582
13.8700,31.9582
13.9657,31.9773
14.0468,32.0315
14.1010,32.1126
14.1200,32.2082
14.1200,33.1082
14.1010,33.2039
14.0468,33.2850
13.9657,33.3392
13.8700,33.3582
13.1700,33.3582
13.0743,33.3392
12.9932,33.2850
12.9390,33.2039
12.9200,33.1082
Z" /> 
<path style="fill:#B4A09A; fill-opacity:0.9000; stroke:none;fill-rule:evenodd;"
d="M 38.4700,37.1582
38.5657,37.1773
38.6468,37.2315
38.7010,37.3126
38.7200,37.4082
38.7200,38.1082
38.7010,38.2039
38.6468,38.2850
38.5657,38.3392
38.4700,38.3582
37.5700,38.3582
37.4743,38.3392
37.3932,38.2850
37.3390,38.2039
37.3200,38.1082
37.3200,37.4082
37.3390,37.3126
37.3932,37.2315
37.4743,37.1773
37.5700,37.1582
Z" /> 
<path style="fill:#B4A09A; fill-opacity:0.9000; stroke:none;fill-rule:evenodd;"
d="M 38.4700,39.1582
38.5657,39.1773
38.6468,39.2315
38.7010,39.3126
38.7200,39.4082
38.7200,40.1082
38.7010,40.2039
38.6468,40.2850
38.5657,40.3392
38.4700,40.3582
37.5700,40.3582
37.4743,40.3392
37.3932,40.2850
37.3390,40.2039
37.3200,40.1082
37.3200,39.4082
37.3390,39.3126
37.3932,39.2315
37.4743,39.1773
37.5700,39.1582
Z" /> 
<path style="fill:#B4A09A; fill-opacity:0.9000; stroke:none;fill-rule:evenodd;"
d="M 35.8700,70.9082
31.8700,70.9082
31.8700,68.9082
35.8700,68.9082
Z" /> 
<path style="fill:#B4A09A; fill-opacity:0.9000; stroke:none;fill-rule:evenodd;"
d="M 35.8700,66.4082
31.8700,66.4082
31.8700,64.4082
35.8700,64.4082
Z" /> 
<path style="fill:#B4A09A; fill-opacity:0.9000; stroke:none;fill-rule:evenodd;"
d="M 47.8700,66.4082
43.8700,66.4082
43.8700,64.4082
47.8700,64.4082
Z" /> 
<path style="fill:#B4A09A; fill-opacity:0.9000; stroke:none;fill-rule:evenodd;"
d="M 47.8700,70.9082
43.8700,70.9082
43.8700,68.9082
47.8700,68.9082
Z" /> 
<path style="fill:#B4A09A; fill-opacity:0.9000; stroke:none;fill-rule:evenodd;"
d="M 54.6850,55.7132
54.6660,55.8089
54.6118,55.8900
54.5307,55.9442
54.4350,55.9632
53.7600,55.9632
53.6643,55.9442
53.5832,55.8900
53.5290,55.8089
53.5100,55.7132
53.5100,54.7632
53.5290,54.6676
53.5832,54.5865
53.6643,54.5323
53.7600,54.5132
54.4350,54.5132
54.5307,54.5323
54.6118,54.5865
54.6660,54.6676
54.6850,54.7632
Z" /> 
<path style="fill:#B4A09A; fill-opacity:0.9000; stroke:none;fill-rule:evenodd;"
d="M 52.6100,55.7132
52.5910,55.8089
52.5368,55.8900
52.4557,55.9442
52.3600,55.9632
51.6850,55.9632
51.5893,55.9442
51.5082,55.8900
51.4540,55.8089
51.4350,55.7132
51.4350,54.7632
51.4540,54.6676
51.5082,54.5865
51.5893,54.5323
51.6850,54.5132
52.3600,54.5132
52.4557,54.5323
52.5368,54.5865
52.5910,54.6676
52.6100,54.7632
Z" /> 
<path style="fill:#B4A09A; fill-opacity:0.9000; stroke:none;fill-rule:evenodd;"
d="M 36.1325,49.5583
36.1515,49.4626
36.2057,49.3815
36.2868,49.3273
36.3825,49.3083
37.2075,49.3083
37.3032,49.3273
37.3843,49.3815
37.4385,49.4626
37.4575,49.5583
37.4575,51.7582
37.4385,51.8539
37.3843,51.9350
37.3032,51.9892
37.2075,52.0082
36.3825,52.0082
36.2868,51.9892
36.2057,51.9350
36.1515,51.8539
36.1325,51.7582
Z" /> 
<path style="fill:#B4A09A; fill-opacity:0.9000; stroke:none;fill-rule:evenodd;"
d="M 39.2575,49.5583
39.2765,49.4626
39.3307,49.3815
39.4118,49.3273
39.5075,49.3083
40.3325,49.3083
40.4282,49.3273
40.5093,49.3815
40.5635,49.4626
40.5825,49.5583
40.5825,51.7582
40.5635,51.8539
40.5093,51.9350
40.4282,51.9892
40.3325,52.0082
39.5075,52.0082
39.4118,51.9892
39.3307,51.9350
39.2765,51.8539
39.2575,51.7582
Z" /> 
<path style="fill:#B4A09A; fill-opacity:0.9000; stroke:none;fill-rule:evenodd;"
d="M 21.3300,57.2582
21.3490,57.1626
21.4032,57.0815
21.4843,57.0273
21.5800,57.0082
22.2800,57.0082
22.3757,57.0273
22.4568,57.0815
22.5110,57.1626
22.5300,57.2582
22.5300,58.1582
22.5110,58.2539
22.4568,58.3350
22.3757,58.3892
22.2800,58.4082
21.5800,58.4082
21.4843,58.3892
21.4032,58.3350
21.3490,58.2539
21.3300,58.1582
Z" /> 
<path style="fill:#B4A09A; fill-opacity:0.9000; stroke:none;fill-rule:evenodd;"
d="M 23.3300,57.2582
23.3490,57.1626
23.4032,57.0815
23.4843,57.0273
23.5800,57.0082
24.2800,57.0082
24.3757,57.0273
24.4568,57.0815
24.5110,57.1626
24.5300,57.2582
24.5300,58.1582
24.5110,58.2539
24.4568,58.3350
24.3757,58.3892
24.2800,58.4082
23.5800,58.4082
23.4843,58.3892
23.4032,58.3350
23.3490,58.2539
23.3300,58.1582
Z" /> 
<path style="fill:#B4A09A; fill-opacity:0.9000; stroke:none;fill-rule:evenodd;"
d="M 54.8780,41.7957
54.8599,41.8866
54.8084,41.9637
54.7314,42.0152
54.6405,42.0332
54.1405,42.0332
54.0496,42.0152
53.9726,41.9637
53.9211,41.8866
53.9030,41.7957
53.9030,41.3207
53.9211,41.2299
53.9726,41.1528
54.0496,41.1013
54.1405,41.0832
54.6405,41.0832
54.7314,41.1013
54.8084,41.1528
54.8599,41.2299
54.8780,41.3207
Z" /> 
<path style="fill:#B4A09A; fill-opacity:0.9000; stroke:none;fill-rule:evenodd;"
d="M 53.0530,41.7957
53.0349,41.8866
52.9834,41.9637
52.9064,42.0152
52.8155,42.0332
52.3155,42.0332
52.2246,42.0152
52.1476,41.9637
52.0961,41.8866
52.0780,41.7957
52.0780,41.3207
52.0961,41.2299
52.1476,41.1528
52.2246,41.1013
52.3155,41.0832
52.8155,41.0832
52.9064,41.1013
52.9834,41.1528
53.0349,41.2299
53.0530,41.3207
Z" /> 
<path style="fill:#B4A09A; fill-opacity:0.9000; stroke:none;fill-rule:evenodd;"
d="M 22.8000,59.0807
22.8957,59.0998
22.9768,59.1540
23.0310,59.2351
23.0500,59.3307
23.0500,60.1557
23.0310,60.2514
22.9768,60.3325
22.8957,60.3867
22.8000,60.4057
20.6000,60.4057
20.5043,60.3867
20.4232,60.3325
20.3690,60.2514
20.3500,60.1557
20.3500,59.3307
20.3690,59.2351
20.4232,59.1540
20.5043,59.0998
20.6000,59.0807
Z" /> 
<path style="fill:#B4A09A; fill-opacity:0.9000; stroke:none;fill-rule:evenodd;"
d="M 22.8000,62.2057
22.8957,62.2248
22.9768,62.2790
23.0310,62.3601
23.0500,62.4557
23.0500,63.2807
23.0310,63.3764
22.9768,63.4575
22.8957,63.5117
22.8000,63.5307
20.6000,63.5307
20.5043,63.5117
20.4232,63.4575
20.3690,63.3764
20.3500,63.2807
20.3500,62.4557
20.3690,62.3601
20.4232,62.2790
20.5043,62.2248
20.6000,62.2057
Z" /> 
<path style="fill:#B4A09A; fill-opacity:0.9000; stroke:none;fill-rule:evenodd;"
d="M 14.8400,63.3457
14.9357,63.3648
15.0168,63.4190
15.0710,63.5001
15.0900,63.5957
15.0900,64.4207
15.0710,64.5164
15.0168,64.5975
14.9357,64.6517
14.8400,64.6707
12.6400,64.6707
12.5443,64.6517
12.4632,64.5975
12.4090,64.5164
12.3900,64.4207
12.3900,63.5957
12.4090,63.5001
12.4632,63.4190
12.5443,63.3648
12.6400,63.3457
Z" /> 
<path style="fill:#B4A09A; fill-opacity:0.9000; stroke:none;fill-rule:evenodd;"
d="M 14.8400,66.4707
14.9357,66.4898
15.0168,66.5440
15.0710,66.6251
15.0900,66.7207
15.0900,67.5457
15.0710,67.6414
15.0168,67.7225
14.9357,67.7767
14.8400,67.7957
12.6400,67.7957
12.5443,67.7767
12.4632,67.7225
12.4090,67.6414
12.3900,67.5457
12.3900,66.7207
12.4090,66.6251
12.4632,66.5440
12.5443,66.4898
12.6400,66.4707
Z" /> 
<path style="fill:#B4A09A; fill-opacity:0.9000; stroke:none;fill-rule:evenodd;"
d="M 12.7400,63.2507
12.7400,59.1507
14.7400,59.1507
14.7400,63.2507
Z" /> 
<path style="fill:#B4A09A; fill-opacity:0.9000; stroke:none;fill-rule:evenodd;"
d="M 12.7400,71.9507
12.7400,67.8507
14.7400,67.8507
14.7400,71.9507
Z" /> 
<path style="fill:#B4A09A; fill-opacity:0.9000; stroke:none;fill-rule:evenodd;"
d="M 24.7800,39.0782
24.7693,39.1318
24.7390,39.1772
24.6936,39.2076
24.6400,39.2182
24.3600,39.2182
24.3064,39.2076
24.2610,39.1772
24.2307,39.1318
24.2200,39.0782
24.2200,38.7383
24.2307,38.6847
24.2610,38.6393
24.3064,38.6089
24.3600,38.5983
24.6400,38.5983
24.6936,38.6089
24.7390,38.6393
24.7693,38.6847
24.7800,38.7383
Z" /> 
<path style="fill:#B4A09A; fill-opacity:0.9000; stroke:none;fill-rule:evenodd;"
d="M 23.8200,39.0782
23.8093,39.1318
23.7790,39.1772
23.7336,39.2076
23.6800,39.2182
23.4000,39.2182
23.3464,39.2076
23.3010,39.1772
23.2707,39.1318
23.2600,39.0782
23.2600,38.7383
23.2707,38.6847
23.3010,38.6393
23.3464,38.6089
23.4000,38.5983
23.6800,38.5983
23.7336,38.6089
23.7790,38.6393
23.8093,38.6847
23.8200,38.7383
Z" /> 
<path style="fill:#B4A09A; fill-opacity:0.9000; stroke:none;fill-rule:evenodd;"
d="M 18.8575,29.6832
18.8765,29.5876
18.9307,29.5065
19.0118,29.4523
19.1075,29.4332
19.7825,29.4332
19.8782,29.4523
19.9593,29.5065
20.0135,29.5876
20.0325,29.6832
20.0325,30.6333
20.0135,30.7289
19.9593,30.8100
19.8782,30.8642
19.7825,30.8833
19.1075,30.8833
19.0118,30.8642
18.9307,30.8100
18.8765,30.7289
18.8575,30.6333
Z" /> 
<path style="fill:#B4A09A; fill-opacity:0.9000; stroke:none;fill-rule:evenodd;"
d="M 20.9325,29.6832
20.9515,29.5876
21.0057,29.5065
21.0868,29.4523
21.1825,29.4332
21.8575,29.4332
21.9532,29.4523
22.0343,29.5065
22.0885,29.5876
22.1075,29.6832
22.1075,30.6333
22.0885,30.7289
22.0343,30.8100
21.9532,30.8642
21.8575,30.8833
21.1825,30.8833
21.0868,30.8642
21.0057,30.8100
20.9515,30.7289
20.9325,30.6333
Z" /> 
<path style="fill:#B4A09A; fill-opacity:0.9000; stroke:none;fill-rule:evenodd;"
d="M 8.4950,42.7632
8.5907,42.7823
8.6718,42.8365
8.7260,42.9176
8.7450,43.0132
8.7450,43.6882
8.7260,43.7839
8.6718,43.8650
8.5907,43.9192
8.4950,43.9382
7.5450,43.9382
7.4493,43.9192
7.3682,43.8650
7.3140,43.7839
7.2950,43.6882
7.2950,43.0132
7.3140,42.9176
7.3682,42.8365
7.4493,42.7823
7.5450,42.7632
Z" /> 
<path style="fill:#B4A09A; fill-opacity:0.9000; stroke:none;fill-rule:evenodd;"
d="M 8.4950,44.8382
8.5907,44.8573
8.6718,44.9115
8.7260,44.9926
8.7450,45.0882
8.7450,45.7632
8.7260,45.8589
8.6718,45.9400
8.5907,45.9942
8.4950,46.0132
7.5450,46.0132
7.4493,45.9942
7.3682,45.9400
7.3140,45.8589
7.2950,45.7632
7.2950,45.0882
7.3140,44.9926
7.3682,44.9115
7.4493,44.8573
7.5450,44.8382
Z" /> 
<path style="fill:#B4A09A; fill-opacity:0.9000; stroke:none;fill-rule:evenodd;"
d="M 6.4700,42.9333
6.5657,42.9523
6.6468,43.0065
6.7010,43.0876
6.7200,43.1833
6.7200,44.0082
6.7010,44.1039
6.6468,44.1850
6.5657,44.2392
6.4700,44.2582
5.1700,44.2582
5.0743,44.2392
4.9932,44.1850
4.9390,44.1039
4.9200,44.0082
4.9200,43.1833
4.9390,43.0876
4.9932,43.0065
5.0743,42.9523
5.1700,42.9333
Z" /> 
<path style="fill:#B4A09A; fill-opacity:0.9000; stroke:none;fill-rule:evenodd;"
d="M 6.4700,46.0583
6.5657,46.0773
6.6468,46.1315
6.7010,46.2126
6.7200,46.3083
6.7200,47.1332
6.7010,47.2289
6.6468,47.3100
6.5657,47.3642
6.4700,47.3832
5.1700,47.3832
5.0743,47.3642
4.9932,47.3100
4.9390,47.2289
4.9200,47.1332
4.9200,46.3083
4.9390,46.2126
4.9932,46.1315
5.0743,46.0773
5.1700,46.0583
Z" /> 
<path style="fill:#B4A09A; fill-opacity:0.9000; stroke:none;fill-rule:evenodd;"
d="M 20.2075,25.3833
20.1885,25.4789
20.1343,25.5600
20.0532,25.6142
19.9575,25.6333
19.2825,25.6333
19.1868,25.6142
19.1057,25.5600
19.0515,25.4789
19.0325,25.3833
19.0325,24.4332
19.0515,24.3376
19.1057,24.2565
19.1868,24.2023
19.2825,24.1832
19.9575,24.1832
20.0532,24.2023
20.1343,24.2565
20.1885,24.3376
20.2075,24.4332
Z" /> 
<path style="fill:#B4A09A; fill-opacity:0.9000; stroke:none;fill-rule:evenodd;"
d="M 18.1325,25.3833
18.1135,25.4789
18.0593,25.5600
17.9782,25.6142
17.8825,25.6333
17.2075,25.6333
17.1118,25.6142
17.0307,25.5600
16.9765,25.4789
16.9575,25.3833
16.9575,24.4332
16.9765,24.3376
17.0307,24.2565
17.1118,24.2023
17.2075,24.1832
17.8825,24.1832
17.9782,24.2023
18.0593,24.2565
18.1135,24.3376
18.1325,24.4332
Z" /> 
<path style="fill:#B4A09A; fill-opacity:0.9000; stroke:none;fill-rule:evenodd;"
d="M 49.1450,24.2707
49.0493,24.2517
48.9682,24.1975
48.9140,24.1164
48.8950,24.0207
48.8950,23.3457
48.9140,23.2501
48.9682,23.1690
49.0493,23.1148
49.1450,23.0957
50.0950,23.0957
50.1907,23.1148
50.2718,23.1690
50.3260,23.2501
50.3450,23.3457
50.3450,24.0207
50.3260,24.1164
50.2718,24.1975
50.1907,24.2517
50.0950,24.2707
Z" /> 
<path style="fill:#B4A09A; fill-opacity:0.9000; stroke:none;fill-rule:evenodd;"
d="M 49.1450,22.1958
49.0493,22.1767
48.9682,22.1225
48.9140,22.0414
48.8950,21.9458
48.8950,21.2707
48.9140,21.1751
48.9682,21.0940
49.0493,21.0398
49.1450,21.0207
50.0950,21.0207
50.1907,21.0398
50.2718,21.0940
50.3260,21.1751
50.3450,21.2707
50.3450,21.9458
50.3260,22.0414
50.2718,22.1225
50.1907,22.1767
50.0950,22.1958
Z" /> 
<path style="fill:#B4A09A; fill-opacity:0.9000; stroke:none;fill-rule:evenodd;"
d="M 8.0375,35.7982
8.0497,35.7370
8.0844,35.6851
8.1363,35.6504
8.1975,35.6382
8.5925,35.6382
8.6537,35.6504
8.7056,35.6851
8.7403,35.7370
8.7525,35.7982
8.7525,36.1182
8.7403,36.1795
8.7056,36.2314
8.6537,36.2661
8.5925,36.2782
8.1975,36.2782
8.1363,36.2661
8.0844,36.2314
8.0497,36.1795
8.0375,36.1182
Z" /> 
<path style="fill:#B4A09A; fill-opacity:0.9000; stroke:none;fill-rule:evenodd;"
d="M 9.2325,35.7982
9.2447,35.7370
9.2794,35.6851
9.3313,35.6504
9.3925,35.6382
9.7875,35.6382
9.8487,35.6504
9.9006,35.6851
9.9353,35.7370
9.9475,35.7982
9.9475,36.1182
9.9353,36.1795
9.9006,36.2314
9.8487,36.2661
9.7875,36.2782
9.3925,36.2782
9.3313,36.2661
9.2794,36.2314
9.2447,36.1795
9.2325,36.1182
Z" /> 
<path style="fill:#B4A09A; fill-opacity:0.9000; stroke:none;fill-rule:evenodd;"
d="M 27.1700,26.0582
27.0743,26.0392
26.9932,25.9850
26.9390,25.9039
26.9200,25.8082
26.9200,25.1082
26.9390,25.0126
26.9932,24.9315
27.0743,24.8773
27.1700,24.8582
28.0700,24.8582
28.1657,24.8773
28.2468,24.9315
28.3010,25.0126
28.3200,25.1082
28.3200,25.8082
28.3010,25.9039
28.2468,25.9850
28.1657,26.0392
28.0700,26.0582
Z" /> 
<path style="fill:#B4A09A; fill-opacity:0.9000; stroke:none;fill-rule:evenodd;"
d="M 27.1700,24.0582
27.0743,24.0392
26.9932,23.9850
26.9390,23.9039
26.9200,23.8082
26.9200,23.1082
26.9390,23.0126
26.9932,22.9315
27.0743,22.8773
27.1700,22.8582
28.0700,22.8582
28.1657,22.8773
28.2468,22.9315
28.3010,23.0126
28.3200,23.1082
28.3200,23.8082
28.3010,23.9039
28.2468,23.9850
28.1657,24.0392
28.0700,24.0582
Z" /> 
<path style="fill:#B4A09A; fill-opacity:0.9000; stroke:none;fill-rule:evenodd;"
d="M 16.8200,33.7082
16.8390,33.6126
16.8932,33.5315
16.9743,33.4773
17.0700,33.4582
17.7700,33.4582
17.8657,33.4773
17.9468,33.5315
18.0010,33.6126
18.0200,33.7082
18.0200,34.6082
18.0010,34.7039
17.9468,34.7850
17.8657,34.8392
17.7700,34.8582
17.0700,34.8582
16.9743,34.8392
16.8932,34.7850
16.8390,34.7039
16.8200,34.6082
Z" /> 
<path style="fill:#B4A09A; fill-opacity:0.9000; stroke:none;fill-rule:evenodd;"
d="M 18.8200,33.7082
18.8390,33.6126
18.8932,33.5315
18.9743,33.4773
19.0700,33.4582
19.7700,33.4582
19.8657,33.4773
19.9468,33.5315
20.0010,33.6126
20.0200,33.7082
20.0200,34.6082
20.0010,34.7039
19.9468,34.7850
19.8657,34.8392
19.7700,34.8582
19.0700,34.8582
18.9743,34.8392
18.8932,34.7850
18.8390,34.7039
18.8200,34.6082
Z" /> 
<path style="fill:#B4A09A; fill-opacity:0.9000; stroke:none;fill-rule:evenodd;"
d="M 54.7225,57.9132
54.7035,58.0089
54.6493,58.0900
54.5682,58.1442
54.4725,58.1632
53.7975,58.1632
53.7018,58.1442
53.6207,58.0900
53.5665,58.0089
53.5475,57.9132
53.5475,56.9632
53.5665,56.8676
53.6207,56.7865
53.7018,56.7323
53.7975,56.7132
54.4725,56.7132
54.5682,56.7323
54.6493,56.7865
54.7035,56.8676
54.7225,56.9632
Z" /> 
<path style="fill:#B4A09A; fill-opacity:0.9000; stroke:none;fill-rule:evenodd;"
d="M 52.6475,57.9132
52.6285,58.0089
52.5743,58.0900
52.4932,58.1442
52.3975,58.1632
51.7225,58.1632
51.6268,58.1442
51.5457,58.0900
51.4915,58.0089
51.4725,57.9132
51.4725,56.9632
51.4915,56.8676
51.5457,56.7865
51.6268,56.7323
51.7225,56.7132
52.3975,56.7132
52.4932,56.7323
52.5743,56.7865
52.6285,56.8676
52.6475,56.9632
Z" /> 
<path style="fill:#B4A09A; fill-opacity:0.9000; stroke:none;fill-rule:evenodd;"
d="M 10.9100,26.6782
10.9290,26.5826
10.9832,26.5015
11.0643,26.4473
11.1600,26.4282
11.8600,26.4282
11.9557,26.4473
12.0368,26.5015
12.0910,26.5826
12.1100,26.6782
12.1100,27.5782
12.0910,27.6739
12.0368,27.7550
11.9557,27.8092
11.8600,27.8282
11.1600,27.8282
11.0643,27.8092
10.9832,27.7550
10.9290,27.6739
10.9100,27.5782
Z" /> 
<path style="fill:#B4A09A; fill-opacity:0.9000; stroke:none;fill-rule:evenodd;"
d="M 12.9100,26.6782
12.9290,26.5826
12.9832,26.5015
13.0643,26.4473
13.1600,26.4282
13.8600,26.4282
13.9557,26.4473
14.0368,26.5015
14.0910,26.5826
14.1100,26.6782
14.1100,27.5782
14.0910,27.6739
14.0368,27.7550
13.9557,27.8092
13.8600,27.8282
13.1600,27.8282
13.0643,27.8092
12.9832,27.7550
12.9290,27.6739
12.9100,27.5782
Z" /> 
<path style="fill:#B4A09A; fill-opacity:0.9000; stroke:none;fill-rule:evenodd;"
d="M 51.4825,20.1207
51.4644,20.2116
51.4129,20.2887
51.3359,20.3402
51.2450,20.3582
50.7450,20.3582
50.6541,20.3402
50.5771,20.2887
50.5256,20.2116
50.5075,20.1207
50.5075,19.6457
50.5256,19.5549
50.5771,19.4778
50.6541,19.4263
50.7450,19.4082
51.2450,19.4082
51.3359,19.4263
51.4129,19.4778
51.4644,19.5549
51.4825,19.6457
Z" /> 
<path style="fill:#B4A09A; fill-opacity:0.9000; stroke:none;fill-rule:evenodd;"
d="M 49.6575,20.1207
49.6394,20.2116
49.5879,20.2887
49.5109,20.3402
49.4200,20.3582
48.9200,20.3582
48.8291,20.3402
48.7521,20.2887
48.7006,20.2116
48.6825,20.1207
48.6825,19.6457
48.7006,19.5549
48.7521,19.4778
48.8291,19.4263
48.9200,19.4082
49.4200,19.4082
49.5109,19.4263
49.5879,19.4778
49.6394,19.5549
49.6575,19.6457
Z" /> 
<path style="fill:#B4A09A; fill-opacity:0.9000; stroke:none;fill-rule:evenodd;"
d="M 35.7200,26.6582
35.7390,26.5626
35.7932,26.4815
35.8743,26.4273
35.9700,26.4082
39.8700,26.4082
39.9657,26.4273
40.0468,26.4815
40.1010,26.5626
40.1200,26.6582
40.1200,28.6582
40.1010,28.7539
40.0468,28.8350
39.9657,28.8892
39.8700,28.9082
35.9700,28.9082
35.8743,28.8892
35.7932,28.8350
35.7390,28.7539
35.7200,28.6582
Z" /> 
<path style="fill:#B4A09A; fill-opacity:0.9000; stroke:none;fill-rule:evenodd;"
d="M 44.1200,26.6582
44.1390,26.5626
44.1932,26.4815
44.2743,26.4273
44.3700,26.4082
48.2700,26.4082
48.3657,26.4273
48.4468,26.4815
48.5010,26.5626
48.5200,26.6582
48.5200,28.6582
48.5010,28.7539
48.4468,28.8350
48.3657,28.8892
48.2700,28.9082
44.3700,28.9082
44.2743,28.8892
44.1932,28.8350
44.1390,28.7539
44.1200,28.6582
Z" /> 
<path style="fill:#B4A09A; fill-opacity:0.9000; stroke:none;fill-rule:evenodd;"
d="M 13.6325,50.7207
13.6506,50.6299
13.7021,50.5528
13.7791,50.5013
13.8700,50.4832
14.3700,50.4832
14.4609,50.5013
14.5379,50.5528
14.5894,50.6299
14.6075,50.7207
14.6075,51.1957
14.5894,51.2866
14.5379,51.3637
14.4609,51.4152
14.3700,51.4333
13.8700,51.4333
13.7791,51.4152
13.7021,51.3637
13.6506,51.2866
13.6325,51.1957
Z" /> 
<path style="fill:#B4A09A; fill-opacity:0.9000; stroke:none;fill-rule:evenodd;"
d="M 15.4575,50.7207
15.4756,50.6299
15.5271,50.5528
15.6041,50.5013
15.6950,50.4832
16.1950,50.4832
16.2859,50.5013
16.3629,50.5528
16.4144,50.6299
16.4325,50.7207
16.4325,51.1957
16.4144,51.2866
16.3629,51.3637
16.2859,51.4152
16.1950,51.4333
15.6950,51.4333
15.6041,51.4152
15.5271,51.3637
15.4756,51.2866
15.4575,51.1957
Z" /> 
<path style="fill:#B4A09A; fill-opacity:0.9000; stroke:none;fill-rule:evenodd;"
d="M 33.0825,28.5207
32.9916,28.5027
32.9146,28.4512
32.8631,28.3741
32.8450,28.2832
32.8450,27.6832
32.8631,27.5924
32.9146,27.5153
32.9916,27.4638
33.0825,27.4458
33.5575,27.4458
33.6484,27.4638
33.7254,27.5153
33.7769,27.5924
33.7950,27.6832
33.7950,28.2832
33.7769,28.3741
33.7254,28.4512
33.6484,28.5027
33.5575,28.5207
Z" /> 
<path style="fill:#B4A09A; fill-opacity:0.9000; stroke:none;fill-rule:evenodd;"
d="M 33.0825,26.7957
32.9916,26.7777
32.9146,26.7262
32.8631,26.6491
32.8450,26.5582
32.8450,25.9582
32.8631,25.8674
32.9146,25.7903
32.9916,25.7388
33.0825,25.7207
33.5575,25.7207
33.6484,25.7388
33.7254,25.7903
33.7769,25.8674
33.7950,25.9582
33.7950,26.5582
33.7769,26.6491
33.7254,26.7262
33.6484,26.7777
33.5575,26.7957
Z" /> 
<path style="fill:#B4A09A; fill-opacity:0.9000; stroke:none;fill-rule:evenodd;"
d="M 26.1000,59.0832
26.1957,59.1023
26.2768,59.1565
26.3310,59.2376
26.3500,59.3332
26.3500,60.1582
26.3310,60.2539
26.2768,60.3350
26.1957,60.3892
26.1000,60.4082
23.9000,60.4082
23.8043,60.3892
23.7232,60.3350
23.6690,60.2539
23.6500,60.1582
23.6500,59.3332
23.6690,59.2376
23.7232,59.1565
23.8043,59.1023
23.9000,59.0832
Z" /> 
<path style="fill:#B4A09A; fill-opacity:0.9000; stroke:none;fill-rule:evenodd;"
d="M 26.1000,62.2082
26.1957,62.2273
26.2768,62.2815
26.3310,62.3626
26.3500,62.4582
26.3500,63.2832
26.3310,63.3789
26.2768,63.4600
26.1957,63.5142
26.1000,63.5332
23.9000,63.5332
23.8043,63.5142
23.7232,63.4600
23.6690,63.3789
23.6500,63.2832
23.6500,62.4582
23.6690,62.3626
23.7232,62.2815
23.8043,62.2273
23.9000,62.2082
Z" /> 
<path style="fill:#B4A09A; fill-opacity:0.9000; stroke:none;fill-rule:evenodd;"
d="M 20.3825,28.6582
20.3635,28.7539
20.3093,28.8350
20.2282,28.8892
20.1325,28.9082
19.3075,28.9082
19.2118,28.8892
19.1307,28.8350
19.0765,28.7539
19.0575,28.6582
19.0575,26.4582
19.0765,26.3626
19.1307,26.2815
19.2118,26.2273
19.3075,26.2082
20.1325,26.2082
20.2282,26.2273
20.3093,26.2815
20.3635,26.3626
20.3825,26.4582
Z" /> 
<path style="fill:#B4A09A; fill-opacity:0.9000; stroke:none;fill-rule:evenodd;"
d="M 17.2575,28.6582
17.2385,28.7539
17.1843,28.8350
17.1032,28.8892
17.0075,28.9082
16.1825,28.9082
16.0868,28.8892
16.0057,28.8350
15.9515,28.7539
15.9325,28.6582
15.9325,26.4582
15.9515,26.3626
16.0057,26.2815
16.0868,26.2273
16.1825,26.2082
17.0075,26.2082
17.1032,26.2273
17.1843,26.2815
17.2385,26.3626
17.2575,26.4582
Z" /> 
<path style="fill:#B4A09A; fill-opacity:0.9000; stroke:none;fill-rule:evenodd;"
d="M 24.5200,30.6958
24.4243,30.6767
24.3432,30.6225
24.2890,30.5414
24.2700,30.4458
24.2700,29.6207
24.2890,29.5251
24.3432,29.4440
24.4243,29.3898
24.5200,29.3707
25.8200,29.3707
25.9157,29.3898
25.9968,29.4440
26.0510,29.5251
26.0700,29.6207
26.0700,30.4458
26.0510,30.5414
25.9968,30.6225
25.9157,30.6767
25.8200,30.6958
Z" /> 
<path style="fill:#B4A09A; fill-opacity:0.9000; stroke:none;fill-rule:evenodd;"
d="M 24.5200,27.5708
24.4243,27.5517
24.3432,27.4975
24.2890,27.4164
24.2700,27.3208
24.2700,26.4957
24.2890,26.4001
24.3432,26.3190
24.4243,26.2648
24.5200,26.2457
25.8200,26.2457
25.9157,26.2648
25.9968,26.3190
26.0510,26.4001
26.0700,26.4957
26.0700,27.3208
26.0510,27.4164
25.9968,27.4975
25.9157,27.5517
25.8200,27.5708
Z" /> 
<path style="fill:#B4A09A; fill-opacity:0.9000; stroke:none;fill-rule:evenodd;"
d="M 13.3200,57.2383
13.3390,57.1426
13.3932,57.0615
13.4743,57.0073
13.5700,56.9883
14.2700,56.9883
14.3657,57.0073
14.4468,57.0615
14.5010,57.1426
14.5200,57.2383
14.5200,58.1382
14.5010,58.2339
14.4468,58.3150
14.3657,58.3692
14.2700,58.3882
13.5700,58.3882
13.4743,58.3692
13.3932,58.3150
13.3390,58.2339
13.3200,58.1382
Z" /> 
<path style="fill:#B4A09A; fill-opacity:0.9000; stroke:none;fill-rule:evenodd;"
d="M 15.3200,57.2383
15.3390,57.1426
15.3932,57.0615
15.4743,57.0073
15.5700,56.9883
16.2700,56.9883
16.3657,57.0073
16.4468,57.0615
16.5010,57.1426
16.5200,57.2383
16.5200,58.1382
16.5010,58.2339
16.4468,58.3150
16.3657,58.3692
16.2700,58.3882
15.5700,58.3882
15.4743,58.3692
15.3932,58.3150
15.3390,58.2339
15.3200,58.1382
Z" /> 
<path style="fill:#B4A09A; fill-opacity:0.9000; stroke:none;fill-rule:evenodd;"
d="M 36.1250,46.1782
36.1440,46.0826
36.1982,46.0015
36.2793,45.9473
36.3750,45.9282
37.2000,45.9282
37.2957,45.9473
37.3768,46.0015
37.4310,46.0826
37.4500,46.1782
37.4500,48.3783
37.4310,48.4739
37.3768,48.5550
37.2957,48.6092
37.2000,48.6283
36.3750,48.6283
36.2793,48.6092
36.1982,48.5550
36.1440,48.4739
36.1250,48.3783
Z" /> 
<path style="fill:#B4A09A; fill-opacity:0.9000; stroke:none;fill-rule:evenodd;"
d="M 39.2500,46.1782
39.2690,46.0826
39.3232,46.0015
39.4043,45.9473
39.5000,45.9282
40.3250,45.9282
40.4207,45.9473
40.5018,46.0015
40.5560,46.0826
40.5750,46.1782
40.5750,48.3783
40.5560,48.4739
40.5018,48.5550
40.4207,48.6092
40.3250,48.6283
39.5000,48.6283
39.4043,48.6092
39.3232,48.5550
39.2690,48.4739
39.2500,48.3783
Z" /> 
<path style="fill:#B4A09A; fill-opacity:0.9000; stroke:none;fill-rule:evenodd;"
d="M 29.7700,32.4457
29.6743,32.4267
29.5932,32.3725
29.5390,32.2914
29.5200,32.1957
29.5200,31.3707
29.5390,31.2751
29.5932,31.1940
29.6743,31.1398
29.7700,31.1207
31.0700,31.1207
31.1657,31.1398
31.2468,31.1940
31.3010,31.2751
31.3200,31.3707
31.3200,32.1957
31.3010,32.2914
31.2468,32.3725
31.1657,32.4267
31.0700,32.4457
Z" /> 
<path style="fill:#B4A09A; fill-opacity:0.9000; stroke:none;fill-rule:evenodd;"
d="M 29.7700,29.3208
29.6743,29.3017
29.5932,29.2475
29.5390,29.1664
29.5200,29.0708
29.5200,28.2457
29.5390,28.1501
29.5932,28.0690
29.6743,28.0148
29.7700,27.9957
31.0700,27.9957
31.1657,28.0148
31.2468,28.0690
31.3010,28.1501
31.3200,28.2457
31.3200,29.0708
31.3010,29.1664
31.2468,29.2475
31.1657,29.3017
31.0700,29.3208
Z" /> 
<path style="fill:#B4A09A; fill-opacity:0.9000; stroke:none;fill-rule:evenodd;"
d="M 26.9700,52.5282
26.9700,54.7282
25.2700,54.7282
25.2700,52.5282
Z" /> 
<path style="fill:#B4A09A; fill-opacity:0.9000; stroke:none;fill-rule:evenodd;"
d="M 21.6700,52.5282
21.6700,54.7282
19.9700,54.7282
19.9700,52.5282
Z" /> 
<path style="fill:#B4A09A; fill-opacity:0.9000; stroke:none;fill-rule:evenodd;"
d="M 18.7810,49.5822
18.7620,49.6779
18.7078,49.7590
18.6267,49.8132
18.5310,49.8322
17.8560,49.8322
17.7603,49.8132
17.6792,49.7590
17.6250,49.6779
17.6060,49.5822
17.6060,48.6322
17.6250,48.5366
17.6792,48.4555
17.7603,48.4013
17.8560,48.3822
18.5310,48.3822
18.6267,48.4013
18.7078,48.4555
18.7620,48.5366
18.7810,48.6322
Z" /> 
<path style="fill:#B4A09A; fill-opacity:0.9000; stroke:none;fill-rule:evenodd;"
d="M 16.7060,49.5822
16.6870,49.6779
16.6328,49.7590
16.5517,49.8132
16.4560,49.8322
15.7810,49.8322
15.6853,49.8132
15.6042,49.7590
15.5500,49.6779
15.5310,49.5822
15.5310,48.6322
15.5500,48.5366
15.6042,48.4555
15.6853,48.4013
15.7810,48.3822
16.4560,48.3822
16.5517,48.4013
16.6328,48.4555
16.6870,48.5366
16.7060,48.6322
Z" /> 
<path style="fill:#B4A09A; fill-opacity:0.9000; stroke:none;fill-rule:evenodd;"
d="M 7.8725,40.5807
7.7816,40.5627
7.7046,40.5112
7.6531,40.4341
7.6350,40.3432
7.6350,39.7432
7.6531,39.6524
7.7046,39.5753
7.7816,39.5238
7.8725,39.5057
8.3475,39.5057
8.4384,39.5238
8.5154,39.5753
8.5669,39.6524
8.5850,39.7432
8.5850,40.3432
8.5669,40.4341
8.5154,40.5112
8.4384,40.5627
8.3475,40.5807
Z" /> 
<path style="fill:#B4A09A; fill-opacity:0.9000; stroke:none;fill-rule:evenodd;"
d="M 7.8725,38.8558
7.7816,38.8377
7.7046,38.7862
7.6531,38.7091
7.6350,38.6182
7.6350,38.0182
7.6531,37.9274
7.7046,37.8503
7.7816,37.7988
7.8725,37.7807
8.3475,37.7807
8.4384,37.7988
8.5154,37.8503
8.5669,37.9274
8.5850,38.0182
8.5850,38.6182
8.5669,38.7091
8.5154,38.7862
8.4384,38.8377
8.3475,38.8558
Z" /> 
<path style="fill:#B4A09A; fill-opacity:0.9000; stroke:none;fill-rule:evenodd;"
d="M 10.9450,24.4707
10.8493,24.4517
10.7682,24.3975
10.7140,24.3164
10.6950,24.2207
10.6950,23.5457
10.7140,23.4501
10.7682,23.3690
10.8493,23.3148
10.9450,23.2957
11.8950,23.2957
11.9907,23.3148
12.0718,23.3690
12.1260,23.4501
12.1450,23.5457
12.1450,24.2207
12.1260,24.3164
12.0718,24.3975
11.9907,24.4517
11.8950,24.4707
Z" /> 
<path style="fill:#B4A09A; fill-opacity:0.9000; stroke:none;fill-rule:evenodd;"
d="M 10.9450,22.3957
10.8493,22.3767
10.7682,22.3225
10.7140,22.2414
10.6950,22.1457
10.6950,21.4707
10.7140,21.3751
10.7682,21.2940
10.8493,21.2398
10.9450,21.2207
11.8950,21.2207
11.9907,21.2398
12.0718,21.2940
12.1260,21.3751
12.1450,21.4707
12.1450,22.1457
12.1260,22.2414
12.0718,22.3225
11.9907,22.3767
11.8950,22.3957
Z" /> 
<path style="fill:#B4A09A; fill-opacity:0.9000; stroke:none;fill-rule:evenodd;"
d="M 6.7950,37.6082
6.8907,37.6273
6.9718,37.6815
7.0260,37.7626
7.0450,37.8582
7.0450,38.5332
7.0260,38.6289
6.9718,38.7100
6.8907,38.7642
6.7950,38.7832
5.8450,38.7832
5.7493,38.7642
5.6682,38.7100
5.6140,38.6289
5.5950,38.5332
5.5950,37.8582
5.6140,37.7626
5.6682,37.6815
5.7493,37.6273
5.8450,37.6082
Z" /> 
<path style="fill:#B4A09A; fill-opacity:0.9000; stroke:none;fill-rule:evenodd;"
d="M 6.7950,39.6833
6.8907,39.7023
6.9718,39.7565
7.0260,39.8376
7.0450,39.9333
7.0450,40.6082
7.0260,40.7039
6.9718,40.7850
6.8907,40.8392
6.7950,40.8582
5.8450,40.8582
5.7493,40.8392
5.6682,40.7850
5.6140,40.7039
5.5950,40.6082
5.5950,39.9333
5.6140,39.8376
5.6682,39.7565
5.7493,39.7023
5.8450,39.6833
Z" /> 
<path style="fill:#B4A09A; fill-opacity:0.9000; stroke:none;fill-rule:evenodd;"
d="M 18.3175,37.6032
18.3293,37.5439
18.3629,37.4936
18.4132,37.4600
18.4725,37.4483
18.8975,37.4483
18.9568,37.4600
19.0071,37.4936
19.0407,37.5439
19.0525,37.6032
19.0525,37.9132
19.0407,37.9726
19.0071,38.0229
18.9568,38.0565
18.8975,38.0682
18.4725,38.0682
18.4132,38.0565
18.3629,38.0229
18.3293,37.9726
18.3175,37.9132
Z" /> 
<path style="fill:#B4A09A; fill-opacity:0.9000; stroke:none;fill-rule:evenodd;"
d="M 19.4525,37.6032
19.4643,37.5439
19.4979,37.4936
19.5482,37.4600
19.6075,37.4483
20.0325,37.4483
20.0918,37.4600
20.1421,37.4936
20.1757,37.5439
20.1875,37.6032
20.1875,37.9132
20.1757,37.9726
20.1421,38.0229
20.0918,38.0565
20.0325,38.0682
19.6075,38.0682
19.5482,38.0565
19.4979,38.0229
19.4643,37.9726
19.4525,37.9132
Z" /> 
<path style="fill:#B4A09A; fill-opacity:0.9000; stroke:none;fill-rule:evenodd;"
d="M 23.7200,49.3582
23.6243,49.3392
23.5432,49.2850
23.4890,49.2039
23.4700,49.1082
23.4700,48.2082
23.4890,48.1126
23.5432,48.0315
23.6243,47.9773
23.7200,47.9582
25.3200,47.9582
25.4157,47.9773
25.4968,48.0315
25.5510,48.1126
25.5700,48.2082
25.5700,49.1082
25.5510,49.2039
25.4968,49.2850
25.4157,49.3392
25.3200,49.3582
Z" /> 
<path style="fill:#B4A09A; fill-opacity:0.9000; stroke:none;fill-rule:evenodd;"
d="M 23.7200,44.9582
23.6243,44.9392
23.5432,44.8850
23.4890,44.8039
23.4700,44.7082
23.4700,43.8083
23.4890,43.7126
23.5432,43.6315
23.6243,43.5773
23.7200,43.5583
25.3200,43.5583
25.4157,43.5773
25.4968,43.6315
25.5510,43.7126
25.5700,43.8083
25.5700,44.7082
25.5510,44.8039
25.4968,44.8850
25.4157,44.9392
25.3200,44.9582
Z" /> 
<path style="fill:#B4A09A; fill-opacity:0.9000; stroke:none;fill-rule:evenodd;"
d="M 16.8200,31.7082
16.8390,31.6126
16.8932,31.5315
16.9743,31.4773
17.0700,31.4582
17.7700,31.4582
17.8657,31.4773
17.9468,31.5315
18.0010,31.6126
18.0200,31.7082
18.0200,32.6082
18.0010,32.7039
17.9468,32.7850
17.8657,32.8392
17.7700,32.8582
17.0700,32.8582
16.9743,32.8392
16.8932,32.7850
16.8390,32.7039
16.8200,32.6082
Z" /> 
<path style="fill:#B4A09A; fill-opacity:0.9000; stroke:none;fill-rule:evenodd;"
d="M 18.8200,31.7082
18.8390,31.6126
18.8932,31.5315
18.9743,31.4773
19.0700,31.4582
19.7700,31.4582
19.8657,31.4773
19.9468,31.5315
20.0010,31.6126
20.0200,31.7082
20.0200,32.6082
20.0010,32.7039
19.9468,32.7850
19.8657,32.8392
19.7700,32.8582
19.0700,32.8582
18.9743,32.8392
18.8932,32.7850
18.8390,32.7039
18.8200,32.6082
Z" /> 
<path style="fill:#B4A09A; fill-opacity:0.9000; stroke:none;fill-rule:evenodd;"
d="M 12.8300,40.7383
11.6300,40.7383
11.6300,39.5382
12.8300,39.5382
Z" /> 
<path style="fill:#B4A09A; fill-opacity:0.9000; stroke:none;fill-rule:evenodd;"
d="M 12.8300,37.9382
11.6300,37.9382
11.6300,36.7383
12.8300,36.7383
Z" /> 
<path style="fill:#B4A09A; fill-opacity:0.9000; stroke:none;fill-rule:evenodd;"
d="M 29.2900,65.8083
29.3857,65.8273
29.4668,65.8815
29.5210,65.9626
29.5400,66.0583
29.5400,66.7583
29.5210,66.8539
29.4668,66.9350
29.3857,66.9892
29.2900,67.0083
28.3900,67.0083
28.2943,66.9892
28.2132,66.9350
28.1590,66.8539
28.1400,66.7583
28.1400,66.0583
28.1590,65.9626
28.2132,65.8815
28.2943,65.8273
28.3900,65.8083
Z" /> 
<path style="fill:#B4A09A; fill-opacity:0.9000; stroke:none;fill-rule:evenodd;"
d="M 29.2900,67.8083
29.3857,67.8273
29.4668,67.8815
29.5210,67.9626
29.5400,68.0583
29.5400,68.7583
29.5210,68.8539
29.4668,68.9350
29.3857,68.9892
29.2900,69.0083
28.3900,69.0083
28.2943,68.9892
28.2132,68.9350
28.1590,68.8539
28.1400,68.7583
28.1400,68.0583
28.1590,67.9626
28.2132,67.8815
28.2943,67.8273
28.3900,67.8083
Z" /> 
<path style="fill:#B4A09A; fill-opacity:0.9000; stroke:none;fill-rule:evenodd;"
d="M 11.4600,48.9108
11.3988,48.8986
11.3469,48.8639
11.3122,48.8120
11.3000,48.7507
11.3000,48.3558
11.3122,48.2945
11.3469,48.2426
11.3988,48.2079
11.4600,48.1957
11.7800,48.1957
11.8412,48.2079
11.8931,48.2426
11.9278,48.2945
11.9400,48.3558
11.9400,48.7507
11.9278,48.8120
11.8931,48.8639
11.8412,48.8986
11.7800,48.9108
Z" /> 
<path style="fill:#B4A09A; fill-opacity:0.9000; stroke:none;fill-rule:evenodd;"
d="M 11.4600,47.7157
11.3988,47.7036
11.3469,47.6689
11.3122,47.6170
11.3000,47.5557
11.3000,47.1608
11.3122,47.0995
11.3469,47.0476
11.3988,47.0129
11.4600,47.0007
11.7800,47.0007
11.8412,47.0129
11.8931,47.0476
11.9278,47.0995
11.9400,47.1608
11.9400,47.5557
11.9278,47.6170
11.8931,47.6689
11.8412,47.7036
11.7800,47.7157
Z" /> 
<path style="fill:#B4A09A; fill-opacity:0.9000; stroke:none;fill-rule:evenodd;"
d="M 14.8575,45.5182
16.3825,45.5182
16.3825,46.2182
14.8575,46.2182
Z" /> 
<path style="fill:#B4A09A; fill-opacity:0.9000; stroke:none;fill-rule:evenodd;"
d="M 14.8575,44.2482
16.3825,44.2482
16.3825,44.9482
14.8575,44.9482
Z" /> 
<path style="fill:#B4A09A; fill-opacity:0.9000; stroke:none;fill-rule:evenodd;"
d="M 14.8575,42.9782
16.3825,42.9782
16.3825,43.6782
14.8575,43.6782
Z" /> 
<path style="fill:#B4A09A; fill-opacity:0.9000; stroke:none;fill-rule:evenodd;"
d="M 14.8575,41.7082
16.3825,41.7082
16.3825,42.4082
14.8575,42.4082
Z" /> 
<path style="fill:#B4A09A; fill-opacity:0.9000; stroke:none;fill-rule:evenodd;"
d="M 9.4335,41.7082
10.9585,41.7082
10.9585,42.4082
9.4335,42.4082
Z" /> 
<path style="fill:#B4A09A; fill-opacity:0.9000; stroke:none;fill-rule:evenodd;"
d="M 9.4335,42.9782
10.9585,42.9782
10.9585,43.6782
9.4335,43.6782
Z" /> 
<path style="fill:#B4A09A; fill-opacity:0.9000; stroke:none;fill-rule:evenodd;"
d="M 9.4335,44.2482
10.9585,44.2482
10.9585,44.9482
9.4335,44.9482
Z" /> 
<path style="fill:#B4A09A; fill-opacity:0.9000; stroke:none;fill-rule:evenodd;"
d="M 9.4335,45.5182
10.9585,45.5182
10.9585,46.2182
9.4335,46.2182
Z" /> 
<path style="fill:#B4A09A; fill-opacity:0.9000; stroke:none;fill-rule:evenodd;"
d="M 37.3650,44.2132
37.3840,44.1176
37.4382,44.0365
37.5193,43.9823
37.6150,43.9632
38.2900,43.9632
38.3857,43.9823
38.4668,44.0365
38.5210,44.1176
38.5400,44.2132
38.5400,45.1632
38.5210,45.2589
38.4668,45.3400
38.3857,45.3942
38.2900,45.4132
37.6150,45.4132
37.5193,45.3942
37.4382,45.3400
37.3840,45.2589
37.3650,45.1632
Z" /> 
<path style="fill:#B4A09A; fill-opacity:0.9000; stroke:none;fill-rule:evenodd;"
d="M 39.4400,44.2132
39.4590,44.1176
39.5132,44.0365
39.5943,43.9823
39.6900,43.9632
40.3650,43.9632
40.4607,43.9823
40.5418,44.0365
40.5960,44.1176
40.6150,44.2132
40.6150,45.1632
40.5960,45.2589
40.5418,45.3400
40.4607,45.3942
40.3650,45.4132
39.6900,45.4132
39.5943,45.3942
39.5132,45.3400
39.4590,45.2589
39.4400,45.1632
Z" /> 
<path style="fill:#B4A09A; fill-opacity:0.9000; stroke:none;fill-rule:evenodd;"
d="M 32.6600,58.4832
32.7557,58.5023
32.8368,58.5565
32.8910,58.6376
32.9100,58.7332
32.9100,59.5582
32.8910,59.6539
32.8368,59.7350
32.7557,59.7892
32.6600,59.8082
30.4600,59.8082
30.3643,59.7892
30.2832,59.7350
30.2290,59.6539
30.2100,59.5582
30.2100,58.7332
30.2290,58.6376
30.2832,58.5565
30.3643,58.5023
30.4600,58.4832
Z" /> 
<path style="fill:#B4A09A; fill-opacity:0.9000; stroke:none;fill-rule:evenodd;"
d="M 32.6600,61.6082
32.7557,61.6273
32.8368,61.6815
32.8910,61.7626
32.9100,61.8582
32.9100,62.6832
32.8910,62.7789
32.8368,62.8600
32.7557,62.9142
32.6600,62.9332
30.4600,62.9332
30.3643,62.9142
30.2832,62.8600
30.2290,62.7789
30.2100,62.6832
30.2100,61.8582
30.2290,61.7626
30.2832,61.6815
30.3643,61.6273
30.4600,61.6082
Z" /> 
<path style="fill:#B4A09A; fill-opacity:0.9000; stroke:none;fill-rule:evenodd;"
d="M 23.2200,22.7082
23.3157,22.7273
23.3968,22.7815
23.4510,22.8626
23.4700,22.9582
23.4700,23.8582
23.4510,23.9539
23.3968,24.0350
23.3157,24.0892
23.2200,24.1082
21.6200,24.1082
21.5243,24.0892
21.4432,24.0350
21.3890,23.9539
21.3700,23.8582
21.3700,22.9582
21.3890,22.8626
21.4432,22.7815
21.5243,22.7273
21.6200,22.7082
Z" /> 
<path style="fill:#B4A09A; fill-opacity:0.9000; stroke:none;fill-rule:evenodd;"
d="M 23.2200,27.1082
23.3157,27.1273
23.3968,27.1815
23.4510,27.2626
23.4700,27.3582
23.4700,28.2583
23.4510,28.3539
23.3968,28.4350
23.3157,28.4892
23.2200,28.5083
21.6200,28.5083
21.5243,28.4892
21.4432,28.4350
21.3890,28.3539
21.3700,28.2583
21.3700,27.3582
21.3890,27.2626
21.4432,27.1815
21.5243,27.1273
21.6200,27.1082
Z" /> 
<path style="fill:#B4A09A; fill-opacity:0.9000; stroke:none;fill-rule:evenodd;"
d="M 16.8200,35.7082
16.8390,35.6126
16.8932,35.5315
16.9743,35.4773
17.0700,35.4582
17.7700,35.4582
17.8657,35.4773
17.9468,35.5315
18.0010,35.6126
18.0200,35.7082
18.0200,36.6082
18.0010,36.7039
17.9468,36.7850
17.8657,36.8392
17.7700,36.8582
17.0700,36.8582
16.9743,36.8392
16.8932,36.7850
16.8390,36.7039
16.8200,36.6082
Z" /> 
<path style="fill:#B4A09A; fill-opacity:0.9000; stroke:none;fill-rule:evenodd;"
d="M 18.8200,35.7082
18.8390,35.6126
18.8932,35.5315
18.9743,35.4773
19.0700,35.4582
19.7700,35.4582
19.8657,35.4773
19.9468,35.5315
20.0010,35.6126
20.0200,35.7082
20.0200,36.6082
20.0010,36.7039
19.9468,36.7850
19.8657,36.8392
19.7700,36.8582
19.0700,36.8582
18.9743,36.8392
18.8932,36.7850
18.8390,36.7039
18.8200,36.6082
Z" /> 
<path style="fill:#B4A09A; fill-opacity:0.9000; stroke:none;fill-rule:evenodd;"
d="M 37.3650,42.1732
37.3840,42.0776
37.4382,41.9965
37.5193,41.9423
37.6150,41.9232
38.2900,41.9232
38.3857,41.9423
38.4668,41.9965
38.5210,42.0776
38.5400,42.1732
38.5400,43.1232
38.5210,43.2189
38.4668,43.3000
38.3857,43.3542
38.2900,43.3732
37.6150,43.3732
37.5193,43.3542
37.4382,43.3000
37.3840,43.2189
37.3650,43.1232
Z" /> 
<path style="fill:#B4A09A; fill-opacity:0.9000; stroke:none;fill-rule:evenodd;"
d="M 39.4400,42.1732
39.4590,42.0776
39.5132,41.9965
39.5943,41.9423
39.6900,41.9232
40.3650,41.9232
40.4607,41.9423
40.5418,41.9965
40.5960,42.0776
40.6150,42.1732
40.6150,43.1232
40.5960,43.2189
40.5418,43.3000
40.4607,43.3542
40.3650,43.3732
39.6900,43.3732
39.5943,43.3542
39.5132,43.3000
39.4590,43.2189
39.4400,43.1232
Z" /> 
<path style="fill:#B4A09A; fill-opacity:0.9000; stroke:none;fill-rule:evenodd;"
d="M 20.1825,23.3833
20.1635,23.4789
20.1093,23.5600
20.0282,23.6142
19.9325,23.6333
19.2575,23.6333
19.1618,23.6142
19.0807,23.5600
19.0265,23.4789
19.0075,23.3833
19.0075,22.4332
19.0265,22.3376
19.0807,22.2565
19.1618,22.2023
19.2575,22.1832
19.9325,22.1832
20.0282,22.2023
20.1093,22.2565
20.1635,22.3376
20.1825,22.4332
Z" /> 
<path style="fill:#B4A09A; fill-opacity:0.9000; stroke:none;fill-rule:evenodd;"
d="M 18.1075,23.3833
18.0885,23.4789
18.0343,23.5600
17.9532,23.6142
17.8575,23.6333
17.1825,23.6333
17.0868,23.6142
17.0057,23.5600
16.9515,23.4789
16.9325,23.3833
16.9325,22.4332
16.9515,22.3376
17.0057,22.2565
17.0868,22.2023
17.1825,22.1832
17.8575,22.1832
17.9532,22.2023
18.0343,22.2565
18.0885,22.3376
18.1075,22.4332
Z" /> 
<path style="fill:#B4A09A; fill-opacity:0.9000; stroke:none;fill-rule:evenodd;"
d="M 29.3900,58.4632
29.4857,58.4823
29.5668,58.5365
29.6210,58.6176
29.6400,58.7132
29.6400,59.5382
29.6210,59.6339
29.5668,59.7150
29.4857,59.7692
29.3900,59.7882
27.1900,59.7882
27.0943,59.7692
27.0132,59.7150
26.9590,59.6339
26.9400,59.5382
26.9400,58.7132
26.9590,58.6176
27.0132,58.5365
27.0943,58.4823
27.1900,58.4632
Z" /> 
<path style="fill:#B4A09A; fill-opacity:0.9000; stroke:none;fill-rule:evenodd;"
d="M 29.3900,61.5882
29.4857,61.6073
29.5668,61.6615
29.6210,61.7426
29.6400,61.8382
29.6400,62.6632
29.6210,62.7589
29.5668,62.8400
29.4857,62.8942
29.3900,62.9132
27.1900,62.9132
27.0943,62.8942
27.0132,62.8400
26.9590,62.7589
26.9400,62.6632
26.9400,61.8382
26.9590,61.7426
27.0132,61.6615
27.0943,61.6073
27.1900,61.5882
Z" /> 
<path style="fill:#B4A09A; fill-opacity:0.9000; stroke:none;fill-rule:evenodd;"
d="M 35.4700,35.6360
35.4531,35.7211
35.4049,35.7932
35.3328,35.8413
35.2478,35.8582
32.5922,35.8582
32.5072,35.8413
32.4351,35.7932
32.3869,35.7211
32.3700,35.6360
32.3700,33.6805
32.3869,33.5954
32.4351,33.5233
32.5072,33.4752
32.5922,33.4582
35.2478,33.4582
35.3328,33.4752
35.4049,33.5233
35.4531,33.5954
35.4700,33.6805
Z" /> 
<path style="fill:#B4A09A; fill-opacity:0.9000; stroke:none;fill-rule:evenodd;"
d="M 30.7700,35.6360
30.7531,35.7211
30.7049,35.7932
30.6328,35.8413
30.5478,35.8582
27.8922,35.8582
27.8072,35.8413
27.7351,35.7932
27.6869,35.7211
27.6700,35.6360
27.6700,33.6805
27.6869,33.5954
27.7351,33.5233
27.8072,33.4752
27.8922,33.4582
30.5478,33.4582
30.6328,33.4752
30.7049,33.5233
30.7531,33.5954
30.7700,33.6805
Z" /> 
<path style="fill:#B4A09A; fill-opacity:0.9000; stroke:none;fill-rule:evenodd;"
d="M 30.7200,44.0360
30.7031,44.1211
30.6549,44.1932
30.5828,44.2413
30.4978,44.2582
27.8422,44.2582
27.7572,44.2413
27.6851,44.1932
27.6369,44.1211
27.6200,44.0360
27.6200,42.0805
27.6369,41.9954
27.6851,41.9233
27.7572,41.8752
27.8422,41.8582
30.4978,41.8582
30.5828,41.8752
30.6549,41.9233
30.7031,41.9954
30.7200,42.0805
Z" /> 
<path style="fill:#B4A09A; fill-opacity:0.9000; stroke:none;fill-rule:evenodd;"
d="M 35.4200,44.0360
35.4031,44.1211
35.3549,44.1932
35.2828,44.2413
35.1978,44.2582
32.5422,44.2582
32.4572,44.2413
32.3851,44.1932
32.3369,44.1211
32.3200,44.0360
32.3200,42.0805
32.3369,41.9954
32.3851,41.9233
32.4572,41.8752
32.5422,41.8582
35.1978,41.8582
35.2828,41.8752
35.3549,41.9233
35.4031,41.9954
35.4200,42.0805
Z" /> 
<path style="fill:#B4A09A; fill-opacity:0.9000; stroke:none;fill-rule:evenodd;"
d="M 26.7200,49.9457
26.6243,49.9267
26.5432,49.8725
26.4890,49.7914
26.4700,49.6957
26.4700,48.8708
26.4890,48.7751
26.5432,48.6940
26.6243,48.6398
26.7200,48.6208
28.9200,48.6208
29.0157,48.6398
29.0968,48.6940
29.1510,48.7751
29.1700,48.8708
29.1700,49.6957
29.1510,49.7914
29.0968,49.8725
29.0157,49.9267
28.9200,49.9457
Z" /> 
<path style="fill:#B4A09A; fill-opacity:0.9000; stroke:none;fill-rule:evenodd;"
d="M 26.7200,46.8207
26.6243,46.8017
26.5432,46.7475
26.4890,46.6664
26.4700,46.5707
26.4700,45.7458
26.4890,45.6501
26.5432,45.5690
26.6243,45.5148
26.7200,45.4958
28.9200,45.4958
29.0157,45.5148
29.0968,45.5690
29.1510,45.6501
29.1700,45.7458
29.1700,46.5707
29.1510,46.6664
29.0968,46.7475
29.0157,46.8017
28.9200,46.8207
Z" /> 
<path style="fill:#B4A09A; fill-opacity:0.9000; stroke:none;fill-rule:evenodd;"
d="M 10.9075,28.7583
10.9189,28.7008
10.9514,28.6522
11.0001,28.6197
11.0575,28.6082
12.2325,28.6082
12.2899,28.6197
12.3386,28.6522
12.3711,28.7008
12.3825,28.7583
12.3825,29.0582
12.3711,29.1157
12.3386,29.1643
12.2899,29.1968
12.2325,29.2082
11.0575,29.2082
11.0001,29.1968
10.9514,29.1643
10.9189,29.1157
10.9075,29.0582
Z" /> 
<path style="fill:#B4A09A; fill-opacity:0.9000; stroke:none;fill-rule:evenodd;"
d="M 10.9075,30.6582
10.9189,30.6008
10.9514,30.5522
11.0001,30.5197
11.0575,30.5083
12.2325,30.5083
12.2899,30.5197
12.3386,30.5522
12.3711,30.6008
12.3825,30.6582
12.3825,30.9582
12.3711,31.0157
12.3386,31.0643
12.2899,31.0968
12.2325,31.1082
11.0575,31.1082
11.0001,31.0968
10.9514,31.0643
10.9189,31.0157
10.9075,30.9582
Z" /> 
<path style="fill:#B4A09A; fill-opacity:0.9000; stroke:none;fill-rule:evenodd;"
d="M 12.7825,29.7082
12.7939,29.6508
12.8264,29.6022
12.8751,29.5697
12.9325,29.5582
14.1075,29.5582
14.1649,29.5697
14.2136,29.6022
14.2461,29.6508
14.2575,29.7082
14.2575,30.0083
14.2461,30.0657
14.2136,30.1143
14.1649,30.1468
14.1075,30.1582
12.9325,30.1582
12.8751,30.1468
12.8264,30.1143
12.7939,30.0657
12.7825,30.0083
Z" /> 
<path style="fill:#B4A09A; fill-opacity:0.9000; stroke:none;fill-rule:evenodd;"
d="M 4.6075,65.0083
4.5166,64.9902
4.4396,64.9387
4.3881,64.8616
4.3700,64.7707
4.3700,64.2707
4.3881,64.1799
4.4396,64.1028
4.5166,64.0513
4.6075,64.0332
5.0825,64.0332
5.1734,64.0513
5.2504,64.1028
5.3019,64.1799
5.3200,64.2707
5.3200,64.7707
5.3019,64.8616
5.2504,64.9387
5.1734,64.9902
5.0825,65.0083
Z" /> 
<path style="fill:#B4A09A; fill-opacity:0.9000; stroke:none;fill-rule:evenodd;"
d="M 4.6075,63.1832
4.5166,63.1652
4.4396,63.1137
4.3881,63.0366
4.3700,62.9457
4.3700,62.4457
4.3881,62.3549
4.4396,62.2778
4.5166,62.2263
4.6075,62.2082
5.0825,62.2082
5.1734,62.2263
5.2504,62.2778
5.3019,62.3549
5.3200,62.4457
5.3200,62.9457
5.3019,63.0366
5.2504,63.1137
5.1734,63.1652
5.0825,63.1832
Z" /> 
<path style="fill:#B4A09A; fill-opacity:0.9000; stroke:none;fill-rule:evenodd;"
d="M 31.1700,26.0582
31.0743,26.0392
30.9932,25.9850
30.9390,25.9039
30.9200,25.8082
30.9200,25.1082
30.9390,25.0126
30.9932,24.9315
31.0743,24.8773
31.1700,24.8582
32.0700,24.8582
32.1657,24.8773
32.2468,24.9315
32.3010,25.0126
32.3200,25.1082
32.3200,25.8082
32.3010,25.9039
32.2468,25.9850
32.1657,26.0392
32.0700,26.0582
Z" /> 
<path style="fill:#B4A09A; fill-opacity:0.9000; stroke:none;fill-rule:evenodd;"
d="M 31.1700,24.0582
31.0743,24.0392
30.9932,23.9850
30.9390,23.9039
30.9200,23.8082
30.9200,23.1082
30.9390,23.0126
30.9932,22.9315
31.0743,22.8773
31.1700,22.8582
32.0700,22.8582
32.1657,22.8773
32.2468,22.9315
32.3010,23.0126
32.3200,23.1082
32.3200,23.8082
32.3010,23.9039
32.2468,23.9850
32.1657,24.0392
32.0700,24.0582
Z" /> 
<path style="fill:#B4A09A; fill-opacity:0.9000; stroke:none;fill-rule:evenodd;"
d="M 17.0200,20.4582
17.0390,20.3626
17.0932,20.2815
17.1743,20.2273
17.2700,20.2082
17.9700,20.2082
18.0657,20.2273
18.1468,20.2815
18.2010,20.3626
18.2200,20.4582
18.2200,21.3582
18.2010,21.4539
18.1468,21.5350
18.0657,21.5892
17.9700,21.6082
17.2700,21.6082
17.1743,21.5892
17.0932,21.5350
17.0390,21.4539
17.0200,21.3582
Z" /> 
<path style="fill:#B4A09A; fill-opacity:0.9000; stroke:none;fill-rule:evenodd;"
d="M 19.0200,20.4582
19.0390,20.3626
19.0932,20.2815
19.1743,20.2273
19.2700,20.2082
19.9700,20.2082
20.0657,20.2273
20.1468,20.2815
20.2010,20.3626
20.2200,20.4582
20.2200,21.3582
20.2010,21.4539
20.1468,21.5350
20.0657,21.5892
19.9700,21.6082
19.2700,21.6082
19.1743,21.5892
19.0932,21.5350
19.0390,21.4539
19.0200,21.3582
Z" /> 
<path style="fill:#B4A09A; fill-opacity:0.9000; stroke:none;fill-rule:evenodd;"
d="M 19.6150,46.4582
19.5193,46.4392
19.4382,46.3850
19.3840,46.3039
19.3650,46.2082
19.3650,45.3082
19.3840,45.2126
19.4382,45.1315
19.5193,45.0773
19.6150,45.0583
22.4650,45.0583
22.5607,45.0773
22.6418,45.1315
22.6960,45.2126
22.7150,45.3083
22.7150,46.2083
22.6960,46.3039
22.6418,46.3850
22.5607,46.4392
22.4650,46.4582
Z" /> 
<path style="fill:#B4A09A; fill-opacity:0.9000; stroke:none;fill-rule:evenodd;"
d="M 19.6150,40.3582
19.5193,40.3392
19.4382,40.2850
19.3840,40.2039
19.3650,40.1082
19.3650,39.2082
19.3840,39.1126
19.4382,39.0315
19.5193,38.9773
19.6150,38.9583
22.4650,38.9582
22.5607,38.9773
22.6418,39.0315
22.6960,39.1126
22.7150,39.2082
22.7150,40.1083
22.6960,40.2039
22.6418,40.2850
22.5607,40.3392
22.4650,40.3582
Z" /> 
<path style="fill:#B4A09A; fill-opacity:0.9000; stroke:none;fill-rule:evenodd;"
d="M 50.0535,39.2342
50.0725,39.1386
50.1267,39.0575
50.2078,39.0033
50.3035,38.9842
50.9785,38.9842
51.0742,39.0033
51.1553,39.0575
51.2095,39.1386
51.2285,39.2342
51.2285,40.1842
51.2095,40.2799
51.1553,40.3610
51.0742,40.4152
50.9785,40.4342
50.3035,40.4342
50.2078,40.4152
50.1267,40.3610
50.0725,40.2799
50.0535,40.1842
Z" /> 
<path style="fill:#B4A09A; fill-opacity:0.9000; stroke:none;fill-rule:evenodd;"
d="M 52.1285,39.2342
52.1475,39.1386
52.2017,39.0575
52.2828,39.0033
52.3785,38.9842
53.0535,38.9842
53.1492,39.0033
53.2303,39.0575
53.2845,39.1386
53.3035,39.2342
53.3035,40.1842
53.2845,40.2799
53.2303,40.3610
53.1492,40.4152
53.0535,40.4342
52.3785,40.4342
52.2828,40.4152
52.2017,40.3610
52.1475,40.2799
52.1285,40.1842
Z" /> 
<path style="fill:#B4A09A; fill-opacity:0.9000; stroke:none;fill-rule:evenodd;"
d="M 27.7400,65.9282
27.7400,68.1282
26.0400,68.1282
26.0400,65.9282
Z" /> 
<path style="fill:#B4A09A; fill-opacity:0.9000; stroke:none;fill-rule:evenodd;"
d="M 22.4400,65.9282
22.4400,68.1282
20.7400,68.1282
20.7400,65.9282
Z" /> 
<path style="fill:none; 
stroke:#D0D2CD; stroke-width:0.0500; stroke-opacity:1; 
stroke-linecap:round; stroke-linejoin:round;fill:none"
d="M 0.0500,6.2582
58.9200,6.2582
58.9200,85.4582
0.0500,85.4582
Z" /> 
</g> 
</svg>
