%TF.GenerationSoftware,KiCad,Pcbnew,8.0.1*%
%TF.CreationDate,2024-07-26T10:33:21+02:00*%
%TF.ProjectId,SEPIC-B,53455049-432d-4422-9e6b-696361645f70,rev?*%
%TF.SameCoordinates,Original*%
%TF.FileFunction,Other,User*%
%FSLAX46Y46*%
G04 Gerber Fmt 4.6, Leading zero omitted, Abs format (unit mm)*
G04 Created by KiCad (PCBNEW 8.0.1) date 2024-07-26 10:33:21*
%MOMM*%
%LPD*%
G01*
G04 APERTURE LIST*
%ADD10C,0.050000*%
G04 APERTURE END LIST*
D10*
%TO.C,R5*%
X172950000Y-92240000D02*
X174850000Y-92240000D01*
X172950000Y-95940000D02*
X172950000Y-92240000D01*
X174850000Y-92240000D02*
X174850000Y-95940000D01*
X174850000Y-95940000D02*
X172950000Y-95940000D01*
%TO.C,C41*%
X194682500Y-83220000D02*
X198442500Y-83220000D01*
X194682500Y-85180000D02*
X194682500Y-83220000D01*
X198442500Y-83220000D02*
X198442500Y-85180000D01*
X198442500Y-85180000D02*
X194682500Y-85180000D01*
%TO.C,R28*%
X159712500Y-98350000D02*
X161472500Y-98350000D01*
X159712500Y-99050000D02*
X159712500Y-98350000D01*
X161472500Y-98350000D02*
X161472500Y-99050000D01*
X161472500Y-99050000D02*
X159712500Y-99050000D01*
%TO.C,C5*%
X192437500Y-96530000D02*
X197397500Y-96530000D01*
X192437500Y-99730000D02*
X192437500Y-96530000D01*
X197397500Y-96530000D02*
X197397500Y-99730000D01*
X197397500Y-99730000D02*
X192437500Y-99730000D01*
%TO.C,C50*%
X165898000Y-117140500D02*
X167858000Y-117140500D01*
X165898000Y-120900500D02*
X165898000Y-117140500D01*
X167858000Y-117140500D02*
X167858000Y-120900500D01*
X167858000Y-120900500D02*
X165898000Y-120900500D01*
%TO.C,R34*%
X209151500Y-91598000D02*
X210911500Y-91598000D01*
X209151500Y-92298000D02*
X209151500Y-91598000D01*
X210911500Y-91598000D02*
X210911500Y-92298000D01*
X210911500Y-92298000D02*
X209151500Y-92298000D01*
%TO.C,C54*%
X206378500Y-89571000D02*
X210138500Y-89571000D01*
X206378500Y-91531000D02*
X206378500Y-89571000D01*
X210138500Y-89571000D02*
X210138500Y-91531000D01*
X210138500Y-91531000D02*
X206378500Y-91531000D01*
%TO.C,R27*%
X206332500Y-70135000D02*
X208092500Y-70135000D01*
X206332500Y-70835000D02*
X206332500Y-70135000D01*
X208092500Y-70135000D02*
X208092500Y-70835000D01*
X208092500Y-70835000D02*
X206332500Y-70835000D01*
%TO.C,C37*%
X192780000Y-109290000D02*
X196540000Y-109290000D01*
X192780000Y-111250000D02*
X192780000Y-109290000D01*
X196540000Y-109290000D02*
X196540000Y-111250000D01*
X196540000Y-111250000D02*
X192780000Y-111250000D01*
%TO.C,R20*%
X164422500Y-70008000D02*
X166182500Y-70008000D01*
X164422500Y-70708000D02*
X164422500Y-70008000D01*
X166182500Y-70008000D02*
X166182500Y-70708000D01*
X166182500Y-70708000D02*
X164422500Y-70708000D01*
%TO.C,C7*%
X192512500Y-100030000D02*
X197472500Y-100030000D01*
X192512500Y-103230000D02*
X192512500Y-100030000D01*
X197472500Y-100030000D02*
X197472500Y-103230000D01*
X197472500Y-103230000D02*
X192512500Y-103230000D01*
%TO.C,C49*%
X160785500Y-99223000D02*
X164545500Y-99223000D01*
X160785500Y-101183000D02*
X160785500Y-99223000D01*
X164545500Y-99223000D02*
X164545500Y-101183000D01*
X164545500Y-101183000D02*
X160785500Y-101183000D01*
%TO.C,C42*%
X194057500Y-86700000D02*
X199017500Y-86700000D01*
X194057500Y-89900000D02*
X194057500Y-86700000D01*
X199017500Y-86700000D02*
X199017500Y-89900000D01*
X199017500Y-89900000D02*
X194057500Y-89900000D01*
%TO.C,C1*%
X192770000Y-107280000D02*
X196530000Y-107280000D01*
X192770000Y-109240000D02*
X192770000Y-107280000D01*
X196530000Y-107280000D02*
X196530000Y-109240000D01*
X196530000Y-109240000D02*
X192770000Y-109240000D01*
%TO.C,C48*%
X205141000Y-71145000D02*
X207101000Y-71145000D01*
X205141000Y-74905000D02*
X205141000Y-71145000D01*
X207101000Y-71145000D02*
X207101000Y-74905000D01*
X207101000Y-74905000D02*
X205141000Y-74905000D01*
%TO.C,C45*%
X165125000Y-70902000D02*
X168885000Y-70902000D01*
X165125000Y-72862000D02*
X165125000Y-70902000D01*
X168885000Y-70902000D02*
X168885000Y-72862000D01*
X168885000Y-72862000D02*
X165125000Y-72862000D01*
%TO.C,C23*%
X194682500Y-81120000D02*
X198442500Y-81120000D01*
X194682500Y-83080000D02*
X194682500Y-81120000D01*
X198442500Y-81120000D02*
X198442500Y-83080000D01*
X198442500Y-83080000D02*
X194682500Y-83080000D01*
%TO.C,C6*%
X194682500Y-91700000D02*
X199642500Y-91700000D01*
X194682500Y-94900000D02*
X194682500Y-91700000D01*
X199642500Y-91700000D02*
X199642500Y-94900000D01*
X199642500Y-94900000D02*
X194682500Y-94900000D01*
%TO.C,R30*%
X164549500Y-121062000D02*
X166309500Y-121062000D01*
X164549500Y-121762000D02*
X164549500Y-121062000D01*
X166309500Y-121062000D02*
X166309500Y-121762000D01*
X166309500Y-121762000D02*
X164549500Y-121762000D01*
%TD*%
M02*
