%TF.GenerationSoftware,KiCad,Pcbnew,8.0.1*%
%TF.CreationDate,2024-07-26T10:33:20+02:00*%
%TF.ProjectId,SEPIC-B,53455049-432d-4422-9e6b-696361645f70,rev?*%
%TF.SameCoordinates,Original*%
%TF.FileFunction,Copper,L1,Top*%
%TF.FilePolarity,Positive*%
%FSLAX46Y46*%
G04 Gerber Fmt 4.6, Leading zero omitted, Abs format (unit mm)*
G04 Created by KiCad (PCBNEW 8.0.1) date 2024-07-26 10:33:20*
%MOMM*%
%LPD*%
G01*
G04 APERTURE LIST*
G04 Aperture macros list*
%AMRoundRect*
0 Rectangle with rounded corners*
0 $1 Rounding radius*
0 $2 $3 $4 $5 $6 $7 $8 $9 X,Y pos of 4 corners*
0 Add a 4 corners polygon primitive as box body*
4,1,4,$2,$3,$4,$5,$6,$7,$8,$9,$2,$3,0*
0 Add four circle primitives for the rounded corners*
1,1,$1+$1,$2,$3*
1,1,$1+$1,$4,$5*
1,1,$1+$1,$6,$7*
1,1,$1+$1,$8,$9*
0 Add four rect primitives between the rounded corners*
20,1,$1+$1,$2,$3,$4,$5,0*
20,1,$1+$1,$4,$5,$6,$7,0*
20,1,$1+$1,$6,$7,$8,$9,0*
20,1,$1+$1,$8,$9,$2,$3,0*%
G04 Aperture macros list end*
%TA.AperFunction,Conductor*%
%ADD10C,0.120000*%
%TD*%
%TA.AperFunction,EtchedComponent*%
%ADD11C,0.200000*%
%TD*%
%TA.AperFunction,SMDPad,CuDef*%
%ADD12RoundRect,0.250000X-1.100000X0.412500X-1.100000X-0.412500X1.100000X-0.412500X1.100000X0.412500X0*%
%TD*%
%TA.AperFunction,SMDPad,CuDef*%
%ADD13R,2.000000X4.100000*%
%TD*%
%TA.AperFunction,SMDPad,CuDef*%
%ADD14RoundRect,0.250000X0.350000X0.450000X-0.350000X0.450000X-0.350000X-0.450000X0.350000X-0.450000X0*%
%TD*%
%TA.AperFunction,SMDPad,CuDef*%
%ADD15RoundRect,0.250000X-0.350000X-0.450000X0.350000X-0.450000X0.350000X0.450000X-0.350000X0.450000X0*%
%TD*%
%TA.AperFunction,SMDPad,CuDef*%
%ADD16RoundRect,0.250000X-0.450000X0.350000X-0.450000X-0.350000X0.450000X-0.350000X0.450000X0.350000X0*%
%TD*%
%TA.AperFunction,SMDPad,CuDef*%
%ADD17RoundRect,0.250000X0.650000X-0.412500X0.650000X0.412500X-0.650000X0.412500X-0.650000X-0.412500X0*%
%TD*%
%TA.AperFunction,SMDPad,CuDef*%
%ADD18RoundRect,0.237500X-0.300000X-0.237500X0.300000X-0.237500X0.300000X0.237500X-0.300000X0.237500X0*%
%TD*%
%TA.AperFunction,SMDPad,CuDef*%
%ADD19RoundRect,0.250000X0.450000X-0.350000X0.450000X0.350000X-0.450000X0.350000X-0.450000X-0.350000X0*%
%TD*%
%TA.AperFunction,SMDPad,CuDef*%
%ADD20RoundRect,0.100000X-0.217500X-0.100000X0.217500X-0.100000X0.217500X0.100000X-0.217500X0.100000X0*%
%TD*%
%TA.AperFunction,SMDPad,CuDef*%
%ADD21C,1.100000*%
%TD*%
%TA.AperFunction,SMDPad,CuDef*%
%ADD22RoundRect,0.250000X0.337500X0.475000X-0.337500X0.475000X-0.337500X-0.475000X0.337500X-0.475000X0*%
%TD*%
%TA.AperFunction,SMDPad,CuDef*%
%ADD23RoundRect,0.250000X-0.475000X0.337500X-0.475000X-0.337500X0.475000X-0.337500X0.475000X0.337500X0*%
%TD*%
%TA.AperFunction,SMDPad,CuDef*%
%ADD24R,0.700000X1.150000*%
%TD*%
%TA.AperFunction,SMDPad,CuDef*%
%ADD25R,4.200000X3.100000*%
%TD*%
%TA.AperFunction,SMDPad,CuDef*%
%ADD26R,4.700000X1.500000*%
%TD*%
%TA.AperFunction,SMDPad,CuDef*%
%ADD27RoundRect,0.155000X0.155000X-0.212500X0.155000X0.212500X-0.155000X0.212500X-0.155000X-0.212500X0*%
%TD*%
%TA.AperFunction,SMDPad,CuDef*%
%ADD28RoundRect,0.160000X-0.160000X0.197500X-0.160000X-0.197500X0.160000X-0.197500X0.160000X0.197500X0*%
%TD*%
%TA.AperFunction,SMDPad,CuDef*%
%ADD29RoundRect,0.155000X-0.155000X0.212500X-0.155000X-0.212500X0.155000X-0.212500X0.155000X0.212500X0*%
%TD*%
%TA.AperFunction,SMDPad,CuDef*%
%ADD30R,4.000000X2.000000*%
%TD*%
%TA.AperFunction,ComponentPad*%
%ADD31R,2.955000X2.955000*%
%TD*%
%TA.AperFunction,ComponentPad*%
%ADD32C,2.955000*%
%TD*%
%TA.AperFunction,SMDPad,CuDef*%
%ADD33RoundRect,0.250000X-0.412500X-1.100000X0.412500X-1.100000X0.412500X1.100000X-0.412500X1.100000X0*%
%TD*%
%TA.AperFunction,SMDPad,CuDef*%
%ADD34RoundRect,0.100000X0.217500X0.100000X-0.217500X0.100000X-0.217500X-0.100000X0.217500X-0.100000X0*%
%TD*%
%TA.AperFunction,SMDPad,CuDef*%
%ADD35RoundRect,0.140000X0.140000X0.170000X-0.140000X0.170000X-0.140000X-0.170000X0.140000X-0.170000X0*%
%TD*%
%TA.AperFunction,SMDPad,CuDef*%
%ADD36RoundRect,0.250000X-0.337500X-0.475000X0.337500X-0.475000X0.337500X0.475000X-0.337500X0.475000X0*%
%TD*%
%TA.AperFunction,SMDPad,CuDef*%
%ADD37RoundRect,0.250000X-0.650000X0.412500X-0.650000X-0.412500X0.650000X-0.412500X0.650000X0.412500X0*%
%TD*%
%TA.AperFunction,ComponentPad*%
%ADD38C,0.800000*%
%TD*%
%TA.AperFunction,ComponentPad*%
%ADD39C,6.400000*%
%TD*%
%TA.AperFunction,SMDPad,CuDef*%
%ADD40RoundRect,0.250000X0.475000X-0.337500X0.475000X0.337500X-0.475000X0.337500X-0.475000X-0.337500X0*%
%TD*%
%TA.AperFunction,SMDPad,CuDef*%
%ADD41RoundRect,0.160000X-0.197500X-0.160000X0.197500X-0.160000X0.197500X0.160000X-0.197500X0.160000X0*%
%TD*%
%TA.AperFunction,SMDPad,CuDef*%
%ADD42RoundRect,0.250000X-1.950000X-1.000000X1.950000X-1.000000X1.950000X1.000000X-1.950000X1.000000X0*%
%TD*%
%TA.AperFunction,SMDPad,CuDef*%
%ADD43RoundRect,0.237500X0.237500X-0.300000X0.237500X0.300000X-0.237500X0.300000X-0.237500X-0.300000X0*%
%TD*%
%TA.AperFunction,SMDPad,CuDef*%
%ADD44RoundRect,0.250000X0.412500X1.100000X-0.412500X1.100000X-0.412500X-1.100000X0.412500X-1.100000X0*%
%TD*%
%TA.AperFunction,SMDPad,CuDef*%
%ADD45R,1.700000X2.200000*%
%TD*%
%TA.AperFunction,SMDPad,CuDef*%
%ADD46RoundRect,0.155000X-0.212500X-0.155000X0.212500X-0.155000X0.212500X0.155000X-0.212500X0.155000X0*%
%TD*%
%TA.AperFunction,SMDPad,CuDef*%
%ADD47RoundRect,0.250000X0.800000X-0.450000X0.800000X0.450000X-0.800000X0.450000X-0.800000X-0.450000X0*%
%TD*%
%TA.AperFunction,SMDPad,CuDef*%
%ADD48R,1.200000X1.200000*%
%TD*%
%TA.AperFunction,SMDPad,CuDef*%
%ADD49RoundRect,0.160000X0.160000X-0.197500X0.160000X0.197500X-0.160000X0.197500X-0.160000X-0.197500X0*%
%TD*%
%TA.AperFunction,SMDPad,CuDef*%
%ADD50R,1.525000X0.700000*%
%TD*%
%TA.AperFunction,SMDPad,CuDef*%
%ADD51RoundRect,0.250000X-0.800000X0.450000X-0.800000X-0.450000X0.800000X-0.450000X0.800000X0.450000X0*%
%TD*%
%TA.AperFunction,SMDPad,CuDef*%
%ADD52RoundRect,0.222222X1.327778X0.977778X-1.327778X0.977778X-1.327778X-0.977778X1.327778X-0.977778X0*%
%TD*%
%TA.AperFunction,SMDPad,CuDef*%
%ADD53RoundRect,0.250000X1.100000X-0.412500X1.100000X0.412500X-1.100000X0.412500X-1.100000X-0.412500X0*%
%TD*%
%TA.AperFunction,SMDPad,CuDef*%
%ADD54RoundRect,0.150000X-0.587500X-0.150000X0.587500X-0.150000X0.587500X0.150000X-0.587500X0.150000X0*%
%TD*%
%TA.AperFunction,SMDPad,CuDef*%
%ADD55RoundRect,0.100000X0.100000X-0.217500X0.100000X0.217500X-0.100000X0.217500X-0.100000X-0.217500X0*%
%TD*%
%TA.AperFunction,SMDPad,CuDef*%
%ADD56RoundRect,0.249999X1.425001X-0.450001X1.425001X0.450001X-1.425001X0.450001X-1.425001X-0.450001X0*%
%TD*%
%TA.AperFunction,ViaPad*%
%ADD57C,0.600000*%
%TD*%
%TA.AperFunction,Conductor*%
%ADD58C,0.300000*%
%TD*%
%TA.AperFunction,Conductor*%
%ADD59C,0.240000*%
%TD*%
%TA.AperFunction,Conductor*%
%ADD60C,0.130000*%
%TD*%
%TA.AperFunction,Conductor*%
%ADD61C,0.250000*%
%TD*%
G04 APERTURE END LIST*
D10*
%TO.N,Net-(Q1-S_1)*%
X177600000Y-90500000D02*
X177600000Y-91800000D01*
%TD*%
%TO.C,C17*%
D11*
X171220000Y-113892500D02*
X169420000Y-113892500D01*
X169420000Y-114292500D01*
X171220000Y-114292500D01*
X171220000Y-113892500D01*
%TA.AperFunction,EtchedComponent*%
%TO.C,C17*%
G36*
X171220000Y-113892500D02*
G01*
X169420000Y-113892500D01*
X169420000Y-114292500D01*
X171220000Y-114292500D01*
X171220000Y-113892500D01*
G37*
%TD.AperFunction*%
X171220000Y-118392500D02*
X169420000Y-118392500D01*
X169420000Y-118792500D01*
X171220000Y-118792500D01*
X171220000Y-118392500D01*
%TA.AperFunction,EtchedComponent*%
G36*
X171220000Y-118392500D02*
G01*
X169420000Y-118392500D01*
X169420000Y-118792500D01*
X171220000Y-118792500D01*
X171220000Y-118392500D01*
G37*
%TD.AperFunction*%
%TD*%
D12*
%TO.P,C17,*%
%TO.N,*%
X170320000Y-114850000D03*
X170320000Y-117975000D03*
D13*
%TO.P,C17,1*%
%TO.N,V_HIGH*%
X170320000Y-112042500D03*
%TO.P,C17,2*%
%TO.N,Net-(C17-Pad2)*%
X170320000Y-120742500D03*
%TD*%
D14*
%TO.P,R16,1*%
%TO.N,Net-(C14-Pad2)*%
X182870000Y-121840000D03*
%TO.P,R16,2*%
%TO.N,GND*%
X180870000Y-121840000D03*
%TD*%
D15*
%TO.P,R6,1*%
%TO.N,Net-(D3-K)*%
X170830000Y-90960000D03*
%TO.P,R6,2*%
%TO.N,Net-(Q1-G)*%
X172830000Y-90960000D03*
%TD*%
D16*
%TO.P,R14,2*%
%TO.N,GNDREF*%
X206540000Y-119300000D03*
%TO.P,R14,1*%
%TO.N,Net-(C14-Pad2)*%
X206540000Y-117300000D03*
%TD*%
D17*
%TO.P,C28,1*%
%TO.N,Net-(Q1-D_1)*%
X184500000Y-82625000D03*
%TO.P,C28,2*%
%TO.N,Net-(D2-A)*%
X184500000Y-79500000D03*
%TD*%
D15*
%TO.P,R4,1*%
%TO.N,Net-(D3-A)*%
X170830000Y-88990000D03*
%TO.P,R4,2*%
%TO.N,Net-(Q1-G)*%
X172830000Y-88990000D03*
%TD*%
D18*
%TO.P,C33,1*%
%TO.N,Net-(C33-Pad1)*%
X164945000Y-85300000D03*
%TO.P,C33,2*%
%TO.N,GND*%
X166670000Y-85300000D03*
%TD*%
D19*
%TO.P,R2,1*%
%TO.N,Net-(C22-Pad2)*%
X186200000Y-76300000D03*
%TO.P,R2,2*%
%TO.N,V_LOW*%
X186200000Y-74300000D03*
%TD*%
D20*
%TO.P,R11,1*%
%TO.N,GNDH*%
X167020000Y-70540000D03*
%TO.P,R11,2*%
%TO.N,Net-(C34-Pad2)*%
X167835000Y-70540000D03*
%TD*%
D21*
%TO.P,TP17,1,1*%
%TO.N,Net-(C40-Pad1)*%
X172410000Y-86980000D03*
%TD*%
D22*
%TO.P,C25,1*%
%TO.N,V_HIGH*%
X189200000Y-97000000D03*
%TO.P,C25,2*%
%TO.N,GND*%
X187125000Y-97000000D03*
%TD*%
D23*
%TO.P,C36,1*%
%TO.N,GND*%
X163400000Y-112665000D03*
%TO.P,C36,2*%
%TO.N,Net-(C36-Pad2)*%
X163400000Y-114740000D03*
%TD*%
D24*
%TO.P,Q1,1,S_1*%
%TO.N,Net-(Q1-S_1)*%
X177845000Y-88475000D03*
%TO.P,Q1,2,S_2*%
X179115000Y-88475000D03*
%TO.P,Q1,3,S_3*%
X180385000Y-88475000D03*
%TO.P,Q1,4,G*%
%TO.N,Net-(Q1-G)*%
X181655000Y-88475000D03*
D25*
%TO.P,Q1,5,D_1*%
%TO.N,Net-(Q1-D_1)*%
X179750000Y-85300000D03*
D26*
%TO.P,Q1,6,D_2*%
X179750000Y-83000000D03*
%TD*%
D27*
%TO.P,C30,1*%
%TO.N,Net-(IC1-ISNS)*%
X173730000Y-95315000D03*
%TO.P,C30,2*%
%TO.N,GND*%
X173730000Y-94180000D03*
%TD*%
D28*
%TO.P,R7,1*%
%TO.N,Net-(Q1-G)*%
X182130000Y-90790000D03*
%TO.P,R7,2*%
%TO.N,GND*%
X182130000Y-91985000D03*
%TD*%
D21*
%TO.P,TP3,1,1*%
%TO.N,Net-(C1-Pad1)*%
X193080000Y-93500000D03*
%TD*%
%TO.P,TP1,1,1*%
%TO.N,Net-(C1-Pad1)*%
X186410000Y-104480000D03*
%TD*%
D29*
%TO.P,C44,1*%
%TO.N,Net-(IC1-EN)*%
X170700000Y-98200000D03*
%TO.P,C44,2*%
%TO.N,GND*%
X170700000Y-99335000D03*
%TD*%
D30*
%TO.P,FL1,1,1*%
%TO.N,+24V*%
X190510000Y-120670000D03*
%TO.P,FL1,2,2*%
%TO.N,Net-(C1-Pad1)*%
X190510000Y-116170000D03*
%TO.P,FL1,3,3*%
%TO.N,Net-(C14-Pad2)*%
X202510000Y-116170000D03*
%TO.P,FL1,4,4*%
%TO.N,GNDREF*%
X202510000Y-120670000D03*
%TD*%
D31*
%TO.P,J4,1,1*%
%TO.N,GND*%
X165040000Y-63290000D03*
D32*
%TO.P,J4,2,2*%
X180540000Y-63290000D03*
%TD*%
D15*
%TO.P,R25,1*%
%TO.N,GND*%
X168100000Y-83500000D03*
%TO.P,R25,2*%
%TO.N,Net-(IC1-EN)*%
X170100000Y-83500000D03*
%TD*%
D21*
%TO.P,TP14,1,1*%
%TO.N,Net-(Q1-G)*%
X182090000Y-89860000D03*
%TD*%
D16*
%TO.P,R29,1*%
%TO.N,V_LOW*%
X194600000Y-88600000D03*
%TO.P,R29,2*%
%TO.N,V_HIGH*%
X194600000Y-90600000D03*
%TD*%
D21*
%TO.P,TP11,1,1*%
%TO.N,Net-(Q1-D_1)*%
X174230000Y-81050000D03*
%TD*%
D22*
%TO.P,C38,1*%
%TO.N,GNDH*%
X210677500Y-106080000D03*
%TO.P,C38,2*%
%TO.N,Net-(C14-Pad2)*%
X208602500Y-106080000D03*
%TD*%
D21*
%TO.P,TP22,1,1*%
%TO.N,Net-(IC1-EN)*%
X172010000Y-98230000D03*
%TD*%
D33*
%TO.P,C9,1*%
%TO.N,Net-(C1-Pad1)*%
X193375000Y-101500000D03*
%TO.P,C9,2*%
%TO.N,Net-(C14-Pad2)*%
X196500000Y-101500000D03*
%TD*%
D15*
%TO.P,R15,1*%
%TO.N,V_HIGH*%
X178510000Y-108550000D03*
%TO.P,R15,2*%
%TO.N,Net-(C1-Pad1)*%
X180510000Y-108550000D03*
%TD*%
D34*
%TO.P,R31,1*%
%TO.N,GNDH*%
X210465500Y-91948000D03*
%TO.P,R31,2*%
%TO.N,Net-(C51-Pad2)*%
X209650500Y-91948000D03*
%TD*%
D12*
%TO.P,C18,1*%
%TO.N,V_HIGH*%
X178280000Y-110585000D03*
%TO.P,C18,2*%
%TO.N,GND*%
X178280000Y-113710000D03*
%TD*%
D35*
%TO.P,C29,1*%
%TO.N,Net-(Q1-G)*%
X181080000Y-89750000D03*
%TO.P,C29,2*%
%TO.N,Net-(Q1-S_1)*%
X180120000Y-89750000D03*
%TD*%
D36*
%TO.P,R17,1*%
%TO.N,Net-(Q1-D_1)*%
X176025000Y-81000000D03*
%TO.P,R17,2*%
%TO.N,Net-(C39-Pad1)*%
X178100000Y-81000000D03*
%TD*%
D23*
%TO.P,C46,1*%
%TO.N,V_HIGH*%
X164600000Y-94192500D03*
%TO.P,C46,2*%
%TO.N,GND*%
X164600000Y-96267500D03*
%TD*%
D37*
%TO.P,C47,1*%
%TO.N,V_HIGH*%
X162400000Y-94437500D03*
%TO.P,C47,2*%
%TO.N,GND*%
X162400000Y-97562500D03*
%TD*%
D38*
%TO.P,H1,1,1*%
%TO.N,GNDH*%
X158730000Y-73627056D03*
X159432944Y-71930000D03*
X159432944Y-75324112D03*
X161130000Y-71227056D03*
D39*
X161130000Y-73627056D03*
D38*
X161130000Y-76027056D03*
X162827056Y-71930000D03*
X162827056Y-75324112D03*
X163530000Y-73627056D03*
%TD*%
D22*
%TO.P,C21,1*%
%TO.N,V_LOW*%
X176200000Y-75750000D03*
%TO.P,C21,2*%
%TO.N,GND*%
X174125000Y-75750000D03*
%TD*%
D21*
%TO.P,TP18,1,1*%
%TO.N,Net-(Q1-S_1)*%
X180100000Y-91010000D03*
%TD*%
D40*
%TO.P,C35,1*%
%TO.N,GND*%
X206190000Y-74147500D03*
%TO.P,C35,2*%
%TO.N,Net-(C35-Pad2)*%
X206190000Y-72072500D03*
%TD*%
D41*
%TO.P,R10,1*%
%TO.N,Net-(C33-Pad1)*%
X164975000Y-86800000D03*
%TO.P,R10,2*%
%TO.N,Net-(IC1-VC)*%
X166170000Y-86800000D03*
%TD*%
D21*
%TO.P,TP12,1,1*%
%TO.N,Net-(C22-Pad2)*%
X189760000Y-75740000D03*
%TD*%
%TO.P,TP16,1,1*%
%TO.N,Net-(D3-K)*%
X166900000Y-90990000D03*
%TD*%
D19*
%TO.P,R1,1*%
%TO.N,Net-(C22-Pad2)*%
X184200000Y-76300000D03*
%TO.P,R1,2*%
%TO.N,V_LOW*%
X184200000Y-74300000D03*
%TD*%
D21*
%TO.P,TP21,1,1*%
%TO.N,VFB*%
X172660000Y-71710000D03*
%TD*%
D15*
%TO.P,R19,1*%
%TO.N,Net-(C40-Pad1)*%
X174000000Y-85000000D03*
%TO.P,R19,2*%
%TO.N,Net-(Q1-D_1)*%
X176000000Y-85000000D03*
%TD*%
D22*
%TO.P,C2,1*%
%TO.N,GNDH*%
X210715000Y-108280000D03*
%TO.P,C2,2*%
%TO.N,Net-(C14-Pad2)*%
X208640000Y-108280000D03*
%TD*%
D15*
%TO.P,R24,1*%
%TO.N,V_HIGH*%
X168090000Y-77970000D03*
%TO.P,R24,2*%
%TO.N,Net-(IC1-EN)*%
X170090000Y-77970000D03*
%TD*%
D34*
%TO.P,R12,1*%
%TO.N,GNDH*%
X207647500Y-70460000D03*
%TO.P,R12,2*%
%TO.N,Net-(C35-Pad2)*%
X206832500Y-70460000D03*
%TD*%
D42*
%TO.P,C26,1,+*%
%TO.N,V_LOW*%
X194500000Y-78500000D03*
%TO.P,C26,2,-*%
%TO.N,GND*%
X202900000Y-78500000D03*
%TD*%
D20*
%TO.P,R32,1*%
%TO.N,GNDH*%
X171626000Y-101346000D03*
%TO.P,R32,2*%
%TO.N,Net-(C52-Pad2)*%
X172441000Y-101346000D03*
%TD*%
D21*
%TO.P,TP6,1,1*%
%TO.N,GND*%
X176490000Y-120140000D03*
%TD*%
D43*
%TO.P,C22,1*%
%TO.N,Net-(D2-A)*%
X189900000Y-78825000D03*
%TO.P,C22,2*%
%TO.N,Net-(C22-Pad2)*%
X189900000Y-77100000D03*
%TD*%
D12*
%TO.P,C16,1*%
%TO.N,Net-(C1-Pad1)*%
X181580000Y-110587500D03*
%TO.P,C16,2*%
%TO.N,Net-(C14-Pad2)*%
X181580000Y-113712500D03*
%TD*%
D21*
%TO.P,TP5,1,1*%
%TO.N,V_HIGH*%
X176430000Y-108600000D03*
%TD*%
D44*
%TO.P,C20,1*%
%TO.N,V_LOW*%
X176300000Y-78400000D03*
%TO.P,C20,2*%
%TO.N,GND*%
X173175000Y-78400000D03*
%TD*%
D21*
%TO.P,TP7,1,1*%
%TO.N,V_LOW*%
X182230000Y-74030000D03*
%TD*%
%TO.P,TP4,1,1*%
%TO.N,Net-(C14-Pad2)*%
X184450000Y-114610000D03*
%TD*%
%TO.P,TP9,1,1*%
%TO.N,Net-(D2-A)*%
X190530000Y-82790000D03*
%TD*%
D17*
%TO.P,C39,1*%
%TO.N,Net-(C39-Pad1)*%
X181750000Y-80875000D03*
%TO.P,C39,2*%
%TO.N,Net-(D2-A)*%
X181750000Y-77750000D03*
%TD*%
D14*
%TO.P,R35,1*%
%TO.N,GND*%
X178770000Y-121870000D03*
%TO.P,R35,2*%
%TO.N,Net-(C17-Pad2)*%
X176770000Y-121870000D03*
%TD*%
D33*
%TO.P,C8,1*%
%TO.N,Net-(C1-Pad1)*%
X193367500Y-98120000D03*
%TO.P,C8,2*%
%TO.N,Net-(C14-Pad2)*%
X196492500Y-98120000D03*
%TD*%
D17*
%TO.P,C27,1*%
%TO.N,Net-(Q1-D_1)*%
X187000000Y-82625000D03*
%TO.P,C27,2*%
%TO.N,Net-(D2-A)*%
X187000000Y-79500000D03*
%TD*%
D45*
%TO.P,L1,1,1*%
%TO.N,Net-(C1-Pad1)*%
X182700000Y-104470000D03*
%TO.P,L1,2,2*%
%TO.N,V_HIGH*%
X177400000Y-104470000D03*
%TD*%
D22*
%TO.P,C52,1*%
%TO.N,GND*%
X174773500Y-99949000D03*
%TO.P,C52,2*%
%TO.N,Net-(C52-Pad2)*%
X172698500Y-99949000D03*
%TD*%
D43*
%TO.P,C32,1*%
%TO.N,Net-(IC1-VC)*%
X164690000Y-90885000D03*
%TO.P,C32,2*%
%TO.N,GND*%
X164690000Y-89160000D03*
%TD*%
D32*
%TO.P,J1,1,1*%
%TO.N,+24V*%
X181050000Y-129930000D03*
%TO.P,J1,2,2*%
X165550000Y-129930000D03*
%TD*%
D40*
%TO.P,C34,1*%
%TO.N,GND*%
X167990000Y-74155000D03*
%TO.P,C34,2*%
%TO.N,Net-(C34-Pad2)*%
X167990000Y-72080000D03*
%TD*%
D31*
%TO.P,J3,1,1*%
%TO.N,GNDREF*%
X191110000Y-129340000D03*
D32*
%TO.P,J3,2,2*%
X206610000Y-129340000D03*
%TD*%
D21*
%TO.P,TP10,1,1*%
%TO.N,Net-(C39-Pad1)*%
X179800000Y-80930000D03*
%TD*%
%TO.P,TP15,1,1*%
%TO.N,Net-(D3-A)*%
X170750000Y-87140000D03*
%TD*%
%TO.P,TP24,1,1*%
%TO.N,V_HIGH*%
X168100000Y-76270000D03*
%TD*%
D23*
%TO.P,C31,1*%
%TO.N,GND*%
X162900000Y-89037500D03*
%TO.P,C31,2*%
%TO.N,Net-(IC1-VDRV)*%
X162900000Y-91112500D03*
%TD*%
D46*
%TO.P,C40,1*%
%TO.N,Net-(C40-Pad1)*%
X175265000Y-88600000D03*
%TO.P,C40,2*%
%TO.N,Net-(Q1-S_1)*%
X176400000Y-88600000D03*
%TD*%
D47*
%TO.P,D1,1,K*%
%TO.N,V_HIGH*%
X181100000Y-99500000D03*
%TO.P,D1,2,A*%
%TO.N,GND*%
X181100000Y-95100000D03*
%TD*%
D15*
%TO.P,R18,1*%
%TO.N,Net-(C40-Pad1)*%
X174000000Y-83000000D03*
%TO.P,R18,2*%
%TO.N,Net-(Q1-D_1)*%
X176000000Y-83000000D03*
%TD*%
D21*
%TO.P,TP13,1,1*%
%TO.N,V_HIGH*%
X188600000Y-98710000D03*
%TD*%
D48*
%TO.P,D3,1,K*%
%TO.N,Net-(D3-K)*%
X168810000Y-90980000D03*
%TO.P,D3,2,A*%
%TO.N,Net-(D3-A)*%
X168810000Y-88180000D03*
%TD*%
D32*
%TO.P,J2,1,1*%
%TO.N,V_LOW*%
X207500000Y-63835000D03*
%TO.P,J2,2,2*%
X192000000Y-63835000D03*
%TD*%
D21*
%TO.P,TP20,1,1*%
%TO.N,Net-(IC1-ISNS)*%
X174820000Y-95050000D03*
%TD*%
%TO.P,TP8,1,1*%
%TO.N,Net-(IC1-VC)*%
X166290000Y-89100000D03*
%TD*%
D16*
%TO.P,R13,1*%
%TO.N,Net-(C1-Pad1)*%
X185420000Y-117250000D03*
%TO.P,R13,2*%
%TO.N,+24V*%
X185420000Y-119250000D03*
%TD*%
D21*
%TO.P,TP2,1,1*%
%TO.N,Net-(C14-Pad2)*%
X198470000Y-102330000D03*
%TD*%
D49*
%TO.P,R9,1*%
%TO.N,GND*%
X168200000Y-99395000D03*
%TO.P,R9,2*%
%TO.N,VFB*%
X168200000Y-98200000D03*
%TD*%
D50*
%TO.P,IC1,1,EN*%
%TO.N,Net-(IC1-EN)*%
X172200000Y-96710000D03*
%TO.P,IC1,2,ISNS*%
%TO.N,Net-(IC1-ISNS)*%
X172200000Y-95440000D03*
%TO.P,IC1,3,GND*%
%TO.N,GND*%
X172200000Y-94170000D03*
%TO.P,IC1,4,GDRV*%
%TO.N,Net-(D3-K)*%
X172200000Y-92900000D03*
%TO.P,IC1,5,VDRV*%
%TO.N,Net-(IC1-VDRV)*%
X166776000Y-92900000D03*
%TO.P,IC1,6,VIN*%
%TO.N,V_HIGH*%
X166776000Y-94170000D03*
%TO.P,IC1,7,VC*%
%TO.N,Net-(IC1-VC)*%
X166776000Y-95440000D03*
%TO.P,IC1,8,VFB*%
%TO.N,VFB*%
X166776000Y-96710000D03*
%TD*%
D36*
%TO.P,C3,1*%
%TO.N,Net-(C1-Pad1)*%
X194532500Y-95530000D03*
%TO.P,C3,2*%
%TO.N,Net-(C14-Pad2)*%
X196607500Y-95530000D03*
%TD*%
D12*
%TO.P,C14,1*%
%TO.N,Net-(C1-Pad1)*%
X188140000Y-109987500D03*
%TO.P,C14,2*%
%TO.N,Net-(C14-Pad2)*%
X188140000Y-113112500D03*
%TD*%
D51*
%TO.P,D2,1,K*%
%TO.N,V_LOW*%
X179000000Y-74250000D03*
%TO.P,D2,2,A*%
%TO.N,Net-(D2-A)*%
X179000000Y-78650000D03*
%TD*%
D15*
%TO.P,R26,1*%
%TO.N,Net-(C40-Pad1)*%
X174000000Y-87000000D03*
%TO.P,R26,2*%
%TO.N,Net-(Q1-D_1)*%
X176000000Y-87000000D03*
%TD*%
D36*
%TO.P,C4,1*%
%TO.N,Net-(C1-Pad1)*%
X194532500Y-93490000D03*
%TO.P,C4,2*%
%TO.N,Net-(C14-Pad2)*%
X196607500Y-93490000D03*
%TD*%
D21*
%TO.P,TP25,1,1*%
%TO.N,Net-(C33-Pad1)*%
X163770000Y-86810000D03*
%TD*%
D22*
%TO.P,C19,1*%
%TO.N,V_LOW*%
X176175000Y-73750000D03*
%TO.P,C19,2*%
%TO.N,GND*%
X174100000Y-73750000D03*
%TD*%
D12*
%TO.P,C15,1*%
%TO.N,Net-(C1-Pad1)*%
X184870000Y-109967500D03*
%TO.P,C15,2*%
%TO.N,Net-(C14-Pad2)*%
X184870000Y-113092500D03*
%TD*%
D21*
%TO.P,TP23,1,1*%
%TO.N,V_HIGH*%
X161730000Y-92810000D03*
%TD*%
D52*
%TO.P,L3,1*%
%TO.N,Net-(D2-A)*%
X190500000Y-85500000D03*
%TO.P,L3,2*%
%TO.N,Net-(Q1-D_1)*%
X185800000Y-85500000D03*
%TO.P,L3,3*%
%TO.N,GND*%
X185750000Y-93900000D03*
%TO.P,L3,4*%
%TO.N,V_HIGH*%
X190450000Y-93900000D03*
%TD*%
D53*
%TO.P,C24,1*%
%TO.N,V_HIGH*%
X184400000Y-100125000D03*
%TO.P,C24,2*%
%TO.N,GND*%
X184400000Y-97000000D03*
%TD*%
D54*
%TO.P,U2,1,A*%
%TO.N,GND*%
X168225000Y-79750000D03*
%TO.P,U2,2,NC0*%
X168225000Y-81650000D03*
%TO.P,U2,3,K*%
%TO.N,Net-(IC1-EN)*%
X170100000Y-80700000D03*
%TD*%
D38*
%TO.P,H3,1,1*%
%TO.N,GNDH*%
X158720000Y-119670000D03*
X159422944Y-117972944D03*
X159422944Y-121367056D03*
X161120000Y-117270000D03*
D39*
X161120000Y-119670000D03*
D38*
X161120000Y-122070000D03*
X162817056Y-117972944D03*
X162817056Y-121367056D03*
X163520000Y-119670000D03*
%TD*%
D55*
%TO.P,R21,1*%
%TO.N,GNDH*%
X162000000Y-115610000D03*
%TO.P,R21,2*%
%TO.N,Net-(C36-Pad2)*%
X162000000Y-114795000D03*
%TD*%
D19*
%TO.P,R3,1*%
%TO.N,Net-(C22-Pad2)*%
X188200000Y-76300000D03*
%TO.P,R3,2*%
%TO.N,V_LOW*%
X188200000Y-74300000D03*
%TD*%
D15*
%TO.P,R8,1*%
%TO.N,VFB*%
X174200000Y-71750000D03*
%TO.P,R8,2*%
%TO.N,V_LOW*%
X176200000Y-71750000D03*
%TD*%
D56*
%TO.P,R23,1*%
%TO.N,GND*%
X177620000Y-96600000D03*
%TO.P,R23,2*%
%TO.N,Net-(Q1-S_1)*%
X177620000Y-90500000D03*
%TD*%
D38*
%TO.P,H4,1,1*%
%TO.N,GNDH*%
X208612944Y-119622944D03*
X209315888Y-117925888D03*
X209315888Y-121320000D03*
X211012944Y-117222944D03*
D39*
X211012944Y-119622944D03*
D38*
X211012944Y-122022944D03*
X212710000Y-117925888D03*
X212710000Y-121320000D03*
X213412944Y-119622944D03*
%TD*%
D36*
%TO.P,C51,1*%
%TO.N,GND*%
X207221000Y-90551000D03*
%TO.P,C51,2*%
%TO.N,Net-(C51-Pad2)*%
X209296000Y-90551000D03*
%TD*%
D38*
%TO.P,H2,1,1*%
%TO.N,GNDH*%
X208660000Y-73620000D03*
X209362944Y-71922944D03*
X209362944Y-75317056D03*
X211060000Y-71220000D03*
D39*
X211060000Y-73620000D03*
D38*
X211060000Y-76020000D03*
X212757056Y-71922944D03*
X212757056Y-75317056D03*
X213460000Y-73620000D03*
%TD*%
D45*
%TO.P,L2,1,1*%
%TO.N,Net-(C14-Pad2)*%
X183470000Y-117870000D03*
%TO.P,L2,2,2*%
%TO.N,GND*%
X178170000Y-117870000D03*
%TD*%
D57*
%TO.N,GND*%
X174773500Y-100990000D03*
X169330000Y-98660000D03*
X168120000Y-118000000D03*
X166880000Y-116880000D03*
X164630000Y-112650000D03*
%TO.N,GNDH*%
X159004000Y-79976000D03*
X182471000Y-134493000D03*
X212979000Y-100595000D03*
X159004000Y-109976000D03*
X186000000Y-59000000D03*
X198000000Y-59000000D03*
X212979000Y-103595000D03*
X159004000Y-130810000D03*
X212852000Y-132207000D03*
X164471000Y-134493000D03*
X212979000Y-67595000D03*
X212852000Y-126667000D03*
X204000000Y-59000000D03*
X185471000Y-134493000D03*
X212979000Y-82595000D03*
X212852000Y-123667000D03*
X168000000Y-59000000D03*
X165000000Y-59000000D03*
X161471000Y-134493000D03*
X159004000Y-82976000D03*
X212852000Y-134493000D03*
X176471000Y-134493000D03*
X206471000Y-134493000D03*
X159004000Y-61976000D03*
X159000000Y-59000000D03*
X179471000Y-134493000D03*
X159004000Y-124810000D03*
X183000000Y-59000000D03*
X159004000Y-85976000D03*
X188471000Y-134493000D03*
X197471000Y-134493000D03*
X159004000Y-88976000D03*
X159004000Y-64976000D03*
X200471000Y-134493000D03*
X195000000Y-59000000D03*
X203471000Y-134493000D03*
X194471000Y-134493000D03*
X213000000Y-59000000D03*
X159004000Y-106976000D03*
X159004000Y-103976000D03*
X212979000Y-97595000D03*
X159004000Y-67976000D03*
X212979000Y-94595000D03*
X212979000Y-91595000D03*
X201000000Y-59000000D03*
X189000000Y-59000000D03*
X159004000Y-94976000D03*
X212979000Y-88595000D03*
X180000000Y-59000000D03*
X210000000Y-59000000D03*
X207000000Y-59000000D03*
X212979000Y-109595000D03*
X212979000Y-115595000D03*
X170471000Y-134493000D03*
X212979000Y-64595000D03*
X212979000Y-79595000D03*
X167471000Y-134493000D03*
X212852000Y-129667000D03*
X209471000Y-134493000D03*
X212979000Y-61595000D03*
X177000000Y-59000000D03*
X192000000Y-59000000D03*
X212979000Y-106595000D03*
X159004000Y-100976000D03*
X162000000Y-59000000D03*
X159004000Y-115976000D03*
X159004000Y-134493000D03*
X212979000Y-112595000D03*
X174000000Y-59000000D03*
X173471000Y-134493000D03*
X191471000Y-134493000D03*
X159004000Y-112976000D03*
X159004000Y-97976000D03*
X159004000Y-127810000D03*
X159004000Y-91976000D03*
X171000000Y-59000000D03*
X212979000Y-85595000D03*
%TO.N,GND*%
X176800000Y-116430000D03*
X201490000Y-80130000D03*
X200450000Y-76850000D03*
X206520000Y-75200000D03*
X172080000Y-77920000D03*
X203490000Y-80130000D03*
X172800000Y-75700000D03*
X162500000Y-86700000D03*
X176140000Y-115080000D03*
X176130000Y-116420000D03*
X201450000Y-76850000D03*
X200490000Y-80130000D03*
X166740000Y-79750000D03*
X196970000Y-85900000D03*
X181200000Y-93600000D03*
X164800000Y-97500000D03*
X164400000Y-88100000D03*
X203450000Y-76850000D03*
X179830000Y-122410000D03*
X169100000Y-74180000D03*
X165500003Y-98200000D03*
X205450000Y-80130000D03*
X164080000Y-97500000D03*
X169330000Y-99430000D03*
X202450000Y-76850000D03*
X198690000Y-85920000D03*
X175310000Y-96240000D03*
X181900000Y-93600000D03*
X205720000Y-75180000D03*
X180500000Y-93600000D03*
X176800000Y-115750000D03*
X172800000Y-74300000D03*
X204450000Y-76850000D03*
X202490000Y-80130000D03*
X169440000Y-95280000D03*
X205450000Y-76850000D03*
X172800000Y-75000000D03*
X207220000Y-91790000D03*
X179800000Y-93600000D03*
X207240000Y-89470000D03*
X172070000Y-79900000D03*
X205450000Y-79130000D03*
X163400000Y-111602500D03*
X166870000Y-74170000D03*
X179810000Y-121310000D03*
X172080000Y-76630000D03*
X176800000Y-117790000D03*
X166870000Y-84170000D03*
X169500000Y-93540000D03*
X164800000Y-98200000D03*
X166780000Y-81490000D03*
X175370000Y-94030000D03*
X172000000Y-74300000D03*
X164100000Y-98200000D03*
X162500000Y-87500000D03*
X169460000Y-94380000D03*
X176790000Y-115060000D03*
X172070000Y-77290000D03*
X172060000Y-79220000D03*
X174780000Y-98890000D03*
X197810000Y-85910000D03*
X205450000Y-78130000D03*
X175290000Y-96950000D03*
X172000000Y-75000000D03*
X172010000Y-75680000D03*
X170945000Y-94190000D03*
X176140000Y-115740000D03*
X176790000Y-117110000D03*
X204490000Y-80130000D03*
X172080000Y-78600000D03*
%TO.N,Net-(C14-Pad2)*%
X193790000Y-113440000D03*
X193760000Y-112750000D03*
X197980000Y-97750000D03*
X198730000Y-97740000D03*
X190100000Y-113000000D03*
X198010000Y-98520000D03*
X190130000Y-113700000D03*
%TO.N,V_HIGH*%
X162870000Y-93150000D03*
X167000000Y-77800000D03*
X177900000Y-98700000D03*
%TO.N,V_LOW*%
X195100000Y-86000000D03*
X194000000Y-86000000D03*
%TO.N,Net-(Q1-G)*%
X181390000Y-90750000D03*
X173950000Y-90440219D03*
%TO.N,Net-(Q1-S_1)*%
X177590000Y-92200000D03*
%TO.N,Net-(IC1-ISNS)*%
X173730000Y-96140000D03*
%TO.N,VFB*%
X171650000Y-71720000D03*
X168200000Y-97040000D03*
%TO.N,Net-(IC1-EN)*%
X171320000Y-83510000D03*
X170700000Y-97100000D03*
%TO.N,Net-(C1-Pad1)*%
X192190000Y-98350000D03*
X193270000Y-104340000D03*
X193270000Y-103590000D03*
X192200000Y-99100000D03*
X193930000Y-103570000D03*
%TD*%
D58*
%TO.N,GND*%
X174773500Y-100990000D02*
X174773500Y-99949000D01*
X174773500Y-99949000D02*
X174773500Y-98896500D01*
X174773500Y-98896500D02*
X174780000Y-98890000D01*
X163415000Y-112650000D02*
X163400000Y-112665000D01*
X164630000Y-112650000D02*
X163415000Y-112650000D01*
X173730000Y-94180000D02*
X172210000Y-94180000D01*
X207221000Y-90551000D02*
X207221000Y-91789000D01*
X172210000Y-94180000D02*
X172200000Y-94170000D01*
X207240000Y-89470000D02*
X207221000Y-89489000D01*
X207221000Y-89489000D02*
X207221000Y-90551000D01*
X207221000Y-91789000D02*
X207220000Y-91790000D01*
X168015000Y-74180000D02*
X167990000Y-74155000D01*
D59*
X167990000Y-74155000D02*
X166885000Y-74155000D01*
D58*
X169100000Y-74180000D02*
X168015000Y-74180000D01*
X170965000Y-94170000D02*
X172200000Y-94170000D01*
X163400000Y-112665000D02*
X163400000Y-111602500D01*
D59*
X166885000Y-74155000D02*
X166870000Y-74170000D01*
D58*
X170945000Y-94190000D02*
X170965000Y-94170000D01*
D60*
%TO.N,V_HIGH*%
X162870000Y-93150000D02*
X162870000Y-93330000D01*
D61*
X168100000Y-76260000D02*
X168100000Y-77960000D01*
X168100000Y-77960000D02*
X168090000Y-77970000D01*
X167000000Y-77800000D02*
X168100000Y-77800000D01*
D60*
X162870000Y-93330000D02*
X162400000Y-93800000D01*
%TO.N,V_LOW*%
X176500000Y-73750000D02*
X176500000Y-71750000D01*
%TO.N,Net-(Q1-D_1)*%
X175975000Y-81050000D02*
X176025000Y-81000000D01*
X174230000Y-81050000D02*
X175975000Y-81050000D01*
D58*
%TO.N,Net-(Q1-G)*%
X172870000Y-91000000D02*
X172830000Y-90960000D01*
D59*
X181920000Y-89750000D02*
X181500000Y-89750000D01*
X182130000Y-90790000D02*
X182130000Y-89960000D01*
D58*
X173950000Y-90440219D02*
X173349781Y-90440219D01*
D59*
X181500000Y-89750000D02*
X181500000Y-88630000D01*
D58*
X182090000Y-90750000D02*
X182130000Y-90790000D01*
X181390000Y-90750000D02*
X182090000Y-90750000D01*
X172830000Y-90960000D02*
X172780000Y-91010000D01*
X172830000Y-88990000D02*
X172830000Y-90960000D01*
D59*
X182130000Y-89960000D02*
X181920000Y-89750000D01*
D58*
X173349781Y-90440219D02*
X172830000Y-90960000D01*
D10*
X181500000Y-88630000D02*
X181655000Y-88475000D01*
D60*
%TO.N,Net-(Q1-S_1)*%
X177600000Y-91800000D02*
X177600000Y-92190000D01*
X177600000Y-92190000D02*
X177590000Y-92200000D01*
%TO.N,Net-(IC1-ISNS)*%
X174555000Y-95315000D02*
X174820000Y-95050000D01*
X173730000Y-95315000D02*
X174555000Y-95315000D01*
X173730000Y-95315000D02*
X173730000Y-96140000D01*
X173730000Y-95315000D02*
X172325000Y-95315000D01*
X172325000Y-95315000D02*
X172200000Y-95440000D01*
D10*
%TO.N,Net-(IC1-VC)*%
X166560000Y-91960000D02*
X167580000Y-91960000D01*
D60*
X164965000Y-90610000D02*
X165590000Y-90610000D01*
X165750000Y-91150000D02*
X164955000Y-91150000D01*
D10*
X165900000Y-91300000D02*
X166560000Y-91960000D01*
X168060000Y-95440000D02*
X166776000Y-95440000D01*
D60*
X164690000Y-90885000D02*
X164965000Y-90610000D01*
X164955000Y-91150000D02*
X164690000Y-90885000D01*
D10*
X168130000Y-92510000D02*
X168130000Y-95370000D01*
X168130000Y-95370000D02*
X168060000Y-95440000D01*
D60*
X165900000Y-91300000D02*
X165750000Y-91150000D01*
D10*
X167580000Y-91960000D02*
X168130000Y-92510000D01*
D60*
X166290000Y-86920000D02*
X166170000Y-86800000D01*
X166290000Y-89910000D02*
X166290000Y-86920000D01*
X165590000Y-90610000D02*
X166290000Y-89910000D01*
D10*
%TO.N,Net-(C33-Pad1)*%
X164990000Y-86785000D02*
X164990000Y-85345000D01*
D60*
X164975000Y-86800000D02*
X163490000Y-86800000D01*
D10*
X164975000Y-86800000D02*
X164990000Y-86785000D01*
X164990000Y-85345000D02*
X164945000Y-85300000D01*
%TO.N,Net-(C34-Pad2)*%
X167965000Y-72055000D02*
X167990000Y-72080000D01*
D58*
X167835000Y-70540000D02*
X167965000Y-70670000D01*
X167965000Y-70670000D02*
X167965000Y-72055000D01*
%TO.N,Net-(C35-Pad2)*%
X206720000Y-70510000D02*
X206260000Y-70970000D01*
X206260000Y-70970000D02*
X206260000Y-71872500D01*
%TO.N,Net-(C36-Pad2)*%
X162055000Y-114740000D02*
X163400000Y-114740000D01*
D60*
%TO.N,Net-(C40-Pad1)*%
X174000000Y-87000000D02*
X172240000Y-87000000D01*
D58*
%TO.N,Net-(D3-A)*%
X170830000Y-88990000D02*
X170830000Y-87220000D01*
X169110000Y-87140000D02*
X170750000Y-87140000D01*
X168810000Y-88180000D02*
X168810000Y-87440000D01*
X170830000Y-87220000D02*
X170750000Y-87140000D01*
X168810000Y-87440000D02*
X169110000Y-87140000D01*
%TO.N,Net-(D3-K)*%
X170810000Y-90980000D02*
X170830000Y-90960000D01*
X171710000Y-92410000D02*
X172200000Y-92900000D01*
X171710000Y-91840000D02*
X171710000Y-92410000D01*
X166910000Y-90980000D02*
X166900000Y-90990000D01*
X168810000Y-90980000D02*
X166910000Y-90980000D01*
X168810000Y-90980000D02*
X170810000Y-90980000D01*
X170830000Y-90960000D02*
X171710000Y-91840000D01*
D10*
%TO.N,VFB*%
X166776000Y-97576000D02*
X167400000Y-98200000D01*
X168200000Y-98200000D02*
X168200000Y-97040000D01*
D60*
X174200000Y-71750000D02*
X174160000Y-71710000D01*
X172650000Y-71720000D02*
X172660000Y-71710000D01*
X171650000Y-71720000D02*
X172650000Y-71720000D01*
D10*
X166776000Y-96710000D02*
X166776000Y-97576000D01*
D60*
X174500000Y-71750000D02*
X174200000Y-71750000D01*
X174160000Y-71710000D02*
X172660000Y-71710000D01*
D10*
X167400000Y-98200000D02*
X168200000Y-98200000D01*
%TO.N,Net-(IC1-EN)*%
X171310000Y-83500000D02*
X170100000Y-83500000D01*
D60*
X172290000Y-96800000D02*
X172290000Y-98550000D01*
D10*
X170700000Y-98200000D02*
X170700000Y-97100000D01*
D60*
X172290000Y-98550000D02*
X172340000Y-98600000D01*
D10*
X171320000Y-83510000D02*
X171310000Y-83500000D01*
D60*
X170100000Y-77800000D02*
X170100000Y-83500000D01*
X171700000Y-98200000D02*
X172100000Y-98600000D01*
D10*
X170700000Y-98200000D02*
X171700000Y-98200000D01*
D60*
X172100000Y-98600000D02*
X172340000Y-98600000D01*
X172200000Y-96710000D02*
X172290000Y-96800000D01*
X171890000Y-98390000D02*
X172290000Y-98390000D01*
%TO.N,Net-(C51-Pad2)*%
X209296000Y-91593500D02*
X209296000Y-90551000D01*
X209650500Y-91948000D02*
X209296000Y-91593500D01*
%TO.N,Net-(C52-Pad2)*%
X172441000Y-101346000D02*
X172698500Y-101088500D01*
X172698500Y-101088500D02*
X172698500Y-99949000D01*
%TD*%
%TA.AperFunction,Conductor*%
%TO.N,Net-(C40-Pad1)*%
G36*
X174645195Y-82119685D02*
G01*
X174690950Y-82172489D01*
X174702137Y-82221825D01*
X174769986Y-86089225D01*
X174800000Y-87800000D01*
X175368137Y-87881162D01*
X175399080Y-87891445D01*
X175399360Y-87890697D01*
X175407669Y-87893796D01*
X175475323Y-87919029D01*
X175531256Y-87960900D01*
X175555674Y-88026364D01*
X175554728Y-88052857D01*
X175544500Y-88123998D01*
X175544500Y-88266562D01*
X175551074Y-88324149D01*
X175551076Y-88324160D01*
X175563669Y-88378594D01*
X175563676Y-88378616D01*
X175570360Y-88397452D01*
X175577500Y-88438921D01*
X175577500Y-88745059D01*
X175557815Y-88812098D01*
X175541181Y-88832740D01*
X175519816Y-88854104D01*
X175507450Y-88867379D01*
X175495945Y-88880644D01*
X175484555Y-88894757D01*
X175367824Y-89050400D01*
X175311853Y-89092221D01*
X175268624Y-89100000D01*
X174639500Y-89100000D01*
X174572461Y-89080315D01*
X174526706Y-89027511D01*
X174515500Y-88976000D01*
X174515500Y-88546635D01*
X174506382Y-88478993D01*
X174506381Y-88478985D01*
X174488994Y-88415663D01*
X174474975Y-88377069D01*
X174416630Y-88296235D01*
X174365471Y-88248648D01*
X174365468Y-88248645D01*
X174305714Y-88207199D01*
X174305712Y-88207198D01*
X173660455Y-87884570D01*
X173660445Y-87884565D01*
X173648720Y-87880315D01*
X173604891Y-87864428D01*
X173604886Y-87864426D01*
X173604884Y-87864426D01*
X173590943Y-87861135D01*
X173549433Y-87851335D01*
X173490729Y-87844500D01*
X173490728Y-87844500D01*
X172263359Y-87844500D01*
X172209696Y-87850199D01*
X172209683Y-87850201D01*
X172158783Y-87861135D01*
X172158757Y-87861142D01*
X172133006Y-87868098D01*
X172133001Y-87868101D01*
X172104615Y-87884071D01*
X172043815Y-87900000D01*
X171923278Y-87900000D01*
X171856239Y-87880315D01*
X171810484Y-87827511D01*
X171799278Y-87776338D01*
X171798682Y-87557483D01*
X171795836Y-86512966D01*
X171789923Y-86459007D01*
X171789923Y-86459004D01*
X171778720Y-86407847D01*
X171778708Y-86407799D01*
X171771557Y-86381806D01*
X171771556Y-86381802D01*
X171726246Y-86302233D01*
X171710000Y-86240873D01*
X171710000Y-86213223D01*
X171729685Y-86146184D01*
X171782489Y-86100429D01*
X171833219Y-86089225D01*
X173300000Y-86080000D01*
X173300000Y-82224000D01*
X173319685Y-82156961D01*
X173372489Y-82111206D01*
X173424000Y-82100000D01*
X174578156Y-82100000D01*
X174645195Y-82119685D01*
G37*
%TD.AperFunction*%
%TD*%
%TA.AperFunction,Conductor*%
%TO.N,GND*%
G36*
X178986151Y-113059630D02*
G01*
X179053131Y-113079514D01*
X179098728Y-113132454D01*
X179109780Y-113183849D01*
X179099999Y-118699998D01*
X179100000Y-118699999D01*
X180219999Y-121129999D01*
X180220000Y-121130000D01*
X181591812Y-121113371D01*
X181659082Y-121132242D01*
X181705474Y-121184487D01*
X181716255Y-121253520D01*
X181715943Y-121255738D01*
X181713771Y-121270230D01*
X181705248Y-122693426D01*
X181708068Y-122721466D01*
X181715971Y-122800064D01*
X181716475Y-122803327D01*
X181715477Y-122803481D01*
X181710269Y-122868947D01*
X181667952Y-122924544D01*
X181602295Y-122948438D01*
X181593801Y-122948685D01*
X178073364Y-122930632D01*
X178006426Y-122910604D01*
X177960943Y-122857566D01*
X177950000Y-122806634D01*
X177950000Y-120920000D01*
X177734282Y-120920985D01*
X177667153Y-120901606D01*
X177646035Y-120884667D01*
X177588657Y-120827289D01*
X177588656Y-120827288D01*
X177439334Y-120735186D01*
X177272797Y-120680001D01*
X177272795Y-120680000D01*
X177170010Y-120669500D01*
X176369998Y-120669500D01*
X176369980Y-120669501D01*
X176267203Y-120680000D01*
X176267200Y-120680001D01*
X176100668Y-120735185D01*
X176100663Y-120735187D01*
X176040089Y-120772550D01*
X175951344Y-120827288D01*
X175951341Y-120827290D01*
X175949097Y-120828675D01*
X175881704Y-120847115D01*
X175815041Y-120826192D01*
X175770271Y-120772550D01*
X175760000Y-120723136D01*
X175760000Y-113174370D01*
X175779685Y-113107331D01*
X175832489Y-113061576D01*
X175884368Y-113050371D01*
X178986151Y-113059630D01*
G37*
%TD.AperFunction*%
%TD*%
%TA.AperFunction,Conductor*%
%TO.N,VFB*%
G36*
X174782294Y-70919685D02*
G01*
X174828049Y-70972489D01*
X174839253Y-71024743D01*
X174830756Y-72443704D01*
X174810670Y-72510624D01*
X174757593Y-72556062D01*
X174688376Y-72565591D01*
X174667755Y-72560667D01*
X174590299Y-72535001D01*
X174590295Y-72535000D01*
X174487510Y-72524500D01*
X173712498Y-72524500D01*
X173712480Y-72524501D01*
X173609703Y-72535000D01*
X173609700Y-72535001D01*
X173523077Y-72563706D01*
X173484073Y-72570000D01*
X171244000Y-72570000D01*
X171176961Y-72550315D01*
X171131206Y-72497511D01*
X171120000Y-72446000D01*
X171120000Y-71024000D01*
X171139685Y-70956961D01*
X171192489Y-70911206D01*
X171244000Y-70900000D01*
X174715255Y-70900000D01*
X174782294Y-70919685D01*
G37*
%TD.AperFunction*%
%TD*%
%TA.AperFunction,Conductor*%
%TO.N,GND*%
G36*
X182726181Y-91613090D02*
G01*
X184100000Y-92300000D01*
X187670500Y-92300000D01*
X187737539Y-92319685D01*
X187783294Y-92372489D01*
X187794500Y-92424000D01*
X187794500Y-97739252D01*
X187774815Y-97806291D01*
X187758181Y-97826933D01*
X187729837Y-97855277D01*
X187668514Y-97888762D01*
X187640778Y-97891588D01*
X182585408Y-97835416D01*
X182518592Y-97814988D01*
X182499105Y-97799105D01*
X182200000Y-97500000D01*
X176370027Y-97415506D01*
X176374280Y-95200000D01*
X176600000Y-95200000D01*
X179300000Y-95200000D01*
X179391947Y-92165743D01*
X179413653Y-92099332D01*
X179467819Y-92055197D01*
X179515890Y-92045500D01*
X180201922Y-92045500D01*
X180240719Y-92042537D01*
X180277939Y-92036819D01*
X180289341Y-92034802D01*
X180381390Y-91996522D01*
X180439429Y-91957623D01*
X180493462Y-91908950D01*
X180505618Y-91894361D01*
X180563656Y-91855463D01*
X180568233Y-91854118D01*
X181483980Y-91604368D01*
X181516607Y-91600000D01*
X182670728Y-91600000D01*
X182726181Y-91613090D01*
G37*
%TD.AperFunction*%
%TD*%
%TA.AperFunction,Conductor*%
%TO.N,+24V*%
G36*
X186289876Y-118484639D02*
G01*
X186319869Y-118547744D01*
X186321411Y-118566326D01*
X186329999Y-119700000D01*
X186329999Y-119699999D01*
X186330000Y-119700000D01*
X192166810Y-119680413D01*
X192233914Y-119699872D01*
X192279846Y-119752522D01*
X192291219Y-119803184D01*
X192308764Y-121575235D01*
X192289744Y-121642466D01*
X192237396Y-121688742D01*
X192185229Y-121700462D01*
X186239972Y-121722482D01*
X186239982Y-126324041D01*
X186228435Y-126376294D01*
X186175238Y-126490776D01*
X186155111Y-126557685D01*
X186133696Y-126699961D01*
X186094449Y-132646818D01*
X186074323Y-132713726D01*
X186021218Y-132759132D01*
X185970452Y-132770000D01*
X163374505Y-132770000D01*
X163307466Y-132750315D01*
X163261711Y-132697511D01*
X163250506Y-132645496D01*
X163269498Y-127973261D01*
X163289455Y-127906306D01*
X163342444Y-127860766D01*
X163393261Y-127849769D01*
X184700000Y-127810000D01*
X184735650Y-122997180D01*
X184747405Y-122945401D01*
X184754409Y-122930485D01*
X184774801Y-122863657D01*
X184796781Y-122721466D01*
X184825356Y-120017419D01*
X184806929Y-119876734D01*
X184788476Y-119810329D01*
X184770305Y-119768735D01*
X184759939Y-119718178D01*
X184760222Y-119680000D01*
X184763522Y-119234521D01*
X184771334Y-119192119D01*
X184814091Y-119077483D01*
X184820500Y-119017873D01*
X184820499Y-118622630D01*
X184821819Y-118604588D01*
X184823096Y-118595907D01*
X184823508Y-118593108D01*
X184852737Y-118529649D01*
X184911637Y-118492065D01*
X184947126Y-118487158D01*
X185285939Y-118489724D01*
X185924267Y-118494561D01*
X185924267Y-118494560D01*
X185924277Y-118494561D01*
X186027570Y-118484694D01*
X186077220Y-118474730D01*
X186160668Y-118448835D01*
X186230527Y-118447768D01*
X186289876Y-118484639D01*
G37*
%TD.AperFunction*%
%TD*%
%TA.AperFunction,Conductor*%
%TO.N,Net-(C33-Pad1)*%
G36*
X165512565Y-84739685D02*
G01*
X165558320Y-84792489D01*
X165569525Y-84844473D01*
X165562850Y-86593034D01*
X165562065Y-86602814D01*
X165562382Y-86602839D01*
X165562000Y-86607697D01*
X165562000Y-86815647D01*
X165561999Y-86816120D01*
X165560475Y-87215421D01*
X165540535Y-87282385D01*
X165487557Y-87327938D01*
X165435425Y-87338944D01*
X163324160Y-87321052D01*
X163257290Y-87300800D01*
X163211984Y-87247610D01*
X163201217Y-87195840D01*
X163204945Y-86815647D01*
X163209611Y-86339674D01*
X163229952Y-86272832D01*
X163233349Y-86267920D01*
X164322859Y-84771029D01*
X164378226Y-84728410D01*
X164423115Y-84720000D01*
X165445526Y-84720000D01*
X165512565Y-84739685D01*
G37*
%TD.AperFunction*%
%TD*%
%TA.AperFunction,Conductor*%
%TO.N,GND*%
G36*
X175018417Y-73022223D02*
G01*
X175076967Y-73060350D01*
X175105610Y-73124078D01*
X175106754Y-73139082D01*
X175199416Y-79162059D01*
X175180765Y-79229393D01*
X175179252Y-79231768D01*
X174596556Y-80124020D01*
X174543419Y-80169387D01*
X174493139Y-80180217D01*
X171614716Y-80189593D01*
X171547613Y-80170127D01*
X171501686Y-80117473D01*
X171490312Y-80065285D01*
X171500000Y-76200000D01*
X171500000Y-74270207D01*
X171519685Y-74203168D01*
X171560203Y-74163878D01*
X172500000Y-73600000D01*
X172500000Y-73445870D01*
X172519685Y-73378831D01*
X172529848Y-73365177D01*
X172741027Y-73118802D01*
X172799602Y-73080712D01*
X172835175Y-73075500D01*
X173484081Y-73075500D01*
X173535495Y-73071377D01*
X173564603Y-73069044D01*
X173603607Y-73062750D01*
X173646153Y-73052339D01*
X173682079Y-73043548D01*
X173682082Y-73043546D01*
X173682086Y-73043546D01*
X173703263Y-73036527D01*
X173729673Y-73030875D01*
X173731967Y-73030640D01*
X173744552Y-73030000D01*
X174455445Y-73030000D01*
X174468013Y-73030639D01*
X174470304Y-73030873D01*
X174496735Y-73036527D01*
X174508071Y-73040283D01*
X174508770Y-73040515D01*
X174550331Y-73052339D01*
X174550339Y-73052341D01*
X174550350Y-73052344D01*
X174570971Y-73057268D01*
X174613439Y-73065506D01*
X174757317Y-73066368D01*
X174826534Y-73056839D01*
X174826536Y-73056838D01*
X174826535Y-73056838D01*
X174826616Y-73056827D01*
X174827759Y-73056486D01*
X174910711Y-73032669D01*
X174948548Y-73021805D01*
X175018417Y-73022223D01*
G37*
%TD.AperFunction*%
%TD*%
%TA.AperFunction,Conductor*%
%TO.N,GND*%
G36*
X169100000Y-85976000D02*
G01*
X169080315Y-86043039D01*
X169027511Y-86088794D01*
X168976000Y-86100000D01*
X165944707Y-86100000D01*
X165877668Y-86080315D01*
X165831913Y-86027511D01*
X165820708Y-85975527D01*
X165825023Y-84845448D01*
X165819289Y-84790637D01*
X165808084Y-84738653D01*
X165800745Y-84711802D01*
X165800745Y-84711801D01*
X165751417Y-84625177D01*
X165751416Y-84625176D01*
X165751414Y-84625172D01*
X165705659Y-84572368D01*
X165672885Y-84540743D01*
X165584550Y-84494535D01*
X165584549Y-84494534D01*
X165584548Y-84494534D01*
X165584548Y-84494533D01*
X165517516Y-84474851D01*
X165517504Y-84474848D01*
X165445527Y-84464500D01*
X165445526Y-84464500D01*
X164423115Y-84464500D01*
X164376065Y-84468869D01*
X164376063Y-84468869D01*
X164376056Y-84468870D01*
X164331184Y-84477277D01*
X164311720Y-84481716D01*
X164222387Y-84525940D01*
X164222376Y-84525947D01*
X164167014Y-84568562D01*
X164116282Y-84620674D01*
X163026759Y-86117583D01*
X163023214Y-86122580D01*
X163019812Y-86127500D01*
X163019805Y-86127510D01*
X162985520Y-86198445D01*
X162965181Y-86265282D01*
X162965179Y-86265290D01*
X162961703Y-86287890D01*
X162954122Y-86337174D01*
X162945728Y-87193325D01*
X162951070Y-87247868D01*
X162961835Y-87299626D01*
X162968883Y-87326239D01*
X162968885Y-87326244D01*
X163017475Y-87413280D01*
X163017478Y-87413284D01*
X163017479Y-87413285D01*
X163062785Y-87466475D01*
X163095291Y-87498377D01*
X163138914Y-87521669D01*
X163183228Y-87545330D01*
X163183229Y-87545331D01*
X163183231Y-87545331D01*
X163183232Y-87545332D01*
X163250102Y-87565584D01*
X163250105Y-87565584D01*
X163250112Y-87565586D01*
X163283685Y-87570703D01*
X163321995Y-87576543D01*
X163521754Y-87578235D01*
X163561659Y-87585190D01*
X163590745Y-87595368D01*
X163590752Y-87595369D01*
X163769996Y-87615565D01*
X163770000Y-87615565D01*
X163770004Y-87615565D01*
X163931360Y-87597385D01*
X163948638Y-87600411D01*
X163948638Y-87600000D01*
X164000000Y-87600000D01*
X165776000Y-87600000D01*
X165843039Y-87619685D01*
X165888794Y-87672489D01*
X165900000Y-87724000D01*
X165900000Y-88331112D01*
X165880315Y-88398151D01*
X165841973Y-88436105D01*
X165787740Y-88470182D01*
X165787737Y-88470184D01*
X165660184Y-88597737D01*
X165564211Y-88750476D01*
X165504631Y-88920745D01*
X165504630Y-88920750D01*
X165484435Y-89099996D01*
X165484435Y-89100003D01*
X165504630Y-89279249D01*
X165504631Y-89279254D01*
X165564211Y-89449523D01*
X165632211Y-89557744D01*
X165660184Y-89602262D01*
X165787738Y-89729816D01*
X165801172Y-89738257D01*
X165847463Y-89790590D01*
X165858113Y-89859643D01*
X165829739Y-89923492D01*
X165822882Y-89930932D01*
X165590134Y-90163681D01*
X165528811Y-90197166D01*
X165502453Y-90200000D01*
X165268785Y-90200000D01*
X165201746Y-90180315D01*
X165194474Y-90175267D01*
X165163780Y-90152289D01*
X165163778Y-90152288D01*
X165127358Y-90138704D01*
X165032299Y-90103248D01*
X164974190Y-90097000D01*
X164974174Y-90097000D01*
X164405826Y-90097000D01*
X164405809Y-90097000D01*
X164347704Y-90103248D01*
X164347700Y-90103249D01*
X164298568Y-90121574D01*
X164228876Y-90126557D01*
X164177774Y-90102219D01*
X163800000Y-89800000D01*
X161890978Y-89800000D01*
X161823939Y-89780315D01*
X161778184Y-89727511D01*
X161766991Y-89677826D01*
X161709358Y-85758717D01*
X161728055Y-85691400D01*
X161745656Y-85669226D01*
X162552209Y-84862672D01*
X162554192Y-84860735D01*
X165203918Y-82334254D01*
X165266019Y-82302241D01*
X165289485Y-82300000D01*
X166300000Y-82300000D01*
X169100000Y-82300000D01*
X169100000Y-85976000D01*
G37*
%TD.AperFunction*%
%TD*%
%TA.AperFunction,Conductor*%
%TO.N,Net-(D3-A)*%
G36*
X171483376Y-86409685D02*
G01*
X171529131Y-86462489D01*
X171540337Y-86513662D01*
X171549658Y-89934763D01*
X171530156Y-90001856D01*
X171477477Y-90047755D01*
X171408345Y-90057886D01*
X171382327Y-90051283D01*
X171334556Y-90033466D01*
X171287481Y-90015908D01*
X171287483Y-90015908D01*
X171227883Y-90009501D01*
X171227881Y-90009500D01*
X171227873Y-90009500D01*
X171227864Y-90009500D01*
X170432129Y-90009500D01*
X170432123Y-90009501D01*
X170372516Y-90015908D01*
X170275264Y-90052182D01*
X170231931Y-90060000D01*
X169796016Y-90060000D01*
X169728977Y-90040315D01*
X169683222Y-89987511D01*
X169672032Y-89934000D01*
X169690000Y-88820000D01*
X168143491Y-88820000D01*
X168076452Y-88800315D01*
X168030697Y-88747511D01*
X168019492Y-88696510D01*
X168010512Y-86514510D01*
X168029921Y-86447390D01*
X168082536Y-86401419D01*
X168134511Y-86390000D01*
X171416337Y-86390000D01*
X171483376Y-86409685D01*
G37*
%TD.AperFunction*%
%TD*%
%TA.AperFunction,Conductor*%
%TO.N,V_HIGH*%
G36*
X177500000Y-102900000D02*
G01*
X179525167Y-102909976D01*
X179488243Y-107726116D01*
X179476632Y-107777564D01*
X179475186Y-107780665D01*
X179420001Y-107947203D01*
X179420000Y-107947204D01*
X179409500Y-108049983D01*
X179409500Y-109050001D01*
X179409501Y-109050019D01*
X179420000Y-109152796D01*
X179420001Y-109152799D01*
X179469562Y-109302362D01*
X179475852Y-109342317D01*
X179460950Y-111285961D01*
X179440752Y-111352847D01*
X179387599Y-111398196D01*
X179335961Y-111409006D01*
X171970000Y-111349999D01*
X171969999Y-111350000D01*
X171960810Y-112756010D01*
X171940688Y-112822920D01*
X171887586Y-112868329D01*
X171836010Y-112879197D01*
X168993197Y-112860797D01*
X168926287Y-112840679D01*
X168880875Y-112787580D01*
X168870000Y-112736800D01*
X168870000Y-109955355D01*
X168888647Y-109889959D01*
X169410028Y-109050019D01*
X173563623Y-102358603D01*
X173615702Y-102312027D01*
X173668975Y-102300000D01*
X177099975Y-102300000D01*
X177100000Y-102300000D01*
X177500000Y-102296707D01*
X177500000Y-102900000D01*
G37*
%TD.AperFunction*%
%TD*%
%TA.AperFunction,Conductor*%
%TO.N,V_LOW*%
G36*
X209603822Y-61219849D02*
G01*
X209649732Y-61272518D01*
X209661085Y-61323271D01*
X209708901Y-66755215D01*
X209689808Y-66822425D01*
X209637408Y-66868643D01*
X209585211Y-66880306D01*
X193440000Y-66919999D01*
X193509277Y-72858078D01*
X193500000Y-72891091D01*
X193500000Y-72920047D01*
X189330000Y-72940000D01*
X189310212Y-61383844D01*
X189329782Y-61316772D01*
X189382507Y-61270927D01*
X189433842Y-61259634D01*
X209536725Y-61200363D01*
X209603822Y-61219849D01*
G37*
%TD.AperFunction*%
%TD*%
%TA.AperFunction,Conductor*%
%TO.N,Net-(D2-A)*%
G36*
X182887539Y-76619685D02*
G01*
X182933294Y-76672489D01*
X182944500Y-76724000D01*
X182944500Y-77076002D01*
X182950338Y-77130312D01*
X182961543Y-77181818D01*
X182961545Y-77181824D01*
X182968781Y-77208198D01*
X182968782Y-77208199D01*
X182983754Y-77234492D01*
X183000000Y-77295852D01*
X183000000Y-78100000D01*
X190331930Y-78100000D01*
X190398969Y-78119685D01*
X190436544Y-78157427D01*
X192480614Y-81369536D01*
X192500000Y-81436109D01*
X192500000Y-86876000D01*
X192480315Y-86943039D01*
X192427511Y-86988794D01*
X192376000Y-87000000D01*
X188722136Y-87000000D01*
X188655097Y-86980315D01*
X188609342Y-86927511D01*
X188598150Y-86877879D01*
X188500000Y-80400000D01*
X183515320Y-80400000D01*
X183448281Y-80380315D01*
X183402526Y-80327511D01*
X183393407Y-80298656D01*
X183392768Y-80295223D01*
X183386705Y-80262590D01*
X183313887Y-79971319D01*
X183300595Y-79926913D01*
X183293093Y-79905481D01*
X183275797Y-79862496D01*
X183239522Y-79806051D01*
X183198013Y-79741462D01*
X183198004Y-79741451D01*
X183152260Y-79688659D01*
X183152256Y-79688656D01*
X183152254Y-79688653D01*
X183043520Y-79594433D01*
X183043517Y-79594431D01*
X183043515Y-79594430D01*
X182912649Y-79534664D01*
X182912644Y-79534662D01*
X182912643Y-79534662D01*
X182845604Y-79514977D01*
X182845606Y-79514977D01*
X182845601Y-79514976D01*
X182798128Y-79508150D01*
X182703184Y-79494500D01*
X177543976Y-79494500D01*
X177543971Y-79494500D01*
X177425333Y-79509833D01*
X177356324Y-79498904D01*
X177304178Y-79452400D01*
X177285453Y-79385086D01*
X177285640Y-79379829D01*
X177434635Y-76772424D01*
X177458112Y-76706619D01*
X177513440Y-76663951D01*
X177558433Y-76655500D01*
X182576830Y-76655500D01*
X182630300Y-76649842D01*
X182681053Y-76638980D01*
X182706642Y-76632099D01*
X182735650Y-76615836D01*
X182796286Y-76600000D01*
X182820500Y-76600000D01*
X182887539Y-76619685D01*
G37*
%TD.AperFunction*%
%TD*%
%TA.AperFunction,Conductor*%
%TO.N,Net-(C14-Pad2)*%
G36*
X199163561Y-92629685D02*
G01*
X199209316Y-92682489D01*
X199220520Y-92733474D01*
X199270000Y-104470000D01*
X209445490Y-104365684D01*
X209512723Y-104384679D01*
X209559016Y-104437011D01*
X209570753Y-104490505D01*
X209496402Y-115613512D01*
X209476270Y-115680418D01*
X209454060Y-115706002D01*
X207383602Y-117517654D01*
X207383589Y-117517667D01*
X207295301Y-117618542D01*
X207295295Y-117618550D01*
X207259248Y-117672861D01*
X207245099Y-117701932D01*
X207239144Y-117712759D01*
X207188220Y-117795322D01*
X207185566Y-117801354D01*
X207140547Y-117854787D01*
X207073787Y-117875398D01*
X207073536Y-117875401D01*
X205965467Y-117888515D01*
X205898200Y-117869625D01*
X205851823Y-117817367D01*
X205840000Y-117764524D01*
X205840000Y-115170000D01*
X204290000Y-115170000D01*
X204290000Y-117056310D01*
X204270315Y-117123349D01*
X204217511Y-117169104D01*
X204166312Y-117180310D01*
X200435056Y-117189685D01*
X200367967Y-117170169D01*
X200322079Y-117117480D01*
X200310746Y-117064947D01*
X200330000Y-113840000D01*
X192961928Y-113840000D01*
X192894889Y-113820315D01*
X192849134Y-113767511D01*
X192837929Y-113715554D01*
X192851749Y-109873554D01*
X192871674Y-109806586D01*
X192924643Y-109761021D01*
X192975748Y-109750000D01*
X195389999Y-109750000D01*
X195390000Y-109750000D01*
X195428480Y-96558883D01*
X195448359Y-96491908D01*
X195458417Y-96479464D01*
X195458234Y-96479319D01*
X195462709Y-96473659D01*
X195462712Y-96473656D01*
X195554814Y-96324334D01*
X195609999Y-96157797D01*
X195620500Y-96055009D01*
X195620499Y-95004992D01*
X195609999Y-94902203D01*
X195554814Y-94735666D01*
X195462712Y-94586344D01*
X195462710Y-94586342D01*
X195458920Y-94580197D01*
X195460147Y-94579439D01*
X195437020Y-94522120D01*
X195450058Y-94453477D01*
X195460681Y-94436947D01*
X195462709Y-94433658D01*
X195462712Y-94433656D01*
X195554814Y-94284334D01*
X195609999Y-94117797D01*
X195620500Y-94015009D01*
X195620499Y-92964992D01*
X195609999Y-92862203D01*
X195580440Y-92773002D01*
X195578039Y-92703176D01*
X195613770Y-92643134D01*
X195676291Y-92611941D01*
X195698147Y-92610000D01*
X199096522Y-92610000D01*
X199163561Y-92629685D01*
G37*
%TD.AperFunction*%
%TD*%
%TA.AperFunction,Conductor*%
%TO.N,GND*%
G36*
X182744948Y-61319325D02*
G01*
X182811888Y-61339344D01*
X182857379Y-61392376D01*
X182868327Y-61443896D01*
X182849470Y-65526518D01*
X182829476Y-65593466D01*
X182776461Y-65638976D01*
X182725471Y-65649945D01*
X163002621Y-65649945D01*
X162935582Y-65630260D01*
X162889827Y-65577456D01*
X162878621Y-65526225D01*
X162876478Y-64577314D01*
X162869181Y-61344843D01*
X162888714Y-61277763D01*
X162941415Y-61231889D01*
X162993798Y-61220569D01*
X182744948Y-61319325D01*
G37*
%TD.AperFunction*%
%TD*%
%TA.AperFunction,Conductor*%
%TO.N,GND*%
G36*
X176322565Y-92239814D02*
G01*
X176368439Y-92292514D01*
X176379760Y-92344517D01*
X176370027Y-97415506D01*
X176352270Y-97415249D01*
X176330209Y-97427062D01*
X176304249Y-97429682D01*
X173257966Y-97414989D01*
X173191022Y-97394981D01*
X173145522Y-97341957D01*
X173135913Y-97272751D01*
X173155460Y-97222104D01*
X173198466Y-97157740D01*
X173213000Y-97084674D01*
X173213000Y-96688628D01*
X173232685Y-96621589D01*
X173285489Y-96575834D01*
X173354647Y-96565890D01*
X173412483Y-96590251D01*
X173452375Y-96620861D01*
X173452376Y-96620861D01*
X173452377Y-96620862D01*
X173466537Y-96626727D01*
X173586291Y-96676330D01*
X173713280Y-96693048D01*
X173729999Y-96695250D01*
X173730000Y-96695250D01*
X173730001Y-96695250D01*
X173744977Y-96693278D01*
X173873709Y-96676330D01*
X174007625Y-96620861D01*
X174122621Y-96532621D01*
X174210861Y-96417625D01*
X174266330Y-96283709D01*
X174285250Y-96140000D01*
X174266330Y-95996291D01*
X174246448Y-95948292D01*
X174239887Y-95927400D01*
X174236495Y-95911931D01*
X174236494Y-95911930D01*
X174236494Y-95911927D01*
X174227061Y-95890356D01*
X174218236Y-95821046D01*
X174248285Y-95757967D01*
X174307666Y-95721148D01*
X174377526Y-95722277D01*
X174406644Y-95735679D01*
X174470478Y-95775789D01*
X174640745Y-95835368D01*
X174640750Y-95835369D01*
X174819996Y-95855565D01*
X174820000Y-95855565D01*
X174820004Y-95855565D01*
X174999249Y-95835369D01*
X174999252Y-95835368D01*
X174999255Y-95835368D01*
X175169522Y-95775789D01*
X175322262Y-95679816D01*
X175449816Y-95552262D01*
X175545789Y-95399522D01*
X175605368Y-95229255D01*
X175616608Y-95129500D01*
X175625565Y-95050003D01*
X175625565Y-95049996D01*
X175605369Y-94870750D01*
X175605368Y-94870745D01*
X175570240Y-94770355D01*
X175545789Y-94700478D01*
X175449816Y-94547738D01*
X175322262Y-94420184D01*
X175169523Y-94324211D01*
X174999254Y-94264631D01*
X174999249Y-94264630D01*
X174820004Y-94244435D01*
X174819996Y-94244435D01*
X174640750Y-94264630D01*
X174640745Y-94264631D01*
X174470476Y-94324211D01*
X174317737Y-94420184D01*
X174190184Y-94547737D01*
X174190182Y-94547740D01*
X174123697Y-94653549D01*
X174071362Y-94699840D01*
X174002309Y-94710487D01*
X173999307Y-94710049D01*
X173916916Y-94697000D01*
X173543084Y-94697000D01*
X173448136Y-94712037D01*
X173333680Y-94770355D01*
X173245951Y-94858084D01*
X173184627Y-94891568D01*
X173114936Y-94886584D01*
X173089379Y-94873504D01*
X173085257Y-94870750D01*
X173060240Y-94854034D01*
X173060235Y-94854032D01*
X172987177Y-94839500D01*
X172987174Y-94839500D01*
X171412826Y-94839500D01*
X171412823Y-94839500D01*
X171339764Y-94854032D01*
X171339760Y-94854033D01*
X171256899Y-94909399D01*
X171201533Y-94992260D01*
X171201532Y-94992264D01*
X171187000Y-95065321D01*
X171187000Y-95814678D01*
X171201532Y-95887735D01*
X171201533Y-95887739D01*
X171256899Y-95970601D01*
X171258842Y-95971899D01*
X171262122Y-95975824D01*
X171265535Y-95979237D01*
X171265229Y-95979542D01*
X171303646Y-96025512D01*
X171312352Y-96094838D01*
X171282196Y-96157864D01*
X171258842Y-96178101D01*
X171256899Y-96179398D01*
X171201533Y-96262260D01*
X171201532Y-96262264D01*
X171187000Y-96335321D01*
X171187000Y-96528351D01*
X171167315Y-96595390D01*
X171114511Y-96641145D01*
X171045353Y-96651089D01*
X170987514Y-96626727D01*
X170977625Y-96619139D01*
X170977623Y-96619138D01*
X170843712Y-96563671D01*
X170843710Y-96563670D01*
X170843709Y-96563670D01*
X170746212Y-96550834D01*
X170700001Y-96544750D01*
X170699999Y-96544750D01*
X170556291Y-96563670D01*
X170556287Y-96563671D01*
X170422377Y-96619137D01*
X170307379Y-96707379D01*
X170219137Y-96822377D01*
X170163671Y-96956287D01*
X170163670Y-96956291D01*
X170144750Y-97099999D01*
X170144750Y-97100000D01*
X170163670Y-97243710D01*
X170173738Y-97268017D01*
X170181205Y-97337487D01*
X170149999Y-97399827D01*
X170150000Y-97400000D01*
X170150429Y-97460858D01*
X170153232Y-97858229D01*
X170151708Y-97878502D01*
X170139500Y-97955579D01*
X170139500Y-98444416D01*
X170139499Y-98444416D01*
X170156065Y-98549007D01*
X170154951Y-98549183D01*
X170158249Y-98569562D01*
X170159983Y-98815142D01*
X170159983Y-98815143D01*
X170477688Y-98814008D01*
X170497499Y-98815531D01*
X170513084Y-98818000D01*
X170513089Y-98818000D01*
X170886916Y-98818000D01*
X170912736Y-98813910D01*
X170931654Y-98812386D01*
X171406808Y-98810689D01*
X171473915Y-98830134D01*
X171494929Y-98847007D01*
X171507740Y-98859818D01*
X171541971Y-98881326D01*
X171588263Y-98933660D01*
X171600000Y-98986320D01*
X171600000Y-99876000D01*
X171580315Y-99943039D01*
X171527511Y-99988794D01*
X171476000Y-100000000D01*
X163737137Y-100000000D01*
X163670098Y-99980315D01*
X163668977Y-99979587D01*
X162750215Y-99375048D01*
X162748830Y-99374123D01*
X161559954Y-98568755D01*
X161515491Y-98514859D01*
X161505499Y-98466093D01*
X161505499Y-98409255D01*
X161505500Y-98036214D01*
X161505040Y-98018166D01*
X161505000Y-98015008D01*
X161505000Y-97109975D01*
X161505040Y-97106815D01*
X161505500Y-97088769D01*
X161505500Y-96900000D01*
X162800000Y-96900000D01*
X162800000Y-99200000D01*
X165400000Y-99200000D01*
X165400000Y-96900000D01*
X162800000Y-96900000D01*
X161505500Y-96900000D01*
X161505500Y-95544000D01*
X161525185Y-95476961D01*
X161577989Y-95431206D01*
X161629500Y-95420000D01*
X163490004Y-95420000D01*
X163638176Y-95419409D01*
X165638506Y-95411440D01*
X165705623Y-95430857D01*
X165751588Y-95483479D01*
X165763000Y-95535439D01*
X165763000Y-95814678D01*
X165777532Y-95887735D01*
X165777533Y-95887739D01*
X165832899Y-95970601D01*
X165834842Y-95971899D01*
X165838122Y-95975824D01*
X165841535Y-95979237D01*
X165841229Y-95979542D01*
X165879646Y-96025512D01*
X165888352Y-96094838D01*
X165858196Y-96157864D01*
X165834842Y-96178101D01*
X165832899Y-96179398D01*
X165777533Y-96262260D01*
X165777532Y-96262264D01*
X165763000Y-96335321D01*
X165763000Y-97084678D01*
X165777532Y-97157735D01*
X165777533Y-97157739D01*
X165777534Y-97157740D01*
X165832899Y-97240601D01*
X165881016Y-97272751D01*
X165915760Y-97295966D01*
X165915764Y-97295967D01*
X165988821Y-97310499D01*
X165988824Y-97310500D01*
X165988826Y-97310500D01*
X166341500Y-97310500D01*
X166408539Y-97330185D01*
X166454294Y-97382989D01*
X166465500Y-97434500D01*
X166465500Y-97535121D01*
X166465500Y-97616879D01*
X166486660Y-97695849D01*
X166486661Y-97695850D01*
X166486661Y-97695851D01*
X166527535Y-97766648D01*
X166527539Y-97766653D01*
X167209343Y-98448458D01*
X167209347Y-98448461D01*
X167209348Y-98448462D01*
X167250223Y-98472060D01*
X167250225Y-98472062D01*
X167250226Y-98472062D01*
X167280152Y-98489340D01*
X167337952Y-98504826D01*
X167337958Y-98504830D01*
X167337958Y-98504828D01*
X167337961Y-98504829D01*
X167359121Y-98510500D01*
X167359122Y-98510500D01*
X167560874Y-98510500D01*
X167627913Y-98530185D01*
X167671358Y-98578204D01*
X167703759Y-98641794D01*
X167703761Y-98641796D01*
X167703763Y-98641799D01*
X167795700Y-98733736D01*
X167795704Y-98733739D01*
X167795706Y-98733741D01*
X167911567Y-98792775D01*
X167911569Y-98792775D01*
X167911571Y-98792776D01*
X167940728Y-98797393D01*
X168007693Y-98808000D01*
X168392306Y-98807999D01*
X168392311Y-98807999D01*
X168392311Y-98807998D01*
X168440369Y-98800387D01*
X168488428Y-98792776D01*
X168488429Y-98792776D01*
X168488430Y-98792775D01*
X168488433Y-98792775D01*
X168604294Y-98733741D01*
X168696241Y-98641794D01*
X168755275Y-98525933D01*
X168770500Y-98429807D01*
X168770499Y-97970194D01*
X168770499Y-97970188D01*
X168755276Y-97874071D01*
X168755276Y-97874070D01*
X168755275Y-97874068D01*
X168755275Y-97874067D01*
X168696241Y-97758206D01*
X168696239Y-97758204D01*
X168696236Y-97758200D01*
X168612096Y-97674060D01*
X168578611Y-97612737D01*
X168583595Y-97543045D01*
X168586597Y-97535721D01*
X168627367Y-97444632D01*
X168705469Y-97270134D01*
X168706560Y-97267661D01*
X168706677Y-97267392D01*
X168708134Y-97263973D01*
X168710561Y-97251955D01*
X168717542Y-97229065D01*
X168736330Y-97183709D01*
X168755250Y-97040000D01*
X168736330Y-96896291D01*
X168680861Y-96762375D01*
X168592621Y-96647379D01*
X168477625Y-96559139D01*
X168477624Y-96559138D01*
X168477622Y-96559137D01*
X168343712Y-96503671D01*
X168343710Y-96503670D01*
X168343709Y-96503670D01*
X168271854Y-96494210D01*
X168200001Y-96484750D01*
X168199999Y-96484750D01*
X168056291Y-96503670D01*
X167960451Y-96543367D01*
X167890982Y-96550834D01*
X167828503Y-96519559D01*
X167792851Y-96459469D01*
X167789000Y-96428805D01*
X167789000Y-96335323D01*
X167788999Y-96335321D01*
X167774467Y-96262264D01*
X167774466Y-96262260D01*
X167764976Y-96248057D01*
X167719101Y-96179399D01*
X167717160Y-96178102D01*
X167713883Y-96174181D01*
X167710465Y-96170763D01*
X167710770Y-96170457D01*
X167672355Y-96124492D01*
X167663646Y-96055167D01*
X167693800Y-95992139D01*
X167717161Y-95971897D01*
X167719101Y-95970601D01*
X167774466Y-95887740D01*
X167781912Y-95850309D01*
X167814296Y-95788398D01*
X167875012Y-95753824D01*
X167903529Y-95750500D01*
X168100876Y-95750500D01*
X168100879Y-95750500D01*
X168179849Y-95729340D01*
X168250652Y-95688462D01*
X168378462Y-95560652D01*
X168419340Y-95489849D01*
X168440500Y-95410879D01*
X168440500Y-95329121D01*
X168440500Y-92469122D01*
X168420309Y-92393768D01*
X168421972Y-92323921D01*
X168461134Y-92266058D01*
X168525363Y-92238554D01*
X168539786Y-92237678D01*
X171116530Y-92231868D01*
X171183611Y-92251401D01*
X171229485Y-92304101D01*
X171239584Y-92373237D01*
X171219911Y-92424755D01*
X171201534Y-92452258D01*
X171201532Y-92452264D01*
X171187000Y-92525321D01*
X171187000Y-93274678D01*
X171201532Y-93347735D01*
X171201533Y-93347739D01*
X171201534Y-93347740D01*
X171256899Y-93430601D01*
X171339760Y-93485966D01*
X171339764Y-93485967D01*
X171412821Y-93500499D01*
X171412824Y-93500500D01*
X171412826Y-93500500D01*
X172987176Y-93500500D01*
X172987177Y-93500499D01*
X173060240Y-93485966D01*
X173143101Y-93430601D01*
X173198466Y-93347740D01*
X173213000Y-93274674D01*
X173213000Y-92525326D01*
X173213000Y-92525323D01*
X173212999Y-92525321D01*
X173198467Y-92452264D01*
X173198466Y-92452262D01*
X173198466Y-92452260D01*
X173176830Y-92419879D01*
X173155953Y-92353203D01*
X173174438Y-92285823D01*
X173226416Y-92239133D01*
X173279650Y-92226990D01*
X176255483Y-92220280D01*
X176322565Y-92239814D01*
G37*
%TD.AperFunction*%
%TD*%
%TA.AperFunction,Conductor*%
%TO.N,GNDH*%
G36*
X214366176Y-58289759D02*
G01*
X214433177Y-58309574D01*
X214478829Y-58362467D01*
X214489935Y-58413823D01*
X214450063Y-135087407D01*
X214430344Y-135154437D01*
X214377516Y-135200164D01*
X214327415Y-135211336D01*
X160368771Y-135799493D01*
X160367419Y-135799500D01*
X157694352Y-135799500D01*
X157627313Y-135779815D01*
X157581558Y-135727011D01*
X157570352Y-135675218D01*
X157571409Y-135211336D01*
X157667948Y-92810000D01*
X160674417Y-92810000D01*
X160694699Y-93015932D01*
X160694700Y-93015934D01*
X160754768Y-93213954D01*
X160799623Y-93297872D01*
X160852317Y-93396453D01*
X160971853Y-93542108D01*
X160999166Y-93606418D01*
X161000000Y-93620773D01*
X161000000Y-93963779D01*
X160999589Y-93971833D01*
X160999661Y-93971837D01*
X160999500Y-93974998D01*
X160999500Y-94900004D01*
X160999662Y-94903167D01*
X160999590Y-94903170D01*
X161000000Y-94911213D01*
X161000000Y-97088779D01*
X160999589Y-97096833D01*
X160999661Y-97096837D01*
X160999500Y-97099998D01*
X160999500Y-98025004D01*
X160999662Y-98028167D01*
X160999590Y-98028170D01*
X161000000Y-98036213D01*
X161000000Y-98799999D01*
X160999999Y-98799999D01*
X164099998Y-100899999D01*
X164099999Y-100899999D01*
X164100000Y-100900000D01*
X171531262Y-100900000D01*
X171598301Y-100919685D01*
X171644056Y-100972489D01*
X171654000Y-101041647D01*
X171645823Y-101071452D01*
X171638457Y-101089234D01*
X171638455Y-101089239D01*
X171623000Y-101206638D01*
X171623000Y-101485363D01*
X171638453Y-101602753D01*
X171638456Y-101602762D01*
X171698964Y-101748841D01*
X171795218Y-101874282D01*
X171795219Y-101874283D01*
X171860647Y-101924487D01*
X171901850Y-101980915D01*
X171909157Y-102021851D01*
X171919489Y-103287443D01*
X171900352Y-103354641D01*
X171869989Y-103387583D01*
X162020000Y-110790000D01*
X162019999Y-110790001D01*
X162000000Y-113730000D01*
X162035435Y-113765934D01*
X162068490Y-113827489D01*
X162063019Y-113897144D01*
X162020758Y-113952784D01*
X161955125Y-113976743D01*
X161947144Y-113977000D01*
X161860637Y-113977000D01*
X161743246Y-113992453D01*
X161743237Y-113992456D01*
X161597160Y-114052963D01*
X161471718Y-114149218D01*
X161375463Y-114274660D01*
X161314956Y-114420737D01*
X161314955Y-114420739D01*
X161299500Y-114538138D01*
X161299500Y-115051863D01*
X161314953Y-115169253D01*
X161314956Y-115169262D01*
X161374290Y-115312508D01*
X161375464Y-115315341D01*
X161471718Y-115440782D01*
X161597159Y-115537036D01*
X161743238Y-115597544D01*
X161860639Y-115613000D01*
X162139360Y-115612999D01*
X162139361Y-115612999D01*
X162151594Y-115611388D01*
X162256762Y-115597544D01*
X162269953Y-115592079D01*
X162339421Y-115584608D01*
X162401901Y-115615881D01*
X162405090Y-115618958D01*
X162456344Y-115670212D01*
X162605666Y-115762314D01*
X162772203Y-115817499D01*
X162874991Y-115828000D01*
X163925008Y-115827999D01*
X163925016Y-115827998D01*
X163925019Y-115827998D01*
X163981302Y-115822248D01*
X164027797Y-115817499D01*
X164194334Y-115762314D01*
X164343656Y-115670212D01*
X164467712Y-115546156D01*
X164557531Y-115400534D01*
X164609478Y-115353811D01*
X164678440Y-115342588D01*
X164742522Y-115370431D01*
X164781379Y-115428500D01*
X164787066Y-115466505D01*
X164760002Y-119309677D01*
X164759995Y-119310374D01*
X164659876Y-127219704D01*
X164639345Y-127286488D01*
X164585966Y-127331571D01*
X164536118Y-127342134D01*
X163392320Y-127344269D01*
X163392303Y-127344270D01*
X163286351Y-127355703D01*
X163235522Y-127366703D01*
X163134321Y-127400098D01*
X163134317Y-127400100D01*
X163012972Y-127477389D01*
X163012964Y-127477395D01*
X162959970Y-127522939D01*
X162865319Y-127631278D01*
X162805017Y-127761911D01*
X162805013Y-127761921D01*
X162785624Y-127826970D01*
X162785162Y-127828433D01*
X162785057Y-127828873D01*
X162764002Y-127971204D01*
X162764001Y-127971209D01*
X162745009Y-132643443D01*
X162756341Y-132751940D01*
X162756343Y-132751954D01*
X162767544Y-132803949D01*
X162767550Y-132803974D01*
X162801889Y-132907498D01*
X162801894Y-132907508D01*
X162879675Y-133028537D01*
X162879684Y-133028548D01*
X162925428Y-133081340D01*
X162925431Y-133081343D01*
X162925435Y-133081347D01*
X163034169Y-133175567D01*
X163034172Y-133175568D01*
X163034173Y-133175569D01*
X163149790Y-133228371D01*
X163165046Y-133235338D01*
X163232085Y-133255023D01*
X163232089Y-133255024D01*
X163374505Y-133275500D01*
X163374508Y-133275500D01*
X185970451Y-133275500D01*
X185970452Y-133275500D01*
X186076272Y-133264300D01*
X186127038Y-133253432D01*
X186228173Y-133220326D01*
X186234809Y-133216122D01*
X186301973Y-133196876D01*
X186368883Y-133216997D01*
X186382278Y-133227083D01*
X186383767Y-133228371D01*
X186514699Y-133288023D01*
X186581756Y-133307647D01*
X186724190Y-133327995D01*
X208635369Y-133308219D01*
X208742593Y-133296617D01*
X208793992Y-133285411D01*
X208793993Y-133285410D01*
X208793996Y-133285410D01*
X208828047Y-133274067D01*
X208896305Y-133251332D01*
X209017344Y-133173544D01*
X209070148Y-133127789D01*
X209164368Y-133019055D01*
X209224139Y-132888178D01*
X209243824Y-132821139D01*
X209243825Y-132821135D01*
X209264301Y-132678719D01*
X209264301Y-127017205D01*
X209252488Y-126908562D01*
X209241033Y-126856509D01*
X209206152Y-126752955D01*
X209206150Y-126752952D01*
X209206150Y-126752951D01*
X209127787Y-126632294D01*
X209127785Y-126632292D01*
X209127784Y-126632290D01*
X209081776Y-126579706D01*
X209081773Y-126579703D01*
X208972584Y-126486005D01*
X208841420Y-126426865D01*
X208774290Y-126407504D01*
X208774287Y-126407503D01*
X208774285Y-126407503D01*
X208631785Y-126387714D01*
X208631778Y-126387713D01*
X208631773Y-126387713D01*
X206652494Y-126397227D01*
X206585361Y-126377864D01*
X206539353Y-126325281D01*
X206527943Y-126276554D01*
X206410430Y-121889405D01*
X206428313Y-121821865D01*
X206479873Y-121774712D01*
X206484277Y-121772663D01*
X207380143Y-121377191D01*
X207501919Y-121301148D01*
X207555212Y-121256197D01*
X207650692Y-121148995D01*
X207712282Y-121018964D01*
X207729754Y-120962389D01*
X207732271Y-120956185D01*
X207732900Y-120952206D01*
X207732901Y-120952205D01*
X207755362Y-120810089D01*
X207782500Y-118865165D01*
X207771828Y-118754555D01*
X207760727Y-118701516D01*
X207726143Y-118595907D01*
X207648573Y-118474727D01*
X207630141Y-118453378D01*
X207601231Y-118389771D01*
X207600000Y-118372344D01*
X207600000Y-118125793D01*
X207618461Y-118060697D01*
X207655899Y-118000000D01*
X207674814Y-117969334D01*
X207680425Y-117952398D01*
X207716472Y-117898086D01*
X210000000Y-115900000D01*
X210155450Y-92644666D01*
X210175581Y-92577764D01*
X210203960Y-92547123D01*
X210206217Y-92545391D01*
X210296282Y-92476282D01*
X210392536Y-92350841D01*
X210453044Y-92204762D01*
X210468500Y-92087361D01*
X210468499Y-91808640D01*
X210468499Y-91808636D01*
X210453046Y-91691246D01*
X210453044Y-91691241D01*
X210453044Y-91691238D01*
X210392536Y-91545159D01*
X210334216Y-91469154D01*
X210309023Y-91403987D01*
X210318141Y-91352885D01*
X210316042Y-91352190D01*
X210333500Y-91299505D01*
X210373499Y-91178797D01*
X210384000Y-91076009D01*
X210383999Y-90025992D01*
X210383642Y-90022500D01*
X210373499Y-89923203D01*
X210373498Y-89923200D01*
X210361141Y-89885909D01*
X210318314Y-89756666D01*
X210226212Y-89607344D01*
X210212750Y-89593882D01*
X210179265Y-89532559D01*
X210176434Y-89505378D01*
X210250000Y-78500000D01*
X207553549Y-75710568D01*
X207521110Y-75648687D01*
X207518708Y-75625168D01*
X207506191Y-73609802D01*
X207494676Y-73505614D01*
X207483816Y-73455631D01*
X207451058Y-73356055D01*
X207374084Y-73234497D01*
X207360701Y-73218841D01*
X207332104Y-73155095D01*
X207330961Y-73139283D01*
X207328229Y-72800494D01*
X207346691Y-72734396D01*
X207349814Y-72729334D01*
X207404999Y-72562797D01*
X207415500Y-72460009D01*
X207415499Y-71684992D01*
X207404999Y-71582203D01*
X207349814Y-71415666D01*
X207334805Y-71391333D01*
X207316348Y-71327240D01*
X207315126Y-71175624D01*
X207334269Y-71108433D01*
X207363633Y-71076254D01*
X207478282Y-70988282D01*
X207574536Y-70862841D01*
X207635044Y-70716762D01*
X207650500Y-70599361D01*
X207650499Y-70320640D01*
X207650499Y-70320636D01*
X207635046Y-70203246D01*
X207635044Y-70203241D01*
X207635044Y-70203238D01*
X207574536Y-70057159D01*
X207478282Y-69931718D01*
X207478280Y-69931717D01*
X207478280Y-69931716D01*
X207352037Y-69834847D01*
X207310834Y-69778419D01*
X207303528Y-69737476D01*
X207300000Y-69300000D01*
X206785491Y-68490796D01*
X206766222Y-68428991D01*
X206731621Y-67521238D01*
X206748738Y-67453501D01*
X206799761Y-67405768D01*
X206855223Y-67392518D01*
X209586454Y-67385804D01*
X209586463Y-67385803D01*
X209586464Y-67385803D01*
X209600621Y-67384222D01*
X209695443Y-67373641D01*
X209747640Y-67361978D01*
X209851436Y-67326597D01*
X209971787Y-67247748D01*
X210022913Y-67202653D01*
X210023957Y-67201758D01*
X210024189Y-67201528D01*
X210024193Y-67201525D01*
X210117453Y-67091961D01*
X210176068Y-66960562D01*
X210195161Y-66893352D01*
X210214381Y-66750765D01*
X210166565Y-61318821D01*
X210154394Y-61212922D01*
X210143041Y-61162169D01*
X210108931Y-61061174D01*
X210030788Y-60940363D01*
X210030787Y-60940362D01*
X210030786Y-60940360D01*
X210000970Y-60906155D01*
X209984878Y-60887694D01*
X209984872Y-60887688D01*
X209875856Y-60793789D01*
X209875855Y-60793788D01*
X209875852Y-60793786D01*
X209744800Y-60734405D01*
X209677710Y-60714921D01*
X209677697Y-60714918D01*
X209535232Y-60694864D01*
X189432356Y-60754135D01*
X189356320Y-60762513D01*
X189325236Y-60765939D01*
X189325233Y-60765939D01*
X189325229Y-60765940D01*
X189273904Y-60777230D01*
X189196860Y-60803047D01*
X189171727Y-60811469D01*
X189171725Y-60811469D01*
X189171722Y-60811471D01*
X189050823Y-60889461D01*
X189050813Y-60889468D01*
X189050688Y-60889578D01*
X189050637Y-60889601D01*
X189047275Y-60892127D01*
X189046725Y-60891395D01*
X188987181Y-60918708D01*
X188969330Y-60920000D01*
X183124413Y-60920000D01*
X183072340Y-60908536D01*
X182956734Y-60855042D01*
X182956721Y-60855037D01*
X182889789Y-60835020D01*
X182889775Y-60835017D01*
X182747472Y-60813830D01*
X182747473Y-60813830D01*
X162996328Y-60715074D01*
X162887023Y-60726473D01*
X162887018Y-60726474D01*
X162834648Y-60737791D01*
X162834638Y-60737794D01*
X162730391Y-60772542D01*
X162730378Y-60772548D01*
X162609532Y-60850597D01*
X162609519Y-60850607D01*
X162556823Y-60896476D01*
X162556820Y-60896479D01*
X162462849Y-61005422D01*
X162462847Y-61005424D01*
X162445243Y-61044203D01*
X162403372Y-61136436D01*
X162403370Y-61136440D01*
X162403370Y-61136442D01*
X162383856Y-61203454D01*
X162383836Y-61203526D01*
X162363682Y-61345974D01*
X162363682Y-61345984D01*
X162373122Y-65527370D01*
X162373122Y-65527374D01*
X162384796Y-65634243D01*
X162396002Y-65685476D01*
X162430006Y-65787445D01*
X162430008Y-65787449D01*
X162507787Y-65908476D01*
X162507800Y-65908493D01*
X162553544Y-65961285D01*
X162553547Y-65961288D01*
X162553551Y-65961292D01*
X162662285Y-66055512D01*
X162662288Y-66055513D01*
X162662289Y-66055514D01*
X162759176Y-66099762D01*
X162793162Y-66115283D01*
X162860201Y-66134968D01*
X162860205Y-66134969D01*
X163002621Y-66155445D01*
X163002624Y-66155445D01*
X167163272Y-66155445D01*
X167230311Y-66175130D01*
X167276066Y-66227934D01*
X167287247Y-66276963D01*
X167358146Y-69818443D01*
X167339807Y-69885863D01*
X167309658Y-69919300D01*
X167189220Y-70011716D01*
X167092963Y-70137160D01*
X167032456Y-70283237D01*
X167032455Y-70283239D01*
X167017000Y-70400638D01*
X167017000Y-70679363D01*
X167028908Y-70769817D01*
X167018142Y-70838852D01*
X166971761Y-70891107D01*
X166905969Y-70910000D01*
X166480000Y-70910000D01*
X166493824Y-73391733D01*
X166474513Y-73458881D01*
X166435799Y-73497417D01*
X166367741Y-73540181D01*
X166367739Y-73540182D01*
X166240184Y-73667737D01*
X166144211Y-73820476D01*
X166084631Y-73990745D01*
X166084630Y-73990750D01*
X166064435Y-74169996D01*
X166064435Y-74170003D01*
X166084630Y-74349249D01*
X166084631Y-74349254D01*
X166144211Y-74519523D01*
X166150494Y-74529522D01*
X166240184Y-74672262D01*
X166367738Y-74799816D01*
X166441972Y-74846460D01*
X166488263Y-74898793D01*
X166500000Y-74951453D01*
X166500000Y-75121677D01*
X166480315Y-75188716D01*
X166443679Y-75225578D01*
X166419208Y-75241517D01*
X166419193Y-75241529D01*
X166366679Y-75287598D01*
X166366668Y-75287608D01*
X166366660Y-75287617D01*
X166273118Y-75396918D01*
X166273112Y-75396927D01*
X166214151Y-75528159D01*
X166214146Y-75528172D01*
X166194878Y-75595315D01*
X166194877Y-75595323D01*
X166179029Y-75710568D01*
X166175275Y-75737863D01*
X166175275Y-75737864D01*
X166191449Y-78374363D01*
X166199442Y-78445614D01*
X166187353Y-78514430D01*
X166143256Y-78563751D01*
X166041456Y-78629175D01*
X166041451Y-78629179D01*
X165988659Y-78674923D01*
X165894433Y-78783664D01*
X165894430Y-78783668D01*
X165834664Y-78914534D01*
X165814976Y-78981582D01*
X165806938Y-79037491D01*
X165797259Y-79104814D01*
X165794500Y-79124001D01*
X165794500Y-81019586D01*
X165774815Y-81086625D01*
X165756069Y-81109329D01*
X162200006Y-84499992D01*
X161200000Y-85499999D01*
X161292302Y-91776651D01*
X161273605Y-91843972D01*
X161226770Y-91887831D01*
X161143549Y-91932315D01*
X160983589Y-92063589D01*
X160855412Y-92219776D01*
X160852315Y-92223550D01*
X160845724Y-92235881D01*
X160754769Y-92406043D01*
X160694699Y-92604067D01*
X160674417Y-92810000D01*
X157667948Y-92810000D01*
X157709784Y-74434748D01*
X157729621Y-74367754D01*
X157746885Y-74346574D01*
X157753275Y-74340294D01*
X157753277Y-74340295D01*
X157928656Y-58302882D01*
X157949073Y-58236063D01*
X158002374Y-58190888D01*
X158052889Y-58180239D01*
X214366176Y-58289759D01*
G37*
%TD.AperFunction*%
%TD*%
%TA.AperFunction,Conductor*%
%TO.N,Net-(C1-Pad1)*%
G36*
X195016266Y-92629685D02*
G01*
X195062021Y-92682489D01*
X195073154Y-92729739D01*
X195075166Y-92788250D01*
X195075193Y-92789875D01*
X195075238Y-92790372D01*
X195075239Y-92790377D01*
X195075239Y-92790382D01*
X195090224Y-92874066D01*
X195100599Y-92932011D01*
X195108470Y-92955762D01*
X195114121Y-92982157D01*
X195114356Y-92984456D01*
X195114999Y-92997065D01*
X195114999Y-93982933D01*
X195114357Y-93995532D01*
X195114122Y-93997833D01*
X195108470Y-94024238D01*
X195098115Y-94055487D01*
X195085947Y-94081580D01*
X195033497Y-94166614D01*
X195032278Y-94168551D01*
X195024803Y-94180183D01*
X195000128Y-94223057D01*
X195000127Y-94223058D01*
X194953436Y-94359148D01*
X194953436Y-94359150D01*
X194941951Y-94419617D01*
X194941823Y-94420111D01*
X194940403Y-94427767D01*
X194940399Y-94427792D01*
X194940398Y-94427795D01*
X194940398Y-94427798D01*
X194933941Y-94571529D01*
X194933941Y-94571533D01*
X194968236Y-94711255D01*
X194968236Y-94711257D01*
X195001110Y-94792731D01*
X195004572Y-94795573D01*
X195015816Y-94815964D01*
X195028678Y-94845568D01*
X195028689Y-94845587D01*
X195085946Y-94938415D01*
X195098114Y-94964509D01*
X195108470Y-94995762D01*
X195114121Y-95022150D01*
X195114356Y-95024448D01*
X195114999Y-95037063D01*
X195114999Y-96022933D01*
X195114356Y-96035542D01*
X195114121Y-96037841D01*
X195108470Y-96064236D01*
X195098113Y-96095491D01*
X195085946Y-96121583D01*
X195046238Y-96185961D01*
X195041119Y-96193609D01*
X195023913Y-96217360D01*
X195023907Y-96217371D01*
X194963756Y-96348069D01*
X194963754Y-96348074D01*
X194944464Y-96413065D01*
X194943986Y-96414582D01*
X194943873Y-96415057D01*
X194922981Y-96557414D01*
X194895565Y-105955785D01*
X194886513Y-109059238D01*
X194886333Y-109120862D01*
X194866453Y-109187843D01*
X194813516Y-109233444D01*
X194762334Y-109244500D01*
X192975740Y-109244500D01*
X192869188Y-109255859D01*
X192869173Y-109255861D01*
X192818083Y-109266880D01*
X192716308Y-109300448D01*
X192716307Y-109300449D01*
X192594993Y-109377796D01*
X192542020Y-109423365D01*
X192542018Y-109423367D01*
X192542016Y-109423368D01*
X192447402Y-109531769D01*
X192447400Y-109531772D01*
X192387164Y-109662429D01*
X192370860Y-109717227D01*
X192346662Y-109757854D01*
X192350000Y-108830000D01*
X185720000Y-109020000D01*
X185708464Y-109795767D01*
X185708461Y-109795768D01*
X185708462Y-109795766D01*
X185700000Y-109799999D01*
X185699999Y-109799999D01*
X185681292Y-111586518D01*
X185660907Y-111653348D01*
X185607627Y-111698548D01*
X185556514Y-111709218D01*
X184099967Y-111699999D01*
X180009594Y-111736684D01*
X179942381Y-111717601D01*
X179896154Y-111665210D01*
X179885591Y-111596143D01*
X179896085Y-111560316D01*
X179902147Y-111547307D01*
X179926860Y-111512008D01*
X179972709Y-111466159D01*
X179972709Y-111466158D01*
X179972712Y-111466156D01*
X180064814Y-111316834D01*
X180119999Y-111150297D01*
X180130500Y-111047509D01*
X180130499Y-110122492D01*
X180119999Y-110019703D01*
X180064814Y-109853166D01*
X179997251Y-109743629D01*
X179978795Y-109677585D01*
X179981337Y-109346193D01*
X179975202Y-109263706D01*
X179968912Y-109223751D01*
X179949403Y-109143356D01*
X179921527Y-109059234D01*
X179915873Y-109032806D01*
X179915639Y-109030510D01*
X179915000Y-109017937D01*
X179915000Y-108082054D01*
X179915638Y-108069491D01*
X179915872Y-108067194D01*
X179921528Y-108040760D01*
X179966016Y-107906509D01*
X179969188Y-107892158D01*
X179968824Y-107892055D01*
X179969727Y-107888859D01*
X179969727Y-107888855D01*
X179969730Y-107888849D01*
X179981341Y-107837401D01*
X179993728Y-107729991D01*
X179993929Y-107703655D01*
X179996082Y-107423049D01*
X180016280Y-107356163D01*
X180069433Y-107310814D01*
X180120078Y-107300000D01*
X181350000Y-107300000D01*
X181350000Y-102423765D01*
X181369685Y-102356726D01*
X181422489Y-102310971D01*
X181473762Y-102299765D01*
X191910000Y-102280000D01*
X191910000Y-96894345D01*
X191927670Y-96830549D01*
X192330000Y-96160000D01*
X192341061Y-95374668D01*
X192359509Y-95311322D01*
X192437246Y-95185293D01*
X192490387Y-95024920D01*
X192500500Y-94925935D01*
X192500499Y-92874066D01*
X192490387Y-92775080D01*
X192489701Y-92773009D01*
X192489654Y-92771654D01*
X192488970Y-92768457D01*
X192489540Y-92768334D01*
X192487296Y-92703180D01*
X192523025Y-92643137D01*
X192585544Y-92611942D01*
X192607405Y-92610000D01*
X194949227Y-92610000D01*
X195016266Y-92629685D01*
G37*
%TD.AperFunction*%
%TD*%
%TA.AperFunction,Conductor*%
%TO.N,Net-(Q1-G)*%
G36*
X173546182Y-88113091D02*
G01*
X174191454Y-88435727D01*
X174242613Y-88483314D01*
X174260000Y-88546636D01*
X174260000Y-91798296D01*
X174240315Y-91865335D01*
X174187511Y-91911090D01*
X174138317Y-91922274D01*
X172246972Y-91957626D01*
X172179577Y-91939198D01*
X172132843Y-91887258D01*
X172120657Y-91833009D01*
X172138083Y-88470000D01*
X172139361Y-88223357D01*
X172159392Y-88156421D01*
X172212433Y-88110940D01*
X172263359Y-88100000D01*
X173490728Y-88100000D01*
X173546182Y-88113091D01*
G37*
%TD.AperFunction*%
%TD*%
%TA.AperFunction,Conductor*%
%TO.N,GND*%
G36*
X165400000Y-99200000D02*
G01*
X162800000Y-99200000D01*
X162800000Y-96900000D01*
X165400000Y-96900000D01*
X165400000Y-99200000D01*
G37*
%TD.AperFunction*%
%TD*%
%TA.AperFunction,Conductor*%
%TO.N,Net-(Q1-S_1)*%
G36*
X180643021Y-87509874D02*
G01*
X180688952Y-87562525D01*
X180700330Y-87614082D01*
X180704765Y-89282001D01*
X180685258Y-89349093D01*
X180668451Y-89370008D01*
X180656776Y-89381683D01*
X180606027Y-89490514D01*
X180599500Y-89540098D01*
X180599500Y-89959894D01*
X180599501Y-89959900D01*
X180606028Y-90009487D01*
X180606029Y-90009489D01*
X180606029Y-90009490D01*
X180656776Y-90118316D01*
X180670941Y-90132481D01*
X180704426Y-90193804D01*
X180707260Y-90219832D01*
X180709880Y-91204920D01*
X180690373Y-91272012D01*
X180681139Y-91284633D01*
X180297181Y-91745383D01*
X180239142Y-91784282D01*
X180201922Y-91790000D01*
X175614499Y-91790000D01*
X175547460Y-91770315D01*
X175501705Y-91717511D01*
X175490500Y-91665502D01*
X175499835Y-89341056D01*
X175519789Y-89274096D01*
X175524634Y-89267154D01*
X175688961Y-89048051D01*
X175700467Y-89034785D01*
X175770824Y-88964429D01*
X175822933Y-88857840D01*
X175833000Y-88788742D01*
X175833000Y-88411258D01*
X175822933Y-88342160D01*
X175812600Y-88321023D01*
X175800000Y-88266562D01*
X175800000Y-88124000D01*
X175819685Y-88056961D01*
X175872489Y-88011206D01*
X175924000Y-88000000D01*
X177099999Y-88000000D01*
X177100000Y-88000000D01*
X177665691Y-87528590D01*
X177729793Y-87500795D01*
X177744657Y-87499851D01*
X180575919Y-87490413D01*
X180643021Y-87509874D01*
G37*
%TD.AperFunction*%
%TD*%
%TA.AperFunction,Conductor*%
%TO.N,Net-(D3-K)*%
G36*
X171263374Y-90279610D02*
G01*
X171289996Y-90289539D01*
X171293039Y-90290674D01*
X171319477Y-90298932D01*
X171345415Y-90305514D01*
X171345476Y-90305550D01*
X171345481Y-90305532D01*
X171345729Y-90305594D01*
X171345829Y-90305620D01*
X171445392Y-90310686D01*
X171514524Y-90300555D01*
X171549170Y-90292268D01*
X171618945Y-90295816D01*
X171675729Y-90336527D01*
X171701489Y-90401475D01*
X171702001Y-90411107D01*
X171718222Y-91554707D01*
X171699490Y-91622019D01*
X171647340Y-91668518D01*
X171594695Y-91680465D01*
X167775114Y-91694664D01*
X167712654Y-91678053D01*
X167699850Y-91670660D01*
X167673525Y-91663606D01*
X167620879Y-91649500D01*
X167620878Y-91649500D01*
X167620877Y-91649500D01*
X166739976Y-91649500D01*
X166672937Y-91629815D01*
X166652295Y-91613181D01*
X166376319Y-91337205D01*
X166342834Y-91275882D01*
X166340000Y-91249524D01*
X166340000Y-90413537D01*
X166359685Y-90346498D01*
X166412489Y-90300743D01*
X166463532Y-90289539D01*
X169613420Y-90277785D01*
X169650786Y-90284973D01*
X169651146Y-90283748D01*
X169656990Y-90285464D01*
X169656992Y-90285465D01*
X169724031Y-90305150D01*
X169724036Y-90305150D01*
X169724037Y-90305151D01*
X169735668Y-90306823D01*
X169796016Y-90315500D01*
X169796017Y-90315500D01*
X170231925Y-90315500D01*
X170231931Y-90315500D01*
X170277295Y-90311441D01*
X170320628Y-90303623D01*
X170320636Y-90303620D01*
X170320640Y-90303620D01*
X170334581Y-90299794D01*
X170364554Y-90291572D01*
X170388737Y-90282551D01*
X170431607Y-90274732D01*
X171219579Y-90271792D01*
X171263374Y-90279610D01*
G37*
%TD.AperFunction*%
%TD*%
%TA.AperFunction,Conductor*%
%TO.N,GND*%
G36*
X206877535Y-73489715D02*
G01*
X206944441Y-73509849D01*
X206989841Y-73562959D01*
X207000701Y-73612942D01*
X207019998Y-76719767D01*
X207020000Y-76720209D01*
X207029671Y-80375851D01*
X207010163Y-80442942D01*
X206957481Y-80488837D01*
X206905850Y-80500179D01*
X200233766Y-80509821D01*
X200166698Y-80490233D01*
X200120867Y-80437495D01*
X200109588Y-80386236D01*
X200100000Y-77500000D01*
X200100000Y-76624466D01*
X200119685Y-76557427D01*
X200172489Y-76511672D01*
X200224464Y-76500467D01*
X205430000Y-76520000D01*
X205430000Y-76519999D01*
X205430000Y-73604834D01*
X205449685Y-73537795D01*
X205502489Y-73492040D01*
X205554828Y-73480837D01*
X206877535Y-73489715D01*
G37*
%TD.AperFunction*%
%TD*%
%TA.AperFunction,Conductor*%
%TO.N,V_HIGH*%
G36*
X179530000Y-100010000D02*
G01*
X179530000Y-100900001D01*
X179530000Y-102900399D01*
X179526632Y-102908531D01*
X179526580Y-102908582D01*
X179525169Y-102909974D01*
X179525169Y-102909976D01*
X179525168Y-102909976D01*
X177500000Y-102900000D01*
X177500000Y-98311500D01*
X177503368Y-98303368D01*
X177511500Y-98300000D01*
X178899962Y-98300000D01*
X178900000Y-98300000D01*
X179530000Y-100010000D01*
G37*
%TD.AperFunction*%
%TD*%
%TA.AperFunction,Conductor*%
%TO.N,V_LOW*%
G36*
X189330000Y-72940000D02*
G01*
X193500000Y-72920047D01*
X193500000Y-75400000D01*
X194399999Y-76899999D01*
X194399999Y-76900000D01*
X194400000Y-76900000D01*
X196876000Y-76900000D01*
X196943039Y-76919685D01*
X196988794Y-76972489D01*
X197000000Y-77024000D01*
X197000000Y-79876000D01*
X196980315Y-79943039D01*
X196927511Y-79988794D01*
X196876000Y-80000000D01*
X195700000Y-80000000D01*
X195700000Y-89170500D01*
X195680315Y-89237539D01*
X195627511Y-89283294D01*
X195576000Y-89294500D01*
X193721243Y-89294500D01*
X193654204Y-89274815D01*
X193608449Y-89222011D01*
X193597252Y-89171998D01*
X193500000Y-81100000D01*
X192965228Y-81100000D01*
X192898189Y-81080315D01*
X192863047Y-81046250D01*
X191822149Y-79532216D01*
X191800390Y-79465820D01*
X191800335Y-79460903D01*
X191830000Y-76000000D01*
X191830000Y-75999999D01*
X189920002Y-74890000D01*
X189920000Y-74890000D01*
X182710000Y-74910000D01*
X182709999Y-74910001D01*
X182700827Y-76276832D01*
X182680693Y-76343738D01*
X182627583Y-76389138D01*
X182576830Y-76400000D01*
X177200000Y-76400000D01*
X177006681Y-79783074D01*
X176983204Y-79848881D01*
X176927876Y-79891549D01*
X176882883Y-79900000D01*
X175624000Y-79900000D01*
X175556961Y-79880315D01*
X175511206Y-79827511D01*
X175500000Y-79776000D01*
X175500000Y-72824000D01*
X175519685Y-72756961D01*
X175572489Y-72711206D01*
X175624000Y-72700000D01*
X177899999Y-72700000D01*
X177900000Y-72700000D01*
X179182180Y-72305482D01*
X179218647Y-72300000D01*
X189328904Y-72300000D01*
X189330000Y-72940000D01*
G37*
%TD.AperFunction*%
%TD*%
%TA.AperFunction,Conductor*%
%TO.N,Net-(C22-Pad2)*%
G36*
X189875155Y-75179948D02*
G01*
X189939716Y-75198193D01*
X190400000Y-75480000D01*
X190941087Y-75813670D01*
X190987816Y-75865612D01*
X191000000Y-75919214D01*
X191000000Y-77576000D01*
X190980315Y-77643039D01*
X190927511Y-77688794D01*
X190876000Y-77700000D01*
X189283952Y-77700000D01*
X189216913Y-77680315D01*
X189171158Y-77627511D01*
X189168821Y-77622052D01*
X189000000Y-77200000D01*
X183324000Y-77200000D01*
X183256961Y-77180315D01*
X183211206Y-77127511D01*
X183200000Y-77076000D01*
X183200000Y-76000000D01*
X183191514Y-75295681D01*
X183210389Y-75228409D01*
X183262638Y-75182021D01*
X183315689Y-75170187D01*
X189875155Y-75179948D01*
G37*
%TD.AperFunction*%
%TD*%
%TA.AperFunction,Conductor*%
%TO.N,V_HIGH*%
G36*
X192424098Y-89779001D02*
G01*
X193599987Y-89800000D01*
X193600000Y-89800000D01*
X195579468Y-89800000D01*
X195646507Y-89819685D01*
X195692262Y-89872489D01*
X195703418Y-89920484D01*
X195761840Y-91979857D01*
X195744065Y-92047427D01*
X195692579Y-92094661D01*
X195648865Y-92106886D01*
X195631585Y-92108421D01*
X195587192Y-92114354D01*
X195450611Y-92159614D01*
X195388086Y-92190809D01*
X195387940Y-92190896D01*
X195387885Y-92190909D01*
X195384166Y-92192770D01*
X195383760Y-92191958D01*
X195320224Y-92208110D01*
X195273259Y-92196987D01*
X195203863Y-92165294D01*
X195158689Y-92144663D01*
X195091644Y-92124976D01*
X195027522Y-92115757D01*
X194949227Y-92104500D01*
X192607405Y-92104500D01*
X192607397Y-92104500D01*
X192562679Y-92106482D01*
X192540813Y-92108425D01*
X192496429Y-92114359D01*
X192496426Y-92114360D01*
X192359851Y-92159622D01*
X192297334Y-92190816D01*
X192179041Y-92272723D01*
X192179040Y-92272724D01*
X192088620Y-92384637D01*
X192054507Y-92441963D01*
X192053424Y-92443680D01*
X192052887Y-92444684D01*
X191997658Y-92577542D01*
X191997657Y-92577547D01*
X191982095Y-92720572D01*
X191982691Y-92737869D01*
X191982680Y-92737911D01*
X191984209Y-92781997D01*
X191983318Y-92785472D01*
X191984422Y-92796284D01*
X191984989Y-92804608D01*
X191985398Y-92816488D01*
X191987969Y-92831004D01*
X191994357Y-92893535D01*
X191994999Y-92906137D01*
X191994999Y-94892820D01*
X191988705Y-94931823D01*
X191980546Y-94956446D01*
X191968378Y-94982540D01*
X191929273Y-95045937D01*
X191929271Y-95045940D01*
X191874170Y-95169983D01*
X191855725Y-95233317D01*
X191855724Y-95233321D01*
X191835611Y-95367543D01*
X191835611Y-95367550D01*
X191826937Y-95983300D01*
X191809278Y-96045350D01*
X191494209Y-96570465D01*
X191440513Y-96695609D01*
X191422839Y-96759418D01*
X191404500Y-96894342D01*
X191404500Y-97675928D01*
X191386968Y-97739494D01*
X189536082Y-100839566D01*
X189484814Y-100887036D01*
X189429614Y-100900000D01*
X179530000Y-100900000D01*
X179530000Y-100010000D01*
X178900001Y-98300003D01*
X178900720Y-98300008D01*
X187900000Y-98400000D01*
X188300000Y-98000000D01*
X188300000Y-92424876D01*
X188319685Y-92357837D01*
X188372489Y-92312082D01*
X188424871Y-92300879D01*
X189720000Y-92310000D01*
X191322609Y-89818137D01*
X191375428Y-89772402D01*
X191429114Y-89761234D01*
X192424098Y-89779001D01*
G37*
%TD.AperFunction*%
%TD*%
%TA.AperFunction,Conductor*%
%TO.N,Net-(C14-Pad2)*%
G36*
X190504041Y-112649794D02*
G01*
X190549899Y-112702508D01*
X190561200Y-112753031D01*
X190578675Y-114544290D01*
X190559645Y-114611519D01*
X190507290Y-114657786D01*
X190454681Y-114669500D01*
X188462129Y-114669500D01*
X188462123Y-114669501D01*
X188402516Y-114675908D01*
X188267671Y-114726202D01*
X188267664Y-114726206D01*
X188152457Y-114812451D01*
X188152450Y-114812457D01*
X188106220Y-114874213D01*
X188050286Y-114916083D01*
X188018682Y-114923345D01*
X184370000Y-115269999D01*
X184357749Y-116429153D01*
X184339296Y-116492938D01*
X184309743Y-116540851D01*
X184285186Y-116580666D01*
X184230001Y-116747203D01*
X184230001Y-116747204D01*
X184230000Y-116747204D01*
X184219500Y-116849983D01*
X184219500Y-117650001D01*
X184219501Y-117650019D01*
X184230000Y-117752796D01*
X184230001Y-117752799D01*
X184285185Y-117919331D01*
X184285186Y-117919334D01*
X184285190Y-117919340D01*
X184322210Y-117979361D01*
X184340664Y-118045767D01*
X184336245Y-118464018D01*
X184317792Y-118527802D01*
X184285186Y-118580666D01*
X184230001Y-118747203D01*
X184230001Y-118747204D01*
X184230000Y-118747204D01*
X184219500Y-118849983D01*
X184219500Y-119650001D01*
X184219501Y-119650019D01*
X184230000Y-119752796D01*
X184230001Y-119752799D01*
X184285185Y-119919331D01*
X184285188Y-119919338D01*
X184301431Y-119945672D01*
X184319884Y-120012077D01*
X184291309Y-122716124D01*
X184270917Y-122782952D01*
X184217633Y-122828146D01*
X184166124Y-122838808D01*
X182333545Y-122821187D01*
X182266698Y-122800859D01*
X182221453Y-122747618D01*
X182210739Y-122696453D01*
X182219262Y-121273257D01*
X182239348Y-121206337D01*
X182292425Y-121160899D01*
X182343260Y-121150000D01*
X182629999Y-121150000D01*
X182630000Y-121150000D01*
X182600000Y-114820000D01*
X180351149Y-114820000D01*
X180284110Y-114800315D01*
X180238355Y-114747511D01*
X180227183Y-114698883D01*
X180226500Y-114669500D01*
X180182923Y-112795723D01*
X180201043Y-112728247D01*
X180252769Y-112681277D01*
X180305752Y-112668848D01*
X182909587Y-112645003D01*
X182910402Y-112644999D01*
X190436963Y-112630241D01*
X190504041Y-112649794D01*
G37*
%TD.AperFunction*%
%TD*%
%TA.AperFunction,Conductor*%
%TO.N,Net-(Q1-G)*%
G36*
X182633366Y-87509685D02*
G01*
X182679121Y-87562489D01*
X182690327Y-87613672D01*
X182699671Y-91145672D01*
X182680163Y-91212763D01*
X182627481Y-91258658D01*
X182575671Y-91270000D01*
X181089224Y-91270000D01*
X181022185Y-91250315D01*
X180976430Y-91197511D01*
X180965224Y-91146334D01*
X180962759Y-90219152D01*
X180961259Y-90192176D01*
X180958425Y-90166148D01*
X180928673Y-90071356D01*
X180895188Y-90010033D01*
X180884332Y-89995531D01*
X180871221Y-89973632D01*
X180866614Y-89963753D01*
X180855000Y-89911357D01*
X180855000Y-89589398D01*
X180874685Y-89522359D01*
X180882352Y-89511711D01*
X180884421Y-89509138D01*
X180884625Y-89508884D01*
X180930598Y-89420426D01*
X180930598Y-89420422D01*
X180930601Y-89420418D01*
X180950105Y-89353336D01*
X180950106Y-89353331D01*
X180960262Y-89281335D01*
X180960264Y-89281322D01*
X180960044Y-89199096D01*
X180969486Y-89151309D01*
X180970962Y-89147745D01*
X180970966Y-89147740D01*
X180976300Y-89120926D01*
X180985500Y-89074676D01*
X180985500Y-87875323D01*
X180985499Y-87875321D01*
X180970967Y-87802264D01*
X180970966Y-87802263D01*
X180970966Y-87802260D01*
X180970964Y-87802257D01*
X180966293Y-87790980D01*
X180970174Y-87789371D01*
X180956192Y-87744729D01*
X180956172Y-87742912D01*
X180955831Y-87614327D01*
X180975338Y-87547238D01*
X181028020Y-87501343D01*
X181079831Y-87490000D01*
X182566327Y-87490000D01*
X182633366Y-87509685D01*
G37*
%TD.AperFunction*%
%TD*%
%TA.AperFunction,Conductor*%
%TO.N,Net-(Q1-D_1)*%
G36*
X175262066Y-80286852D02*
G01*
X175283664Y-80305567D01*
X175283667Y-80305568D01*
X175283668Y-80305569D01*
X175326368Y-80325070D01*
X175414541Y-80365338D01*
X175481580Y-80385023D01*
X175481584Y-80385024D01*
X175624000Y-80405500D01*
X176570500Y-80405500D01*
X176637539Y-80425185D01*
X176683294Y-80477989D01*
X176694500Y-80529500D01*
X176694500Y-81627812D01*
X176712506Y-81761526D01*
X176729858Y-81824787D01*
X176729863Y-81824801D01*
X176782598Y-81948985D01*
X176782604Y-81948995D01*
X176872556Y-82060633D01*
X176880752Y-82080424D01*
X176910810Y-82110995D01*
X176940869Y-82120376D01*
X176942765Y-82121666D01*
X177042195Y-82190709D01*
X177178710Y-82236154D01*
X177247468Y-82248563D01*
X177300583Y-82250462D01*
X177314214Y-82255000D01*
X177352129Y-82255000D01*
X182058881Y-82255000D01*
X182125920Y-82274685D01*
X182129575Y-82277126D01*
X182132642Y-82279254D01*
X182136341Y-82281821D01*
X182151323Y-82291440D01*
X182182570Y-82309952D01*
X182317424Y-82360111D01*
X182317427Y-82360112D01*
X182317430Y-82360113D01*
X182374766Y-82372530D01*
X182385710Y-82374901D01*
X182449496Y-82379405D01*
X182529225Y-82385035D01*
X182529225Y-82385034D01*
X182529230Y-82385035D01*
X182669795Y-82354325D01*
X182735238Y-82329849D01*
X182861457Y-82260781D01*
X183153699Y-82041601D01*
X183220533Y-81981484D01*
X183250448Y-81949323D01*
X183305567Y-81878336D01*
X183365338Y-81747459D01*
X183382485Y-81689062D01*
X183420261Y-81630286D01*
X183483817Y-81601262D01*
X183501462Y-81600000D01*
X187876000Y-81600000D01*
X187943039Y-81619685D01*
X187988794Y-81672489D01*
X188000000Y-81724000D01*
X188000000Y-87076000D01*
X187980315Y-87143039D01*
X187927511Y-87188794D01*
X187876000Y-87200000D01*
X183086282Y-87200000D01*
X183019243Y-87180315D01*
X183005083Y-87169715D01*
X182906663Y-87084433D01*
X182906660Y-87084431D01*
X182906658Y-87084430D01*
X182775792Y-87024664D01*
X182775787Y-87024662D01*
X182775786Y-87024662D01*
X182717472Y-87007539D01*
X182708744Y-87004976D01*
X182661271Y-86998150D01*
X182566327Y-86984500D01*
X181079831Y-86984500D01*
X180999823Y-86993155D01*
X180971711Y-86996197D01*
X180919923Y-87007535D01*
X180919902Y-87007541D01*
X180866040Y-87025586D01*
X180796220Y-87028217D01*
X180784171Y-87024480D01*
X180719068Y-87005598D01*
X180717385Y-87005073D01*
X180716718Y-87004917D01*
X180574233Y-86984915D01*
X177742980Y-86994353D01*
X177712625Y-86995366D01*
X177697730Y-86996312D01*
X177667514Y-86999145D01*
X177667505Y-86999146D01*
X177667503Y-86999147D01*
X177636736Y-87007541D01*
X177528699Y-87037016D01*
X177528697Y-87037016D01*
X177528696Y-87037017D01*
X177519734Y-87040903D01*
X177472177Y-87061523D01*
X177466847Y-87063423D01*
X177342077Y-87140253D01*
X177342068Y-87140259D01*
X176951472Y-87465759D01*
X176887369Y-87493555D01*
X176872089Y-87494500D01*
X175924000Y-87494500D01*
X175923991Y-87494500D01*
X175923990Y-87494501D01*
X175813242Y-87506408D01*
X175813136Y-87505426D01*
X175747907Y-87497222D01*
X175737991Y-87492368D01*
X175651973Y-87445399D01*
X175651970Y-87445398D01*
X175603596Y-87427355D01*
X175602088Y-87426226D01*
X175590279Y-87422302D01*
X175586067Y-87420818D01*
X175576010Y-87417067D01*
X175565078Y-87413849D01*
X175560998Y-87412572D01*
X175558495Y-87411740D01*
X175558496Y-87411740D01*
X175527553Y-87401457D01*
X175527545Y-87401455D01*
X175439628Y-87380742D01*
X175439618Y-87380741D01*
X175402454Y-87375431D01*
X175338873Y-87346462D01*
X175301047Y-87287718D01*
X175296012Y-87254858D01*
X175207559Y-82212958D01*
X175195122Y-82110040D01*
X175187717Y-82077385D01*
X175183938Y-82060716D01*
X175183937Y-82060713D01*
X175183935Y-82060704D01*
X175150769Y-81962496D01*
X175072981Y-81841457D01*
X175072976Y-81841451D01*
X175027232Y-81788659D01*
X175027228Y-81788656D01*
X175027226Y-81788653D01*
X174918492Y-81694433D01*
X174918489Y-81694431D01*
X174918487Y-81694430D01*
X174787621Y-81634664D01*
X174787616Y-81634662D01*
X174787615Y-81634662D01*
X174720576Y-81614977D01*
X174720578Y-81614977D01*
X174720573Y-81614976D01*
X174654664Y-81605500D01*
X174578156Y-81594500D01*
X173787012Y-81594500D01*
X173719973Y-81574815D01*
X173674218Y-81522011D01*
X173663015Y-81469705D01*
X173664106Y-81299404D01*
X173667235Y-80811208D01*
X173687348Y-80744299D01*
X173740444Y-80698884D01*
X173790827Y-80688007D01*
X174425778Y-80685938D01*
X174494787Y-80685714D01*
X174599579Y-80674384D01*
X174649859Y-80663554D01*
X174750041Y-80630730D01*
X174871647Y-80553830D01*
X174924784Y-80508463D01*
X175019796Y-80400422D01*
X175077042Y-80312762D01*
X175130178Y-80267397D01*
X175199408Y-80257960D01*
X175262066Y-80286852D01*
G37*
%TD.AperFunction*%
%TD*%
%TA.AperFunction,Conductor*%
%TO.N,Net-(C39-Pad1)*%
G36*
X182770223Y-80019685D02*
G01*
X182815978Y-80072489D01*
X182823480Y-80093921D01*
X182862292Y-80249169D01*
X182896298Y-80385192D01*
X182900000Y-80415266D01*
X182900000Y-81538000D01*
X182880315Y-81605039D01*
X182850400Y-81637200D01*
X182558158Y-81856380D01*
X182492715Y-81880856D01*
X182424429Y-81866066D01*
X182409447Y-81856447D01*
X182403910Y-81852302D01*
X182342331Y-81806204D01*
X182342329Y-81806203D01*
X182342328Y-81806202D01*
X182207482Y-81755908D01*
X182207483Y-81755908D01*
X182147883Y-81749501D01*
X182147881Y-81749500D01*
X182147873Y-81749500D01*
X182147864Y-81749500D01*
X177352129Y-81749500D01*
X177352108Y-81749502D01*
X177337247Y-81751099D01*
X177268489Y-81738690D01*
X177217354Y-81691076D01*
X177200000Y-81627809D01*
X177200000Y-80381012D01*
X177219685Y-80313973D01*
X177248271Y-80282822D01*
X177291903Y-80249175D01*
X177392174Y-80145991D01*
X177434304Y-80066138D01*
X177482996Y-80016030D01*
X177543976Y-80000000D01*
X182703184Y-80000000D01*
X182770223Y-80019685D01*
G37*
%TD.AperFunction*%
%TD*%
%TA.AperFunction,Conductor*%
%TO.N,V_HIGH*%
G36*
X168963039Y-75629685D02*
G01*
X169008794Y-75682489D01*
X169020000Y-75734000D01*
X169020000Y-78378822D01*
X169000315Y-78445861D01*
X168947511Y-78491616D01*
X168913079Y-78501640D01*
X168826516Y-78513677D01*
X168761425Y-78532135D01*
X168761422Y-78532136D01*
X168633956Y-78588222D01*
X168556581Y-78635947D01*
X168530489Y-78648114D01*
X168499237Y-78658470D01*
X168472849Y-78664121D01*
X168472431Y-78664163D01*
X168470557Y-78664355D01*
X168457945Y-78664998D01*
X167722065Y-78664998D01*
X167709509Y-78664361D01*
X167707911Y-78664198D01*
X167707207Y-78664126D01*
X167680762Y-78658470D01*
X167649507Y-78648113D01*
X167623416Y-78635947D01*
X167591523Y-78616275D01*
X167546037Y-78588219D01*
X167462327Y-78551387D01*
X167418579Y-78532138D01*
X167418576Y-78532137D01*
X167353483Y-78513677D01*
X167215573Y-78494500D01*
X167215569Y-78494500D01*
X166820938Y-78494500D01*
X166753899Y-78474815D01*
X166708144Y-78422011D01*
X166696940Y-78371261D01*
X166680765Y-75734761D01*
X166700038Y-75667602D01*
X166752561Y-75621524D01*
X166804763Y-75610000D01*
X168896000Y-75610000D01*
X168963039Y-75629685D01*
G37*
%TD.AperFunction*%
%TD*%
%TA.AperFunction,Conductor*%
%TO.N,V_HIGH*%
G36*
X161702730Y-92233041D02*
G01*
X161721999Y-92240823D01*
X161722514Y-92241034D01*
X161722554Y-92241047D01*
X161722566Y-92241052D01*
X161768497Y-92252339D01*
X161774878Y-92254090D01*
X161789186Y-92258430D01*
X161789186Y-92258431D01*
X161927884Y-92300503D01*
X161950339Y-92309804D01*
X162023477Y-92348897D01*
X162023481Y-92348899D01*
X162043688Y-92362401D01*
X162117236Y-92422760D01*
X162124800Y-92428967D01*
X162125558Y-92430079D01*
X162158128Y-92456326D01*
X162158922Y-92456971D01*
X162160407Y-92458190D01*
X162162157Y-92459627D01*
X162162201Y-92459661D01*
X162184370Y-92477855D01*
X162191234Y-92482049D01*
X162222020Y-92504250D01*
X162223847Y-92505567D01*
X162354724Y-92565338D01*
X162421763Y-92585023D01*
X162421767Y-92585024D01*
X162564183Y-92605500D01*
X163179184Y-92605500D01*
X163246223Y-92625185D01*
X163256646Y-92632672D01*
X163550262Y-92867565D01*
X163571132Y-92883392D01*
X163581539Y-92890867D01*
X163581548Y-92890873D01*
X163603161Y-92905567D01*
X163734038Y-92965338D01*
X163801077Y-92985023D01*
X163801081Y-92985024D01*
X163943497Y-93005500D01*
X165170500Y-93005500D01*
X165237539Y-93025185D01*
X165283294Y-93077989D01*
X165294500Y-93129500D01*
X165294500Y-93199259D01*
X165294501Y-93199274D01*
X165312508Y-93332978D01*
X165312510Y-93332991D01*
X165312511Y-93332997D01*
X165312513Y-93333004D01*
X165329861Y-93396246D01*
X165329871Y-93396273D01*
X165382616Y-93520468D01*
X165382618Y-93520471D01*
X165472892Y-93632497D01*
X165472896Y-93632502D01*
X165524038Y-93680118D01*
X165524041Y-93680119D01*
X165642212Y-93762169D01*
X165642213Y-93762169D01*
X165642214Y-93762170D01*
X165778730Y-93807610D01*
X165845102Y-93819586D01*
X165846822Y-93819932D01*
X165847492Y-93820018D01*
X165847493Y-93820018D01*
X165847498Y-93820019D01*
X165916078Y-93822468D01*
X165923692Y-93825002D01*
X165965623Y-93825000D01*
X165965623Y-93825001D01*
X165984750Y-93825000D01*
X165989197Y-93825079D01*
X165991287Y-93825155D01*
X165991288Y-93825154D01*
X165991292Y-93825155D01*
X165993382Y-93825080D01*
X165997832Y-93825000D01*
X167445500Y-93825000D01*
X167512539Y-93844685D01*
X167558294Y-93897489D01*
X167569500Y-93949000D01*
X167569500Y-94465500D01*
X167549815Y-94532539D01*
X167497011Y-94578294D01*
X167445500Y-94589500D01*
X165965629Y-94589500D01*
X165965623Y-94589501D01*
X165906016Y-94595908D01*
X165771171Y-94646202D01*
X165771164Y-94646206D01*
X165655955Y-94732452D01*
X165655952Y-94732455D01*
X165564388Y-94854769D01*
X165561915Y-94852917D01*
X165523323Y-94891483D01*
X165464429Y-94906629D01*
X163489245Y-94914499D01*
X163488751Y-94914500D01*
X161629000Y-94914500D01*
X161561961Y-94894815D01*
X161516206Y-94842011D01*
X161505000Y-94790500D01*
X161505000Y-93984975D01*
X161505040Y-93981815D01*
X161505500Y-93963769D01*
X161505500Y-93620777D01*
X161505500Y-93620773D01*
X161504649Y-93591454D01*
X161503815Y-93577099D01*
X161501267Y-93547899D01*
X161464442Y-93408811D01*
X161437129Y-93344501D01*
X161362610Y-93221422D01*
X161344421Y-93199259D01*
X161282403Y-93123690D01*
X161268898Y-93103478D01*
X161229807Y-93030344D01*
X161220504Y-93007886D01*
X161196428Y-92928518D01*
X161191689Y-92904689D01*
X161183559Y-92822149D01*
X161183559Y-92797842D01*
X161191688Y-92715309D01*
X161196430Y-92691474D01*
X161220505Y-92612112D01*
X161229807Y-92589655D01*
X161232283Y-92585024D01*
X161268900Y-92516517D01*
X161282403Y-92496308D01*
X161300778Y-92473918D01*
X161335018Y-92432195D01*
X161352197Y-92415016D01*
X161416312Y-92362399D01*
X161436521Y-92348897D01*
X161465067Y-92333639D01*
X161572298Y-92256804D01*
X161572304Y-92256798D01*
X161575429Y-92254234D01*
X161576198Y-92255171D01*
X161633895Y-92226061D01*
X161702730Y-92233041D01*
G37*
%TD.AperFunction*%
%TD*%
%TA.AperFunction,Conductor*%
%TO.N,GND*%
G36*
X167280663Y-79018460D02*
G01*
X167420666Y-79104814D01*
X167587203Y-79159999D01*
X167689991Y-79170500D01*
X168490008Y-79170499D01*
X168490016Y-79170498D01*
X168490019Y-79170498D01*
X168546302Y-79164748D01*
X168592797Y-79159999D01*
X168759334Y-79104814D01*
X168899336Y-79018460D01*
X168964431Y-79000000D01*
X169176000Y-79000000D01*
X169243039Y-79019685D01*
X169288794Y-79072489D01*
X169300000Y-79124000D01*
X169300000Y-82176000D01*
X169280315Y-82243039D01*
X169227511Y-82288794D01*
X169176000Y-82300000D01*
X166300000Y-82300000D01*
X166300000Y-79124000D01*
X166319685Y-79056961D01*
X166372489Y-79011206D01*
X166424000Y-79000000D01*
X167215569Y-79000000D01*
X167280663Y-79018460D01*
G37*
%TD.AperFunction*%
%TD*%
%TA.AperFunction,Conductor*%
%TO.N,Net-(IC1-VDRV)*%
G36*
X163646223Y-90325185D02*
G01*
X163656646Y-90332672D01*
X163676551Y-90348596D01*
X163716603Y-90405847D01*
X163722447Y-90458025D01*
X163714500Y-90535811D01*
X163714500Y-91234169D01*
X163714501Y-91234187D01*
X163724825Y-91335252D01*
X163779092Y-91499015D01*
X163779093Y-91499018D01*
X163869662Y-91645853D01*
X163873265Y-91650409D01*
X163899407Y-91715204D01*
X163900000Y-91727321D01*
X163900000Y-91800000D01*
X164008623Y-91800000D01*
X164073719Y-91818461D01*
X164100157Y-91834768D01*
X164138484Y-91858408D01*
X164302247Y-91912674D01*
X164403323Y-91923000D01*
X164976676Y-91922999D01*
X164976684Y-91922998D01*
X164976687Y-91922998D01*
X165032030Y-91917344D01*
X165077753Y-91912674D01*
X165241516Y-91858408D01*
X165294813Y-91825534D01*
X165306281Y-91818461D01*
X165371377Y-91800000D01*
X165555972Y-91800000D01*
X165623011Y-91819685D01*
X165643652Y-91836318D01*
X166215845Y-92408512D01*
X166343655Y-92482303D01*
X166486208Y-92520500D01*
X166486209Y-92520500D01*
X167296472Y-92520500D01*
X167363511Y-92540185D01*
X167384153Y-92556819D01*
X167533181Y-92705847D01*
X167566666Y-92767170D01*
X167569500Y-92793528D01*
X167569500Y-93195500D01*
X167549815Y-93262539D01*
X167497011Y-93308294D01*
X167445500Y-93319500D01*
X165965629Y-93319500D01*
X165965623Y-93319501D01*
X165937253Y-93322551D01*
X165868494Y-93310144D01*
X165817357Y-93262533D01*
X165800000Y-93199261D01*
X165800000Y-92999999D01*
X165600000Y-92500000D01*
X163943497Y-92500000D01*
X163876458Y-92480315D01*
X163866035Y-92472828D01*
X163785638Y-92408510D01*
X163400000Y-92100000D01*
X162564183Y-92100000D01*
X162497144Y-92080315D01*
X162481146Y-92067423D01*
X162481120Y-92067455D01*
X162477571Y-92064542D01*
X162476502Y-92063681D01*
X162476413Y-92063592D01*
X162365056Y-91972205D01*
X162316450Y-91932315D01*
X162133954Y-91834768D01*
X162062499Y-91813092D01*
X161935933Y-91774699D01*
X161935922Y-91774697D01*
X161911841Y-91772325D01*
X161847055Y-91746162D01*
X161806698Y-91689126D01*
X161800000Y-91648923D01*
X161800000Y-90429500D01*
X161819685Y-90362461D01*
X161872489Y-90316706D01*
X161924000Y-90305500D01*
X163579184Y-90305500D01*
X163646223Y-90325185D01*
G37*
%TD.AperFunction*%
%TD*%
%TA.AperFunction,Conductor*%
%TO.N,Net-(C1-Pad1)*%
G36*
X192346645Y-109762587D02*
G01*
X192346645Y-109762588D01*
X192320443Y-117046643D01*
X192300518Y-117113611D01*
X192247549Y-117159176D01*
X192196642Y-117170197D01*
X186069999Y-117180000D01*
X186053008Y-117868141D01*
X186031675Y-117934674D01*
X185977757Y-117979112D01*
X185928107Y-117989076D01*
X184943560Y-117981617D01*
X184876671Y-117961426D01*
X184831318Y-117908276D01*
X184820499Y-117857621D01*
X184820499Y-116722129D01*
X184820498Y-116722117D01*
X184819702Y-116714718D01*
X184817213Y-116691562D01*
X184823799Y-116637481D01*
X184823715Y-116637457D01*
X184823866Y-116636933D01*
X184823999Y-116635845D01*
X184824878Y-116633431D01*
X184824884Y-116633419D01*
X184843337Y-116569634D01*
X184863221Y-116434495D01*
X184867483Y-116031156D01*
X184887875Y-115964330D01*
X184941159Y-115919136D01*
X184951722Y-115915015D01*
X185729687Y-115651913D01*
X185757677Y-115645934D01*
X187281342Y-115501174D01*
X188066474Y-115426581D01*
X188066478Y-115426580D01*
X188066493Y-115426579D01*
X188131886Y-115416006D01*
X188163490Y-115408744D01*
X188226931Y-115389714D01*
X188353213Y-115320762D01*
X188404986Y-115282007D01*
X188406758Y-115280792D01*
X188409147Y-115278891D01*
X188409155Y-115278887D01*
X188476722Y-115211318D01*
X188538045Y-115177834D01*
X188564404Y-115175000D01*
X190454678Y-115175000D01*
X190454681Y-115175000D01*
X190564546Y-115162917D01*
X190617155Y-115151203D01*
X190675386Y-115131347D01*
X190721752Y-115115537D01*
X190721754Y-115115536D01*
X190842030Y-115036573D01*
X190894385Y-114990306D01*
X190894387Y-114990304D01*
X190987544Y-114880652D01*
X191046035Y-114749198D01*
X191065065Y-114681969D01*
X191065065Y-114681968D01*
X191065099Y-114681706D01*
X191066123Y-114674338D01*
X191066161Y-114673778D01*
X191084150Y-114539364D01*
X191084151Y-114539359D01*
X191066676Y-112748100D01*
X191054510Y-112642687D01*
X191043209Y-112592164D01*
X191009306Y-112491616D01*
X190931281Y-112370728D01*
X190885423Y-112318014D01*
X190885422Y-112318013D01*
X190885420Y-112318011D01*
X190885418Y-112318009D01*
X190776503Y-112224007D01*
X190776497Y-112224003D01*
X190645511Y-112164494D01*
X190645498Y-112164490D01*
X190578425Y-112144938D01*
X190435984Y-112124743D01*
X190435975Y-112124742D01*
X190435972Y-112124742D01*
X190431775Y-112124750D01*
X189774465Y-112126038D01*
X189709126Y-112107577D01*
X189559340Y-112015189D01*
X189559335Y-112015187D01*
X189559334Y-112015186D01*
X189392797Y-111960001D01*
X189392795Y-111960000D01*
X189290016Y-111949500D01*
X188274339Y-111949500D01*
X188207300Y-111929815D01*
X188161545Y-111877011D01*
X188150340Y-111825900D01*
X188150000Y-111720000D01*
X185805347Y-111710507D01*
X185738388Y-111690551D01*
X185692847Y-111637562D01*
X185681863Y-111584667D01*
X185708464Y-109795767D01*
X185720000Y-109020000D01*
X192350000Y-108830000D01*
X192346645Y-109762587D01*
G37*
%TD.AperFunction*%
%TD*%
%TA.AperFunction,Conductor*%
%TO.N,GNDREF*%
G36*
X207153285Y-118732382D02*
G01*
X207220288Y-118752187D01*
X207265948Y-118805073D01*
X207277049Y-118858112D01*
X207249911Y-120803036D01*
X207229293Y-120869794D01*
X207176000Y-120914745D01*
X206163211Y-121361832D01*
X206112118Y-121372389D01*
X204598801Y-121359983D01*
X204598801Y-126912608D01*
X208634208Y-126893207D01*
X208701338Y-126912568D01*
X208747346Y-126965152D01*
X208758801Y-127017205D01*
X208758801Y-132678719D01*
X208739116Y-132745758D01*
X208686312Y-132791513D01*
X208634913Y-132802719D01*
X186723734Y-132822495D01*
X186656677Y-132802871D01*
X186610874Y-132750108D01*
X186599625Y-132697679D01*
X186639186Y-126703295D01*
X186659312Y-126636388D01*
X186712417Y-126590982D01*
X186763296Y-126580114D01*
X200228801Y-126592608D01*
X200209155Y-119706900D01*
X200228648Y-119639807D01*
X200281321Y-119593902D01*
X200333092Y-119582549D01*
X205818801Y-119579983D01*
X205818801Y-118854206D01*
X205838486Y-118787167D01*
X205891290Y-118741412D01*
X205943022Y-118730206D01*
X207153285Y-118732382D01*
G37*
%TD.AperFunction*%
%TD*%
%TA.AperFunction,Conductor*%
%TO.N,Net-(C17-Pad2)*%
G36*
X175338602Y-121110771D02*
G01*
X175405266Y-121131686D01*
X175425603Y-121148702D01*
X175426942Y-121150092D01*
X175426948Y-121150097D01*
X175533916Y-121246310D01*
X175663665Y-121308494D01*
X175709542Y-121322893D01*
X175729830Y-121329261D01*
X175730320Y-121329417D01*
X175730331Y-121329418D01*
X175730332Y-121329419D01*
X175872339Y-121352527D01*
X175872341Y-121352528D01*
X175872342Y-121352527D01*
X175872344Y-121352528D01*
X176015114Y-121334693D01*
X176082507Y-121316253D01*
X176082512Y-121316251D01*
X176214474Y-121258914D01*
X176303420Y-121204049D01*
X176329523Y-121191880D01*
X176332717Y-121190822D01*
X176383862Y-121185129D01*
X176490000Y-121195583D01*
X176690147Y-121175870D01*
X176692919Y-121175597D01*
X176705073Y-121175000D01*
X177137944Y-121175000D01*
X177150485Y-121175636D01*
X177152803Y-121175872D01*
X177179238Y-121181528D01*
X177210489Y-121191884D01*
X177236581Y-121204051D01*
X177260658Y-121218902D01*
X177283242Y-121236759D01*
X177288575Y-121242092D01*
X177288593Y-121242109D01*
X177329744Y-121278990D01*
X177350862Y-121295929D01*
X177392683Y-121325870D01*
X177435734Y-121380899D01*
X177444500Y-121426694D01*
X177444500Y-122705201D01*
X177424815Y-122772240D01*
X177372011Y-122817995D01*
X177319738Y-122829199D01*
X169433932Y-122780761D01*
X169367015Y-122760665D01*
X169321585Y-122707581D01*
X169310696Y-122656066D01*
X169319294Y-121125591D01*
X169339355Y-121058666D01*
X169392415Y-121013208D01*
X169445573Y-121002311D01*
X175338602Y-121110771D01*
G37*
%TD.AperFunction*%
%TD*%
%TA.AperFunction,Conductor*%
%TO.N,GND*%
G36*
X174922744Y-100393427D02*
G01*
X174925789Y-100398734D01*
X175048084Y-100865354D01*
X175046866Y-100874225D01*
X175041277Y-100879116D01*
X174778011Y-100989115D01*
X174769056Y-100989142D01*
X174768989Y-100989115D01*
X174505722Y-100879116D01*
X174499410Y-100872764D01*
X174498915Y-100865354D01*
X174621211Y-100398734D01*
X174626624Y-100391600D01*
X174632529Y-100390000D01*
X174914471Y-100390000D01*
X174922744Y-100393427D01*
G37*
%TD.AperFunction*%
%TD*%
%TA.AperFunction,Conductor*%
%TO.N,GND*%
G36*
X175047653Y-99000831D02*
G01*
X175053964Y-99007182D01*
X175054419Y-99014741D01*
X174925871Y-99480122D01*
X174920365Y-99487184D01*
X174914593Y-99488707D01*
X174632640Y-99488707D01*
X174624367Y-99485280D01*
X174621288Y-99479838D01*
X174505267Y-99014555D01*
X174506590Y-99005700D01*
X174512105Y-99000931D01*
X174775490Y-98890883D01*
X174784444Y-98890857D01*
X175047653Y-99000831D01*
G37*
%TD.AperFunction*%
%TD*%
%TA.AperFunction,Conductor*%
%TO.N,GND*%
G36*
X164514225Y-112376633D02*
G01*
X164519116Y-112382222D01*
X164629115Y-112645489D01*
X164629142Y-112654444D01*
X164629115Y-112654511D01*
X164519116Y-112917777D01*
X164512764Y-112924089D01*
X164505354Y-112924584D01*
X164038734Y-112802289D01*
X164031600Y-112796876D01*
X164030000Y-112790971D01*
X164030000Y-112509028D01*
X164033427Y-112500755D01*
X164038731Y-112497711D01*
X164505354Y-112375415D01*
X164514225Y-112376633D01*
G37*
%TD.AperFunction*%
%TD*%
%TA.AperFunction,Conductor*%
%TO.N,GND*%
G36*
X207370227Y-91193626D02*
G01*
X207373277Y-91198953D01*
X207494607Y-91665367D01*
X207493373Y-91674237D01*
X207487795Y-91679109D01*
X207224511Y-91789115D01*
X207215556Y-91789142D01*
X207215489Y-91789115D01*
X206952241Y-91679124D01*
X206945929Y-91672772D01*
X206945440Y-91665340D01*
X207068698Y-91198909D01*
X207074125Y-91191787D01*
X207080010Y-91190199D01*
X207361954Y-91190199D01*
X207370227Y-91193626D01*
G37*
%TD.AperFunction*%
%TD*%
%TA.AperFunction,Conductor*%
%TO.N,GND*%
G36*
X207507407Y-89580728D02*
G01*
X207513719Y-89587080D01*
X207514091Y-89594923D01*
X207373520Y-90057920D01*
X207367838Y-90064841D01*
X207362325Y-90066221D01*
X207080363Y-90066221D01*
X207072090Y-90062794D01*
X207068948Y-90057086D01*
X206965109Y-89594923D01*
X206964987Y-89594380D01*
X206966516Y-89585559D01*
X206971889Y-89581022D01*
X207235490Y-89470883D01*
X207244444Y-89470857D01*
X207507407Y-89580728D01*
G37*
%TD.AperFunction*%
%TD*%
%TA.AperFunction,Conductor*%
%TO.N,GND*%
G36*
X167458625Y-74032526D02*
G01*
X167465591Y-74038152D01*
X167467016Y-74043748D01*
X167467016Y-74266753D01*
X167463589Y-74275026D01*
X167459250Y-74277772D01*
X166995256Y-74443432D01*
X166986312Y-74442986D01*
X166980526Y-74436924D01*
X166870883Y-74174509D01*
X166870857Y-74165556D01*
X166870862Y-74165542D01*
X166980762Y-73902511D01*
X166987113Y-73896201D01*
X166994865Y-73895802D01*
X167458625Y-74032526D01*
G37*
%TD.AperFunction*%
%TD*%
%TA.AperFunction,Conductor*%
%TO.N,GND*%
G36*
X168984225Y-73906633D02*
G01*
X168989116Y-73912222D01*
X169099115Y-74175489D01*
X169099142Y-74184444D01*
X169099115Y-74184511D01*
X168989116Y-74447777D01*
X168982764Y-74454089D01*
X168975354Y-74454584D01*
X168508734Y-74332289D01*
X168501600Y-74326876D01*
X168500000Y-74320971D01*
X168500000Y-74039028D01*
X168503427Y-74030755D01*
X168508731Y-74027711D01*
X168975354Y-73905415D01*
X168984225Y-73906633D01*
G37*
%TD.AperFunction*%
%TD*%
%TA.AperFunction,Conductor*%
%TO.N,GND*%
G36*
X171541022Y-94020000D02*
G01*
X171541022Y-94320000D01*
X171059805Y-94467164D01*
X170944000Y-94190000D01*
X171059805Y-93912836D01*
X171541022Y-94020000D01*
G37*
%TD.AperFunction*%
%TD*%
%TA.AperFunction,Conductor*%
%TO.N,GND*%
G36*
X163641497Y-111702402D02*
G01*
X163667777Y-111713383D01*
X163674089Y-111719735D01*
X163674584Y-111727145D01*
X163552289Y-112193766D01*
X163546876Y-112200900D01*
X163540971Y-112202500D01*
X163259029Y-112202500D01*
X163250756Y-112199073D01*
X163247711Y-112193766D01*
X163125415Y-111727145D01*
X163126633Y-111718274D01*
X163132221Y-111713383D01*
X163395490Y-111603383D01*
X163404444Y-111603357D01*
X163641497Y-111702402D01*
G37*
%TD.AperFunction*%
%TD*%
%TA.AperFunction,Conductor*%
%TO.N,V_HIGH*%
G36*
X167600000Y-77675000D02*
G01*
X167600000Y-77925000D01*
X167114805Y-78077164D01*
X166999000Y-77800000D01*
X167114805Y-77522836D01*
X167600000Y-77675000D01*
G37*
%TD.AperFunction*%
%TD*%
%TA.AperFunction,Conductor*%
%TO.N,Net-(Q1-G)*%
G36*
X173951000Y-90440219D02*
G01*
X173835195Y-90717383D01*
X173350000Y-90590219D01*
X173350000Y-90290219D01*
X173835195Y-90163055D01*
X173951000Y-90440219D01*
G37*
%TD.AperFunction*%
%TD*%
%TA.AperFunction,Conductor*%
%TO.N,Net-(Q1-G)*%
G36*
X181990000Y-90600000D02*
G01*
X181990000Y-90900000D01*
X181504805Y-91027164D01*
X181389000Y-90750000D01*
X181504805Y-90472836D01*
X181990000Y-90600000D01*
G37*
%TD.AperFunction*%
%TD*%
%TA.AperFunction,Conductor*%
%TO.N,Net-(IC1-ISNS)*%
G36*
X173795619Y-95543427D02*
G01*
X173798066Y-95547012D01*
X174002398Y-96014296D01*
X174002573Y-96023250D01*
X173996366Y-96029704D01*
X173996189Y-96029780D01*
X173734511Y-96139115D01*
X173725556Y-96139142D01*
X173725489Y-96139115D01*
X173463810Y-96029780D01*
X173457498Y-96023428D01*
X173457525Y-96014473D01*
X173457553Y-96014405D01*
X173661934Y-95547012D01*
X173668388Y-95540805D01*
X173672654Y-95540000D01*
X173787346Y-95540000D01*
X173795619Y-95543427D01*
G37*
%TD.AperFunction*%
%TD*%
%TA.AperFunction,Conductor*%
%TO.N,VFB*%
G36*
X168466095Y-97150180D02*
G01*
X168472406Y-97156531D01*
X168472379Y-97165486D01*
X168472262Y-97165755D01*
X168263097Y-97633080D01*
X168256589Y-97639231D01*
X168252418Y-97640000D01*
X168147582Y-97640000D01*
X168139309Y-97636573D01*
X168136903Y-97633080D01*
X167927737Y-97165755D01*
X167927485Y-97156804D01*
X167933636Y-97150296D01*
X167933838Y-97150207D01*
X168195490Y-97040883D01*
X168204444Y-97040857D01*
X168466095Y-97150180D01*
G37*
%TD.AperFunction*%
%TD*%
%TA.AperFunction,Conductor*%
%TO.N,VFB*%
G36*
X172250000Y-71655000D02*
G01*
X172250000Y-71785000D01*
X171764805Y-71997164D01*
X171649000Y-71720000D01*
X171764805Y-71442836D01*
X172250000Y-71655000D01*
G37*
%TD.AperFunction*%
%TD*%
%TA.AperFunction,Conductor*%
%TO.N,Net-(IC1-EN)*%
G36*
X171209704Y-83243632D02*
G01*
X171209747Y-83243731D01*
X171319115Y-83505489D01*
X171319142Y-83514444D01*
X171319115Y-83514511D01*
X171209906Y-83775886D01*
X171203554Y-83782198D01*
X171194599Y-83782171D01*
X171194132Y-83781963D01*
X170728711Y-83563160D01*
X170722682Y-83556539D01*
X170721989Y-83552572D01*
X170721989Y-83447713D01*
X170725416Y-83439440D01*
X170729077Y-83436960D01*
X171194341Y-83237488D01*
X171203295Y-83237378D01*
X171209704Y-83243632D01*
G37*
%TD.AperFunction*%
%TD*%
%TA.AperFunction,Conductor*%
%TO.N,Net-(IC1-EN)*%
G36*
X170966095Y-97210180D02*
G01*
X170972406Y-97216531D01*
X170972379Y-97225486D01*
X170972262Y-97225755D01*
X170763097Y-97693080D01*
X170756589Y-97699231D01*
X170752418Y-97700000D01*
X170647582Y-97700000D01*
X170639309Y-97696573D01*
X170636903Y-97693080D01*
X170427737Y-97225755D01*
X170427485Y-97216804D01*
X170433636Y-97210296D01*
X170433838Y-97210207D01*
X170695490Y-97100883D01*
X170704444Y-97100857D01*
X170966095Y-97210180D01*
G37*
%TD.AperFunction*%
%TD*%
M02*
