M48
; DRILL file {KiCad 8.0.1} date 2024-07-26T10:33:09+0200
; FORMAT={-:-/ absolute / metric / decimal}
; #@! TF.CreationDate,2024-07-26T10:33:09+02:00
; #@! TF.GenerationSoftware,Kicad,Pcbnew,8.0.1
; #@! TF.FileFunction,MixedPlating,1,6
FMAT,2
METRIC
; #@! TA.AperFunction,Plated,PTH,ViaDrill
T1C0.300
; #@! TA.AperFunction,Plated,PTH,ComponentDrill
T2C0.500
; #@! TA.AperFunction,Plated,PTH,ComponentDrill
T3C1.970
; #@! TA.AperFunction,Plated,PTH,ComponentDrill
T4C3.200
%
G90
G05
T1
X159.0Y-59.0
X159.004Y-61.976
X159.004Y-64.976
X159.004Y-67.976
X159.004Y-79.976
X159.004Y-82.976
X159.004Y-85.976
X159.004Y-88.976
X159.004Y-91.976
X159.004Y-94.976
X159.004Y-97.976
X159.004Y-100.976
X159.004Y-103.976
X159.004Y-106.976
X159.004Y-109.976
X159.004Y-112.976
X159.004Y-115.976
X159.004Y-124.81
X159.004Y-127.81
X159.004Y-130.81
X159.004Y-134.493
X161.471Y-134.493
X162.0Y-59.0
X162.5Y-86.7
X162.5Y-87.5
X162.87Y-93.15
X163.4Y-111.602
X164.08Y-97.5
X164.1Y-98.2
X164.4Y-88.1
X164.471Y-134.493
X164.63Y-112.65
X164.8Y-97.5
X164.8Y-98.2
X165.0Y-59.0
X165.5Y-98.2
X166.74Y-79.75
X166.78Y-81.49
X166.87Y-74.17
X166.87Y-84.17
X166.88Y-116.88
X167.0Y-77.8
X167.471Y-134.493
X168.0Y-59.0
X168.12Y-118.0
X168.2Y-97.04
X169.1Y-74.18
X169.33Y-98.66
X169.33Y-99.43
X169.44Y-95.28
X169.46Y-94.38
X169.5Y-93.54
X170.471Y-134.493
X170.7Y-97.1
X170.945Y-94.19
X171.0Y-59.0
X171.32Y-83.51
X171.65Y-71.72
X172.0Y-74.3
X172.0Y-75.0
X172.01Y-75.68
X172.06Y-79.22
X172.07Y-77.29
X172.07Y-79.9
X172.08Y-76.63
X172.08Y-77.92
X172.08Y-78.6
X172.8Y-74.3
X172.8Y-75.0
X172.8Y-75.7
X173.471Y-134.493
X173.73Y-96.14
X173.95Y-90.44
X174.0Y-59.0
X174.773Y-100.99
X174.78Y-98.89
X175.29Y-96.95
X175.31Y-96.24
X175.37Y-94.03
X176.13Y-116.42
X176.14Y-115.08
X176.14Y-115.74
X176.471Y-134.493
X176.79Y-115.06
X176.79Y-117.11
X176.8Y-115.75
X176.8Y-116.43
X176.8Y-117.79
X177.0Y-59.0
X177.59Y-92.2
X177.9Y-98.7
X179.471Y-134.493
X179.8Y-93.6
X179.81Y-121.31
X179.83Y-122.41
X180.0Y-59.0
X180.5Y-93.6
X181.2Y-93.6
X181.39Y-90.75
X181.9Y-93.6
X182.471Y-134.493
X183.0Y-59.0
X185.471Y-134.493
X186.0Y-59.0
X188.471Y-134.493
X189.0Y-59.0
X190.1Y-113.0
X190.13Y-113.7
X191.471Y-134.493
X192.0Y-59.0
X192.19Y-98.35
X192.2Y-99.1
X193.27Y-103.59
X193.27Y-104.34
X193.76Y-112.75
X193.79Y-113.44
X193.93Y-103.57
X194.0Y-86.0
X194.471Y-134.493
X195.0Y-59.0
X195.1Y-86.0
X196.97Y-85.9
X197.471Y-134.493
X197.81Y-85.91
X197.98Y-97.75
X198.0Y-59.0
X198.01Y-98.52
X198.69Y-85.92
X198.73Y-97.74
X200.45Y-76.85
X200.471Y-134.493
X200.49Y-80.13
X201.0Y-59.0
X201.45Y-76.85
X201.49Y-80.13
X202.45Y-76.85
X202.49Y-80.13
X203.45Y-76.85
X203.471Y-134.493
X203.49Y-80.13
X204.0Y-59.0
X204.45Y-76.85
X204.49Y-80.13
X205.45Y-76.85
X205.45Y-78.13
X205.45Y-79.13
X205.45Y-80.13
X205.72Y-75.18
X206.471Y-134.493
X206.52Y-75.2
X207.0Y-59.0
X207.22Y-91.79
X207.24Y-89.47
X209.471Y-134.493
X210.0Y-59.0
X212.852Y-123.667
X212.852Y-126.667
X212.852Y-129.667
X212.852Y-132.207
X212.852Y-134.493
X212.979Y-61.595
X212.979Y-64.595
X212.979Y-67.595
X212.979Y-79.595
X212.979Y-82.595
X212.979Y-85.595
X212.979Y-88.595
X212.979Y-91.595
X212.979Y-94.595
X212.979Y-97.595
X212.979Y-100.595
X212.979Y-103.595
X212.979Y-106.595
X212.979Y-109.595
X212.979Y-112.595
X212.979Y-115.595
X213.0Y-59.0
T2
X158.72Y-119.67
X158.73Y-73.627
X159.423Y-117.973
X159.423Y-121.367
X159.433Y-71.93
X159.433Y-75.324
X161.12Y-117.27
X161.12Y-122.07
X161.13Y-71.227
X161.13Y-76.027
X162.817Y-117.973
X162.817Y-121.367
X162.827Y-71.93
X162.827Y-75.324
X163.52Y-119.67
X163.53Y-73.627
X208.613Y-119.623
X208.66Y-73.62
X209.316Y-117.926
X209.316Y-121.32
X209.363Y-71.923
X209.363Y-75.317
X211.013Y-117.223
X211.013Y-122.023
X211.06Y-71.22
X211.06Y-76.02
X212.71Y-117.926
X212.71Y-121.32
X212.757Y-71.923
X212.757Y-75.317
X213.413Y-119.623
X213.46Y-73.62
T3
X165.04Y-63.29
X165.55Y-129.93
X180.54Y-63.29
X181.05Y-129.93
X191.11Y-129.34
X192.0Y-63.835
X206.61Y-129.34
X207.5Y-63.835
T4
X161.12Y-119.67
X161.13Y-73.627
X211.013Y-119.623
X211.06Y-73.62
M30
