%TF.GenerationSoftware,KiCad,Pcbnew,8.0.1*%
%TF.CreationDate,2024-07-26T10:33:21+02:00*%
%TF.ProjectId,SEPIC-B,53455049-432d-4422-9e6b-696361645f70,rev?*%
%TF.SameCoordinates,Original*%
%TF.FileFunction,Legend,Bot*%
%TF.FilePolarity,Positive*%
%FSLAX46Y46*%
G04 Gerber Fmt 4.6, Leading zero omitted, Abs format (unit mm)*
G04 Created by KiCad (PCBNEW 8.0.1) date 2024-07-26 10:33:21*
%MOMM*%
%LPD*%
G01*
G04 APERTURE LIST*
%ADD10C,0.120000*%
G04 APERTURE END LIST*
D10*
%TO.C,R5*%
X173165000Y-93862936D02*
X173165000Y-94317064D01*
X174635000Y-93862936D02*
X174635000Y-94317064D01*
%TO.C,C41*%
X196823752Y-83465000D02*
X196301248Y-83465000D01*
X196823752Y-84935000D02*
X196301248Y-84935000D01*
%TO.C,C5*%
X195628752Y-96770000D02*
X194206248Y-96770000D01*
X195628752Y-99490000D02*
X194206248Y-99490000D01*
%TO.C,C50*%
X166143000Y-119281752D02*
X166143000Y-118759248D01*
X167613000Y-119281752D02*
X167613000Y-118759248D01*
%TO.C,C54*%
X208519752Y-89816000D02*
X207997248Y-89816000D01*
X208519752Y-91286000D02*
X207997248Y-91286000D01*
%TO.C,C37*%
X194921252Y-109535000D02*
X194398748Y-109535000D01*
X194921252Y-111005000D02*
X194398748Y-111005000D01*
%TO.C,C7*%
X195703752Y-100270000D02*
X194281248Y-100270000D01*
X195703752Y-102990000D02*
X194281248Y-102990000D01*
%TO.C,C49*%
X162404248Y-99468000D02*
X162926752Y-99468000D01*
X162404248Y-100938000D02*
X162926752Y-100938000D01*
%TO.C,C42*%
X197248752Y-86940000D02*
X195826248Y-86940000D01*
X197248752Y-89660000D02*
X195826248Y-89660000D01*
%TO.C,C1*%
X194911252Y-107525000D02*
X194388748Y-107525000D01*
X194911252Y-108995000D02*
X194388748Y-108995000D01*
%TO.C,C48*%
X205386000Y-72763748D02*
X205386000Y-73286252D01*
X206856000Y-72763748D02*
X206856000Y-73286252D01*
%TO.C,C45*%
X166743748Y-71147000D02*
X167266252Y-71147000D01*
X166743748Y-72617000D02*
X167266252Y-72617000D01*
%TO.C,C23*%
X196823752Y-81365000D02*
X196301248Y-81365000D01*
X196823752Y-82835000D02*
X196301248Y-82835000D01*
%TO.C,C6*%
X197873752Y-91940000D02*
X196451248Y-91940000D01*
X197873752Y-94660000D02*
X196451248Y-94660000D01*
%TD*%
M02*
