%TF.GenerationSoftware,KiCad,Pcbnew,8.0.1*%
%TF.CreationDate,2024-07-26T10:33:21+02:00*%
%TF.ProjectId,SEPIC-B,53455049-432d-4422-9e6b-696361645f70,rev?*%
%TF.SameCoordinates,Original*%
%TF.FileFunction,Copper,L6,Bot*%
%TF.FilePolarity,Positive*%
%FSLAX46Y46*%
G04 Gerber Fmt 4.6, Leading zero omitted, Abs format (unit mm)*
G04 Created by KiCad (PCBNEW 8.0.1) date 2024-07-26 10:33:21*
%MOMM*%
%LPD*%
G01*
G04 APERTURE LIST*
G04 Aperture macros list*
%AMRoundRect*
0 Rectangle with rounded corners*
0 $1 Rounding radius*
0 $2 $3 $4 $5 $6 $7 $8 $9 X,Y pos of 4 corners*
0 Add a 4 corners polygon primitive as box body*
4,1,4,$2,$3,$4,$5,$6,$7,$8,$9,$2,$3,0*
0 Add four circle primitives for the rounded corners*
1,1,$1+$1,$2,$3*
1,1,$1+$1,$4,$5*
1,1,$1+$1,$6,$7*
1,1,$1+$1,$8,$9*
0 Add four rect primitives between the rounded corners*
20,1,$1+$1,$2,$3,$4,$5,0*
20,1,$1+$1,$4,$5,$6,$7,0*
20,1,$1+$1,$6,$7,$8,$9,0*
20,1,$1+$1,$8,$9,$2,$3,0*%
G04 Aperture macros list end*
%TA.AperFunction,ComponentPad*%
%ADD10R,2.955000X2.955000*%
%TD*%
%TA.AperFunction,ComponentPad*%
%ADD11C,2.955000*%
%TD*%
%TA.AperFunction,ComponentPad*%
%ADD12C,0.800000*%
%TD*%
%TA.AperFunction,ComponentPad*%
%ADD13C,6.400000*%
%TD*%
%TA.AperFunction,SMDPad,CuDef*%
%ADD14RoundRect,0.250000X0.450000X-0.350000X0.450000X0.350000X-0.450000X0.350000X-0.450000X-0.350000X0*%
%TD*%
%TA.AperFunction,SMDPad,CuDef*%
%ADD15RoundRect,0.250000X-0.337500X-0.475000X0.337500X-0.475000X0.337500X0.475000X-0.337500X0.475000X0*%
%TD*%
%TA.AperFunction,SMDPad,CuDef*%
%ADD16RoundRect,0.100000X-0.217500X-0.100000X0.217500X-0.100000X0.217500X0.100000X-0.217500X0.100000X0*%
%TD*%
%TA.AperFunction,SMDPad,CuDef*%
%ADD17RoundRect,0.250000X-0.412500X-1.100000X0.412500X-1.100000X0.412500X1.100000X-0.412500X1.100000X0*%
%TD*%
%TA.AperFunction,SMDPad,CuDef*%
%ADD18RoundRect,0.250000X-0.475000X0.337500X-0.475000X-0.337500X0.475000X-0.337500X0.475000X0.337500X0*%
%TD*%
%TA.AperFunction,SMDPad,CuDef*%
%ADD19RoundRect,0.100000X0.217500X0.100000X-0.217500X0.100000X-0.217500X-0.100000X0.217500X-0.100000X0*%
%TD*%
%TA.AperFunction,SMDPad,CuDef*%
%ADD20RoundRect,0.250000X0.337500X0.475000X-0.337500X0.475000X-0.337500X-0.475000X0.337500X-0.475000X0*%
%TD*%
%TA.AperFunction,SMDPad,CuDef*%
%ADD21RoundRect,0.250000X0.475000X-0.337500X0.475000X0.337500X-0.475000X0.337500X-0.475000X-0.337500X0*%
%TD*%
%TA.AperFunction,ViaPad*%
%ADD22C,0.600000*%
%TD*%
%TA.AperFunction,Conductor*%
%ADD23C,0.250000*%
%TD*%
%TA.AperFunction,Conductor*%
%ADD24C,0.300000*%
%TD*%
%TA.AperFunction,Conductor*%
%ADD25C,0.240000*%
%TD*%
%TA.AperFunction,Conductor*%
%ADD26C,0.130000*%
%TD*%
G04 APERTURE END LIST*
D10*
%TO.P,J4,1,1*%
%TO.N,GND*%
X165040000Y-63290000D03*
D11*
%TO.P,J4,2,2*%
X180540000Y-63290000D03*
%TD*%
D12*
%TO.P,H1,1,1*%
%TO.N,GNDH*%
X158730000Y-73627056D03*
X159432944Y-71930000D03*
X159432944Y-75324112D03*
X161130000Y-71227056D03*
D13*
X161130000Y-73627056D03*
D12*
X161130000Y-76027056D03*
X162827056Y-71930000D03*
X162827056Y-75324112D03*
X163530000Y-73627056D03*
%TD*%
D11*
%TO.P,J1,1,1*%
%TO.N,+24V*%
X181050000Y-129930000D03*
%TO.P,J1,2,2*%
X165550000Y-129930000D03*
%TD*%
D10*
%TO.P,J3,1,1*%
%TO.N,GNDREF*%
X191110000Y-129340000D03*
D11*
%TO.P,J3,2,2*%
X206610000Y-129340000D03*
%TD*%
%TO.P,J2,1,1*%
%TO.N,V_LOW*%
X207500000Y-63835000D03*
%TO.P,J2,2,2*%
X192000000Y-63835000D03*
%TD*%
D12*
%TO.P,H3,1,1*%
%TO.N,GNDH*%
X158720000Y-119670000D03*
X159422944Y-117972944D03*
X159422944Y-121367056D03*
X161120000Y-117270000D03*
D13*
X161120000Y-119670000D03*
D12*
X161120000Y-122070000D03*
X162817056Y-117972944D03*
X162817056Y-121367056D03*
X163520000Y-119670000D03*
%TD*%
%TO.P,H4,1,1*%
%TO.N,GNDH*%
X208612944Y-119622944D03*
X209315888Y-117925888D03*
X209315888Y-121320000D03*
X211012944Y-117222944D03*
D13*
X211012944Y-119622944D03*
D12*
X211012944Y-122022944D03*
X212710000Y-117925888D03*
X212710000Y-121320000D03*
X213412944Y-119622944D03*
%TD*%
%TO.P,H2,1,1*%
%TO.N,GNDH*%
X208660000Y-73620000D03*
X209362944Y-71922944D03*
X209362944Y-75317056D03*
X211060000Y-71220000D03*
D13*
X211060000Y-73620000D03*
D12*
X211060000Y-76020000D03*
X212757056Y-71922944D03*
X212757056Y-75317056D03*
X213460000Y-73620000D03*
%TD*%
D14*
%TO.P,R5,1*%
%TO.N,Net-(IC1-ISNS)*%
X173900000Y-95090000D03*
%TO.P,R5,2*%
%TO.N,Net-(Q1-S_1)*%
X173900000Y-93090000D03*
%TD*%
D15*
%TO.P,C41,1*%
%TO.N,V_LOW*%
X195525000Y-84200000D03*
%TO.P,C41,2*%
%TO.N,GND*%
X197600000Y-84200000D03*
%TD*%
D16*
%TO.P,R28,1*%
%TO.N,GNDH*%
X160185000Y-98700000D03*
%TO.P,R28,2*%
%TO.N,Net-(C49-Pad2)*%
X161000000Y-98700000D03*
%TD*%
D17*
%TO.P,C5,1*%
%TO.N,Net-(C1-Pad1)*%
X193355000Y-98130000D03*
%TO.P,C5,2*%
%TO.N,Net-(C14-Pad2)*%
X196480000Y-98130000D03*
%TD*%
D18*
%TO.P,C50,1*%
%TO.N,GND*%
X166878000Y-117983000D03*
%TO.P,C50,2*%
%TO.N,Net-(C50-Pad2)*%
X166878000Y-120058000D03*
%TD*%
D19*
%TO.P,R34,1*%
%TO.N,GNDH*%
X210439000Y-91948000D03*
%TO.P,R34,2*%
%TO.N,Net-(C54-Pad2)*%
X209624000Y-91948000D03*
%TD*%
D15*
%TO.P,C54,1*%
%TO.N,GND*%
X207221000Y-90551000D03*
%TO.P,C54,2*%
%TO.N,Net-(C54-Pad2)*%
X209296000Y-90551000D03*
%TD*%
D19*
%TO.P,R27,1*%
%TO.N,GNDH*%
X207620000Y-70485000D03*
%TO.P,R27,2*%
%TO.N,Net-(C48-Pad2)*%
X206805000Y-70485000D03*
%TD*%
D15*
%TO.P,C37,1*%
%TO.N,Net-(C1-Pad1)*%
X193622500Y-110270000D03*
%TO.P,C37,2*%
%TO.N,GNDH*%
X195697500Y-110270000D03*
%TD*%
D16*
%TO.P,R20,1*%
%TO.N,GNDH*%
X164895000Y-70358000D03*
%TO.P,R20,2*%
%TO.N,Net-(C45-Pad2)*%
X165710000Y-70358000D03*
%TD*%
D17*
%TO.P,C7,1*%
%TO.N,Net-(C1-Pad1)*%
X193430000Y-101630000D03*
%TO.P,C7,2*%
%TO.N,Net-(C14-Pad2)*%
X196555000Y-101630000D03*
%TD*%
D20*
%TO.P,C49,1*%
%TO.N,GND*%
X163703000Y-100203000D03*
%TO.P,C49,2*%
%TO.N,Net-(C49-Pad2)*%
X161628000Y-100203000D03*
%TD*%
D17*
%TO.P,C42,1*%
%TO.N,V_LOW*%
X194975000Y-88300000D03*
%TO.P,C42,2*%
%TO.N,GND*%
X198100000Y-88300000D03*
%TD*%
D15*
%TO.P,C1,1*%
%TO.N,Net-(C1-Pad1)*%
X193612500Y-108260000D03*
%TO.P,C1,2*%
%TO.N,GNDH*%
X195687500Y-108260000D03*
%TD*%
D21*
%TO.P,C48,1*%
%TO.N,GND*%
X206121000Y-74062500D03*
%TO.P,C48,2*%
%TO.N,Net-(C48-Pad2)*%
X206121000Y-71987500D03*
%TD*%
D20*
%TO.P,C45,1*%
%TO.N,GND*%
X168042500Y-71882000D03*
%TO.P,C45,2*%
%TO.N,Net-(C45-Pad2)*%
X165967500Y-71882000D03*
%TD*%
D15*
%TO.P,C23,1*%
%TO.N,V_LOW*%
X195525000Y-82100000D03*
%TO.P,C23,2*%
%TO.N,GND*%
X197600000Y-82100000D03*
%TD*%
D17*
%TO.P,C6,1*%
%TO.N,Net-(C1-Pad1)*%
X195600000Y-93300000D03*
%TO.P,C6,2*%
%TO.N,Net-(C14-Pad2)*%
X198725000Y-93300000D03*
%TD*%
D16*
%TO.P,R30,1*%
%TO.N,GNDH*%
X165022000Y-121412000D03*
%TO.P,R30,2*%
%TO.N,Net-(C50-Pad2)*%
X165837000Y-121412000D03*
%TD*%
D22*
%TO.N,GND*%
X174773500Y-100990000D03*
X169330000Y-98660000D03*
X168120000Y-118000000D03*
X166880000Y-116880000D03*
X164630000Y-112650000D03*
%TO.N,GNDH*%
X159004000Y-79976000D03*
X182471000Y-134493000D03*
X212979000Y-100595000D03*
X159004000Y-109976000D03*
X186000000Y-59000000D03*
X198000000Y-59000000D03*
X212979000Y-103595000D03*
X159004000Y-130810000D03*
X212852000Y-132207000D03*
X164471000Y-134493000D03*
X212979000Y-67595000D03*
X212852000Y-126667000D03*
X204000000Y-59000000D03*
X185471000Y-134493000D03*
X212979000Y-82595000D03*
X212852000Y-123667000D03*
X168000000Y-59000000D03*
X165000000Y-59000000D03*
X161471000Y-134493000D03*
X159004000Y-82976000D03*
X212852000Y-134493000D03*
X176471000Y-134493000D03*
X206471000Y-134493000D03*
X159004000Y-61976000D03*
X159000000Y-59000000D03*
X179471000Y-134493000D03*
X159004000Y-124810000D03*
X183000000Y-59000000D03*
X159004000Y-85976000D03*
X188471000Y-134493000D03*
X197471000Y-134493000D03*
X159004000Y-88976000D03*
X159004000Y-64976000D03*
X200471000Y-134493000D03*
X195000000Y-59000000D03*
X203471000Y-134493000D03*
X194471000Y-134493000D03*
X213000000Y-59000000D03*
X159004000Y-106976000D03*
X159004000Y-103976000D03*
X212979000Y-97595000D03*
X159004000Y-67976000D03*
X212979000Y-94595000D03*
X212979000Y-91595000D03*
X201000000Y-59000000D03*
X189000000Y-59000000D03*
X159004000Y-94976000D03*
X212979000Y-88595000D03*
X180000000Y-59000000D03*
X210000000Y-59000000D03*
X207000000Y-59000000D03*
X212979000Y-109595000D03*
X212979000Y-115595000D03*
X170471000Y-134493000D03*
X212979000Y-64595000D03*
X212979000Y-79595000D03*
X167471000Y-134493000D03*
X212852000Y-129667000D03*
X209471000Y-134493000D03*
X212979000Y-61595000D03*
X177000000Y-59000000D03*
X192000000Y-59000000D03*
X212979000Y-106595000D03*
X159004000Y-100976000D03*
X162000000Y-59000000D03*
X159004000Y-115976000D03*
X159004000Y-134493000D03*
X212979000Y-112595000D03*
X174000000Y-59000000D03*
X173471000Y-134493000D03*
X191471000Y-134493000D03*
X159004000Y-112976000D03*
X159004000Y-97976000D03*
X159004000Y-127810000D03*
X159004000Y-91976000D03*
X171000000Y-59000000D03*
X212979000Y-85595000D03*
%TO.N,GND*%
X176800000Y-116430000D03*
X201490000Y-80130000D03*
X200450000Y-76850000D03*
X206520000Y-75200000D03*
X172080000Y-77920000D03*
X203490000Y-80130000D03*
X172800000Y-75700000D03*
X162500000Y-86700000D03*
X176140000Y-115080000D03*
X176130000Y-116420000D03*
X201450000Y-76850000D03*
X200490000Y-80130000D03*
X166740000Y-79750000D03*
X196970000Y-85900000D03*
X181200000Y-93600000D03*
X164800000Y-97500000D03*
X164400000Y-88100000D03*
X203450000Y-76850000D03*
X179830000Y-122410000D03*
X169100000Y-74180000D03*
X165500003Y-98200000D03*
X205450000Y-80130000D03*
X164080000Y-97500000D03*
X169330000Y-99430000D03*
X202450000Y-76850000D03*
X198690000Y-85920000D03*
X175310000Y-96240000D03*
X181900000Y-93600000D03*
X205720000Y-75180000D03*
X180500000Y-93600000D03*
X176800000Y-115750000D03*
X172800000Y-74300000D03*
X204450000Y-76850000D03*
X202490000Y-80130000D03*
X169440000Y-95280000D03*
X205450000Y-76850000D03*
X172800000Y-75000000D03*
X207220000Y-91790000D03*
X179800000Y-93600000D03*
X207240000Y-89470000D03*
X172070000Y-79900000D03*
X205450000Y-79130000D03*
X163400000Y-111602500D03*
X166870000Y-74170000D03*
X179810000Y-121310000D03*
X172080000Y-76630000D03*
X176800000Y-117790000D03*
X166870000Y-84170000D03*
X169500000Y-93540000D03*
X164800000Y-98200000D03*
X166780000Y-81490000D03*
X175370000Y-94030000D03*
X172000000Y-74300000D03*
X164100000Y-98200000D03*
X162500000Y-87500000D03*
X169460000Y-94380000D03*
X176790000Y-115060000D03*
X172070000Y-77290000D03*
X172060000Y-79220000D03*
X174780000Y-98890000D03*
X197810000Y-85910000D03*
X205450000Y-78130000D03*
X175290000Y-96950000D03*
X172000000Y-75000000D03*
X172010000Y-75680000D03*
X170945000Y-94190000D03*
X176140000Y-115740000D03*
X176790000Y-117110000D03*
X204490000Y-80130000D03*
X172080000Y-78600000D03*
%TO.N,Net-(C14-Pad2)*%
X193790000Y-113440000D03*
X193760000Y-112750000D03*
X197980000Y-97750000D03*
X198730000Y-97740000D03*
X190100000Y-113000000D03*
X198010000Y-98520000D03*
X190130000Y-113700000D03*
%TO.N,V_HIGH*%
X162870000Y-93150000D03*
X167000000Y-77800000D03*
X177900000Y-98700000D03*
%TO.N,V_LOW*%
X195100000Y-86000000D03*
X194000000Y-86000000D03*
%TO.N,Net-(Q1-G)*%
X181390000Y-90750000D03*
X173950000Y-90440219D03*
%TO.N,Net-(Q1-S_1)*%
X177590000Y-92200000D03*
%TO.N,Net-(IC1-ISNS)*%
X173730000Y-96140000D03*
%TO.N,VFB*%
X171650000Y-71720000D03*
X168200000Y-97040000D03*
%TO.N,Net-(IC1-EN)*%
X171320000Y-83510000D03*
X170700000Y-97100000D03*
%TO.N,Net-(C1-Pad1)*%
X192190000Y-98350000D03*
X193270000Y-104340000D03*
X193270000Y-103590000D03*
X192200000Y-99100000D03*
X193930000Y-103570000D03*
%TD*%
D23*
%TO.N,V_HIGH*%
X167490000Y-97790000D02*
X176990000Y-97790000D01*
X162870000Y-93170000D02*
X167490000Y-97790000D01*
X176990000Y-97790000D02*
X177900000Y-98700000D01*
X162870000Y-93150000D02*
X162870000Y-93170000D01*
D24*
%TO.N,GND*%
X168120000Y-118000000D02*
X166895000Y-118000000D01*
X166895000Y-118000000D02*
X166878000Y-117983000D01*
X166920000Y-116880000D02*
X166900000Y-116900000D01*
X166880000Y-116880000D02*
X166920000Y-116880000D01*
X166880000Y-116920000D02*
X166880000Y-116880000D01*
X166878000Y-116922000D02*
X166880000Y-116920000D01*
X166878000Y-117983000D02*
X166878000Y-116922000D01*
D25*
%TO.N,V_HIGH*%
X166800000Y-78000000D02*
X167000000Y-77800000D01*
D23*
X162870000Y-93150000D02*
X162860000Y-93150000D01*
X161250000Y-83550000D02*
X166800000Y-78000000D01*
X161250000Y-91540000D02*
X161250000Y-83550000D01*
X162860000Y-93150000D02*
X161250000Y-91540000D01*
D26*
%TO.N,Net-(Q1-S_1)*%
X177590000Y-92200000D02*
X176700000Y-93090000D01*
X176700000Y-93090000D02*
X173900000Y-93090000D01*
%TO.N,Net-(IC1-ISNS)*%
X173730000Y-96140000D02*
X173730000Y-95260000D01*
X173730000Y-95260000D02*
X173900000Y-95090000D01*
%TO.N,Net-(C45-Pad2)*%
X165967500Y-71882000D02*
X165967500Y-70615500D01*
X165967500Y-70615500D02*
X165710000Y-70358000D01*
%TO.N,Net-(C48-Pad2)*%
X206121000Y-71987500D02*
X206121000Y-71169000D01*
X206121000Y-71169000D02*
X206805000Y-70485000D01*
%TO.N,Net-(C49-Pad2)*%
X161000000Y-98700000D02*
X161628000Y-99328000D01*
X161628000Y-99328000D02*
X161628000Y-100203000D01*
%TO.N,Net-(C50-Pad2)*%
X166878000Y-120371000D02*
X166878000Y-120058000D01*
X165837000Y-121412000D02*
X166878000Y-120371000D01*
%TO.N,Net-(C54-Pad2)*%
X209296000Y-91620000D02*
X209624000Y-91948000D01*
X209296000Y-90551000D02*
X209296000Y-91620000D01*
%TD*%
%TA.AperFunction,Conductor*%
%TO.N,GNDH*%
G36*
X214526182Y-58219739D02*
G01*
X214593178Y-58239565D01*
X214638821Y-58292465D01*
X214649919Y-58343819D01*
X214600079Y-135167225D01*
X214580351Y-135234252D01*
X214527517Y-135279973D01*
X214477231Y-135291140D01*
X159776415Y-135799495D01*
X159775263Y-135799500D01*
X157693929Y-135799500D01*
X157626890Y-135779815D01*
X157581135Y-135727011D01*
X157569929Y-135675561D01*
X157569713Y-135234252D01*
X157551922Y-98839363D01*
X160182000Y-98839363D01*
X160197453Y-98956753D01*
X160197456Y-98956762D01*
X160207402Y-98980775D01*
X160257964Y-99102841D01*
X160354218Y-99228282D01*
X160479659Y-99324536D01*
X160508470Y-99336470D01*
X160562871Y-99380309D01*
X160584937Y-99446603D01*
X160578723Y-99490032D01*
X160550500Y-99575205D01*
X160540000Y-99677983D01*
X160540000Y-100728001D01*
X160540001Y-100728019D01*
X160550500Y-100830796D01*
X160550501Y-100830799D01*
X160605685Y-100997331D01*
X160605686Y-100997334D01*
X160697788Y-101146656D01*
X160821844Y-101270712D01*
X160971166Y-101362814D01*
X161137703Y-101417999D01*
X161240491Y-101428500D01*
X162015508Y-101428499D01*
X162015516Y-101428498D01*
X162015519Y-101428498D01*
X162071802Y-101422748D01*
X162118297Y-101417999D01*
X162118298Y-101417998D01*
X162118301Y-101417998D01*
X162124400Y-101415977D01*
X162194228Y-101413574D01*
X162254270Y-101449304D01*
X162285464Y-101511824D01*
X162287403Y-101532890D01*
X162382031Y-116345452D01*
X162382031Y-116345457D01*
X162399982Y-116475783D01*
X162399982Y-116475784D01*
X162399983Y-116475787D01*
X162416889Y-116537503D01*
X162467858Y-116658778D01*
X162557336Y-116771452D01*
X162608132Y-116819427D01*
X162657142Y-116853977D01*
X162664775Y-116863588D01*
X162995093Y-117078098D01*
X163005594Y-117085727D01*
X163255764Y-117288311D01*
X163265409Y-117296996D01*
X163493002Y-117524589D01*
X163501687Y-117534234D01*
X163704270Y-117784403D01*
X163711899Y-117794904D01*
X163920470Y-118116076D01*
X163936596Y-118135759D01*
X163943007Y-118145494D01*
X163943014Y-118145502D01*
X163977958Y-118187543D01*
X163977958Y-118187544D01*
X164058744Y-118265284D01*
X164058747Y-118265287D01*
X164058750Y-118265289D01*
X165601235Y-119450244D01*
X165613204Y-119459132D01*
X165655290Y-119514902D01*
X165662634Y-119571286D01*
X165652500Y-119670481D01*
X165652500Y-120445501D01*
X165652501Y-120445519D01*
X165663000Y-120548296D01*
X165663003Y-120548306D01*
X165664182Y-120551865D01*
X165664261Y-120554187D01*
X165664419Y-120554922D01*
X165664287Y-120554950D01*
X165666580Y-120621694D01*
X165630844Y-120681734D01*
X165568322Y-120712922D01*
X165562659Y-120713801D01*
X165462745Y-120726954D01*
X165462737Y-120726956D01*
X165316660Y-120787463D01*
X165191218Y-120883718D01*
X165094963Y-121009160D01*
X165034456Y-121155237D01*
X165034455Y-121155239D01*
X165019000Y-121272638D01*
X165019000Y-121551363D01*
X165034453Y-121668753D01*
X165034456Y-121668762D01*
X165094964Y-121814841D01*
X165191218Y-121940282D01*
X165316659Y-122036536D01*
X165316660Y-122036536D01*
X165316661Y-122036537D01*
X165340050Y-122046225D01*
X165394454Y-122090065D01*
X165416519Y-122156359D01*
X165415350Y-122178337D01*
X165406964Y-122236985D01*
X165411298Y-127841323D01*
X165391665Y-127908378D01*
X165338897Y-127954174D01*
X165296146Y-127965103D01*
X165267779Y-127967132D01*
X165267773Y-127967133D01*
X164991315Y-128027273D01*
X164991310Y-128027274D01*
X164991309Y-128027275D01*
X164953503Y-128041376D01*
X164726208Y-128126152D01*
X164726204Y-128126154D01*
X164477886Y-128261746D01*
X164477878Y-128261751D01*
X164251383Y-128431302D01*
X164251365Y-128431318D01*
X164051318Y-128631365D01*
X164051302Y-128631383D01*
X163881751Y-128857878D01*
X163881746Y-128857886D01*
X163746154Y-129106204D01*
X163746152Y-129106208D01*
X163671181Y-129307213D01*
X163658954Y-129339998D01*
X163647273Y-129371315D01*
X163587133Y-129647773D01*
X163587132Y-129647780D01*
X163566947Y-129929998D01*
X163566947Y-129930001D01*
X163587132Y-130212219D01*
X163587133Y-130212226D01*
X163630618Y-130412121D01*
X163647275Y-130488691D01*
X163703194Y-130638616D01*
X163746152Y-130753791D01*
X163746154Y-130753795D01*
X163881746Y-131002113D01*
X163881751Y-131002121D01*
X164051302Y-131228616D01*
X164051318Y-131228634D01*
X164251365Y-131428681D01*
X164251383Y-131428697D01*
X164477878Y-131598248D01*
X164477886Y-131598253D01*
X164726204Y-131733845D01*
X164726208Y-131733847D01*
X164726210Y-131733848D01*
X164991309Y-131832725D01*
X165267782Y-131892868D01*
X165528259Y-131911498D01*
X165549999Y-131913053D01*
X165550000Y-131913053D01*
X165659568Y-131905216D01*
X165727841Y-131920068D01*
X165777247Y-131969473D01*
X165787514Y-131994382D01*
X165810453Y-132073533D01*
X165823100Y-132117168D01*
X165880550Y-132207255D01*
X165900000Y-132273928D01*
X165900000Y-132600000D01*
X186116311Y-132649549D01*
X186183300Y-132669398D01*
X186228925Y-132722314D01*
X186239079Y-132769083D01*
X186240000Y-132770000D01*
X206700000Y-132700000D01*
X206666488Y-131437750D01*
X206684386Y-131370216D01*
X206735957Y-131323076D01*
X206781595Y-131310779D01*
X206892218Y-131302868D01*
X207168691Y-131242725D01*
X207433790Y-131143848D01*
X207682119Y-131008250D01*
X207908624Y-130838691D01*
X208108691Y-130638624D01*
X208278250Y-130412119D01*
X208413848Y-130163790D01*
X208512725Y-129898691D01*
X208572868Y-129622218D01*
X208593053Y-129340000D01*
X208572868Y-129057782D01*
X208512725Y-128781309D01*
X208413848Y-128516210D01*
X208367493Y-128431318D01*
X208278253Y-128267886D01*
X208278248Y-128267878D01*
X208108697Y-128041383D01*
X208108681Y-128041365D01*
X207908634Y-127841318D01*
X207908616Y-127841302D01*
X207682121Y-127671751D01*
X207682113Y-127671746D01*
X207433795Y-127536154D01*
X207433791Y-127536152D01*
X207333288Y-127498666D01*
X207168691Y-127437275D01*
X207168687Y-127437274D01*
X207168684Y-127437273D01*
X206892226Y-127377133D01*
X206892219Y-127377132D01*
X206670175Y-127361250D01*
X206604711Y-127336833D01*
X206562840Y-127280899D01*
X206555067Y-127240862D01*
X206404883Y-121583935D01*
X206422780Y-121516402D01*
X206474351Y-121469261D01*
X206481085Y-121466214D01*
X207600000Y-121000000D01*
X207600000Y-118056268D01*
X207619685Y-117989229D01*
X207642345Y-117962949D01*
X208653602Y-117078098D01*
X210000000Y-115900000D01*
X210010000Y-114050000D01*
X210009999Y-114050000D01*
X210009999Y-114049999D01*
X210008684Y-114050002D01*
X210059695Y-103771098D01*
X210095005Y-103763417D01*
X210195756Y-103730102D01*
X210317097Y-103652785D01*
X210369430Y-103607792D01*
X210370012Y-103607300D01*
X210370069Y-103607243D01*
X210370078Y-103607236D01*
X210370084Y-103607231D01*
X210464726Y-103498859D01*
X210525002Y-103368213D01*
X210544946Y-103301250D01*
X210565973Y-103158918D01*
X210606290Y-92763380D01*
X210586926Y-92622836D01*
X210568033Y-92556562D01*
X210510376Y-92426931D01*
X210441137Y-92345077D01*
X210412871Y-92281182D01*
X210421249Y-92217544D01*
X210426544Y-92204762D01*
X210442000Y-92087361D01*
X210441999Y-91808640D01*
X210441999Y-91808636D01*
X210426546Y-91691246D01*
X210426544Y-91691241D01*
X210426544Y-91691238D01*
X210366036Y-91545159D01*
X210323292Y-91489453D01*
X210298099Y-91424286D01*
X210312137Y-91355842D01*
X210316111Y-91348905D01*
X210318314Y-91345334D01*
X210373499Y-91178797D01*
X210384000Y-91076009D01*
X210383999Y-90025992D01*
X210373499Y-89923203D01*
X210359370Y-89880567D01*
X210356969Y-89810741D01*
X210392701Y-89750699D01*
X210396237Y-89747539D01*
X210423336Y-89724241D01*
X210423864Y-89723794D01*
X210423914Y-89723744D01*
X210423923Y-89723737D01*
X210423929Y-89723732D01*
X210518571Y-89615360D01*
X210578847Y-89484714D01*
X210598791Y-89417751D01*
X210619818Y-89275419D01*
X210666233Y-77307671D01*
X210664565Y-77264627D01*
X210662849Y-77243583D01*
X210657522Y-77200841D01*
X210613713Y-77063793D01*
X210583184Y-77000946D01*
X210502540Y-76881793D01*
X210391591Y-76790185D01*
X210391586Y-76790182D01*
X210391585Y-76790181D01*
X210391583Y-76790179D01*
X210338681Y-76757933D01*
X210337981Y-76757443D01*
X210331928Y-76753817D01*
X210269664Y-76727155D01*
X210215786Y-76682670D01*
X210194511Y-76616118D01*
X210194478Y-76612596D01*
X210200000Y-75500000D01*
X207946653Y-73168951D01*
X207914212Y-73107069D01*
X207913335Y-73063374D01*
X207935035Y-72926366D01*
X207939892Y-72810156D01*
X207936839Y-72768709D01*
X207951545Y-72700407D01*
X207961944Y-72684354D01*
X207982150Y-72657891D01*
X207986354Y-72653195D01*
X207988032Y-72650188D01*
X207988034Y-72650188D01*
X208058187Y-72524569D01*
X208134890Y-72324750D01*
X208140156Y-72312921D01*
X208286311Y-72026074D01*
X208292772Y-72014884D01*
X208431994Y-71800502D01*
X208457598Y-71756342D01*
X208469033Y-71734103D01*
X208490048Y-71687599D01*
X208523009Y-71547545D01*
X208529173Y-71477948D01*
X208521342Y-71334287D01*
X208473353Y-71198645D01*
X208440912Y-71136763D01*
X208440906Y-71136751D01*
X208440567Y-71136286D01*
X208356651Y-71020136D01*
X208213435Y-70871982D01*
X208170490Y-70832409D01*
X208170487Y-70832406D01*
X208170481Y-70832401D01*
X208170479Y-70832400D01*
X208148391Y-70814290D01*
X208148388Y-70814287D01*
X208148375Y-70814277D01*
X208148363Y-70814268D01*
X208148355Y-70814262D01*
X208101173Y-70779934D01*
X208101172Y-70779933D01*
X207970295Y-70720162D01*
X207903250Y-70700475D01*
X207855777Y-70693649D01*
X207760833Y-70679999D01*
X207760831Y-70679999D01*
X207747000Y-70679999D01*
X207679961Y-70660314D01*
X207634206Y-70607510D01*
X207623000Y-70556000D01*
X207622999Y-70345636D01*
X207607546Y-70228246D01*
X207607544Y-70228241D01*
X207607544Y-70228238D01*
X207599732Y-70209380D01*
X207592264Y-70139913D01*
X207620580Y-70080727D01*
X207680567Y-70011501D01*
X207740338Y-69880624D01*
X207760023Y-69813585D01*
X207760024Y-69813581D01*
X207780500Y-69671165D01*
X207780500Y-67364583D01*
X207777808Y-67345699D01*
X207760370Y-67223359D01*
X207760368Y-67223349D01*
X207760368Y-67223347D01*
X207741008Y-67156815D01*
X207728934Y-67130120D01*
X207682218Y-67026830D01*
X207682213Y-67026822D01*
X207264442Y-66369765D01*
X207245098Y-66305212D01*
X207239182Y-65934558D01*
X207257794Y-65867216D01*
X207309861Y-65820624D01*
X207372009Y-65808898D01*
X207500000Y-65818053D01*
X207500001Y-65818053D01*
X207520186Y-65816609D01*
X207782218Y-65797868D01*
X208058691Y-65737725D01*
X208323790Y-65638848D01*
X208572119Y-65503250D01*
X208798624Y-65333691D01*
X208998691Y-65133624D01*
X209168250Y-64907119D01*
X209303848Y-64658790D01*
X209402725Y-64393691D01*
X209462868Y-64117218D01*
X209483053Y-63835000D01*
X209462868Y-63552782D01*
X209402725Y-63276309D01*
X209303848Y-63011210D01*
X209168250Y-62762881D01*
X209168248Y-62762878D01*
X208998697Y-62536383D01*
X208998681Y-62536365D01*
X208798634Y-62336318D01*
X208798616Y-62336302D01*
X208572121Y-62166751D01*
X208572113Y-62166746D01*
X208323795Y-62031154D01*
X208323791Y-62031152D01*
X208223288Y-61993666D01*
X208058691Y-61932275D01*
X208058687Y-61932274D01*
X208058684Y-61932273D01*
X207782226Y-61872133D01*
X207782219Y-61872132D01*
X207500001Y-61851947D01*
X207499999Y-61851947D01*
X207305137Y-61865884D01*
X207236864Y-61851032D01*
X207187459Y-61801627D01*
X207172307Y-61744181D01*
X207140879Y-59774839D01*
X207140879Y-59774836D01*
X207127945Y-59669014D01*
X207127942Y-59668997D01*
X207116224Y-59618331D01*
X207116222Y-59618322D01*
X207081374Y-59517552D01*
X207081372Y-59517548D01*
X207002362Y-59397320D01*
X207002349Y-59397304D01*
X206956067Y-59344980D01*
X206956059Y-59344972D01*
X206846375Y-59251873D01*
X206846366Y-59251867D01*
X206826732Y-59239530D01*
X206805024Y-59222218D01*
X206777780Y-59194974D01*
X206760467Y-59173265D01*
X206739964Y-59140635D01*
X206727918Y-59115619D01*
X206727913Y-59115606D01*
X206718809Y-59089585D01*
X206703554Y-59045988D01*
X206695121Y-59023600D01*
X206692282Y-59016573D01*
X206690747Y-59012771D01*
X206681283Y-58990843D01*
X206681281Y-58990841D01*
X206681280Y-58990837D01*
X206615958Y-58889795D01*
X206603170Y-58870013D01*
X206578488Y-58841683D01*
X206557276Y-58817335D01*
X206557272Y-58817331D01*
X206448292Y-58723409D01*
X206448289Y-58723407D01*
X206317268Y-58663993D01*
X206317258Y-58663989D01*
X206317255Y-58663988D01*
X206317250Y-58663986D01*
X206317243Y-58663984D01*
X206250589Y-58644605D01*
X206250193Y-58644488D01*
X206250162Y-58644481D01*
X206250156Y-58644480D01*
X206107686Y-58624387D01*
X204887737Y-58627664D01*
X204865212Y-58628227D01*
X204854181Y-58628750D01*
X204831763Y-58630313D01*
X204691824Y-58663760D01*
X204691821Y-58663761D01*
X204626876Y-58689507D01*
X204626874Y-58689507D01*
X204626874Y-58689508D01*
X204607095Y-58700838D01*
X204502035Y-58761019D01*
X204402391Y-58864813D01*
X204402390Y-58864814D01*
X204361680Y-58921572D01*
X204361665Y-58921596D01*
X204295304Y-59049252D01*
X204295298Y-59049267D01*
X204272081Y-59115617D01*
X204260033Y-59140635D01*
X204239528Y-59173268D01*
X204222216Y-59194976D01*
X204194975Y-59222217D01*
X204173267Y-59239529D01*
X204140634Y-59260034D01*
X204115616Y-59272082D01*
X204079245Y-59284809D01*
X204052175Y-59290988D01*
X204018429Y-59294790D01*
X204013885Y-59295302D01*
X203986123Y-59295302D01*
X203947824Y-59290986D01*
X203920758Y-59284809D01*
X203884379Y-59272080D01*
X203859360Y-59260032D01*
X203826733Y-59239531D01*
X203805024Y-59222218D01*
X203777780Y-59194974D01*
X203760467Y-59173265D01*
X203739964Y-59140635D01*
X203727918Y-59115619D01*
X203727913Y-59115606D01*
X203723084Y-59101804D01*
X203706365Y-59054021D01*
X203700992Y-59039759D01*
X203697950Y-59031682D01*
X203693564Y-59020822D01*
X203684100Y-58998894D01*
X203684098Y-58998892D01*
X203684097Y-58998888D01*
X203618775Y-58897846D01*
X203605987Y-58878064D01*
X203560090Y-58825383D01*
X203451104Y-58731457D01*
X203320066Y-58672037D01*
X203320056Y-58672033D01*
X203252982Y-58652534D01*
X203252978Y-58652533D01*
X203252977Y-58652533D01*
X203252975Y-58652533D01*
X203244523Y-58651329D01*
X203244359Y-58651318D01*
X203110506Y-58632439D01*
X203110503Y-58632439D01*
X203013748Y-58632698D01*
X201884907Y-58635731D01*
X201862412Y-58636293D01*
X201851431Y-58636813D01*
X201851413Y-58636814D01*
X201851397Y-58636815D01*
X201828942Y-58638379D01*
X201689004Y-58671826D01*
X201689001Y-58671827D01*
X201688999Y-58671827D01*
X201624051Y-58697574D01*
X201499216Y-58769082D01*
X201499214Y-58769084D01*
X201399580Y-58872866D01*
X201399568Y-58872881D01*
X201361474Y-58925991D01*
X201360107Y-58927758D01*
X201358847Y-58929652D01*
X201292481Y-59057316D01*
X201292478Y-59057323D01*
X201272079Y-59115622D01*
X201260031Y-59140641D01*
X201239530Y-59173267D01*
X201222218Y-59194974D01*
X201194975Y-59222217D01*
X201173267Y-59239529D01*
X201140634Y-59260034D01*
X201115616Y-59272082D01*
X201079245Y-59284809D01*
X201052175Y-59290988D01*
X201018429Y-59294790D01*
X201013885Y-59295302D01*
X200986123Y-59295302D01*
X200947824Y-59290986D01*
X200920758Y-59284809D01*
X200884379Y-59272080D01*
X200859360Y-59260032D01*
X200826733Y-59239531D01*
X200805024Y-59222218D01*
X200777780Y-59194974D01*
X200760467Y-59173265D01*
X200739964Y-59140635D01*
X200727918Y-59115619D01*
X200727913Y-59115606D01*
X200723084Y-59101804D01*
X200709182Y-59062072D01*
X200704352Y-59049251D01*
X200700767Y-59039733D01*
X200696381Y-59028873D01*
X200686917Y-59006945D01*
X200686915Y-59006943D01*
X200686914Y-59006939D01*
X200624418Y-58910268D01*
X200608804Y-58886115D01*
X200566888Y-58838004D01*
X200562908Y-58833435D01*
X200556684Y-58828071D01*
X200453921Y-58739508D01*
X200322883Y-58680088D01*
X200322873Y-58680084D01*
X200255799Y-58660585D01*
X200255795Y-58660584D01*
X200255794Y-58660584D01*
X200255792Y-58660584D01*
X200247340Y-58659380D01*
X200247176Y-58659369D01*
X200113323Y-58640490D01*
X200113320Y-58640490D01*
X200018611Y-58640744D01*
X198882079Y-58643797D01*
X198859579Y-58644359D01*
X198848576Y-58644880D01*
X198830319Y-58646152D01*
X198826122Y-58646445D01*
X198826117Y-58646445D01*
X198686191Y-58679889D01*
X198686183Y-58679891D01*
X198621224Y-58705642D01*
X198496388Y-58777152D01*
X198396748Y-58880941D01*
X198396744Y-58880946D01*
X198357926Y-58935068D01*
X198356674Y-58936719D01*
X198356019Y-58937726D01*
X198289662Y-59065376D01*
X198289656Y-59065389D01*
X198272080Y-59115619D01*
X198260033Y-59140634D01*
X198239530Y-59173265D01*
X198222217Y-59194975D01*
X198194975Y-59222217D01*
X198173267Y-59239529D01*
X198140634Y-59260034D01*
X198115616Y-59272082D01*
X198079245Y-59284809D01*
X198052175Y-59290988D01*
X198018429Y-59294790D01*
X198013885Y-59295302D01*
X197986123Y-59295302D01*
X197947824Y-59290986D01*
X197920758Y-59284809D01*
X197884379Y-59272080D01*
X197859360Y-59260032D01*
X197826733Y-59239531D01*
X197805024Y-59222218D01*
X197777781Y-59194975D01*
X197760468Y-59173266D01*
X197760467Y-59173265D01*
X197739962Y-59140630D01*
X197727916Y-59115615D01*
X197727913Y-59115606D01*
X197711999Y-59070126D01*
X197703580Y-59047774D01*
X197699195Y-59036917D01*
X197689734Y-59014996D01*
X197689733Y-59014994D01*
X197689732Y-59014992D01*
X197689731Y-59014991D01*
X197632195Y-58925991D01*
X197611621Y-58894166D01*
X197565724Y-58841485D01*
X197456738Y-58747559D01*
X197325700Y-58688139D01*
X197325690Y-58688135D01*
X197258616Y-58668636D01*
X197258612Y-58668635D01*
X197258611Y-58668635D01*
X197258609Y-58668635D01*
X197250157Y-58667431D01*
X197249993Y-58667420D01*
X197116140Y-58648541D01*
X197116137Y-58648541D01*
X197013066Y-58648817D01*
X195879256Y-58651863D01*
X195856747Y-58652426D01*
X195845736Y-58652947D01*
X195823296Y-58654511D01*
X195780906Y-58664643D01*
X195683359Y-58687958D01*
X195683356Y-58687959D01*
X195683354Y-58687959D01*
X195618406Y-58713706D01*
X195493571Y-58785214D01*
X195493569Y-58785216D01*
X195393935Y-58888998D01*
X195393925Y-58889010D01*
X195353276Y-58945684D01*
X195353199Y-58945791D01*
X195286836Y-59073449D01*
X195286835Y-59073452D01*
X195272080Y-59115619D01*
X195260033Y-59140634D01*
X195239530Y-59173265D01*
X195222217Y-59194975D01*
X195194975Y-59222217D01*
X195173267Y-59239529D01*
X195140634Y-59260034D01*
X195115616Y-59272082D01*
X195079245Y-59284809D01*
X195052175Y-59290988D01*
X195018429Y-59294790D01*
X195013885Y-59295302D01*
X194986123Y-59295302D01*
X194947824Y-59290986D01*
X194920758Y-59284809D01*
X194884379Y-59272080D01*
X194859360Y-59260032D01*
X194826733Y-59239531D01*
X194805024Y-59222218D01*
X194777779Y-59194973D01*
X194760467Y-59173265D01*
X194739963Y-59140634D01*
X194727917Y-59115619D01*
X194714817Y-59078178D01*
X194709442Y-59063907D01*
X194706403Y-59055837D01*
X194702015Y-59044974D01*
X194699501Y-59039149D01*
X194692552Y-59023048D01*
X194692550Y-59023046D01*
X194692549Y-59023042D01*
X194622020Y-58913945D01*
X194614439Y-58902218D01*
X194568542Y-58849537D01*
X194459556Y-58755611D01*
X194328519Y-58696192D01*
X194328509Y-58696188D01*
X194261436Y-58676689D01*
X194261420Y-58676685D01*
X194118955Y-58656592D01*
X194118952Y-58656592D01*
X194018209Y-58656862D01*
X192876427Y-58659929D01*
X192853910Y-58660492D01*
X192842911Y-58661013D01*
X192820480Y-58662576D01*
X192820469Y-58662578D01*
X192680546Y-58696021D01*
X192680538Y-58696023D01*
X192642822Y-58710975D01*
X192622354Y-58719088D01*
X192617433Y-58720712D01*
X192490737Y-58793287D01*
X192391103Y-58897074D01*
X192391087Y-58897093D01*
X192350383Y-58953847D01*
X192350373Y-58953863D01*
X192284013Y-59081521D01*
X192272082Y-59115616D01*
X192260036Y-59140629D01*
X192239531Y-59173264D01*
X192222217Y-59194975D01*
X192194975Y-59222217D01*
X192173267Y-59239529D01*
X192140634Y-59260034D01*
X192115616Y-59272082D01*
X192079245Y-59284809D01*
X192052175Y-59290988D01*
X192018429Y-59294790D01*
X192013885Y-59295302D01*
X191986123Y-59295302D01*
X191947824Y-59290986D01*
X191920758Y-59284809D01*
X191884379Y-59272080D01*
X191859360Y-59260032D01*
X191826733Y-59239531D01*
X191805024Y-59222218D01*
X191777780Y-59194974D01*
X191760468Y-59173266D01*
X191739961Y-59140630D01*
X191727916Y-59115617D01*
X191723908Y-59104163D01*
X191717631Y-59086224D01*
X191709226Y-59063907D01*
X191704841Y-59053048D01*
X191704836Y-59053038D01*
X191704827Y-59053014D01*
X191695370Y-59031102D01*
X191695363Y-59031088D01*
X191624563Y-58921572D01*
X191617255Y-58910268D01*
X191571358Y-58857587D01*
X191462373Y-58763662D01*
X191331336Y-58704242D01*
X191331323Y-58704237D01*
X191264252Y-58684739D01*
X191264251Y-58684738D01*
X191264223Y-58684734D01*
X191121775Y-58664643D01*
X191121772Y-58664643D01*
X191011642Y-58664938D01*
X189873604Y-58667995D01*
X189851079Y-58668558D01*
X189840071Y-58669080D01*
X189817655Y-58670643D01*
X189817650Y-58670643D01*
X189677724Y-58704087D01*
X189677716Y-58704089D01*
X189612757Y-58729840D01*
X189487922Y-58801349D01*
X189388280Y-58905140D01*
X189347560Y-58961913D01*
X189347556Y-58961917D01*
X189347552Y-58961924D01*
X189281191Y-59089582D01*
X189281189Y-59089587D01*
X189272077Y-59115625D01*
X189260032Y-59140637D01*
X189239531Y-59173265D01*
X189222217Y-59194975D01*
X189194975Y-59222217D01*
X189173267Y-59239529D01*
X189140634Y-59260034D01*
X189115616Y-59272082D01*
X189079245Y-59284809D01*
X189052175Y-59290988D01*
X189018429Y-59294790D01*
X189013885Y-59295302D01*
X188986123Y-59295302D01*
X188947824Y-59290986D01*
X188920758Y-59284809D01*
X188884379Y-59272080D01*
X188859360Y-59260032D01*
X188826733Y-59239531D01*
X188805024Y-59222218D01*
X188777779Y-59194973D01*
X188760467Y-59173265D01*
X188739963Y-59140634D01*
X188727918Y-59115620D01*
X188720451Y-59094279D01*
X188712034Y-59071932D01*
X188707650Y-59061077D01*
X188698186Y-59039149D01*
X188698184Y-59039147D01*
X188698183Y-59039143D01*
X188627203Y-58929348D01*
X188620073Y-58918319D01*
X188574176Y-58865638D01*
X188465191Y-58771713D01*
X188334154Y-58712293D01*
X188334144Y-58712289D01*
X188269392Y-58693465D01*
X188267702Y-58692938D01*
X188267062Y-58692787D01*
X188267060Y-58692787D01*
X188124590Y-58672694D01*
X186870795Y-58676062D01*
X186848303Y-58676624D01*
X186837316Y-58677144D01*
X186837287Y-58677145D01*
X186837287Y-58677146D01*
X186814823Y-58678710D01*
X186753876Y-58693278D01*
X186674884Y-58712159D01*
X186674883Y-58712159D01*
X186609929Y-58737908D01*
X186485091Y-58809422D01*
X186385451Y-58913215D01*
X186385445Y-58913222D01*
X186344734Y-58969985D01*
X186344722Y-58970005D01*
X186278372Y-59097642D01*
X186278368Y-59097651D01*
X186272081Y-59115619D01*
X186260034Y-59140634D01*
X186239530Y-59173266D01*
X186222217Y-59194975D01*
X186194975Y-59222217D01*
X186173267Y-59239529D01*
X186140634Y-59260034D01*
X186115616Y-59272082D01*
X186079245Y-59284809D01*
X186052175Y-59290988D01*
X186018429Y-59294790D01*
X186013885Y-59295302D01*
X185986123Y-59295302D01*
X185947824Y-59290986D01*
X185920758Y-59284809D01*
X185884379Y-59272080D01*
X185859360Y-59260032D01*
X185826733Y-59239531D01*
X185805024Y-59222218D01*
X185777780Y-59194974D01*
X185760468Y-59173265D01*
X185739965Y-59140635D01*
X185727918Y-59115621D01*
X185723270Y-59102336D01*
X185714853Y-59079988D01*
X185710467Y-59069128D01*
X185701003Y-59047200D01*
X185701001Y-59047198D01*
X185701000Y-59047194D01*
X185622893Y-58926375D01*
X185622890Y-58926370D01*
X185576993Y-58873689D01*
X185468008Y-58779764D01*
X185336971Y-58720344D01*
X185336961Y-58720340D01*
X185272209Y-58701516D01*
X185270519Y-58700989D01*
X185269879Y-58700838D01*
X185269877Y-58700838D01*
X185127407Y-58680745D01*
X183867967Y-58684128D01*
X183845471Y-58684690D01*
X183834461Y-58685211D01*
X183812005Y-58686776D01*
X183672067Y-58720223D01*
X183672064Y-58720224D01*
X183672062Y-58720224D01*
X183607115Y-58745970D01*
X183607113Y-58745971D01*
X183482273Y-58817484D01*
X183482272Y-58817485D01*
X183382628Y-58921281D01*
X183341914Y-58978045D01*
X183341853Y-58978146D01*
X183341451Y-58978935D01*
X183275545Y-59105719D01*
X183275543Y-59105723D01*
X183272077Y-59115628D01*
X183260033Y-59140636D01*
X183239532Y-59173264D01*
X183222218Y-59194974D01*
X183194975Y-59222217D01*
X183173267Y-59239529D01*
X183140634Y-59260034D01*
X183115616Y-59272082D01*
X183079245Y-59284809D01*
X183052175Y-59290988D01*
X183018429Y-59294790D01*
X183013885Y-59295302D01*
X182986123Y-59295302D01*
X182947824Y-59290986D01*
X182920758Y-59284809D01*
X182884379Y-59272080D01*
X182859360Y-59260032D01*
X182826733Y-59239531D01*
X182805024Y-59222218D01*
X182777783Y-59194977D01*
X182760470Y-59173268D01*
X182760468Y-59173265D01*
X182739960Y-59140627D01*
X182727915Y-59115614D01*
X182726083Y-59110376D01*
X182717672Y-59088046D01*
X182717433Y-59087455D01*
X182713283Y-59077178D01*
X182703822Y-59055255D01*
X182703815Y-59055242D01*
X182633056Y-58945790D01*
X182625707Y-58934422D01*
X182614533Y-58921596D01*
X182579813Y-58881744D01*
X182579803Y-58881734D01*
X182470829Y-58787818D01*
X182470827Y-58787817D01*
X182470826Y-58787816D01*
X182339788Y-58728396D01*
X182328183Y-58725022D01*
X182272705Y-58708892D01*
X182272691Y-58708890D01*
X182230292Y-58702910D01*
X182130224Y-58688796D01*
X182130221Y-58688796D01*
X182037658Y-58689044D01*
X180865161Y-58692194D01*
X180842661Y-58692756D01*
X180831639Y-58693278D01*
X180809183Y-58694843D01*
X180809181Y-58694843D01*
X180669243Y-58728290D01*
X180669240Y-58728291D01*
X180604295Y-58754036D01*
X180521063Y-58801715D01*
X180479448Y-58825554D01*
X180479447Y-58825554D01*
X180479447Y-58825555D01*
X180479444Y-58825557D01*
X180379808Y-58929346D01*
X180379802Y-58929353D01*
X180339085Y-58986124D01*
X180339082Y-58986128D01*
X180272726Y-59113778D01*
X180272718Y-59113795D01*
X180272079Y-59115623D01*
X180260033Y-59140636D01*
X180239527Y-59173270D01*
X180222215Y-59194977D01*
X180194975Y-59222217D01*
X180173267Y-59239529D01*
X180140634Y-59260034D01*
X180115616Y-59272082D01*
X180079245Y-59284809D01*
X180052175Y-59290988D01*
X180018429Y-59294790D01*
X180013885Y-59295302D01*
X179986123Y-59295302D01*
X179947824Y-59290986D01*
X179920758Y-59284809D01*
X179884379Y-59272080D01*
X179859360Y-59260032D01*
X179826733Y-59239531D01*
X179805024Y-59222218D01*
X179777781Y-59194975D01*
X179760468Y-59173265D01*
X179760467Y-59173264D01*
X179739866Y-59140477D01*
X179728819Y-59118212D01*
X179720494Y-59096110D01*
X179716103Y-59085235D01*
X179706639Y-59063306D01*
X179706632Y-59063293D01*
X179635687Y-58953553D01*
X179628524Y-58942473D01*
X179617089Y-58929348D01*
X179582630Y-58889795D01*
X179582620Y-58889785D01*
X179473646Y-58795869D01*
X179473644Y-58795868D01*
X179473643Y-58795867D01*
X179342605Y-58736447D01*
X179342595Y-58736443D01*
X179275515Y-58716942D01*
X179275489Y-58716938D01*
X179133041Y-58696847D01*
X179133038Y-58696847D01*
X179027149Y-58697131D01*
X177862339Y-58700260D01*
X177839828Y-58700823D01*
X177828803Y-58701345D01*
X177806354Y-58702910D01*
X177666409Y-58736360D01*
X177666407Y-58736361D01*
X177601470Y-58762104D01*
X177476631Y-58833617D01*
X177376990Y-58937406D01*
X177376981Y-58937416D01*
X177336273Y-58994174D01*
X177336268Y-58994182D01*
X177336247Y-58994219D01*
X177269897Y-59121856D01*
X177269393Y-59123022D01*
X177260574Y-59139775D01*
X177239531Y-59173265D01*
X177222218Y-59194974D01*
X177194975Y-59222217D01*
X177173267Y-59239529D01*
X177140634Y-59260034D01*
X177115616Y-59272082D01*
X177079245Y-59284809D01*
X177052175Y-59290988D01*
X177018429Y-59294790D01*
X177013885Y-59295302D01*
X176986123Y-59295302D01*
X176947824Y-59290986D01*
X176920758Y-59284809D01*
X176884379Y-59272080D01*
X176859360Y-59260032D01*
X176826733Y-59239531D01*
X176805024Y-59222218D01*
X176777782Y-59194976D01*
X176760470Y-59173268D01*
X176739966Y-59140637D01*
X176739330Y-59139624D01*
X176728284Y-59117362D01*
X176723313Y-59104163D01*
X176718928Y-59093304D01*
X176718923Y-59093294D01*
X176718914Y-59093270D01*
X176709457Y-59071358D01*
X176709450Y-59071344D01*
X176636546Y-58958574D01*
X176631342Y-58950524D01*
X176585448Y-58897846D01*
X176585438Y-58897836D01*
X176476464Y-58803920D01*
X176476462Y-58803919D01*
X176476461Y-58803918D01*
X176345423Y-58744498D01*
X176345413Y-58744494D01*
X176278333Y-58724993D01*
X176278307Y-58724989D01*
X176135859Y-58704898D01*
X176135856Y-58704898D01*
X176032371Y-58705175D01*
X174859512Y-58708326D01*
X174836995Y-58708889D01*
X174825973Y-58709411D01*
X174803538Y-58710975D01*
X174803536Y-58710975D01*
X174663598Y-58744422D01*
X174663595Y-58744423D01*
X174598648Y-58770169D01*
X174598646Y-58770170D01*
X174473808Y-58841682D01*
X174473807Y-58841683D01*
X174374166Y-58945474D01*
X174374163Y-58945478D01*
X174333438Y-59002258D01*
X174270893Y-59122578D01*
X174265863Y-59131358D01*
X174239529Y-59173267D01*
X174222217Y-59194975D01*
X174194975Y-59222217D01*
X174173267Y-59239529D01*
X174140634Y-59260034D01*
X174115616Y-59272082D01*
X174079245Y-59284809D01*
X174052175Y-59290988D01*
X174018429Y-59294790D01*
X174013885Y-59295302D01*
X173986123Y-59295302D01*
X173947824Y-59290986D01*
X173920758Y-59284809D01*
X173884379Y-59272080D01*
X173859360Y-59260032D01*
X173826733Y-59239531D01*
X173805024Y-59222218D01*
X173777781Y-59194975D01*
X173760468Y-59173266D01*
X173760467Y-59173265D01*
X173738791Y-59138767D01*
X173727741Y-59116495D01*
X173727593Y-59116103D01*
X173726123Y-59112198D01*
X173724989Y-59109391D01*
X173721739Y-59101342D01*
X173712273Y-59079407D01*
X173712266Y-59079394D01*
X173639363Y-58966625D01*
X173634158Y-58958574D01*
X173588261Y-58905893D01*
X173479276Y-58811968D01*
X173348239Y-58752548D01*
X173348229Y-58752544D01*
X173283477Y-58733720D01*
X173281787Y-58733193D01*
X173281147Y-58733042D01*
X173281145Y-58733042D01*
X173138675Y-58712949D01*
X171856684Y-58716393D01*
X171834194Y-58716955D01*
X171823211Y-58717475D01*
X171823191Y-58717476D01*
X171823178Y-58717477D01*
X171817746Y-58717855D01*
X171800709Y-58719041D01*
X171660765Y-58752492D01*
X171595817Y-58778240D01*
X171470973Y-58849758D01*
X171371335Y-58953551D01*
X171371325Y-58953562D01*
X171330617Y-59010323D01*
X171330612Y-59010332D01*
X171278829Y-59109945D01*
X171273801Y-59118722D01*
X171239530Y-59173265D01*
X171222217Y-59194975D01*
X171194975Y-59222217D01*
X171173267Y-59239529D01*
X171140634Y-59260034D01*
X171115616Y-59272082D01*
X171079245Y-59284809D01*
X171052175Y-59290988D01*
X171018429Y-59294790D01*
X171013885Y-59295302D01*
X170986123Y-59295302D01*
X170947824Y-59290986D01*
X170920758Y-59284809D01*
X170884379Y-59272080D01*
X170859360Y-59260032D01*
X170826733Y-59239531D01*
X170805024Y-59222218D01*
X170777780Y-59194974D01*
X170760468Y-59173266D01*
X170738008Y-59137521D01*
X170728028Y-59117990D01*
X170724555Y-59109391D01*
X170724547Y-59109374D01*
X170724540Y-59109355D01*
X170715090Y-59087458D01*
X170715083Y-59087445D01*
X170638952Y-58969683D01*
X170636975Y-58966625D01*
X170591078Y-58913944D01*
X170482093Y-58820019D01*
X170351056Y-58760599D01*
X170351046Y-58760595D01*
X170286294Y-58741771D01*
X170284604Y-58741244D01*
X170283964Y-58741093D01*
X170283962Y-58741093D01*
X170141492Y-58721000D01*
X168853856Y-58724459D01*
X168831362Y-58725021D01*
X168820378Y-58725541D01*
X168820356Y-58725542D01*
X168820346Y-58725543D01*
X168797889Y-58727107D01*
X168657950Y-58760556D01*
X168657949Y-58760556D01*
X168592997Y-58786305D01*
X168468155Y-58857821D01*
X168468154Y-58857821D01*
X168368514Y-58961616D01*
X168368504Y-58961627D01*
X168327798Y-59018385D01*
X168327789Y-59018400D01*
X168286768Y-59097311D01*
X168281740Y-59106088D01*
X168239529Y-59173267D01*
X168222216Y-59194976D01*
X168194975Y-59222217D01*
X168173267Y-59239529D01*
X168140634Y-59260034D01*
X168115616Y-59272082D01*
X168079245Y-59284809D01*
X168052175Y-59290988D01*
X168018429Y-59294790D01*
X168013885Y-59295302D01*
X167986123Y-59295302D01*
X167947824Y-59290986D01*
X167920758Y-59284809D01*
X167884379Y-59272080D01*
X167859360Y-59260032D01*
X167826733Y-59239531D01*
X167805024Y-59222218D01*
X167777780Y-59194974D01*
X167760469Y-59173267D01*
X167736794Y-59135588D01*
X167727942Y-59118759D01*
X167717908Y-59095510D01*
X167717901Y-59095496D01*
X167642036Y-58978146D01*
X167639793Y-58974676D01*
X167621390Y-58953553D01*
X167593899Y-58921998D01*
X167593889Y-58921988D01*
X167484914Y-58828072D01*
X167484913Y-58828071D01*
X167484911Y-58828070D01*
X167484908Y-58828068D01*
X167353881Y-58768652D01*
X167353882Y-58768652D01*
X167291303Y-58750459D01*
X167289202Y-58749761D01*
X167286782Y-58749144D01*
X167240684Y-58742642D01*
X167144311Y-58729051D01*
X165851028Y-58732525D01*
X165828531Y-58733087D01*
X165817524Y-58733608D01*
X165795070Y-58735173D01*
X165655131Y-58768620D01*
X165655128Y-58768621D01*
X165590183Y-58794366D01*
X165521982Y-58833435D01*
X165465336Y-58865884D01*
X165465335Y-58865884D01*
X165465335Y-58865885D01*
X165465332Y-58865887D01*
X165365696Y-58969676D01*
X165365690Y-58969683D01*
X165324974Y-59026452D01*
X165324974Y-59026453D01*
X165294701Y-59084686D01*
X165289678Y-59093455D01*
X165288659Y-59095076D01*
X165275448Y-59116103D01*
X165274676Y-59117356D01*
X165270869Y-59123531D01*
X165268781Y-59126983D01*
X165264431Y-59134317D01*
X165264429Y-59134320D01*
X165210498Y-59267700D01*
X165210495Y-59267710D01*
X165193790Y-59335545D01*
X165179621Y-59478723D01*
X165179620Y-59478736D01*
X165254898Y-61182527D01*
X165238192Y-61250370D01*
X165187459Y-61298411D01*
X165131019Y-61312000D01*
X163514629Y-61312000D01*
X163514623Y-61312001D01*
X163455016Y-61318408D01*
X163320171Y-61368702D01*
X163320164Y-61368706D01*
X163204955Y-61454952D01*
X163204952Y-61454955D01*
X163118706Y-61570164D01*
X163118702Y-61570171D01*
X163068408Y-61705017D01*
X163062001Y-61764616D01*
X163062000Y-61764635D01*
X163062000Y-64815370D01*
X163062001Y-64815376D01*
X163068408Y-64874983D01*
X163118702Y-65009828D01*
X163118706Y-65009835D01*
X163204952Y-65125044D01*
X163204955Y-65125047D01*
X163320164Y-65211293D01*
X163320171Y-65211297D01*
X163455017Y-65261591D01*
X163455016Y-65261591D01*
X163461944Y-65262335D01*
X163514627Y-65268000D01*
X165316762Y-65267999D01*
X165383801Y-65287684D01*
X165429556Y-65340487D01*
X165440641Y-65386526D01*
X165468825Y-66024423D01*
X165468826Y-66024436D01*
X165468827Y-66024443D01*
X165482312Y-66114261D01*
X165484539Y-66129094D01*
X165484539Y-66129097D01*
X165497508Y-66179075D01*
X165497509Y-66179077D01*
X165534669Y-66278173D01*
X165686909Y-66582652D01*
X165700000Y-66638106D01*
X165700000Y-67971960D01*
X165687935Y-68025312D01*
X165190000Y-69069997D01*
X165189999Y-69070000D01*
X165187706Y-69674281D01*
X165167767Y-69741245D01*
X165139194Y-69772185D01*
X165064222Y-69829714D01*
X165064220Y-69829716D01*
X165064218Y-69829718D01*
X165025157Y-69880624D01*
X164967963Y-69955160D01*
X164907456Y-70101237D01*
X164907455Y-70101239D01*
X164892000Y-70218638D01*
X164892000Y-70497363D01*
X164907453Y-70614753D01*
X164907456Y-70614762D01*
X164967964Y-70760842D01*
X165015048Y-70822203D01*
X165040242Y-70887372D01*
X165026203Y-70955817D01*
X165022211Y-70962785D01*
X164945190Y-71087659D01*
X164945186Y-71087666D01*
X164890001Y-71254203D01*
X164890001Y-71254204D01*
X164890000Y-71254204D01*
X164879500Y-71356983D01*
X164879500Y-72407001D01*
X164879501Y-72407019D01*
X164890000Y-72509796D01*
X164890001Y-72509799D01*
X164945185Y-72676331D01*
X164945187Y-72676336D01*
X165037289Y-72825657D01*
X165138708Y-72927076D01*
X165172193Y-72988399D01*
X165175026Y-73015227D01*
X165170229Y-74279575D01*
X165159797Y-74314609D01*
X165123460Y-78741599D01*
X165103226Y-78808474D01*
X165087145Y-78828262D01*
X160851270Y-83064139D01*
X160851267Y-83064142D01*
X160807704Y-83107704D01*
X160764142Y-83151266D01*
X160741251Y-83185526D01*
X160741250Y-83185527D01*
X160695690Y-83253709D01*
X160695688Y-83253713D01*
X160695688Y-83253714D01*
X160666201Y-83324903D01*
X160648538Y-83367544D01*
X160648535Y-83367556D01*
X160624500Y-83488389D01*
X160624500Y-91601610D01*
X160642328Y-91691237D01*
X160648537Y-91722452D01*
X160656711Y-91742186D01*
X160695688Y-91836286D01*
X160695689Y-91836288D01*
X160695690Y-91836289D01*
X160698560Y-91841659D01*
X160696060Y-91842994D01*
X160713270Y-91898158D01*
X160694715Y-91965519D01*
X160670499Y-91993947D01*
X160663662Y-91999871D01*
X160663660Y-91999873D01*
X160569433Y-92108616D01*
X160569430Y-92108620D01*
X160509664Y-92239486D01*
X160489976Y-92306534D01*
X160469500Y-92448953D01*
X160469500Y-96779100D01*
X160471712Y-96826341D01*
X160471713Y-96826348D01*
X160473873Y-96849369D01*
X160473877Y-96849405D01*
X160473878Y-96849407D01*
X160480496Y-96896233D01*
X160527117Y-97032351D01*
X160528584Y-97035219D01*
X160558935Y-97094560D01*
X160642010Y-97212020D01*
X160642013Y-97212024D01*
X160966018Y-97554030D01*
X160997834Y-97616234D01*
X161000000Y-97639309D01*
X161000000Y-97875500D01*
X160980315Y-97942539D01*
X160927511Y-97988294D01*
X160876001Y-97999500D01*
X160743137Y-97999500D01*
X160625746Y-98014953D01*
X160625737Y-98014956D01*
X160479660Y-98075463D01*
X160354218Y-98171718D01*
X160257963Y-98297160D01*
X160197456Y-98443237D01*
X160197455Y-98443239D01*
X160182000Y-98560638D01*
X160182000Y-98839363D01*
X157551922Y-98839363D01*
X157540044Y-74540624D01*
X157559696Y-74473577D01*
X157575448Y-74453808D01*
X157579999Y-74449160D01*
X157580000Y-74449160D01*
X157580000Y-58224261D01*
X157599685Y-58157222D01*
X157652489Y-58111467D01*
X157704259Y-58100261D01*
X214526182Y-58219739D01*
G37*
%TD.AperFunction*%
%TD*%
%TA.AperFunction,Conductor*%
%TO.N,GND*%
G36*
X206176133Y-59149390D02*
G01*
X206222030Y-59202071D01*
X206226414Y-59212926D01*
X206237685Y-59245136D01*
X206274210Y-59349521D01*
X206341375Y-59456413D01*
X206370184Y-59502262D01*
X206497738Y-59629816D01*
X206577431Y-59679891D01*
X206623722Y-59732225D01*
X206635443Y-59782905D01*
X206670170Y-61958888D01*
X206651558Y-62026233D01*
X206605614Y-62069699D01*
X206427880Y-62166750D01*
X206427878Y-62166751D01*
X206201383Y-62336302D01*
X206201365Y-62336318D01*
X206001318Y-62536365D01*
X206001302Y-62536383D01*
X205831751Y-62762878D01*
X205831746Y-62762886D01*
X205696154Y-63011204D01*
X205696152Y-63011208D01*
X205597273Y-63276315D01*
X205537133Y-63552773D01*
X205537132Y-63552780D01*
X205516947Y-63834998D01*
X205516947Y-63835001D01*
X205537132Y-64117219D01*
X205537133Y-64117226D01*
X205597273Y-64393684D01*
X205597275Y-64393691D01*
X205658666Y-64558288D01*
X205696152Y-64658791D01*
X205696154Y-64658795D01*
X205831746Y-64907113D01*
X205831751Y-64907121D01*
X206001302Y-65133616D01*
X206001318Y-65133634D01*
X206201365Y-65333681D01*
X206201383Y-65333697D01*
X206427878Y-65503248D01*
X206427886Y-65503253D01*
X206665958Y-65633250D01*
X206715363Y-65682655D01*
X206730515Y-65740103D01*
X206742499Y-66491000D01*
X207255640Y-67298051D01*
X207275000Y-67364583D01*
X207275000Y-69671165D01*
X207255315Y-69738204D01*
X207202511Y-69783959D01*
X207134816Y-69794104D01*
X207061862Y-69784500D01*
X206548136Y-69784500D01*
X206430746Y-69799953D01*
X206430737Y-69799956D01*
X206284660Y-69860463D01*
X206159218Y-69956718D01*
X206062963Y-70082160D01*
X206002456Y-70228237D01*
X206002455Y-70228239D01*
X205987001Y-70345629D01*
X205987000Y-70345645D01*
X205987000Y-70451899D01*
X205967315Y-70518938D01*
X205950681Y-70539580D01*
X205773775Y-70716487D01*
X205668489Y-70821772D01*
X205668483Y-70821781D01*
X205657045Y-70841591D01*
X205606477Y-70889805D01*
X205562262Y-70902946D01*
X205493202Y-70910001D01*
X205493200Y-70910001D01*
X205326668Y-70965185D01*
X205326663Y-70965187D01*
X205177342Y-71057289D01*
X205053289Y-71181342D01*
X204961187Y-71330663D01*
X204961185Y-71330668D01*
X204947665Y-71371470D01*
X204906001Y-71497203D01*
X204906001Y-71497204D01*
X204906000Y-71497204D01*
X204895500Y-71599983D01*
X204895500Y-72375001D01*
X204895501Y-72375019D01*
X204906000Y-72477796D01*
X204906001Y-72477799D01*
X204961185Y-72644331D01*
X204961186Y-72644334D01*
X205053288Y-72793656D01*
X205177344Y-72917712D01*
X205326666Y-73009814D01*
X205493203Y-73064999D01*
X205595991Y-73075500D01*
X206646008Y-73075499D01*
X206646016Y-73075498D01*
X206646019Y-73075498D01*
X206702302Y-73069748D01*
X206748797Y-73064999D01*
X206915334Y-73009814D01*
X207064656Y-72917712D01*
X207188712Y-72793656D01*
X207207746Y-72762795D01*
X207259691Y-72716071D01*
X207328654Y-72704847D01*
X207392736Y-72732689D01*
X207431594Y-72790756D01*
X207435758Y-72847289D01*
X207374722Y-73232660D01*
X207354422Y-73619999D01*
X207354422Y-73620000D01*
X207374722Y-74007339D01*
X207435397Y-74390427D01*
X207435397Y-74390429D01*
X207535788Y-74765094D01*
X207674787Y-75127197D01*
X207850877Y-75472793D01*
X208062122Y-75798082D01*
X208278401Y-76065164D01*
X208306219Y-76099516D01*
X208580484Y-76373781D01*
X208748375Y-76509737D01*
X208881917Y-76617877D01*
X208892781Y-76624932D01*
X209207211Y-76829125D01*
X209552806Y-77005214D01*
X209914913Y-77144214D01*
X210068834Y-77185456D01*
X210128492Y-77221820D01*
X210159021Y-77284667D01*
X210160737Y-77305711D01*
X210114322Y-89273459D01*
X210094378Y-89340422D01*
X210041397Y-89385971D01*
X209972200Y-89395646D01*
X209951319Y-89390684D01*
X209937096Y-89385971D01*
X209786297Y-89336001D01*
X209786295Y-89336000D01*
X209683510Y-89325500D01*
X208908498Y-89325500D01*
X208908480Y-89325501D01*
X208805703Y-89336000D01*
X208805700Y-89336001D01*
X208639168Y-89391185D01*
X208639163Y-89391187D01*
X208489842Y-89483289D01*
X208365789Y-89607342D01*
X208273687Y-89756663D01*
X208273686Y-89756666D01*
X208218501Y-89923203D01*
X208218501Y-89923204D01*
X208218500Y-89923204D01*
X208208000Y-90025983D01*
X208208000Y-91076001D01*
X208208001Y-91076019D01*
X208218500Y-91178796D01*
X208218501Y-91178799D01*
X208273685Y-91345331D01*
X208273687Y-91345336D01*
X208303972Y-91394435D01*
X208365788Y-91494656D01*
X208489844Y-91618712D01*
X208639166Y-91710814D01*
X208680745Y-91724591D01*
X208738189Y-91764363D01*
X208761515Y-91810202D01*
X208769036Y-91838271D01*
X208769037Y-91838274D01*
X208789387Y-91873520D01*
X208806000Y-91935520D01*
X208806000Y-92087362D01*
X208821453Y-92204753D01*
X208821456Y-92204762D01*
X208881964Y-92350841D01*
X208978218Y-92476282D01*
X209103659Y-92572536D01*
X209249738Y-92633044D01*
X209367139Y-92648500D01*
X209880860Y-92648499D01*
X209960611Y-92638000D01*
X210029645Y-92648766D01*
X210081901Y-92695146D01*
X210100794Y-92761420D01*
X210060477Y-103156958D01*
X210040533Y-103223921D01*
X209987552Y-103269470D01*
X209936959Y-103280476D01*
X199864263Y-103319518D01*
X199797147Y-103300093D01*
X199751188Y-103247467D01*
X199739782Y-103195739D01*
X199725300Y-94911999D01*
X199743760Y-94846690D01*
X199822314Y-94719334D01*
X199877499Y-94552797D01*
X199888000Y-94450009D01*
X199887999Y-92149992D01*
X199877499Y-92047203D01*
X199822314Y-91880666D01*
X199730212Y-91731344D01*
X199606156Y-91607288D01*
X199456834Y-91515186D01*
X199456833Y-91515185D01*
X199454773Y-91513915D01*
X199408049Y-91461967D01*
X199395871Y-91408152D01*
X199398471Y-90000000D01*
X199400000Y-90000000D01*
X199400000Y-89172018D01*
X199415000Y-81048500D01*
X196392606Y-81048500D01*
X196327510Y-81030039D01*
X196181840Y-80940189D01*
X196181835Y-80940187D01*
X196181834Y-80940186D01*
X196015297Y-80885001D01*
X196015295Y-80885000D01*
X195912510Y-80874500D01*
X195137498Y-80874500D01*
X195137480Y-80874501D01*
X195034703Y-80885000D01*
X195034700Y-80885001D01*
X194868168Y-80940185D01*
X194868159Y-80940189D01*
X194722490Y-81030039D01*
X194657394Y-81048500D01*
X193915000Y-81048500D01*
X193876117Y-82778775D01*
X193854931Y-82845355D01*
X193839829Y-82863670D01*
X193275000Y-83428499D01*
X193275000Y-85627153D01*
X193268042Y-85668108D01*
X193214631Y-85820745D01*
X193214630Y-85820750D01*
X193194435Y-85999996D01*
X193194435Y-86000003D01*
X193214630Y-86179249D01*
X193214633Y-86179262D01*
X193268041Y-86331890D01*
X193275000Y-86372845D01*
X193275000Y-88028500D01*
X193688000Y-88028500D01*
X193755039Y-88048185D01*
X193800794Y-88100989D01*
X193812000Y-88152500D01*
X193812000Y-89450001D01*
X193812001Y-89450018D01*
X193822500Y-89552796D01*
X193822501Y-89552799D01*
X193877685Y-89719331D01*
X193877687Y-89719336D01*
X193900712Y-89756666D01*
X193969788Y-89868656D01*
X194093844Y-89992712D01*
X194243166Y-90084814D01*
X194409703Y-90139999D01*
X194512491Y-90150500D01*
X194551000Y-90150499D01*
X194618037Y-90170182D01*
X194663793Y-90222985D01*
X194675000Y-90274499D01*
X194675000Y-91599770D01*
X194655315Y-91666809D01*
X194638681Y-91687451D01*
X194594789Y-91731342D01*
X194502687Y-91880663D01*
X194502686Y-91880666D01*
X194447501Y-92047203D01*
X194447501Y-92047204D01*
X194447500Y-92047204D01*
X194437000Y-92149983D01*
X194437000Y-94356836D01*
X194417315Y-94423875D01*
X194364511Y-94469630D01*
X194364312Y-94469721D01*
X192475000Y-95328499D01*
X192421898Y-96443628D01*
X192399047Y-96509655D01*
X192385720Y-96525410D01*
X192349792Y-96561338D01*
X192257687Y-96710663D01*
X192257685Y-96710668D01*
X192235013Y-96779089D01*
X192202501Y-96877203D01*
X192202501Y-96877204D01*
X192202500Y-96877204D01*
X192192000Y-96979983D01*
X192192000Y-97304500D01*
X192172315Y-97371539D01*
X192119511Y-97417294D01*
X192068000Y-97428500D01*
X190375000Y-97428500D01*
X185775000Y-103428499D01*
X185839716Y-131925280D01*
X185820183Y-131992364D01*
X185767483Y-132038239D01*
X185715280Y-132049561D01*
X181751520Y-132035632D01*
X181684550Y-132015712D01*
X181638981Y-131962748D01*
X181629281Y-131893555D01*
X181658529Y-131830101D01*
X181708619Y-131795453D01*
X181873790Y-131733848D01*
X182122119Y-131598250D01*
X182348624Y-131428691D01*
X182548691Y-131228624D01*
X182718250Y-131002119D01*
X182853848Y-130753790D01*
X182952725Y-130488691D01*
X183012868Y-130212218D01*
X183033053Y-129930000D01*
X183012868Y-129647782D01*
X182952725Y-129371309D01*
X182853848Y-129106210D01*
X182827404Y-129057782D01*
X182718253Y-128857886D01*
X182718248Y-128857878D01*
X182548697Y-128631383D01*
X182548681Y-128631365D01*
X182348634Y-128431318D01*
X182348616Y-128431302D01*
X182122121Y-128261751D01*
X182122113Y-128261746D01*
X181873795Y-128126154D01*
X181873791Y-128126152D01*
X181773288Y-128088666D01*
X181608691Y-128027275D01*
X181608687Y-128027274D01*
X181608684Y-128027273D01*
X181332226Y-127967133D01*
X181332219Y-127967132D01*
X181050001Y-127946947D01*
X181049999Y-127946947D01*
X180767780Y-127967132D01*
X180767773Y-127967133D01*
X180491315Y-128027273D01*
X180491310Y-128027274D01*
X180491309Y-128027275D01*
X180453503Y-128041376D01*
X180226208Y-128126152D01*
X180226204Y-128126154D01*
X179977886Y-128261746D01*
X179977878Y-128261751D01*
X179751383Y-128431302D01*
X179751365Y-128431318D01*
X179551318Y-128631365D01*
X179551302Y-128631383D01*
X179381751Y-128857878D01*
X179381746Y-128857886D01*
X179246154Y-129106204D01*
X179246152Y-129106208D01*
X179147273Y-129371315D01*
X179087133Y-129647773D01*
X179087132Y-129647780D01*
X179066947Y-129929998D01*
X179066947Y-129930001D01*
X179087132Y-130212219D01*
X179087133Y-130212226D01*
X179147273Y-130488684D01*
X179147275Y-130488691D01*
X179203197Y-130638624D01*
X179246152Y-130753791D01*
X179246154Y-130753795D01*
X179381746Y-131002113D01*
X179381751Y-131002121D01*
X179551302Y-131228616D01*
X179551318Y-131228634D01*
X179751365Y-131428681D01*
X179751383Y-131428697D01*
X179977878Y-131598248D01*
X179977886Y-131598253D01*
X180226204Y-131733845D01*
X180226208Y-131733847D01*
X180226210Y-131733848D01*
X180378026Y-131790472D01*
X180433958Y-131832342D01*
X180458375Y-131897807D01*
X180443523Y-131966080D01*
X180394118Y-132015485D01*
X180334255Y-132030652D01*
X166396191Y-131981673D01*
X166329221Y-131961753D01*
X166283652Y-131908789D01*
X166273952Y-131839596D01*
X166303200Y-131776142D01*
X166353291Y-131741493D01*
X166373790Y-131733848D01*
X166622119Y-131598250D01*
X166848624Y-131428691D01*
X167048691Y-131228624D01*
X167218250Y-131002119D01*
X167353848Y-130753790D01*
X167452725Y-130488691D01*
X167512868Y-130212218D01*
X167533053Y-129930000D01*
X167512868Y-129647782D01*
X167452725Y-129371309D01*
X167353848Y-129106210D01*
X167327404Y-129057782D01*
X167218253Y-128857886D01*
X167218248Y-128857878D01*
X167048697Y-128631383D01*
X167048681Y-128631365D01*
X166848634Y-128431318D01*
X166848616Y-128431302D01*
X166622121Y-128261751D01*
X166622113Y-128261746D01*
X166373795Y-128126154D01*
X166373791Y-128126152D01*
X166146497Y-128041376D01*
X166108691Y-128027275D01*
X166108689Y-128027274D01*
X166108685Y-128027273D01*
X166014473Y-128006778D01*
X165953150Y-127973293D01*
X165919666Y-127911969D01*
X165916833Y-127885721D01*
X165912464Y-122236593D01*
X165932097Y-122169540D01*
X165984865Y-122123744D01*
X166036463Y-122112499D01*
X166093860Y-122112499D01*
X166093863Y-122112499D01*
X166211253Y-122097046D01*
X166211257Y-122097044D01*
X166211262Y-122097044D01*
X166357341Y-122036536D01*
X166482782Y-121940282D01*
X166579036Y-121814841D01*
X166639544Y-121668762D01*
X166655000Y-121551361D01*
X166654999Y-121445098D01*
X166674683Y-121378060D01*
X166691313Y-121357423D01*
X166866419Y-121182318D01*
X166927742Y-121148833D01*
X166954100Y-121145999D01*
X167403002Y-121145999D01*
X167403008Y-121145999D01*
X167505797Y-121135499D01*
X167672334Y-121080314D01*
X167821656Y-120988212D01*
X167945712Y-120864156D01*
X168037814Y-120714834D01*
X168092999Y-120548297D01*
X168103500Y-120445509D01*
X168103499Y-119670492D01*
X168092999Y-119567703D01*
X168037814Y-119401166D01*
X167945712Y-119251844D01*
X167821656Y-119127788D01*
X167706191Y-119056569D01*
X167672336Y-119035687D01*
X167672331Y-119035685D01*
X167670862Y-119035198D01*
X167505797Y-118980501D01*
X167505795Y-118980500D01*
X167403010Y-118970000D01*
X166352998Y-118970000D01*
X166352980Y-118970001D01*
X166250203Y-118980500D01*
X166250200Y-118980501D01*
X166083668Y-119035685D01*
X166083659Y-119035690D01*
X166049808Y-119056569D01*
X165982415Y-119075009D01*
X165915752Y-119054086D01*
X165909187Y-119049375D01*
X164366702Y-117864420D01*
X164331758Y-117822379D01*
X164329122Y-117817206D01*
X164117877Y-117491917D01*
X163873784Y-117190488D01*
X163873781Y-117190484D01*
X163599516Y-116916219D01*
X163298084Y-116672124D01*
X163298082Y-116672122D01*
X162972793Y-116460877D01*
X162955224Y-116451925D01*
X162904428Y-116403950D01*
X162887522Y-116342234D01*
X162775000Y-98728500D01*
X162775000Y-98728499D01*
X161008982Y-96864369D01*
X160977166Y-96802164D01*
X160975000Y-96779089D01*
X160975000Y-92448952D01*
X160994685Y-92381913D01*
X161047489Y-92336158D01*
X161116647Y-92326214D01*
X161180203Y-92355239D01*
X161186681Y-92361271D01*
X162045057Y-93219647D01*
X162078542Y-93280970D01*
X162080596Y-93293443D01*
X162084630Y-93329249D01*
X162144210Y-93499521D01*
X162240184Y-93652262D01*
X162367738Y-93779816D01*
X162520478Y-93875789D01*
X162690745Y-93935368D01*
X162715280Y-93938132D01*
X162779693Y-93965195D01*
X162789081Y-93973671D01*
X167091263Y-98275855D01*
X167091267Y-98275858D01*
X167193710Y-98344309D01*
X167193711Y-98344309D01*
X167193715Y-98344312D01*
X167239272Y-98363182D01*
X167307548Y-98391463D01*
X167327597Y-98395451D01*
X167361196Y-98402134D01*
X167428392Y-98415501D01*
X167428394Y-98415501D01*
X167557721Y-98415501D01*
X167557741Y-98415500D01*
X176679548Y-98415500D01*
X176746587Y-98435185D01*
X176767229Y-98451819D01*
X177073787Y-98758378D01*
X177107272Y-98819701D01*
X177109326Y-98832174D01*
X177114630Y-98879249D01*
X177174210Y-99049521D01*
X177228101Y-99135288D01*
X177270184Y-99202262D01*
X177397738Y-99329816D01*
X177550478Y-99425789D01*
X177720745Y-99485368D01*
X177720750Y-99485369D01*
X177899996Y-99505565D01*
X177900000Y-99505565D01*
X177900004Y-99505565D01*
X178079249Y-99485369D01*
X178079252Y-99485368D01*
X178079255Y-99485368D01*
X178249522Y-99425789D01*
X178402262Y-99329816D01*
X178529816Y-99202262D01*
X178625789Y-99049522D01*
X178685368Y-98879255D01*
X178692078Y-98819701D01*
X178705565Y-98700003D01*
X178705565Y-98699996D01*
X178685369Y-98520750D01*
X178685368Y-98520745D01*
X178655429Y-98435185D01*
X178625789Y-98350478D01*
X178529816Y-98197738D01*
X178402262Y-98070184D01*
X178249521Y-97974210D01*
X178079249Y-97914630D01*
X178032174Y-97909326D01*
X177967760Y-97882259D01*
X177958378Y-97873787D01*
X177482928Y-97398338D01*
X177482925Y-97398334D01*
X177482925Y-97398335D01*
X177475859Y-97391269D01*
X177475858Y-97391267D01*
X177388733Y-97304142D01*
X177388729Y-97304139D01*
X177388728Y-97304138D01*
X177317910Y-97256819D01*
X177317909Y-97256818D01*
X177286290Y-97235690D01*
X177286287Y-97235688D01*
X177286286Y-97235688D01*
X177192444Y-97196818D01*
X177192441Y-97196816D01*
X177192440Y-97196816D01*
X177172455Y-97188538D01*
X177172453Y-97188537D01*
X177172452Y-97188537D01*
X177112029Y-97176518D01*
X177051610Y-97164500D01*
X177051607Y-97164500D01*
X177051606Y-97164500D01*
X173955668Y-97164500D01*
X173888629Y-97144815D01*
X173842874Y-97092011D01*
X173832930Y-97022853D01*
X173861955Y-96959297D01*
X173914713Y-96923458D01*
X173922455Y-96920749D01*
X174079522Y-96865789D01*
X174232262Y-96769816D01*
X174359816Y-96642262D01*
X174455789Y-96489522D01*
X174515368Y-96319255D01*
X174515937Y-96314211D01*
X174523269Y-96249132D01*
X174550335Y-96184717D01*
X174607485Y-96145308D01*
X174669334Y-96124814D01*
X174818656Y-96032712D01*
X174942712Y-95908656D01*
X175034814Y-95759334D01*
X175089999Y-95592797D01*
X175100500Y-95490009D01*
X175100499Y-94689992D01*
X175089999Y-94587203D01*
X175034814Y-94420666D01*
X174942712Y-94271344D01*
X174849049Y-94177681D01*
X174815564Y-94116358D01*
X174820548Y-94046666D01*
X174849049Y-94002319D01*
X174886173Y-93965195D01*
X174942712Y-93908656D01*
X175034814Y-93759334D01*
X175041057Y-93740493D01*
X175080829Y-93683051D01*
X175145345Y-93656228D01*
X175158762Y-93655500D01*
X176774447Y-93655500D01*
X176774450Y-93655500D01*
X176918275Y-93616962D01*
X177047225Y-93542513D01*
X177552752Y-93036984D01*
X177614073Y-93003501D01*
X177626546Y-93001447D01*
X177651211Y-92998668D01*
X177769249Y-92985369D01*
X177769252Y-92985368D01*
X177769255Y-92985368D01*
X177939522Y-92925789D01*
X178092262Y-92829816D01*
X178219816Y-92702262D01*
X178315789Y-92549522D01*
X178375368Y-92379255D01*
X178377016Y-92364630D01*
X178395565Y-92200003D01*
X178395565Y-92199996D01*
X178375369Y-92020750D01*
X178375368Y-92020745D01*
X178345546Y-91935520D01*
X178315789Y-91850478D01*
X178308121Y-91838275D01*
X178251075Y-91747487D01*
X178219816Y-91697738D01*
X178092262Y-91570184D01*
X178052435Y-91545159D01*
X177939523Y-91474211D01*
X177769254Y-91414631D01*
X177769249Y-91414630D01*
X177590004Y-91394435D01*
X177589996Y-91394435D01*
X177410750Y-91414630D01*
X177410745Y-91414631D01*
X177240476Y-91474211D01*
X177087737Y-91570184D01*
X176960184Y-91697737D01*
X176864211Y-91850476D01*
X176804631Y-92020745D01*
X176804630Y-92020749D01*
X176788552Y-92163450D01*
X176761485Y-92227864D01*
X176753014Y-92237247D01*
X176502079Y-92488182D01*
X176440759Y-92521666D01*
X176414400Y-92524500D01*
X175158762Y-92524500D01*
X175091723Y-92504815D01*
X175045968Y-92452011D01*
X175041059Y-92439514D01*
X175034814Y-92420666D01*
X174942712Y-92271344D01*
X174818656Y-92147288D01*
X174669334Y-92055186D01*
X174502797Y-92000001D01*
X174502795Y-92000000D01*
X174400010Y-91989500D01*
X173399998Y-91989500D01*
X173399980Y-91989501D01*
X173297203Y-92000000D01*
X173297200Y-92000001D01*
X173130668Y-92055185D01*
X173130663Y-92055187D01*
X172981342Y-92147289D01*
X172857289Y-92271342D01*
X172765187Y-92420663D01*
X172765185Y-92420668D01*
X172764011Y-92424211D01*
X172710001Y-92587203D01*
X172710001Y-92587204D01*
X172710000Y-92587204D01*
X172699500Y-92689983D01*
X172699500Y-93490001D01*
X172699501Y-93490019D01*
X172710000Y-93592796D01*
X172710001Y-93592799D01*
X172765185Y-93759331D01*
X172765187Y-93759336D01*
X172857289Y-93908657D01*
X172950951Y-94002319D01*
X172984436Y-94063642D01*
X172979452Y-94133334D01*
X172950951Y-94177681D01*
X172857289Y-94271342D01*
X172765187Y-94420663D01*
X172765185Y-94420668D01*
X172755460Y-94450016D01*
X172710001Y-94587203D01*
X172710001Y-94587204D01*
X172710000Y-94587204D01*
X172699500Y-94689983D01*
X172699500Y-95490001D01*
X172699501Y-95490019D01*
X172710000Y-95592796D01*
X172710001Y-95592799D01*
X172765185Y-95759331D01*
X172765187Y-95759336D01*
X172857289Y-95908657D01*
X172898836Y-95950204D01*
X172932321Y-96011527D01*
X172934375Y-96051767D01*
X172924435Y-96139995D01*
X172924435Y-96140003D01*
X172944630Y-96319249D01*
X172944631Y-96319254D01*
X173004211Y-96489523D01*
X173072207Y-96597737D01*
X173100184Y-96642262D01*
X173227738Y-96769816D01*
X173318080Y-96826582D01*
X173372450Y-96860745D01*
X173380478Y-96865789D01*
X173537545Y-96920749D01*
X173545287Y-96923458D01*
X173602063Y-96964180D01*
X173627810Y-97029133D01*
X173614354Y-97097694D01*
X173565967Y-97148097D01*
X173504332Y-97164500D01*
X171623646Y-97164500D01*
X171556607Y-97144815D01*
X171510852Y-97092011D01*
X171500426Y-97054384D01*
X171485369Y-96920749D01*
X171485368Y-96920745D01*
X171435800Y-96779089D01*
X171425789Y-96750478D01*
X171400773Y-96710666D01*
X171329815Y-96597737D01*
X171202262Y-96470184D01*
X171049523Y-96374211D01*
X170879254Y-96314631D01*
X170879249Y-96314630D01*
X170700004Y-96294435D01*
X170699996Y-96294435D01*
X170520750Y-96314630D01*
X170520745Y-96314631D01*
X170350476Y-96374211D01*
X170197737Y-96470184D01*
X170070184Y-96597737D01*
X169974211Y-96750476D01*
X169914631Y-96920745D01*
X169914630Y-96920749D01*
X169899574Y-97054384D01*
X169872508Y-97118797D01*
X169814913Y-97158353D01*
X169776354Y-97164500D01*
X169129565Y-97164500D01*
X169062526Y-97144815D01*
X169016771Y-97092011D01*
X169006946Y-97046851D01*
X169006345Y-97046919D01*
X169005682Y-97041041D01*
X169005565Y-97040500D01*
X169005565Y-97039996D01*
X168985369Y-96860750D01*
X168985368Y-96860745D01*
X168956795Y-96779089D01*
X168925789Y-96690478D01*
X168829816Y-96537738D01*
X168702262Y-96410184D01*
X168549523Y-96314211D01*
X168379254Y-96254631D01*
X168379249Y-96254630D01*
X168200004Y-96234435D01*
X168199996Y-96234435D01*
X168020750Y-96254630D01*
X168020745Y-96254631D01*
X167850476Y-96314211D01*
X167697737Y-96410184D01*
X167570182Y-96537739D01*
X167480091Y-96681118D01*
X167427757Y-96727408D01*
X167358703Y-96738056D01*
X167294855Y-96709681D01*
X167287417Y-96702826D01*
X163698751Y-93114160D01*
X163665266Y-93052837D01*
X163663212Y-93040362D01*
X163655369Y-92970749D01*
X163655368Y-92970745D01*
X163595788Y-92800476D01*
X163500462Y-92648766D01*
X163499816Y-92647738D01*
X163372262Y-92520184D01*
X163321330Y-92488181D01*
X163219521Y-92424210D01*
X163049249Y-92364630D01*
X162990903Y-92358056D01*
X162926489Y-92330989D01*
X162917107Y-92322517D01*
X161911819Y-91317229D01*
X161878334Y-91255906D01*
X161875500Y-91229548D01*
X161875500Y-90440222D01*
X173144435Y-90440222D01*
X173164630Y-90619468D01*
X173164631Y-90619473D01*
X173224211Y-90789742D01*
X173320184Y-90942481D01*
X173447738Y-91070035D01*
X173600478Y-91166008D01*
X173637033Y-91178799D01*
X173770745Y-91225587D01*
X173770750Y-91225588D01*
X173949996Y-91245784D01*
X173950000Y-91245784D01*
X173950004Y-91245784D01*
X174129249Y-91225588D01*
X174129252Y-91225587D01*
X174129255Y-91225587D01*
X174299522Y-91166008D01*
X174452262Y-91070035D01*
X174579816Y-90942481D01*
X174675789Y-90789741D01*
X174689694Y-90750003D01*
X180584435Y-90750003D01*
X180604630Y-90929249D01*
X180604631Y-90929254D01*
X180664211Y-91099523D01*
X180745912Y-91229548D01*
X180760184Y-91252262D01*
X180887738Y-91379816D01*
X180951242Y-91419718D01*
X181037966Y-91474211D01*
X181040478Y-91475789D01*
X181094397Y-91494656D01*
X181210745Y-91535368D01*
X181210750Y-91535369D01*
X181389996Y-91555565D01*
X181390000Y-91555565D01*
X181390004Y-91555565D01*
X181569249Y-91535369D01*
X181569252Y-91535368D01*
X181569255Y-91535368D01*
X181739522Y-91475789D01*
X181892262Y-91379816D01*
X182019816Y-91252262D01*
X182115789Y-91099522D01*
X182175368Y-90929255D01*
X182175369Y-90929249D01*
X182195565Y-90750003D01*
X182195565Y-90749996D01*
X182175369Y-90570750D01*
X182175368Y-90570745D01*
X182129695Y-90440219D01*
X182115789Y-90400478D01*
X182019816Y-90247738D01*
X181892262Y-90120184D01*
X181835968Y-90084812D01*
X181739523Y-90024211D01*
X181569254Y-89964631D01*
X181569249Y-89964630D01*
X181390004Y-89944435D01*
X181389996Y-89944435D01*
X181210750Y-89964630D01*
X181210745Y-89964631D01*
X181040476Y-90024211D01*
X180887737Y-90120184D01*
X180760184Y-90247737D01*
X180664211Y-90400476D01*
X180604631Y-90570745D01*
X180604630Y-90570750D01*
X180584435Y-90749996D01*
X180584435Y-90750003D01*
X174689694Y-90750003D01*
X174735368Y-90619474D01*
X174740858Y-90570750D01*
X174755565Y-90440222D01*
X174755565Y-90440215D01*
X174735369Y-90260969D01*
X174735368Y-90260964D01*
X174696715Y-90150500D01*
X174675789Y-90090697D01*
X174672092Y-90084814D01*
X174614221Y-89992712D01*
X174579816Y-89937957D01*
X174452262Y-89810403D01*
X174299523Y-89714430D01*
X174129254Y-89654850D01*
X174129249Y-89654849D01*
X173950004Y-89634654D01*
X173949996Y-89634654D01*
X173770750Y-89654849D01*
X173770745Y-89654850D01*
X173600476Y-89714430D01*
X173447737Y-89810403D01*
X173320184Y-89937956D01*
X173224211Y-90090695D01*
X173164631Y-90260964D01*
X173164630Y-90260969D01*
X173144435Y-90440215D01*
X173144435Y-90440222D01*
X161875500Y-90440222D01*
X161875500Y-83860451D01*
X161895185Y-83793412D01*
X161911814Y-83772775D01*
X162174586Y-83510003D01*
X170514435Y-83510003D01*
X170534630Y-83689249D01*
X170534631Y-83689254D01*
X170594211Y-83859523D01*
X170690184Y-84012262D01*
X170817738Y-84139816D01*
X170970478Y-84235789D01*
X171140745Y-84295368D01*
X171140750Y-84295369D01*
X171319996Y-84315565D01*
X171320000Y-84315565D01*
X171320004Y-84315565D01*
X171499249Y-84295369D01*
X171499252Y-84295368D01*
X171499255Y-84295368D01*
X171669522Y-84235789D01*
X171822262Y-84139816D01*
X171949816Y-84012262D01*
X172045789Y-83859522D01*
X172105368Y-83689255D01*
X172106975Y-83674991D01*
X172125565Y-83510003D01*
X172125565Y-83509996D01*
X172105369Y-83330750D01*
X172105368Y-83330745D01*
X172045788Y-83160476D01*
X171949815Y-83007737D01*
X171822262Y-82880184D01*
X171669523Y-82784211D01*
X171499254Y-82724631D01*
X171499249Y-82724630D01*
X171320004Y-82704435D01*
X171319996Y-82704435D01*
X171140750Y-82724630D01*
X171140745Y-82724631D01*
X170970476Y-82784211D01*
X170817737Y-82880184D01*
X170690184Y-83007737D01*
X170594211Y-83160476D01*
X170534631Y-83330745D01*
X170534630Y-83330750D01*
X170514435Y-83509996D01*
X170514435Y-83510003D01*
X162174586Y-83510003D01*
X166938598Y-78745990D01*
X166968848Y-78723774D01*
X167336206Y-78531824D01*
X167344043Y-78528428D01*
X167349515Y-78525792D01*
X167349516Y-78525790D01*
X167349522Y-78525789D01*
X167502262Y-78429816D01*
X167629816Y-78302262D01*
X167725789Y-78149522D01*
X167785368Y-77979255D01*
X167805565Y-77800000D01*
X167785368Y-77620745D01*
X167725789Y-77450478D01*
X167629816Y-77297738D01*
X167502262Y-77170184D01*
X167460928Y-77144212D01*
X167349523Y-77074211D01*
X167179254Y-77014631D01*
X167179249Y-77014630D01*
X167000004Y-76994435D01*
X166999996Y-76994435D01*
X166820750Y-77014630D01*
X166820742Y-77014632D01*
X166653103Y-77073291D01*
X166583324Y-77076852D01*
X166522697Y-77042123D01*
X166490470Y-76980129D01*
X166488154Y-76955151D01*
X166522003Y-73164155D01*
X166542284Y-73097298D01*
X166595495Y-73052016D01*
X166606984Y-73047563D01*
X166624334Y-73041814D01*
X166773656Y-72949712D01*
X166897712Y-72825656D01*
X166989814Y-72676334D01*
X167044999Y-72509797D01*
X167055500Y-72407009D01*
X167055499Y-71720003D01*
X170844435Y-71720003D01*
X170864630Y-71899249D01*
X170864631Y-71899254D01*
X170924211Y-72069523D01*
X171020184Y-72222262D01*
X171147738Y-72349816D01*
X171225928Y-72398946D01*
X171263792Y-72422738D01*
X171300478Y-72445789D01*
X171470745Y-72505368D01*
X171470750Y-72505369D01*
X171649996Y-72525565D01*
X171650000Y-72525565D01*
X171650004Y-72525565D01*
X171829249Y-72505369D01*
X171829252Y-72505368D01*
X171829255Y-72505368D01*
X171999522Y-72445789D01*
X172152262Y-72349816D01*
X172279816Y-72222262D01*
X172375789Y-72069522D01*
X172435368Y-71899255D01*
X172449451Y-71774267D01*
X172455565Y-71720003D01*
X172455565Y-71719996D01*
X172435369Y-71540750D01*
X172435368Y-71540745D01*
X172400786Y-71441916D01*
X172375789Y-71370478D01*
X172350773Y-71330666D01*
X172318105Y-71278675D01*
X172279816Y-71217738D01*
X172152262Y-71090184D01*
X172148250Y-71087663D01*
X171999523Y-70994211D01*
X171829254Y-70934631D01*
X171829249Y-70934630D01*
X171650004Y-70914435D01*
X171649996Y-70914435D01*
X171470750Y-70934630D01*
X171470745Y-70934631D01*
X171300476Y-70994211D01*
X171147737Y-71090184D01*
X171020184Y-71217737D01*
X170924211Y-71370476D01*
X170864631Y-71540745D01*
X170864630Y-71540750D01*
X170844435Y-71719996D01*
X170844435Y-71720003D01*
X167055499Y-71720003D01*
X167055499Y-71356992D01*
X167052809Y-71330663D01*
X167044999Y-71254203D01*
X167044998Y-71254200D01*
X167032915Y-71217737D01*
X166989814Y-71087666D01*
X166897712Y-70938344D01*
X166773656Y-70814288D01*
X166624334Y-70722186D01*
X166624332Y-70722185D01*
X166624330Y-70722184D01*
X166617789Y-70719134D01*
X166619007Y-70716521D01*
X166572361Y-70684195D01*
X166545566Y-70619668D01*
X166544850Y-70605229D01*
X166575000Y-67228500D01*
X165986802Y-66052105D01*
X165973834Y-66002131D01*
X165878085Y-63835001D01*
X190016947Y-63835001D01*
X190037132Y-64117219D01*
X190037133Y-64117226D01*
X190097273Y-64393684D01*
X190097275Y-64393691D01*
X190158666Y-64558288D01*
X190196152Y-64658791D01*
X190196154Y-64658795D01*
X190331746Y-64907113D01*
X190331751Y-64907121D01*
X190501302Y-65133616D01*
X190501318Y-65133634D01*
X190701365Y-65333681D01*
X190701383Y-65333697D01*
X190927878Y-65503248D01*
X190927886Y-65503253D01*
X191176204Y-65638845D01*
X191176208Y-65638847D01*
X191176210Y-65638848D01*
X191441309Y-65737725D01*
X191717782Y-65797868D01*
X191978259Y-65816498D01*
X191999999Y-65818053D01*
X192000000Y-65818053D01*
X192000001Y-65818053D01*
X192020186Y-65816609D01*
X192282218Y-65797868D01*
X192558691Y-65737725D01*
X192823790Y-65638848D01*
X193072119Y-65503250D01*
X193298624Y-65333691D01*
X193498691Y-65133624D01*
X193668250Y-64907119D01*
X193803848Y-64658790D01*
X193902725Y-64393691D01*
X193962868Y-64117218D01*
X193983053Y-63835000D01*
X193962868Y-63552782D01*
X193902725Y-63276309D01*
X193803848Y-63011210D01*
X193668250Y-62762881D01*
X193668248Y-62762878D01*
X193498697Y-62536383D01*
X193498681Y-62536365D01*
X193298634Y-62336318D01*
X193298616Y-62336302D01*
X193072121Y-62166751D01*
X193072113Y-62166746D01*
X192823795Y-62031154D01*
X192823791Y-62031152D01*
X192723288Y-61993666D01*
X192558691Y-61932275D01*
X192558687Y-61932274D01*
X192558684Y-61932273D01*
X192282226Y-61872133D01*
X192282219Y-61872132D01*
X192000001Y-61851947D01*
X191999999Y-61851947D01*
X191717780Y-61872132D01*
X191717773Y-61872133D01*
X191441315Y-61932273D01*
X191441310Y-61932274D01*
X191441309Y-61932275D01*
X191377213Y-61956181D01*
X191176208Y-62031152D01*
X191176204Y-62031154D01*
X190927886Y-62166746D01*
X190927878Y-62166751D01*
X190701383Y-62336302D01*
X190701365Y-62336318D01*
X190501318Y-62536365D01*
X190501302Y-62536383D01*
X190331751Y-62762878D01*
X190331746Y-62762886D01*
X190196154Y-63011204D01*
X190196152Y-63011208D01*
X190097273Y-63276315D01*
X190037133Y-63552773D01*
X190037132Y-63552780D01*
X190016947Y-63834998D01*
X190016947Y-63835001D01*
X165878085Y-63835001D01*
X165684628Y-59456413D01*
X165701333Y-59388575D01*
X165703464Y-59385051D01*
X165725789Y-59349522D01*
X165735745Y-59321068D01*
X165776466Y-59264292D01*
X165841418Y-59238544D01*
X165852424Y-59238023D01*
X167145669Y-59234549D01*
X167212756Y-59254053D01*
X167258653Y-59306734D01*
X167263038Y-59317592D01*
X167274211Y-59349523D01*
X167274212Y-59349524D01*
X167341375Y-59456413D01*
X167370184Y-59502262D01*
X167497738Y-59629816D01*
X167650478Y-59725789D01*
X167813706Y-59782905D01*
X167820745Y-59785368D01*
X167820750Y-59785369D01*
X167999996Y-59805565D01*
X168000000Y-59805565D01*
X168000004Y-59805565D01*
X168179249Y-59785369D01*
X168179252Y-59785368D01*
X168179255Y-59785368D01*
X168349522Y-59725789D01*
X168502262Y-59629816D01*
X168629816Y-59502262D01*
X168725789Y-59349522D01*
X168738567Y-59313003D01*
X168779287Y-59256227D01*
X168844240Y-59230478D01*
X168855250Y-59229957D01*
X170142850Y-59226498D01*
X170209938Y-59246002D01*
X170255835Y-59298683D01*
X170260220Y-59309541D01*
X170274209Y-59349520D01*
X170341375Y-59456413D01*
X170370184Y-59502262D01*
X170497738Y-59629816D01*
X170650478Y-59725789D01*
X170813706Y-59782905D01*
X170820745Y-59785368D01*
X170820750Y-59785369D01*
X170999996Y-59805565D01*
X171000000Y-59805565D01*
X171000004Y-59805565D01*
X171179249Y-59785369D01*
X171179252Y-59785368D01*
X171179255Y-59785368D01*
X171349522Y-59725789D01*
X171502262Y-59629816D01*
X171629816Y-59502262D01*
X171725789Y-59349522D01*
X171741390Y-59304936D01*
X171782109Y-59248161D01*
X171847061Y-59222412D01*
X171858076Y-59221891D01*
X173140033Y-59218447D01*
X173207121Y-59237951D01*
X173253018Y-59290632D01*
X173257403Y-59301490D01*
X173274210Y-59349520D01*
X173274210Y-59349522D01*
X173341375Y-59456413D01*
X173370184Y-59502262D01*
X173497738Y-59629816D01*
X173650478Y-59725789D01*
X173813706Y-59782905D01*
X173820745Y-59785368D01*
X173820750Y-59785369D01*
X173999996Y-59805565D01*
X174000000Y-59805565D01*
X174000004Y-59805565D01*
X174179249Y-59785369D01*
X174179252Y-59785368D01*
X174179255Y-59785368D01*
X174349522Y-59725789D01*
X174502262Y-59629816D01*
X174629816Y-59502262D01*
X174725789Y-59349522D01*
X174744212Y-59296869D01*
X174784933Y-59240094D01*
X174849885Y-59214346D01*
X174860904Y-59213824D01*
X176137214Y-59210396D01*
X176204305Y-59229901D01*
X176250202Y-59282582D01*
X176254587Y-59293441D01*
X176274210Y-59349520D01*
X176274212Y-59349524D01*
X176341375Y-59456413D01*
X176370184Y-59502262D01*
X176497738Y-59629816D01*
X176650478Y-59725789D01*
X176813706Y-59782905D01*
X176820745Y-59785368D01*
X176820750Y-59785369D01*
X176999996Y-59805565D01*
X177000000Y-59805565D01*
X177000004Y-59805565D01*
X177179249Y-59785369D01*
X177179252Y-59785368D01*
X177179255Y-59785368D01*
X177349522Y-59725789D01*
X177502262Y-59629816D01*
X177629816Y-59502262D01*
X177725789Y-59349522D01*
X177747035Y-59288802D01*
X177787755Y-59232029D01*
X177852707Y-59206280D01*
X177863730Y-59205758D01*
X179134396Y-59202345D01*
X179201487Y-59221850D01*
X179247384Y-59274531D01*
X179251769Y-59285389D01*
X179274211Y-59349522D01*
X179274212Y-59349524D01*
X179341375Y-59456413D01*
X179370184Y-59502262D01*
X179497738Y-59629816D01*
X179650478Y-59725789D01*
X179813706Y-59782905D01*
X179820745Y-59785368D01*
X179820750Y-59785369D01*
X179999996Y-59805565D01*
X180000000Y-59805565D01*
X180000004Y-59805565D01*
X180179249Y-59785369D01*
X180179252Y-59785368D01*
X180179255Y-59785368D01*
X180349522Y-59725789D01*
X180502262Y-59629816D01*
X180629816Y-59502262D01*
X180725789Y-59349522D01*
X180725791Y-59349518D01*
X180744212Y-59296871D01*
X180749857Y-59280738D01*
X180790578Y-59223962D01*
X180855530Y-59198214D01*
X180866557Y-59197692D01*
X182131579Y-59194294D01*
X182198670Y-59213799D01*
X182244567Y-59266480D01*
X182248952Y-59277338D01*
X182274211Y-59349523D01*
X182274212Y-59349524D01*
X182341375Y-59456413D01*
X182370184Y-59502262D01*
X182497738Y-59629816D01*
X182650478Y-59725789D01*
X182813706Y-59782905D01*
X182820745Y-59785368D01*
X182820750Y-59785369D01*
X182999996Y-59805565D01*
X183000000Y-59805565D01*
X183000004Y-59805565D01*
X183179249Y-59785369D01*
X183179252Y-59785368D01*
X183179255Y-59785368D01*
X183349522Y-59725789D01*
X183502262Y-59629816D01*
X183629816Y-59502262D01*
X183725789Y-59349522D01*
X183752680Y-59272669D01*
X183793400Y-59215895D01*
X183858352Y-59190147D01*
X183869361Y-59189626D01*
X185128765Y-59186243D01*
X185195853Y-59205747D01*
X185241750Y-59258428D01*
X185246136Y-59269288D01*
X185274210Y-59349521D01*
X185341375Y-59456413D01*
X185370184Y-59502262D01*
X185497738Y-59629816D01*
X185650478Y-59725789D01*
X185813706Y-59782905D01*
X185820745Y-59785368D01*
X185820750Y-59785369D01*
X185999996Y-59805565D01*
X186000000Y-59805565D01*
X186000004Y-59805565D01*
X186179249Y-59785369D01*
X186179252Y-59785368D01*
X186179255Y-59785368D01*
X186349522Y-59725789D01*
X186502262Y-59629816D01*
X186629816Y-59502262D01*
X186725789Y-59349522D01*
X186755503Y-59264602D01*
X186796221Y-59207830D01*
X186861174Y-59182081D01*
X186872187Y-59181560D01*
X188125948Y-59178192D01*
X188193036Y-59197696D01*
X188238933Y-59250377D01*
X188243317Y-59261232D01*
X188246136Y-59269288D01*
X188274210Y-59349521D01*
X188341375Y-59456413D01*
X188370184Y-59502262D01*
X188497738Y-59629816D01*
X188650478Y-59725789D01*
X188813706Y-59782905D01*
X188820745Y-59785368D01*
X188820750Y-59785369D01*
X188999996Y-59805565D01*
X189000000Y-59805565D01*
X189000004Y-59805565D01*
X189179249Y-59785369D01*
X189179252Y-59785368D01*
X189179255Y-59785368D01*
X189349522Y-59725789D01*
X189502262Y-59629816D01*
X189629816Y-59502262D01*
X189725789Y-59349522D01*
X189758325Y-59256536D01*
X189799046Y-59199762D01*
X189863999Y-59174014D01*
X189874993Y-59173493D01*
X191123130Y-59170141D01*
X191190218Y-59189645D01*
X191236115Y-59242326D01*
X191240500Y-59253185D01*
X191274209Y-59349519D01*
X191274211Y-59349522D01*
X191370184Y-59502262D01*
X191497738Y-59629816D01*
X191650478Y-59725789D01*
X191813706Y-59782905D01*
X191820745Y-59785368D01*
X191820750Y-59785369D01*
X191999996Y-59805565D01*
X192000000Y-59805565D01*
X192000004Y-59805565D01*
X192179249Y-59785369D01*
X192179252Y-59785368D01*
X192179255Y-59785368D01*
X192349522Y-59725789D01*
X192502262Y-59629816D01*
X192629816Y-59502262D01*
X192725789Y-59349522D01*
X192725791Y-59349518D01*
X192744212Y-59296871D01*
X192761148Y-59248471D01*
X192801868Y-59191696D01*
X192866821Y-59165948D01*
X192877819Y-59165427D01*
X194120310Y-59162090D01*
X194187402Y-59181595D01*
X194233299Y-59234276D01*
X194237683Y-59245131D01*
X194242336Y-59258428D01*
X194274210Y-59349521D01*
X194341375Y-59456413D01*
X194370184Y-59502262D01*
X194497738Y-59629816D01*
X194650478Y-59725789D01*
X194813706Y-59782905D01*
X194820745Y-59785368D01*
X194820750Y-59785369D01*
X194999996Y-59805565D01*
X195000000Y-59805565D01*
X195000004Y-59805565D01*
X195179249Y-59785369D01*
X195179252Y-59785368D01*
X195179255Y-59785368D01*
X195349522Y-59725789D01*
X195502262Y-59629816D01*
X195629816Y-59502262D01*
X195725789Y-59349522D01*
X195763970Y-59240405D01*
X195804692Y-59183630D01*
X195869644Y-59157882D01*
X195880647Y-59157361D01*
X197117495Y-59154039D01*
X197184584Y-59173543D01*
X197230481Y-59226224D01*
X197234866Y-59237081D01*
X197242336Y-59258428D01*
X197274211Y-59349523D01*
X197341375Y-59456413D01*
X197370184Y-59502262D01*
X197497738Y-59629816D01*
X197650478Y-59725789D01*
X197813706Y-59782905D01*
X197820745Y-59785368D01*
X197820750Y-59785369D01*
X197999996Y-59805565D01*
X198000000Y-59805565D01*
X198000004Y-59805565D01*
X198179249Y-59785369D01*
X198179252Y-59785368D01*
X198179255Y-59785368D01*
X198349522Y-59725789D01*
X198502262Y-59629816D01*
X198629816Y-59502262D01*
X198725789Y-59349522D01*
X198766793Y-59232337D01*
X198807513Y-59175564D01*
X198872466Y-59149816D01*
X198883473Y-59149295D01*
X200114678Y-59145988D01*
X200181767Y-59165492D01*
X200227664Y-59218173D01*
X200232050Y-59229033D01*
X200274210Y-59349521D01*
X200341375Y-59456413D01*
X200370184Y-59502262D01*
X200497738Y-59629816D01*
X200650478Y-59725789D01*
X200813706Y-59782905D01*
X200820745Y-59785368D01*
X200820750Y-59785369D01*
X200999996Y-59805565D01*
X201000000Y-59805565D01*
X201000004Y-59805565D01*
X201179249Y-59785369D01*
X201179252Y-59785368D01*
X201179255Y-59785368D01*
X201349522Y-59725789D01*
X201502262Y-59629816D01*
X201629816Y-59502262D01*
X201725789Y-59349522D01*
X201769615Y-59224273D01*
X201810337Y-59167498D01*
X201875289Y-59141750D01*
X201886300Y-59141229D01*
X203111861Y-59137937D01*
X203178950Y-59157441D01*
X203224847Y-59210122D01*
X203229233Y-59220982D01*
X203274210Y-59349521D01*
X203341375Y-59456413D01*
X203370184Y-59502262D01*
X203497738Y-59629816D01*
X203650478Y-59725789D01*
X203813706Y-59782905D01*
X203820745Y-59785368D01*
X203820750Y-59785369D01*
X203999996Y-59805565D01*
X204000000Y-59805565D01*
X204000004Y-59805565D01*
X204179249Y-59785369D01*
X204179252Y-59785368D01*
X204179255Y-59785368D01*
X204349522Y-59725789D01*
X204502262Y-59629816D01*
X204629816Y-59502262D01*
X204725789Y-59349522D01*
X204772438Y-59216206D01*
X204813159Y-59159432D01*
X204878111Y-59133684D01*
X204889126Y-59133162D01*
X206109044Y-59129885D01*
X206176133Y-59149390D01*
G37*
%TD.AperFunction*%
%TD*%
%TA.AperFunction,NonConductor*%
G36*
X207827872Y-71205184D02*
G01*
X207849987Y-71223316D01*
X207993203Y-71371470D01*
X208025644Y-71433352D01*
X208019480Y-71502949D01*
X208008045Y-71525188D01*
X207850873Y-71767213D01*
X207674787Y-72112802D01*
X207586263Y-72343413D01*
X207543860Y-72398946D01*
X207478166Y-72422738D01*
X207410038Y-72407236D01*
X207361106Y-72357362D01*
X207346499Y-72298978D01*
X207346499Y-71599992D01*
X207335999Y-71497203D01*
X207286723Y-71348500D01*
X207284322Y-71278675D01*
X207320053Y-71218633D01*
X207382574Y-71187440D01*
X207404419Y-71185499D01*
X207760833Y-71185499D01*
X207827872Y-71205184D01*
G37*
%TD.AperFunction*%
%TA.AperFunction,Conductor*%
%TO.N,Net-(C1-Pad1)*%
G36*
X196417218Y-91929685D02*
G01*
X196462973Y-91982489D01*
X196474178Y-92034316D01*
X196471309Y-93150742D01*
X196466123Y-95167686D01*
X196446266Y-95234674D01*
X196393344Y-95280293D01*
X196341506Y-95291365D01*
X195087127Y-95285124D01*
X194978378Y-95296408D01*
X194926256Y-95307612D01*
X194822493Y-95342005D01*
X194701462Y-95419787D01*
X194701451Y-95419796D01*
X194648659Y-95465540D01*
X194554433Y-95574281D01*
X194554430Y-95574285D01*
X194494664Y-95705151D01*
X194474976Y-95772199D01*
X194454500Y-95914618D01*
X194454500Y-103176517D01*
X194465826Y-103282924D01*
X194465829Y-103282942D01*
X194476816Y-103333963D01*
X194510299Y-103435627D01*
X194549971Y-103497929D01*
X194569376Y-103564847D01*
X194550312Y-111057275D01*
X194530457Y-111124264D01*
X194477536Y-111169884D01*
X194427278Y-111180955D01*
X188253571Y-111229037D01*
X188186380Y-111209875D01*
X188140215Y-111157429D01*
X188128613Y-111106432D01*
X188128061Y-111057275D01*
X188075000Y-106328500D01*
X186410806Y-106328500D01*
X186343767Y-106308815D01*
X186298012Y-106256011D01*
X186286806Y-106204782D01*
X186285455Y-105610272D01*
X186280984Y-103641683D01*
X186300517Y-103574603D01*
X186306561Y-103565981D01*
X190587191Y-97982553D01*
X190643602Y-97941328D01*
X190685598Y-97934000D01*
X192067990Y-97934000D01*
X192068000Y-97934000D01*
X192175456Y-97922447D01*
X192226967Y-97911241D01*
X192271725Y-97896344D01*
X192329497Y-97877116D01*
X192329501Y-97877113D01*
X192329504Y-97877113D01*
X192450543Y-97799325D01*
X192503347Y-97753570D01*
X192597567Y-97644836D01*
X192657338Y-97513959D01*
X192677023Y-97446920D01*
X192677024Y-97446916D01*
X192697500Y-97304500D01*
X192697500Y-97012054D01*
X192698137Y-96999502D01*
X192698372Y-96997202D01*
X192704028Y-96970759D01*
X192714383Y-96939511D01*
X192726546Y-96913425D01*
X192743730Y-96885564D01*
X192758012Y-96866709D01*
X192771662Y-96851875D01*
X192784989Y-96836120D01*
X192810820Y-96802867D01*
X192826459Y-96772532D01*
X192876746Y-96674984D01*
X192876746Y-96674983D01*
X192876748Y-96674980D01*
X192899599Y-96608953D01*
X192926826Y-96467672D01*
X192961639Y-95736576D01*
X192984490Y-95670552D01*
X193034188Y-95629592D01*
X194573680Y-94929824D01*
X194574045Y-94929657D01*
X194574504Y-94929449D01*
X194695543Y-94851661D01*
X194748347Y-94805906D01*
X194842567Y-94697172D01*
X194902338Y-94566295D01*
X194922023Y-94499256D01*
X194922024Y-94499252D01*
X194942500Y-94356836D01*
X194942500Y-92182055D01*
X194943139Y-92169487D01*
X194943372Y-92167200D01*
X194949028Y-92140761D01*
X194949097Y-92140555D01*
X194959386Y-92109505D01*
X194971546Y-92083425D01*
X194987697Y-92057240D01*
X195000975Y-92039491D01*
X195032288Y-92004632D01*
X195048922Y-91983990D01*
X195065160Y-91961472D01*
X195120338Y-91918610D01*
X195165737Y-91910000D01*
X196350179Y-91910000D01*
X196417218Y-91929685D01*
G37*
%TD.AperFunction*%
%TD*%
%TA.AperFunction,Conductor*%
%TO.N,Net-(C14-Pad2)*%
G36*
X199141933Y-91906015D02*
G01*
X199155489Y-91915854D01*
X199189400Y-91944156D01*
X199278159Y-91998902D01*
X199300744Y-92016760D01*
X199320738Y-92036754D01*
X199338596Y-92059339D01*
X199353446Y-92083415D01*
X199365612Y-92109506D01*
X199375969Y-92140760D01*
X199381621Y-92167150D01*
X199381856Y-92169448D01*
X199382499Y-92182063D01*
X199382499Y-94417933D01*
X199381857Y-94430532D01*
X199381622Y-94432833D01*
X199375970Y-94459237D01*
X199365615Y-94490487D01*
X199353448Y-94516581D01*
X199313522Y-94581310D01*
X199272997Y-94673518D01*
X199264150Y-94693652D01*
X199257316Y-94709201D01*
X199238860Y-94774499D01*
X199238857Y-94774513D01*
X199219801Y-94912876D01*
X199219801Y-94912882D01*
X199219801Y-94912883D01*
X199226487Y-98737564D01*
X199234277Y-103193146D01*
X199214709Y-103260220D01*
X199161986Y-103306067D01*
X199109758Y-103317362D01*
X195083481Y-103300516D01*
X195016525Y-103280551D01*
X194970991Y-103227556D01*
X194960000Y-103176517D01*
X194960000Y-95914617D01*
X194979685Y-95847578D01*
X195032489Y-95801823D01*
X195084612Y-95790619D01*
X196960524Y-95799952D01*
X196969999Y-95800000D01*
X196969999Y-95799999D01*
X196970000Y-95800000D01*
X196979685Y-92032332D01*
X196999542Y-91965346D01*
X197052464Y-91919727D01*
X197102323Y-91908660D01*
X199074683Y-91887065D01*
X199141933Y-91906015D01*
G37*
%TD.AperFunction*%
%TD*%
%TA.AperFunction,Conductor*%
%TO.N,GND*%
G36*
X199343039Y-81119685D02*
G01*
X199388794Y-81172489D01*
X199400000Y-81224000D01*
X199400000Y-89171991D01*
X199400000Y-90000000D01*
X196324000Y-90000000D01*
X196256961Y-89980315D01*
X196211206Y-89927511D01*
X196200000Y-89876000D01*
X196200000Y-85417816D01*
X196219685Y-85350777D01*
X196258904Y-85312277D01*
X196331156Y-85267712D01*
X196455212Y-85143656D01*
X196547314Y-84994334D01*
X196602499Y-84827797D01*
X196613000Y-84725009D01*
X196612999Y-83674992D01*
X196602499Y-83572203D01*
X196547314Y-83405666D01*
X196455212Y-83256344D01*
X196436549Y-83237681D01*
X196403064Y-83176358D01*
X196408048Y-83106666D01*
X196436549Y-83062319D01*
X196455212Y-83043656D01*
X196547314Y-82894334D01*
X196602499Y-82727797D01*
X196613000Y-82625009D01*
X196612999Y-81574992D01*
X196602499Y-81472203D01*
X196547314Y-81305666D01*
X196537094Y-81289096D01*
X196518654Y-81221703D01*
X196539577Y-81155040D01*
X196593220Y-81110271D01*
X196642633Y-81100000D01*
X199276000Y-81100000D01*
X199343039Y-81119685D01*
G37*
%TD.AperFunction*%
%TD*%
%TA.AperFunction,Conductor*%
%TO.N,GNDH*%
G36*
X199532894Y-103729743D02*
G01*
X199656611Y-103785665D01*
X199690169Y-103795377D01*
X199723726Y-103805090D01*
X199732033Y-103806268D01*
X199732273Y-103806284D01*
X199866222Y-103825014D01*
X209938918Y-103785972D01*
X210044412Y-103774423D01*
X210059696Y-103771097D01*
X210008684Y-114050003D01*
X207616169Y-114056041D01*
X207549080Y-114036525D01*
X207503192Y-113983837D01*
X207491869Y-113933777D01*
X207490000Y-113800000D01*
X194880203Y-113800000D01*
X194813164Y-113780315D01*
X194767409Y-113727511D01*
X194757465Y-113658353D01*
X194760739Y-113642769D01*
X194776176Y-113587273D01*
X194776177Y-113587269D01*
X194794616Y-113444575D01*
X194786057Y-112845462D01*
X194785194Y-112822286D01*
X194784509Y-112810915D01*
X194782576Y-112787731D01*
X194747120Y-112648288D01*
X194720441Y-112583714D01*
X194647138Y-112459912D01*
X194647137Y-112459910D01*
X194608762Y-112412201D01*
X194563186Y-112355539D01*
X194536507Y-112290966D01*
X194535811Y-112277379D01*
X194537753Y-111768638D01*
X194557692Y-111701679D01*
X194610671Y-111656126D01*
X194622588Y-111651463D01*
X194626711Y-111650090D01*
X194686352Y-111630238D01*
X194807591Y-111552760D01*
X194860512Y-111507140D01*
X194860516Y-111507136D01*
X194955014Y-111398639D01*
X195015117Y-111267913D01*
X195034972Y-111200924D01*
X195055810Y-111058561D01*
X195073947Y-103930182D01*
X195093802Y-103863195D01*
X195146723Y-103817575D01*
X195198461Y-103806501D01*
X199107643Y-103822858D01*
X199216609Y-103811440D01*
X199268837Y-103800145D01*
X199372785Y-103765517D01*
X199414599Y-103738540D01*
X199481601Y-103718737D01*
X199532894Y-103729743D01*
G37*
%TD.AperFunction*%
%TD*%
%TA.AperFunction,Conductor*%
%TO.N,V_LOW*%
G36*
X195892985Y-81380636D02*
G01*
X195895303Y-81380872D01*
X195921731Y-81386525D01*
X195952991Y-81396884D01*
X195979078Y-81409049D01*
X196028600Y-81439594D01*
X196075325Y-81491542D01*
X196081210Y-81506129D01*
X196100970Y-81565761D01*
X196106621Y-81592150D01*
X196106856Y-81594448D01*
X196107499Y-81607063D01*
X196107499Y-82592933D01*
X196106856Y-82605542D01*
X196106621Y-82607841D01*
X196100970Y-82634235D01*
X196090614Y-82665488D01*
X196078446Y-82691583D01*
X196045436Y-82745099D01*
X196036451Y-82757805D01*
X196011301Y-82789014D01*
X195982801Y-82833360D01*
X195982796Y-82833369D01*
X195934420Y-82930012D01*
X195934416Y-82930023D01*
X195903837Y-83070595D01*
X195903836Y-83070607D01*
X195898852Y-83140297D01*
X195898852Y-83140300D01*
X195909116Y-83283810D01*
X195945438Y-83381193D01*
X195959398Y-83418619D01*
X195973225Y-83443941D01*
X195992883Y-83479942D01*
X196025446Y-83523442D01*
X196031714Y-83532650D01*
X196058490Y-83576061D01*
X196078446Y-83608414D01*
X196090612Y-83634506D01*
X196100969Y-83665760D01*
X196106621Y-83692150D01*
X196106856Y-83694448D01*
X196107499Y-83707063D01*
X196107499Y-84692933D01*
X196106856Y-84705542D01*
X196106621Y-84707841D01*
X196100970Y-84734236D01*
X196090613Y-84765491D01*
X196078446Y-84791583D01*
X196063596Y-84815659D01*
X196045738Y-84838244D01*
X196025744Y-84858238D01*
X196003169Y-84876090D01*
X195993540Y-84882030D01*
X195993531Y-84882036D01*
X195904783Y-84951543D01*
X195904779Y-84951546D01*
X195904775Y-84951550D01*
X195865571Y-84990035D01*
X195865563Y-84990044D01*
X195794434Y-85077477D01*
X195794432Y-85077481D01*
X195734663Y-85208353D01*
X195714976Y-85275398D01*
X195694500Y-85417817D01*
X195694500Y-89776000D01*
X195674815Y-89843039D01*
X195622011Y-89888794D01*
X195570500Y-89900000D01*
X195109424Y-89900000D01*
X195042385Y-89880315D01*
X195015713Y-89857205D01*
X195000061Y-89839142D01*
X194891326Y-89744925D01*
X194891325Y-89744924D01*
X194760450Y-89685158D01*
X194760445Y-89685156D01*
X194724113Y-89674488D01*
X194693410Y-89665474D01*
X194693403Y-89665472D01*
X194693401Y-89665471D01*
X194550991Y-89644999D01*
X194550987Y-89644999D01*
X194544564Y-89644999D01*
X194531951Y-89644356D01*
X194530711Y-89644229D01*
X194529651Y-89644121D01*
X194503262Y-89638470D01*
X194472007Y-89628113D01*
X194445915Y-89615946D01*
X194421839Y-89601096D01*
X194399254Y-89583238D01*
X194379263Y-89563247D01*
X194361406Y-89540664D01*
X194346551Y-89516581D01*
X194334383Y-89490486D01*
X194332470Y-89484714D01*
X194324027Y-89459233D01*
X194318373Y-89432806D01*
X194318138Y-89430503D01*
X194317500Y-89417936D01*
X194317500Y-88152510D01*
X194317500Y-88152500D01*
X194305947Y-88045044D01*
X194294741Y-87993533D01*
X194294637Y-87993222D01*
X194260616Y-87891002D01*
X194260613Y-87890996D01*
X194182828Y-87769962D01*
X194182825Y-87769957D01*
X194182820Y-87769951D01*
X194137076Y-87717159D01*
X194137072Y-87717156D01*
X194137070Y-87717153D01*
X194028336Y-87622933D01*
X194028333Y-87622931D01*
X194028331Y-87622930D01*
X193897459Y-87563161D01*
X193869563Y-87554970D01*
X193810785Y-87517195D01*
X193781762Y-87453639D01*
X193780500Y-87435994D01*
X193780500Y-86372856D01*
X193780500Y-86372845D01*
X193773357Y-86288165D01*
X193766398Y-86247210D01*
X193758849Y-86217949D01*
X193745177Y-86164944D01*
X193745174Y-86164937D01*
X193745173Y-86164931D01*
X193715189Y-86079246D01*
X193709011Y-86052173D01*
X193704697Y-86013881D01*
X193704696Y-85986127D01*
X193709012Y-85947817D01*
X193715186Y-85920764D01*
X193745175Y-85835065D01*
X193766401Y-85752776D01*
X193773359Y-85711821D01*
X193780500Y-85627153D01*
X193780500Y-84870862D01*
X193800185Y-84803823D01*
X193816819Y-84783181D01*
X193834509Y-84765491D01*
X193900000Y-84700000D01*
X193900000Y-83569745D01*
X193919685Y-83502706D01*
X193936319Y-83482064D01*
X194197265Y-83221118D01*
X194197271Y-83221112D01*
X194229840Y-83185262D01*
X194244942Y-83166947D01*
X194273936Y-83128136D01*
X194336632Y-82998634D01*
X194357693Y-82932447D01*
X194357817Y-82932061D01*
X194358157Y-82930023D01*
X194381489Y-82790132D01*
X194406544Y-81675213D01*
X194427730Y-81608634D01*
X194481549Y-81564077D01*
X194530513Y-81554000D01*
X194657389Y-81554000D01*
X194657394Y-81554000D01*
X194795313Y-81534821D01*
X194860409Y-81516360D01*
X194987866Y-81460278D01*
X195070913Y-81409053D01*
X195097005Y-81396886D01*
X195128259Y-81386529D01*
X195154688Y-81380873D01*
X195155757Y-81380764D01*
X195156987Y-81380639D01*
X195169560Y-81380000D01*
X195880444Y-81380000D01*
X195892985Y-81380636D01*
G37*
%TD.AperFunction*%
%TD*%
%TA.AperFunction,Conductor*%
%TO.N,Net-(C14-Pad2)*%
G36*
X193851005Y-112349691D02*
G01*
X193917938Y-112369725D01*
X193946973Y-112395966D01*
X194253245Y-112776738D01*
X194279924Y-112841312D01*
X194280609Y-112852683D01*
X194289168Y-113451796D01*
X194270443Y-113519110D01*
X194245754Y-113547822D01*
X193704796Y-114010255D01*
X193641047Y-114038853D01*
X193624223Y-114040000D01*
X189924400Y-114040000D01*
X189857361Y-114020315D01*
X189814988Y-113974353D01*
X189624588Y-113617352D01*
X189610000Y-113558999D01*
X189610000Y-112787296D01*
X189629685Y-112720257D01*
X189653631Y-112692867D01*
X190044977Y-112359806D01*
X190108787Y-112331348D01*
X190125987Y-112330240D01*
X193851005Y-112349691D01*
G37*
%TD.AperFunction*%
%TD*%
%TA.AperFunction,Conductor*%
%TO.N,V_HIGH*%
G36*
X166732707Y-77689248D02*
G01*
X166996184Y-77797436D01*
X167002536Y-77803748D01*
X167002563Y-77803815D01*
X167110751Y-78067292D01*
X167110724Y-78076247D01*
X167105346Y-78082106D01*
X166671740Y-78308673D01*
X166662821Y-78309467D01*
X166658049Y-78306576D01*
X166493423Y-78141950D01*
X166489996Y-78133677D01*
X166491324Y-78128264D01*
X166717894Y-77694651D01*
X166724762Y-77688907D01*
X166732707Y-77689248D01*
G37*
%TD.AperFunction*%
%TD*%
%TA.AperFunction,Conductor*%
%TO.N,Net-(IC1-ISNS)*%
G36*
X173795619Y-95543427D02*
G01*
X173798066Y-95547012D01*
X174002398Y-96014296D01*
X174002573Y-96023250D01*
X173996366Y-96029704D01*
X173996189Y-96029780D01*
X173734511Y-96139115D01*
X173725556Y-96139142D01*
X173725489Y-96139115D01*
X173463810Y-96029780D01*
X173457498Y-96023428D01*
X173457525Y-96014473D01*
X173457553Y-96014405D01*
X173661934Y-95547012D01*
X173668388Y-95540805D01*
X173672654Y-95540000D01*
X173787346Y-95540000D01*
X173795619Y-95543427D01*
G37*
%TD.AperFunction*%
%TD*%
M02*
