%TF.GenerationSoftware,KiCad,Pcbnew,8.0.1*%
%TF.CreationDate,2024-07-03T15:52:00+02:00*%
%TF.ProjectId,SEPIC-A,53455049-432d-4412-9e6b-696361645f70,rev?*%
%TF.SameCoordinates,Original*%
%TF.FileFunction,Legend,Top*%
%TF.FilePolarity,Positive*%
%FSLAX46Y46*%
G04 Gerber Fmt 4.6, Leading zero omitted, Abs format (unit mm)*
G04 Created by KiCad (PCBNEW 8.0.1) date 2024-07-03 15:52:00*
%MOMM*%
%LPD*%
G01*
G04 APERTURE LIST*
%ADD10C,0.100000*%
%ADD11C,0.600000*%
%ADD12C,0.254000*%
%ADD13C,0.120000*%
%ADD14C,0.200000*%
G04 APERTURE END LIST*
D10*
X157210000Y-57650000D02*
X214870000Y-57650000D01*
X214870000Y-135680000D01*
X157210000Y-135680000D01*
X157210000Y-57650000D01*
X205212419Y-98996115D02*
X204212419Y-98996115D01*
X205212419Y-98424687D02*
X204640990Y-98853258D01*
X204212419Y-98424687D02*
X204783847Y-98996115D01*
X205212419Y-97567544D02*
X204688609Y-97567544D01*
X204688609Y-97567544D02*
X204593371Y-97615163D01*
X204593371Y-97615163D02*
X204545752Y-97710401D01*
X204545752Y-97710401D02*
X204545752Y-97900877D01*
X204545752Y-97900877D02*
X204593371Y-97996115D01*
X205164800Y-97567544D02*
X205212419Y-97662782D01*
X205212419Y-97662782D02*
X205212419Y-97900877D01*
X205212419Y-97900877D02*
X205164800Y-97996115D01*
X205164800Y-97996115D02*
X205069561Y-98043734D01*
X205069561Y-98043734D02*
X204974323Y-98043734D01*
X204974323Y-98043734D02*
X204879085Y-97996115D01*
X204879085Y-97996115D02*
X204831466Y-97900877D01*
X204831466Y-97900877D02*
X204831466Y-97662782D01*
X204831466Y-97662782D02*
X204783847Y-97567544D01*
X205212419Y-97091353D02*
X204545752Y-97091353D01*
X204736228Y-97091353D02*
X204640990Y-97043734D01*
X204640990Y-97043734D02*
X204593371Y-96996115D01*
X204593371Y-96996115D02*
X204545752Y-96900877D01*
X204545752Y-96900877D02*
X204545752Y-96805639D01*
X205212419Y-96043734D02*
X204212419Y-96043734D01*
X205164800Y-96043734D02*
X205212419Y-96138972D01*
X205212419Y-96138972D02*
X205212419Y-96329448D01*
X205212419Y-96329448D02*
X205164800Y-96424686D01*
X205164800Y-96424686D02*
X205117180Y-96472305D01*
X205117180Y-96472305D02*
X205021942Y-96519924D01*
X205021942Y-96519924D02*
X204736228Y-96519924D01*
X204736228Y-96519924D02*
X204640990Y-96472305D01*
X204640990Y-96472305D02*
X204593371Y-96424686D01*
X204593371Y-96424686D02*
X204545752Y-96329448D01*
X204545752Y-96329448D02*
X204545752Y-96138972D01*
X204545752Y-96138972D02*
X204593371Y-96043734D01*
X205212419Y-95424686D02*
X205164800Y-95519924D01*
X205164800Y-95519924D02*
X205117180Y-95567543D01*
X205117180Y-95567543D02*
X205021942Y-95615162D01*
X205021942Y-95615162D02*
X204736228Y-95615162D01*
X204736228Y-95615162D02*
X204640990Y-95567543D01*
X204640990Y-95567543D02*
X204593371Y-95519924D01*
X204593371Y-95519924D02*
X204545752Y-95424686D01*
X204545752Y-95424686D02*
X204545752Y-95281829D01*
X204545752Y-95281829D02*
X204593371Y-95186591D01*
X204593371Y-95186591D02*
X204640990Y-95138972D01*
X204640990Y-95138972D02*
X204736228Y-95091353D01*
X204736228Y-95091353D02*
X205021942Y-95091353D01*
X205021942Y-95091353D02*
X205117180Y-95138972D01*
X205117180Y-95138972D02*
X205164800Y-95186591D01*
X205164800Y-95186591D02*
X205212419Y-95281829D01*
X205212419Y-95281829D02*
X205212419Y-95424686D01*
X205164800Y-94710400D02*
X205212419Y-94615162D01*
X205212419Y-94615162D02*
X205212419Y-94424686D01*
X205212419Y-94424686D02*
X205164800Y-94329448D01*
X205164800Y-94329448D02*
X205069561Y-94281829D01*
X205069561Y-94281829D02*
X205021942Y-94281829D01*
X205021942Y-94281829D02*
X204926704Y-94329448D01*
X204926704Y-94329448D02*
X204879085Y-94424686D01*
X204879085Y-94424686D02*
X204879085Y-94567543D01*
X204879085Y-94567543D02*
X204831466Y-94662781D01*
X204831466Y-94662781D02*
X204736228Y-94710400D01*
X204736228Y-94710400D02*
X204688609Y-94710400D01*
X204688609Y-94710400D02*
X204593371Y-94662781D01*
X204593371Y-94662781D02*
X204545752Y-94567543D01*
X204545752Y-94567543D02*
X204545752Y-94424686D01*
X204545752Y-94424686D02*
X204593371Y-94329448D01*
X205212419Y-93091352D02*
X204212419Y-93091352D01*
X204212419Y-93091352D02*
X204926704Y-92758019D01*
X204926704Y-92758019D02*
X204212419Y-92424686D01*
X204212419Y-92424686D02*
X205212419Y-92424686D01*
X205212419Y-91948495D02*
X204545752Y-91948495D01*
X204212419Y-91948495D02*
X204260038Y-91996114D01*
X204260038Y-91996114D02*
X204307657Y-91948495D01*
X204307657Y-91948495D02*
X204260038Y-91900876D01*
X204260038Y-91900876D02*
X204212419Y-91948495D01*
X204212419Y-91948495D02*
X204307657Y-91948495D01*
X205212419Y-91329448D02*
X205164800Y-91424686D01*
X205164800Y-91424686D02*
X205069561Y-91472305D01*
X205069561Y-91472305D02*
X204212419Y-91472305D01*
X205212419Y-90519924D02*
X204688609Y-90519924D01*
X204688609Y-90519924D02*
X204593371Y-90567543D01*
X204593371Y-90567543D02*
X204545752Y-90662781D01*
X204545752Y-90662781D02*
X204545752Y-90853257D01*
X204545752Y-90853257D02*
X204593371Y-90948495D01*
X205164800Y-90519924D02*
X205212419Y-90615162D01*
X205212419Y-90615162D02*
X205212419Y-90853257D01*
X205212419Y-90853257D02*
X205164800Y-90948495D01*
X205164800Y-90948495D02*
X205069561Y-90996114D01*
X205069561Y-90996114D02*
X204974323Y-90996114D01*
X204974323Y-90996114D02*
X204879085Y-90948495D01*
X204879085Y-90948495D02*
X204831466Y-90853257D01*
X204831466Y-90853257D02*
X204831466Y-90615162D01*
X204831466Y-90615162D02*
X204783847Y-90519924D01*
X204164800Y-90662781D02*
X204307657Y-90805638D01*
X204545752Y-90043733D02*
X205212419Y-90043733D01*
X204640990Y-90043733D02*
X204593371Y-89996114D01*
X204593371Y-89996114D02*
X204545752Y-89900876D01*
X204545752Y-89900876D02*
X204545752Y-89758019D01*
X204545752Y-89758019D02*
X204593371Y-89662781D01*
X204593371Y-89662781D02*
X204688609Y-89615162D01*
X204688609Y-89615162D02*
X205212419Y-89615162D01*
X203522419Y-98424687D02*
X203046228Y-98758020D01*
X203522419Y-98996115D02*
X202522419Y-98996115D01*
X202522419Y-98996115D02*
X202522419Y-98615163D01*
X202522419Y-98615163D02*
X202570038Y-98519925D01*
X202570038Y-98519925D02*
X202617657Y-98472306D01*
X202617657Y-98472306D02*
X202712895Y-98424687D01*
X202712895Y-98424687D02*
X202855752Y-98424687D01*
X202855752Y-98424687D02*
X202950990Y-98472306D01*
X202950990Y-98472306D02*
X202998609Y-98519925D01*
X202998609Y-98519925D02*
X203046228Y-98615163D01*
X203046228Y-98615163D02*
X203046228Y-98996115D01*
X203522419Y-97853258D02*
X203474800Y-97948496D01*
X203474800Y-97948496D02*
X203427180Y-97996115D01*
X203427180Y-97996115D02*
X203331942Y-98043734D01*
X203331942Y-98043734D02*
X203046228Y-98043734D01*
X203046228Y-98043734D02*
X202950990Y-97996115D01*
X202950990Y-97996115D02*
X202903371Y-97948496D01*
X202903371Y-97948496D02*
X202855752Y-97853258D01*
X202855752Y-97853258D02*
X202855752Y-97710401D01*
X202855752Y-97710401D02*
X202903371Y-97615163D01*
X202903371Y-97615163D02*
X202950990Y-97567544D01*
X202950990Y-97567544D02*
X203046228Y-97519925D01*
X203046228Y-97519925D02*
X203331942Y-97519925D01*
X203331942Y-97519925D02*
X203427180Y-97567544D01*
X203427180Y-97567544D02*
X203474800Y-97615163D01*
X203474800Y-97615163D02*
X203522419Y-97710401D01*
X203522419Y-97710401D02*
X203522419Y-97853258D01*
X203522419Y-97091353D02*
X202522419Y-97091353D01*
X202903371Y-97091353D02*
X202855752Y-96996115D01*
X202855752Y-96996115D02*
X202855752Y-96805639D01*
X202855752Y-96805639D02*
X202903371Y-96710401D01*
X202903371Y-96710401D02*
X202950990Y-96662782D01*
X202950990Y-96662782D02*
X203046228Y-96615163D01*
X203046228Y-96615163D02*
X203331942Y-96615163D01*
X203331942Y-96615163D02*
X203427180Y-96662782D01*
X203427180Y-96662782D02*
X203474800Y-96710401D01*
X203474800Y-96710401D02*
X203522419Y-96805639D01*
X203522419Y-96805639D02*
X203522419Y-96996115D01*
X203522419Y-96996115D02*
X203474800Y-97091353D01*
X203474800Y-95805639D02*
X203522419Y-95900877D01*
X203522419Y-95900877D02*
X203522419Y-96091353D01*
X203522419Y-96091353D02*
X203474800Y-96186591D01*
X203474800Y-96186591D02*
X203379561Y-96234210D01*
X203379561Y-96234210D02*
X202998609Y-96234210D01*
X202998609Y-96234210D02*
X202903371Y-96186591D01*
X202903371Y-96186591D02*
X202855752Y-96091353D01*
X202855752Y-96091353D02*
X202855752Y-95900877D01*
X202855752Y-95900877D02*
X202903371Y-95805639D01*
X202903371Y-95805639D02*
X202998609Y-95758020D01*
X202998609Y-95758020D02*
X203093847Y-95758020D01*
X203093847Y-95758020D02*
X203189085Y-96234210D01*
X203522419Y-95329448D02*
X202855752Y-95329448D01*
X203046228Y-95329448D02*
X202950990Y-95281829D01*
X202950990Y-95281829D02*
X202903371Y-95234210D01*
X202903371Y-95234210D02*
X202855752Y-95138972D01*
X202855752Y-95138972D02*
X202855752Y-95043734D01*
X202855752Y-94853257D02*
X202855752Y-94472305D01*
X202522419Y-94710400D02*
X203379561Y-94710400D01*
X203379561Y-94710400D02*
X203474800Y-94662781D01*
X203474800Y-94662781D02*
X203522419Y-94567543D01*
X203522419Y-94567543D02*
X203522419Y-94472305D01*
X202998609Y-93043733D02*
X203046228Y-92900876D01*
X203046228Y-92900876D02*
X203093847Y-92853257D01*
X203093847Y-92853257D02*
X203189085Y-92805638D01*
X203189085Y-92805638D02*
X203331942Y-92805638D01*
X203331942Y-92805638D02*
X203427180Y-92853257D01*
X203427180Y-92853257D02*
X203474800Y-92900876D01*
X203474800Y-92900876D02*
X203522419Y-92996114D01*
X203522419Y-92996114D02*
X203522419Y-93377066D01*
X203522419Y-93377066D02*
X202522419Y-93377066D01*
X202522419Y-93377066D02*
X202522419Y-93043733D01*
X202522419Y-93043733D02*
X202570038Y-92948495D01*
X202570038Y-92948495D02*
X202617657Y-92900876D01*
X202617657Y-92900876D02*
X202712895Y-92853257D01*
X202712895Y-92853257D02*
X202808133Y-92853257D01*
X202808133Y-92853257D02*
X202903371Y-92900876D01*
X202903371Y-92900876D02*
X202950990Y-92948495D01*
X202950990Y-92948495D02*
X202998609Y-93043733D01*
X202998609Y-93043733D02*
X202998609Y-93377066D01*
X203522419Y-92234209D02*
X203474800Y-92329447D01*
X203474800Y-92329447D02*
X203427180Y-92377066D01*
X203427180Y-92377066D02*
X203331942Y-92424685D01*
X203331942Y-92424685D02*
X203046228Y-92424685D01*
X203046228Y-92424685D02*
X202950990Y-92377066D01*
X202950990Y-92377066D02*
X202903371Y-92329447D01*
X202903371Y-92329447D02*
X202855752Y-92234209D01*
X202855752Y-92234209D02*
X202855752Y-92091352D01*
X202855752Y-92091352D02*
X202903371Y-91996114D01*
X202903371Y-91996114D02*
X202950990Y-91948495D01*
X202950990Y-91948495D02*
X203046228Y-91900876D01*
X203046228Y-91900876D02*
X203331942Y-91900876D01*
X203331942Y-91900876D02*
X203427180Y-91948495D01*
X203427180Y-91948495D02*
X203474800Y-91996114D01*
X203474800Y-91996114D02*
X203522419Y-92091352D01*
X203522419Y-92091352D02*
X203522419Y-92234209D01*
X203474800Y-91519923D02*
X203522419Y-91424685D01*
X203522419Y-91424685D02*
X203522419Y-91234209D01*
X203522419Y-91234209D02*
X203474800Y-91138971D01*
X203474800Y-91138971D02*
X203379561Y-91091352D01*
X203379561Y-91091352D02*
X203331942Y-91091352D01*
X203331942Y-91091352D02*
X203236704Y-91138971D01*
X203236704Y-91138971D02*
X203189085Y-91234209D01*
X203189085Y-91234209D02*
X203189085Y-91377066D01*
X203189085Y-91377066D02*
X203141466Y-91472304D01*
X203141466Y-91472304D02*
X203046228Y-91519923D01*
X203046228Y-91519923D02*
X202998609Y-91519923D01*
X202998609Y-91519923D02*
X202903371Y-91472304D01*
X202903371Y-91472304D02*
X202855752Y-91377066D01*
X202855752Y-91377066D02*
X202855752Y-91234209D01*
X202855752Y-91234209D02*
X202903371Y-91138971D01*
X203474800Y-90234209D02*
X203522419Y-90329447D01*
X203522419Y-90329447D02*
X203522419Y-90519923D01*
X203522419Y-90519923D02*
X203474800Y-90615161D01*
X203474800Y-90615161D02*
X203427180Y-90662780D01*
X203427180Y-90662780D02*
X203331942Y-90710399D01*
X203331942Y-90710399D02*
X203046228Y-90710399D01*
X203046228Y-90710399D02*
X202950990Y-90662780D01*
X202950990Y-90662780D02*
X202903371Y-90615161D01*
X202903371Y-90615161D02*
X202855752Y-90519923D01*
X202855752Y-90519923D02*
X202855752Y-90329447D01*
X202855752Y-90329447D02*
X202903371Y-90234209D01*
X203522419Y-89805637D02*
X202522419Y-89805637D01*
X203522419Y-89377066D02*
X202998609Y-89377066D01*
X202998609Y-89377066D02*
X202903371Y-89424685D01*
X202903371Y-89424685D02*
X202855752Y-89519923D01*
X202855752Y-89519923D02*
X202855752Y-89662780D01*
X202855752Y-89662780D02*
X202903371Y-89758018D01*
X202903371Y-89758018D02*
X202950990Y-89805637D01*
X203522419Y-88138970D02*
X202522419Y-88138970D01*
X203522419Y-87567542D02*
X202950990Y-87996113D01*
X202522419Y-87567542D02*
X203093847Y-88138970D01*
X202855752Y-87281827D02*
X202855752Y-86900875D01*
X203522419Y-87138970D02*
X202665276Y-87138970D01*
X202665276Y-87138970D02*
X202570038Y-87091351D01*
X202570038Y-87091351D02*
X202522419Y-86996113D01*
X202522419Y-86996113D02*
X202522419Y-86900875D01*
X202855752Y-86710398D02*
X202855752Y-86329446D01*
X202522419Y-86567541D02*
X203379561Y-86567541D01*
X203379561Y-86567541D02*
X203474800Y-86519922D01*
X203474800Y-86519922D02*
X203522419Y-86424684D01*
X203522419Y-86424684D02*
X203522419Y-86329446D01*
D11*
X185726164Y-121838800D02*
X186154736Y-121981657D01*
X186154736Y-121981657D02*
X186869021Y-121981657D01*
X186869021Y-121981657D02*
X187154736Y-121838800D01*
X187154736Y-121838800D02*
X187297593Y-121695942D01*
X187297593Y-121695942D02*
X187440450Y-121410228D01*
X187440450Y-121410228D02*
X187440450Y-121124514D01*
X187440450Y-121124514D02*
X187297593Y-120838800D01*
X187297593Y-120838800D02*
X187154736Y-120695942D01*
X187154736Y-120695942D02*
X186869021Y-120553085D01*
X186869021Y-120553085D02*
X186297593Y-120410228D01*
X186297593Y-120410228D02*
X186011878Y-120267371D01*
X186011878Y-120267371D02*
X185869021Y-120124514D01*
X185869021Y-120124514D02*
X185726164Y-119838800D01*
X185726164Y-119838800D02*
X185726164Y-119553085D01*
X185726164Y-119553085D02*
X185869021Y-119267371D01*
X185869021Y-119267371D02*
X186011878Y-119124514D01*
X186011878Y-119124514D02*
X186297593Y-118981657D01*
X186297593Y-118981657D02*
X187011878Y-118981657D01*
X187011878Y-118981657D02*
X187440450Y-119124514D01*
X188726164Y-120410228D02*
X189726164Y-120410228D01*
X190154736Y-121981657D02*
X188726164Y-121981657D01*
X188726164Y-121981657D02*
X188726164Y-118981657D01*
X188726164Y-118981657D02*
X190154736Y-118981657D01*
X191440450Y-121981657D02*
X191440450Y-118981657D01*
X191440450Y-118981657D02*
X192583307Y-118981657D01*
X192583307Y-118981657D02*
X192869022Y-119124514D01*
X192869022Y-119124514D02*
X193011879Y-119267371D01*
X193011879Y-119267371D02*
X193154736Y-119553085D01*
X193154736Y-119553085D02*
X193154736Y-119981657D01*
X193154736Y-119981657D02*
X193011879Y-120267371D01*
X193011879Y-120267371D02*
X192869022Y-120410228D01*
X192869022Y-120410228D02*
X192583307Y-120553085D01*
X192583307Y-120553085D02*
X191440450Y-120553085D01*
X194440450Y-121981657D02*
X194440450Y-118981657D01*
X197583307Y-121695942D02*
X197440450Y-121838800D01*
X197440450Y-121838800D02*
X197011878Y-121981657D01*
X197011878Y-121981657D02*
X196726164Y-121981657D01*
X196726164Y-121981657D02*
X196297593Y-121838800D01*
X196297593Y-121838800D02*
X196011878Y-121553085D01*
X196011878Y-121553085D02*
X195869021Y-121267371D01*
X195869021Y-121267371D02*
X195726164Y-120695942D01*
X195726164Y-120695942D02*
X195726164Y-120267371D01*
X195726164Y-120267371D02*
X195869021Y-119695942D01*
X195869021Y-119695942D02*
X196011878Y-119410228D01*
X196011878Y-119410228D02*
X196297593Y-119124514D01*
X196297593Y-119124514D02*
X196726164Y-118981657D01*
X196726164Y-118981657D02*
X197011878Y-118981657D01*
X197011878Y-118981657D02*
X197440450Y-119124514D01*
X197440450Y-119124514D02*
X197583307Y-119267371D01*
X198869021Y-120838800D02*
X201154736Y-120838800D01*
X202440450Y-121124514D02*
X203869022Y-121124514D01*
X202154736Y-121981657D02*
X203154736Y-118981657D01*
X203154736Y-118981657D02*
X204154736Y-121981657D01*
D12*
X172756667Y-129134318D02*
X172756667Y-130041461D01*
X172756667Y-130041461D02*
X172696190Y-130222889D01*
X172696190Y-130222889D02*
X172575238Y-130343842D01*
X172575238Y-130343842D02*
X172393809Y-130404318D01*
X172393809Y-130404318D02*
X172272857Y-130404318D01*
X173240476Y-129134318D02*
X174026667Y-129134318D01*
X174026667Y-129134318D02*
X173603333Y-129618127D01*
X173603333Y-129618127D02*
X173784762Y-129618127D01*
X173784762Y-129618127D02*
X173905714Y-129678603D01*
X173905714Y-129678603D02*
X173966190Y-129739080D01*
X173966190Y-129739080D02*
X174026667Y-129860032D01*
X174026667Y-129860032D02*
X174026667Y-130162413D01*
X174026667Y-130162413D02*
X173966190Y-130283365D01*
X173966190Y-130283365D02*
X173905714Y-130343842D01*
X173905714Y-130343842D02*
X173784762Y-130404318D01*
X173784762Y-130404318D02*
X173421905Y-130404318D01*
X173421905Y-130404318D02*
X173300952Y-130343842D01*
X173300952Y-130343842D02*
X173240476Y-130283365D01*
X173116667Y-62894318D02*
X173116667Y-63801461D01*
X173116667Y-63801461D02*
X173056190Y-63982889D01*
X173056190Y-63982889D02*
X172935238Y-64103842D01*
X172935238Y-64103842D02*
X172753809Y-64164318D01*
X172753809Y-64164318D02*
X172632857Y-64164318D01*
X174265714Y-63317651D02*
X174265714Y-64164318D01*
X173963333Y-62833842D02*
X173660952Y-63740984D01*
X173660952Y-63740984D02*
X174447143Y-63740984D01*
X179938333Y-118574318D02*
X179333571Y-118574318D01*
X179333571Y-118574318D02*
X179333571Y-117304318D01*
X180301190Y-117425270D02*
X180361666Y-117364794D01*
X180361666Y-117364794D02*
X180482619Y-117304318D01*
X180482619Y-117304318D02*
X180785000Y-117304318D01*
X180785000Y-117304318D02*
X180905952Y-117364794D01*
X180905952Y-117364794D02*
X180966428Y-117425270D01*
X180966428Y-117425270D02*
X181026905Y-117546222D01*
X181026905Y-117546222D02*
X181026905Y-117667175D01*
X181026905Y-117667175D02*
X180966428Y-117848603D01*
X180966428Y-117848603D02*
X180240714Y-118574318D01*
X180240714Y-118574318D02*
X181026905Y-118574318D01*
X179588333Y-105064318D02*
X178983571Y-105064318D01*
X178983571Y-105064318D02*
X178983571Y-103794318D01*
X180676905Y-105064318D02*
X179951190Y-105064318D01*
X180314047Y-105064318D02*
X180314047Y-103794318D01*
X180314047Y-103794318D02*
X180193095Y-103975746D01*
X180193095Y-103975746D02*
X180072143Y-104096699D01*
X180072143Y-104096699D02*
X179951190Y-104157175D01*
X199016667Y-129139318D02*
X199016667Y-130046461D01*
X199016667Y-130046461D02*
X198956190Y-130227889D01*
X198956190Y-130227889D02*
X198835238Y-130348842D01*
X198835238Y-130348842D02*
X198653809Y-130409318D01*
X198653809Y-130409318D02*
X198532857Y-130409318D01*
X200286667Y-130409318D02*
X199560952Y-130409318D01*
X199923809Y-130409318D02*
X199923809Y-129139318D01*
X199923809Y-129139318D02*
X199802857Y-129320746D01*
X199802857Y-129320746D02*
X199681905Y-129441699D01*
X199681905Y-129441699D02*
X199560952Y-129502175D01*
X199326667Y-62854318D02*
X199326667Y-63761461D01*
X199326667Y-63761461D02*
X199266190Y-63942889D01*
X199266190Y-63942889D02*
X199145238Y-64063842D01*
X199145238Y-64063842D02*
X198963809Y-64124318D01*
X198963809Y-64124318D02*
X198842857Y-64124318D01*
X199870952Y-62975270D02*
X199931428Y-62914794D01*
X199931428Y-62914794D02*
X200052381Y-62854318D01*
X200052381Y-62854318D02*
X200354762Y-62854318D01*
X200354762Y-62854318D02*
X200475714Y-62914794D01*
X200475714Y-62914794D02*
X200536190Y-62975270D01*
X200536190Y-62975270D02*
X200596667Y-63096222D01*
X200596667Y-63096222D02*
X200596667Y-63217175D01*
X200596667Y-63217175D02*
X200536190Y-63398603D01*
X200536190Y-63398603D02*
X199810476Y-64124318D01*
X199810476Y-64124318D02*
X200596667Y-64124318D01*
X168248237Y-95379318D02*
X168248237Y-94109318D01*
X169578714Y-95258365D02*
X169518238Y-95318842D01*
X169518238Y-95318842D02*
X169336809Y-95379318D01*
X169336809Y-95379318D02*
X169215857Y-95379318D01*
X169215857Y-95379318D02*
X169034428Y-95318842D01*
X169034428Y-95318842D02*
X168913476Y-95197889D01*
X168913476Y-95197889D02*
X168852999Y-95076937D01*
X168852999Y-95076937D02*
X168792523Y-94835032D01*
X168792523Y-94835032D02*
X168792523Y-94653603D01*
X168792523Y-94653603D02*
X168852999Y-94411699D01*
X168852999Y-94411699D02*
X168913476Y-94290746D01*
X168913476Y-94290746D02*
X169034428Y-94169794D01*
X169034428Y-94169794D02*
X169215857Y-94109318D01*
X169215857Y-94109318D02*
X169336809Y-94109318D01*
X169336809Y-94109318D02*
X169518238Y-94169794D01*
X169518238Y-94169794D02*
X169578714Y-94230270D01*
X170788238Y-95379318D02*
X170062523Y-95379318D01*
X170425380Y-95379318D02*
X170425380Y-94109318D01*
X170425380Y-94109318D02*
X170304428Y-94290746D01*
X170304428Y-94290746D02*
X170183476Y-94411699D01*
X170183476Y-94411699D02*
X170062523Y-94472175D01*
D13*
%TO.C,C11*%
X186165000Y-112811252D02*
X186165000Y-112288748D01*
X187635000Y-112811252D02*
X187635000Y-112288748D01*
%TO.C,R6*%
X171602936Y-90225000D02*
X172057064Y-90225000D01*
X171602936Y-91695000D02*
X172057064Y-91695000D01*
%TO.C,R5*%
X173565000Y-94227064D02*
X173565000Y-93772936D01*
X175035000Y-94227064D02*
X175035000Y-93772936D01*
D10*
%TO.C,J3*%
X160630000Y-129530000D02*
X160630000Y-129530000D01*
X160730000Y-129530000D02*
X160730000Y-129530000D01*
D14*
X161180000Y-124480000D02*
X182580000Y-124480000D01*
X161180000Y-135180000D02*
X161180000Y-124480000D01*
X182580000Y-124480000D02*
X182580000Y-135180000D01*
X182580000Y-124630000D02*
X185180000Y-124630000D01*
X182580000Y-135180000D02*
X161180000Y-135180000D01*
X185180000Y-124630000D02*
X185180000Y-134330000D01*
X185180000Y-134330000D02*
X182580000Y-134330000D01*
D10*
X160630000Y-129530000D02*
G75*
G02*
X160730000Y-129530000I50000J0D01*
G01*
X160730000Y-129530000D02*
G75*
G02*
X160630000Y-129530000I-50000J0D01*
G01*
D13*
%TO.C,C28*%
X183590000Y-81773752D02*
X183590000Y-80351248D01*
X185410000Y-81773752D02*
X185410000Y-80351248D01*
%TO.C,R4*%
X171602936Y-88255000D02*
X172057064Y-88255000D01*
X171602936Y-89725000D02*
X172057064Y-89725000D01*
%TO.C,C33*%
X165661233Y-84790000D02*
X165953767Y-84790000D01*
X165661233Y-85810000D02*
X165953767Y-85810000D01*
%TO.C,R2*%
X185465000Y-75527064D02*
X185465000Y-75072936D01*
X186935000Y-75527064D02*
X186935000Y-75072936D01*
%TO.C,C25*%
X188423752Y-96265000D02*
X187901248Y-96265000D01*
X188423752Y-97735000D02*
X187901248Y-97735000D01*
%TO.C,C36*%
X166165000Y-118738748D02*
X166165000Y-119261252D01*
X167635000Y-118738748D02*
X167635000Y-119261252D01*
D10*
%TO.C,Q1*%
X177845000Y-89462000D02*
X177845000Y-89462000D01*
X177845000Y-89562000D02*
X177845000Y-89562000D01*
X177845000Y-89462000D02*
G75*
G02*
X177845000Y-89562000I0J-50000D01*
G01*
X177845000Y-89562000D02*
G75*
G02*
X177845000Y-89462000I0J50000D01*
G01*
D13*
%TO.C,C30*%
X174316665Y-96040000D02*
X174548335Y-96040000D01*
X174316665Y-96760000D02*
X174548335Y-96760000D01*
%TO.C,R7*%
X181750000Y-91219879D02*
X181750000Y-91555121D01*
X182510000Y-91219879D02*
X182510000Y-91555121D01*
%TO.C,C10*%
X192865000Y-112388748D02*
X192865000Y-112911252D01*
X194335000Y-112388748D02*
X194335000Y-112911252D01*
%TO.C,C44*%
X170340000Y-98651665D02*
X170340000Y-98883335D01*
X171060000Y-98651665D02*
X171060000Y-98883335D01*
D10*
%TO.C,J4*%
X160990000Y-63290000D02*
X160990000Y-63290000D01*
X161090000Y-63290000D02*
X161090000Y-63290000D01*
D14*
X161540000Y-58240000D02*
X182940000Y-58240000D01*
X161540000Y-68940000D02*
X161540000Y-58240000D01*
X182940000Y-58240000D02*
X182940000Y-68940000D01*
X182940000Y-58390000D02*
X185540000Y-58390000D01*
X182940000Y-68940000D02*
X161540000Y-68940000D01*
X185540000Y-58390000D02*
X185540000Y-68090000D01*
X185540000Y-68090000D02*
X182940000Y-68090000D01*
D10*
X160990000Y-63290000D02*
G75*
G02*
X161090000Y-63290000I50000J0D01*
G01*
X161090000Y-63290000D02*
G75*
G02*
X160990000Y-63290000I-50000J0D01*
G01*
D13*
%TO.C,R25*%
X168872936Y-82765000D02*
X169327064Y-82765000D01*
X168872936Y-84235000D02*
X169327064Y-84235000D01*
%TO.C,R29*%
X193865000Y-89372936D02*
X193865000Y-89827064D01*
X195335000Y-89372936D02*
X195335000Y-89827064D01*
%TO.C,C12*%
X190765000Y-112326248D02*
X190765000Y-112848752D01*
X192235000Y-112326248D02*
X192235000Y-112848752D01*
%TO.C,C38*%
X207265000Y-112723752D02*
X207265000Y-112201248D01*
X208735000Y-112723752D02*
X208735000Y-112201248D01*
%TO.C,C9*%
X204551248Y-104040000D02*
X205973752Y-104040000D01*
X204551248Y-106760000D02*
X205973752Y-106760000D01*
%TO.C,C18*%
X168240000Y-115326248D02*
X168240000Y-116748752D01*
X170960000Y-115326248D02*
X170960000Y-116748752D01*
%TO.C,C17*%
X171740000Y-115326248D02*
X171740000Y-116748752D01*
X174460000Y-115326248D02*
X174460000Y-116748752D01*
%TO.C,C29*%
X181127836Y-89390000D02*
X180912164Y-89390000D01*
X181127836Y-90110000D02*
X180912164Y-90110000D01*
%TO.C,R17*%
X176801248Y-80265000D02*
X177323752Y-80265000D01*
X176801248Y-81735000D02*
X177323752Y-81735000D01*
%TO.C,C46*%
X163865000Y-94968748D02*
X163865000Y-95491252D01*
X165335000Y-94968748D02*
X165335000Y-95491252D01*
%TO.C,C47*%
X161490000Y-95288748D02*
X161490000Y-96711252D01*
X163310000Y-95288748D02*
X163310000Y-96711252D01*
%TO.C,C21*%
X175423752Y-75015000D02*
X174901248Y-75015000D01*
X175423752Y-76485000D02*
X174901248Y-76485000D01*
%TO.C,C35*%
X205455000Y-73371252D02*
X205455000Y-72848748D01*
X206925000Y-73371252D02*
X206925000Y-72848748D01*
%TO.C,R10*%
X165404879Y-86420000D02*
X165740121Y-86420000D01*
X165404879Y-87180000D02*
X165740121Y-87180000D01*
D10*
%TO.C,L2*%
X177050000Y-115050000D02*
X183250000Y-115050000D01*
X183250000Y-120950000D02*
X177050000Y-120950000D01*
D14*
X184300000Y-118000000D02*
G75*
G02*
X184200000Y-118000000I-50000J0D01*
G01*
X184200000Y-118000000D02*
G75*
G02*
X184300000Y-118000000I50000J0D01*
G01*
D13*
%TO.C,R1*%
X183465000Y-75527064D02*
X183465000Y-75072936D01*
X184935000Y-75527064D02*
X184935000Y-75072936D01*
%TO.C,R19*%
X174772936Y-84265000D02*
X175227064Y-84265000D01*
X174772936Y-85735000D02*
X175227064Y-85735000D01*
%TO.C,C2*%
X205065000Y-112761252D02*
X205065000Y-112238748D01*
X206535000Y-112761252D02*
X206535000Y-112238748D01*
%TO.C,R15*%
X179372936Y-107965000D02*
X179827064Y-107965000D01*
X179372936Y-109435000D02*
X179827064Y-109435000D01*
%TO.C,R24*%
X168862936Y-77235000D02*
X169317064Y-77235000D01*
X168862936Y-78705000D02*
X169317064Y-78705000D01*
%TO.C,C26*%
X191850000Y-75740000D02*
X193100000Y-75740000D01*
X192475000Y-75115000D02*
X192475000Y-76365000D01*
X193340000Y-74204437D02*
X193340000Y-76990000D01*
X193340000Y-74204437D02*
X194404437Y-73140000D01*
X193340000Y-82795563D02*
X193340000Y-80010000D01*
X193340000Y-82795563D02*
X194404437Y-83860000D01*
X194404437Y-73140000D02*
X204060000Y-73140000D01*
X194404437Y-83860000D02*
X204060000Y-83860000D01*
X204060000Y-73140000D02*
X204060000Y-76990000D01*
X204060000Y-83860000D02*
X204060000Y-80010000D01*
%TO.C,C37*%
X201565000Y-112276248D02*
X201565000Y-112798752D01*
X203035000Y-112276248D02*
X203035000Y-112798752D01*
%TO.C,C22*%
X189390000Y-78108767D02*
X189390000Y-77816233D01*
X190410000Y-78108767D02*
X190410000Y-77816233D01*
%TO.C,C16*%
X175540000Y-111451248D02*
X175540000Y-112873752D01*
X178260000Y-111451248D02*
X178260000Y-112873752D01*
%TO.C,C20*%
X175448752Y-77040000D02*
X174026248Y-77040000D01*
X175448752Y-79760000D02*
X174026248Y-79760000D01*
%TO.C,C39*%
X180840000Y-80023752D02*
X180840000Y-78601248D01*
X182660000Y-80023752D02*
X182660000Y-78601248D01*
D10*
%TO.C,L1*%
X176700000Y-101540000D02*
X182900000Y-101540000D01*
X182900000Y-107440000D02*
X176700000Y-107440000D01*
D14*
X183750000Y-104490000D02*
G75*
G02*
X183650000Y-104490000I-50000J0D01*
G01*
X183650000Y-104490000D02*
G75*
G02*
X183750000Y-104490000I50000J0D01*
G01*
D13*
%TO.C,C8*%
X204551248Y-107540000D02*
X205973752Y-107540000D01*
X204551248Y-110260000D02*
X205973752Y-110260000D01*
%TO.C,C27*%
X186090000Y-81773752D02*
X186090000Y-80351248D01*
X187910000Y-81773752D02*
X187910000Y-80351248D01*
%TO.C,C32*%
X164180000Y-90168767D02*
X164180000Y-89876233D01*
X165200000Y-90168767D02*
X165200000Y-89876233D01*
D10*
%TO.C,J1*%
X187440000Y-124470000D02*
X211440000Y-124470000D01*
X187440000Y-135200000D02*
X187440000Y-124470000D01*
X211440000Y-124470000D02*
X211440000Y-135200000D01*
X211440000Y-135200000D02*
X187440000Y-135200000D01*
D13*
%TO.C,C34*%
X167255000Y-73378752D02*
X167255000Y-72856248D01*
X168725000Y-73378752D02*
X168725000Y-72856248D01*
%TO.C,C31*%
X162165000Y-89813748D02*
X162165000Y-90336252D01*
X163635000Y-89813748D02*
X163635000Y-90336252D01*
%TO.C,C40*%
X175716665Y-88240000D02*
X175948335Y-88240000D01*
X175716665Y-88960000D02*
X175948335Y-88960000D01*
%TO.C,C13*%
X188265000Y-112848752D02*
X188265000Y-112326248D01*
X189735000Y-112848752D02*
X189735000Y-112326248D01*
%TO.C,R16*%
X180072936Y-121665000D02*
X180527064Y-121665000D01*
X180072936Y-123135000D02*
X180527064Y-123135000D01*
%TO.C,D1*%
X179740000Y-100460000D02*
X179740000Y-95400000D01*
X179740000Y-100460000D02*
X182460000Y-100460000D01*
X182460000Y-100460000D02*
X182460000Y-95400000D01*
%TO.C,R18*%
X174772936Y-82265000D02*
X175227064Y-82265000D01*
X174772936Y-83735000D02*
X175227064Y-83735000D01*
%TO.C,C43*%
X205665000Y-119301248D02*
X205665000Y-119823752D01*
X207135000Y-119301248D02*
X207135000Y-119823752D01*
%TO.C,D3*%
X167860000Y-91840000D02*
X167860000Y-88180000D01*
X167860000Y-91840000D02*
X169760000Y-91840000D01*
X169760000Y-91840000D02*
X169760000Y-88180000D01*
D10*
%TO.C,J2*%
X187750000Y-58185000D02*
X211750000Y-58185000D01*
X187750000Y-68915000D02*
X187750000Y-58185000D01*
X211750000Y-58185000D02*
X211750000Y-68915000D01*
X211750000Y-68915000D02*
X187750000Y-68915000D01*
D13*
%TO.C,R13*%
X196472936Y-111015000D02*
X196927064Y-111015000D01*
X196472936Y-112485000D02*
X196927064Y-112485000D01*
%TO.C,R9*%
X167820000Y-98965121D02*
X167820000Y-98629879D01*
X168580000Y-98965121D02*
X168580000Y-98629879D01*
D14*
%TO.C,IC1*%
X167888000Y-92355000D02*
X171088000Y-92355000D01*
X167888000Y-97255000D02*
X167888000Y-92355000D01*
X171088000Y-92355000D02*
X171088000Y-97255000D01*
X171088000Y-97255000D02*
X167888000Y-97255000D01*
X172963000Y-97410000D02*
X171438000Y-97410000D01*
D13*
%TO.C,C3*%
X198765000Y-104961252D02*
X198765000Y-104438748D01*
X200235000Y-104961252D02*
X200235000Y-104438748D01*
%TO.C,C14*%
X182140000Y-111451248D02*
X182140000Y-112873752D01*
X184860000Y-111451248D02*
X184860000Y-112873752D01*
%TO.C,D2*%
X177640000Y-73290000D02*
X177640000Y-78350000D01*
X180360000Y-73290000D02*
X177640000Y-73290000D01*
X180360000Y-73290000D02*
X180360000Y-78350000D01*
%TO.C,R26*%
X174772936Y-86265000D02*
X175227064Y-86265000D01*
X174772936Y-87735000D02*
X175227064Y-87735000D01*
%TO.C,C4*%
X200865000Y-104961252D02*
X200865000Y-104438748D01*
X202335000Y-104961252D02*
X202335000Y-104438748D01*
%TO.C,C1*%
X199465000Y-112313748D02*
X199465000Y-112836252D01*
X200935000Y-112313748D02*
X200935000Y-112836252D01*
%TO.C,C19*%
X175398752Y-73015000D02*
X174876248Y-73015000D01*
X175398752Y-74485000D02*
X174876248Y-74485000D01*
%TO.C,C15*%
X178840000Y-111451248D02*
X178840000Y-112873752D01*
X181560000Y-111451248D02*
X181560000Y-112873752D01*
%TO.C,L3*%
X182900000Y-90825000D02*
X182900000Y-87975000D01*
X190200000Y-83850000D02*
X185900000Y-83850000D01*
X190200000Y-95650000D02*
X185900000Y-95650000D01*
X193400000Y-90600000D02*
X193400000Y-87700000D01*
%TO.C,C24*%
X183040000Y-99273752D02*
X183040000Y-97851248D01*
X185760000Y-99273752D02*
X185760000Y-97851248D01*
%TO.C,U2*%
X169162500Y-79140000D02*
X168512500Y-79140000D01*
X169162500Y-79140000D02*
X169812500Y-79140000D01*
X169162500Y-82260000D02*
X168512500Y-82260000D01*
X169162500Y-82260000D02*
X169812500Y-82260000D01*
X168000000Y-79190000D02*
X167760000Y-78860000D01*
X168240000Y-78860000D01*
X168000000Y-79190000D01*
G36*
X168000000Y-79190000D02*
G01*
X167760000Y-78860000D01*
X168240000Y-78860000D01*
X168000000Y-79190000D01*
G37*
%TO.C,L4*%
X186350000Y-106950000D02*
X186350000Y-102650000D01*
X191175000Y-99650000D02*
X194025000Y-99650000D01*
X191400000Y-110150000D02*
X194300000Y-110150000D01*
X198150000Y-106950000D02*
X198150000Y-102650000D01*
%TO.C,R3*%
X187465000Y-75527064D02*
X187465000Y-75072936D01*
X188935000Y-75527064D02*
X188935000Y-75072936D01*
%TO.C,R8*%
X174972936Y-71015000D02*
X175427064Y-71015000D01*
X174972936Y-72485000D02*
X175427064Y-72485000D01*
%TO.C,R23*%
X175910000Y-95727064D02*
X175910000Y-91372936D01*
X179330000Y-95727064D02*
X179330000Y-91372936D01*
%TD*%
M02*
