%TF.GenerationSoftware,KiCad,Pcbnew,8.0.1*%
%TF.CreationDate,2024-07-03T15:52:00+02:00*%
%TF.ProjectId,SEPIC-A,53455049-432d-4412-9e6b-696361645f70,rev?*%
%TF.SameCoordinates,Original*%
%TF.FileFunction,Copper,L5,Inr*%
%TF.FilePolarity,Positive*%
%FSLAX46Y46*%
G04 Gerber Fmt 4.6, Leading zero omitted, Abs format (unit mm)*
G04 Created by KiCad (PCBNEW 8.0.1) date 2024-07-03 15:52:00*
%MOMM*%
%LPD*%
G01*
G04 APERTURE LIST*
%TA.AperFunction,ComponentPad*%
%ADD10C,0.800000*%
%TD*%
%TA.AperFunction,ComponentPad*%
%ADD11C,6.400000*%
%TD*%
%TA.AperFunction,ComponentPad*%
%ADD12R,2.955000X2.955000*%
%TD*%
%TA.AperFunction,ComponentPad*%
%ADD13C,2.955000*%
%TD*%
%TA.AperFunction,ViaPad*%
%ADD14C,0.600000*%
%TD*%
%TA.AperFunction,Conductor*%
%ADD15C,0.130000*%
%TD*%
G04 APERTURE END LIST*
D10*
%TO.N,GNDH*%
%TO.C,H4*%
X208660000Y-119820000D03*
X209362944Y-118122944D03*
X209362944Y-121517056D03*
X211060000Y-117420000D03*
D11*
X211060000Y-119820000D03*
D10*
X211060000Y-122220000D03*
X212757056Y-118122944D03*
X212757056Y-121517056D03*
X213460000Y-119820000D03*
%TD*%
%TO.N,GNDH*%
%TO.C,H3*%
X158730000Y-119820000D03*
X159432944Y-118122944D03*
X159432944Y-121517056D03*
X161130000Y-117420000D03*
D11*
X161130000Y-119820000D03*
D10*
X161130000Y-122220000D03*
X162827056Y-118122944D03*
X162827056Y-121517056D03*
X163530000Y-119820000D03*
%TD*%
%TO.N,GNDH*%
%TO.C,H2*%
X208660000Y-73620000D03*
X209362944Y-71922944D03*
X209362944Y-75317056D03*
X211060000Y-71220000D03*
D11*
X211060000Y-73620000D03*
D10*
X211060000Y-76020000D03*
X212757056Y-71922944D03*
X212757056Y-75317056D03*
X213460000Y-73620000D03*
%TD*%
%TO.N,GNDH*%
%TO.C,H1*%
X158730000Y-73627056D03*
X159432944Y-71930000D03*
X159432944Y-75324112D03*
X161130000Y-71227056D03*
D11*
X161130000Y-73627056D03*
D10*
X161130000Y-76027056D03*
X162827056Y-71930000D03*
X162827056Y-75324112D03*
X163530000Y-73627056D03*
%TD*%
D12*
%TO.N,G_G_GND1*%
%TO.C,J3*%
X164680000Y-129530000D03*
D13*
X180180000Y-129530000D03*
%TD*%
D12*
%TO.N,GND*%
%TO.C,J4*%
X165040000Y-63290000D03*
D13*
X180540000Y-63290000D03*
%TD*%
%TO.N,+24V*%
%TO.C,J1*%
X207190000Y-130120000D03*
X191690000Y-130120000D03*
%TD*%
%TO.N,V_LOW*%
%TO.C,J2*%
X207500000Y-63835000D03*
X192000000Y-63835000D03*
%TD*%
D14*
%TO.N,+24V*%
X198900000Y-106800000D03*
X198200000Y-106800000D03*
X198300000Y-107500000D03*
%TO.N,GND*%
X205700000Y-76500000D03*
X206300000Y-76800000D03*
X205700000Y-78600000D03*
X206300000Y-77600000D03*
X205700000Y-77200000D03*
X205700000Y-80000000D03*
X206300000Y-78300000D03*
X206400000Y-117600000D03*
X205700000Y-77900000D03*
X172800000Y-75000000D03*
X205700000Y-79300000D03*
X197900000Y-86000000D03*
X166900000Y-116900000D03*
X167990000Y-75240000D03*
X197200000Y-86000000D03*
X196400000Y-86000000D03*
%TO.N,Net-(C11-Pad2)*%
X186500000Y-106500000D03*
X186500000Y-107200000D03*
%TO.N,V_HIGH*%
X162870000Y-93150000D03*
X167000000Y-77800000D03*
X177900000Y-98700000D03*
%TO.N,V_LOW*%
X177400000Y-74500000D03*
X177400000Y-75300000D03*
X178200000Y-73000000D03*
X180700000Y-73800000D03*
X178200000Y-75300000D03*
X177400000Y-73000000D03*
X179800000Y-73000000D03*
X180700000Y-75300000D03*
X180700000Y-73000000D03*
X179000000Y-73000000D03*
X177400000Y-73800000D03*
X179900000Y-75300000D03*
X195100000Y-86000000D03*
X180700000Y-74600000D03*
X194000000Y-86000000D03*
X179100000Y-75300000D03*
%TO.N,Net-(D2-A)*%
X179320000Y-76960000D03*
X178400000Y-77540000D03*
X179030000Y-77540000D03*
X179660000Y-77540000D03*
X177600000Y-78400000D03*
X179940000Y-76940000D03*
X177600000Y-77800000D03*
X178090000Y-76960000D03*
X177600000Y-79000000D03*
X178700000Y-76960000D03*
%TO.N,Net-(Q1-D_1)*%
X179600000Y-85000000D03*
X180500000Y-84400000D03*
X178060000Y-84460000D03*
X178780000Y-84450000D03*
X179600000Y-84000000D03*
X181300000Y-84400000D03*
%TO.N,Net-(Q1-G)*%
X181390000Y-90750000D03*
X174418952Y-90440219D03*
%TO.N,G_G_GND*%
X169200000Y-119600000D03*
X169200000Y-118900000D03*
X168500000Y-118900000D03*
X169900000Y-118900000D03*
X169900000Y-119600000D03*
%TO.N,GND_SEPIC*%
X173300000Y-80300000D03*
X172800000Y-75700000D03*
X181200000Y-93600000D03*
X181900000Y-93600000D03*
X180500000Y-93600000D03*
X172800000Y-74300000D03*
X179800000Y-93600000D03*
X172700000Y-82290000D03*
X172700000Y-82940000D03*
X170800000Y-118900000D03*
X172000000Y-74300000D03*
X164100000Y-98200000D03*
X172700000Y-80300000D03*
X172700000Y-81650000D03*
X172000000Y-75000000D03*
X172010000Y-75680000D03*
X170945000Y-94190000D03*
X172700000Y-80950000D03*
%TO.N,GND_LOGIC*%
X162500000Y-86700000D03*
X164800000Y-97500000D03*
X164400000Y-88100000D03*
X165500003Y-98200000D03*
X164080000Y-97500000D03*
X164800000Y-98200000D03*
X162500000Y-87500000D03*
%TO.N,G_G_GND1*%
X193400000Y-98300000D03*
X193400000Y-97599997D03*
X192700000Y-98300000D03*
%TO.N,VFB*%
X172310000Y-72820000D03*
X168200000Y-97040000D03*
%TO.N,Net-(IC1-EN)*%
X171320000Y-83510000D03*
X170700000Y-97100000D03*
%TD*%
D15*
%TO.N,VFB*%
X168200000Y-76450000D02*
X168200000Y-97040000D01*
X171830000Y-72820000D02*
X168200000Y-76450000D01*
X172310000Y-72820000D02*
X171830000Y-72820000D01*
%TO.N,Net-(IC1-EN)*%
X170430000Y-96830000D02*
X170430000Y-84400000D01*
X170700000Y-97100000D02*
X170430000Y-96830000D01*
X170430000Y-84400000D02*
X171320000Y-83510000D01*
%TD*%
%TA.AperFunction,Conductor*%
%TO.N,Net-(D2-A)*%
G36*
X181943039Y-76625185D02*
G01*
X181988794Y-76677989D01*
X182000000Y-76729500D01*
X182000000Y-79576000D01*
X181980315Y-79643039D01*
X181927511Y-79688794D01*
X181876000Y-79700000D01*
X176824000Y-79700000D01*
X176756961Y-79680315D01*
X176711206Y-79627511D01*
X176700000Y-79576000D01*
X176700000Y-76729500D01*
X176719685Y-76662461D01*
X176772489Y-76616706D01*
X176824000Y-76605500D01*
X181876000Y-76605500D01*
X181943039Y-76625185D01*
G37*
%TD.AperFunction*%
%TD*%
%TA.AperFunction,Conductor*%
%TO.N,V_LOW*%
G36*
X181943039Y-72419685D02*
G01*
X181988794Y-72472489D01*
X182000000Y-72524000D01*
X182000000Y-75976000D01*
X181980315Y-76043039D01*
X181927511Y-76088794D01*
X181876000Y-76100000D01*
X176824000Y-76100000D01*
X176756961Y-76080315D01*
X176711206Y-76027511D01*
X176700000Y-75976000D01*
X176700000Y-72524000D01*
X176719685Y-72456961D01*
X176772489Y-72411206D01*
X176824000Y-72400000D01*
X181876000Y-72400000D01*
X181943039Y-72419685D01*
G37*
%TD.AperFunction*%
%TD*%
%TA.AperFunction,NonConductor*%
G36*
X172843039Y-100619685D02*
G01*
X172888794Y-100672489D01*
X172900000Y-100724000D01*
X172900000Y-106476000D01*
X172880315Y-106543039D01*
X172827511Y-106588794D01*
X172776000Y-106600000D01*
X166624000Y-106600000D01*
X166556961Y-106580315D01*
X166511206Y-106527511D01*
X166500000Y-106476000D01*
X166500000Y-100724000D01*
X166519685Y-100656961D01*
X166572489Y-100611206D01*
X166624000Y-100600000D01*
X172776000Y-100600000D01*
X172843039Y-100619685D01*
G37*
%TD.AperFunction*%
%TA.AperFunction,Conductor*%
%TO.N,GNDH*%
G36*
X164999958Y-58115601D02*
G01*
X165066954Y-58135427D01*
X165112597Y-58188327D01*
X165122395Y-58257506D01*
X165119028Y-58273301D01*
X165115612Y-58285397D01*
X165115037Y-58287264D01*
X165114826Y-58288175D01*
X165095820Y-58430793D01*
X165124232Y-61186722D01*
X165105240Y-61253961D01*
X165052910Y-61300257D01*
X165000239Y-61312000D01*
X163514629Y-61312000D01*
X163514623Y-61312001D01*
X163455016Y-61318408D01*
X163320171Y-61368702D01*
X163320164Y-61368706D01*
X163204955Y-61454952D01*
X163204952Y-61454955D01*
X163118706Y-61570164D01*
X163118702Y-61570171D01*
X163068408Y-61705017D01*
X163062001Y-61764616D01*
X163062000Y-61764635D01*
X163062000Y-64815370D01*
X163062001Y-64815376D01*
X163068408Y-64874983D01*
X163118702Y-65009828D01*
X163118706Y-65009835D01*
X163204952Y-65125044D01*
X163204955Y-65125047D01*
X163320164Y-65211293D01*
X163320171Y-65211297D01*
X163455017Y-65261591D01*
X163455016Y-65261591D01*
X163461944Y-65262335D01*
X163514627Y-65268000D01*
X165043580Y-65267999D01*
X165110619Y-65287684D01*
X165156374Y-65340487D01*
X165167573Y-65390721D01*
X165193063Y-67863352D01*
X165181626Y-67916660D01*
X164762352Y-68823662D01*
X164727986Y-68924992D01*
X164727985Y-68924992D01*
X164716551Y-68975895D01*
X164704280Y-69082180D01*
X164626484Y-77795493D01*
X164626444Y-77799993D01*
X164626444Y-77799999D01*
X164606386Y-80046400D01*
X164586104Y-80113261D01*
X164581082Y-80120367D01*
X160822356Y-85061507D01*
X160812751Y-85074562D01*
X160808156Y-85081022D01*
X160798980Y-85094369D01*
X160798975Y-85094378D01*
X160737248Y-85224336D01*
X160737247Y-85224337D01*
X160716559Y-85291067D01*
X160693944Y-85433157D01*
X160693944Y-85433158D01*
X160662978Y-87492404D01*
X160662864Y-87499995D01*
X160662864Y-87499999D01*
X160653841Y-88100000D01*
X160578016Y-93142404D01*
X160577902Y-93149996D01*
X160577902Y-93149999D01*
X160512602Y-97492404D01*
X160512488Y-97499996D01*
X160512488Y-97500000D01*
X160495315Y-98641889D01*
X160497131Y-98692975D01*
X160497738Y-98700000D01*
X160497739Y-98700009D01*
X160499283Y-98717907D01*
X160499286Y-98717939D01*
X160506240Y-98768518D01*
X160506241Y-98768523D01*
X160552860Y-98904633D01*
X160552862Y-98904638D01*
X160582259Y-98962115D01*
X160584680Y-98966847D01*
X160667755Y-99084307D01*
X160667764Y-99084318D01*
X162262044Y-100767169D01*
X162293860Y-100829374D01*
X162296024Y-100851693D01*
X162370398Y-113048906D01*
X162370582Y-113079082D01*
X162389716Y-116217226D01*
X162391410Y-116494965D01*
X162409345Y-116625370D01*
X162409348Y-116625384D01*
X162426251Y-116687124D01*
X162426253Y-116687128D01*
X162477244Y-116808472D01*
X162477245Y-116808475D01*
X162566726Y-116921147D01*
X162617522Y-116969120D01*
X162617525Y-116969122D01*
X162667176Y-117004123D01*
X162674605Y-117013478D01*
X163005093Y-117228098D01*
X163015594Y-117235727D01*
X163265764Y-117438311D01*
X163275409Y-117446996D01*
X163503001Y-117674588D01*
X163511686Y-117684233D01*
X163714269Y-117934402D01*
X163721894Y-117944896D01*
X163897217Y-118214870D01*
X163903698Y-118226096D01*
X163989782Y-118395048D01*
X163989785Y-118395052D01*
X164051606Y-118488878D01*
X164051614Y-118488888D01*
X164086643Y-118530988D01*
X164086646Y-118530991D01*
X164086647Y-118530992D01*
X164167667Y-118608843D01*
X164547435Y-118899999D01*
X164547434Y-118899999D01*
X164871629Y-119148548D01*
X165070703Y-119301171D01*
X165345945Y-119512190D01*
X165387172Y-119568599D01*
X165394500Y-119610596D01*
X165394500Y-127428000D01*
X165374815Y-127495039D01*
X165322011Y-127540794D01*
X165270500Y-127552000D01*
X163154629Y-127552000D01*
X163154623Y-127552001D01*
X163095016Y-127558408D01*
X162960171Y-127608702D01*
X162960164Y-127608706D01*
X162844955Y-127694952D01*
X162844952Y-127694955D01*
X162758706Y-127810164D01*
X162758702Y-127810171D01*
X162708408Y-127945017D01*
X162702001Y-128004616D01*
X162702000Y-128004635D01*
X162702000Y-131055370D01*
X162702001Y-131055376D01*
X162708408Y-131114983D01*
X162758702Y-131249828D01*
X162758706Y-131249835D01*
X162844952Y-131365044D01*
X162844955Y-131365047D01*
X162960164Y-131451293D01*
X162960171Y-131451297D01*
X163095017Y-131501591D01*
X163095016Y-131501591D01*
X163101944Y-131502335D01*
X163154627Y-131508000D01*
X165270500Y-131507999D01*
X165337539Y-131527684D01*
X165383294Y-131580487D01*
X165394500Y-131631999D01*
X165394500Y-132476305D01*
X165405920Y-132583146D01*
X165405921Y-132583155D01*
X165417000Y-132634384D01*
X165417005Y-132634400D01*
X165450746Y-132736400D01*
X165528232Y-132857625D01*
X165528236Y-132857630D01*
X165528237Y-132857631D01*
X165573862Y-132910547D01*
X165573863Y-132910548D01*
X165682368Y-133005036D01*
X165813100Y-133065127D01*
X165880091Y-133084976D01*
X165880194Y-133084991D01*
X165880225Y-133084995D01*
X166022457Y-133105801D01*
X206571113Y-133205185D01*
X206685753Y-133192303D01*
X206740544Y-133179690D01*
X206849264Y-133141158D01*
X206968197Y-133060186D01*
X207019768Y-133013046D01*
X207019770Y-133013044D01*
X207111072Y-132901843D01*
X207167347Y-132769425D01*
X207185245Y-132701887D01*
X207201934Y-132558979D01*
X207192976Y-132221582D01*
X207210874Y-132154044D01*
X207262445Y-132106904D01*
X207308085Y-132094607D01*
X207472218Y-132082868D01*
X207748691Y-132022725D01*
X208013790Y-131923848D01*
X208262119Y-131788250D01*
X208488624Y-131618691D01*
X208688691Y-131418624D01*
X208858250Y-131192119D01*
X208993848Y-130943790D01*
X209092725Y-130678691D01*
X209152868Y-130402218D01*
X209173053Y-130120000D01*
X209152868Y-129837782D01*
X209092725Y-129561309D01*
X208993848Y-129296210D01*
X208858250Y-129047881D01*
X208858248Y-129047878D01*
X208688697Y-128821383D01*
X208688681Y-128821365D01*
X208488634Y-128621318D01*
X208488616Y-128621302D01*
X208262121Y-128451751D01*
X208262113Y-128451746D01*
X208013795Y-128316154D01*
X208013791Y-128316152D01*
X207913288Y-128278666D01*
X207748691Y-128217275D01*
X207748687Y-128217274D01*
X207748684Y-128217273D01*
X207472226Y-128157133D01*
X207472220Y-128157132D01*
X207196458Y-128137408D01*
X207130994Y-128112991D01*
X207089123Y-128057057D01*
X207081349Y-128017015D01*
X206916781Y-121818271D01*
X206934679Y-121750735D01*
X206986250Y-121703594D01*
X206992994Y-121700542D01*
X207620801Y-121438956D01*
X207687348Y-121405266D01*
X207718605Y-121386424D01*
X207779477Y-121343303D01*
X207876261Y-121236840D01*
X207915424Y-121178978D01*
X207915425Y-121178975D01*
X207915426Y-121178974D01*
X207918696Y-121172347D01*
X207918965Y-121171687D01*
X207978294Y-121049557D01*
X208002154Y-120907669D01*
X208003817Y-120837819D01*
X208003817Y-120837818D01*
X207986736Y-120694955D01*
X207932206Y-120491447D01*
X207929515Y-120478782D01*
X207879159Y-120160840D01*
X207877802Y-120147933D01*
X207860955Y-119826488D01*
X207860955Y-119813508D01*
X207877802Y-119492054D01*
X207879159Y-119479146D01*
X207929512Y-119161224D01*
X207932202Y-119148567D01*
X208015529Y-118837586D01*
X208019526Y-118825282D01*
X208063688Y-118710243D01*
X208088800Y-118621204D01*
X208097036Y-118576766D01*
X208105500Y-118484647D01*
X208105500Y-118185645D01*
X208125185Y-118118606D01*
X208147841Y-118092329D01*
X210290808Y-116217233D01*
X210339949Y-116167857D01*
X210362275Y-116142094D01*
X210404152Y-116086444D01*
X210464571Y-115955864D01*
X210484588Y-115888923D01*
X210505771Y-115746611D01*
X210696491Y-77316463D01*
X210694848Y-77273152D01*
X210693133Y-77251974D01*
X210687783Y-77208950D01*
X210643974Y-77071902D01*
X210613445Y-77009055D01*
X210532800Y-76889901D01*
X210421851Y-76798293D01*
X210364333Y-76763233D01*
X210362818Y-76762267D01*
X210362180Y-76761921D01*
X210269688Y-76722315D01*
X210215810Y-76677830D01*
X210194535Y-76611278D01*
X210194502Y-76607758D01*
X210200000Y-75500000D01*
X207946652Y-73168950D01*
X207914211Y-73107068D01*
X207913334Y-73063373D01*
X207929511Y-72961232D01*
X207932208Y-72948548D01*
X207949458Y-72884170D01*
X207949459Y-72884167D01*
X207966419Y-72769643D01*
X207968239Y-72713249D01*
X207958700Y-72597878D01*
X207910711Y-72462237D01*
X207910710Y-72462235D01*
X207910709Y-72462232D01*
X207910707Y-72462228D01*
X207871344Y-72387144D01*
X207863504Y-72379919D01*
X207828987Y-72332142D01*
X207805684Y-72266273D01*
X207805500Y-72259526D01*
X207805500Y-69236087D01*
X207805499Y-69236073D01*
X207785370Y-69094859D01*
X207785368Y-69094850D01*
X207785368Y-69094847D01*
X207766008Y-69028315D01*
X207707216Y-68898325D01*
X207289286Y-68241018D01*
X207269945Y-68176572D01*
X207232243Y-65934171D01*
X207250797Y-65866810D01*
X207302825Y-65820174D01*
X207365070Y-65808402D01*
X207500000Y-65818053D01*
X207500001Y-65818053D01*
X207520186Y-65816609D01*
X207782218Y-65797868D01*
X208058691Y-65737725D01*
X208323790Y-65638848D01*
X208572119Y-65503250D01*
X208798624Y-65333691D01*
X208998691Y-65133624D01*
X209168250Y-64907119D01*
X209303848Y-64658790D01*
X209402725Y-64393691D01*
X209462868Y-64117218D01*
X209483053Y-63835000D01*
X209462868Y-63552782D01*
X209402725Y-63276309D01*
X209303848Y-63011210D01*
X209168250Y-62762881D01*
X209168248Y-62762878D01*
X208998697Y-62536383D01*
X208998681Y-62536365D01*
X208798634Y-62336318D01*
X208798616Y-62336302D01*
X208572121Y-62166751D01*
X208572113Y-62166746D01*
X208323795Y-62031154D01*
X208323791Y-62031152D01*
X208223288Y-61993666D01*
X208058691Y-61932275D01*
X208058687Y-61932274D01*
X208058684Y-61932273D01*
X207782226Y-61872133D01*
X207782219Y-61872132D01*
X207500001Y-61851947D01*
X207499999Y-61851947D01*
X207294638Y-61866635D01*
X207226365Y-61851783D01*
X207176960Y-61802378D01*
X207161811Y-61745038D01*
X207107473Y-58513120D01*
X207095208Y-58410626D01*
X207093889Y-58404768D01*
X207083450Y-58358379D01*
X207084264Y-58358195D01*
X207085123Y-58291871D01*
X207123655Y-58233587D01*
X207187581Y-58205387D01*
X207203895Y-58204343D01*
X214526182Y-58219739D01*
X214593178Y-58239565D01*
X214638821Y-58292465D01*
X214649919Y-58343819D01*
X214600079Y-135167225D01*
X214580351Y-135234252D01*
X214527517Y-135279973D01*
X214477231Y-135291140D01*
X159776415Y-135799495D01*
X159775263Y-135799500D01*
X157693929Y-135799500D01*
X157626890Y-135779815D01*
X157581135Y-135727011D01*
X157569929Y-135675561D01*
X157569713Y-135234252D01*
X157540044Y-74540624D01*
X157559696Y-74473577D01*
X157575448Y-74453808D01*
X157579999Y-74449160D01*
X157580000Y-74449160D01*
X157580000Y-58224261D01*
X157599685Y-58157222D01*
X157652489Y-58111467D01*
X157704259Y-58100261D01*
X164999958Y-58115601D01*
G37*
%TD.AperFunction*%
%TD*%
%TA.AperFunction,NonConductor*%
G36*
X172843039Y-107219685D02*
G01*
X172888794Y-107272489D01*
X172900000Y-107324000D01*
X172900000Y-113076000D01*
X172880315Y-113143039D01*
X172827511Y-113188794D01*
X172776000Y-113200000D01*
X166624000Y-113200000D01*
X166556961Y-113180315D01*
X166511206Y-113127511D01*
X166500000Y-113076000D01*
X166500000Y-107324000D01*
X166519685Y-107256961D01*
X166572489Y-107211206D01*
X166624000Y-107200000D01*
X172776000Y-107200000D01*
X172843039Y-107219685D01*
G37*
%TD.AperFunction*%
%TA.AperFunction,Conductor*%
%TO.N,Net-(Q1-D_1)*%
G36*
X182843039Y-82119685D02*
G01*
X182888794Y-82172489D01*
X182900000Y-82224000D01*
X182900000Y-86975185D01*
X182880315Y-87042224D01*
X182827511Y-87087979D01*
X182775188Y-87099182D01*
X176913436Y-87060808D01*
X176846527Y-87040685D01*
X176801119Y-86987583D01*
X176790248Y-86936565D01*
X176799751Y-82223750D01*
X176819571Y-82156750D01*
X176872467Y-82111102D01*
X176923751Y-82100000D01*
X182776000Y-82100000D01*
X182843039Y-82119685D01*
G37*
%TD.AperFunction*%
%TD*%
%TA.AperFunction,Conductor*%
%TO.N,GND*%
G36*
X206478365Y-58399703D02*
G01*
X206545356Y-58419551D01*
X206590982Y-58472467D01*
X206602044Y-58521618D01*
X206659927Y-61964375D01*
X206641373Y-62031736D01*
X206595372Y-62075292D01*
X206427886Y-62166746D01*
X206427878Y-62166751D01*
X206201383Y-62336302D01*
X206201365Y-62336318D01*
X206001318Y-62536365D01*
X206001302Y-62536383D01*
X205831751Y-62762878D01*
X205831746Y-62762886D01*
X205696154Y-63011204D01*
X205696152Y-63011208D01*
X205597273Y-63276315D01*
X205537133Y-63552773D01*
X205537132Y-63552780D01*
X205516947Y-63834998D01*
X205516947Y-63835001D01*
X205537132Y-64117219D01*
X205537133Y-64117226D01*
X205597273Y-64393684D01*
X205597275Y-64393691D01*
X205658666Y-64558288D01*
X205696152Y-64658791D01*
X205696154Y-64658795D01*
X205831746Y-64907113D01*
X205831751Y-64907121D01*
X206001302Y-65133616D01*
X206001318Y-65133634D01*
X206201365Y-65333681D01*
X206201383Y-65333697D01*
X206427878Y-65503248D01*
X206427886Y-65503253D01*
X206658786Y-65629334D01*
X206708191Y-65678739D01*
X206723341Y-65736081D01*
X206767499Y-68362499D01*
X206767500Y-68362500D01*
X207195578Y-69035769D01*
X207280640Y-69169551D01*
X207300000Y-69236083D01*
X207300000Y-72500000D01*
X207430562Y-72635064D01*
X207463002Y-72696944D01*
X207461182Y-72753338D01*
X207435398Y-72849565D01*
X207435397Y-72849572D01*
X207374722Y-73232660D01*
X207354422Y-73619999D01*
X207354422Y-73620000D01*
X207374722Y-74007339D01*
X207413097Y-74249627D01*
X207435398Y-74390433D01*
X207459197Y-74479254D01*
X207535788Y-74765094D01*
X207674787Y-75127197D01*
X207850877Y-75472793D01*
X208062122Y-75798082D01*
X208206195Y-75975997D01*
X208306219Y-76099516D01*
X208580484Y-76373781D01*
X208693586Y-76465369D01*
X208881917Y-76617877D01*
X209207206Y-76829122D01*
X209207211Y-76829125D01*
X209552806Y-77005214D01*
X209914913Y-77144214D01*
X210099093Y-77193564D01*
X210158753Y-77229929D01*
X210189282Y-77292776D01*
X210190997Y-77313954D01*
X210000277Y-115744102D01*
X209980260Y-115811043D01*
X209957934Y-115836806D01*
X207600000Y-117899999D01*
X207600000Y-118484647D01*
X207591764Y-118529085D01*
X207535788Y-118674905D01*
X207435397Y-119049570D01*
X207435397Y-119049572D01*
X207374722Y-119432660D01*
X207354422Y-119819999D01*
X207354422Y-119820000D01*
X207374722Y-120207339D01*
X207435397Y-120590427D01*
X207435398Y-120590434D01*
X207498460Y-120825787D01*
X207496797Y-120895637D01*
X207457634Y-120953499D01*
X207426377Y-120972341D01*
X206400000Y-121399999D01*
X206399999Y-121400001D01*
X206579131Y-128147333D01*
X206561233Y-128214871D01*
X206509662Y-128262012D01*
X206498510Y-128266805D01*
X206366211Y-128316151D01*
X206366204Y-128316154D01*
X206117886Y-128451746D01*
X206117878Y-128451751D01*
X205891383Y-128621302D01*
X205891365Y-128621318D01*
X205691318Y-128821365D01*
X205691302Y-128821383D01*
X205521751Y-129047878D01*
X205521746Y-129047886D01*
X205386154Y-129296204D01*
X205386152Y-129296208D01*
X205311181Y-129497213D01*
X205298954Y-129529998D01*
X205287273Y-129561315D01*
X205227133Y-129837773D01*
X205227132Y-129837780D01*
X205206947Y-130119998D01*
X205206947Y-130120001D01*
X205227132Y-130402219D01*
X205227133Y-130402226D01*
X205270618Y-130602121D01*
X205287275Y-130678691D01*
X205343194Y-130828616D01*
X205386152Y-130943791D01*
X205386154Y-130943795D01*
X205521746Y-131192113D01*
X205521751Y-131192121D01*
X205691302Y-131418616D01*
X205691318Y-131418634D01*
X205891365Y-131618681D01*
X205891383Y-131618697D01*
X206117878Y-131788248D01*
X206117886Y-131788253D01*
X206366204Y-131923845D01*
X206366208Y-131923847D01*
X206366210Y-131923848D01*
X206604126Y-132012586D01*
X206660057Y-132054455D01*
X206684474Y-132119920D01*
X206684746Y-132125475D01*
X206696612Y-132572396D01*
X206678714Y-132639934D01*
X206627143Y-132687074D01*
X206572352Y-132699687D01*
X166023696Y-132600303D01*
X165956705Y-132580454D01*
X165911080Y-132527538D01*
X165900000Y-132476303D01*
X165900000Y-131631999D01*
X165919685Y-131564960D01*
X165972489Y-131519205D01*
X166023999Y-131507999D01*
X166205372Y-131507999D01*
X166264983Y-131501591D01*
X166399831Y-131451296D01*
X166515046Y-131365046D01*
X166601296Y-131249831D01*
X166651591Y-131114983D01*
X166658000Y-131055373D01*
X166658000Y-129530001D01*
X178196947Y-129530001D01*
X178217132Y-129812219D01*
X178217133Y-129812226D01*
X178277273Y-130088684D01*
X178277275Y-130088691D01*
X178338666Y-130253288D01*
X178376152Y-130353791D01*
X178376154Y-130353795D01*
X178511746Y-130602113D01*
X178511751Y-130602121D01*
X178681302Y-130828616D01*
X178681318Y-130828634D01*
X178881365Y-131028681D01*
X178881383Y-131028697D01*
X179107878Y-131198248D01*
X179107886Y-131198253D01*
X179356204Y-131333845D01*
X179356208Y-131333847D01*
X179356210Y-131333848D01*
X179621309Y-131432725D01*
X179897782Y-131492868D01*
X180158259Y-131511498D01*
X180179999Y-131513053D01*
X180180000Y-131513053D01*
X180180001Y-131513053D01*
X180200186Y-131511609D01*
X180462218Y-131492868D01*
X180738691Y-131432725D01*
X181003790Y-131333848D01*
X181252119Y-131198250D01*
X181478624Y-131028691D01*
X181678691Y-130828624D01*
X181848250Y-130602119D01*
X181983848Y-130353790D01*
X182071047Y-130120001D01*
X189706947Y-130120001D01*
X189727132Y-130402219D01*
X189727133Y-130402226D01*
X189770618Y-130602121D01*
X189787275Y-130678691D01*
X189843194Y-130828616D01*
X189886152Y-130943791D01*
X189886154Y-130943795D01*
X190021746Y-131192113D01*
X190021751Y-131192121D01*
X190191302Y-131418616D01*
X190191318Y-131418634D01*
X190391365Y-131618681D01*
X190391383Y-131618697D01*
X190617878Y-131788248D01*
X190617886Y-131788253D01*
X190866204Y-131923845D01*
X190866208Y-131923847D01*
X190866210Y-131923848D01*
X191131309Y-132022725D01*
X191407782Y-132082868D01*
X191668259Y-132101498D01*
X191689999Y-132103053D01*
X191690000Y-132103053D01*
X191690001Y-132103053D01*
X191710186Y-132101609D01*
X191972218Y-132082868D01*
X192248691Y-132022725D01*
X192513790Y-131923848D01*
X192762119Y-131788250D01*
X192988624Y-131618691D01*
X193188691Y-131418624D01*
X193358250Y-131192119D01*
X193493848Y-130943790D01*
X193592725Y-130678691D01*
X193652868Y-130402218D01*
X193673053Y-130120000D01*
X193652868Y-129837782D01*
X193592725Y-129561309D01*
X193493848Y-129296210D01*
X193467404Y-129247782D01*
X193358253Y-129047886D01*
X193358248Y-129047878D01*
X193188697Y-128821383D01*
X193188681Y-128821365D01*
X192988634Y-128621318D01*
X192988616Y-128621302D01*
X192762121Y-128451751D01*
X192762113Y-128451746D01*
X192513795Y-128316154D01*
X192513791Y-128316152D01*
X192368635Y-128262012D01*
X192248691Y-128217275D01*
X192248687Y-128217274D01*
X192248684Y-128217273D01*
X191972226Y-128157133D01*
X191972219Y-128157132D01*
X191690001Y-128136947D01*
X191689999Y-128136947D01*
X191407780Y-128157132D01*
X191407773Y-128157133D01*
X191131315Y-128217273D01*
X191131310Y-128217274D01*
X191131309Y-128217275D01*
X191093503Y-128231376D01*
X190866208Y-128316152D01*
X190866204Y-128316154D01*
X190617886Y-128451746D01*
X190617878Y-128451751D01*
X190391383Y-128621302D01*
X190391365Y-128621318D01*
X190191318Y-128821365D01*
X190191302Y-128821383D01*
X190021751Y-129047878D01*
X190021746Y-129047886D01*
X189886154Y-129296204D01*
X189886152Y-129296208D01*
X189811181Y-129497213D01*
X189798954Y-129529998D01*
X189787273Y-129561315D01*
X189727133Y-129837773D01*
X189727132Y-129837780D01*
X189706947Y-130119998D01*
X189706947Y-130120001D01*
X182071047Y-130120001D01*
X182082725Y-130088691D01*
X182142868Y-129812218D01*
X182163053Y-129530000D01*
X182142868Y-129247782D01*
X182082725Y-128971309D01*
X181983848Y-128706210D01*
X181937493Y-128621318D01*
X181848253Y-128457886D01*
X181848248Y-128457878D01*
X181678697Y-128231383D01*
X181678681Y-128231365D01*
X181478634Y-128031318D01*
X181478616Y-128031302D01*
X181252121Y-127861751D01*
X181252113Y-127861746D01*
X181003795Y-127726154D01*
X181003791Y-127726152D01*
X180903288Y-127688666D01*
X180738691Y-127627275D01*
X180738687Y-127627274D01*
X180738684Y-127627273D01*
X180462226Y-127567133D01*
X180462219Y-127567132D01*
X180180001Y-127546947D01*
X180179999Y-127546947D01*
X179897780Y-127567132D01*
X179897773Y-127567133D01*
X179621315Y-127627273D01*
X179621310Y-127627274D01*
X179621309Y-127627275D01*
X179557213Y-127651181D01*
X179356208Y-127726152D01*
X179356204Y-127726154D01*
X179107886Y-127861746D01*
X179107878Y-127861751D01*
X178881383Y-128031302D01*
X178881365Y-128031318D01*
X178681318Y-128231365D01*
X178681302Y-128231383D01*
X178511751Y-128457878D01*
X178511746Y-128457886D01*
X178376154Y-128706204D01*
X178376152Y-128706208D01*
X178277273Y-128971315D01*
X178217133Y-129247773D01*
X178217132Y-129247780D01*
X178196947Y-129529998D01*
X178196947Y-129530001D01*
X166658000Y-129530001D01*
X166657999Y-128004628D01*
X166651591Y-127945017D01*
X166620534Y-127861750D01*
X166601297Y-127810171D01*
X166601293Y-127810164D01*
X166515047Y-127694955D01*
X166515044Y-127694952D01*
X166399835Y-127608706D01*
X166399828Y-127608702D01*
X166264982Y-127558408D01*
X166264983Y-127558408D01*
X166205383Y-127552001D01*
X166205381Y-127552000D01*
X166205373Y-127552000D01*
X166205365Y-127552000D01*
X166024000Y-127552000D01*
X165956961Y-127532315D01*
X165911206Y-127479511D01*
X165900000Y-127428000D01*
X165900000Y-119300000D01*
X165378265Y-118900003D01*
X167694435Y-118900003D01*
X167714630Y-119079249D01*
X167714631Y-119079254D01*
X167774211Y-119249523D01*
X167805928Y-119300000D01*
X167870184Y-119402262D01*
X167997738Y-119529816D01*
X168150478Y-119625789D01*
X168320745Y-119685368D01*
X168320754Y-119685369D01*
X168321207Y-119685473D01*
X168321477Y-119685624D01*
X168327318Y-119687668D01*
X168326960Y-119688690D01*
X168382191Y-119719573D01*
X168411377Y-119773017D01*
X168412333Y-119772683D01*
X168414362Y-119778483D01*
X168414523Y-119778777D01*
X168414631Y-119779250D01*
X168414632Y-119779255D01*
X168446538Y-119870437D01*
X168474210Y-119949521D01*
X168474211Y-119949522D01*
X168570184Y-120102262D01*
X168697738Y-120229816D01*
X168850478Y-120325789D01*
X169020739Y-120385366D01*
X169020745Y-120385368D01*
X169020750Y-120385369D01*
X169199996Y-120405565D01*
X169200000Y-120405565D01*
X169200004Y-120405565D01*
X169379249Y-120385369D01*
X169379251Y-120385368D01*
X169379255Y-120385368D01*
X169379258Y-120385366D01*
X169379262Y-120385366D01*
X169509045Y-120339953D01*
X169578824Y-120336391D01*
X169590955Y-120339953D01*
X169720737Y-120385366D01*
X169720743Y-120385367D01*
X169720745Y-120385368D01*
X169720746Y-120385368D01*
X169720750Y-120385369D01*
X169899996Y-120405565D01*
X169900000Y-120405565D01*
X169900004Y-120405565D01*
X170079249Y-120385369D01*
X170079252Y-120385368D01*
X170079255Y-120385368D01*
X170249522Y-120325789D01*
X170402262Y-120229816D01*
X170529816Y-120102262D01*
X170625789Y-119949522D01*
X170682094Y-119788610D01*
X170722816Y-119731835D01*
X170787768Y-119706087D01*
X170799136Y-119705565D01*
X170800003Y-119705565D01*
X170979249Y-119685369D01*
X170979252Y-119685368D01*
X170979255Y-119685368D01*
X171149522Y-119625789D01*
X171302262Y-119529816D01*
X171429816Y-119402262D01*
X171525789Y-119249522D01*
X171585368Y-119079255D01*
X171585369Y-119079249D01*
X171605565Y-118900003D01*
X171605565Y-118899996D01*
X171585369Y-118720750D01*
X171585368Y-118720745D01*
X171525788Y-118550476D01*
X171429815Y-118397737D01*
X171302262Y-118270184D01*
X171149523Y-118174211D01*
X170979254Y-118114631D01*
X170979249Y-118114630D01*
X170800004Y-118094435D01*
X170799996Y-118094435D01*
X170620750Y-118114630D01*
X170620737Y-118114633D01*
X170450480Y-118174209D01*
X170415970Y-118195893D01*
X170348733Y-118214892D01*
X170284030Y-118195893D01*
X170249519Y-118174209D01*
X170079262Y-118114633D01*
X170079249Y-118114630D01*
X169900004Y-118094435D01*
X169899996Y-118094435D01*
X169720750Y-118114630D01*
X169720742Y-118114632D01*
X169590954Y-118160047D01*
X169521175Y-118163608D01*
X169509046Y-118160047D01*
X169379257Y-118114632D01*
X169379249Y-118114630D01*
X169200004Y-118094435D01*
X169199996Y-118094435D01*
X169020750Y-118114630D01*
X169020742Y-118114632D01*
X168890954Y-118160047D01*
X168821175Y-118163608D01*
X168809046Y-118160047D01*
X168679257Y-118114632D01*
X168679249Y-118114630D01*
X168500004Y-118094435D01*
X168499996Y-118094435D01*
X168320750Y-118114630D01*
X168320745Y-118114631D01*
X168150476Y-118174211D01*
X167997737Y-118270184D01*
X167870184Y-118397737D01*
X167774211Y-118550476D01*
X167714631Y-118720745D01*
X167714630Y-118720750D01*
X167694435Y-118899996D01*
X167694435Y-118900003D01*
X165378265Y-118900003D01*
X164475229Y-118207675D01*
X164440190Y-118165563D01*
X164439194Y-118163608D01*
X164339125Y-117967211D01*
X164127876Y-117641916D01*
X163883781Y-117340484D01*
X163609516Y-117066219D01*
X163308084Y-116822124D01*
X163308082Y-116822122D01*
X162982791Y-116610875D01*
X162982788Y-116610874D01*
X162964604Y-116601609D01*
X162913808Y-116553636D01*
X162896901Y-116491886D01*
X162876073Y-113076000D01*
X165994500Y-113076000D01*
X165994501Y-113076009D01*
X166006052Y-113183450D01*
X166006054Y-113183462D01*
X166017260Y-113234972D01*
X166051383Y-113337497D01*
X166051386Y-113337503D01*
X166129171Y-113458537D01*
X166129179Y-113458548D01*
X166174923Y-113511340D01*
X166174926Y-113511343D01*
X166174930Y-113511347D01*
X166283664Y-113605567D01*
X166283667Y-113605568D01*
X166283668Y-113605569D01*
X166377925Y-113648616D01*
X166414541Y-113665338D01*
X166481580Y-113685023D01*
X166481584Y-113685024D01*
X166624000Y-113705500D01*
X166624003Y-113705500D01*
X172775990Y-113705500D01*
X172776000Y-113705500D01*
X172883456Y-113693947D01*
X172934967Y-113682741D01*
X172969197Y-113671347D01*
X173037497Y-113648616D01*
X173037501Y-113648613D01*
X173037504Y-113648613D01*
X173158543Y-113570825D01*
X173211347Y-113525070D01*
X173305567Y-113416336D01*
X173365338Y-113285459D01*
X173385023Y-113218420D01*
X173385024Y-113218416D01*
X173405500Y-113076000D01*
X173405500Y-107324000D01*
X173393947Y-107216544D01*
X173390349Y-107200003D01*
X185694435Y-107200003D01*
X185714630Y-107379249D01*
X185714631Y-107379254D01*
X185774211Y-107549523D01*
X185801090Y-107592300D01*
X185870184Y-107702262D01*
X185997738Y-107829816D01*
X186150478Y-107925789D01*
X186320745Y-107985368D01*
X186320750Y-107985369D01*
X186499996Y-108005565D01*
X186500000Y-108005565D01*
X186500004Y-108005565D01*
X186679249Y-107985369D01*
X186679252Y-107985368D01*
X186679255Y-107985368D01*
X186849522Y-107925789D01*
X187002262Y-107829816D01*
X187129816Y-107702262D01*
X187225789Y-107549522D01*
X187285368Y-107379255D01*
X187291595Y-107323990D01*
X187305565Y-107200003D01*
X187305565Y-107199996D01*
X187285369Y-107020750D01*
X187285366Y-107020737D01*
X187239953Y-106890955D01*
X187236391Y-106821176D01*
X187239953Y-106809045D01*
X187243117Y-106800003D01*
X197394435Y-106800003D01*
X197414630Y-106979249D01*
X197414633Y-106979262D01*
X197474209Y-107149518D01*
X197474213Y-107149527D01*
X197506885Y-107201525D01*
X197525885Y-107268762D01*
X197518935Y-107308444D01*
X197514631Y-107320744D01*
X197514631Y-107320746D01*
X197494435Y-107499996D01*
X197494435Y-107500003D01*
X197514630Y-107679249D01*
X197514631Y-107679254D01*
X197574211Y-107849523D01*
X197659569Y-107985368D01*
X197670184Y-108002262D01*
X197797738Y-108129816D01*
X197950478Y-108225789D01*
X198120745Y-108285368D01*
X198120750Y-108285369D01*
X198299996Y-108305565D01*
X198300000Y-108305565D01*
X198300004Y-108305565D01*
X198479249Y-108285369D01*
X198479252Y-108285368D01*
X198479255Y-108285368D01*
X198649522Y-108225789D01*
X198802262Y-108129816D01*
X198929816Y-108002262D01*
X199025789Y-107849522D01*
X199085368Y-107679255D01*
X199087907Y-107656712D01*
X199114973Y-107592300D01*
X199170174Y-107553553D01*
X199249522Y-107525789D01*
X199402262Y-107429816D01*
X199529816Y-107302262D01*
X199625789Y-107149522D01*
X199685368Y-106979255D01*
X199685369Y-106979249D01*
X199705565Y-106800003D01*
X199705565Y-106799996D01*
X199685369Y-106620750D01*
X199685368Y-106620745D01*
X199672318Y-106583450D01*
X199625789Y-106450478D01*
X199529816Y-106297738D01*
X199402262Y-106170184D01*
X199370897Y-106150476D01*
X199249523Y-106074211D01*
X199079254Y-106014631D01*
X199079249Y-106014630D01*
X198900004Y-105994435D01*
X198899996Y-105994435D01*
X198720750Y-106014630D01*
X198720742Y-106014632D01*
X198590954Y-106060047D01*
X198521175Y-106063608D01*
X198509046Y-106060047D01*
X198379257Y-106014632D01*
X198379249Y-106014630D01*
X198200004Y-105994435D01*
X198199996Y-105994435D01*
X198020750Y-106014630D01*
X198020745Y-106014631D01*
X197850476Y-106074211D01*
X197697737Y-106170184D01*
X197570184Y-106297737D01*
X197474211Y-106450476D01*
X197414631Y-106620745D01*
X197414630Y-106620750D01*
X197394435Y-106799996D01*
X197394435Y-106800003D01*
X187243117Y-106800003D01*
X187285366Y-106679262D01*
X187285369Y-106679249D01*
X187305565Y-106500003D01*
X187305565Y-106499996D01*
X187285369Y-106320750D01*
X187285368Y-106320745D01*
X187225789Y-106150478D01*
X187129816Y-105997738D01*
X187002262Y-105870184D01*
X186849523Y-105774211D01*
X186679254Y-105714631D01*
X186679249Y-105714630D01*
X186500004Y-105694435D01*
X186499996Y-105694435D01*
X186320750Y-105714630D01*
X186320745Y-105714631D01*
X186150476Y-105774211D01*
X185997737Y-105870184D01*
X185870184Y-105997737D01*
X185774211Y-106150476D01*
X185714631Y-106320745D01*
X185714630Y-106320750D01*
X185694435Y-106499996D01*
X185694435Y-106500003D01*
X185714630Y-106679249D01*
X185714632Y-106679257D01*
X185760047Y-106809046D01*
X185763608Y-106878825D01*
X185760047Y-106890954D01*
X185714632Y-107020742D01*
X185714630Y-107020750D01*
X185694435Y-107199996D01*
X185694435Y-107200003D01*
X173390349Y-107200003D01*
X173382741Y-107165033D01*
X173377579Y-107149523D01*
X173348616Y-107062502D01*
X173348613Y-107062496D01*
X173289636Y-106970727D01*
X173269951Y-106903688D01*
X173289635Y-106836648D01*
X173300231Y-106822493D01*
X173305567Y-106816336D01*
X173365338Y-106685459D01*
X173385023Y-106618420D01*
X173385024Y-106618416D01*
X173405500Y-106476000D01*
X173405500Y-100724000D01*
X173393947Y-100616544D01*
X173382741Y-100565033D01*
X173382637Y-100564722D01*
X173348616Y-100462502D01*
X173348613Y-100462496D01*
X173270828Y-100341462D01*
X173270825Y-100341457D01*
X173270820Y-100341451D01*
X173225076Y-100288659D01*
X173225072Y-100288656D01*
X173225070Y-100288653D01*
X173116336Y-100194433D01*
X173116333Y-100194431D01*
X173116331Y-100194430D01*
X172985465Y-100134664D01*
X172985460Y-100134662D01*
X172985459Y-100134662D01*
X172918420Y-100114977D01*
X172918422Y-100114977D01*
X172918417Y-100114976D01*
X172856347Y-100106052D01*
X172776000Y-100094500D01*
X166624000Y-100094500D01*
X166623991Y-100094500D01*
X166623990Y-100094501D01*
X166516549Y-100106052D01*
X166516537Y-100106054D01*
X166465027Y-100117260D01*
X166362502Y-100151383D01*
X166362496Y-100151386D01*
X166241462Y-100229171D01*
X166241451Y-100229179D01*
X166188659Y-100274923D01*
X166094433Y-100383664D01*
X166094430Y-100383668D01*
X166034664Y-100514534D01*
X166014976Y-100581582D01*
X166009949Y-100616549D01*
X165994500Y-100724000D01*
X165994500Y-106476000D01*
X165994501Y-106476009D01*
X166006052Y-106583450D01*
X166006054Y-106583462D01*
X166017260Y-106634972D01*
X166051383Y-106737497D01*
X166051386Y-106737503D01*
X166110363Y-106829272D01*
X166130048Y-106896312D01*
X166110364Y-106963351D01*
X166099762Y-106977513D01*
X166094435Y-106983659D01*
X166094433Y-106983663D01*
X166034663Y-107114537D01*
X166014976Y-107181582D01*
X166002442Y-107268762D01*
X165994500Y-107324000D01*
X165994500Y-113076000D01*
X162876073Y-113076000D01*
X162800000Y-100600000D01*
X161475827Y-99202262D01*
X161034727Y-98736656D01*
X161002911Y-98674451D01*
X161000759Y-98649512D01*
X161002696Y-98520745D01*
X161018045Y-97500003D01*
X163274435Y-97500003D01*
X163294630Y-97679249D01*
X163294631Y-97679254D01*
X163350047Y-97837622D01*
X163353608Y-97907401D01*
X163350047Y-97919531D01*
X163314632Y-98020742D01*
X163314630Y-98020750D01*
X163294435Y-98199996D01*
X163294435Y-98200003D01*
X163314630Y-98379249D01*
X163314631Y-98379254D01*
X163374211Y-98549523D01*
X163437039Y-98649512D01*
X163470184Y-98702262D01*
X163597738Y-98829816D01*
X163750478Y-98925789D01*
X163920739Y-98985366D01*
X163920745Y-98985368D01*
X163920750Y-98985369D01*
X164099996Y-99005565D01*
X164100000Y-99005565D01*
X164100004Y-99005565D01*
X164279249Y-98985369D01*
X164279251Y-98985368D01*
X164279255Y-98985368D01*
X164279258Y-98985366D01*
X164279262Y-98985366D01*
X164409045Y-98939953D01*
X164478824Y-98936391D01*
X164490955Y-98939953D01*
X164620737Y-98985366D01*
X164620743Y-98985367D01*
X164620745Y-98985368D01*
X164620746Y-98985368D01*
X164620750Y-98985369D01*
X164799996Y-99005565D01*
X164800000Y-99005565D01*
X164800004Y-99005565D01*
X164979249Y-98985369D01*
X164979252Y-98985368D01*
X164979255Y-98985368D01*
X164979256Y-98985367D01*
X164979259Y-98985367D01*
X165035978Y-98965519D01*
X165109046Y-98939951D01*
X165178824Y-98936389D01*
X165190956Y-98939952D01*
X165320740Y-98985366D01*
X165320746Y-98985367D01*
X165320748Y-98985368D01*
X165320749Y-98985368D01*
X165320753Y-98985369D01*
X165499999Y-99005565D01*
X165500003Y-99005565D01*
X165500007Y-99005565D01*
X165679252Y-98985369D01*
X165679255Y-98985368D01*
X165679258Y-98985368D01*
X165849525Y-98925789D01*
X166002265Y-98829816D01*
X166129819Y-98702262D01*
X166131238Y-98700003D01*
X177094435Y-98700003D01*
X177114630Y-98879249D01*
X177114631Y-98879254D01*
X177174211Y-99049523D01*
X177196735Y-99085369D01*
X177270184Y-99202262D01*
X177397738Y-99329816D01*
X177550478Y-99425789D01*
X177720745Y-99485368D01*
X177720750Y-99485369D01*
X177899996Y-99505565D01*
X177900000Y-99505565D01*
X177900004Y-99505565D01*
X178079249Y-99485369D01*
X178079252Y-99485368D01*
X178079255Y-99485368D01*
X178249522Y-99425789D01*
X178402262Y-99329816D01*
X178529816Y-99202262D01*
X178625789Y-99049522D01*
X178685368Y-98879255D01*
X178685369Y-98879249D01*
X178705565Y-98700003D01*
X178705565Y-98699996D01*
X178685369Y-98520750D01*
X178685368Y-98520745D01*
X178670848Y-98479249D01*
X178625789Y-98350478D01*
X178594073Y-98300003D01*
X191894435Y-98300003D01*
X191914630Y-98479249D01*
X191914631Y-98479254D01*
X191974211Y-98649523D01*
X192028961Y-98736656D01*
X192070184Y-98802262D01*
X192197738Y-98929816D01*
X192350478Y-99025789D01*
X192418306Y-99049523D01*
X192520745Y-99085368D01*
X192520750Y-99085369D01*
X192699996Y-99105565D01*
X192700000Y-99105565D01*
X192700004Y-99105565D01*
X192879249Y-99085369D01*
X192879251Y-99085368D01*
X192879255Y-99085368D01*
X192879258Y-99085366D01*
X192879262Y-99085366D01*
X193009045Y-99039953D01*
X193078824Y-99036391D01*
X193090955Y-99039953D01*
X193220737Y-99085366D01*
X193220743Y-99085367D01*
X193220745Y-99085368D01*
X193220746Y-99085368D01*
X193220750Y-99085369D01*
X193399996Y-99105565D01*
X193400000Y-99105565D01*
X193400004Y-99105565D01*
X193579249Y-99085369D01*
X193579252Y-99085368D01*
X193579255Y-99085368D01*
X193749522Y-99025789D01*
X193902262Y-98929816D01*
X194029816Y-98802262D01*
X194125789Y-98649522D01*
X194185368Y-98479255D01*
X194185369Y-98479249D01*
X194205565Y-98300003D01*
X194205565Y-98299996D01*
X194185369Y-98120750D01*
X194185366Y-98120737D01*
X194139952Y-97990953D01*
X194136390Y-97921174D01*
X194139949Y-97909051D01*
X194169231Y-97825368D01*
X194185367Y-97779256D01*
X194185369Y-97779246D01*
X194205565Y-97600000D01*
X194205565Y-97599993D01*
X194185369Y-97420747D01*
X194185368Y-97420742D01*
X194171251Y-97380398D01*
X194125789Y-97250475D01*
X194106168Y-97219249D01*
X194071392Y-97163903D01*
X194029816Y-97097735D01*
X193902262Y-96970181D01*
X193898527Y-96967834D01*
X193749523Y-96874208D01*
X193579254Y-96814628D01*
X193579249Y-96814627D01*
X193400004Y-96794432D01*
X193399996Y-96794432D01*
X193220750Y-96814627D01*
X193220745Y-96814628D01*
X193050476Y-96874208D01*
X192897737Y-96970181D01*
X192770184Y-97097734D01*
X192674210Y-97250475D01*
X192614629Y-97420749D01*
X192614517Y-97421244D01*
X192614356Y-97421530D01*
X192612333Y-97427314D01*
X192611318Y-97426959D01*
X192580398Y-97482217D01*
X192526983Y-97511379D01*
X192527317Y-97512333D01*
X192521525Y-97514359D01*
X192521228Y-97514522D01*
X192520747Y-97514631D01*
X192350478Y-97574210D01*
X192197737Y-97670184D01*
X192070184Y-97797737D01*
X191974211Y-97950476D01*
X191914631Y-98120745D01*
X191914630Y-98120750D01*
X191894435Y-98299996D01*
X191894435Y-98300003D01*
X178594073Y-98300003D01*
X178529816Y-98197738D01*
X178402262Y-98070184D01*
X178249523Y-97974211D01*
X178079254Y-97914631D01*
X178079249Y-97914630D01*
X177900004Y-97894435D01*
X177899996Y-97894435D01*
X177720750Y-97914630D01*
X177720745Y-97914631D01*
X177550476Y-97974211D01*
X177397737Y-98070184D01*
X177270184Y-98197737D01*
X177174211Y-98350476D01*
X177114631Y-98520745D01*
X177114630Y-98520750D01*
X177094435Y-98699996D01*
X177094435Y-98700003D01*
X166131238Y-98700003D01*
X166225792Y-98549522D01*
X166285371Y-98379255D01*
X166285372Y-98379249D01*
X166305568Y-98200003D01*
X166305568Y-98199996D01*
X166285372Y-98020750D01*
X166285371Y-98020745D01*
X166269088Y-97974211D01*
X166225792Y-97850478D01*
X166225191Y-97849522D01*
X166129818Y-97697737D01*
X166002265Y-97570184D01*
X165849524Y-97474210D01*
X165679250Y-97414629D01*
X165678756Y-97414517D01*
X165678469Y-97414356D01*
X165672686Y-97412333D01*
X165673040Y-97411318D01*
X165617783Y-97380398D01*
X165588625Y-97326983D01*
X165587668Y-97327318D01*
X165585632Y-97321499D01*
X165585475Y-97321212D01*
X165585369Y-97320748D01*
X165534069Y-97174142D01*
X165525789Y-97150478D01*
X165429816Y-96997738D01*
X165302262Y-96870184D01*
X165213847Y-96814629D01*
X165149523Y-96774211D01*
X164979254Y-96714631D01*
X164979249Y-96714630D01*
X164800004Y-96694435D01*
X164799996Y-96694435D01*
X164620750Y-96714630D01*
X164620737Y-96714633D01*
X164480955Y-96763546D01*
X164411176Y-96767108D01*
X164399045Y-96763546D01*
X164259262Y-96714633D01*
X164259249Y-96714630D01*
X164080004Y-96694435D01*
X164079996Y-96694435D01*
X163900750Y-96714630D01*
X163900745Y-96714631D01*
X163730476Y-96774211D01*
X163577737Y-96870184D01*
X163450184Y-96997737D01*
X163354211Y-97150476D01*
X163294631Y-97320745D01*
X163294630Y-97320750D01*
X163274435Y-97499996D01*
X163274435Y-97500003D01*
X161018045Y-97500003D01*
X161083459Y-93150003D01*
X162064435Y-93150003D01*
X162084630Y-93329249D01*
X162084631Y-93329254D01*
X162144211Y-93499523D01*
X162207347Y-93600003D01*
X162240184Y-93652262D01*
X162367738Y-93779816D01*
X162520478Y-93875789D01*
X162690745Y-93935368D01*
X162690750Y-93935369D01*
X162869996Y-93955565D01*
X162870000Y-93955565D01*
X162870004Y-93955565D01*
X163049249Y-93935369D01*
X163049252Y-93935368D01*
X163049255Y-93935368D01*
X163219522Y-93875789D01*
X163372262Y-93779816D01*
X163499816Y-93652262D01*
X163595789Y-93499522D01*
X163655368Y-93329255D01*
X163656651Y-93317869D01*
X163675565Y-93150003D01*
X163675565Y-93149996D01*
X163655369Y-92970750D01*
X163655368Y-92970745D01*
X163616633Y-92860047D01*
X163595789Y-92800478D01*
X163499816Y-92647738D01*
X163372262Y-92520184D01*
X163219523Y-92424211D01*
X163049254Y-92364631D01*
X163049249Y-92364630D01*
X162870004Y-92344435D01*
X162869996Y-92344435D01*
X162690750Y-92364630D01*
X162690745Y-92364631D01*
X162520476Y-92424211D01*
X162367737Y-92520184D01*
X162240184Y-92647737D01*
X162144211Y-92800476D01*
X162084631Y-92970745D01*
X162084630Y-92970750D01*
X162064435Y-93149996D01*
X162064435Y-93150003D01*
X161083459Y-93150003D01*
X161168421Y-87500003D01*
X161694435Y-87500003D01*
X161714630Y-87679249D01*
X161714631Y-87679254D01*
X161774211Y-87849523D01*
X161870184Y-88002262D01*
X161997738Y-88129816D01*
X162150478Y-88225789D01*
X162303258Y-88279249D01*
X162320745Y-88285368D01*
X162320750Y-88285369D01*
X162499996Y-88305565D01*
X162500000Y-88305565D01*
X162500004Y-88305565D01*
X162679249Y-88285369D01*
X162679252Y-88285368D01*
X162679255Y-88285368D01*
X162849522Y-88225789D01*
X163002262Y-88129816D01*
X163032075Y-88100003D01*
X163594435Y-88100003D01*
X163614630Y-88279249D01*
X163614631Y-88279254D01*
X163674211Y-88449523D01*
X163770184Y-88602262D01*
X163897738Y-88729816D01*
X164050478Y-88825789D01*
X164220745Y-88885368D01*
X164220750Y-88885369D01*
X164399996Y-88905565D01*
X164400000Y-88905565D01*
X164400004Y-88905565D01*
X164579249Y-88885369D01*
X164579252Y-88885368D01*
X164579255Y-88885368D01*
X164749522Y-88825789D01*
X164902262Y-88729816D01*
X165029816Y-88602262D01*
X165125789Y-88449522D01*
X165185368Y-88279255D01*
X165191392Y-88225789D01*
X165205565Y-88100003D01*
X165205565Y-88099996D01*
X165185369Y-87920750D01*
X165185368Y-87920745D01*
X165125788Y-87750476D01*
X165034172Y-87604671D01*
X165029816Y-87597738D01*
X164902262Y-87470184D01*
X164892643Y-87464140D01*
X164749523Y-87374211D01*
X164579254Y-87314631D01*
X164579249Y-87314630D01*
X164400004Y-87294435D01*
X164399996Y-87294435D01*
X164220750Y-87314630D01*
X164220745Y-87314631D01*
X164050476Y-87374211D01*
X163897737Y-87470184D01*
X163770184Y-87597737D01*
X163674211Y-87750476D01*
X163614631Y-87920745D01*
X163614630Y-87920750D01*
X163594435Y-88099996D01*
X163594435Y-88100003D01*
X163032075Y-88100003D01*
X163129816Y-88002262D01*
X163225789Y-87849522D01*
X163285368Y-87679255D01*
X163296295Y-87582274D01*
X163305565Y-87500003D01*
X163305565Y-87499996D01*
X163285369Y-87320750D01*
X163285366Y-87320737D01*
X163223489Y-87143905D01*
X163225637Y-87143153D01*
X163216035Y-87084872D01*
X163224392Y-87056411D01*
X163223489Y-87056095D01*
X163285366Y-86879262D01*
X163285369Y-86879249D01*
X163305565Y-86700003D01*
X163305565Y-86699996D01*
X163285369Y-86520750D01*
X163285368Y-86520745D01*
X163225789Y-86350478D01*
X163225188Y-86349522D01*
X163129815Y-86197737D01*
X163002262Y-86070184D01*
X162849523Y-85974211D01*
X162679254Y-85914631D01*
X162679249Y-85914630D01*
X162500004Y-85894435D01*
X162499996Y-85894435D01*
X162320750Y-85914630D01*
X162320745Y-85914631D01*
X162150476Y-85974211D01*
X161997737Y-86070184D01*
X161870184Y-86197737D01*
X161774211Y-86350476D01*
X161714631Y-86520745D01*
X161714630Y-86520750D01*
X161694435Y-86699996D01*
X161694435Y-86700003D01*
X161714630Y-86879249D01*
X161714633Y-86879262D01*
X161776510Y-87056094D01*
X161774364Y-87056844D01*
X161783962Y-87115144D01*
X161775609Y-87143590D01*
X161776510Y-87143906D01*
X161714633Y-87320737D01*
X161714630Y-87320750D01*
X161694435Y-87499996D01*
X161694435Y-87500003D01*
X161168421Y-87500003D01*
X161199387Y-85440762D01*
X161220077Y-85374027D01*
X161224682Y-85367553D01*
X161231396Y-85358727D01*
X165110000Y-80260000D01*
X165131964Y-77800003D01*
X166194435Y-77800003D01*
X166214630Y-77979249D01*
X166214631Y-77979254D01*
X166274211Y-78149523D01*
X166365500Y-78294807D01*
X166370184Y-78302262D01*
X166497738Y-78429816D01*
X166650478Y-78525789D01*
X166820745Y-78585368D01*
X166820750Y-78585369D01*
X166999996Y-78605565D01*
X167000000Y-78605565D01*
X167000004Y-78605565D01*
X167179249Y-78585369D01*
X167179252Y-78585368D01*
X167179255Y-78585368D01*
X167349522Y-78525789D01*
X167444527Y-78466092D01*
X167511764Y-78447092D01*
X167578599Y-78467459D01*
X167623814Y-78520727D01*
X167634500Y-78571086D01*
X167634500Y-96296949D01*
X167624113Y-96346629D01*
X167464370Y-96711942D01*
X167442933Y-96770595D01*
X167442930Y-96770607D01*
X167442308Y-96774841D01*
X167436668Y-96797765D01*
X167414631Y-96860745D01*
X167414631Y-96860746D01*
X167394435Y-97039996D01*
X167394435Y-97040003D01*
X167414630Y-97219249D01*
X167414631Y-97219254D01*
X167474211Y-97389523D01*
X167550779Y-97511379D01*
X167570184Y-97542262D01*
X167697738Y-97669816D01*
X167850478Y-97765789D01*
X167941783Y-97797738D01*
X168020745Y-97825368D01*
X168020750Y-97825369D01*
X168199996Y-97845565D01*
X168200000Y-97845565D01*
X168200004Y-97845565D01*
X168379249Y-97825369D01*
X168379252Y-97825368D01*
X168379255Y-97825368D01*
X168549522Y-97765789D01*
X168702262Y-97669816D01*
X168829816Y-97542262D01*
X168925789Y-97389522D01*
X168985368Y-97219255D01*
X168985369Y-97219249D01*
X169005565Y-97040003D01*
X169005565Y-97039996D01*
X168985369Y-96860748D01*
X168945594Y-96747079D01*
X168943107Y-96739124D01*
X168935556Y-96711773D01*
X168935553Y-96711766D01*
X168913144Y-96660520D01*
X169861693Y-96660520D01*
X169864183Y-96695253D01*
X169864500Y-96704119D01*
X169864500Y-96904451D01*
X169881483Y-96967834D01*
X169885390Y-96991058D01*
X169895015Y-97125307D01*
X169898754Y-97160324D01*
X169898755Y-97160326D01*
X169899799Y-97163903D01*
X169903983Y-97184753D01*
X169914630Y-97279249D01*
X169974210Y-97449521D01*
X170005926Y-97499996D01*
X170070184Y-97602262D01*
X170197738Y-97729816D01*
X170254987Y-97765788D01*
X170349809Y-97825369D01*
X170350478Y-97825789D01*
X170477706Y-97870308D01*
X170520745Y-97885368D01*
X170520750Y-97885369D01*
X170699996Y-97905565D01*
X170700000Y-97905565D01*
X170700004Y-97905565D01*
X170879249Y-97885369D01*
X170879252Y-97885368D01*
X170879255Y-97885368D01*
X171049522Y-97825789D01*
X171202262Y-97729816D01*
X171329816Y-97602262D01*
X171425789Y-97449522D01*
X171485368Y-97279255D01*
X171488611Y-97250473D01*
X171505565Y-97100003D01*
X171505565Y-97099996D01*
X171485369Y-96920750D01*
X171485368Y-96920745D01*
X171434314Y-96774841D01*
X171425789Y-96750478D01*
X171423653Y-96747079D01*
X171369266Y-96660523D01*
X171329816Y-96597738D01*
X171202262Y-96470184D01*
X171202260Y-96470182D01*
X171202258Y-96470181D01*
X171097269Y-96404211D01*
X171087751Y-96397591D01*
X171085140Y-96395587D01*
X171085136Y-96395584D01*
X171051210Y-96373200D01*
X171006095Y-96319851D01*
X170995500Y-96269699D01*
X170995500Y-95100688D01*
X171015185Y-95033649D01*
X171067989Y-94987894D01*
X171105616Y-94977468D01*
X171124255Y-94975368D01*
X171294522Y-94915789D01*
X171447262Y-94819816D01*
X171574816Y-94692262D01*
X171670789Y-94539522D01*
X171730368Y-94369255D01*
X171734071Y-94336391D01*
X171750565Y-94190003D01*
X171750565Y-94189996D01*
X171730369Y-94010750D01*
X171730368Y-94010745D01*
X171683145Y-93875789D01*
X171670789Y-93840478D01*
X171574816Y-93687738D01*
X171487081Y-93600003D01*
X178994435Y-93600003D01*
X179014630Y-93779249D01*
X179014631Y-93779254D01*
X179074211Y-93949523D01*
X179112680Y-94010745D01*
X179170184Y-94102262D01*
X179297738Y-94229816D01*
X179450478Y-94325789D01*
X179574680Y-94369249D01*
X179620745Y-94385368D01*
X179620750Y-94385369D01*
X179799996Y-94405565D01*
X179800000Y-94405565D01*
X179800004Y-94405565D01*
X179979249Y-94385369D01*
X179979251Y-94385368D01*
X179979255Y-94385368D01*
X179979258Y-94385366D01*
X179979262Y-94385366D01*
X180109045Y-94339953D01*
X180178824Y-94336391D01*
X180190955Y-94339953D01*
X180320737Y-94385366D01*
X180320743Y-94385367D01*
X180320745Y-94385368D01*
X180320746Y-94385368D01*
X180320750Y-94385369D01*
X180499996Y-94405565D01*
X180500000Y-94405565D01*
X180500004Y-94405565D01*
X180679249Y-94385369D01*
X180679251Y-94385368D01*
X180679255Y-94385368D01*
X180679258Y-94385366D01*
X180679262Y-94385366D01*
X180809045Y-94339953D01*
X180878824Y-94336391D01*
X180890955Y-94339953D01*
X181020737Y-94385366D01*
X181020743Y-94385367D01*
X181020745Y-94385368D01*
X181020746Y-94385368D01*
X181020750Y-94385369D01*
X181199996Y-94405565D01*
X181200000Y-94405565D01*
X181200004Y-94405565D01*
X181379249Y-94385369D01*
X181379251Y-94385368D01*
X181379255Y-94385368D01*
X181379258Y-94385366D01*
X181379262Y-94385366D01*
X181509045Y-94339953D01*
X181578824Y-94336391D01*
X181590955Y-94339953D01*
X181720737Y-94385366D01*
X181720743Y-94385367D01*
X181720745Y-94385368D01*
X181720746Y-94385368D01*
X181720750Y-94385369D01*
X181899996Y-94405565D01*
X181900000Y-94405565D01*
X181900004Y-94405565D01*
X182079249Y-94385369D01*
X182079252Y-94385368D01*
X182079255Y-94385368D01*
X182249522Y-94325789D01*
X182402262Y-94229816D01*
X182529816Y-94102262D01*
X182625789Y-93949522D01*
X182685368Y-93779255D01*
X182685369Y-93779249D01*
X182705565Y-93600003D01*
X182705565Y-93599996D01*
X182685369Y-93420750D01*
X182685368Y-93420745D01*
X182625788Y-93250476D01*
X182529815Y-93097737D01*
X182402262Y-92970184D01*
X182249523Y-92874211D01*
X182079254Y-92814631D01*
X182079249Y-92814630D01*
X181900004Y-92794435D01*
X181899996Y-92794435D01*
X181720750Y-92814630D01*
X181720742Y-92814632D01*
X181590954Y-92860047D01*
X181521175Y-92863608D01*
X181509046Y-92860047D01*
X181379257Y-92814632D01*
X181379249Y-92814630D01*
X181200004Y-92794435D01*
X181199996Y-92794435D01*
X181020750Y-92814630D01*
X181020742Y-92814632D01*
X180890954Y-92860047D01*
X180821175Y-92863608D01*
X180809046Y-92860047D01*
X180679257Y-92814632D01*
X180679249Y-92814630D01*
X180500004Y-92794435D01*
X180499996Y-92794435D01*
X180320750Y-92814630D01*
X180320742Y-92814632D01*
X180190954Y-92860047D01*
X180121175Y-92863608D01*
X180109046Y-92860047D01*
X179979257Y-92814632D01*
X179979249Y-92814630D01*
X179800004Y-92794435D01*
X179799996Y-92794435D01*
X179620750Y-92814630D01*
X179620745Y-92814631D01*
X179450476Y-92874211D01*
X179297737Y-92970184D01*
X179170184Y-93097737D01*
X179074211Y-93250476D01*
X179014631Y-93420745D01*
X179014630Y-93420750D01*
X178994435Y-93599996D01*
X178994435Y-93600003D01*
X171487081Y-93600003D01*
X171447262Y-93560184D01*
X171350719Y-93499522D01*
X171294521Y-93464210D01*
X171124249Y-93404630D01*
X171105615Y-93402531D01*
X171041202Y-93375464D01*
X171001647Y-93317869D01*
X170995500Y-93279311D01*
X170995500Y-90440222D01*
X173613387Y-90440222D01*
X173633582Y-90619468D01*
X173633583Y-90619473D01*
X173693163Y-90789742D01*
X173789136Y-90942481D01*
X173916690Y-91070035D01*
X174069430Y-91166008D01*
X174239697Y-91225587D01*
X174239702Y-91225588D01*
X174418948Y-91245784D01*
X174418952Y-91245784D01*
X174418956Y-91245784D01*
X174598201Y-91225588D01*
X174598204Y-91225587D01*
X174598207Y-91225587D01*
X174768474Y-91166008D01*
X174921214Y-91070035D01*
X175048768Y-90942481D01*
X175144741Y-90789741D01*
X175158646Y-90750003D01*
X180584435Y-90750003D01*
X180604630Y-90929249D01*
X180604631Y-90929254D01*
X180664211Y-91099523D01*
X180756114Y-91245784D01*
X180760184Y-91252262D01*
X180887738Y-91379816D01*
X181040478Y-91475789D01*
X181210745Y-91535368D01*
X181210750Y-91535369D01*
X181389996Y-91555565D01*
X181390000Y-91555565D01*
X181390004Y-91555565D01*
X181569249Y-91535369D01*
X181569252Y-91535368D01*
X181569255Y-91535368D01*
X181739522Y-91475789D01*
X181892262Y-91379816D01*
X182019816Y-91252262D01*
X182115789Y-91099522D01*
X182175368Y-90929255D01*
X182175369Y-90929249D01*
X182195565Y-90750003D01*
X182195565Y-90749996D01*
X182175369Y-90570750D01*
X182175368Y-90570745D01*
X182129695Y-90440219D01*
X182115789Y-90400478D01*
X182019816Y-90247738D01*
X181892262Y-90120184D01*
X181845331Y-90090695D01*
X181739523Y-90024211D01*
X181569254Y-89964631D01*
X181569249Y-89964630D01*
X181390004Y-89944435D01*
X181389996Y-89944435D01*
X181210750Y-89964630D01*
X181210745Y-89964631D01*
X181040476Y-90024211D01*
X180887737Y-90120184D01*
X180760184Y-90247737D01*
X180664211Y-90400476D01*
X180604631Y-90570745D01*
X180604630Y-90570750D01*
X180584435Y-90749996D01*
X180584435Y-90750003D01*
X175158646Y-90750003D01*
X175204320Y-90619474D01*
X175209810Y-90570750D01*
X175224517Y-90440222D01*
X175224517Y-90440215D01*
X175204321Y-90260969D01*
X175204320Y-90260964D01*
X175144740Y-90090695D01*
X175048767Y-89937956D01*
X174921214Y-89810403D01*
X174768475Y-89714430D01*
X174598206Y-89654850D01*
X174598201Y-89654849D01*
X174418956Y-89634654D01*
X174418948Y-89634654D01*
X174239702Y-89654849D01*
X174239697Y-89654850D01*
X174069428Y-89714430D01*
X173916689Y-89810403D01*
X173789136Y-89937956D01*
X173693163Y-90090695D01*
X173633583Y-90260964D01*
X173633582Y-90260969D01*
X173613387Y-90440215D01*
X173613387Y-90440222D01*
X170995500Y-90440222D01*
X170995500Y-86935555D01*
X176284749Y-86935555D01*
X176284750Y-86935565D01*
X176295846Y-87041907D01*
X176295846Y-87041909D01*
X176306718Y-87092930D01*
X176306718Y-87092933D01*
X176339935Y-87194562D01*
X176339936Y-87194563D01*
X176416929Y-87316107D01*
X176462337Y-87369209D01*
X176570455Y-87464140D01*
X176700939Y-87524766D01*
X176767848Y-87544889D01*
X176910127Y-87566297D01*
X182771879Y-87604671D01*
X182881023Y-87593479D01*
X182933346Y-87582276D01*
X183037504Y-87547798D01*
X183158543Y-87470010D01*
X183211347Y-87424255D01*
X183305567Y-87315521D01*
X183365338Y-87184644D01*
X183385023Y-87117605D01*
X183385024Y-87117601D01*
X183405500Y-86975185D01*
X183405500Y-86000003D01*
X193194435Y-86000003D01*
X193214630Y-86179249D01*
X193214631Y-86179254D01*
X193274211Y-86349523D01*
X193370184Y-86502262D01*
X193497738Y-86629816D01*
X193650478Y-86725789D01*
X193820745Y-86785368D01*
X193820750Y-86785369D01*
X193999996Y-86805565D01*
X194000000Y-86805565D01*
X194000004Y-86805565D01*
X194179249Y-86785369D01*
X194179252Y-86785368D01*
X194179255Y-86785368D01*
X194349522Y-86725789D01*
X194484029Y-86641272D01*
X194551264Y-86622272D01*
X194615970Y-86641272D01*
X194680720Y-86681957D01*
X194750475Y-86725788D01*
X194920745Y-86785368D01*
X194920750Y-86785369D01*
X195099996Y-86805565D01*
X195100000Y-86805565D01*
X195100004Y-86805565D01*
X195279249Y-86785369D01*
X195279252Y-86785368D01*
X195279255Y-86785368D01*
X195449522Y-86725789D01*
X195602262Y-86629816D01*
X195729816Y-86502262D01*
X195825789Y-86349522D01*
X195885368Y-86179255D01*
X195885369Y-86179249D01*
X195905565Y-86000003D01*
X195905565Y-85999996D01*
X195885369Y-85820750D01*
X195885368Y-85820745D01*
X195825788Y-85650476D01*
X195729815Y-85497737D01*
X195602262Y-85370184D01*
X195449523Y-85274211D01*
X195279254Y-85214631D01*
X195279249Y-85214630D01*
X195100004Y-85194435D01*
X195099996Y-85194435D01*
X194920750Y-85214630D01*
X194920745Y-85214631D01*
X194750476Y-85274211D01*
X194615972Y-85358727D01*
X194548736Y-85377727D01*
X194484028Y-85358727D01*
X194349523Y-85274211D01*
X194179254Y-85214631D01*
X194179249Y-85214630D01*
X194000004Y-85194435D01*
X193999996Y-85194435D01*
X193820750Y-85214630D01*
X193820745Y-85214631D01*
X193650476Y-85274211D01*
X193497737Y-85370184D01*
X193370184Y-85497737D01*
X193274211Y-85650476D01*
X193214631Y-85820745D01*
X193214630Y-85820750D01*
X193194435Y-85999996D01*
X193194435Y-86000003D01*
X183405500Y-86000003D01*
X183405500Y-82224000D01*
X183393947Y-82116544D01*
X183382741Y-82065033D01*
X183382637Y-82064722D01*
X183348616Y-81962502D01*
X183348613Y-81962496D01*
X183270828Y-81841462D01*
X183270825Y-81841457D01*
X183260244Y-81829246D01*
X183225076Y-81788659D01*
X183225072Y-81788656D01*
X183225070Y-81788653D01*
X183116336Y-81694433D01*
X183116333Y-81694431D01*
X183116331Y-81694430D01*
X182985465Y-81634664D01*
X182985460Y-81634662D01*
X182985459Y-81634662D01*
X182925483Y-81617051D01*
X182918417Y-81614976D01*
X182855575Y-81605941D01*
X182776000Y-81594500D01*
X176923751Y-81594500D01*
X176923745Y-81594500D01*
X176816811Y-81605941D01*
X176816807Y-81605942D01*
X176816798Y-81605943D01*
X176816797Y-81605944D01*
X176765513Y-81617046D01*
X176765509Y-81617047D01*
X176765501Y-81617049D01*
X176765493Y-81617051D01*
X176663404Y-81650858D01*
X176663401Y-81650860D01*
X176542214Y-81728397D01*
X176542201Y-81728407D01*
X176489310Y-81774051D01*
X176394868Y-81882600D01*
X176334835Y-82013356D01*
X176318147Y-82069770D01*
X176315629Y-82076141D01*
X176294252Y-82222726D01*
X176294252Y-82222731D01*
X176284863Y-86879262D01*
X176284749Y-86935555D01*
X170995500Y-86935555D01*
X170995500Y-84685599D01*
X171015185Y-84618560D01*
X171031810Y-84597927D01*
X171194459Y-84435278D01*
X171236925Y-84407498D01*
X171608201Y-84262137D01*
X171645341Y-84244882D01*
X171656604Y-84240308D01*
X171669522Y-84235789D01*
X171822262Y-84139816D01*
X171949816Y-84012262D01*
X172045789Y-83859522D01*
X172104921Y-83690529D01*
X172145643Y-83633755D01*
X172210595Y-83608007D01*
X172279157Y-83621463D01*
X172287935Y-83626491D01*
X172350476Y-83665788D01*
X172350478Y-83665789D01*
X172417540Y-83689255D01*
X172520745Y-83725368D01*
X172520750Y-83725369D01*
X172699996Y-83745565D01*
X172700000Y-83745565D01*
X172700004Y-83745565D01*
X172879249Y-83725369D01*
X172879252Y-83725368D01*
X172879255Y-83725368D01*
X173049522Y-83665789D01*
X173202262Y-83569816D01*
X173329816Y-83442262D01*
X173425789Y-83289522D01*
X173485368Y-83119255D01*
X173505565Y-82940000D01*
X173498825Y-82880184D01*
X173485369Y-82760750D01*
X173485368Y-82760748D01*
X173485368Y-82760745D01*
X173448698Y-82655951D01*
X173445136Y-82586177D01*
X173448692Y-82574067D01*
X173485368Y-82469255D01*
X173505565Y-82290000D01*
X173485368Y-82110745D01*
X173450448Y-82010952D01*
X173446886Y-81941177D01*
X173450442Y-81929064D01*
X173485368Y-81829255D01*
X173505468Y-81650860D01*
X173505565Y-81650003D01*
X173505565Y-81649996D01*
X173485369Y-81470750D01*
X173485366Y-81470737D01*
X173439953Y-81340954D01*
X173436391Y-81271175D01*
X173439952Y-81259046D01*
X173483998Y-81133169D01*
X173524719Y-81076394D01*
X173560084Y-81057084D01*
X173649522Y-81025789D01*
X173802262Y-80929816D01*
X173929816Y-80802262D01*
X174025789Y-80649522D01*
X174085368Y-80479255D01*
X174105565Y-80300000D01*
X174101058Y-80260000D01*
X174085369Y-80120750D01*
X174085368Y-80120745D01*
X174047088Y-80011347D01*
X174025789Y-79950478D01*
X173929816Y-79797738D01*
X173802262Y-79670184D01*
X173652370Y-79576000D01*
X176194500Y-79576000D01*
X176194501Y-79576009D01*
X176206052Y-79683450D01*
X176206054Y-79683462D01*
X176217260Y-79734972D01*
X176251383Y-79837497D01*
X176251386Y-79837503D01*
X176329171Y-79958537D01*
X176329179Y-79958548D01*
X176374923Y-80011340D01*
X176374926Y-80011343D01*
X176374930Y-80011347D01*
X176483664Y-80105567D01*
X176483667Y-80105568D01*
X176483668Y-80105569D01*
X176577925Y-80148616D01*
X176614541Y-80165338D01*
X176681580Y-80185023D01*
X176681584Y-80185024D01*
X176824000Y-80205500D01*
X176824003Y-80205500D01*
X181875990Y-80205500D01*
X181876000Y-80205500D01*
X181983456Y-80193947D01*
X182034967Y-80182741D01*
X182069197Y-80171347D01*
X182137497Y-80148616D01*
X182137501Y-80148613D01*
X182137504Y-80148613D01*
X182258543Y-80070825D01*
X182311347Y-80025070D01*
X182405567Y-79916336D01*
X182465338Y-79785459D01*
X182485023Y-79718420D01*
X182485024Y-79718416D01*
X182505500Y-79576000D01*
X182505500Y-76729500D01*
X182493947Y-76622044D01*
X182482741Y-76570533D01*
X182482637Y-76570222D01*
X182448616Y-76468002D01*
X182448613Y-76467997D01*
X182448613Y-76467996D01*
X182419565Y-76422797D01*
X182399881Y-76355760D01*
X182411087Y-76304248D01*
X182465338Y-76185459D01*
X182485023Y-76118420D01*
X182485024Y-76118416D01*
X182505500Y-75976000D01*
X182505500Y-72524000D01*
X182493947Y-72416544D01*
X182482741Y-72365033D01*
X182467000Y-72317738D01*
X182448616Y-72262502D01*
X182448613Y-72262496D01*
X182395900Y-72180474D01*
X182370825Y-72141457D01*
X182355695Y-72123996D01*
X182325076Y-72088659D01*
X182325072Y-72088656D01*
X182325070Y-72088653D01*
X182216336Y-71994433D01*
X182216333Y-71994431D01*
X182216331Y-71994430D01*
X182085465Y-71934664D01*
X182085460Y-71934662D01*
X182085459Y-71934662D01*
X182018420Y-71914977D01*
X182018422Y-71914977D01*
X182018417Y-71914976D01*
X181956347Y-71906052D01*
X181876000Y-71894500D01*
X176824000Y-71894500D01*
X176823991Y-71894500D01*
X176823990Y-71894501D01*
X176716549Y-71906052D01*
X176716537Y-71906054D01*
X176665027Y-71917260D01*
X176562502Y-71951383D01*
X176562496Y-71951386D01*
X176441462Y-72029171D01*
X176441451Y-72029179D01*
X176388659Y-72074923D01*
X176294433Y-72183664D01*
X176294430Y-72183668D01*
X176234664Y-72314534D01*
X176214976Y-72381582D01*
X176209949Y-72416549D01*
X176194500Y-72524000D01*
X176194500Y-75976000D01*
X176194501Y-75976009D01*
X176206052Y-76083450D01*
X176206054Y-76083462D01*
X176217260Y-76134972D01*
X176251383Y-76237497D01*
X176251386Y-76237503D01*
X176280433Y-76282700D01*
X176300118Y-76349740D01*
X176288912Y-76401252D01*
X176234664Y-76520034D01*
X176214976Y-76587082D01*
X176203262Y-76668560D01*
X176194500Y-76729500D01*
X176194500Y-79576000D01*
X173652370Y-79576000D01*
X173649523Y-79574211D01*
X173479254Y-79514631D01*
X173479249Y-79514630D01*
X173300004Y-79494435D01*
X173299996Y-79494435D01*
X173120746Y-79514631D01*
X173120745Y-79514631D01*
X173040953Y-79542551D01*
X172971174Y-79546112D01*
X172959047Y-79542551D01*
X172879253Y-79514631D01*
X172700004Y-79494435D01*
X172699996Y-79494435D01*
X172520750Y-79514630D01*
X172520745Y-79514631D01*
X172350476Y-79574211D01*
X172197737Y-79670184D01*
X172070184Y-79797737D01*
X171974211Y-79950476D01*
X171914631Y-80120745D01*
X171914630Y-80120750D01*
X171894435Y-80299996D01*
X171894435Y-80300003D01*
X171914631Y-80479252D01*
X171951299Y-80584046D01*
X171954860Y-80653825D01*
X171951299Y-80665954D01*
X171914631Y-80770747D01*
X171894435Y-80949996D01*
X171894435Y-80950003D01*
X171914630Y-81129249D01*
X171914632Y-81129257D01*
X171960047Y-81259046D01*
X171963608Y-81328825D01*
X171960047Y-81340954D01*
X171914632Y-81470742D01*
X171914630Y-81470750D01*
X171894435Y-81649996D01*
X171894435Y-81650003D01*
X171914631Y-81829253D01*
X171914631Y-81829254D01*
X171949549Y-81929047D01*
X171953110Y-81998826D01*
X171949549Y-82010953D01*
X171914631Y-82110745D01*
X171914631Y-82110746D01*
X171894435Y-82289996D01*
X171894435Y-82290003D01*
X171914631Y-82469252D01*
X171951299Y-82574046D01*
X171954860Y-82643825D01*
X171951299Y-82655954D01*
X171915078Y-82759469D01*
X171874356Y-82816245D01*
X171809404Y-82841993D01*
X171740842Y-82828537D01*
X171732063Y-82823508D01*
X171669524Y-82784211D01*
X171499254Y-82724631D01*
X171499249Y-82724630D01*
X171320004Y-82704435D01*
X171319996Y-82704435D01*
X171140750Y-82724630D01*
X171140745Y-82724631D01*
X170970476Y-82784211D01*
X170817737Y-82880184D01*
X170690184Y-83007737D01*
X170594211Y-83160478D01*
X170594208Y-83160484D01*
X170584263Y-83188904D01*
X170575083Y-83209119D01*
X170567795Y-83221967D01*
X170567793Y-83221971D01*
X170422500Y-83593071D01*
X170394715Y-83635545D01*
X170082775Y-83947487D01*
X169977488Y-84052773D01*
X169977484Y-84052778D01*
X169903039Y-84181722D01*
X169903038Y-84181723D01*
X169887342Y-84240303D01*
X169864500Y-84325550D01*
X169864500Y-84325552D01*
X169864500Y-96616758D01*
X169864186Y-96625582D01*
X169861693Y-96660520D01*
X168913144Y-96660520D01*
X168775887Y-96346627D01*
X168765500Y-96296947D01*
X168765500Y-76735599D01*
X168785185Y-76668560D01*
X168801814Y-76647923D01*
X171011801Y-74437935D01*
X171073124Y-74404451D01*
X171142816Y-74409435D01*
X171198749Y-74451307D01*
X171216524Y-74484663D01*
X171260047Y-74609046D01*
X171263608Y-74678825D01*
X171260047Y-74690954D01*
X171214632Y-74820742D01*
X171214630Y-74820750D01*
X171194435Y-74999996D01*
X171194435Y-75000003D01*
X171214630Y-75179249D01*
X171214631Y-75179254D01*
X171261548Y-75313333D01*
X171265109Y-75383112D01*
X171261548Y-75395242D01*
X171224631Y-75500747D01*
X171204435Y-75679996D01*
X171204435Y-75680003D01*
X171224630Y-75859249D01*
X171224631Y-75859254D01*
X171284211Y-76029523D01*
X171380184Y-76182262D01*
X171507738Y-76309816D01*
X171660478Y-76405789D01*
X171709090Y-76422799D01*
X171830745Y-76465368D01*
X171830750Y-76465369D01*
X172009996Y-76485565D01*
X172010000Y-76485565D01*
X172010004Y-76485565D01*
X172189249Y-76465369D01*
X172189252Y-76465368D01*
X172189255Y-76465368D01*
X172189256Y-76465367D01*
X172189259Y-76465367D01*
X172234590Y-76449504D01*
X172341135Y-76412222D01*
X172410911Y-76408660D01*
X172448060Y-76424270D01*
X172450476Y-76425788D01*
X172450478Y-76425789D01*
X172563591Y-76465369D01*
X172620745Y-76485368D01*
X172620750Y-76485369D01*
X172799996Y-76505565D01*
X172800000Y-76505565D01*
X172800004Y-76505565D01*
X172979249Y-76485369D01*
X172979252Y-76485368D01*
X172979255Y-76485368D01*
X173149522Y-76425789D01*
X173302262Y-76329816D01*
X173429816Y-76202262D01*
X173525789Y-76049522D01*
X173585368Y-75879255D01*
X173585369Y-75879249D01*
X173605565Y-75700003D01*
X173605565Y-75699996D01*
X173585369Y-75520750D01*
X173585368Y-75520745D01*
X173568587Y-75472789D01*
X173525789Y-75350478D01*
X173525188Y-75349522D01*
X173429815Y-75197737D01*
X173319759Y-75087681D01*
X173286274Y-75026358D01*
X173291258Y-74956666D01*
X173319759Y-74912319D01*
X173429816Y-74802262D01*
X173525789Y-74649522D01*
X173585368Y-74479255D01*
X173588517Y-74451307D01*
X173605565Y-74300003D01*
X173605565Y-74299996D01*
X173585369Y-74120750D01*
X173585368Y-74120745D01*
X173548154Y-74014394D01*
X173525789Y-73950478D01*
X173429816Y-73797738D01*
X173302262Y-73670184D01*
X173149522Y-73574211D01*
X172993433Y-73519593D01*
X172936657Y-73478871D01*
X172910910Y-73413918D01*
X172924366Y-73345356D01*
X172937449Y-73325228D01*
X172939807Y-73322270D01*
X172939816Y-73322262D01*
X173035789Y-73169522D01*
X173095368Y-72999255D01*
X173115565Y-72820000D01*
X173108054Y-72753338D01*
X173095369Y-72640750D01*
X173095368Y-72640745D01*
X173093380Y-72635064D01*
X173035789Y-72470478D01*
X172939816Y-72317738D01*
X172812262Y-72190184D01*
X172801892Y-72183668D01*
X172659523Y-72094211D01*
X172489254Y-72034631D01*
X172489249Y-72034630D01*
X172310004Y-72014435D01*
X172309996Y-72014435D01*
X172130746Y-72034631D01*
X172130745Y-72034631D01*
X172054573Y-72061284D01*
X172044426Y-72064229D01*
X172042929Y-72064736D01*
X172041774Y-72065258D01*
X172031678Y-72069296D01*
X171960483Y-72094209D01*
X171960480Y-72094210D01*
X171960478Y-72094211D01*
X171960476Y-72094211D01*
X171960472Y-72094214D01*
X171923441Y-72117481D01*
X171915606Y-72121692D01*
X171915714Y-72121892D01*
X171911824Y-72123996D01*
X171823533Y-72180254D01*
X171822880Y-72180668D01*
X171803613Y-72192775D01*
X171801376Y-72194372D01*
X171687895Y-72266682D01*
X171653356Y-72281882D01*
X171611726Y-72293037D01*
X171611721Y-72293039D01*
X171482778Y-72367484D01*
X171482773Y-72367488D01*
X167747488Y-76102773D01*
X167747484Y-76102778D01*
X167673039Y-76231722D01*
X167673038Y-76231723D01*
X167659379Y-76282700D01*
X167634500Y-76375550D01*
X167634500Y-76375552D01*
X167634500Y-77028913D01*
X167614815Y-77095952D01*
X167562011Y-77141707D01*
X167492853Y-77151651D01*
X167444528Y-77133907D01*
X167349523Y-77074211D01*
X167179254Y-77014631D01*
X167179249Y-77014630D01*
X167000004Y-76994435D01*
X166999996Y-76994435D01*
X166820750Y-77014630D01*
X166820745Y-77014631D01*
X166650476Y-77074211D01*
X166497737Y-77170184D01*
X166370184Y-77297737D01*
X166274211Y-77450476D01*
X166214631Y-77620745D01*
X166214630Y-77620750D01*
X166194435Y-77799996D01*
X166194435Y-77800003D01*
X165131964Y-77800003D01*
X165209761Y-69086689D01*
X165221198Y-69035773D01*
X165700000Y-68000000D01*
X165657062Y-63835001D01*
X190016947Y-63835001D01*
X190037132Y-64117219D01*
X190037133Y-64117226D01*
X190097273Y-64393684D01*
X190097275Y-64393691D01*
X190158666Y-64558288D01*
X190196152Y-64658791D01*
X190196154Y-64658795D01*
X190331746Y-64907113D01*
X190331751Y-64907121D01*
X190501302Y-65133616D01*
X190501318Y-65133634D01*
X190701365Y-65333681D01*
X190701383Y-65333697D01*
X190927878Y-65503248D01*
X190927886Y-65503253D01*
X191176204Y-65638845D01*
X191176208Y-65638847D01*
X191176210Y-65638848D01*
X191441309Y-65737725D01*
X191717782Y-65797868D01*
X191978259Y-65816498D01*
X191999999Y-65818053D01*
X192000000Y-65818053D01*
X192000001Y-65818053D01*
X192020186Y-65816609D01*
X192282218Y-65797868D01*
X192558691Y-65737725D01*
X192823790Y-65638848D01*
X193072119Y-65503250D01*
X193298624Y-65333691D01*
X193498691Y-65133624D01*
X193668250Y-64907119D01*
X193803848Y-64658790D01*
X193902725Y-64393691D01*
X193962868Y-64117218D01*
X193983053Y-63835000D01*
X193962868Y-63552782D01*
X193902725Y-63276309D01*
X193803848Y-63011210D01*
X193668250Y-62762881D01*
X193668248Y-62762878D01*
X193498697Y-62536383D01*
X193498681Y-62536365D01*
X193298634Y-62336318D01*
X193298616Y-62336302D01*
X193072121Y-62166751D01*
X193072113Y-62166746D01*
X192823795Y-62031154D01*
X192823791Y-62031152D01*
X192723288Y-61993666D01*
X192558691Y-61932275D01*
X192558687Y-61932274D01*
X192558684Y-61932273D01*
X192282226Y-61872133D01*
X192282219Y-61872132D01*
X192000001Y-61851947D01*
X191999999Y-61851947D01*
X191717780Y-61872132D01*
X191717773Y-61872133D01*
X191441315Y-61932273D01*
X191441310Y-61932274D01*
X191441309Y-61932275D01*
X191377213Y-61956181D01*
X191176208Y-62031152D01*
X191176204Y-62031154D01*
X190927886Y-62166746D01*
X190927878Y-62166751D01*
X190701383Y-62336302D01*
X190701365Y-62336318D01*
X190501318Y-62536365D01*
X190501302Y-62536383D01*
X190331751Y-62762878D01*
X190331746Y-62762886D01*
X190196154Y-63011204D01*
X190196152Y-63011208D01*
X190097273Y-63276315D01*
X190037133Y-63552773D01*
X190037132Y-63552780D01*
X190016947Y-63834998D01*
X190016947Y-63835001D01*
X165657062Y-63835001D01*
X165601294Y-58425581D01*
X165620286Y-58358345D01*
X165672615Y-58312049D01*
X165725587Y-58300306D01*
X206478365Y-58399703D01*
G37*
%TD.AperFunction*%
%TD*%
%TA.AperFunction,Conductor*%
%TO.N,VFB*%
G36*
X168265619Y-96443427D02*
G01*
X168268066Y-96447012D01*
X168472398Y-96914296D01*
X168472573Y-96923250D01*
X168466366Y-96929704D01*
X168466189Y-96929780D01*
X168204511Y-97039115D01*
X168195556Y-97039142D01*
X168195489Y-97039115D01*
X167933810Y-96929780D01*
X167927498Y-96923428D01*
X167927525Y-96914473D01*
X167927553Y-96914405D01*
X168131934Y-96447012D01*
X168138388Y-96440805D01*
X168142654Y-96440000D01*
X168257346Y-96440000D01*
X168265619Y-96443427D01*
G37*
%TD.AperFunction*%
%TD*%
%TA.AperFunction,Conductor*%
%TO.N,VFB*%
G36*
X172199625Y-72553886D02*
G01*
X172200554Y-72555662D01*
X172308827Y-72814793D01*
X172308854Y-72823748D01*
X172308835Y-72823795D01*
X172199482Y-73086850D01*
X172193142Y-73093174D01*
X172184694Y-73093360D01*
X171793557Y-72951700D01*
X171789268Y-72948972D01*
X171709492Y-72869196D01*
X171706065Y-72860923D01*
X171709492Y-72852650D01*
X171711468Y-72851063D01*
X172183472Y-72550305D01*
X172192289Y-72548750D01*
X172199625Y-72553886D01*
G37*
%TD.AperFunction*%
%TD*%
%TA.AperFunction,Conductor*%
%TO.N,Net-(IC1-EN)*%
G36*
X170497931Y-96613771D02*
G01*
X170806752Y-96817523D01*
X170811771Y-96824940D01*
X170811124Y-96831753D01*
X170702997Y-97093737D01*
X170696673Y-97100077D01*
X170692143Y-97100973D01*
X170410854Y-97100036D01*
X170402592Y-97096582D01*
X170399223Y-97089174D01*
X170365899Y-96624374D01*
X170368725Y-96615877D01*
X170376732Y-96611867D01*
X170377569Y-96611837D01*
X170491488Y-96611837D01*
X170497931Y-96613771D01*
G37*
%TD.AperFunction*%
%TD*%
%TA.AperFunction,Conductor*%
%TO.N,Net-(IC1-EN)*%
G36*
X171053768Y-83399683D02*
G01*
X171246594Y-83478861D01*
X171316184Y-83507436D01*
X171322536Y-83513748D01*
X171322563Y-83513815D01*
X171430287Y-83776161D01*
X171430260Y-83785116D01*
X171423908Y-83791428D01*
X171423729Y-83791500D01*
X170948823Y-83977434D01*
X170939870Y-83977259D01*
X170936285Y-83974812D01*
X170855187Y-83893714D01*
X170851760Y-83885441D01*
X170852565Y-83881176D01*
X170893680Y-83776161D01*
X171038500Y-83406268D01*
X171044706Y-83399815D01*
X171053659Y-83399640D01*
X171053768Y-83399683D01*
G37*
%TD.AperFunction*%
%TD*%
M02*
