<?xml version="1.0" standalone="no"?>
 <!DOCTYPE svg PUBLIC "-//W3C//DTD SVG 1.1//EN" 
 "http://www.w3.org/Graphics/SVG/1.1/DTD/svg11.dtd"> 
<svg
  xmlns:svg="http://www.w3.org/2000/svg"
  xmlns="http://www.w3.org/2000/svg"
  xmlns:xlink="http://www.w3.org/1999/xlink"
  version="1.1"
  width="297.0022mm" height="210.0072mm" viewBox="0.0000 0.0000 297.0022 210.0072">
<title>SVG Image created as SEPIC-A-F_Silkscreen.svg date 2024/09/18 14:40:37 </title>
  <desc>Image generated by PCBNEW </desc>
<g style="fill:#000000; fill-opacity:1.0000;stroke:#000000; stroke-opacity:1.0000;
stroke-linecap:round; stroke-linejoin:round;"
 transform="translate(0 0) scale(1 1)">
<path style="fill:none; 
stroke:#F2EDA1; stroke-width:0.1000; stroke-opacity:1; 
stroke-linecap:round; stroke-linejoin:round;fill:none"
d="M 157.2100,57.6500
214.8700,57.6500
214.8700,135.6800
157.2100,135.6800
Z" /> 
</g>
<g style="fill:none; 
stroke:#F2EDA1; stroke-width:0.1000; stroke-opacity:1; 
stroke-linecap:round; stroke-linejoin:round;">
<text x="194.7000" y="121.3250"
textLength="9.9571" font-size="1.3333" lengthAdjust="spacingAndGlyphs"
text-anchor="start" opacity="0">Kardos Milán</text>
<g class="stroked-text"><desc>Kardos Milán</desc>
<path d="M195.0039 121.1974
L195.0039 120.1974
" />
<path d="M195.5753 121.1974
L195.1467 120.6260
" />
<path d="M195.5753 120.1974
L195.0039 120.7688
" />
<path d="M196.4325 121.1974
L196.4325 120.6736
" />
<path d="M196.4325 120.6736
L196.3848 120.5784
" />
<path d="M196.3848 120.5784
L196.2896 120.5308
" />
<path d="M196.2896 120.5308
L196.0991 120.5308
" />
<path d="M196.0991 120.5308
L196.0039 120.5784
" />
<path d="M196.4325 121.1498
L196.3372 121.1974
" />
<path d="M196.3372 121.1974
L196.0991 121.1974
" />
<path d="M196.0991 121.1974
L196.0039 121.1498
" />
<path d="M196.0039 121.1498
L195.9563 121.0546
" />
<path d="M195.9563 121.0546
L195.9563 120.9593
" />
<path d="M195.9563 120.9593
L196.0039 120.8641
" />
<path d="M196.0039 120.8641
L196.0991 120.8165
" />
<path d="M196.0991 120.8165
L196.3372 120.8165
" />
<path d="M196.3372 120.8165
L196.4325 120.7688
" />
<path d="M196.9086 121.1974
L196.9086 120.5308
" />
<path d="M196.9086 120.7212
L196.9563 120.6260
" />
<path d="M196.9563 120.6260
L197.0039 120.5784
" />
<path d="M197.0039 120.5784
L197.0991 120.5308
" />
<path d="M197.0991 120.5308
L197.1944 120.5308
" />
<path d="M197.9563 121.1974
L197.9563 120.1974
" />
<path d="M197.9563 121.1498
L197.8610 121.1974
" />
<path d="M197.8610 121.1974
L197.6706 121.1974
" />
<path d="M197.6706 121.1974
L197.5753 121.1498
" />
<path d="M197.5753 121.1498
L197.5277 121.1022
" />
<path d="M197.5277 121.1022
L197.4801 121.0069
" />
<path d="M197.4801 121.0069
L197.4801 120.7212
" />
<path d="M197.4801 120.7212
L197.5277 120.6260
" />
<path d="M197.5277 120.6260
L197.5753 120.5784
" />
<path d="M197.5753 120.5784
L197.6706 120.5308
" />
<path d="M197.6706 120.5308
L197.8610 120.5308
" />
<path d="M197.8610 120.5308
L197.9563 120.5784
" />
<path d="M198.5753 121.1974
L198.4801 121.1498
" />
<path d="M198.4801 121.1498
L198.4325 121.1022
" />
<path d="M198.4325 121.1022
L198.3848 121.0069
" />
<path d="M198.3848 121.0069
L198.3848 120.7212
" />
<path d="M198.3848 120.7212
L198.4325 120.6260
" />
<path d="M198.4325 120.6260
L198.4801 120.5784
" />
<path d="M198.4801 120.5784
L198.5753 120.5308
" />
<path d="M198.5753 120.5308
L198.7182 120.5308
" />
<path d="M198.7182 120.5308
L198.8134 120.5784
" />
<path d="M198.8134 120.5784
L198.8610 120.6260
" />
<path d="M198.8610 120.6260
L198.9086 120.7212
" />
<path d="M198.9086 120.7212
L198.9086 121.0069
" />
<path d="M198.9086 121.0069
L198.8610 121.1022
" />
<path d="M198.8610 121.1022
L198.8134 121.1498
" />
<path d="M198.8134 121.1498
L198.7182 121.1974
" />
<path d="M198.7182 121.1974
L198.5753 121.1974
" />
<path d="M199.2896 121.1498
L199.3848 121.1974
" />
<path d="M199.3848 121.1974
L199.5753 121.1974
" />
<path d="M199.5753 121.1974
L199.6706 121.1498
" />
<path d="M199.6706 121.1498
L199.7182 121.0546
" />
<path d="M199.7182 121.0546
L199.7182 121.0069
" />
<path d="M199.7182 121.0069
L199.6706 120.9117
" />
<path d="M199.6706 120.9117
L199.5753 120.8641
" />
<path d="M199.5753 120.8641
L199.4325 120.8641
" />
<path d="M199.4325 120.8641
L199.3372 120.8165
" />
<path d="M199.3372 120.8165
L199.2896 120.7212
" />
<path d="M199.2896 120.7212
L199.2896 120.6736
" />
<path d="M199.2896 120.6736
L199.3372 120.5784
" />
<path d="M199.3372 120.5784
L199.4325 120.5308
" />
<path d="M199.4325 120.5308
L199.5753 120.5308
" />
<path d="M199.5753 120.5308
L199.6706 120.5784
" />
<path d="M200.9086 121.1974
L200.9086 120.1974
" />
<path d="M200.9086 120.1974
L201.2420 120.9117
" />
<path d="M201.2420 120.9117
L201.5753 120.1974
" />
<path d="M201.5753 120.1974
L201.5753 121.1974
" />
<path d="M202.0515 121.1974
L202.0515 120.5308
" />
<path d="M202.0515 120.1974
L202.0039 120.2450
" />
<path d="M202.0039 120.2450
L202.0515 120.2927
" />
<path d="M202.0515 120.2927
L202.0991 120.2450
" />
<path d="M202.0991 120.2450
L202.0515 120.1974
" />
<path d="M202.0515 120.1974
L202.0515 120.2927
" />
<path d="M202.6706 121.1974
L202.5753 121.1498
" />
<path d="M202.5753 121.1498
L202.5277 121.0546
" />
<path d="M202.5277 121.0546
L202.5277 120.1974
" />
<path d="M203.4801 121.1974
L203.4801 120.6736
" />
<path d="M203.4801 120.6736
L203.4325 120.5784
" />
<path d="M203.4325 120.5784
L203.3372 120.5308
" />
<path d="M203.3372 120.5308
L203.1467 120.5308
" />
<path d="M203.1467 120.5308
L203.0515 120.5784
" />
<path d="M203.4801 121.1498
L203.3848 121.1974
" />
<path d="M203.3848 121.1974
L203.1467 121.1974
" />
<path d="M203.1467 121.1974
L203.0515 121.1498
" />
<path d="M203.0515 121.1498
L203.0039 121.0546
" />
<path d="M203.0039 121.0546
L203.0039 120.9593
" />
<path d="M203.0039 120.9593
L203.0515 120.8641
" />
<path d="M203.0515 120.8641
L203.1467 120.8165
" />
<path d="M203.1467 120.8165
L203.3848 120.8165
" />
<path d="M203.3848 120.8165
L203.4801 120.7688
" />
<path d="M203.3372 120.1498
L203.1944 120.2927
" />
<path d="M203.9563 120.5308
L203.9563 121.1974
" />
<path d="M203.9563 120.6260
L204.0039 120.5784
" />
<path d="M204.0039 120.5784
L204.0991 120.5308
" />
<path d="M204.0991 120.5308
L204.2420 120.5308
" />
<path d="M204.2420 120.5308
L204.3372 120.5784
" />
<path d="M204.3372 120.5784
L204.3848 120.6736
" />
<path d="M204.3848 120.6736
L204.3848 121.1974
" />
</g><text x="191.2250" y="122.9500"
textLength="13.5762" font-size="1.3333" lengthAdjust="spacingAndGlyphs"
text-anchor="start" opacity="0">Robert Bosch Kft.</text>
<g class="stroked-text"><desc>Robert Bosch Kft.</desc>
<path d="M192.1003 122.8224
L191.7670 122.3462
" />
<path d="M191.5289 122.8224
L191.5289 121.8224
" />
<path d="M191.5289 121.8224
L191.9098 121.8224
" />
<path d="M191.9098 121.8224
L192.0051 121.8700
" />
<path d="M192.0051 121.8700
L192.0527 121.9177
" />
<path d="M192.0527 121.9177
L192.1003 122.0129
" />
<path d="M192.1003 122.0129
L192.1003 122.1558
" />
<path d="M192.1003 122.1558
L192.0527 122.2510
" />
<path d="M192.0527 122.2510
L192.0051 122.2986
" />
<path d="M192.0051 122.2986
L191.9098 122.3462
" />
<path d="M191.9098 122.3462
L191.5289 122.3462
" />
<path d="M192.6717 122.8224
L192.5765 122.7748
" />
<path d="M192.5765 122.7748
L192.5289 122.7272
" />
<path d="M192.5289 122.7272
L192.4813 122.6319
" />
<path d="M192.4813 122.6319
L192.4813 122.3462
" />
<path d="M192.4813 122.3462
L192.5289 122.2510
" />
<path d="M192.5289 122.2510
L192.5765 122.2034
" />
<path d="M192.5765 122.2034
L192.6717 122.1558
" />
<path d="M192.6717 122.1558
L192.8146 122.1558
" />
<path d="M192.8146 122.1558
L192.9098 122.2034
" />
<path d="M192.9098 122.2034
L192.9575 122.2510
" />
<path d="M192.9575 122.2510
L193.0051 122.3462
" />
<path d="M193.0051 122.3462
L193.0051 122.6319
" />
<path d="M193.0051 122.6319
L192.9575 122.7272
" />
<path d="M192.9575 122.7272
L192.9098 122.7748
" />
<path d="M192.9098 122.7748
L192.8146 122.8224
" />
<path d="M192.8146 122.8224
L192.6717 122.8224
" />
<path d="M193.4336 122.8224
L193.4336 121.8224
" />
<path d="M193.4336 122.2034
L193.5289 122.1558
" />
<path d="M193.5289 122.1558
L193.7194 122.1558
" />
<path d="M193.7194 122.1558
L193.8146 122.2034
" />
<path d="M193.8146 122.2034
L193.8622 122.2510
" />
<path d="M193.8622 122.2510
L193.9098 122.3462
" />
<path d="M193.9098 122.3462
L193.9098 122.6319
" />
<path d="M193.9098 122.6319
L193.8622 122.7272
" />
<path d="M193.8622 122.7272
L193.8146 122.7748
" />
<path d="M193.8146 122.7748
L193.7194 122.8224
" />
<path d="M193.7194 122.8224
L193.5289 122.8224
" />
<path d="M193.5289 122.8224
L193.4336 122.7748
" />
<path d="M194.7194 122.7748
L194.6241 122.8224
" />
<path d="M194.6241 122.8224
L194.4336 122.8224
" />
<path d="M194.4336 122.8224
L194.3384 122.7748
" />
<path d="M194.3384 122.7748
L194.2908 122.6796
" />
<path d="M194.2908 122.6796
L194.2908 122.2986
" />
<path d="M194.2908 122.2986
L194.3384 122.2034
" />
<path d="M194.3384 122.2034
L194.4336 122.1558
" />
<path d="M194.4336 122.1558
L194.6241 122.1558
" />
<path d="M194.6241 122.1558
L194.7194 122.2034
" />
<path d="M194.7194 122.2034
L194.7670 122.2986
" />
<path d="M194.7670 122.2986
L194.7670 122.3938
" />
<path d="M194.7670 122.3938
L194.2908 122.4891
" />
<path d="M195.1956 122.8224
L195.1956 122.1558
" />
<path d="M195.1956 122.3462
L195.2432 122.2510
" />
<path d="M195.2432 122.2510
L195.2908 122.2034
" />
<path d="M195.2908 122.2034
L195.3860 122.1558
" />
<path d="M195.3860 122.1558
L195.4813 122.1558
" />
<path d="M195.6717 122.1558
L196.0527 122.1558
" />
<path d="M195.8146 121.8224
L195.8146 122.6796
" />
<path d="M195.8146 122.6796
L195.8622 122.7748
" />
<path d="M195.8622 122.7748
L195.9575 122.8224
" />
<path d="M195.9575 122.8224
L196.0527 122.8224
" />
<path d="M197.4813 122.2986
L197.6241 122.3462
" />
<path d="M197.6241 122.3462
L197.6717 122.3938
" />
<path d="M197.6717 122.3938
L197.7194 122.4891
" />
<path d="M197.7194 122.4891
L197.7194 122.6319
" />
<path d="M197.7194 122.6319
L197.6717 122.7272
" />
<path d="M197.6717 122.7272
L197.6241 122.7748
" />
<path d="M197.6241 122.7748
L197.5289 122.8224
" />
<path d="M197.5289 122.8224
L197.1479 122.8224
" />
<path d="M197.1479 122.8224
L197.1479 121.8224
" />
<path d="M197.1479 121.8224
L197.4813 121.8224
" />
<path d="M197.4813 121.8224
L197.5765 121.8700
" />
<path d="M197.5765 121.8700
L197.6241 121.9177
" />
<path d="M197.6241 121.9177
L197.6717 122.0129
" />
<path d="M197.6717 122.0129
L197.6717 122.1081
" />
<path d="M197.6717 122.1081
L197.6241 122.2034
" />
<path d="M197.6241 122.2034
L197.5765 122.2510
" />
<path d="M197.5765 122.2510
L197.4813 122.2986
" />
<path d="M197.4813 122.2986
L197.1479 122.2986
" />
<path d="M198.2908 122.8224
L198.1956 122.7748
" />
<path d="M198.1956 122.7748
L198.1479 122.7272
" />
<path d="M198.1479 122.7272
L198.1003 122.6319
" />
<path d="M198.1003 122.6319
L198.1003 122.3462
" />
<path d="M198.1003 122.3462
L198.1479 122.2510
" />
<path d="M198.1479 122.2510
L198.1956 122.2034
" />
<path d="M198.1956 122.2034
L198.2908 122.1558
" />
<path d="M198.2908 122.1558
L198.4336 122.1558
" />
<path d="M198.4336 122.1558
L198.5289 122.2034
" />
<path d="M198.5289 122.2034
L198.5765 122.2510
" />
<path d="M198.5765 122.2510
L198.6241 122.3462
" />
<path d="M198.6241 122.3462
L198.6241 122.6319
" />
<path d="M198.6241 122.6319
L198.5765 122.7272
" />
<path d="M198.5765 122.7272
L198.5289 122.7748
" />
<path d="M198.5289 122.7748
L198.4336 122.8224
" />
<path d="M198.4336 122.8224
L198.2908 122.8224
" />
<path d="M199.0051 122.7748
L199.1003 122.8224
" />
<path d="M199.1003 122.8224
L199.2908 122.8224
" />
<path d="M199.2908 122.8224
L199.3860 122.7748
" />
<path d="M199.3860 122.7748
L199.4336 122.6796
" />
<path d="M199.4336 122.6796
L199.4336 122.6319
" />
<path d="M199.4336 122.6319
L199.3860 122.5367
" />
<path d="M199.3860 122.5367
L199.2908 122.4891
" />
<path d="M199.2908 122.4891
L199.1479 122.4891
" />
<path d="M199.1479 122.4891
L199.0527 122.4415
" />
<path d="M199.0527 122.4415
L199.0051 122.3462
" />
<path d="M199.0051 122.3462
L199.0051 122.2986
" />
<path d="M199.0051 122.2986
L199.0527 122.2034
" />
<path d="M199.0527 122.2034
L199.1479 122.1558
" />
<path d="M199.1479 122.1558
L199.2908 122.1558
" />
<path d="M199.2908 122.1558
L199.3860 122.2034
" />
<path d="M200.2908 122.7748
L200.1956 122.8224
" />
<path d="M200.1956 122.8224
L200.0051 122.8224
" />
<path d="M200.0051 122.8224
L199.9098 122.7748
" />
<path d="M199.9098 122.7748
L199.8622 122.7272
" />
<path d="M199.8622 122.7272
L199.8146 122.6319
" />
<path d="M199.8146 122.6319
L199.8146 122.3462
" />
<path d="M199.8146 122.3462
L199.8622 122.2510
" />
<path d="M199.8622 122.2510
L199.9098 122.2034
" />
<path d="M199.9098 122.2034
L200.0051 122.1558
" />
<path d="M200.0051 122.1558
L200.1956 122.1558
" />
<path d="M200.1956 122.1558
L200.2908 122.2034
" />
<path d="M200.7194 122.8224
L200.7194 121.8224
" />
<path d="M201.1479 122.8224
L201.1479 122.2986
" />
<path d="M201.1479 122.2986
L201.1003 122.2034
" />
<path d="M201.1003 122.2034
L201.0051 122.1558
" />
<path d="M201.0051 122.1558
L200.8622 122.1558
" />
<path d="M200.8622 122.1558
L200.7670 122.2034
" />
<path d="M200.7670 122.2034
L200.7194 122.2510
" />
<path d="M202.3860 122.8224
L202.3860 121.8224
" />
<path d="M202.9575 122.8224
L202.5289 122.2510
" />
<path d="M202.9575 121.8224
L202.3860 122.3938
" />
<path d="M203.2432 122.1558
L203.6241 122.1558
" />
<path d="M203.3860 122.8224
L203.3860 121.9653
" />
<path d="M203.3860 121.9653
L203.4336 121.8700
" />
<path d="M203.4336 121.8700
L203.5289 121.8224
" />
<path d="M203.5289 121.8224
L203.6241 121.8224
" />
<path d="M203.8146 122.1558
L204.1956 122.1558
" />
<path d="M203.9575 121.8224
L203.9575 122.6796
" />
<path d="M203.9575 122.6796
L204.0051 122.7748
" />
<path d="M204.0051 122.7748
L204.1003 122.8224
" />
<path d="M204.1003 122.8224
L204.1956 122.8224
" />
<path d="M204.5289 122.7272
L204.5765 122.7748
" />
<path d="M204.5765 122.7748
L204.5289 122.8224
" />
<path d="M204.5289 122.8224
L204.4813 122.7748
" />
<path d="M204.4813 122.7748
L204.5289 122.7272
" />
<path d="M204.5289 122.7272
L204.5289 122.8224
" />
</g></g>
<g style="fill:none; 
stroke:#F2EDA1; stroke-width:0.6000; stroke-opacity:1; 
stroke-linecap:round; stroke-linejoin:round;">
<text x="184.9250" y="119.4250"
textLength="20.4857" font-size="4.0000" lengthAdjust="spacingAndGlyphs"
text-anchor="start" opacity="0">SEPIC-A</text>
<g class="stroked-text"><desc>SEPIC-A</desc>
<path d="M185.8912 118.8838
L186.3197 119.0267
" />
<path d="M186.3197 119.0267
L187.0340 119.0267
" />
<path d="M187.0340 119.0267
L187.3197 118.8838
" />
<path d="M187.3197 118.8838
L187.4626 118.7409
" />
<path d="M187.4626 118.7409
L187.6054 118.4552
" />
<path d="M187.6054 118.4552
L187.6054 118.1695
" />
<path d="M187.6054 118.1695
L187.4626 117.8838
" />
<path d="M187.4626 117.8838
L187.3197 117.7409
" />
<path d="M187.3197 117.7409
L187.0340 117.5981
" />
<path d="M187.0340 117.5981
L186.4626 117.4552
" />
<path d="M186.4626 117.4552
L186.1769 117.3124
" />
<path d="M186.1769 117.3124
L186.0340 117.1695
" />
<path d="M186.0340 117.1695
L185.8912 116.8838
" />
<path d="M185.8912 116.8838
L185.8912 116.5981
" />
<path d="M185.8912 116.5981
L186.0340 116.3124
" />
<path d="M186.0340 116.3124
L186.1769 116.1695
" />
<path d="M186.1769 116.1695
L186.4626 116.0267
" />
<path d="M186.4626 116.0267
L187.1769 116.0267
" />
<path d="M187.1769 116.0267
L187.6054 116.1695
" />
<path d="M188.8912 117.4552
L189.8912 117.4552
" />
<path d="M190.3197 119.0267
L188.8912 119.0267
" />
<path d="M188.8912 119.0267
L188.8912 116.0267
" />
<path d="M188.8912 116.0267
L190.3197 116.0267
" />
<path d="M191.6054 119.0267
L191.6054 116.0267
" />
<path d="M191.6054 116.0267
L192.7483 116.0267
" />
<path d="M192.7483 116.0267
L193.0340 116.1695
" />
<path d="M193.0340 116.1695
L193.1769 116.3124
" />
<path d="M193.1769 116.3124
L193.3197 116.5981
" />
<path d="M193.3197 116.5981
L193.3197 117.0267
" />
<path d="M193.3197 117.0267
L193.1769 117.3124
" />
<path d="M193.1769 117.3124
L193.0340 117.4552
" />
<path d="M193.0340 117.4552
L192.7483 117.5981
" />
<path d="M192.7483 117.5981
L191.6054 117.5981
" />
<path d="M194.6054 119.0267
L194.6054 116.0267
" />
<path d="M197.7483 118.7409
L197.6054 118.8838
" />
<path d="M197.6054 118.8838
L197.1769 119.0267
" />
<path d="M197.1769 119.0267
L196.8912 119.0267
" />
<path d="M196.8912 119.0267
L196.4626 118.8838
" />
<path d="M196.4626 118.8838
L196.1769 118.5981
" />
<path d="M196.1769 118.5981
L196.0340 118.3124
" />
<path d="M196.0340 118.3124
L195.8912 117.7409
" />
<path d="M195.8912 117.7409
L195.8912 117.3124
" />
<path d="M195.8912 117.3124
L196.0340 116.7409
" />
<path d="M196.0340 116.7409
L196.1769 116.4552
" />
<path d="M196.1769 116.4552
L196.4626 116.1695
" />
<path d="M196.4626 116.1695
L196.8912 116.0267
" />
<path d="M196.8912 116.0267
L197.1769 116.0267
" />
<path d="M197.1769 116.0267
L197.6054 116.1695
" />
<path d="M197.6054 116.1695
L197.7483 116.3124
" />
<path d="M199.0340 117.8838
L201.3197 117.8838
" />
<path d="M202.6054 118.1695
L204.0340 118.1695
" />
<path d="M202.3197 119.0267
L203.3197 116.0267
" />
<path d="M203.3197 116.0267
L204.3197 119.0267
" />
</g></g>
<g style="fill:none; 
stroke:#F2EDA1; stroke-width:0.1200; stroke-opacity:1; 
stroke-linecap:round; stroke-linejoin:round;">
<path d="M186.1650 112.8113
L186.1650 112.2887
" />
<path d="M187.6350 112.8113
L187.6350 112.2887
" />
<path d="M171.6029 90.2250
L172.0571 90.2250
" />
<path d="M171.6029 91.6950
L172.0571 91.6950
" />
<path d="M173.5650 94.2271
L173.5650 93.7729
" />
<path d="M175.0350 94.2271
L175.0350 93.7729
" />
</g>
<g style="fill:#F2EDA1; fill-opacity:1.0000; stroke:none;">
<circle cx="160.6300" cy="129.5300" r="0.0500" /> 
<circle cx="160.7300" cy="129.5300" r="0.0500" /> 
</g>
<g style="fill:none; 
stroke:#F2EDA1; stroke-width:0.2000; stroke-opacity:1; 
stroke-linecap:round; stroke-linejoin:round;">
<path d="M161.1800 124.4800
L182.5800 124.4800
" />
<path d="M161.1800 135.1800
L161.1800 124.4800
" />
<path d="M182.5800 124.4800
L182.5800 135.1800
" />
<path d="M182.5800 124.6300
L185.1800 124.6300
" />
<path d="M182.5800 135.1800
L161.1800 135.1800
" />
<path d="M185.1800 124.6300
L185.1800 134.3300
" />
<path d="M185.1800 134.3300
L182.5800 134.3300
" />
</g>
<g style="fill:none; 
stroke:#F2EDA1; stroke-width:0.1000; stroke-opacity:1; 
stroke-linecap:round; stroke-linejoin:round;">
<path d="M160.7300 129.5300 A0.0500 0.0500 0.0 0 0 160.6300 129.5300" />
<path d="M160.6300 129.5300 A0.0500 0.0500 0.0 0 0 160.7300 129.5300" />
</g>
<g style="fill:none; 
stroke:#F2EDA1; stroke-width:0.1200; stroke-opacity:1; 
stroke-linecap:round; stroke-linejoin:round;">
<path d="M183.5900 81.7738
L183.5900 80.3512
" />
<path d="M185.4100 81.7738
L185.4100 80.3512
" />
<path d="M171.6029 88.2550
L172.0571 88.2550
" />
<path d="M171.6029 89.7250
L172.0571 89.7250
" />
<path d="M165.6612 84.7900
L165.9538 84.7900
" />
<path d="M165.6612 85.8100
L165.9538 85.8100
" />
<path d="M185.4650 75.5271
L185.4650 75.0729
" />
<path d="M186.9350 75.5271
L186.9350 75.0729
" />
<path d="M167.3453 70.4525
L167.8547 70.4525
" />
<path d="M167.3453 71.4975
L167.8547 71.4975
" />
<path d="M188.4238 96.2650
L187.9012 96.2650
" />
<path d="M188.4238 97.7350
L187.9012 97.7350
" />
<path d="M166.1150 118.8387
L166.1150 119.3613
" />
<path d="M167.5850 118.8387
L167.5850 119.3613
" />
</g>
<g style="fill:#F2EDA1; fill-opacity:1.0000; stroke:none;">
<circle cx="177.8450" cy="89.4620" r="0.0500" /> 
<circle cx="177.8450" cy="89.5620" r="0.0500" /> 
</g>
<g style="fill:none; 
stroke:#F2EDA1; stroke-width:0.1000; stroke-opacity:1; 
stroke-linecap:round; stroke-linejoin:round;">
<path d="M177.8450 89.5620 A0.0500 0.0500 0.0 0 0 177.8450 89.4620" />
<path d="M177.8450 89.4620 A0.0500 0.0500 0.0 0 0 177.8450 89.5620" />
</g>
<g style="fill:none; 
stroke:#F2EDA1; stroke-width:0.1200; stroke-opacity:1; 
stroke-linecap:round; stroke-linejoin:round;">
<path d="M174.3167 96.0400
L174.5483 96.0400
" />
<path d="M174.3167 96.7600
L174.5483 96.7600
" />
<path d="M181.7500 91.2199
L181.7500 91.5551
" />
<path d="M182.5100 91.2199
L182.5100 91.5551
" />
<path d="M192.8650 112.3887
L192.8650 112.9113
" />
<path d="M194.3350 112.3887
L194.3350 112.9113
" />
<path d="M170.3400 98.6517
L170.3400 98.8833
" />
<path d="M171.0600 98.6517
L171.0600 98.8833
" />
</g>
<g style="fill:#F2EDA1; fill-opacity:1.0000; stroke:none;">
<circle cx="160.9900" cy="63.2900" r="0.0500" /> 
<circle cx="161.0900" cy="63.2900" r="0.0500" /> 
</g>
<g style="fill:none; 
stroke:#F2EDA1; stroke-width:0.2000; stroke-opacity:1; 
stroke-linecap:round; stroke-linejoin:round;">
<path d="M161.5400 58.2400
L182.9400 58.2400
" />
<path d="M161.5400 68.9400
L161.5400 58.2400
" />
<path d="M182.9400 58.2400
L182.9400 68.9400
" />
<path d="M182.9400 58.3900
L185.5400 58.3900
" />
<path d="M182.9400 68.9400
L161.5400 68.9400
" />
<path d="M185.5400 58.3900
L185.5400 68.0900
" />
<path d="M185.5400 68.0900
L182.9400 68.0900
" />
</g>
<g style="fill:none; 
stroke:#F2EDA1; stroke-width:0.1000; stroke-opacity:1; 
stroke-linecap:round; stroke-linejoin:round;">
<path d="M161.0900 63.2900 A0.0500 0.0500 0.0 0 0 160.9900 63.2900" />
<path d="M160.9900 63.2900 A0.0500 0.0500 0.0 0 0 161.0900 63.2900" />
</g>
<g style="fill:none; 
stroke:#F2EDA1; stroke-width:0.1200; stroke-opacity:1; 
stroke-linecap:round; stroke-linejoin:round;">
<path d="M168.8729 82.7650
L169.3271 82.7650
" />
<path d="M168.8729 84.2350
L169.3271 84.2350
" />
<path d="M193.8650 89.3729
L193.8650 89.8271
" />
<path d="M195.3350 89.3729
L195.3350 89.8271
" />
<path d="M190.7650 112.3262
L190.7650 112.8488
" />
<path d="M192.2350 112.3262
L192.2350 112.8488
" />
<path d="M207.2650 112.7238
L207.2650 112.2012
" />
<path d="M208.7350 112.7238
L208.7350 112.2012
" />
<path d="M204.5512 104.0400
L205.9738 104.0400
" />
<path d="M204.5512 106.7600
L205.9738 106.7600
" />
<path d="M210.3047 91.9275
L209.7953 91.9275
" />
<path d="M210.3047 92.9725
L209.7953 92.9725
" />
<path d="M168.2400 115.3262
L168.2400 116.7488
" />
<path d="M170.9600 115.3262
L170.9600 116.7488
" />
<path d="M171.7400 115.3262
L171.7400 116.7488
" />
<path d="M174.4600 115.3262
L174.4600 116.7488
" />
<path d="M181.1278 89.3900
L180.9122 89.3900
" />
<path d="M181.1278 90.1100
L180.9122 90.1100
" />
<path d="M176.8012 80.2650
L177.3238 80.2650
" />
<path d="M176.8012 81.7350
L177.3238 81.7350
" />
<path d="M163.8650 94.9687
L163.8650 95.4913
" />
<path d="M165.3350 94.9687
L165.3350 95.4913
" />
<path d="M161.4900 95.2887
L161.4900 96.7113
" />
<path d="M163.3100 95.2887
L163.3100 96.7113
" />
<path d="M175.4238 75.0150
L174.9012 75.0150
" />
<path d="M175.4238 76.4850
L174.9012 76.4850
" />
<path d="M205.2150 73.6988
L205.2150 73.1762
" />
<path d="M206.6850 73.6988
L206.6850 73.1762
" />
<path d="M165.4049 86.4200
L165.7401 86.4200
" />
<path d="M165.4049 87.1800
L165.7401 87.1800
" />
</g>
<g style="fill:none; 
stroke:#F2EDA1; stroke-width:0.1000; stroke-opacity:1; 
stroke-linecap:round; stroke-linejoin:round;">
<path d="M177.0500 115.0500
L183.2500 115.0500
" />
<path d="M183.2500 120.9500
L177.0500 120.9500
" />
</g>
<g style="fill:none; 
stroke:#F2EDA1; stroke-width:0.2000; stroke-opacity:1; 
stroke-linecap:round; stroke-linejoin:round;">
<circle cx="184.2500" cy="118.0000" r="0.1500" /> 
</g>
<g style="fill:none; 
stroke:#F2EDA1; stroke-width:0.1200; stroke-opacity:1; 
stroke-linecap:round; stroke-linejoin:round;">
<path d="M183.4650 75.5271
L183.4650 75.0729
" />
<path d="M184.9350 75.5271
L184.9350 75.0729
" />
<path d="M174.7729 84.2650
L175.2271 84.2650
" />
<path d="M174.7729 85.7350
L175.2271 85.7350
" />
<path d="M205.0650 112.7613
L205.0650 112.2387
" />
<path d="M206.5350 112.7613
L206.5350 112.2387
" />
<path d="M179.3729 107.9650
L179.8271 107.9650
" />
<path d="M179.3729 109.4350
L179.8271 109.4350
" />
<path d="M168.8629 77.2350
L169.3171 77.2350
" />
<path d="M168.8629 78.7050
L169.3171 78.7050
" />
<path d="M206.8922 70.3025
L206.3828 70.3025
" />
<path d="M206.8922 71.3475
L206.3828 71.3475
" />
<path d="M191.8500 75.7400
L193.1000 75.7400
" />
<path d="M192.4750 75.1150
L192.4750 76.3650
" />
<path d="M193.3400 74.2044
L193.3400 76.9900
" />
<path d="M193.3400 74.2044
L194.4044 73.1400
" />
<path d="M193.3400 82.7956
L193.3400 80.0100
" />
<path d="M193.3400 82.7956
L194.4044 83.8600
" />
<path d="M194.4044 73.1400
L204.0600 73.1400
" />
<path d="M194.4044 83.8600
L204.0600 83.8600
" />
<path d="M204.0600 73.1400
L204.0600 76.9900
" />
<path d="M204.0600 83.8600
L204.0600 80.0100
" />
<path d="M171.7203 101.2025
L172.2297 101.2025
" />
<path d="M171.7203 102.2475
L172.2297 102.2475
" />
<path d="M201.5650 112.2762
L201.5650 112.7988
" />
<path d="M203.0350 112.2762
L203.0350 112.7988
" />
<path d="M189.3900 78.1088
L189.3900 77.8162
" />
<path d="M190.4100 78.1088
L190.4100 77.8162
" />
<path d="M175.5400 111.4512
L175.5400 112.8738
" />
<path d="M178.2600 111.4512
L178.2600 112.8738
" />
<path d="M175.4488 77.0400
L174.0262 77.0400
" />
<path d="M175.4488 79.7600
L174.0262 79.7600
" />
<path d="M180.8400 80.0238
L180.8400 78.6012
" />
<path d="M182.6600 80.0238
L182.6600 78.6012
" />
</g>
<g style="fill:none; 
stroke:#F2EDA1; stroke-width:0.1000; stroke-opacity:1; 
stroke-linecap:round; stroke-linejoin:round;">
<path d="M176.7000 101.5400
L182.9000 101.5400
" />
<path d="M182.9000 107.4400
L176.7000 107.4400
" />
</g>
<g style="fill:none; 
stroke:#F2EDA1; stroke-width:0.2000; stroke-opacity:1; 
stroke-linecap:round; stroke-linejoin:round;">
<circle cx="183.7000" cy="104.4900" r="0.1500" /> 
</g>
<g style="fill:none; 
stroke:#F2EDA1; stroke-width:0.1200; stroke-opacity:1; 
stroke-linecap:round; stroke-linejoin:round;">
<path d="M204.5512 107.5400
L205.9738 107.5400
" />
<path d="M204.5512 110.2600
L205.9738 110.2600
" />
<path d="M186.0900 81.7738
L186.0900 80.3512
" />
<path d="M187.9100 81.7738
L187.9100 80.3512
" />
<path d="M173.9973 99.2140
L173.4747 99.2140
" />
<path d="M173.9973 100.6840
L173.4747 100.6840
" />
<path d="M164.1800 90.1688
L164.1800 89.8762
" />
<path d="M165.2000 90.1688
L165.2000 89.8762
" />
</g>
<g style="fill:none; 
stroke:#F2EDA1; stroke-width:0.1000; stroke-opacity:1; 
stroke-linecap:round; stroke-linejoin:round;">
<path d="M187.4400 124.4700
L211.4400 124.4700
" />
<path d="M187.4400 135.2000
L187.4400 124.4700
" />
<path d="M211.4400 124.4700
L211.4400 135.2000
" />
<path d="M211.4400 135.2000
L187.4400 135.2000
" />
</g>
<g style="fill:none; 
stroke:#F2EDA1; stroke-width:0.1200; stroke-opacity:1; 
stroke-linecap:round; stroke-linejoin:round;">
<path d="M167.5400 73.8613
L167.5400 73.3387
" />
<path d="M169.0100 73.8613
L169.0100 73.3387
" />
<path d="M162.1650 89.8137
L162.1650 90.3363
" />
<path d="M163.6350 89.8137
L163.6350 90.3363
" />
<path d="M175.7167 88.2400
L175.9483 88.2400
" />
<path d="M175.7167 88.9600
L175.9483 88.9600
" />
<path d="M188.2650 112.8488
L188.2650 112.3262
" />
<path d="M189.7350 112.8488
L189.7350 112.3262
" />
<path d="M180.0729 121.6650
L180.5271 121.6650
" />
<path d="M180.0729 123.1350
L180.5271 123.1350
" />
<path d="M179.7400 100.4600
L179.7400 95.4000
" />
<path d="M179.7400 100.4600
L182.4600 100.4600
" />
<path d="M182.4600 100.4600
L182.4600 95.4000
" />
<path d="M174.7729 82.2650
L175.2271 82.2650
" />
<path d="M174.7729 83.7350
L175.2271 83.7350
" />
<path d="M205.6650 119.3012
L205.6650 119.8238
" />
<path d="M207.1350 119.3012
L207.1350 119.8238
" />
<path d="M167.8600 91.8400
L167.8600 88.1800
" />
<path d="M167.8600 91.8400
L169.7600 91.8400
" />
<path d="M169.7600 91.8400
L169.7600 88.1800
" />
</g>
<g style="fill:none; 
stroke:#F2EDA1; stroke-width:0.1000; stroke-opacity:1; 
stroke-linecap:round; stroke-linejoin:round;">
<path d="M187.7500 58.1850
L211.7500 58.1850
" />
<path d="M187.7500 68.9150
L187.7500 58.1850
" />
<path d="M211.7500 58.1850
L211.7500 68.9150
" />
<path d="M211.7500 68.9150
L187.7500 68.9150
" />
</g>
<g style="fill:none; 
stroke:#F2EDA1; stroke-width:0.1200; stroke-opacity:1; 
stroke-linecap:round; stroke-linejoin:round;">
<path d="M196.4729 111.0150
L196.9271 111.0150
" />
<path d="M196.4729 112.4850
L196.9271 112.4850
" />
<path d="M167.8200 98.9651
L167.8200 98.6299
" />
<path d="M168.5800 98.9651
L168.5800 98.6299
" />
</g>
<g style="fill:none; 
stroke:#F2EDA1; stroke-width:0.2000; stroke-opacity:1; 
stroke-linecap:round; stroke-linejoin:round;">
<path d="M167.8880 92.3550
L171.0880 92.3550
" />
<path d="M167.8880 97.2550
L167.8880 92.3550
" />
<path d="M171.0880 92.3550
L171.0880 97.2550
" />
<path d="M171.0880 97.2550
L167.8880 97.2550
" />
<path d="M172.9630 97.4100
L171.4380 97.4100
" />
</g>
<g style="fill:none; 
stroke:#F2EDA1; stroke-width:0.1200; stroke-opacity:1; 
stroke-linecap:round; stroke-linejoin:round;">
<path d="M198.7650 104.9613
L198.7650 104.4387
" />
<path d="M200.2350 104.9613
L200.2350 104.4387
" />
<path d="M182.1400 111.4512
L182.1400 112.8738
" />
<path d="M184.8600 111.4512
L184.8600 112.8738
" />
<path d="M177.6400 73.2900
L177.6400 78.3500
" />
<path d="M180.3600 73.2900
L177.6400 73.2900
" />
<path d="M180.3600 73.2900
L180.3600 78.3500
" />
<path d="M174.7729 86.2650
L175.2271 86.2650
" />
<path d="M174.7729 87.7350
L175.2271 87.7350
" />
<path d="M200.8650 104.9613
L200.8650 104.4387
" />
<path d="M202.3350 104.9613
L202.3350 104.4387
" />
<path d="M199.4650 112.3137
L199.4650 112.8363
" />
<path d="M200.9350 112.3137
L200.9350 112.8363
" />
<path d="M175.3988 73.0150
L174.8762 73.0150
" />
<path d="M175.3988 74.4850
L174.8762 74.4850
" />
<path d="M178.8400 111.4512
L178.8400 112.8738
" />
<path d="M181.5600 111.4512
L181.5600 112.8738
" />
<path d="M182.9000 90.8250
L182.9000 87.9750
" />
<path d="M190.2000 83.8500
L185.9000 83.8500
" />
<path d="M190.2000 95.6500
L185.9000 95.6500
" />
<path d="M193.4000 90.6000
L193.4000 87.7000
" />
<path d="M183.0400 99.2738
L183.0400 97.8512
" />
<path d="M185.7600 99.2738
L185.7600 97.8512
" />
<path d="M169.1625 79.1400
L168.5125 79.1400
" />
<path d="M169.1625 79.1400
L169.8125 79.1400
" />
<path d="M169.1625 82.2600
L168.5125 82.2600
" />
<path d="M169.1625 82.2600
L169.8125 82.2600
" />
<path style="fill:#F2EDA1; fill-opacity:1.0000; 
stroke:#F2EDA1; stroke-width:0.1200; stroke-opacity:1; 
stroke-linecap:round; stroke-linejoin:round;fill-rule:evenodd;"
d="M 168.0000,79.1900
167.7600,78.8600
168.2400,78.8600
Z" /> 
</g>
<g style="fill:none; 
stroke:#F2EDA1; stroke-width:0.1200; stroke-opacity:1; 
stroke-linecap:round; stroke-linejoin:round;">
<path d="M165.7203 121.4775
L166.2297 121.4775
" />
<path d="M165.7203 122.5225
L166.2297 122.5225
" />
<path d="M186.3500 106.9500
L186.3500 102.6500
" />
<path d="M191.1750 99.6500
L194.0250 99.6500
" />
<path d="M191.4000 110.1500
L194.3000 110.1500
" />
<path d="M198.1500 106.9500
L198.1500 102.6500
" />
<path d="M187.4650 75.5271
L187.4650 75.0729
" />
<path d="M188.9350 75.5271
L188.9350 75.0729
" />
<path d="M174.9729 71.0150
L175.4271 71.0150
" />
<path d="M174.9729 72.4850
L175.4271 72.4850
" />
<path d="M175.9100 95.7271
L175.9100 91.3729
" />
<path d="M179.3300 95.7271
L179.3300 91.3729
" />
<path d="M206.6672 122.0275
L206.1578 122.0275
" />
<path d="M206.6672 123.0725
L206.1578 123.0725
" />
<path d="M207.9972 89.8160
L208.5198 89.8160
" />
<path d="M207.9972 91.2860
L208.5198 91.2860
" />
</g> 
</svg>
