<?xml version="1.0" standalone="no"?>
 <!DOCTYPE svg PUBLIC "-//W3C//DTD SVG 1.1//EN" 
 "http://www.w3.org/Graphics/SVG/1.1/DTD/svg11.dtd"> 
<svg
  xmlns:svg="http://www.w3.org/2000/svg"
  xmlns="http://www.w3.org/2000/svg"
  xmlns:xlink="http://www.w3.org/1999/xlink"
  version="1.1"
  width="297.0022mm" height="210.0072mm" viewBox="0.0000 0.0000 297.0022 210.0072">
<title>SVG Image created as SEPIC-A-In1_Cu.svg date 2024/09/18 14:40:37 </title>
  <desc>Image generated by PCBNEW </desc>
<g style="fill:#000000; fill-opacity:1.0000;stroke:#000000; stroke-opacity:1.0000;
stroke-linecap:round; stroke-linejoin:round;"
 transform="translate(0 0) scale(1 1)">
<path style="fill:#7FC87F; fill-opacity:1.0000; stroke:none;fill-rule:evenodd;"
d="M 163.2025,131.0075
163.2025,128.0525
166.1575,128.0525
166.1575,131.0075
Z" /> 
</g>
<g style="fill:#7FC87F; fill-opacity:1.0000; stroke:none;">
<circle cx="180.1800" cy="129.5300" r="1.4775" /> 
<path style="fill:#7FC87F; fill-opacity:1.0000; stroke:none;fill-rule:evenodd;"
d="M 163.5625,64.7675
163.5625,61.8125
166.5175,61.8125
166.5175,64.7675
Z" /> 
</g>
<g style="fill:#7FC87F; fill-opacity:1.0000; stroke:none;">
<circle cx="180.5400" cy="63.2900" r="1.4775" /> 
</g>
<g style="fill:#7FC87F; fill-opacity:1.0000; stroke:none;">
<circle cx="158.7300" cy="73.6271" r="0.4000" /> 
</g>
<g style="fill:#7FC87F; fill-opacity:1.0000; stroke:none;">
<circle cx="159.4329" cy="71.9300" r="0.4000" /> 
</g>
<g style="fill:#7FC87F; fill-opacity:1.0000; stroke:none;">
<circle cx="159.4329" cy="75.3241" r="0.4000" /> 
</g>
<g style="fill:#7FC87F; fill-opacity:1.0000; stroke:none;">
<circle cx="161.1300" cy="71.2271" r="0.4000" /> 
</g>
<g style="fill:#7FC87F; fill-opacity:1.0000; stroke:none;">
<circle cx="161.1300" cy="73.6271" r="3.2000" /> 
</g>
<g style="fill:#7FC87F; fill-opacity:1.0000; stroke:none;">
<circle cx="161.1300" cy="76.0271" r="0.4000" /> 
</g>
<g style="fill:#7FC87F; fill-opacity:1.0000; stroke:none;">
<circle cx="162.8271" cy="71.9300" r="0.4000" /> 
</g>
<g style="fill:#7FC87F; fill-opacity:1.0000; stroke:none;">
<circle cx="162.8271" cy="75.3241" r="0.4000" /> 
</g>
<g style="fill:#7FC87F; fill-opacity:1.0000; stroke:none;">
<circle cx="163.5300" cy="73.6271" r="0.4000" /> 
</g>
<g style="fill:#7FC87F; fill-opacity:1.0000; stroke:none;">
<circle cx="207.1900" cy="130.1200" r="1.4775" /> 
</g>
<g style="fill:#7FC87F; fill-opacity:1.0000; stroke:none;">
<circle cx="191.6900" cy="130.1200" r="1.4775" /> 
</g>
<g style="fill:#7FC87F; fill-opacity:1.0000; stroke:none;">
<circle cx="208.6600" cy="119.8200" r="0.4000" /> 
</g>
<g style="fill:#7FC87F; fill-opacity:1.0000; stroke:none;">
<circle cx="209.3629" cy="118.1229" r="0.4000" /> 
</g>
<g style="fill:#7FC87F; fill-opacity:1.0000; stroke:none;">
<circle cx="209.3629" cy="121.5171" r="0.4000" /> 
</g>
<g style="fill:#7FC87F; fill-opacity:1.0000; stroke:none;">
<circle cx="211.0600" cy="117.4200" r="0.4000" /> 
</g>
<g style="fill:#7FC87F; fill-opacity:1.0000; stroke:none;">
<circle cx="211.0600" cy="119.8200" r="3.2000" /> 
</g>
<g style="fill:#7FC87F; fill-opacity:1.0000; stroke:none;">
<circle cx="211.0600" cy="122.2200" r="0.4000" /> 
</g>
<g style="fill:#7FC87F; fill-opacity:1.0000; stroke:none;">
<circle cx="212.7571" cy="118.1229" r="0.4000" /> 
</g>
<g style="fill:#7FC87F; fill-opacity:1.0000; stroke:none;">
<circle cx="212.7571" cy="121.5171" r="0.4000" /> 
</g>
<g style="fill:#7FC87F; fill-opacity:1.0000; stroke:none;">
<circle cx="213.4600" cy="119.8200" r="0.4000" /> 
</g>
<g style="fill:#7FC87F; fill-opacity:1.0000; stroke:none;">
<circle cx="207.5000" cy="63.8350" r="1.4775" /> 
</g>
<g style="fill:#7FC87F; fill-opacity:1.0000; stroke:none;">
<circle cx="192.0000" cy="63.8350" r="1.4775" /> 
</g>
<g style="fill:#7FC87F; fill-opacity:1.0000; stroke:none;">
<circle cx="158.7300" cy="119.8200" r="0.4000" /> 
</g>
<g style="fill:#7FC87F; fill-opacity:1.0000; stroke:none;">
<circle cx="159.4329" cy="118.1229" r="0.4000" /> 
</g>
<g style="fill:#7FC87F; fill-opacity:1.0000; stroke:none;">
<circle cx="159.4329" cy="121.5171" r="0.4000" /> 
</g>
<g style="fill:#7FC87F; fill-opacity:1.0000; stroke:none;">
<circle cx="161.1300" cy="117.4200" r="0.4000" /> 
</g>
<g style="fill:#7FC87F; fill-opacity:1.0000; stroke:none;">
<circle cx="161.1300" cy="119.8200" r="3.2000" /> 
</g>
<g style="fill:#7FC87F; fill-opacity:1.0000; stroke:none;">
<circle cx="161.1300" cy="122.2200" r="0.4000" /> 
</g>
<g style="fill:#7FC87F; fill-opacity:1.0000; stroke:none;">
<circle cx="162.8271" cy="118.1229" r="0.4000" /> 
</g>
<g style="fill:#7FC87F; fill-opacity:1.0000; stroke:none;">
<circle cx="162.8271" cy="121.5171" r="0.4000" /> 
</g>
<g style="fill:#7FC87F; fill-opacity:1.0000; stroke:none;">
<circle cx="163.5300" cy="119.8200" r="0.4000" /> 
</g>
<g style="fill:#7FC87F; fill-opacity:1.0000; stroke:none;">
<circle cx="208.6600" cy="73.6200" r="0.4000" /> 
</g>
<g style="fill:#7FC87F; fill-opacity:1.0000; stroke:none;">
<circle cx="209.3629" cy="71.9229" r="0.4000" /> 
</g>
<g style="fill:#7FC87F; fill-opacity:1.0000; stroke:none;">
<circle cx="209.3629" cy="75.3171" r="0.4000" /> 
</g>
<g style="fill:#7FC87F; fill-opacity:1.0000; stroke:none;">
<circle cx="211.0600" cy="71.2200" r="0.4000" /> 
</g>
<g style="fill:#7FC87F; fill-opacity:1.0000; stroke:none;">
<circle cx="211.0600" cy="73.6200" r="3.2000" /> 
</g>
<g style="fill:#7FC87F; fill-opacity:1.0000; stroke:none;">
<circle cx="211.0600" cy="76.0200" r="0.4000" /> 
</g>
<g style="fill:#7FC87F; fill-opacity:1.0000; stroke:none;">
<circle cx="212.7571" cy="71.9229" r="0.4000" /> 
</g>
<g style="fill:#7FC87F; fill-opacity:1.0000; stroke:none;">
<circle cx="212.7571" cy="75.3171" r="0.4000" /> 
</g>
<g style="fill:#7FC87F; fill-opacity:1.0000; stroke:none;">
<circle cx="213.4600" cy="73.6200" r="0.4000" /> 
</g>
<g style="fill:#ECECEC; fill-opacity:1.0000; stroke:none;">
<circle cx="159.0040" cy="79.9760" r="0.3000" /> 
</g>
<g style="fill:#ECECEC; fill-opacity:1.0000; stroke:none;">
<circle cx="182.4710" cy="134.4930" r="0.3000" /> 
</g>
<g style="fill:#ECECEC; fill-opacity:1.0000; stroke:none;">
<circle cx="212.9790" cy="100.5950" r="0.3000" /> 
</g>
<g style="fill:#ECECEC; fill-opacity:1.0000; stroke:none;">
<circle cx="159.0040" cy="109.9760" r="0.3000" /> 
</g>
<g style="fill:#ECECEC; fill-opacity:1.0000; stroke:none;">
<circle cx="186.0000" cy="59.0000" r="0.3000" /> 
</g>
<g style="fill:#ECECEC; fill-opacity:1.0000; stroke:none;">
<circle cx="198.0000" cy="59.0000" r="0.3000" /> 
</g>
<g style="fill:#ECECEC; fill-opacity:1.0000; stroke:none;">
<circle cx="212.9790" cy="103.5950" r="0.3000" /> 
</g>
<g style="fill:#ECECEC; fill-opacity:1.0000; stroke:none;">
<circle cx="159.0040" cy="130.8100" r="0.3000" /> 
</g>
<g style="fill:#ECECEC; fill-opacity:1.0000; stroke:none;">
<circle cx="212.8520" cy="132.2070" r="0.3000" /> 
</g>
<g style="fill:#ECECEC; fill-opacity:1.0000; stroke:none;">
<circle cx="164.4710" cy="134.4930" r="0.3000" /> 
</g>
<g style="fill:#ECECEC; fill-opacity:1.0000; stroke:none;">
<circle cx="212.9790" cy="67.5950" r="0.3000" /> 
</g>
<g style="fill:#ECECEC; fill-opacity:1.0000; stroke:none;">
<circle cx="212.8520" cy="126.6670" r="0.3000" /> 
</g>
<g style="fill:#ECECEC; fill-opacity:1.0000; stroke:none;">
<circle cx="204.0000" cy="59.0000" r="0.3000" /> 
</g>
<g style="fill:#ECECEC; fill-opacity:1.0000; stroke:none;">
<circle cx="185.4710" cy="134.4930" r="0.3000" /> 
</g>
<g style="fill:#ECECEC; fill-opacity:1.0000; stroke:none;">
<circle cx="212.9790" cy="82.5950" r="0.3000" /> 
</g>
<g style="fill:#ECECEC; fill-opacity:1.0000; stroke:none;">
<circle cx="212.8520" cy="123.6670" r="0.3000" /> 
</g>
<g style="fill:#ECECEC; fill-opacity:1.0000; stroke:none;">
<circle cx="168.0000" cy="59.0000" r="0.3000" /> 
</g>
<g style="fill:#ECECEC; fill-opacity:1.0000; stroke:none;">
<circle cx="165.0000" cy="59.0000" r="0.3000" /> 
</g>
<g style="fill:#ECECEC; fill-opacity:1.0000; stroke:none;">
<circle cx="161.4710" cy="134.4930" r="0.3000" /> 
</g>
<g style="fill:#ECECEC; fill-opacity:1.0000; stroke:none;">
<circle cx="159.0040" cy="82.9760" r="0.3000" /> 
</g>
<g style="fill:#ECECEC; fill-opacity:1.0000; stroke:none;">
<circle cx="212.8520" cy="134.4930" r="0.3000" /> 
</g>
<g style="fill:#ECECEC; fill-opacity:1.0000; stroke:none;">
<circle cx="176.4710" cy="134.4930" r="0.3000" /> 
</g>
<g style="fill:#ECECEC; fill-opacity:1.0000; stroke:none;">
<circle cx="206.4710" cy="134.4930" r="0.3000" /> 
</g>
<g style="fill:#ECECEC; fill-opacity:1.0000; stroke:none;">
<circle cx="159.0040" cy="61.9760" r="0.3000" /> 
</g>
<g style="fill:#ECECEC; fill-opacity:1.0000; stroke:none;">
<circle cx="159.0000" cy="59.0000" r="0.3000" /> 
</g>
<g style="fill:#ECECEC; fill-opacity:1.0000; stroke:none;">
<circle cx="179.4710" cy="134.4930" r="0.3000" /> 
</g>
<g style="fill:#ECECEC; fill-opacity:1.0000; stroke:none;">
<circle cx="159.0040" cy="124.8100" r="0.3000" /> 
</g>
<g style="fill:#ECECEC; fill-opacity:1.0000; stroke:none;">
<circle cx="183.0000" cy="59.0000" r="0.3000" /> 
</g>
<g style="fill:#ECECEC; fill-opacity:1.0000; stroke:none;">
<circle cx="159.0040" cy="85.9760" r="0.3000" /> 
</g>
<g style="fill:#ECECEC; fill-opacity:1.0000; stroke:none;">
<circle cx="188.4710" cy="134.4930" r="0.3000" /> 
</g>
<g style="fill:#ECECEC; fill-opacity:1.0000; stroke:none;">
<circle cx="197.4710" cy="134.4930" r="0.3000" /> 
</g>
<g style="fill:#ECECEC; fill-opacity:1.0000; stroke:none;">
<circle cx="159.0040" cy="88.9760" r="0.3000" /> 
</g>
<g style="fill:#ECECEC; fill-opacity:1.0000; stroke:none;">
<circle cx="159.0040" cy="64.9760" r="0.3000" /> 
</g>
<g style="fill:#ECECEC; fill-opacity:1.0000; stroke:none;">
<circle cx="200.4710" cy="134.4930" r="0.3000" /> 
</g>
<g style="fill:#ECECEC; fill-opacity:1.0000; stroke:none;">
<circle cx="195.0000" cy="59.0000" r="0.3000" /> 
</g>
<g style="fill:#ECECEC; fill-opacity:1.0000; stroke:none;">
<circle cx="203.4710" cy="134.4930" r="0.3000" /> 
</g>
<g style="fill:#ECECEC; fill-opacity:1.0000; stroke:none;">
<circle cx="194.4710" cy="134.4930" r="0.3000" /> 
</g>
<g style="fill:#ECECEC; fill-opacity:1.0000; stroke:none;">
<circle cx="213.0000" cy="59.0000" r="0.3000" /> 
</g>
<g style="fill:#ECECEC; fill-opacity:1.0000; stroke:none;">
<circle cx="159.0040" cy="106.9760" r="0.3000" /> 
</g>
<g style="fill:#ECECEC; fill-opacity:1.0000; stroke:none;">
<circle cx="159.0040" cy="103.9760" r="0.3000" /> 
</g>
<g style="fill:#ECECEC; fill-opacity:1.0000; stroke:none;">
<circle cx="212.9790" cy="97.5950" r="0.3000" /> 
</g>
<g style="fill:#ECECEC; fill-opacity:1.0000; stroke:none;">
<circle cx="159.0040" cy="67.9760" r="0.3000" /> 
</g>
<g style="fill:#ECECEC; fill-opacity:1.0000; stroke:none;">
<circle cx="212.9790" cy="94.5950" r="0.3000" /> 
</g>
<g style="fill:#ECECEC; fill-opacity:1.0000; stroke:none;">
<circle cx="212.9790" cy="91.5950" r="0.3000" /> 
</g>
<g style="fill:#ECECEC; fill-opacity:1.0000; stroke:none;">
<circle cx="201.0000" cy="59.0000" r="0.3000" /> 
</g>
<g style="fill:#ECECEC; fill-opacity:1.0000; stroke:none;">
<circle cx="189.0000" cy="59.0000" r="0.3000" /> 
</g>
<g style="fill:#ECECEC; fill-opacity:1.0000; stroke:none;">
<circle cx="159.0040" cy="94.9760" r="0.3000" /> 
</g>
<g style="fill:#ECECEC; fill-opacity:1.0000; stroke:none;">
<circle cx="212.9790" cy="88.5950" r="0.3000" /> 
</g>
<g style="fill:#ECECEC; fill-opacity:1.0000; stroke:none;">
<circle cx="180.0000" cy="59.0000" r="0.3000" /> 
</g>
<g style="fill:#ECECEC; fill-opacity:1.0000; stroke:none;">
<circle cx="210.0000" cy="59.0000" r="0.3000" /> 
</g>
<g style="fill:#ECECEC; fill-opacity:1.0000; stroke:none;">
<circle cx="207.0000" cy="59.0000" r="0.3000" /> 
</g>
<g style="fill:#ECECEC; fill-opacity:1.0000; stroke:none;">
<circle cx="212.9790" cy="109.5950" r="0.3000" /> 
</g>
<g style="fill:#ECECEC; fill-opacity:1.0000; stroke:none;">
<circle cx="212.9790" cy="115.5950" r="0.3000" /> 
</g>
<g style="fill:#ECECEC; fill-opacity:1.0000; stroke:none;">
<circle cx="170.4710" cy="134.4930" r="0.3000" /> 
</g>
<g style="fill:#ECECEC; fill-opacity:1.0000; stroke:none;">
<circle cx="212.9790" cy="64.5950" r="0.3000" /> 
</g>
<g style="fill:#ECECEC; fill-opacity:1.0000; stroke:none;">
<circle cx="212.9790" cy="79.5950" r="0.3000" /> 
</g>
<g style="fill:#ECECEC; fill-opacity:1.0000; stroke:none;">
<circle cx="167.4710" cy="134.4930" r="0.3000" /> 
</g>
<g style="fill:#ECECEC; fill-opacity:1.0000; stroke:none;">
<circle cx="212.8520" cy="129.6670" r="0.3000" /> 
</g>
<g style="fill:#ECECEC; fill-opacity:1.0000; stroke:none;">
<circle cx="209.4710" cy="134.4930" r="0.3000" /> 
</g>
<g style="fill:#ECECEC; fill-opacity:1.0000; stroke:none;">
<circle cx="212.9790" cy="61.5950" r="0.3000" /> 
</g>
<g style="fill:#ECECEC; fill-opacity:1.0000; stroke:none;">
<circle cx="177.0000" cy="59.0000" r="0.3000" /> 
</g>
<g style="fill:#ECECEC; fill-opacity:1.0000; stroke:none;">
<circle cx="192.0000" cy="59.0000" r="0.3000" /> 
</g>
<g style="fill:#ECECEC; fill-opacity:1.0000; stroke:none;">
<circle cx="212.9790" cy="106.5950" r="0.3000" /> 
</g>
<g style="fill:#ECECEC; fill-opacity:1.0000; stroke:none;">
<circle cx="159.0040" cy="100.9760" r="0.3000" /> 
</g>
<g style="fill:#ECECEC; fill-opacity:1.0000; stroke:none;">
<circle cx="162.0000" cy="59.0000" r="0.3000" /> 
</g>
<g style="fill:#ECECEC; fill-opacity:1.0000; stroke:none;">
<circle cx="159.0040" cy="115.9760" r="0.3000" /> 
</g>
<g style="fill:#ECECEC; fill-opacity:1.0000; stroke:none;">
<circle cx="159.0040" cy="134.4930" r="0.3000" /> 
</g>
<g style="fill:#ECECEC; fill-opacity:1.0000; stroke:none;">
<circle cx="212.9790" cy="112.5950" r="0.3000" /> 
</g>
<g style="fill:#ECECEC; fill-opacity:1.0000; stroke:none;">
<circle cx="174.0000" cy="59.0000" r="0.3000" /> 
</g>
<g style="fill:#ECECEC; fill-opacity:1.0000; stroke:none;">
<circle cx="173.4710" cy="134.4930" r="0.3000" /> 
</g>
<g style="fill:#ECECEC; fill-opacity:1.0000; stroke:none;">
<circle cx="191.4710" cy="134.4930" r="0.3000" /> 
</g>
<g style="fill:#ECECEC; fill-opacity:1.0000; stroke:none;">
<circle cx="159.0040" cy="112.9760" r="0.3000" /> 
</g>
<g style="fill:#ECECEC; fill-opacity:1.0000; stroke:none;">
<circle cx="159.0040" cy="97.9760" r="0.3000" /> 
</g>
<g style="fill:#ECECEC; fill-opacity:1.0000; stroke:none;">
<circle cx="159.0040" cy="127.8100" r="0.3000" /> 
</g>
<g style="fill:#ECECEC; fill-opacity:1.0000; stroke:none;">
<circle cx="159.0040" cy="91.9760" r="0.3000" /> 
</g>
<g style="fill:#ECECEC; fill-opacity:1.0000; stroke:none;">
<circle cx="171.0000" cy="59.0000" r="0.3000" /> 
</g>
<g style="fill:#ECECEC; fill-opacity:1.0000; stroke:none;">
<circle cx="212.9790" cy="85.5950" r="0.3000" /> 
</g>
<g style="fill:#ECECEC; fill-opacity:1.0000; stroke:none;">
<circle cx="198.9000" cy="106.8000" r="0.3000" /> 
</g>
<g style="fill:#ECECEC; fill-opacity:1.0000; stroke:none;">
<circle cx="198.2000" cy="106.8000" r="0.3000" /> 
</g>
<g style="fill:#ECECEC; fill-opacity:1.0000; stroke:none;">
<circle cx="198.3000" cy="107.5000" r="0.3000" /> 
</g>
<g style="fill:#ECECEC; fill-opacity:1.0000; stroke:none;">
<circle cx="205.7000" cy="76.5000" r="0.3000" /> 
</g>
<g style="fill:#ECECEC; fill-opacity:1.0000; stroke:none;">
<circle cx="206.3000" cy="76.8000" r="0.3000" /> 
</g>
<g style="fill:#ECECEC; fill-opacity:1.0000; stroke:none;">
<circle cx="205.7000" cy="78.6000" r="0.3000" /> 
</g>
<g style="fill:#ECECEC; fill-opacity:1.0000; stroke:none;">
<circle cx="206.3000" cy="77.6000" r="0.3000" /> 
</g>
<g style="fill:#ECECEC; fill-opacity:1.0000; stroke:none;">
<circle cx="205.7000" cy="77.2000" r="0.3000" /> 
</g>
<g style="fill:#ECECEC; fill-opacity:1.0000; stroke:none;">
<circle cx="205.7000" cy="80.0000" r="0.3000" /> 
</g>
<g style="fill:#ECECEC; fill-opacity:1.0000; stroke:none;">
<circle cx="206.3000" cy="78.3000" r="0.3000" /> 
</g>
<g style="fill:#ECECEC; fill-opacity:1.0000; stroke:none;">
<circle cx="206.4000" cy="117.6000" r="0.3000" /> 
</g>
<g style="fill:#ECECEC; fill-opacity:1.0000; stroke:none;">
<circle cx="205.7000" cy="77.9000" r="0.3000" /> 
</g>
<g style="fill:#ECECEC; fill-opacity:1.0000; stroke:none;">
<circle cx="205.7000" cy="79.3000" r="0.3000" /> 
</g>
<g style="fill:#ECECEC; fill-opacity:1.0000; stroke:none;">
<circle cx="205.8670" cy="90.5510" r="0.3000" /> 
</g>
<g style="fill:#ECECEC; fill-opacity:1.0000; stroke:none;">
<circle cx="197.9000" cy="86.0000" r="0.3000" /> 
</g>
<g style="fill:#ECECEC; fill-opacity:1.0000; stroke:none;">
<circle cx="166.8750" cy="116.7250" r="0.3000" /> 
</g>
<g style="fill:#ECECEC; fill-opacity:1.0000; stroke:none;">
<circle cx="169.3500" cy="74.6250" r="0.3000" /> 
</g>
<g style="fill:#ECECEC; fill-opacity:1.0000; stroke:none;">
<circle cx="176.0220" cy="99.9490" r="0.3000" /> 
</g>
<g style="fill:#ECECEC; fill-opacity:1.0000; stroke:none;">
<circle cx="197.2000" cy="86.0000" r="0.3000" /> 
</g>
<g style="fill:#ECECEC; fill-opacity:1.0000; stroke:none;">
<circle cx="196.4000" cy="86.0000" r="0.3000" /> 
</g>
<g style="fill:#ECECEC; fill-opacity:1.0000; stroke:none;">
<circle cx="171.9776" cy="75.7765" r="0.3000" /> 
</g>
<g style="fill:#ECECEC; fill-opacity:1.0000; stroke:none;">
<circle cx="186.5000" cy="106.5000" r="0.3000" /> 
</g>
<g style="fill:#ECECEC; fill-opacity:1.0000; stroke:none;">
<circle cx="186.5000" cy="107.2000" r="0.3000" /> 
</g>
<g style="fill:#ECECEC; fill-opacity:1.0000; stroke:none;">
<circle cx="162.8700" cy="93.1500" r="0.3000" /> 
</g>
<g style="fill:#ECECEC; fill-opacity:1.0000; stroke:none;">
<circle cx="167.0000" cy="77.8000" r="0.3000" /> 
</g>
<g style="fill:#ECECEC; fill-opacity:1.0000; stroke:none;">
<circle cx="177.9000" cy="98.7000" r="0.3000" /> 
</g>
<g style="fill:#ECECEC; fill-opacity:1.0000; stroke:none;">
<circle cx="177.4000" cy="74.5000" r="0.3000" /> 
</g>
<g style="fill:#ECECEC; fill-opacity:1.0000; stroke:none;">
<circle cx="177.4000" cy="75.3000" r="0.3000" /> 
</g>
<g style="fill:#ECECEC; fill-opacity:1.0000; stroke:none;">
<circle cx="178.2000" cy="73.0000" r="0.3000" /> 
</g>
<g style="fill:#ECECEC; fill-opacity:1.0000; stroke:none;">
<circle cx="180.7000" cy="73.8000" r="0.3000" /> 
</g>
<g style="fill:#ECECEC; fill-opacity:1.0000; stroke:none;">
<circle cx="178.2000" cy="75.3000" r="0.3000" /> 
</g>
<g style="fill:#ECECEC; fill-opacity:1.0000; stroke:none;">
<circle cx="177.4000" cy="73.0000" r="0.3000" /> 
</g>
<g style="fill:#ECECEC; fill-opacity:1.0000; stroke:none;">
<circle cx="179.8000" cy="73.0000" r="0.3000" /> 
</g>
<g style="fill:#ECECEC; fill-opacity:1.0000; stroke:none;">
<circle cx="180.7000" cy="75.3000" r="0.3000" /> 
</g>
<g style="fill:#ECECEC; fill-opacity:1.0000; stroke:none;">
<circle cx="180.7000" cy="73.0000" r="0.3000" /> 
</g>
<g style="fill:#ECECEC; fill-opacity:1.0000; stroke:none;">
<circle cx="179.0000" cy="73.0000" r="0.3000" /> 
</g>
<g style="fill:#ECECEC; fill-opacity:1.0000; stroke:none;">
<circle cx="177.4000" cy="73.8000" r="0.3000" /> 
</g>
<g style="fill:#ECECEC; fill-opacity:1.0000; stroke:none;">
<circle cx="179.9000" cy="75.3000" r="0.3000" /> 
</g>
<g style="fill:#ECECEC; fill-opacity:1.0000; stroke:none;">
<circle cx="195.1000" cy="86.0000" r="0.3000" /> 
</g>
<g style="fill:#ECECEC; fill-opacity:1.0000; stroke:none;">
<circle cx="180.7000" cy="74.6000" r="0.3000" /> 
</g>
<g style="fill:#ECECEC; fill-opacity:1.0000; stroke:none;">
<circle cx="194.0000" cy="86.0000" r="0.3000" /> 
</g>
<g style="fill:#ECECEC; fill-opacity:1.0000; stroke:none;">
<circle cx="179.1000" cy="75.3000" r="0.3000" /> 
</g>
<g style="fill:#ECECEC; fill-opacity:1.0000; stroke:none;">
<circle cx="179.3200" cy="76.9600" r="0.3000" /> 
</g>
<g style="fill:#ECECEC; fill-opacity:1.0000; stroke:none;">
<circle cx="178.4000" cy="77.5400" r="0.3000" /> 
</g>
<g style="fill:#ECECEC; fill-opacity:1.0000; stroke:none;">
<circle cx="179.0300" cy="77.5400" r="0.3000" /> 
</g>
<g style="fill:#ECECEC; fill-opacity:1.0000; stroke:none;">
<circle cx="179.6600" cy="77.5400" r="0.3000" /> 
</g>
<g style="fill:#ECECEC; fill-opacity:1.0000; stroke:none;">
<circle cx="177.6000" cy="78.4000" r="0.3000" /> 
</g>
<g style="fill:#ECECEC; fill-opacity:1.0000; stroke:none;">
<circle cx="179.9400" cy="76.9400" r="0.3000" /> 
</g>
<g style="fill:#ECECEC; fill-opacity:1.0000; stroke:none;">
<circle cx="177.6000" cy="77.8000" r="0.3000" /> 
</g>
<g style="fill:#ECECEC; fill-opacity:1.0000; stroke:none;">
<circle cx="178.0900" cy="76.9600" r="0.3000" /> 
</g>
<g style="fill:#ECECEC; fill-opacity:1.0000; stroke:none;">
<circle cx="177.6000" cy="79.0000" r="0.3000" /> 
</g>
<g style="fill:#ECECEC; fill-opacity:1.0000; stroke:none;">
<circle cx="178.7000" cy="76.9600" r="0.3000" /> 
</g>
<g style="fill:#ECECEC; fill-opacity:1.0000; stroke:none;">
<circle cx="179.6000" cy="85.0000" r="0.3000" /> 
</g>
<g style="fill:#ECECEC; fill-opacity:1.0000; stroke:none;">
<circle cx="180.5000" cy="84.4000" r="0.3000" /> 
</g>
<g style="fill:#ECECEC; fill-opacity:1.0000; stroke:none;">
<circle cx="178.0600" cy="84.4600" r="0.3000" /> 
</g>
<g style="fill:#ECECEC; fill-opacity:1.0000; stroke:none;">
<circle cx="178.7800" cy="84.4500" r="0.3000" /> 
</g>
<g style="fill:#ECECEC; fill-opacity:1.0000; stroke:none;">
<circle cx="179.6000" cy="84.0000" r="0.3000" /> 
</g>
<g style="fill:#ECECEC; fill-opacity:1.0000; stroke:none;">
<circle cx="181.3000" cy="84.4000" r="0.3000" /> 
</g>
<g style="fill:#ECECEC; fill-opacity:1.0000; stroke:none;">
<circle cx="181.3900" cy="90.7500" r="0.3000" /> 
</g>
<g style="fill:#ECECEC; fill-opacity:1.0000; stroke:none;">
<circle cx="174.4190" cy="90.4402" r="0.3000" /> 
</g>
<g style="fill:#ECECEC; fill-opacity:1.0000; stroke:none;">
<circle cx="169.2000" cy="119.6000" r="0.3000" /> 
</g>
<g style="fill:#ECECEC; fill-opacity:1.0000; stroke:none;">
<circle cx="169.2000" cy="118.9000" r="0.3000" /> 
</g>
<g style="fill:#ECECEC; fill-opacity:1.0000; stroke:none;">
<circle cx="168.5000" cy="118.9000" r="0.3000" /> 
</g>
<g style="fill:#ECECEC; fill-opacity:1.0000; stroke:none;">
<circle cx="169.9000" cy="118.9000" r="0.3000" /> 
</g>
<g style="fill:#ECECEC; fill-opacity:1.0000; stroke:none;">
<circle cx="169.9000" cy="119.6000" r="0.3000" /> 
</g>
<g style="fill:#ECECEC; fill-opacity:1.0000; stroke:none;">
<circle cx="173.3000" cy="80.3000" r="0.3000" /> 
</g>
<g style="fill:#ECECEC; fill-opacity:1.0000; stroke:none;">
<circle cx="172.8000" cy="75.7000" r="0.3000" /> 
</g>
<g style="fill:#ECECEC; fill-opacity:1.0000; stroke:none;">
<circle cx="181.2000" cy="93.6000" r="0.3000" /> 
</g>
<g style="fill:#ECECEC; fill-opacity:1.0000; stroke:none;">
<circle cx="164.0800" cy="97.5000" r="0.3000" /> 
</g>
<g style="fill:#ECECEC; fill-opacity:1.0000; stroke:none;">
<circle cx="181.9000" cy="93.6000" r="0.3000" /> 
</g>
<g style="fill:#ECECEC; fill-opacity:1.0000; stroke:none;">
<circle cx="180.5000" cy="93.6000" r="0.3000" /> 
</g>
<g style="fill:#ECECEC; fill-opacity:1.0000; stroke:none;">
<circle cx="172.8000" cy="74.3000" r="0.3000" /> 
</g>
<g style="fill:#ECECEC; fill-opacity:1.0000; stroke:none;">
<circle cx="172.8000" cy="75.0000" r="0.3000" /> 
</g>
<g style="fill:#ECECEC; fill-opacity:1.0000; stroke:none;">
<circle cx="179.8000" cy="93.6000" r="0.3000" /> 
</g>
<g style="fill:#ECECEC; fill-opacity:1.0000; stroke:none;">
<circle cx="172.7000" cy="82.2900" r="0.3000" /> 
</g>
<g style="fill:#ECECEC; fill-opacity:1.0000; stroke:none;">
<circle cx="172.7000" cy="82.9400" r="0.3000" /> 
</g>
<g style="fill:#ECECEC; fill-opacity:1.0000; stroke:none;">
<circle cx="170.8000" cy="118.9000" r="0.3000" /> 
</g>
<g style="fill:#ECECEC; fill-opacity:1.0000; stroke:none;">
<circle cx="172.0000" cy="74.3000" r="0.3000" /> 
</g>
<g style="fill:#ECECEC; fill-opacity:1.0000; stroke:none;">
<circle cx="172.7000" cy="80.3000" r="0.3000" /> 
</g>
<g style="fill:#ECECEC; fill-opacity:1.0000; stroke:none;">
<circle cx="172.7000" cy="81.6500" r="0.3000" /> 
</g>
<g style="fill:#ECECEC; fill-opacity:1.0000; stroke:none;">
<circle cx="172.0000" cy="75.0000" r="0.3000" /> 
</g>
<g style="fill:#ECECEC; fill-opacity:1.0000; stroke:none;">
<circle cx="170.9450" cy="94.1900" r="0.3000" /> 
</g>
<g style="fill:#ECECEC; fill-opacity:1.0000; stroke:none;">
<circle cx="172.7000" cy="80.9500" r="0.3000" /> 
</g>
<g style="fill:#ECECEC; fill-opacity:1.0000; stroke:none;">
<circle cx="162.5000" cy="86.7000" r="0.3000" /> 
</g>
<g style="fill:#ECECEC; fill-opacity:1.0000; stroke:none;">
<circle cx="164.8000" cy="97.5000" r="0.3000" /> 
</g>
<g style="fill:#ECECEC; fill-opacity:1.0000; stroke:none;">
<circle cx="164.4000" cy="88.1000" r="0.3000" /> 
</g>
<g style="fill:#ECECEC; fill-opacity:1.0000; stroke:none;">
<circle cx="165.5000" cy="98.2000" r="0.3000" /> 
</g>
<g style="fill:#ECECEC; fill-opacity:1.0000; stroke:none;">
<circle cx="164.8000" cy="98.2000" r="0.3000" /> 
</g>
<g style="fill:#ECECEC; fill-opacity:1.0000; stroke:none;">
<circle cx="164.1000" cy="98.2000" r="0.3000" /> 
</g>
<g style="fill:#ECECEC; fill-opacity:1.0000; stroke:none;">
<circle cx="162.5000" cy="87.5000" r="0.3000" /> 
</g>
<g style="fill:#ECECEC; fill-opacity:1.0000; stroke:none;">
<circle cx="193.4000" cy="98.3000" r="0.3000" /> 
</g>
<g style="fill:#ECECEC; fill-opacity:1.0000; stroke:none;">
<circle cx="193.4000" cy="97.6000" r="0.3000" /> 
</g>
<g style="fill:#ECECEC; fill-opacity:1.0000; stroke:none;">
<circle cx="192.7000" cy="98.3000" r="0.3000" /> 
</g>
<g style="fill:#ECECEC; fill-opacity:1.0000; stroke:none;">
<circle cx="172.3100" cy="72.8200" r="0.3000" /> 
</g>
<g style="fill:#ECECEC; fill-opacity:1.0000; stroke:none;">
<circle cx="168.2000" cy="97.0400" r="0.3000" /> 
</g>
<g style="fill:#ECECEC; fill-opacity:1.0000; stroke:none;">
<circle cx="171.3200" cy="83.5100" r="0.3000" /> 
</g>
<g style="fill:#ECECEC; fill-opacity:1.0000; stroke:none;">
<circle cx="170.7000" cy="97.1000" r="0.3000" /> 
<path style="fill:#7FC87F; fill-opacity:1.0000; stroke:none;fill-rule:evenodd;"
d="M 206.5947,61.0198
206.6406,61.0725
206.6520,61.1223
206.6689,62.1825
206.6503,62.2498
206.6116,62.2872
206.6123,62.2883
206.3883,62.4410
206.1930,62.6223
206.1930,62.6223
206.0268,62.8306
205.8936,63.0614
205.7962,63.3094
205.7962,63.3095
205.7369,63.5693
205.7369,63.5693
205.7170,63.8350
205.7170,63.8350
205.7369,64.1007
205.7369,64.1007
205.7962,64.3605
205.7962,64.3605
205.7962,64.3605
205.8936,64.6086
206.0268,64.8394
206.1930,65.0477
206.3883,65.2290
206.6085,65.3791
206.6518,65.4000
206.7036,65.4468
206.7220,65.5097
206.7675,68.3625
207.2806,69.1696
207.3000,69.2361
207.3000,72.5000
207.4578,72.6632
207.5949,72.8051
207.6273,72.8669
207.6282,72.9106
207.5739,73.2536
207.5547,73.6200
207.5547,73.6200
207.5739,73.9864
207.6313,74.3488
207.6313,74.3488
207.7263,74.7032
207.8577,75.0457
208.0243,75.3727
208.2241,75.6804
208.2400,75.7000
208.4551,75.9655
208.7145,76.2249
208.8719,76.3524
208.9996,76.4559
209.3073,76.6557
209.3073,76.6557
209.6343,76.8223
209.9768,76.9537
210.1001,76.9868
210.1598,77.0231
210.1903,77.0860
210.1920,77.1072
210.0003,115.7441
209.9803,115.8110
209.9579,115.8368
207.6353,117.8691
207.5719,117.8984
207.5530,117.8998
206.3208,117.8933
169.3000,117.7000
165.8000,115.7000
165.8000,113.5000
163.9000,113.5000
163.0230,113.5000
162.9560,113.4803
162.9102,113.4275
162.8990,113.3770
162.8946,112.8000
162.8000,100.6000
162.8000,100.6000
162.8000,100.6000
161.0347,98.7367
161.0029,98.6745
161.0008,98.6495
161.0015,98.6000
162.7000,98.6000
162.8117,98.6745
163.1270,98.8846
163.1276,98.8850
163.2108,98.9405
163.8045,99.3363
165.0971,100.1981
165.1028,100.2021
165.8504,100.7628
165.8922,100.8188
165.9000,100.8620
165.9000,113.5000
166.1156,113.5000
166.1826,113.5197
166.1968,113.5303
166.2837,113.6056
166.2837,113.6056
166.2837,113.6056
166.2837,113.6056
166.2837,113.6056
166.3779,113.6486
166.4145,113.6653
166.4816,113.6850
166.4816,113.6850
166.6240,113.7055
166.6240,113.7055
172.7760,113.7055
172.7760,113.7055
172.8835,113.6939
172.9350,113.6827
172.9692,113.6713
173.0375,113.6486
173.0375,113.6486
173.0375,113.6486
173.1585,113.5708
173.2053,113.5303
173.2689,113.5013
173.2865,113.5000
174.7000,113.5000
174.7000,111.3240
174.7197,111.2570
174.7725,111.2112
174.8240,111.2000
185.0000,111.2000
185.0000,107.2000
185.8943,107.2000
185.9150,107.3568
185.9150,107.3568
185.9755,107.5028
186.0717,107.6283
186.1972,107.7245
186.3432,107.7850
186.4216,107.7954
186.5000,107.8057
186.5000,107.8057
186.5000,107.8057
186.5523,107.7988
186.6568,107.7850
186.8028,107.7245
186.9283,107.6283
187.0245,107.5028
187.0850,107.3568
187.1057,107.2000
187.0850,107.0432
187.0604,106.9837
187.0247,106.8975
187.0172,106.8280
187.0247,106.8025
187.0732,106.6855
187.0850,106.6568
187.1057,106.5000
187.1025,106.4760
187.0850,106.3432
187.0850,106.3432
187.0245,106.1972
186.9283,106.0717
186.8028,105.9755
186.6568,105.9150
186.6568,105.9150
186.5000,105.8943
186.5000,105.8943
186.3432,105.9150
186.3432,105.9150
186.1972,105.9755
186.0717,106.0717
185.9755,106.1972
185.9150,106.3432
185.9150,106.3432
185.8943,106.5000
185.8943,106.5000
185.9150,106.6568
185.9150,106.6568
185.9753,106.8025
185.9828,106.8720
185.9753,106.8975
185.9150,107.0432
185.9150,107.0432
185.8943,107.2000
185.8943,107.2000
185.0000,107.2000
185.0000,104.2240
185.0197,104.1570
185.0725,104.1112
185.1240,104.1000
188.6760,104.1000
188.7430,104.1197
188.7888,104.1725
188.8000,104.2240
188.8000,112.8000
189.8000,113.8000
201.2000,113.8000
202.9000,113.8000
202.9000,108.8000
202.9000,107.3000
202.9000,105.3000
198.4514,105.3000
198.3843,105.2803
198.3637,105.2637
192.4363,99.3363
192.4028,99.2750
192.4000,99.2486
192.4000,99.0076
192.4197,98.9405
192.4725,98.8948
192.5402,98.8846
192.5432,98.8850
192.5432,98.8850
192.7000,98.9057
192.7000,98.9057
192.7523,98.8988
192.8568,98.8850
192.9360,98.8522
193.0025,98.8247
193.0720,98.8172
193.0975,98.8247
193.1750,98.8568
193.2432,98.8850
193.3172,98.8948
193.4000,98.9057
193.4000,98.9057
193.4000,98.9057
193.4523,98.8988
193.5568,98.8850
193.7028,98.8245
193.8283,98.7283
193.9245,98.6028
193.9850,98.4568
194.0057,98.3000
193.9850,98.1432
193.9247,97.9975
193.9172,97.9280
193.9247,97.9025
193.9410,97.8630
193.9850,97.7568
193.9988,97.6523
194.0057,97.6000
194.0057,97.6000
193.9850,97.4432
193.9850,97.4432
193.9245,97.2972
193.8283,97.1717
193.7028,97.0755
193.5568,97.0150
193.5568,97.0150
193.4000,96.9943
193.4000,96.9943
193.2432,97.0150
193.2432,97.0150
193.0972,97.0755
192.9717,97.1717
192.8755,97.2972
192.8150,97.4432
192.8150,97.4432
192.7958,97.5890
192.7675,97.6529
192.7092,97.6914
192.6890,97.6958
192.5723,97.7111
192.5432,97.7150
192.5432,97.7150
192.5402,97.7154
192.4712,97.7046
192.4189,97.6582
192.4000,97.5924
192.4000,97.2539
192.4197,97.1868
192.4394,97.1632
192.5983,97.0150
193.9000,95.8000
193.9000,90.9338
193.9171,90.8709
195.9000,87.5000
195.9000,86.4000
195.7250,86.2250
195.6915,86.1637
195.6897,86.1211
195.7057,86.0000
195.6850,85.8432
195.6450,85.7465
195.6375,85.6770
195.6627,85.6216
196.0000,85.2000
196.0000,82.9240
196.0197,82.8570
196.0725,82.8112
196.1240,82.8000
199.5000,82.8000
199.5000,75.3000
193.1240,75.3000
193.0570,75.2803
193.0112,75.2275
193.0000,75.1760
193.0000,68.7000
173.1563,68.7000
173.0892,68.6803
173.0629,68.6577
171.7000,67.1000
171.7000,67.1000
170.5000,67.0000
172.4592,69.1696
174.1924,71.0889
174.2227,71.1518
174.2243,71.1737
174.1259,78.4595
174.1053,78.5263
174.0704,78.5612
171.9000,80.0000
171.9000,82.9467
171.8803,83.0137
171.8275,83.0595
171.7584,83.0694
171.7005,83.0451
171.6228,82.9855
171.4768,82.9250
171.4768,82.9250
171.3200,82.9043
171.3200,82.9043
171.1632,82.9250
171.1632,82.9250
171.0172,82.9855
170.8917,83.0817
170.7955,83.2072
170.7350,83.3532
170.7350,83.3532
170.7143,83.5100
170.7143,83.5100
170.7350,83.6668
170.7350,83.6668
170.7955,83.8128
170.8917,83.9383
171.0172,84.0345
171.1632,84.0950
171.2416,84.1054
171.3200,84.1157
171.3200,84.1157
171.3200,84.1157
171.3723,84.1088
171.4768,84.0950
171.6228,84.0345
171.7161,83.9630
171.7813,83.9378
171.8497,83.9518
171.8884,83.9896
171.9000,84.0000
171.9000,84.0000
175.7588,87.4630
175.7956,87.5225
175.8000,87.5553
175.8000,91.6760
175.7803,91.7430
175.7275,91.7888
175.6760,91.8000
171.1240,91.8000
171.0570,91.7803
171.0112,91.7275
171.0000,91.6760
171.0000,90.4402
173.8133,90.4402
173.8339,90.5970
173.8339,90.5970
173.8944,90.7431
173.9907,90.8685
174.1161,90.9648
174.2622,91.0253
174.3406,91.0356
174.4190,91.0459
174.4190,91.0459
174.4190,91.0459
174.4712,91.0390
174.5757,91.0253
174.7218,90.9648
174.8472,90.8685
174.9435,90.7431
175.0040,90.5970
175.0246,90.4402
175.0040,90.2835
174.9435,90.1374
174.8472,90.0119
174.7218,89.9157
174.5757,89.8552
174.5757,89.8552
174.4190,89.8345
174.4190,89.8345
174.2622,89.8552
174.2622,89.8552
174.1161,89.9157
173.9907,90.0119
173.8944,90.1374
173.8339,90.2835
173.8339,90.2835
173.8133,90.4402
173.8133,90.4402
171.0000,90.4402
171.0000,89.4000
171.0000,89.4000
169.2570,89.4968
169.1890,89.4809
169.1605,89.4587
169.1043,89.4000
167.0000,87.2000
166.9053,87.1947
165.2000,87.1000
165.2000,87.1000
165.0333,87.6210
164.9941,87.6789
164.9298,87.7064
164.8610,87.6948
164.8350,87.6763
164.8347,87.6767
164.8283,87.6717
164.8283,87.6717
164.7028,87.5755
164.6542,87.5553
164.5568,87.5150
164.5568,87.5150
164.4000,87.4943
164.4000,87.4943
164.2432,87.5150
164.2432,87.5150
164.0972,87.5755
163.9717,87.6717
163.8755,87.7972
163.8150,87.9432
163.8150,87.9432
163.7943,88.1000
163.7943,88.1000
163.8150,88.2568
163.8150,88.2568
163.8755,88.4028
163.9717,88.5283
164.0972,88.6245
164.2432,88.6850
164.3216,88.6954
164.4000,88.7057
164.4000,88.7057
164.5049,88.6919
164.5739,88.7026
164.6262,88.7490
164.6451,88.8163
164.6392,88.8526
164.4000,89.6000
164.4000,95.7544
164.3803,95.8215
164.3705,95.8347
162.7000,97.8000
162.7000,97.8000
162.7000,98.6000
161.0015,98.6000
161.0037,98.4568
161.0835,93.1500
162.2643,93.1500
162.2850,93.3068
162.2850,93.3068
162.3455,93.4528
162.4417,93.5783
162.5672,93.6745
162.7132,93.7350
162.7916,93.7454
162.8700,93.7557
162.8700,93.7557
162.8700,93.7557
162.9223,93.7488
163.0268,93.7350
163.1728,93.6745
163.2983,93.5783
163.3945,93.4528
163.4550,93.3068
163.4757,93.1500
163.4550,92.9932
163.3945,92.8472
163.2983,92.7217
163.1728,92.6255
163.0268,92.5650
163.0268,92.5650
162.8700,92.5443
162.8700,92.5443
162.7132,92.5650
162.7132,92.5650
162.5672,92.6255
162.4417,92.7217
162.3455,92.8472
162.2850,92.9932
162.2850,92.9932
162.2643,93.1500
162.2643,93.1500
161.0835,93.1500
161.1684,87.5000
161.8943,87.5000
161.9150,87.6568
161.9150,87.6568
161.9232,87.6767
161.9755,87.8028
162.0717,87.9283
162.1972,88.0245
162.3432,88.0850
162.4216,88.0954
162.5000,88.1057
162.5000,88.1057
162.5000,88.1057
162.5523,88.0988
162.6568,88.0850
162.8028,88.0245
162.9283,87.9283
163.0245,87.8028
163.0850,87.6568
163.1057,87.5000
163.0850,87.3432
163.0245,87.1972
163.0079,87.1755
162.9827,87.1103
162.9967,87.0419
163.0079,87.0245
163.0245,87.0028
163.0850,86.8568
163.1057,86.7000
163.0850,86.5432
163.0245,86.3972
162.9283,86.2717
162.8028,86.1755
162.7577,86.1568
162.6568,86.1150
162.6568,86.1150
162.5000,86.0943
162.5000,86.0943
162.3432,86.1150
162.3432,86.1150
162.1972,86.1755
162.0717,86.2717
161.9755,86.3972
161.9150,86.5432
161.9150,86.5432
161.8943,86.7000
161.8943,86.7000
161.9150,86.8568
161.9150,86.8568
161.9755,87.0028
161.9921,87.0245
162.0173,87.0897
162.0032,87.1581
161.9921,87.1755
161.9755,87.1972
161.9150,87.3432
161.9150,87.3432
161.8943,87.5000
161.8943,87.5000
161.1684,87.5000
161.1992,85.4517
161.2199,85.3849
161.2372,85.3642
166.5000,80.3000
166.5167,78.4340
166.5369,78.3671
166.5902,78.3218
166.6594,78.3125
166.6890,78.3229
166.6897,78.3214
166.6972,78.3245
166.6972,78.3245
166.8432,78.3850
166.9216,78.3954
167.0000,78.4057
167.0000,78.4057
167.0000,78.4057
167.0523,78.3988
167.1568,78.3850
167.3028,78.3245
167.4283,78.2283
167.5245,78.1028
167.5850,77.9568
167.6057,77.8000
167.5850,77.6432
167.5245,77.4972
167.4283,77.3717
167.3028,77.2755
167.3005,77.2745
167.1568,77.2150
167.1568,77.2150
167.0000,77.1943
167.0000,77.1943
166.8432,77.2150
166.8432,77.2150
166.6995,77.2745
166.6300,77.2820
166.5675,77.2507
166.5319,77.1906
166.5280,77.1588
166.5473,75.0000
171.3943,75.0000
171.4150,75.1568
171.4150,75.1568
171.4753,75.3025
171.4755,75.3028
171.5717,75.4283
171.6972,75.5245
171.8432,75.5850
172.0000,75.6057
172.0559,75.5983
172.1249,75.6091
172.1772,75.6555
172.1950,75.7051
172.2150,75.8568
172.2150,75.8568
172.2600,75.9655
172.2755,76.0028
172.3717,76.1283
172.4972,76.2245
172.6432,76.2850
172.7216,76.2954
172.8000,76.3057
172.8000,76.3057
172.8000,76.3057
172.8523,76.2988
172.9568,76.2850
173.1028,76.2245
173.2283,76.1283
173.3245,76.0028
173.3850,75.8568
173.4057,75.7000
173.3850,75.5432
173.3374,75.4283
173.3247,75.3975
173.3172,75.3280
173.3247,75.3025
173.3771,75.1760
173.3850,75.1568
173.4057,75.0000
173.3850,74.8432
173.3270,74.7032
173.3247,74.6975
173.3172,74.6280
173.3247,74.6025
173.3522,74.5360
173.3850,74.4568
173.4057,74.3000
173.3850,74.1432
173.3245,73.9972
173.2283,73.8717
173.1028,73.7755
172.9568,73.7150
172.9568,73.7150
172.8000,73.6943
172.8000,73.6943
172.6432,73.7150
172.6432,73.7150
172.4972,73.7755
172.4755,73.7921
172.4103,73.8173
172.3419,73.8032
172.3245,73.7921
172.3028,73.7755
172.1568,73.7150
172.1568,73.7150
172.0000,73.6943
172.0000,73.6943
171.8432,73.7150
171.8432,73.7150
171.6972,73.7755
171.5717,73.8717
171.4755,73.9972
171.4150,74.1432
171.4150,74.1432
171.3943,74.3000
171.3943,74.3000
171.4150,74.4568
171.4150,74.4568
171.4753,74.6025
171.4828,74.6720
171.4753,74.6975
171.4150,74.8432
171.4150,74.8432
171.3943,75.0000
171.3943,75.0000
166.5473,75.0000
166.5668,72.8200
171.7043,72.8200
171.7250,72.9768
171.7250,72.9768
171.7855,73.1228
171.8817,73.2483
172.0072,73.3445
172.1532,73.4050
172.2316,73.4154
172.3100,73.4257
172.3100,73.4257
172.3100,73.4257
172.3623,73.4188
172.4668,73.4050
172.6128,73.3445
172.7383,73.2483
172.8345,73.1228
172.8950,72.9768
172.9157,72.8200
172.8950,72.6632
172.8345,72.5172
172.7383,72.3917
172.6128,72.2955
172.5332,72.2625
172.4668,72.2350
172.4668,72.2350
172.3100,72.2143
172.3100,72.2143
172.1532,72.2350
172.1532,72.2350
172.0072,72.2955
171.8817,72.3917
171.7855,72.5172
171.7250,72.6632
171.7250,72.6632
171.7043,72.8200
171.7043,72.8200
166.5668,72.8200
166.6000,69.1000
165.9966,68.3625
165.7280,68.0343
165.7008,67.9699
165.7000,67.9557
165.7000,63.8350
190.2170,63.8350
190.2369,64.1007
190.2369,64.1007
190.2962,64.3605
190.2962,64.3605
190.2962,64.3605
190.3936,64.6086
190.5268,64.8394
190.6930,65.0477
190.8883,65.2290
191.1085,65.3791
191.3486,65.4947
191.6032,65.5733
191.6032,65.5733
191.6033,65.5733
191.8667,65.6130
191.8668,65.6130
191.8668,65.6130
191.8668,65.6130
192.1332,65.6130
192.1332,65.6130
192.1333,65.6130
192.3967,65.5733
192.3967,65.5733
192.3968,65.5733
192.6514,65.4947
192.8915,65.3791
193.1117,65.2290
193.3070,65.0477
193.4732,64.8394
193.6064,64.6086
193.7038,64.3605
193.7631,64.1007
193.7830,63.8350
193.7631,63.5693
193.7038,63.3095
193.6064,63.0614
193.4732,62.8306
193.3070,62.6223
193.1117,62.4410
192.8915,62.2909
192.6514,62.1753
192.3968,62.0967
192.3967,62.0967
192.1333,62.0570
192.1332,62.0570
191.8668,62.0570
191.8667,62.0570
191.6033,62.0967
191.6032,62.0967
191.3486,62.1753
191.1085,62.2909
191.1085,62.2909
190.8883,62.4410
190.6930,62.6223
190.6930,62.6223
190.5268,62.8306
190.3936,63.0614
190.2962,63.3094
190.2962,63.3095
190.2369,63.5693
190.2369,63.5693
190.2170,63.8350
190.2170,63.8350
165.7000,63.8350
165.7000,61.2337
165.7197,61.1666
165.7725,61.1209
165.8237,61.1097
206.5276,61.0003
Z" /> 
<path style="fill:#7FC87F; fill-opacity:1.0000; stroke:none;fill-rule:evenodd;"
d="M 165.8000,115.7000
169.3000,117.7000
206.3208,117.8933
206.3208,117.8933
206.5834,128.1459
206.5654,128.2134
206.5138,128.2605
206.5028,128.2652
206.3662,128.3162
206.3662,128.3162
206.1179,128.4517
206.1179,128.4518
205.8914,128.6213
205.8914,128.6213
205.6913,128.8214
205.6913,128.8214
205.5218,129.0479
205.5217,129.0479
205.3862,129.2962
205.3862,129.2962
205.3112,129.4972
205.2990,129.5300
205.2873,129.5613
205.2271,129.8378
205.2271,129.8378
205.2069,130.1200
205.2069,130.1200
205.2271,130.4022
205.2271,130.4022
205.2706,130.6021
205.2873,130.6787
205.3432,130.8286
205.3862,130.9438
205.3862,130.9438
205.5217,131.1921
205.5218,131.1921
205.6913,131.4186
205.6913,131.4186
205.8914,131.6187
205.8914,131.6187
206.1179,131.7882
206.1179,131.7883
206.3662,131.9238
206.3662,131.9238
206.3662,131.9238
206.3662,131.9238
206.6047,132.0128
206.6606,132.0547
206.6850,132.1201
206.6853,132.1258
206.6967,132.5725
206.6788,132.6400
206.6272,132.6871
206.5725,132.6997
166.0237,132.6003
165.9567,132.5805
165.9111,132.5275
165.9000,132.4763
165.9000,131.6320
165.9197,131.5650
165.9725,131.5192
166.0240,131.5080
166.2054,131.5080
166.2650,131.5016
166.3998,131.4513
166.5150,131.3650
166.6013,131.2498
166.6516,131.1150
166.6580,131.0554
166.6580,129.5300
178.1969,129.5300
178.2171,129.8122
178.2171,129.8122
178.2773,130.0887
178.2773,130.0887
178.3387,130.2533
178.3762,130.3538
178.3762,130.3538
178.5117,130.6021
178.5118,130.6021
178.6813,130.8286
178.6813,130.8286
178.8814,131.0287
178.8814,131.0287
179.1079,131.1982
179.1079,131.1983
179.3562,131.3338
179.3562,131.3338
179.3562,131.3338
179.6213,131.4327
179.8978,131.4929
180.1583,131.5115
180.1800,131.5131
180.1800,131.5131
180.1800,131.5131
180.2002,131.5116
180.4622,131.4929
180.7387,131.4327
181.0038,131.3338
181.2521,131.1983
181.4786,131.0287
181.6787,130.8286
181.8482,130.6021
181.9838,130.3538
182.0710,130.1200
189.7069,130.1200
189.7271,130.4022
189.7271,130.4022
189.7706,130.6021
189.7873,130.6787
189.8432,130.8286
189.8862,130.9438
189.8862,130.9438
190.0217,131.1921
190.0218,131.1921
190.1913,131.4186
190.1913,131.4186
190.3914,131.6187
190.3914,131.6187
190.6179,131.7882
190.6179,131.7883
190.8662,131.9238
190.8662,131.9238
190.8662,131.9238
191.1313,132.0227
191.4078,132.0829
191.6683,132.1015
191.6900,132.1031
191.6900,132.1031
191.6900,132.1031
191.7102,132.1016
191.9722,132.0829
192.2487,132.0227
192.5138,131.9238
192.7621,131.7883
192.9886,131.6187
193.1887,131.4186
193.3582,131.1921
193.4938,130.9438
193.5927,130.6787
193.6529,130.4022
193.6731,130.1200
193.6529,129.8378
193.5927,129.5613
193.4938,129.2962
193.4674,129.2478
193.3583,129.0479
193.3582,129.0479
193.1887,128.8214
193.1887,128.8214
192.9886,128.6213
192.9886,128.6213
192.7621,128.4518
192.7621,128.4517
192.5138,128.3162
192.5138,128.3162
192.3645,128.2605
192.2487,128.2173
192.2487,128.2173
192.2487,128.2173
191.9722,128.1571
191.9722,128.1571
191.6900,128.1369
191.6900,128.1369
191.4078,128.1571
191.4078,128.1571
191.1313,128.2173
191.1313,128.2173
191.1313,128.2173
191.0935,128.2314
190.8662,128.3162
190.8662,128.3162
190.6179,128.4517
190.6179,128.4518
190.3914,128.6213
190.3914,128.6213
190.1913,128.8214
190.1913,128.8214
190.0218,129.0479
190.0217,129.0479
189.8862,129.2962
189.8862,129.2962
189.8112,129.4972
189.7990,129.5300
189.7873,129.5613
189.7271,129.8378
189.7271,129.8378
189.7069,130.1200
189.7069,130.1200
182.0710,130.1200
182.0827,130.0887
182.1429,129.8122
182.1631,129.5300
182.1429,129.2478
182.0827,128.9713
181.9838,128.7062
181.9375,128.6213
181.8483,128.4579
181.8482,128.4579
181.6787,128.2314
181.6787,128.2314
181.4786,128.0313
181.4786,128.0313
181.2521,127.8618
181.2521,127.8617
181.0038,127.7262
181.0038,127.7262
180.9033,127.6887
180.7387,127.6273
180.7387,127.6273
180.7387,127.6273
180.4622,127.5671
180.4622,127.5671
180.1800,127.5469
180.1800,127.5469
179.8978,127.5671
179.8978,127.5671
179.6213,127.6273
179.6213,127.6273
179.6213,127.6273
179.5572,127.6512
179.3562,127.7262
179.3562,127.7262
179.1079,127.8617
179.1079,127.8618
178.8814,128.0313
178.8814,128.0313
178.6813,128.2314
178.6813,128.2314
178.5118,128.4579
178.5117,128.4579
178.3762,128.7062
178.3762,128.7062
178.2773,128.9713
178.2171,129.2478
178.2171,129.2478
178.1969,129.5300
178.1969,129.5300
166.6580,129.5300
166.6580,128.0046
166.6516,127.9450
166.6205,127.8618
166.6013,127.8102
166.6013,127.8102
166.5150,127.6950
166.5150,127.6950
166.3998,127.6087
166.3998,127.6087
166.2650,127.5584
166.2650,127.5584
166.2054,127.5520
166.2054,127.5520
166.2054,127.5520
166.2054,127.5520
166.0240,127.5520
165.9570,127.5323
165.9112,127.4795
165.9000,127.4280
165.9000,118.9000
167.6944,118.9000
167.7146,119.0792
167.7146,119.0793
167.7742,119.2495
167.8702,119.4023
167.9977,119.5298
168.1505,119.6258
168.3207,119.6854
168.3208,119.6854
168.3212,119.6855
168.3215,119.6856
168.3273,119.6877
168.3270,119.6887
168.3822,119.7196
168.4114,119.7730
168.4123,119.7727
168.4144,119.7785
168.4145,119.7788
168.4146,119.7792
168.4146,119.7793
168.4465,119.8704
168.4742,119.9495
168.4742,119.9495
168.5702,120.1023
168.6977,120.2298
168.8505,120.3258
169.0207,120.3854
169.0207,120.3854
169.0207,120.3854
169.2000,120.4056
169.2000,120.4056
169.2000,120.4056
169.3792,120.3854
169.3793,120.3854
169.3793,120.3854
169.3793,120.3854
169.3793,120.3854
169.5090,120.3400
169.5788,120.3364
169.5910,120.3400
169.7207,120.3854
169.7207,120.3854
169.7207,120.3854
169.7207,120.3854
169.7207,120.3854
169.9000,120.4056
169.9000,120.4056
169.9000,120.4056
170.0792,120.3854
170.0793,120.3854
170.0793,120.3854
170.2495,120.3258
170.4023,120.2298
170.5298,120.1023
170.6258,119.9495
170.6821,119.7886
170.7228,119.7318
170.7878,119.7061
170.7991,119.7056
170.8000,119.7056
170.9792,119.6854
170.9793,119.6854
170.9793,119.6854
171.1495,119.6258
171.3023,119.5298
171.4298,119.4023
171.5258,119.2495
171.5854,119.0793
171.6056,118.9000
171.5854,118.7207
171.5258,118.5505
171.4298,118.3977
171.3023,118.2702
171.2500,118.2373
171.1495,118.1742
170.9793,118.1146
170.9792,118.1146
170.8000,118.0944
170.8000,118.0944
170.6207,118.1146
170.6207,118.1146
170.4505,118.1742
170.4160,118.1959
170.3487,118.2149
170.2840,118.1959
170.2495,118.1742
170.0793,118.1146
170.0792,118.1146
169.9000,118.0944
169.9000,118.0944
169.7207,118.1146
169.7207,118.1146
169.5910,118.1600
169.5212,118.1636
169.5090,118.1600
169.3793,118.1146
169.3792,118.1146
169.2000,118.0944
169.2000,118.0944
169.0207,118.1146
169.0207,118.1146
168.8910,118.1600
168.8212,118.1636
168.8090,118.1600
168.6793,118.1146
168.6792,118.1146
168.5000,118.0944
168.5000,118.0944
168.3208,118.1146
168.3207,118.1146
168.1505,118.1742
167.9977,118.2702
167.8702,118.3977
167.7742,118.5505
167.7146,118.7207
167.7146,118.7207
167.6944,118.9000
167.6944,118.9000
165.9000,118.9000
165.9000,118.3000
165.9000,118.3000
163.9386,116.4367
163.9035,116.3762
163.9000,116.3468
163.9000,113.5000
165.8000,113.5000
Z" /> 
<path style="fill:#7FC87F; fill-opacity:1.0000; stroke:none;fill-rule:evenodd;"
d="M 172.8430,100.6197
172.8888,100.6725
172.9000,100.7240
172.9000,106.4760
172.8803,106.5430
172.8275,106.5888
172.7760,106.6000
166.6240,106.6000
166.5570,106.5803
166.5112,106.5275
166.5000,106.4760
166.5000,100.7240
166.5197,100.6570
166.5725,100.6112
166.6240,100.6000
172.7760,100.6000
Z" /> 
<path style="fill:#7FC87F; fill-opacity:1.0000; stroke:none;fill-rule:evenodd;"
d="M 214.5262,58.2197
214.5932,58.2396
214.6388,58.2925
214.6499,58.3438
214.6001,135.1672
214.5804,135.2343
214.5275,135.2800
214.4772,135.2911
159.7764,135.7995
159.7753,135.7995
157.6939,135.7995
157.6269,135.7798
157.5811,135.7270
157.5699,135.6756
157.5697,135.2343
157.5518,98.6419
160.4953,98.6419
160.4971,98.6930
160.4993,98.7179
160.4993,98.7179
160.5062,98.7685
160.5062,98.7685
160.5442,98.8793
160.5529,98.9046
160.5637,98.9258
160.5847,98.9668
160.6678,99.0843
160.6678,99.0843
162.2625,100.7676
162.2943,100.8298
162.2964,100.8519
162.3936,113.3809
162.3936,113.3809
162.4055,113.4863
162.4055,113.4863
162.4167,113.5369
162.4504,113.6375
162.4504,113.6375
162.5282,113.7585
162.5282,113.7585
162.5740,113.8113
162.5740,113.8113
162.5740,113.8113
162.6827,113.9056
162.6827,113.9056
162.6827,113.9056
162.8136,113.9653
162.8177,113.9669
162.8171,113.9685
162.8697,114.0023
162.8987,114.0659
162.9000,114.0835
162.9000,117.0000
165.3459,118.8752
165.3872,118.9316
165.3945,118.9736
165.3945,127.4280
165.3748,127.4950
165.3220,127.5408
165.2705,127.5520
163.1546,127.5520
163.1546,127.5520
163.0950,127.5584
162.9602,127.6087
162.9602,127.6087
162.8450,127.6950
162.8450,127.6950
162.7587,127.8102
162.7587,127.8102
162.7084,127.9450
162.7020,128.0046
162.7020,128.0046
162.7020,131.0554
162.7020,131.0554
162.7084,131.1150
162.7587,131.2498
162.7587,131.2498
162.8450,131.3650
162.8450,131.3650
162.9602,131.4513
162.9602,131.4513
163.0950,131.5016
163.0950,131.5016
163.1019,131.5023
163.1546,131.5080
165.2705,131.5080
165.3375,131.5277
165.3833,131.5805
165.3945,131.6320
165.3945,132.4763
165.4059,132.5831
165.4059,132.5832
165.4170,132.6344
165.4170,132.6344
165.4507,132.7364
165.5282,132.8576
165.5282,132.8576
165.5282,132.8576
165.5739,132.9105
165.5739,132.9105
165.6824,133.0050
165.8131,133.0651
165.8801,133.0850
165.8802,133.0850
165.8802,133.0850
166.0225,133.1058
206.5712,133.2052
206.6676,133.1944
206.6856,133.1924
206.6856,133.1924
206.6856,133.1924
206.7403,133.1798
206.8489,133.1414
206.9679,133.0606
207.0175,133.0153
207.0189,133.0141
207.0195,133.0135
207.0195,133.0135
207.0195,133.0135
207.1109,132.9023
207.1673,132.7700
207.1852,132.7025
207.2021,132.5596
207.1934,132.2214
207.2114,132.1539
207.2630,132.1068
207.3085,132.0946
207.4722,132.0829
207.7487,132.0227
208.0138,131.9238
208.2621,131.7883
208.4886,131.6187
208.6887,131.4186
208.8582,131.1921
208.9938,130.9438
209.0927,130.6787
209.1529,130.4022
209.1731,130.1200
209.1529,129.8378
209.0927,129.5613
208.9938,129.2962
208.8582,129.0479
208.8582,129.0479
208.6887,128.8214
208.6887,128.8214
208.4886,128.6213
208.4886,128.6213
208.2621,128.4518
208.2621,128.4517
208.0138,128.3162
208.0138,128.3162
207.9133,128.2787
207.7487,128.2173
207.7487,128.2173
207.7487,128.2173
207.4722,128.1571
207.4722,128.1571
207.2009,128.1377
207.1354,128.1133
207.0935,128.0574
207.0858,128.0172
207.0626,127.1148
206.9130,121.2721
206.9310,121.2046
206.9826,121.1575
206.9892,121.1545
207.6000,120.9000
207.6000,118.5046
207.6197,118.4376
207.6725,118.3918
207.6885,118.3858
207.7841,118.3572
207.8475,118.3279
207.8476,118.3279
207.9682,118.2495
210.2908,116.2172
210.3400,116.1679
210.3623,116.1421
210.4042,116.0864
210.4646,115.9559
210.4846,115.8889
210.5058,115.7466
210.6970,77.2196
210.6975,77.1097
210.6975,77.1097
210.6975,77.1097
210.6959,77.0664
210.6942,77.0452
210.6888,77.0022
210.6450,76.8651
210.6145,76.8023
210.6145,76.8023
210.5338,76.6831
210.4229,76.5915
210.3632,76.5551
210.3632,76.5551
210.3632,76.5551
210.2707,76.5155
210.2168,76.4711
210.1956,76.4045
210.1955,76.4010
210.2000,75.5000
208.1206,73.3489
208.0882,73.2871
208.0873,73.2434
208.1275,72.9897
208.1336,72.9005
208.1327,72.8568
208.1230,72.7679
208.0750,72.6322
208.0426,72.5704
207.9583,72.4537
207.9224,72.4165
207.8403,72.3317
207.8079,72.2698
207.8055,72.2455
207.8055,69.2361
207.8055,69.2361
207.7854,69.0949
207.7854,69.0948
207.7854,69.0948
207.7660,69.0283
207.7072,68.8983
207.4181,68.4436
207.2894,68.2413
207.2701,68.1767
207.2699,68.1668
207.2343,65.9342
207.2529,65.8669
207.3050,65.8203
207.3671,65.8085
207.5000,65.8181
207.5000,65.8181
207.5202,65.8166
207.7822,65.7979
208.0587,65.7377
208.3238,65.6388
208.5721,65.5032
208.7986,65.3337
208.9987,65.1336
209.1683,64.9071
209.3038,64.6588
209.4027,64.3937
209.4629,64.1172
209.4831,63.8350
209.4629,63.5528
209.4027,63.2763
209.3038,63.0112
209.1683,62.7629
209.1682,62.7629
208.9987,62.5364
208.9987,62.5364
208.7986,62.3363
208.7986,62.3363
208.5721,62.1668
208.5721,62.1667
208.3238,62.0312
208.3238,62.0312
208.2233,61.9937
208.0587,61.9323
208.0587,61.9323
208.0587,61.9323
207.7822,61.8721
207.7822,61.8721
207.5000,61.8519
207.5000,61.8519
207.3003,61.8662
207.2320,61.8514
207.1826,61.8020
207.1674,61.7445
207.1668,61.7050
207.1574,61.1143
207.1574,61.1143
207.1574,61.1143
207.1449,61.0103
207.1449,61.0103
207.1335,60.9605
207.1108,60.8933
207.0999,60.8613
207.0999,60.8613
207.0999,60.8613
207.0218,60.7405
207.0204,60.7388
206.9759,60.6878
206.9759,60.6878
206.8669,60.5939
206.8669,60.5939
206.7358,60.5344
206.7358,60.5344
206.7358,60.5344
206.6733,60.5162
206.6712,60.5155
206.6687,60.5149
206.6227,60.5084
206.5263,60.4948
165.8223,60.6042
165.7155,60.6159
165.6644,60.6271
165.5625,60.6611
165.4415,60.7388
165.4415,60.7388
165.3887,60.7846
165.2944,60.8933
165.2944,60.8933
165.2347,61.0242
165.2150,61.0912
165.1985,61.2056
165.1695,61.2692
165.1107,61.3070
165.0758,61.3120
163.5146,61.3120
163.5146,61.3120
163.4550,61.3184
163.3202,61.3687
163.3202,61.3687
163.2050,61.4550
163.2050,61.4550
163.1187,61.5702
163.1187,61.5702
163.0684,61.7050
163.0620,61.7646
163.0620,61.7646
163.0620,64.8154
163.0620,64.8154
163.0684,64.8750
163.1187,65.0098
163.1187,65.0098
163.2050,65.1250
163.2050,65.1250
163.3202,65.2113
163.3202,65.2113
163.4550,65.2616
163.4550,65.2616
163.4619,65.2623
163.5146,65.2680
165.0705,65.2680
165.1375,65.2877
165.1833,65.3405
165.1945,65.3920
165.1945,67.9557
165.1953,67.9846
165.1961,67.9988
165.1986,68.0277
165.2352,68.1668
165.2352,68.1668
165.2625,68.2312
165.2625,68.2312
165.3368,68.3544
165.4098,68.4436
165.4370,68.5079
165.4257,68.5754
165.1900,69.0700
165.1900,69.0700
165.1702,74.2802
165.1600,74.3145
165.1600,80.2500
165.1403,80.3170
165.1366,80.3225
163.7638,82.2286
163.7492,82.2455
162.4351,83.5100
160.8867,84.9999
160.8491,85.0403
160.8318,85.0611
160.7988,85.1053
160.7988,85.1053
160.7371,85.2352
160.7164,85.3020
160.6938,85.4441
160.6938,85.4441
160.6749,86.7000
160.6630,87.4924
160.6629,87.5000
160.6629,87.5000
160.5780,93.1424
160.5779,93.1500
160.5779,93.1500
160.5000,98.3295
160.5000,98.3295
160.4961,98.5924
160.4961,98.5924
160.4953,98.6419
157.5518,98.6419
157.5400,74.5406
157.5597,74.4736
157.5754,74.4538
157.5800,74.4492
157.5800,74.4492
157.5800,58.2243
157.5997,58.1572
157.6525,58.1115
157.7043,58.1003
Z" /> 
<path style="fill:#7FC87F; fill-opacity:1.0000; stroke:none;fill-rule:evenodd;"
d="M 172.8430,107.2197
172.8888,107.2725
172.9000,107.3240
172.9000,113.0760
172.8803,113.1430
172.8275,113.1888
172.7760,113.2000
166.6240,113.2000
166.5570,113.1803
166.5112,113.1275
166.5000,113.0760
166.5000,107.3240
166.5197,107.2570
166.5725,107.2112
166.6240,107.2000
172.7760,107.2000
Z" /> 
<path style="fill:#7FC87F; fill-opacity:1.0000; stroke:none;fill-rule:evenodd;"
d="M 181.9430,76.6252
181.9888,76.6780
182.0000,76.7295
182.0000,79.5760
181.9803,79.6430
181.9275,79.6888
181.8760,79.7000
176.8240,79.7000
176.7570,79.6803
176.7112,79.6275
176.7000,79.5760
176.7000,76.7295
176.7197,76.6625
176.7725,76.6167
176.8240,76.6055
181.8760,76.6055
Z" /> 
<path style="fill:#7FC87F; fill-opacity:1.0000; stroke:none;fill-rule:evenodd;"
d="M 182.8430,82.1197
182.8888,82.1725
182.9000,82.2240
182.9000,86.9752
182.8803,87.0422
182.8275,87.0880
182.7752,87.0992
176.9134,87.0608
176.8465,87.0407
176.8011,86.9876
176.7902,86.9366
176.7998,82.2237
176.8196,82.1568
176.8725,82.1111
176.9238,82.1000
182.7760,82.1000
Z" /> 
<path style="fill:#7FC87F; fill-opacity:1.0000; stroke:none;fill-rule:evenodd;"
d="M 181.9430,72.4197
181.9888,72.4725
182.0000,72.5240
182.0000,75.9760
181.9803,76.0430
181.9275,76.0888
181.8760,76.1000
176.8240,76.1000
176.7570,76.0803
176.7112,76.0275
176.7000,75.9760
176.7000,72.5240
176.7197,72.4570
176.7725,72.4112
176.8240,72.4000
181.8760,72.4000
Z" /> 
<path style="fill:#7FC87F; fill-opacity:1.0000; stroke:none;fill-rule:evenodd;"
d="M 172.1308,74.0349
172.1386,74.0381
172.1582,74.0483
172.1593,74.0491
172.1594,74.0491
172.1767,74.0603
172.2805,74.1025
172.3489,74.1166
172.3489,74.1166
172.3489,74.1166
172.3564,74.1173
172.4101,74.1228
172.4101,74.1228
172.4101,74.1228
172.5205,74.1022
172.5205,74.1022
172.5205,74.1022
172.5856,74.0770
172.6305,74.0518
172.6437,74.0454
172.6692,74.0349
172.7166,74.0255
172.8834,74.0255
172.9308,74.0349
172.9337,74.0361
172.9617,74.0523
172.9945,74.0774
173.0357,74.1338
173.0430,74.1741
173.0467,74.4506
173.0396,74.4935
173.0315,74.5165
173.0315,74.5165
173.0241,74.5419
173.0222,74.5487
173.0222,74.5487
173.0134,74.6606
173.0134,74.6606
173.0209,74.7301
173.0209,74.7301
173.0424,74.8144
173.0424,74.8144
173.0427,74.8151
173.0428,74.8156
173.0438,74.8186
173.0435,74.8187
173.0521,74.8609
173.0557,75.1272
173.0463,75.1763
173.0424,75.1856
173.0424,75.1857
173.0315,75.2165
173.0315,75.2165
173.0241,75.2419
173.0222,75.2487
173.0222,75.2487
173.0134,75.3606
173.0134,75.3606
173.0209,75.4301
173.0209,75.4301
173.0424,75.5144
173.0424,75.5144
173.0524,75.5384
173.0618,75.5842
173.0643,75.7748
173.0455,75.8421
172.9934,75.8885
172.9403,75.9005
172.6466,75.9005
172.5795,75.8808
172.5338,75.8280
172.5320,75.8239
172.5188,75.7921
172.5105,75.7608
172.4979,75.6652
172.4979,75.6652
172.4825,75.6017
172.4646,75.5521
172.4488,75.5157
172.4171,75.4748
172.3915,75.4098
172.3910,75.3988
172.3910,75.3505
172.3156,75.3505
172.2743,75.3434
172.1720,75.3072
172.1029,75.2965
172.0160,75.2954
172.0116,75.2957
172.0115,75.2954
171.9838,75.2954
171.9392,75.2895
171.9079,75.2812
171.8663,75.2639
171.8383,75.2478
171.8357,75.2458
171.7945,75.1894
171.7872,75.1497
171.7795,74.7381
171.7798,74.7261
171.7849,74.6606
171.7866,74.6394
171.7791,74.5699
171.7791,74.5699
171.7783,74.5655
171.7787,74.5655
171.7758,74.5436
171.7687,74.1691
171.7871,74.1017
171.8172,74.0684
171.8383,74.0523
171.8663,74.0361
171.8692,74.0349
171.9166,74.0255
172.0834,74.0255
Z" /> 
<path style="fill:#7FC87F; fill-opacity:1.0000; stroke:none;fill-rule:evenodd;"
d="M 168.5522,118.6090
168.5792,118.6152
168.6421,118.6372
168.6666,118.6451
168.6788,118.6486
168.7037,118.6553
168.8469,118.6685
168.9136,118.6650
168.9156,118.6650
168.9167,118.6649
168.9167,118.6649
168.9167,118.6649
169.0579,118.6372
169.1208,118.6152
169.1478,118.6090
169.1861,118.6047
169.2139,118.6047
169.2522,118.6090
169.2792,118.6152
169.3421,118.6372
169.3666,118.6451
169.3788,118.6486
169.4037,118.6553
169.5469,118.6685
169.6136,118.6650
169.6156,118.6650
169.6167,118.6649
169.6167,118.6649
169.6167,118.6649
169.7579,118.6372
169.8208,118.6152
169.8478,118.6090
169.8861,118.6047
169.9139,118.6047
169.9522,118.6090
169.9792,118.6152
170.0421,118.6372
170.0480,118.6392
170.0579,118.6432
170.1416,118.6809
170.1416,118.6809
170.1416,118.6809
170.1416,118.6809
170.1440,118.6818
170.1447,118.6823
170.1455,118.6827
170.1454,118.6828
170.2001,118.7235
170.2247,118.7889
170.2250,118.7981
170.2250,119.5528
170.2110,119.6100
170.2050,119.6217
170.2050,119.6217
170.1721,119.7156
170.1600,119.7406
170.1395,119.7733
170.1222,119.7950
170.0950,119.8222
170.0733,119.8395
170.0471,119.8560
169.9811,119.8750
169.8138,119.8750
169.7728,119.8680
169.7579,119.8628
169.7334,119.8549
169.7212,119.8514
169.7212,119.8514
169.7212,119.8514
169.6963,119.8447
169.6963,119.8447
169.5530,119.8315
169.4833,119.8351
169.3421,119.8628
169.3421,119.8628
169.3272,119.8680
169.2862,119.8750
169.1189,119.8750
169.0529,119.8560
169.0529,119.8560
169.0267,119.8395
169.0050,119.8222
168.9778,119.7950
168.9605,119.7733
168.9400,119.7406
168.9279,119.7156
168.9070,119.6557
168.9000,119.6148
168.9000,119.2500
168.6105,119.2500
168.5529,119.2350
168.5457,119.2349
168.5247,119.2263
168.5236,119.2258
168.5154,119.2179
168.4956,119.2110
168.4956,119.2110
168.4943,119.2105
168.4943,119.2105
168.4884,119.2085
168.4884,119.2085
168.4877,119.2082
168.4877,119.2082
168.4777,119.2047
168.4400,119.1915
168.3844,119.1721
168.3594,119.1600
168.3267,119.1395
168.3050,119.1222
168.2778,119.0950
168.2605,119.0733
168.2400,119.0406
168.2279,119.0156
168.2152,118.9792
168.2090,118.9522
168.2047,118.9139
168.2047,118.8861
168.2090,118.8478
168.2152,118.8208
168.2279,118.7844
168.2400,118.7594
168.2605,118.7267
168.2778,118.7050
168.3050,118.6778
168.3267,118.6605
168.3594,118.6400
168.3844,118.6279
168.4208,118.6152
168.4478,118.6090
168.4728,118.6062
168.4861,118.6047
168.5139,118.6047
Z" /> 
<path style="fill:#7FC87F; fill-opacity:1.0000; stroke:none;fill-rule:evenodd;"
d="M 165.1180,97.2197
165.1638,97.2725
165.1750,97.3240
165.1750,97.8750
165.7510,97.8750
165.8180,97.8947
165.8638,97.9475
165.8750,97.9990
165.8750,98.4010
165.8553,98.4680
165.8025,98.5138
165.7510,98.5250
163.8990,98.5250
163.8320,98.5053
163.7862,98.4525
163.7750,98.4010
163.7750,98.0456
163.7947,97.9786
163.8475,97.9328
163.9166,97.9229
163.9339,97.9266
164.0152,97.9505
164.0152,97.9505
164.0152,97.9505
164.1448,97.9505
164.1448,97.9505
164.2691,97.9140
164.2691,97.9140
164.2991,97.8947
164.3662,97.8750
164.4750,97.8750
164.4750,97.7465
164.4862,97.6950
164.5167,97.6282
164.5351,97.5000
164.5167,97.3718
164.5167,97.3718
164.5142,97.3633
164.5165,97.3626
164.5085,97.3063
164.5375,97.2428
164.5963,97.2050
164.6312,97.2000
165.0510,97.2000
Z" /> 
</g> 
</svg>
