%TF.GenerationSoftware,KiCad,Pcbnew,8.0.1*%
%TF.CreationDate,2024-07-03T15:52:00+02:00*%
%TF.ProjectId,SEPIC-A,53455049-432d-4412-9e6b-696361645f70,rev?*%
%TF.SameCoordinates,Original*%
%TF.FileFunction,Copper,L6,Bot*%
%TF.FilePolarity,Positive*%
%FSLAX46Y46*%
G04 Gerber Fmt 4.6, Leading zero omitted, Abs format (unit mm)*
G04 Created by KiCad (PCBNEW 8.0.1) date 2024-07-03 15:52:00*
%MOMM*%
%LPD*%
G01*
G04 APERTURE LIST*
G04 Aperture macros list*
%AMRoundRect*
0 Rectangle with rounded corners*
0 $1 Rounding radius*
0 $2 $3 $4 $5 $6 $7 $8 $9 X,Y pos of 4 corners*
0 Add a 4 corners polygon primitive as box body*
4,1,4,$2,$3,$4,$5,$6,$7,$8,$9,$2,$3,0*
0 Add four circle primitives for the rounded corners*
1,1,$1+$1,$2,$3*
1,1,$1+$1,$4,$5*
1,1,$1+$1,$6,$7*
1,1,$1+$1,$8,$9*
0 Add four rect primitives between the rounded corners*
20,1,$1+$1,$2,$3,$4,$5,0*
20,1,$1+$1,$4,$5,$6,$7,0*
20,1,$1+$1,$6,$7,$8,$9,0*
20,1,$1+$1,$8,$9,$2,$3,0*%
G04 Aperture macros list end*
%TA.AperFunction,ComponentPad*%
%ADD10C,0.800000*%
%TD*%
%TA.AperFunction,ComponentPad*%
%ADD11C,6.400000*%
%TD*%
%TA.AperFunction,ComponentPad*%
%ADD12R,2.955000X2.955000*%
%TD*%
%TA.AperFunction,ComponentPad*%
%ADD13C,2.955000*%
%TD*%
%TA.AperFunction,SMDPad,CuDef*%
%ADD14RoundRect,0.250000X-0.350000X-0.450000X0.350000X-0.450000X0.350000X0.450000X-0.350000X0.450000X0*%
%TD*%
%TA.AperFunction,SMDPad,CuDef*%
%ADD15RoundRect,0.250000X-0.337500X-0.475000X0.337500X-0.475000X0.337500X0.475000X-0.337500X0.475000X0*%
%TD*%
%TA.AperFunction,SMDPad,CuDef*%
%ADD16RoundRect,0.250000X0.412500X1.100000X-0.412500X1.100000X-0.412500X-1.100000X0.412500X-1.100000X0*%
%TD*%
%TA.AperFunction,SMDPad,CuDef*%
%ADD17RoundRect,0.250000X-0.412500X-1.100000X0.412500X-1.100000X0.412500X1.100000X-0.412500X1.100000X0*%
%TD*%
%TA.AperFunction,ViaPad*%
%ADD18C,0.600000*%
%TD*%
%TA.AperFunction,Conductor*%
%ADD19C,0.240000*%
%TD*%
%TA.AperFunction,Conductor*%
%ADD20C,0.250000*%
%TD*%
%TA.AperFunction,Conductor*%
%ADD21C,0.300000*%
%TD*%
G04 APERTURE END LIST*
D10*
%TO.P,H4,1,1*%
%TO.N,GNDH*%
X208660000Y-119820000D03*
X209362944Y-118122944D03*
X209362944Y-121517056D03*
X211060000Y-117420000D03*
D11*
X211060000Y-119820000D03*
D10*
X211060000Y-122220000D03*
X212757056Y-118122944D03*
X212757056Y-121517056D03*
X213460000Y-119820000D03*
%TD*%
%TO.P,H3,1,1*%
%TO.N,GNDH*%
X158730000Y-119820000D03*
X159432944Y-118122944D03*
X159432944Y-121517056D03*
X161130000Y-117420000D03*
D11*
X161130000Y-119820000D03*
D10*
X161130000Y-122220000D03*
X162827056Y-118122944D03*
X162827056Y-121517056D03*
X163530000Y-119820000D03*
%TD*%
%TO.P,H2,1,1*%
%TO.N,GNDH*%
X208660000Y-73620000D03*
X209362944Y-71922944D03*
X209362944Y-75317056D03*
X211060000Y-71220000D03*
D11*
X211060000Y-73620000D03*
D10*
X211060000Y-76020000D03*
X212757056Y-71922944D03*
X212757056Y-75317056D03*
X213460000Y-73620000D03*
%TD*%
%TO.P,H1,1,1*%
%TO.N,GNDH*%
X158730000Y-73627056D03*
X159432944Y-71930000D03*
X159432944Y-75324112D03*
X161130000Y-71227056D03*
D11*
X161130000Y-73627056D03*
D10*
X161130000Y-76027056D03*
X162827056Y-71930000D03*
X162827056Y-75324112D03*
X163530000Y-73627056D03*
%TD*%
D12*
%TO.P,J3,1,1*%
%TO.N,G_G_GND1*%
X164680000Y-129530000D03*
D13*
%TO.P,J3,2,2*%
X180180000Y-129530000D03*
%TD*%
D12*
%TO.P,J4,1,1*%
%TO.N,GND*%
X165040000Y-63290000D03*
D13*
%TO.P,J4,2,2*%
X180540000Y-63290000D03*
%TD*%
%TO.P,J1,1,1*%
%TO.N,+24V*%
X207190000Y-130120000D03*
%TO.P,J1,2,2*%
X191690000Y-130120000D03*
%TD*%
%TO.P,J2,1,1*%
%TO.N,V_LOW*%
X207500000Y-63835000D03*
%TO.P,J2,2,2*%
X192000000Y-63835000D03*
%TD*%
D14*
%TO.P,R14,1*%
%TO.N,Net-(C11-Pad2)*%
X191700000Y-100500000D03*
%TO.P,R14,2*%
%TO.N,G_G_GND1*%
X193700000Y-100500000D03*
%TD*%
D15*
%TO.P,C41,1*%
%TO.N,V_LOW*%
X195525000Y-84200000D03*
%TO.P,C41,2*%
%TO.N,GND*%
X197600000Y-84200000D03*
%TD*%
D16*
%TO.P,C5,1*%
%TO.N,+24V*%
X198725000Y-96600000D03*
%TO.P,C5,2*%
%TO.N,G_G_GND1*%
X195600000Y-96600000D03*
%TD*%
%TO.P,C7,1*%
%TO.N,+24V*%
X198700000Y-99900000D03*
%TO.P,C7,2*%
%TO.N,G_G_GND1*%
X195575000Y-99900000D03*
%TD*%
D17*
%TO.P,C42,1*%
%TO.N,V_LOW*%
X194975000Y-88300000D03*
%TO.P,C42,2*%
%TO.N,GND*%
X198100000Y-88300000D03*
%TD*%
D15*
%TO.P,C23,1*%
%TO.N,V_LOW*%
X195525000Y-82100000D03*
%TO.P,C23,2*%
%TO.N,GND*%
X197600000Y-82100000D03*
%TD*%
D16*
%TO.P,C6,1*%
%TO.N,+24V*%
X198725000Y-93300000D03*
%TO.P,C6,2*%
%TO.N,G_G_GND1*%
X195600000Y-93300000D03*
%TD*%
D18*
%TO.N,+24V*%
X198900000Y-106800000D03*
X198200000Y-106800000D03*
X198300000Y-107500000D03*
%TO.N,GND*%
X205700000Y-76500000D03*
X206300000Y-76800000D03*
X205700000Y-78600000D03*
X206300000Y-77600000D03*
X205700000Y-77200000D03*
X205700000Y-80000000D03*
X206300000Y-78300000D03*
X206400000Y-117600000D03*
X205700000Y-77900000D03*
X172800000Y-75000000D03*
X205700000Y-79300000D03*
X197900000Y-86000000D03*
X166900000Y-116900000D03*
X167990000Y-75240000D03*
X197200000Y-86000000D03*
X196400000Y-86000000D03*
%TO.N,Net-(C11-Pad2)*%
X186500000Y-106500000D03*
X186500000Y-107200000D03*
%TO.N,V_HIGH*%
X162870000Y-93150000D03*
X167000000Y-77800000D03*
X177900000Y-98700000D03*
%TO.N,V_LOW*%
X177400000Y-74500000D03*
X177400000Y-75300000D03*
X178200000Y-73000000D03*
X180700000Y-73800000D03*
X178200000Y-75300000D03*
X177400000Y-73000000D03*
X179800000Y-73000000D03*
X180700000Y-75300000D03*
X180700000Y-73000000D03*
X179000000Y-73000000D03*
X177400000Y-73800000D03*
X179900000Y-75300000D03*
X195100000Y-86000000D03*
X180700000Y-74600000D03*
X194000000Y-86000000D03*
X179100000Y-75300000D03*
%TO.N,Net-(D2-A)*%
X179320000Y-76960000D03*
X178400000Y-77540000D03*
X179030000Y-77540000D03*
X179660000Y-77540000D03*
X177600000Y-78400000D03*
X179940000Y-76940000D03*
X177600000Y-77800000D03*
X178090000Y-76960000D03*
X177600000Y-79000000D03*
X178700000Y-76960000D03*
%TO.N,Net-(Q1-D_1)*%
X179600000Y-85000000D03*
X180500000Y-84400000D03*
X178060000Y-84460000D03*
X178780000Y-84450000D03*
X179600000Y-84000000D03*
X181300000Y-84400000D03*
%TO.N,Net-(Q1-G)*%
X181390000Y-90750000D03*
X174418952Y-90440219D03*
%TO.N,G_G_GND*%
X169200000Y-119600000D03*
X169200000Y-118900000D03*
X168500000Y-118900000D03*
X169900000Y-118900000D03*
X169900000Y-119600000D03*
%TO.N,GND_SEPIC*%
X173300000Y-80300000D03*
X172800000Y-75700000D03*
X181200000Y-93600000D03*
X181900000Y-93600000D03*
X180500000Y-93600000D03*
X172800000Y-74300000D03*
X179800000Y-93600000D03*
X172700000Y-82290000D03*
X172700000Y-82940000D03*
X170800000Y-118900000D03*
X172000000Y-74300000D03*
X164100000Y-98200000D03*
X172700000Y-80300000D03*
X172700000Y-81650000D03*
X172000000Y-75000000D03*
X172010000Y-75680000D03*
X170945000Y-94190000D03*
X172700000Y-80950000D03*
%TO.N,GND_LOGIC*%
X162500000Y-86700000D03*
X164800000Y-97500000D03*
X164400000Y-88100000D03*
X165500003Y-98200000D03*
X164080000Y-97500000D03*
X164800000Y-98200000D03*
X162500000Y-87500000D03*
%TO.N,G_G_GND1*%
X193400000Y-98300000D03*
X193400000Y-97599997D03*
X192700000Y-98300000D03*
%TO.N,VFB*%
X172310000Y-72820000D03*
X168200000Y-97040000D03*
%TO.N,Net-(IC1-EN)*%
X171320000Y-83510000D03*
X170700000Y-97100000D03*
%TD*%
D19*
%TO.N,V_HIGH*%
X166800000Y-78000000D02*
X167000000Y-77800000D01*
D20*
X162870000Y-92230000D02*
X166800000Y-88300000D01*
X162870000Y-93150000D02*
X162870000Y-93170000D01*
X162870000Y-93170000D02*
X168400000Y-98700000D01*
X168400000Y-98700000D02*
X177900000Y-98700000D01*
X162870000Y-93150000D02*
X162870000Y-92230000D01*
X166800000Y-88300000D02*
X166800000Y-78000000D01*
D21*
%TO.N,Net-(Q1-G)*%
X174978733Y-91000000D02*
X174418952Y-90440219D01*
D19*
X175290000Y-91000000D02*
X181140000Y-91000000D01*
X181140000Y-91000000D02*
X181390000Y-90750000D01*
D21*
X175290000Y-91000000D02*
X174978733Y-91000000D01*
%TD*%
%TA.AperFunction,Conductor*%
%TO.N,Net-(D2-A)*%
G36*
X181943039Y-76625185D02*
G01*
X181988794Y-76677989D01*
X182000000Y-76729500D01*
X182000000Y-79576000D01*
X181980315Y-79643039D01*
X181927511Y-79688794D01*
X181876000Y-79700000D01*
X176824000Y-79700000D01*
X176756961Y-79680315D01*
X176711206Y-79627511D01*
X176700000Y-79576000D01*
X176700000Y-76729500D01*
X176719685Y-76662461D01*
X176772489Y-76616706D01*
X176824000Y-76605500D01*
X181876000Y-76605500D01*
X181943039Y-76625185D01*
G37*
%TD.AperFunction*%
%TD*%
%TA.AperFunction,Conductor*%
%TO.N,V_LOW*%
G36*
X181943039Y-72419685D02*
G01*
X181988794Y-72472489D01*
X182000000Y-72524000D01*
X182000000Y-75976000D01*
X181980315Y-76043039D01*
X181927511Y-76088794D01*
X181876000Y-76100000D01*
X176824000Y-76100000D01*
X176756961Y-76080315D01*
X176711206Y-76027511D01*
X176700000Y-75976000D01*
X176700000Y-72524000D01*
X176719685Y-72456961D01*
X176772489Y-72411206D01*
X176824000Y-72400000D01*
X181876000Y-72400000D01*
X181943039Y-72419685D01*
G37*
%TD.AperFunction*%
%TD*%
%TA.AperFunction,NonConductor*%
G36*
X172843039Y-100619685D02*
G01*
X172888794Y-100672489D01*
X172900000Y-100724000D01*
X172900000Y-106476000D01*
X172880315Y-106543039D01*
X172827511Y-106588794D01*
X172776000Y-106600000D01*
X166624000Y-106600000D01*
X166556961Y-106580315D01*
X166511206Y-106527511D01*
X166500000Y-106476000D01*
X166500000Y-100724000D01*
X166519685Y-100656961D01*
X166572489Y-100611206D01*
X166624000Y-100600000D01*
X172776000Y-100600000D01*
X172843039Y-100619685D01*
G37*
%TD.AperFunction*%
%TA.AperFunction,Conductor*%
%TO.N,GNDH*%
G36*
X165432415Y-58116511D02*
G01*
X165499410Y-58136336D01*
X165545053Y-58189236D01*
X165554851Y-58258415D01*
X165544946Y-58292019D01*
X165534665Y-58314531D01*
X165534662Y-58314540D01*
X165534662Y-58314541D01*
X165514977Y-58381580D01*
X165514976Y-58381584D01*
X165496022Y-58513418D01*
X165494500Y-58524001D01*
X165494500Y-61188000D01*
X165474815Y-61255039D01*
X165422011Y-61300794D01*
X165370500Y-61312000D01*
X163514629Y-61312000D01*
X163514623Y-61312001D01*
X163455016Y-61318408D01*
X163320171Y-61368702D01*
X163320164Y-61368706D01*
X163204955Y-61454952D01*
X163204952Y-61454955D01*
X163118706Y-61570164D01*
X163118702Y-61570171D01*
X163068408Y-61705017D01*
X163062001Y-61764616D01*
X163062000Y-61764635D01*
X163062000Y-64815370D01*
X163062001Y-64815376D01*
X163068408Y-64874983D01*
X163118702Y-65009828D01*
X163118706Y-65009835D01*
X163204952Y-65125044D01*
X163204955Y-65125047D01*
X163320164Y-65211293D01*
X163320171Y-65211297D01*
X163455017Y-65261591D01*
X163455016Y-65261591D01*
X163461944Y-65262335D01*
X163514627Y-65268000D01*
X165370500Y-65267999D01*
X165437539Y-65287684D01*
X165483294Y-65340487D01*
X165494500Y-65391999D01*
X165494500Y-67870729D01*
X165508023Y-67986872D01*
X165521114Y-68042323D01*
X165560960Y-68152253D01*
X165560963Y-68152259D01*
X165567914Y-68166162D01*
X165580287Y-68234928D01*
X165568939Y-68274966D01*
X165190000Y-69069997D01*
X165189999Y-69070000D01*
X165170226Y-74280195D01*
X165160000Y-74314538D01*
X165160000Y-80249995D01*
X165140315Y-80317034D01*
X165136621Y-80322462D01*
X163763841Y-82228584D01*
X163749199Y-82245468D01*
X160888297Y-84998412D01*
X160888283Y-84998426D01*
X160845918Y-85044584D01*
X160845900Y-85044605D01*
X160826602Y-85068442D01*
X160790265Y-85119499D01*
X160790265Y-85119500D01*
X160732428Y-85251230D01*
X160732424Y-85251241D01*
X160713728Y-85318554D01*
X160713727Y-85318559D01*
X160713722Y-85318590D01*
X160695346Y-85461262D01*
X160695346Y-85461267D01*
X160725328Y-87499999D01*
X160725328Y-87500004D01*
X160725437Y-87507433D01*
X160734151Y-88099999D01*
X160791393Y-91992467D01*
X160772696Y-92059788D01*
X160766606Y-92068689D01*
X160620403Y-92263627D01*
X160609696Y-92278456D01*
X160604565Y-92285838D01*
X160594437Y-92300990D01*
X160594435Y-92300993D01*
X160534663Y-92431870D01*
X160514976Y-92498915D01*
X160494500Y-92641334D01*
X160494500Y-98650600D01*
X160496712Y-98697841D01*
X160496713Y-98697848D01*
X160498873Y-98720869D01*
X160498877Y-98720905D01*
X160498878Y-98720907D01*
X160505496Y-98767733D01*
X160552117Y-98903851D01*
X160581514Y-98961328D01*
X160583935Y-98966060D01*
X160667010Y-99083520D01*
X160667019Y-99083531D01*
X162262044Y-100767169D01*
X162293860Y-100829374D01*
X162296024Y-100851693D01*
X162370398Y-113048906D01*
X162370582Y-113079082D01*
X162389716Y-116217226D01*
X162391410Y-116494965D01*
X162409345Y-116625370D01*
X162409348Y-116625384D01*
X162426251Y-116687124D01*
X162426253Y-116687128D01*
X162477244Y-116808472D01*
X162477245Y-116808475D01*
X162566726Y-116921147D01*
X162617522Y-116969120D01*
X162617525Y-116969122D01*
X162667176Y-117004123D01*
X162674605Y-117013478D01*
X163005093Y-117228098D01*
X163015594Y-117235727D01*
X163265764Y-117438311D01*
X163275409Y-117446996D01*
X163503001Y-117674588D01*
X163511686Y-117684233D01*
X163714269Y-117934402D01*
X163721894Y-117944896D01*
X163897217Y-118214870D01*
X163903698Y-118226096D01*
X163989782Y-118395048D01*
X163989785Y-118395052D01*
X164051606Y-118488878D01*
X164051614Y-118488888D01*
X164086643Y-118530988D01*
X164086646Y-118530991D01*
X164086647Y-118530992D01*
X164167667Y-118608843D01*
X164547435Y-118899999D01*
X164547434Y-118899999D01*
X164871629Y-119148548D01*
X165070703Y-119301171D01*
X165338681Y-119506621D01*
X165379908Y-119563030D01*
X165387202Y-119607910D01*
X165309342Y-122955856D01*
X165319544Y-123069332D01*
X165330711Y-123123699D01*
X165330717Y-123123723D01*
X165366059Y-123232006D01*
X165386672Y-123264080D01*
X165406357Y-123331119D01*
X165392431Y-123380033D01*
X165395660Y-123381465D01*
X165333755Y-123521105D01*
X165333754Y-123521108D01*
X165314816Y-123588360D01*
X165314815Y-123588367D01*
X165295923Y-123730995D01*
X165336985Y-127426622D01*
X165318047Y-127493876D01*
X165265754Y-127540215D01*
X165212993Y-127552000D01*
X163154629Y-127552000D01*
X163154623Y-127552001D01*
X163095016Y-127558408D01*
X162960171Y-127608702D01*
X162960164Y-127608706D01*
X162844955Y-127694952D01*
X162844952Y-127694955D01*
X162758706Y-127810164D01*
X162758702Y-127810171D01*
X162708408Y-127945017D01*
X162702001Y-128004616D01*
X162702000Y-128004635D01*
X162702000Y-131055370D01*
X162702001Y-131055376D01*
X162708408Y-131114983D01*
X162758702Y-131249828D01*
X162758706Y-131249835D01*
X162844952Y-131365044D01*
X162844955Y-131365047D01*
X162960164Y-131451293D01*
X162960171Y-131451297D01*
X163095017Y-131501591D01*
X163095016Y-131501591D01*
X163101944Y-131502335D01*
X163154627Y-131508000D01*
X165259704Y-131507999D01*
X165326743Y-131527684D01*
X165372498Y-131580487D01*
X165383696Y-131630621D01*
X165393161Y-132482466D01*
X165405523Y-132588104D01*
X165416938Y-132638706D01*
X165451122Y-132739405D01*
X165529419Y-132860112D01*
X165529421Y-132860115D01*
X165575390Y-132912714D01*
X165575400Y-132912725D01*
X165575410Y-132912734D01*
X165684535Y-133006485D01*
X165684536Y-133006486D01*
X165684537Y-133006486D01*
X165684538Y-133006487D01*
X165815668Y-133065701D01*
X165815677Y-133065703D01*
X165815681Y-133065705D01*
X165833469Y-133070846D01*
X165882790Y-133085101D01*
X166025290Y-133104973D01*
X189318303Y-133006273D01*
X189385423Y-133025673D01*
X189427657Y-133070844D01*
X189435358Y-133084947D01*
X189533405Y-133190248D01*
X189657147Y-133263661D01*
X189665279Y-133267029D01*
X189716291Y-133285024D01*
X189858707Y-133305500D01*
X189858710Y-133305500D01*
X209488505Y-133305500D01*
X209542507Y-133302607D01*
X209542511Y-133302606D01*
X209542515Y-133302606D01*
X209681928Y-133267029D01*
X209690060Y-133263661D01*
X209784947Y-133211849D01*
X209890248Y-133113802D01*
X209963661Y-132990060D01*
X209967029Y-132981928D01*
X209985024Y-132930916D01*
X210005500Y-132788500D01*
X210005500Y-126911500D01*
X210005500Y-126911494D01*
X210002607Y-126857492D01*
X210002605Y-126857481D01*
X210001881Y-126854644D01*
X209967029Y-126718072D01*
X209963661Y-126709940D01*
X209911849Y-126615053D01*
X209813802Y-126509752D01*
X209813798Y-126509750D01*
X209813796Y-126509748D01*
X209690067Y-126436343D01*
X209690065Y-126436342D01*
X209690060Y-126436339D01*
X209681928Y-126432971D01*
X209660034Y-126425247D01*
X209630918Y-126414976D01*
X209559708Y-126404738D01*
X209488500Y-126394500D01*
X209488498Y-126394500D01*
X207117465Y-126394500D01*
X207050426Y-126374815D01*
X207004671Y-126322011D01*
X206995720Y-126263589D01*
X206993693Y-126263482D01*
X206993927Y-126259070D01*
X206993929Y-126259057D01*
X206913195Y-121818718D01*
X206931658Y-121751334D01*
X206983622Y-121704627D01*
X206989451Y-121702018D01*
X207620800Y-121438956D01*
X207666011Y-121416067D01*
X207687335Y-121405273D01*
X207687339Y-121405270D01*
X207687348Y-121405266D01*
X207718605Y-121386424D01*
X207779477Y-121343303D01*
X207876261Y-121236840D01*
X207915424Y-121178978D01*
X207915425Y-121178975D01*
X207915426Y-121178974D01*
X207918696Y-121172347D01*
X207918965Y-121171687D01*
X207978294Y-121049557D01*
X208002154Y-120907669D01*
X208003817Y-120837819D01*
X208003817Y-120837818D01*
X207986736Y-120694955D01*
X207932206Y-120491447D01*
X207929515Y-120478782D01*
X207879159Y-120160840D01*
X207877802Y-120147933D01*
X207860955Y-119826488D01*
X207860955Y-119813508D01*
X207877802Y-119492054D01*
X207879159Y-119479146D01*
X207929512Y-119161224D01*
X207932202Y-119148567D01*
X208015529Y-118837586D01*
X208019526Y-118825282D01*
X208063688Y-118710243D01*
X208088800Y-118621204D01*
X208097036Y-118576766D01*
X208105500Y-118484647D01*
X208105500Y-118185645D01*
X208125185Y-118118606D01*
X208147841Y-118092329D01*
X210290808Y-116217233D01*
X210339949Y-116167857D01*
X210362275Y-116142094D01*
X210404152Y-116086444D01*
X210464571Y-115955864D01*
X210484588Y-115888923D01*
X210505771Y-115746611D01*
X210692086Y-78204052D01*
X210696491Y-77316478D01*
X210696490Y-77316476D01*
X210696491Y-77316463D01*
X210694848Y-77273152D01*
X210693133Y-77251974D01*
X210687783Y-77208950D01*
X210643974Y-77071902D01*
X210613445Y-77009055D01*
X210532800Y-76889901D01*
X210421851Y-76798293D01*
X210364333Y-76763233D01*
X210362818Y-76762267D01*
X210362180Y-76761921D01*
X210269688Y-76722315D01*
X210215810Y-76677830D01*
X210194535Y-76611278D01*
X210194502Y-76607758D01*
X210200000Y-75500000D01*
X207946652Y-73168950D01*
X207914211Y-73107068D01*
X207913334Y-73063373D01*
X207929511Y-72961232D01*
X207932208Y-72948548D01*
X207949458Y-72884170D01*
X207949459Y-72884167D01*
X207966419Y-72769643D01*
X207968239Y-72713249D01*
X207958700Y-72597878D01*
X207910711Y-72462237D01*
X207910710Y-72462235D01*
X207910709Y-72462232D01*
X207910707Y-72462228D01*
X207871344Y-72387144D01*
X207863504Y-72379919D01*
X207828987Y-72332142D01*
X207805684Y-72266273D01*
X207805500Y-72259526D01*
X207805500Y-69236087D01*
X207805499Y-69236073D01*
X207785370Y-69094859D01*
X207785368Y-69094850D01*
X207785368Y-69094847D01*
X207766008Y-69028315D01*
X207707216Y-68898325D01*
X207289285Y-68241017D01*
X207269944Y-68176570D01*
X207269535Y-68152259D01*
X207232243Y-65934170D01*
X207250797Y-65866810D01*
X207302825Y-65820173D01*
X207365070Y-65808402D01*
X207500000Y-65818053D01*
X207500001Y-65818053D01*
X207520186Y-65816609D01*
X207782218Y-65797868D01*
X208058691Y-65737725D01*
X208323790Y-65638848D01*
X208572119Y-65503250D01*
X208798624Y-65333691D01*
X208998691Y-65133624D01*
X209168250Y-64907119D01*
X209303848Y-64658790D01*
X209402725Y-64393691D01*
X209462868Y-64117218D01*
X209483053Y-63835000D01*
X209462868Y-63552782D01*
X209402725Y-63276309D01*
X209303848Y-63011210D01*
X209168250Y-62762881D01*
X209168248Y-62762878D01*
X208998697Y-62536383D01*
X208998681Y-62536365D01*
X208798634Y-62336318D01*
X208798616Y-62336302D01*
X208572121Y-62166751D01*
X208572113Y-62166746D01*
X208323795Y-62031154D01*
X208323791Y-62031152D01*
X208223288Y-61993666D01*
X208058691Y-61932275D01*
X208058687Y-61932274D01*
X208058684Y-61932273D01*
X207782226Y-61872133D01*
X207782219Y-61872132D01*
X207500001Y-61851947D01*
X207499999Y-61851947D01*
X207294639Y-61866635D01*
X207226366Y-61851783D01*
X207176961Y-61802378D01*
X207161811Y-61745035D01*
X207107479Y-58513433D01*
X207107479Y-58513418D01*
X207095077Y-58410317D01*
X207088572Y-58381580D01*
X207083185Y-58357779D01*
X207084230Y-58357542D01*
X207084969Y-58292068D01*
X207123404Y-58233719D01*
X207187283Y-58205413D01*
X207203790Y-58204342D01*
X214526182Y-58219739D01*
X214593178Y-58239565D01*
X214638821Y-58292465D01*
X214649919Y-58343819D01*
X214600079Y-135167225D01*
X214580351Y-135234252D01*
X214527517Y-135279973D01*
X214477231Y-135291140D01*
X159776415Y-135799495D01*
X159775263Y-135799500D01*
X157693929Y-135799500D01*
X157626890Y-135779815D01*
X157581135Y-135727011D01*
X157569929Y-135675561D01*
X157569713Y-135234252D01*
X157540044Y-74540624D01*
X157559696Y-74473577D01*
X157575448Y-74453808D01*
X157579999Y-74449160D01*
X157580000Y-74449160D01*
X157580000Y-58224261D01*
X157599685Y-58157222D01*
X157652489Y-58111467D01*
X157704259Y-58100261D01*
X165432415Y-58116511D01*
G37*
%TD.AperFunction*%
%TD*%
%TA.AperFunction,NonConductor*%
G36*
X172843039Y-107219685D02*
G01*
X172888794Y-107272489D01*
X172900000Y-107324000D01*
X172900000Y-113076000D01*
X172880315Y-113143039D01*
X172827511Y-113188794D01*
X172776000Y-113200000D01*
X166624000Y-113200000D01*
X166556961Y-113180315D01*
X166511206Y-113127511D01*
X166500000Y-113076000D01*
X166500000Y-107324000D01*
X166519685Y-107256961D01*
X166572489Y-107211206D01*
X166624000Y-107200000D01*
X172776000Y-107200000D01*
X172843039Y-107219685D01*
G37*
%TD.AperFunction*%
%TA.AperFunction,Conductor*%
%TO.N,Net-(Q1-D_1)*%
G36*
X182843039Y-82119685D02*
G01*
X182888794Y-82172489D01*
X182900000Y-82224000D01*
X182900000Y-86975185D01*
X182880315Y-87042224D01*
X182827511Y-87087979D01*
X182775188Y-87099182D01*
X176913436Y-87060808D01*
X176846527Y-87040685D01*
X176801119Y-86987583D01*
X176790248Y-86936565D01*
X176799751Y-82223750D01*
X176819571Y-82156750D01*
X176872467Y-82111102D01*
X176923751Y-82100000D01*
X182776000Y-82100000D01*
X182843039Y-82119685D01*
G37*
%TD.AperFunction*%
%TD*%
%TA.AperFunction,Conductor*%
%TO.N,G_G_GND1*%
G36*
X197343039Y-101319685D02*
G01*
X197388794Y-101372489D01*
X197400000Y-101424000D01*
X197400000Y-106743647D01*
X197399220Y-106757531D01*
X197394435Y-106799998D01*
X197394435Y-106800002D01*
X197399220Y-106842468D01*
X197400000Y-106856352D01*
X197400000Y-127076000D01*
X197380315Y-127143039D01*
X197327511Y-127188794D01*
X197276000Y-127200000D01*
X189500000Y-127200000D01*
X189500000Y-132376524D01*
X189480315Y-132443563D01*
X189427511Y-132489318D01*
X189376525Y-132500523D01*
X166023148Y-132599478D01*
X165956026Y-132580078D01*
X165910048Y-132527468D01*
X165898631Y-132476860D01*
X165801393Y-123725377D01*
X165820331Y-123658124D01*
X165872624Y-123611785D01*
X165925385Y-123600000D01*
X188599999Y-123600000D01*
X188600000Y-123600000D01*
X188400527Y-108440122D01*
X188419328Y-108372834D01*
X188423055Y-108367209D01*
X192900000Y-102000000D01*
X192900000Y-101500000D01*
X192900000Y-101300000D01*
X196500000Y-101300000D01*
X197276000Y-101300000D01*
X197343039Y-101319685D01*
G37*
%TD.AperFunction*%
%TD*%
%TA.AperFunction,Conductor*%
%TO.N,GND*%
G36*
X206545107Y-58419685D02*
G01*
X206590862Y-58472489D01*
X206602050Y-58521916D01*
X206659927Y-61964376D01*
X206641373Y-62031736D01*
X206595372Y-62075292D01*
X206427886Y-62166746D01*
X206427878Y-62166751D01*
X206201383Y-62336302D01*
X206201365Y-62336318D01*
X206001318Y-62536365D01*
X206001302Y-62536383D01*
X205831751Y-62762878D01*
X205831746Y-62762886D01*
X205696154Y-63011204D01*
X205696152Y-63011208D01*
X205597273Y-63276315D01*
X205537133Y-63552773D01*
X205537132Y-63552780D01*
X205516947Y-63834998D01*
X205516947Y-63835001D01*
X205537132Y-64117219D01*
X205537133Y-64117226D01*
X205597273Y-64393684D01*
X205597275Y-64393691D01*
X205658666Y-64558288D01*
X205696152Y-64658791D01*
X205696154Y-64658795D01*
X205831746Y-64907113D01*
X205831751Y-64907121D01*
X206001302Y-65133616D01*
X206001318Y-65133634D01*
X206201365Y-65333681D01*
X206201383Y-65333697D01*
X206427878Y-65503248D01*
X206427886Y-65503253D01*
X206658786Y-65629334D01*
X206708191Y-65678739D01*
X206723341Y-65736081D01*
X206767499Y-68362499D01*
X207280640Y-69169551D01*
X207300000Y-69236083D01*
X207300000Y-72500000D01*
X207430562Y-72635064D01*
X207463002Y-72696944D01*
X207461182Y-72753338D01*
X207435398Y-72849565D01*
X207435397Y-72849572D01*
X207374722Y-73232660D01*
X207354422Y-73619999D01*
X207354422Y-73620000D01*
X207374722Y-74007339D01*
X207421074Y-74299996D01*
X207435398Y-74390433D01*
X207459197Y-74479254D01*
X207535788Y-74765094D01*
X207674787Y-75127197D01*
X207850877Y-75472793D01*
X208062122Y-75798082D01*
X208206195Y-75975997D01*
X208306219Y-76099516D01*
X208580484Y-76373781D01*
X208693586Y-76465369D01*
X208881917Y-76617877D01*
X209053803Y-76729501D01*
X209207211Y-76829125D01*
X209552806Y-77005214D01*
X209914913Y-77144214D01*
X210099093Y-77193564D01*
X210158753Y-77229929D01*
X210189282Y-77292776D01*
X210190997Y-77313954D01*
X210000277Y-115744102D01*
X209980260Y-115811043D01*
X209957934Y-115836806D01*
X207600000Y-117899999D01*
X207600000Y-118484647D01*
X207591764Y-118529085D01*
X207535788Y-118674905D01*
X207435397Y-119049570D01*
X207435397Y-119049572D01*
X207374722Y-119432660D01*
X207354422Y-119819999D01*
X207354422Y-119820000D01*
X207374722Y-120207339D01*
X207435397Y-120590427D01*
X207435398Y-120590434D01*
X207498460Y-120825787D01*
X207496797Y-120895637D01*
X207457634Y-120953499D01*
X207426377Y-120972341D01*
X206400001Y-121399999D01*
X206400000Y-121399999D01*
X206488513Y-126268246D01*
X206470050Y-126335632D01*
X206418086Y-126382339D01*
X206364533Y-126394500D01*
X200729500Y-126394500D01*
X200662461Y-126374815D01*
X200616706Y-126322011D01*
X200605500Y-126270500D01*
X200605500Y-91824010D01*
X200605500Y-91824000D01*
X200593947Y-91716544D01*
X200582741Y-91665033D01*
X200577904Y-91650500D01*
X200548616Y-91562502D01*
X200548613Y-91562496D01*
X200492337Y-91474930D01*
X200470825Y-91441457D01*
X200460179Y-91429171D01*
X200425076Y-91388659D01*
X200425072Y-91388656D01*
X200425070Y-91388653D01*
X200316336Y-91294433D01*
X200316333Y-91294431D01*
X200316331Y-91294430D01*
X200185465Y-91234664D01*
X200185460Y-91234662D01*
X200185459Y-91234662D01*
X200118420Y-91214977D01*
X200118422Y-91214977D01*
X200118417Y-91214976D01*
X200056354Y-91206053D01*
X199976000Y-91194500D01*
X199524000Y-91194500D01*
X199456961Y-91174815D01*
X199411206Y-91122011D01*
X199400000Y-91070500D01*
X199400000Y-90000000D01*
X199400000Y-81100000D01*
X198300000Y-81100000D01*
X196398868Y-81100000D01*
X196331157Y-81032289D01*
X196331156Y-81032288D01*
X196181834Y-80940186D01*
X196015297Y-80885001D01*
X196015295Y-80885000D01*
X195912510Y-80874500D01*
X195137498Y-80874500D01*
X195137480Y-80874501D01*
X195034703Y-80885000D01*
X195034700Y-80885001D01*
X194868168Y-80940185D01*
X194868163Y-80940187D01*
X194718842Y-81032289D01*
X194687451Y-81063681D01*
X194626128Y-81097166D01*
X194599770Y-81100000D01*
X193900000Y-81100000D01*
X193900000Y-84648638D01*
X193880315Y-84715677D01*
X193863681Y-84736319D01*
X193300000Y-85299999D01*
X193300000Y-85573710D01*
X193280995Y-85639681D01*
X193274211Y-85650477D01*
X193214631Y-85820745D01*
X193214630Y-85820750D01*
X193194435Y-85999996D01*
X193194435Y-86000003D01*
X193214630Y-86179249D01*
X193214633Y-86179262D01*
X193272233Y-86343869D01*
X193274211Y-86349522D01*
X193280992Y-86360314D01*
X193300000Y-86426288D01*
X193300000Y-89900000D01*
X193949770Y-89900000D01*
X194016809Y-89919685D01*
X194037451Y-89936319D01*
X194093844Y-89992712D01*
X194243166Y-90084814D01*
X194409703Y-90139999D01*
X194512491Y-90150500D01*
X194576001Y-90150499D01*
X194643038Y-90170183D01*
X194688794Y-90222986D01*
X194700000Y-90274499D01*
X194700000Y-91216204D01*
X194680315Y-91283243D01*
X194627511Y-91328998D01*
X194615159Y-91333858D01*
X194562502Y-91351383D01*
X194562496Y-91351386D01*
X194441462Y-91429171D01*
X194441451Y-91429179D01*
X194388659Y-91474923D01*
X194294433Y-91583664D01*
X194294430Y-91583668D01*
X194234664Y-91714534D01*
X194214976Y-91781582D01*
X194194500Y-91924001D01*
X194194500Y-95794656D01*
X194174815Y-95861695D01*
X194122011Y-95907450D01*
X194121812Y-95907541D01*
X192363342Y-96706844D01*
X192363343Y-96706845D01*
X192362482Y-96707236D01*
X192241449Y-96785022D01*
X192241443Y-96785027D01*
X192188643Y-96830781D01*
X192094433Y-96939507D01*
X192034663Y-97070381D01*
X192014976Y-97137426D01*
X191994500Y-97279845D01*
X191994500Y-97882464D01*
X191976776Y-97943987D01*
X191977231Y-97944206D01*
X191975942Y-97946880D01*
X191975496Y-97948432D01*
X191974210Y-97950478D01*
X191914633Y-98120737D01*
X191914630Y-98120750D01*
X191894435Y-98299996D01*
X191894435Y-98300003D01*
X191914630Y-98479249D01*
X191914633Y-98479262D01*
X191967221Y-98629545D01*
X191970784Y-98699323D01*
X191936055Y-98759951D01*
X191874062Y-98792178D01*
X191850180Y-98794500D01*
X190461176Y-98794500D01*
X190374283Y-98802024D01*
X190332308Y-98809349D01*
X190332288Y-98809353D01*
X190247994Y-98831698D01*
X190247992Y-98831699D01*
X190120925Y-98899197D01*
X190065084Y-98940005D01*
X190064548Y-98940391D01*
X190064512Y-98940422D01*
X189961607Y-99040990D01*
X189961606Y-99040991D01*
X185424408Y-104959076D01*
X185411992Y-104975987D01*
X185406080Y-104984402D01*
X185394433Y-105001726D01*
X185394431Y-105001731D01*
X185334663Y-105132600D01*
X185334662Y-105132604D01*
X185314977Y-105199643D01*
X185314976Y-105199647D01*
X185294500Y-105342063D01*
X185294500Y-108076000D01*
X185294501Y-108076009D01*
X185306052Y-108183450D01*
X185306054Y-108183462D01*
X185317260Y-108234972D01*
X185351383Y-108337497D01*
X185351386Y-108337503D01*
X185429171Y-108458537D01*
X185429179Y-108458548D01*
X185474923Y-108511340D01*
X185474926Y-108511343D01*
X185474930Y-108511347D01*
X185583664Y-108605567D01*
X185714541Y-108665338D01*
X185781580Y-108685023D01*
X185781584Y-108685024D01*
X185924000Y-108705500D01*
X185924003Y-108705500D01*
X187776096Y-108705500D01*
X187843135Y-108725185D01*
X187888890Y-108777989D01*
X187900085Y-108827869D01*
X188054856Y-120590427D01*
X188086152Y-122968869D01*
X188067351Y-123036161D01*
X188015154Y-123082607D01*
X187962163Y-123094500D01*
X165938672Y-123094500D01*
X165871633Y-123074815D01*
X165825878Y-123022011D01*
X165814706Y-122967619D01*
X165900000Y-119300000D01*
X165834160Y-119249523D01*
X165378265Y-118900003D01*
X167694435Y-118900003D01*
X167714630Y-119079249D01*
X167714631Y-119079254D01*
X167774211Y-119249523D01*
X167805928Y-119300000D01*
X167870184Y-119402262D01*
X167997738Y-119529816D01*
X168150478Y-119625789D01*
X168320745Y-119685368D01*
X168320754Y-119685369D01*
X168321207Y-119685473D01*
X168321477Y-119685624D01*
X168327318Y-119687668D01*
X168326960Y-119688690D01*
X168382191Y-119719573D01*
X168411377Y-119773017D01*
X168412333Y-119772683D01*
X168414362Y-119778483D01*
X168414523Y-119778777D01*
X168414631Y-119779250D01*
X168414632Y-119779255D01*
X168446538Y-119870437D01*
X168474210Y-119949521D01*
X168474211Y-119949522D01*
X168570184Y-120102262D01*
X168697738Y-120229816D01*
X168850478Y-120325789D01*
X169020739Y-120385366D01*
X169020745Y-120385368D01*
X169020750Y-120385369D01*
X169199996Y-120405565D01*
X169200000Y-120405565D01*
X169200004Y-120405565D01*
X169379249Y-120385369D01*
X169379251Y-120385368D01*
X169379255Y-120385368D01*
X169379258Y-120385366D01*
X169379262Y-120385366D01*
X169509045Y-120339953D01*
X169578824Y-120336391D01*
X169590955Y-120339953D01*
X169720737Y-120385366D01*
X169720743Y-120385367D01*
X169720745Y-120385368D01*
X169720746Y-120385368D01*
X169720750Y-120385369D01*
X169899996Y-120405565D01*
X169900000Y-120405565D01*
X169900004Y-120405565D01*
X170079249Y-120385369D01*
X170079252Y-120385368D01*
X170079255Y-120385368D01*
X170249522Y-120325789D01*
X170402262Y-120229816D01*
X170529816Y-120102262D01*
X170625789Y-119949522D01*
X170682094Y-119788610D01*
X170722816Y-119731835D01*
X170787768Y-119706087D01*
X170799136Y-119705565D01*
X170800003Y-119705565D01*
X170979249Y-119685369D01*
X170979252Y-119685368D01*
X170979255Y-119685368D01*
X171149522Y-119625789D01*
X171302262Y-119529816D01*
X171429816Y-119402262D01*
X171525789Y-119249522D01*
X171585368Y-119079255D01*
X171585369Y-119079249D01*
X171605565Y-118900003D01*
X171605565Y-118899996D01*
X171585369Y-118720750D01*
X171585368Y-118720745D01*
X171525788Y-118550476D01*
X171429815Y-118397737D01*
X171302262Y-118270184D01*
X171149523Y-118174211D01*
X170979254Y-118114631D01*
X170979249Y-118114630D01*
X170800004Y-118094435D01*
X170799996Y-118094435D01*
X170620750Y-118114630D01*
X170620737Y-118114633D01*
X170450480Y-118174209D01*
X170415970Y-118195893D01*
X170348733Y-118214892D01*
X170284030Y-118195893D01*
X170249519Y-118174209D01*
X170079262Y-118114633D01*
X170079249Y-118114630D01*
X169900004Y-118094435D01*
X169899996Y-118094435D01*
X169720750Y-118114630D01*
X169720742Y-118114632D01*
X169590954Y-118160047D01*
X169521175Y-118163608D01*
X169509046Y-118160047D01*
X169379257Y-118114632D01*
X169379249Y-118114630D01*
X169200004Y-118094435D01*
X169199996Y-118094435D01*
X169020750Y-118114630D01*
X169020742Y-118114632D01*
X168890954Y-118160047D01*
X168821175Y-118163608D01*
X168809046Y-118160047D01*
X168679257Y-118114632D01*
X168679249Y-118114630D01*
X168500004Y-118094435D01*
X168499996Y-118094435D01*
X168320750Y-118114630D01*
X168320745Y-118114631D01*
X168150476Y-118174211D01*
X167997737Y-118270184D01*
X167870184Y-118397737D01*
X167774211Y-118550476D01*
X167714631Y-118720745D01*
X167714630Y-118720750D01*
X167694435Y-118899996D01*
X167694435Y-118900003D01*
X165378265Y-118900003D01*
X164475229Y-118207675D01*
X164440190Y-118165563D01*
X164439194Y-118163608D01*
X164339125Y-117967211D01*
X164127876Y-117641916D01*
X163883781Y-117340484D01*
X163609516Y-117066219D01*
X163308084Y-116822124D01*
X163308082Y-116822122D01*
X162982791Y-116610875D01*
X162982788Y-116610874D01*
X162964604Y-116601609D01*
X162913808Y-116553636D01*
X162896901Y-116491886D01*
X162876073Y-113076000D01*
X165994500Y-113076000D01*
X165994501Y-113076009D01*
X166006052Y-113183450D01*
X166006054Y-113183462D01*
X166017260Y-113234972D01*
X166051383Y-113337497D01*
X166051386Y-113337503D01*
X166129171Y-113458537D01*
X166129179Y-113458548D01*
X166174923Y-113511340D01*
X166174926Y-113511343D01*
X166174930Y-113511347D01*
X166283664Y-113605567D01*
X166283667Y-113605568D01*
X166283668Y-113605569D01*
X166377925Y-113648616D01*
X166414541Y-113665338D01*
X166481580Y-113685023D01*
X166481584Y-113685024D01*
X166624000Y-113705500D01*
X166624003Y-113705500D01*
X172775990Y-113705500D01*
X172776000Y-113705500D01*
X172883456Y-113693947D01*
X172934967Y-113682741D01*
X172969197Y-113671347D01*
X173037497Y-113648616D01*
X173037501Y-113648613D01*
X173037504Y-113648613D01*
X173158543Y-113570825D01*
X173211347Y-113525070D01*
X173305567Y-113416336D01*
X173365338Y-113285459D01*
X173385023Y-113218420D01*
X173385024Y-113218416D01*
X173405500Y-113076000D01*
X173405500Y-107324000D01*
X173393947Y-107216544D01*
X173382741Y-107165033D01*
X173382637Y-107164722D01*
X173348616Y-107062502D01*
X173348613Y-107062496D01*
X173289636Y-106970727D01*
X173269951Y-106903688D01*
X173289635Y-106836648D01*
X173300231Y-106822493D01*
X173305567Y-106816336D01*
X173365338Y-106685459D01*
X173385023Y-106618420D01*
X173385024Y-106618416D01*
X173405500Y-106476000D01*
X173405500Y-100724000D01*
X173393947Y-100616544D01*
X173382741Y-100565033D01*
X173382637Y-100564722D01*
X173348616Y-100462502D01*
X173348613Y-100462496D01*
X173270828Y-100341462D01*
X173270825Y-100341457D01*
X173270820Y-100341451D01*
X173225076Y-100288659D01*
X173225072Y-100288656D01*
X173225070Y-100288653D01*
X173116336Y-100194433D01*
X173116333Y-100194431D01*
X173116331Y-100194430D01*
X172985465Y-100134664D01*
X172985460Y-100134662D01*
X172985459Y-100134662D01*
X172918420Y-100114977D01*
X172918422Y-100114977D01*
X172918417Y-100114976D01*
X172856347Y-100106052D01*
X172776000Y-100094500D01*
X166624000Y-100094500D01*
X166623991Y-100094500D01*
X166623990Y-100094501D01*
X166516549Y-100106052D01*
X166516537Y-100106054D01*
X166465027Y-100117260D01*
X166362502Y-100151383D01*
X166362496Y-100151386D01*
X166241462Y-100229171D01*
X166241451Y-100229179D01*
X166188659Y-100274923D01*
X166094433Y-100383664D01*
X166094430Y-100383668D01*
X166034664Y-100514534D01*
X166014976Y-100581582D01*
X166009949Y-100616549D01*
X165994500Y-100724000D01*
X165994500Y-106476000D01*
X165994501Y-106476009D01*
X166006052Y-106583450D01*
X166006054Y-106583462D01*
X166017260Y-106634972D01*
X166051383Y-106737497D01*
X166051386Y-106737503D01*
X166110363Y-106829272D01*
X166130048Y-106896312D01*
X166110364Y-106963351D01*
X166099762Y-106977513D01*
X166094435Y-106983659D01*
X166094433Y-106983663D01*
X166034663Y-107114537D01*
X166014976Y-107181582D01*
X166009949Y-107216549D01*
X165994500Y-107324000D01*
X165994500Y-113076000D01*
X162876073Y-113076000D01*
X162800000Y-100600000D01*
X162374997Y-100151386D01*
X161033982Y-98735869D01*
X161002166Y-98673664D01*
X161000000Y-98650589D01*
X161000000Y-97500003D01*
X163274435Y-97500003D01*
X163294630Y-97679249D01*
X163294631Y-97679254D01*
X163350047Y-97837622D01*
X163353608Y-97907401D01*
X163350047Y-97919531D01*
X163314632Y-98020742D01*
X163314630Y-98020750D01*
X163294435Y-98199996D01*
X163294435Y-98200003D01*
X163314630Y-98379249D01*
X163314631Y-98379254D01*
X163374211Y-98549523D01*
X163452215Y-98673664D01*
X163470184Y-98702262D01*
X163597738Y-98829816D01*
X163750478Y-98925789D01*
X163920739Y-98985366D01*
X163920745Y-98985368D01*
X163920750Y-98985369D01*
X164099996Y-99005565D01*
X164100000Y-99005565D01*
X164100004Y-99005565D01*
X164279249Y-98985369D01*
X164279251Y-98985368D01*
X164279255Y-98985368D01*
X164279258Y-98985366D01*
X164279262Y-98985366D01*
X164409045Y-98939953D01*
X164478824Y-98936391D01*
X164490955Y-98939953D01*
X164620737Y-98985366D01*
X164620743Y-98985367D01*
X164620745Y-98985368D01*
X164620746Y-98985368D01*
X164620750Y-98985369D01*
X164799996Y-99005565D01*
X164800000Y-99005565D01*
X164800004Y-99005565D01*
X164979249Y-98985369D01*
X164979252Y-98985368D01*
X164979255Y-98985368D01*
X164979256Y-98985367D01*
X164979259Y-98985367D01*
X165035978Y-98965519D01*
X165109046Y-98939951D01*
X165178824Y-98936389D01*
X165190956Y-98939952D01*
X165320740Y-98985366D01*
X165320746Y-98985367D01*
X165320748Y-98985368D01*
X165320749Y-98985368D01*
X165320753Y-98985369D01*
X165499999Y-99005565D01*
X165500003Y-99005565D01*
X165500007Y-99005565D01*
X165679252Y-98985369D01*
X165679255Y-98985368D01*
X165679258Y-98985368D01*
X165849525Y-98925789D01*
X166002265Y-98829816D01*
X166129819Y-98702262D01*
X166225792Y-98549522D01*
X166285371Y-98379255D01*
X166285372Y-98379249D01*
X166305568Y-98200003D01*
X166305568Y-98199996D01*
X166285372Y-98020750D01*
X166285371Y-98020745D01*
X166261520Y-97952582D01*
X166225792Y-97850478D01*
X166225191Y-97849522D01*
X166129818Y-97697737D01*
X166002265Y-97570184D01*
X165849524Y-97474210D01*
X165679250Y-97414629D01*
X165678756Y-97414517D01*
X165678469Y-97414356D01*
X165672686Y-97412333D01*
X165673040Y-97411318D01*
X165617783Y-97380398D01*
X165588625Y-97326983D01*
X165587668Y-97327318D01*
X165585632Y-97321499D01*
X165585475Y-97321212D01*
X165585369Y-97320748D01*
X165525788Y-97150476D01*
X165429815Y-96997737D01*
X165302262Y-96870184D01*
X165149523Y-96774211D01*
X164979254Y-96714631D01*
X164979249Y-96714630D01*
X164800004Y-96694435D01*
X164799996Y-96694435D01*
X164620750Y-96714630D01*
X164620737Y-96714633D01*
X164480955Y-96763546D01*
X164411176Y-96767108D01*
X164399045Y-96763546D01*
X164259262Y-96714633D01*
X164259249Y-96714630D01*
X164080004Y-96694435D01*
X164079996Y-96694435D01*
X163900750Y-96714630D01*
X163900745Y-96714631D01*
X163730476Y-96774211D01*
X163577737Y-96870184D01*
X163450184Y-96997737D01*
X163354211Y-97150476D01*
X163294631Y-97320745D01*
X163294630Y-97320750D01*
X163274435Y-97499996D01*
X163274435Y-97500003D01*
X161000000Y-97500003D01*
X161000000Y-92641333D01*
X161019685Y-92574294D01*
X161024800Y-92566933D01*
X161300000Y-92200000D01*
X161230882Y-87500003D01*
X161694435Y-87500003D01*
X161714630Y-87679249D01*
X161714631Y-87679254D01*
X161774211Y-87849523D01*
X161862195Y-87989547D01*
X161870184Y-88002262D01*
X161997738Y-88129816D01*
X162150478Y-88225789D01*
X162303258Y-88279249D01*
X162320745Y-88285368D01*
X162320750Y-88285369D01*
X162499996Y-88305565D01*
X162500000Y-88305565D01*
X162500004Y-88305565D01*
X162679249Y-88285369D01*
X162679252Y-88285368D01*
X162679255Y-88285368D01*
X162849522Y-88225789D01*
X163002262Y-88129816D01*
X163032075Y-88100003D01*
X163594435Y-88100003D01*
X163614630Y-88279249D01*
X163614631Y-88279254D01*
X163674211Y-88449523D01*
X163766427Y-88596283D01*
X163770184Y-88602262D01*
X163897738Y-88729816D01*
X164050478Y-88825789D01*
X164220745Y-88885368D01*
X164220750Y-88885369D01*
X164399996Y-88905565D01*
X164400000Y-88905565D01*
X164400004Y-88905565D01*
X164579249Y-88885369D01*
X164579252Y-88885368D01*
X164579255Y-88885368D01*
X164749522Y-88825789D01*
X164902262Y-88729816D01*
X165029816Y-88602262D01*
X165125789Y-88449522D01*
X165185368Y-88279255D01*
X165191392Y-88225789D01*
X165205565Y-88100003D01*
X165205565Y-88099996D01*
X165185369Y-87920750D01*
X165185368Y-87920745D01*
X165125788Y-87750476D01*
X165034172Y-87604671D01*
X165029816Y-87597738D01*
X164902262Y-87470184D01*
X164892643Y-87464140D01*
X164749523Y-87374211D01*
X164579254Y-87314631D01*
X164579249Y-87314630D01*
X164400004Y-87294435D01*
X164399996Y-87294435D01*
X164220750Y-87314630D01*
X164220745Y-87314631D01*
X164050476Y-87374211D01*
X163897737Y-87470184D01*
X163770184Y-87597737D01*
X163674211Y-87750476D01*
X163614631Y-87920745D01*
X163614630Y-87920750D01*
X163594435Y-88099996D01*
X163594435Y-88100003D01*
X163032075Y-88100003D01*
X163129816Y-88002262D01*
X163225789Y-87849522D01*
X163285368Y-87679255D01*
X163296295Y-87582274D01*
X163305565Y-87500003D01*
X163305565Y-87499996D01*
X163285369Y-87320750D01*
X163285366Y-87320737D01*
X163223489Y-87143905D01*
X163225637Y-87143153D01*
X163216035Y-87084872D01*
X163224392Y-87056411D01*
X163223489Y-87056095D01*
X163285366Y-86879262D01*
X163285369Y-86879249D01*
X163305565Y-86700003D01*
X163305565Y-86699996D01*
X163285369Y-86520750D01*
X163285368Y-86520745D01*
X163284765Y-86519023D01*
X163225789Y-86350478D01*
X163225188Y-86349522D01*
X163129815Y-86197737D01*
X163002262Y-86070184D01*
X162849523Y-85974211D01*
X162679254Y-85914631D01*
X162679249Y-85914630D01*
X162500004Y-85894435D01*
X162499996Y-85894435D01*
X162320750Y-85914630D01*
X162320745Y-85914631D01*
X162150476Y-85974211D01*
X161997737Y-86070184D01*
X161870184Y-86197737D01*
X161774211Y-86350476D01*
X161714631Y-86520745D01*
X161714630Y-86520750D01*
X161694435Y-86699996D01*
X161694435Y-86700003D01*
X161714630Y-86879249D01*
X161714633Y-86879262D01*
X161776510Y-87056094D01*
X161774364Y-87056844D01*
X161783962Y-87115144D01*
X161775609Y-87143590D01*
X161776510Y-87143906D01*
X161714633Y-87320737D01*
X161714630Y-87320750D01*
X161694435Y-87499996D01*
X161694435Y-87500003D01*
X161230882Y-87500003D01*
X161200791Y-85453835D01*
X161219488Y-85386517D01*
X161238794Y-85362669D01*
X165964523Y-80815269D01*
X166026476Y-80782971D01*
X166096059Y-80789295D01*
X166151178Y-80832234D01*
X166174331Y-80898156D01*
X166174500Y-80904622D01*
X166174500Y-87989547D01*
X166154815Y-88056586D01*
X166138181Y-88077228D01*
X164315409Y-89900000D01*
X162471270Y-91744139D01*
X162471267Y-91744142D01*
X162433829Y-91781580D01*
X162384142Y-91831266D01*
X162351136Y-91880664D01*
X162351135Y-91880666D01*
X162315687Y-91933714D01*
X162315685Y-91933718D01*
X162282347Y-92014207D01*
X162276823Y-92027543D01*
X162268537Y-92047545D01*
X162268535Y-92047553D01*
X162244500Y-92168389D01*
X162244500Y-92605145D01*
X162225494Y-92671117D01*
X162144211Y-92800476D01*
X162084631Y-92970745D01*
X162084630Y-92970750D01*
X162064435Y-93149996D01*
X162064435Y-93150003D01*
X162084630Y-93329249D01*
X162084631Y-93329254D01*
X162144211Y-93499523D01*
X162207347Y-93600003D01*
X162240184Y-93652262D01*
X162367738Y-93779816D01*
X162520478Y-93875789D01*
X162690745Y-93935368D01*
X162715280Y-93938132D01*
X162779693Y-93965195D01*
X162789081Y-93973671D01*
X167911016Y-99095606D01*
X167911045Y-99095637D01*
X168001263Y-99185855D01*
X168001269Y-99185860D01*
X168018353Y-99197274D01*
X168035323Y-99208613D01*
X168035326Y-99208617D01*
X168035327Y-99208616D01*
X168103714Y-99254312D01*
X168184207Y-99287652D01*
X168217548Y-99301463D01*
X168232703Y-99304477D01*
X168260431Y-99309993D01*
X168260451Y-99309996D01*
X168260473Y-99310001D01*
X168338391Y-99325499D01*
X168338392Y-99325500D01*
X168338393Y-99325500D01*
X168338394Y-99325500D01*
X177355145Y-99325500D01*
X177421116Y-99344505D01*
X177550478Y-99425789D01*
X177720745Y-99485368D01*
X177720750Y-99485369D01*
X177899996Y-99505565D01*
X177900000Y-99505565D01*
X177900004Y-99505565D01*
X178079249Y-99485369D01*
X178079252Y-99485368D01*
X178079255Y-99485368D01*
X178249522Y-99425789D01*
X178402262Y-99329816D01*
X178529816Y-99202262D01*
X178625789Y-99049522D01*
X178685368Y-98879255D01*
X178690726Y-98831700D01*
X178705565Y-98700003D01*
X178705565Y-98699996D01*
X178685369Y-98520750D01*
X178685368Y-98520745D01*
X178670848Y-98479249D01*
X178625789Y-98350478D01*
X178529816Y-98197738D01*
X178402262Y-98070184D01*
X178378883Y-98055494D01*
X178249523Y-97974211D01*
X178079254Y-97914631D01*
X178079249Y-97914630D01*
X177900004Y-97894435D01*
X177899996Y-97894435D01*
X177720750Y-97914630D01*
X177720745Y-97914631D01*
X177550476Y-97974211D01*
X177421117Y-98055494D01*
X177355145Y-98074500D01*
X171068560Y-98074500D01*
X171001521Y-98054815D01*
X170955766Y-98002011D01*
X170945822Y-97932853D01*
X170974847Y-97869297D01*
X171027606Y-97833458D01*
X171036946Y-97830189D01*
X171049522Y-97825789D01*
X171202262Y-97729816D01*
X171329816Y-97602262D01*
X171425789Y-97449522D01*
X171485368Y-97279255D01*
X171485369Y-97279249D01*
X171505565Y-97100003D01*
X171505565Y-97099996D01*
X171485369Y-96920750D01*
X171485368Y-96920745D01*
X171437878Y-96785027D01*
X171425789Y-96750478D01*
X171417984Y-96738057D01*
X171329815Y-96597737D01*
X171202262Y-96470184D01*
X171049523Y-96374211D01*
X170879254Y-96314631D01*
X170879249Y-96314630D01*
X170700004Y-96294435D01*
X170699996Y-96294435D01*
X170520750Y-96314630D01*
X170520745Y-96314631D01*
X170350476Y-96374211D01*
X170197737Y-96470184D01*
X170070184Y-96597737D01*
X169974211Y-96750476D01*
X169914631Y-96920745D01*
X169914630Y-96920750D01*
X169894435Y-97099996D01*
X169894435Y-97100003D01*
X169914630Y-97279249D01*
X169914631Y-97279254D01*
X169974211Y-97449523D01*
X169989724Y-97474211D01*
X170070184Y-97602262D01*
X170197738Y-97729816D01*
X170245628Y-97759907D01*
X170350478Y-97825789D01*
X170372394Y-97833458D01*
X170429170Y-97874180D01*
X170454918Y-97939132D01*
X170441462Y-98007694D01*
X170393075Y-98058097D01*
X170331440Y-98074500D01*
X168710452Y-98074500D01*
X168643413Y-98054815D01*
X168622771Y-98038181D01*
X168537172Y-97952582D01*
X168503687Y-97891259D01*
X168508671Y-97821567D01*
X168550543Y-97765634D01*
X168558869Y-97759915D01*
X168687242Y-97679254D01*
X168702259Y-97669818D01*
X168702259Y-97669817D01*
X168702262Y-97669816D01*
X168829816Y-97542262D01*
X168925789Y-97389522D01*
X168985368Y-97219255D01*
X168985369Y-97219249D01*
X169005565Y-97040003D01*
X169005565Y-97039996D01*
X168985369Y-96860750D01*
X168985368Y-96860745D01*
X168952603Y-96767108D01*
X168925789Y-96690478D01*
X168829816Y-96537738D01*
X168702262Y-96410184D01*
X168549523Y-96314211D01*
X168379254Y-96254631D01*
X168379249Y-96254630D01*
X168200004Y-96234435D01*
X168199996Y-96234435D01*
X168020750Y-96254630D01*
X168020745Y-96254631D01*
X167850476Y-96314211D01*
X167697737Y-96410184D01*
X167570184Y-96537737D01*
X167480092Y-96681118D01*
X167427757Y-96727409D01*
X167358703Y-96738057D01*
X167294855Y-96709682D01*
X167287417Y-96702827D01*
X164774593Y-94190003D01*
X170139435Y-94190003D01*
X170159630Y-94369249D01*
X170159631Y-94369254D01*
X170219211Y-94539523D01*
X170315184Y-94692262D01*
X170442738Y-94819816D01*
X170595478Y-94915789D01*
X170765745Y-94975368D01*
X170765750Y-94975369D01*
X170944996Y-94995565D01*
X170945000Y-94995565D01*
X170945004Y-94995565D01*
X171124249Y-94975369D01*
X171124252Y-94975368D01*
X171124255Y-94975368D01*
X171294522Y-94915789D01*
X171447262Y-94819816D01*
X171574816Y-94692262D01*
X171670789Y-94539522D01*
X171730368Y-94369255D01*
X171734071Y-94336391D01*
X171750565Y-94190003D01*
X171750565Y-94189996D01*
X171730369Y-94010750D01*
X171730368Y-94010745D01*
X171708945Y-93949522D01*
X171670789Y-93840478D01*
X171574816Y-93687738D01*
X171487081Y-93600003D01*
X178994435Y-93600003D01*
X179014630Y-93779249D01*
X179014631Y-93779254D01*
X179074211Y-93949523D01*
X179112680Y-94010745D01*
X179170184Y-94102262D01*
X179297738Y-94229816D01*
X179450478Y-94325789D01*
X179574680Y-94369249D01*
X179620745Y-94385368D01*
X179620750Y-94385369D01*
X179799996Y-94405565D01*
X179800000Y-94405565D01*
X179800004Y-94405565D01*
X179979249Y-94385369D01*
X179979251Y-94385368D01*
X179979255Y-94385368D01*
X179979258Y-94385366D01*
X179979262Y-94385366D01*
X180109045Y-94339953D01*
X180178824Y-94336391D01*
X180190955Y-94339953D01*
X180320737Y-94385366D01*
X180320743Y-94385367D01*
X180320745Y-94385368D01*
X180320746Y-94385368D01*
X180320750Y-94385369D01*
X180499996Y-94405565D01*
X180500000Y-94405565D01*
X180500004Y-94405565D01*
X180679249Y-94385369D01*
X180679251Y-94385368D01*
X180679255Y-94385368D01*
X180679258Y-94385366D01*
X180679262Y-94385366D01*
X180809045Y-94339953D01*
X180878824Y-94336391D01*
X180890955Y-94339953D01*
X181020737Y-94385366D01*
X181020743Y-94385367D01*
X181020745Y-94385368D01*
X181020746Y-94385368D01*
X181020750Y-94385369D01*
X181199996Y-94405565D01*
X181200000Y-94405565D01*
X181200004Y-94405565D01*
X181379249Y-94385369D01*
X181379251Y-94385368D01*
X181379255Y-94385368D01*
X181379258Y-94385366D01*
X181379262Y-94385366D01*
X181509045Y-94339953D01*
X181578824Y-94336391D01*
X181590955Y-94339953D01*
X181720737Y-94385366D01*
X181720743Y-94385367D01*
X181720745Y-94385368D01*
X181720746Y-94385368D01*
X181720750Y-94385369D01*
X181899996Y-94405565D01*
X181900000Y-94405565D01*
X181900004Y-94405565D01*
X182079249Y-94385369D01*
X182079252Y-94385368D01*
X182079255Y-94385368D01*
X182249522Y-94325789D01*
X182402262Y-94229816D01*
X182529816Y-94102262D01*
X182625789Y-93949522D01*
X182685368Y-93779255D01*
X182685369Y-93779249D01*
X182705565Y-93600003D01*
X182705565Y-93599996D01*
X182685369Y-93420750D01*
X182685368Y-93420745D01*
X182625788Y-93250476D01*
X182529815Y-93097737D01*
X182402262Y-92970184D01*
X182249523Y-92874211D01*
X182079254Y-92814631D01*
X182079249Y-92814630D01*
X181900004Y-92794435D01*
X181899996Y-92794435D01*
X181720750Y-92814630D01*
X181720742Y-92814632D01*
X181590954Y-92860047D01*
X181521175Y-92863608D01*
X181509046Y-92860047D01*
X181379257Y-92814632D01*
X181379249Y-92814630D01*
X181200004Y-92794435D01*
X181199996Y-92794435D01*
X181020750Y-92814630D01*
X181020742Y-92814632D01*
X180890954Y-92860047D01*
X180821175Y-92863608D01*
X180809046Y-92860047D01*
X180679257Y-92814632D01*
X180679249Y-92814630D01*
X180500004Y-92794435D01*
X180499996Y-92794435D01*
X180320750Y-92814630D01*
X180320742Y-92814632D01*
X180190954Y-92860047D01*
X180121175Y-92863608D01*
X180109046Y-92860047D01*
X179979257Y-92814632D01*
X179979249Y-92814630D01*
X179800004Y-92794435D01*
X179799996Y-92794435D01*
X179620750Y-92814630D01*
X179620745Y-92814631D01*
X179450476Y-92874211D01*
X179297737Y-92970184D01*
X179170184Y-93097737D01*
X179074211Y-93250476D01*
X179014631Y-93420745D01*
X179014630Y-93420750D01*
X178994435Y-93599996D01*
X178994435Y-93600003D01*
X171487081Y-93600003D01*
X171447262Y-93560184D01*
X171350721Y-93499523D01*
X171294523Y-93464211D01*
X171124254Y-93404631D01*
X171124249Y-93404630D01*
X170945004Y-93384435D01*
X170944996Y-93384435D01*
X170765750Y-93404630D01*
X170765745Y-93404631D01*
X170595476Y-93464211D01*
X170442737Y-93560184D01*
X170315184Y-93687737D01*
X170219211Y-93840476D01*
X170159631Y-94010745D01*
X170159630Y-94010750D01*
X170139435Y-94189996D01*
X170139435Y-94190003D01*
X164774593Y-94190003D01*
X163698751Y-93114161D01*
X163665266Y-93052838D01*
X163663212Y-93040362D01*
X163655369Y-92970750D01*
X163655368Y-92970745D01*
X163616633Y-92860047D01*
X163595789Y-92800478D01*
X163514505Y-92671116D01*
X163495500Y-92605145D01*
X163495500Y-92540451D01*
X163515185Y-92473412D01*
X163531814Y-92452775D01*
X165544367Y-90440222D01*
X173613387Y-90440222D01*
X173633582Y-90619468D01*
X173633583Y-90619473D01*
X173693163Y-90789742D01*
X173789136Y-90942481D01*
X173916690Y-91070035D01*
X174051984Y-91155045D01*
X174056083Y-91157736D01*
X174057788Y-91158904D01*
X174060888Y-91160716D01*
X174064272Y-91162766D01*
X174069430Y-91166008D01*
X174069431Y-91166008D01*
X174070271Y-91166536D01*
X174076610Y-91169908D01*
X174429001Y-91375942D01*
X174454089Y-91395302D01*
X174533710Y-91474923D01*
X174564064Y-91505277D01*
X174564065Y-91505278D01*
X174649700Y-91562497D01*
X174649702Y-91562498D01*
X174670597Y-91576460D01*
X174670608Y-91576466D01*
X174697425Y-91587574D01*
X174788989Y-91625501D01*
X174788993Y-91625501D01*
X174788994Y-91625502D01*
X174914661Y-91650500D01*
X174914664Y-91650500D01*
X175354071Y-91650500D01*
X175485719Y-91624313D01*
X175485810Y-91624774D01*
X175514625Y-91620500D01*
X181201116Y-91620500D01*
X181201117Y-91620499D01*
X181320993Y-91596655D01*
X181377455Y-91573267D01*
X181403162Y-91562618D01*
X181433307Y-91554393D01*
X181450545Y-91551963D01*
X181468169Y-91549160D01*
X181468174Y-91549158D01*
X181473008Y-91547986D01*
X181473062Y-91548211D01*
X181491983Y-91544073D01*
X181569255Y-91535368D01*
X181739522Y-91475789D01*
X181892262Y-91379816D01*
X182019816Y-91252262D01*
X182115789Y-91099522D01*
X182175368Y-90929255D01*
X182175369Y-90929249D01*
X182195565Y-90750003D01*
X182195565Y-90749996D01*
X182175369Y-90570750D01*
X182175368Y-90570745D01*
X182129695Y-90440219D01*
X182115789Y-90400478D01*
X182099921Y-90375225D01*
X182036631Y-90274499D01*
X182019816Y-90247738D01*
X181892262Y-90120184D01*
X181847350Y-90091964D01*
X181739523Y-90024211D01*
X181569254Y-89964631D01*
X181569249Y-89964630D01*
X181390004Y-89944435D01*
X181389996Y-89944435D01*
X181210750Y-89964630D01*
X181210745Y-89964631D01*
X181040476Y-90024211D01*
X180887734Y-90120186D01*
X180887733Y-90120186D01*
X180807771Y-90200148D01*
X180803215Y-90204479D01*
X180780907Y-90224631D01*
X180772833Y-90234347D01*
X180765160Y-90242760D01*
X180763386Y-90244535D01*
X180760182Y-90247739D01*
X180760181Y-90247741D01*
X180759824Y-90248310D01*
X180750213Y-90261566D01*
X180689397Y-90334751D01*
X180631411Y-90373731D01*
X180594028Y-90379500D01*
X175514625Y-90379500D01*
X175485810Y-90375225D01*
X175485719Y-90375687D01*
X175348094Y-90348311D01*
X175348379Y-90346874D01*
X175290352Y-90323433D01*
X175260263Y-90288790D01*
X175148641Y-90097877D01*
X175145267Y-90091535D01*
X175144741Y-90090699D01*
X175144741Y-90090697D01*
X175141505Y-90085548D01*
X175139469Y-90082190D01*
X175137635Y-90079052D01*
X175127836Y-90062986D01*
X175127832Y-90062981D01*
X175127827Y-90062973D01*
X175126542Y-90061204D01*
X175121860Y-90054283D01*
X175087752Y-90000000D01*
X175048768Y-89937957D01*
X174921214Y-89810403D01*
X174768475Y-89714430D01*
X174598206Y-89654850D01*
X174598201Y-89654849D01*
X174418956Y-89634654D01*
X174418948Y-89634654D01*
X174239702Y-89654849D01*
X174239697Y-89654850D01*
X174069428Y-89714430D01*
X173916689Y-89810403D01*
X173789136Y-89937956D01*
X173693163Y-90090695D01*
X173633583Y-90260964D01*
X173633582Y-90260969D01*
X173613387Y-90440215D01*
X173613387Y-90440222D01*
X165544367Y-90440222D01*
X167198729Y-88785860D01*
X167198733Y-88785858D01*
X167285858Y-88698733D01*
X167354311Y-88596286D01*
X167401463Y-88482452D01*
X167425500Y-88361606D01*
X167425500Y-86935555D01*
X176284749Y-86935555D01*
X176284750Y-86935565D01*
X176295846Y-87041907D01*
X176295846Y-87041909D01*
X176306718Y-87092930D01*
X176306718Y-87092933D01*
X176339935Y-87194562D01*
X176339936Y-87194563D01*
X176416929Y-87316107D01*
X176462337Y-87369209D01*
X176570455Y-87464140D01*
X176700939Y-87524766D01*
X176767848Y-87544889D01*
X176910127Y-87566297D01*
X182771879Y-87604671D01*
X182881023Y-87593479D01*
X182933346Y-87582276D01*
X183037504Y-87547798D01*
X183158543Y-87470010D01*
X183211347Y-87424255D01*
X183305567Y-87315521D01*
X183365338Y-87184644D01*
X183385023Y-87117605D01*
X183385024Y-87117601D01*
X183405500Y-86975185D01*
X183405500Y-82224000D01*
X183393947Y-82116544D01*
X183382741Y-82065033D01*
X183382637Y-82064722D01*
X183348616Y-81962502D01*
X183348613Y-81962496D01*
X183270828Y-81841462D01*
X183270825Y-81841457D01*
X183260244Y-81829246D01*
X183225076Y-81788659D01*
X183225072Y-81788656D01*
X183225070Y-81788653D01*
X183116336Y-81694433D01*
X183116333Y-81694431D01*
X183116331Y-81694430D01*
X182985465Y-81634664D01*
X182985460Y-81634662D01*
X182985459Y-81634662D01*
X182925483Y-81617051D01*
X182918417Y-81614976D01*
X182855575Y-81605941D01*
X182776000Y-81594500D01*
X176923751Y-81594500D01*
X176923745Y-81594500D01*
X176816811Y-81605941D01*
X176816807Y-81605942D01*
X176816798Y-81605943D01*
X176816797Y-81605944D01*
X176765513Y-81617046D01*
X176765509Y-81617047D01*
X176765501Y-81617049D01*
X176765493Y-81617051D01*
X176663404Y-81650858D01*
X176663401Y-81650860D01*
X176542214Y-81728397D01*
X176542201Y-81728407D01*
X176489310Y-81774051D01*
X176394868Y-81882600D01*
X176334835Y-82013356D01*
X176318147Y-82069770D01*
X176315629Y-82076141D01*
X176294252Y-82222726D01*
X176294252Y-82222731D01*
X176284863Y-86879262D01*
X176284749Y-86935555D01*
X167425500Y-86935555D01*
X167425500Y-83510003D01*
X170514435Y-83510003D01*
X170534630Y-83689249D01*
X170534631Y-83689254D01*
X170594211Y-83859523D01*
X170690184Y-84012262D01*
X170817738Y-84139816D01*
X170970478Y-84235789D01*
X171140745Y-84295368D01*
X171140750Y-84295369D01*
X171319996Y-84315565D01*
X171320000Y-84315565D01*
X171320004Y-84315565D01*
X171499249Y-84295369D01*
X171499252Y-84295368D01*
X171499255Y-84295368D01*
X171669522Y-84235789D01*
X171822262Y-84139816D01*
X171949816Y-84012262D01*
X172045789Y-83859522D01*
X172104921Y-83690529D01*
X172145643Y-83633755D01*
X172210595Y-83608007D01*
X172279157Y-83621463D01*
X172287935Y-83626491D01*
X172299496Y-83633755D01*
X172350478Y-83665789D01*
X172417540Y-83689255D01*
X172520745Y-83725368D01*
X172520750Y-83725369D01*
X172699996Y-83745565D01*
X172700000Y-83745565D01*
X172700004Y-83745565D01*
X172879249Y-83725369D01*
X172879252Y-83725368D01*
X172879255Y-83725368D01*
X173049522Y-83665789D01*
X173202262Y-83569816D01*
X173329816Y-83442262D01*
X173425789Y-83289522D01*
X173485368Y-83119255D01*
X173505565Y-82940000D01*
X173498825Y-82880184D01*
X173485369Y-82760750D01*
X173485368Y-82760748D01*
X173485368Y-82760745D01*
X173448698Y-82655951D01*
X173445136Y-82586177D01*
X173448692Y-82574067D01*
X173485368Y-82469255D01*
X173505565Y-82290000D01*
X173485368Y-82110745D01*
X173450448Y-82010952D01*
X173446886Y-81941177D01*
X173450442Y-81929064D01*
X173485368Y-81829255D01*
X173505468Y-81650860D01*
X173505565Y-81650003D01*
X173505565Y-81649996D01*
X173485369Y-81470750D01*
X173485366Y-81470737D01*
X173439953Y-81340954D01*
X173436391Y-81271175D01*
X173439952Y-81259046D01*
X173483998Y-81133169D01*
X173524719Y-81076394D01*
X173560084Y-81057084D01*
X173649522Y-81025789D01*
X173802262Y-80929816D01*
X173929816Y-80802262D01*
X174025789Y-80649522D01*
X174085368Y-80479255D01*
X174105565Y-80300000D01*
X174094917Y-80205499D01*
X174085369Y-80120750D01*
X174085368Y-80120745D01*
X174047088Y-80011347D01*
X174025789Y-79950478D01*
X173929816Y-79797738D01*
X173802262Y-79670184D01*
X173652370Y-79576000D01*
X176194500Y-79576000D01*
X176194501Y-79576009D01*
X176206052Y-79683450D01*
X176206054Y-79683462D01*
X176217260Y-79734972D01*
X176251383Y-79837497D01*
X176251386Y-79837503D01*
X176329171Y-79958537D01*
X176329179Y-79958548D01*
X176374923Y-80011340D01*
X176374926Y-80011343D01*
X176374930Y-80011347D01*
X176483664Y-80105567D01*
X176483667Y-80105568D01*
X176483668Y-80105569D01*
X176577925Y-80148616D01*
X176614541Y-80165338D01*
X176681580Y-80185023D01*
X176681584Y-80185024D01*
X176824000Y-80205500D01*
X176824003Y-80205500D01*
X181875990Y-80205500D01*
X181876000Y-80205500D01*
X181983456Y-80193947D01*
X182034967Y-80182741D01*
X182069197Y-80171347D01*
X182137497Y-80148616D01*
X182137501Y-80148613D01*
X182137504Y-80148613D01*
X182258543Y-80070825D01*
X182311347Y-80025070D01*
X182405567Y-79916336D01*
X182465338Y-79785459D01*
X182485023Y-79718420D01*
X182485024Y-79718416D01*
X182505500Y-79576000D01*
X182505500Y-76729500D01*
X182493947Y-76622044D01*
X182482741Y-76570533D01*
X182482637Y-76570222D01*
X182448616Y-76468002D01*
X182448613Y-76467997D01*
X182448613Y-76467996D01*
X182419565Y-76422797D01*
X182399881Y-76355760D01*
X182411087Y-76304248D01*
X182465338Y-76185459D01*
X182485023Y-76118420D01*
X182485024Y-76118416D01*
X182505500Y-75976000D01*
X182505500Y-72524000D01*
X182493947Y-72416544D01*
X182482741Y-72365033D01*
X182467000Y-72317738D01*
X182448616Y-72262502D01*
X182448613Y-72262496D01*
X182370828Y-72141462D01*
X182370825Y-72141457D01*
X182345999Y-72112806D01*
X182325076Y-72088659D01*
X182325072Y-72088656D01*
X182325070Y-72088653D01*
X182216336Y-71994433D01*
X182216333Y-71994431D01*
X182216331Y-71994430D01*
X182085465Y-71934664D01*
X182085460Y-71934662D01*
X182085459Y-71934662D01*
X182018420Y-71914977D01*
X182018422Y-71914977D01*
X182018417Y-71914976D01*
X181956347Y-71906052D01*
X181876000Y-71894500D01*
X176824000Y-71894500D01*
X176823991Y-71894500D01*
X176823990Y-71894501D01*
X176716549Y-71906052D01*
X176716537Y-71906054D01*
X176665027Y-71917260D01*
X176562502Y-71951383D01*
X176562496Y-71951386D01*
X176441462Y-72029171D01*
X176441451Y-72029179D01*
X176388659Y-72074923D01*
X176294433Y-72183664D01*
X176294430Y-72183668D01*
X176234664Y-72314534D01*
X176214976Y-72381582D01*
X176209949Y-72416549D01*
X176194500Y-72524000D01*
X176194500Y-75976000D01*
X176194501Y-75976009D01*
X176206052Y-76083450D01*
X176206054Y-76083462D01*
X176217260Y-76134972D01*
X176251383Y-76237497D01*
X176251386Y-76237503D01*
X176280433Y-76282700D01*
X176300118Y-76349740D01*
X176288912Y-76401252D01*
X176234664Y-76520034D01*
X176214976Y-76587082D01*
X176209949Y-76622049D01*
X176194500Y-76729500D01*
X176194500Y-79576000D01*
X173652370Y-79576000D01*
X173649523Y-79574211D01*
X173479254Y-79514631D01*
X173479249Y-79514630D01*
X173300004Y-79494435D01*
X173299996Y-79494435D01*
X173120746Y-79514631D01*
X173120745Y-79514631D01*
X173040953Y-79542551D01*
X172971174Y-79546112D01*
X172959047Y-79542551D01*
X172879253Y-79514631D01*
X172700004Y-79494435D01*
X172699996Y-79494435D01*
X172520750Y-79514630D01*
X172520745Y-79514631D01*
X172350476Y-79574211D01*
X172197737Y-79670184D01*
X172070184Y-79797737D01*
X171974211Y-79950476D01*
X171914631Y-80120745D01*
X171914630Y-80120750D01*
X171894435Y-80299996D01*
X171894435Y-80300003D01*
X171914631Y-80479252D01*
X171951299Y-80584046D01*
X171954860Y-80653825D01*
X171951299Y-80665954D01*
X171914631Y-80770747D01*
X171894435Y-80949996D01*
X171894435Y-80950003D01*
X171914630Y-81129249D01*
X171914632Y-81129257D01*
X171960047Y-81259046D01*
X171963608Y-81328825D01*
X171960047Y-81340954D01*
X171914632Y-81470742D01*
X171914630Y-81470750D01*
X171894435Y-81649996D01*
X171894435Y-81650003D01*
X171914631Y-81829253D01*
X171914631Y-81829254D01*
X171949549Y-81929047D01*
X171953110Y-81998826D01*
X171949549Y-82010953D01*
X171914631Y-82110745D01*
X171914631Y-82110746D01*
X171894435Y-82289996D01*
X171894435Y-82290003D01*
X171914631Y-82469252D01*
X171951299Y-82574046D01*
X171954860Y-82643825D01*
X171951299Y-82655954D01*
X171915078Y-82759469D01*
X171874356Y-82816245D01*
X171809404Y-82841993D01*
X171740842Y-82828537D01*
X171732063Y-82823508D01*
X171669524Y-82784211D01*
X171499254Y-82724631D01*
X171499249Y-82724630D01*
X171320004Y-82704435D01*
X171319996Y-82704435D01*
X171140750Y-82724630D01*
X171140745Y-82724631D01*
X170970476Y-82784211D01*
X170817737Y-82880184D01*
X170690184Y-83007737D01*
X170594211Y-83160476D01*
X170534631Y-83330745D01*
X170534630Y-83330750D01*
X170514435Y-83509996D01*
X170514435Y-83510003D01*
X167425500Y-83510003D01*
X167425500Y-78573455D01*
X167445185Y-78506416D01*
X167458785Y-78488916D01*
X167574257Y-78365009D01*
X167603196Y-78331070D01*
X167606962Y-78326654D01*
X167607045Y-78326725D01*
X167615962Y-78316114D01*
X167629816Y-78302262D01*
X167725789Y-78149522D01*
X167785368Y-77979255D01*
X167805565Y-77800000D01*
X167785368Y-77620745D01*
X167725789Y-77450478D01*
X167629816Y-77297738D01*
X167502262Y-77170184D01*
X167460928Y-77144212D01*
X167349523Y-77074211D01*
X167179254Y-77014631D01*
X167179249Y-77014630D01*
X167000004Y-76994435D01*
X166999996Y-76994435D01*
X166820750Y-77014630D01*
X166820742Y-77014632D01*
X166694944Y-77058651D01*
X166625166Y-77062212D01*
X166564538Y-77027483D01*
X166532311Y-76965490D01*
X166529995Y-76940507D01*
X166547321Y-75000003D01*
X171194435Y-75000003D01*
X171214630Y-75179249D01*
X171214631Y-75179254D01*
X171261548Y-75313333D01*
X171265109Y-75383112D01*
X171261548Y-75395242D01*
X171224631Y-75500747D01*
X171204435Y-75679996D01*
X171204435Y-75680003D01*
X171224630Y-75859249D01*
X171224631Y-75859254D01*
X171284211Y-76029523D01*
X171380184Y-76182262D01*
X171507738Y-76309816D01*
X171660478Y-76405789D01*
X171709090Y-76422799D01*
X171830745Y-76465368D01*
X171830750Y-76465369D01*
X172009996Y-76485565D01*
X172010000Y-76485565D01*
X172010004Y-76485565D01*
X172189249Y-76465369D01*
X172189252Y-76465368D01*
X172189255Y-76465368D01*
X172189256Y-76465367D01*
X172189259Y-76465367D01*
X172234590Y-76449504D01*
X172341135Y-76412222D01*
X172410911Y-76408660D01*
X172448060Y-76424270D01*
X172450476Y-76425788D01*
X172450478Y-76425789D01*
X172563591Y-76465369D01*
X172620745Y-76485368D01*
X172620750Y-76485369D01*
X172799996Y-76505565D01*
X172800000Y-76505565D01*
X172800004Y-76505565D01*
X172979249Y-76485369D01*
X172979252Y-76485368D01*
X172979255Y-76485368D01*
X173149522Y-76425789D01*
X173302262Y-76329816D01*
X173429816Y-76202262D01*
X173525789Y-76049522D01*
X173585368Y-75879255D01*
X173585369Y-75879249D01*
X173605565Y-75700003D01*
X173605565Y-75699996D01*
X173585369Y-75520750D01*
X173585368Y-75520745D01*
X173568587Y-75472789D01*
X173525789Y-75350478D01*
X173525188Y-75349522D01*
X173429815Y-75197737D01*
X173319759Y-75087681D01*
X173286274Y-75026358D01*
X173291258Y-74956666D01*
X173319759Y-74912319D01*
X173429816Y-74802262D01*
X173525789Y-74649522D01*
X173585368Y-74479255D01*
X173595376Y-74390433D01*
X173605565Y-74300003D01*
X173605565Y-74299996D01*
X173585369Y-74120750D01*
X173585368Y-74120745D01*
X173548154Y-74014394D01*
X173525789Y-73950478D01*
X173429816Y-73797738D01*
X173302262Y-73670184D01*
X173149522Y-73574211D01*
X172993433Y-73519593D01*
X172936657Y-73478871D01*
X172910910Y-73413918D01*
X172924366Y-73345356D01*
X172937449Y-73325228D01*
X172939807Y-73322270D01*
X172939816Y-73322262D01*
X173035789Y-73169522D01*
X173095368Y-72999255D01*
X173115565Y-72820000D01*
X173108054Y-72753338D01*
X173095369Y-72640750D01*
X173095368Y-72640745D01*
X173093380Y-72635064D01*
X173035789Y-72470478D01*
X172939816Y-72317738D01*
X172812262Y-72190184D01*
X172801892Y-72183668D01*
X172659523Y-72094211D01*
X172489254Y-72034631D01*
X172489249Y-72034630D01*
X172310004Y-72014435D01*
X172309996Y-72014435D01*
X172130750Y-72034630D01*
X172130745Y-72034631D01*
X171960476Y-72094211D01*
X171807737Y-72190184D01*
X171680184Y-72317737D01*
X171584211Y-72470476D01*
X171524631Y-72640745D01*
X171524630Y-72640750D01*
X171504435Y-72819996D01*
X171504435Y-72820003D01*
X171524630Y-72999249D01*
X171524631Y-72999254D01*
X171584211Y-73169523D01*
X171680184Y-73322262D01*
X171719580Y-73361658D01*
X171753065Y-73422981D01*
X171748081Y-73492673D01*
X171706209Y-73548606D01*
X171672855Y-73566380D01*
X171650479Y-73574209D01*
X171497737Y-73670184D01*
X171370184Y-73797737D01*
X171274211Y-73950476D01*
X171214631Y-74120745D01*
X171214630Y-74120750D01*
X171194435Y-74299996D01*
X171194435Y-74300003D01*
X171214630Y-74479249D01*
X171214632Y-74479257D01*
X171260047Y-74609046D01*
X171263608Y-74678825D01*
X171260047Y-74690954D01*
X171214632Y-74820742D01*
X171214630Y-74820750D01*
X171194435Y-74999996D01*
X171194435Y-75000003D01*
X166547321Y-75000003D01*
X166600000Y-69100000D01*
X166013091Y-67926182D01*
X166000000Y-67870728D01*
X166000000Y-63835001D01*
X190016947Y-63835001D01*
X190037132Y-64117219D01*
X190037133Y-64117226D01*
X190097273Y-64393684D01*
X190097275Y-64393691D01*
X190158666Y-64558288D01*
X190196152Y-64658791D01*
X190196154Y-64658795D01*
X190331746Y-64907113D01*
X190331751Y-64907121D01*
X190501302Y-65133616D01*
X190501318Y-65133634D01*
X190701365Y-65333681D01*
X190701383Y-65333697D01*
X190927878Y-65503248D01*
X190927886Y-65503253D01*
X191176204Y-65638845D01*
X191176208Y-65638847D01*
X191176210Y-65638848D01*
X191441309Y-65737725D01*
X191717782Y-65797868D01*
X191978259Y-65816498D01*
X191999999Y-65818053D01*
X192000000Y-65818053D01*
X192000001Y-65818053D01*
X192020186Y-65816609D01*
X192282218Y-65797868D01*
X192558691Y-65737725D01*
X192823790Y-65638848D01*
X193072119Y-65503250D01*
X193298624Y-65333691D01*
X193498691Y-65133624D01*
X193668250Y-64907119D01*
X193803848Y-64658790D01*
X193902725Y-64393691D01*
X193962868Y-64117218D01*
X193983053Y-63835000D01*
X193962868Y-63552782D01*
X193902725Y-63276309D01*
X193803848Y-63011210D01*
X193668250Y-62762881D01*
X193668248Y-62762878D01*
X193498697Y-62536383D01*
X193498681Y-62536365D01*
X193298634Y-62336318D01*
X193298616Y-62336302D01*
X193072121Y-62166751D01*
X193072113Y-62166746D01*
X192823795Y-62031154D01*
X192823791Y-62031152D01*
X192723288Y-61993666D01*
X192558691Y-61932275D01*
X192558687Y-61932274D01*
X192558684Y-61932273D01*
X192282226Y-61872133D01*
X192282219Y-61872132D01*
X192000001Y-61851947D01*
X191999999Y-61851947D01*
X191717780Y-61872132D01*
X191717773Y-61872133D01*
X191441315Y-61932273D01*
X191441310Y-61932274D01*
X191441309Y-61932275D01*
X191377213Y-61956181D01*
X191176208Y-62031152D01*
X191176204Y-62031154D01*
X190927886Y-62166746D01*
X190927878Y-62166751D01*
X190701383Y-62336302D01*
X190701365Y-62336318D01*
X190501318Y-62536365D01*
X190501302Y-62536383D01*
X190331751Y-62762878D01*
X190331746Y-62762886D01*
X190196154Y-63011204D01*
X190196152Y-63011208D01*
X190097273Y-63276315D01*
X190037133Y-63552773D01*
X190037132Y-63552780D01*
X190016947Y-63834998D01*
X190016947Y-63835001D01*
X166000000Y-63835001D01*
X166000000Y-58524000D01*
X166019685Y-58456961D01*
X166072489Y-58411206D01*
X166124000Y-58400000D01*
X206478068Y-58400000D01*
X206545107Y-58419685D01*
G37*
%TD.AperFunction*%
%TD*%
%TA.AperFunction,Conductor*%
%TO.N,G_G_GND1*%
G36*
X196443039Y-91819685D02*
G01*
X196488794Y-91872489D01*
X196500000Y-91924000D01*
X196500000Y-101300000D01*
X192908062Y-101300000D01*
X192911361Y-101288766D01*
X192911068Y-101288652D01*
X192912371Y-101285293D01*
X192912375Y-101285285D01*
X192948405Y-101173586D01*
X192959525Y-101117487D01*
X192968827Y-101000490D01*
X192909577Y-99400702D01*
X192896297Y-99302832D01*
X192885176Y-99255910D01*
X192853121Y-99162496D01*
X192775333Y-99041457D01*
X192774929Y-99040991D01*
X192729584Y-98988659D01*
X192729580Y-98988656D01*
X192729578Y-98988653D01*
X192620844Y-98894433D01*
X192620842Y-98894432D01*
X192620841Y-98894431D01*
X192572487Y-98872348D01*
X192519684Y-98826592D01*
X192500000Y-98759554D01*
X192500000Y-97279844D01*
X192519685Y-97212805D01*
X192572487Y-97167050D01*
X194700000Y-96200000D01*
X194700000Y-91924000D01*
X194719685Y-91856961D01*
X194772489Y-91811206D01*
X194824000Y-91800000D01*
X196376000Y-91800000D01*
X196443039Y-91819685D01*
G37*
%TD.AperFunction*%
%TD*%
%TA.AperFunction,Conductor*%
%TO.N,GND*%
G36*
X199400000Y-90000000D02*
G01*
X196324000Y-90000000D01*
X196256961Y-89980315D01*
X196211206Y-89927511D01*
X196200000Y-89876000D01*
X196200000Y-85417816D01*
X196219685Y-85350777D01*
X196258904Y-85312277D01*
X196331156Y-85267712D01*
X196455212Y-85143656D01*
X196547314Y-84994334D01*
X196602499Y-84827797D01*
X196613000Y-84725009D01*
X196612999Y-83674992D01*
X196602499Y-83572203D01*
X196547314Y-83405666D01*
X196455212Y-83256344D01*
X196436549Y-83237681D01*
X196403064Y-83176358D01*
X196408048Y-83106666D01*
X196436549Y-83062319D01*
X196455212Y-83043656D01*
X196547314Y-82894334D01*
X196602499Y-82727797D01*
X196613000Y-82625009D01*
X196612999Y-81574992D01*
X196602499Y-81472203D01*
X196547314Y-81305666D01*
X196455212Y-81156344D01*
X196398868Y-81100000D01*
X198300000Y-81100000D01*
X199400000Y-81100000D01*
X199400000Y-90000000D01*
G37*
%TD.AperFunction*%
%TD*%
%TA.AperFunction,Conductor*%
%TO.N,+24V*%
G36*
X200043039Y-91719685D02*
G01*
X200088794Y-91772489D01*
X200100000Y-91824000D01*
X200100000Y-108600000D01*
X197905500Y-108600000D01*
X197905500Y-106856348D01*
X197904704Y-106828007D01*
X197904704Y-106827998D01*
X197903924Y-106814114D01*
X197903613Y-106810428D01*
X197903613Y-106789570D01*
X197903924Y-106785885D01*
X197904704Y-106772001D01*
X197905500Y-106743647D01*
X197905500Y-101424000D01*
X197893947Y-101316544D01*
X197882741Y-101265033D01*
X197882637Y-101264722D01*
X197848616Y-101162502D01*
X197848613Y-101162496D01*
X197770828Y-101041462D01*
X197770825Y-101041457D01*
X197770820Y-101041451D01*
X197725076Y-100988659D01*
X197725072Y-100988656D01*
X197725070Y-100988653D01*
X197616336Y-100894433D01*
X197616333Y-100894431D01*
X197616331Y-100894430D01*
X197485457Y-100834660D01*
X197481315Y-100833116D01*
X197482017Y-100831232D01*
X197430182Y-100797825D01*
X197401239Y-100734231D01*
X197400000Y-100716743D01*
X197400000Y-91824000D01*
X197419685Y-91756961D01*
X197472489Y-91711206D01*
X197524000Y-91700000D01*
X199976000Y-91700000D01*
X200043039Y-91719685D01*
G37*
%TD.AperFunction*%
%TD*%
%TA.AperFunction,Conductor*%
%TO.N,+24V*%
G36*
X200100000Y-126900000D02*
G01*
X209488500Y-126900000D01*
X209496632Y-126903368D01*
X209500000Y-126911500D01*
X209500000Y-132788500D01*
X209496632Y-132796632D01*
X209488500Y-132800000D01*
X189858707Y-132800000D01*
X189850575Y-132796632D01*
X189847207Y-132788500D01*
X189850016Y-132780969D01*
X189886032Y-132739404D01*
X189905567Y-132716860D01*
X189965338Y-132585983D01*
X189985023Y-132518944D01*
X189985024Y-132518940D01*
X190005500Y-132376524D01*
X190005500Y-127717000D01*
X190008868Y-127708868D01*
X190017000Y-127705500D01*
X197276001Y-127705500D01*
X197293054Y-127703666D01*
X197383456Y-127693947D01*
X197434967Y-127682741D01*
X197434972Y-127682740D01*
X197503375Y-127659972D01*
X197537504Y-127648613D01*
X197658543Y-127570825D01*
X197711347Y-127525070D01*
X197805567Y-127416336D01*
X197865338Y-127285459D01*
X197885023Y-127218420D01*
X197885024Y-127218416D01*
X197905500Y-127076000D01*
X197905500Y-108600000D01*
X200100000Y-108600000D01*
X200100000Y-126900000D01*
G37*
%TD.AperFunction*%
%TD*%
%TA.AperFunction,Conductor*%
%TO.N,V_LOW*%
G36*
X195892985Y-81380636D02*
G01*
X195895303Y-81380872D01*
X195921738Y-81386528D01*
X195952989Y-81396884D01*
X195979075Y-81409047D01*
X196003164Y-81423905D01*
X196025744Y-81441760D01*
X196045738Y-81461754D01*
X196063596Y-81484339D01*
X196078446Y-81508415D01*
X196090612Y-81534506D01*
X196100969Y-81565760D01*
X196106621Y-81592150D01*
X196106856Y-81594448D01*
X196107499Y-81607063D01*
X196107499Y-82592933D01*
X196106856Y-82605542D01*
X196106621Y-82607841D01*
X196100970Y-82634235D01*
X196090614Y-82665488D01*
X196078446Y-82691583D01*
X196045436Y-82745099D01*
X196036451Y-82757805D01*
X196011301Y-82789014D01*
X195982801Y-82833360D01*
X195982796Y-82833369D01*
X195934420Y-82930012D01*
X195934416Y-82930023D01*
X195903837Y-83070595D01*
X195903836Y-83070607D01*
X195898852Y-83140297D01*
X195898852Y-83140300D01*
X195909116Y-83283810D01*
X195945438Y-83381193D01*
X195959398Y-83418619D01*
X195973225Y-83443941D01*
X195992883Y-83479942D01*
X196025446Y-83523442D01*
X196031714Y-83532650D01*
X196058488Y-83576058D01*
X196078446Y-83608414D01*
X196090612Y-83634506D01*
X196100969Y-83665760D01*
X196106621Y-83692150D01*
X196106856Y-83694448D01*
X196107499Y-83707063D01*
X196107499Y-84692933D01*
X196106856Y-84705542D01*
X196106621Y-84707841D01*
X196100970Y-84734236D01*
X196090613Y-84765491D01*
X196078446Y-84791583D01*
X196063596Y-84815659D01*
X196045738Y-84838244D01*
X196025744Y-84858238D01*
X196003169Y-84876090D01*
X195993540Y-84882030D01*
X195993531Y-84882036D01*
X195904783Y-84951543D01*
X195904779Y-84951546D01*
X195904775Y-84951550D01*
X195865571Y-84990035D01*
X195865563Y-84990044D01*
X195794434Y-85077477D01*
X195794432Y-85077481D01*
X195734663Y-85208353D01*
X195714976Y-85275398D01*
X195694500Y-85417817D01*
X195694500Y-85582464D01*
X195676776Y-85643987D01*
X195677231Y-85644206D01*
X195675942Y-85646880D01*
X195675496Y-85648432D01*
X195674210Y-85650478D01*
X195614633Y-85820737D01*
X195614630Y-85820750D01*
X195594435Y-85999996D01*
X195594435Y-86000003D01*
X195614630Y-86179249D01*
X195614633Y-86179262D01*
X195652102Y-86286339D01*
X195674211Y-86349522D01*
X195675491Y-86351559D01*
X195675936Y-86353105D01*
X195677234Y-86355799D01*
X195676776Y-86356019D01*
X195694500Y-86417535D01*
X195694500Y-89776000D01*
X195674815Y-89843039D01*
X195622011Y-89888794D01*
X195570500Y-89900000D01*
X195134424Y-89900000D01*
X195067385Y-89880315D01*
X195040713Y-89857205D01*
X195025059Y-89839140D01*
X194952190Y-89776000D01*
X194916333Y-89744930D01*
X194916331Y-89744929D01*
X194916329Y-89744927D01*
X194785463Y-89685163D01*
X194785458Y-89685161D01*
X194785455Y-89685160D01*
X194720567Y-89666107D01*
X194718965Y-89665605D01*
X194718415Y-89665475D01*
X194718409Y-89665473D01*
X194715332Y-89665030D01*
X194575995Y-89644999D01*
X194575993Y-89644999D01*
X194544564Y-89644999D01*
X194531953Y-89644356D01*
X194529650Y-89644120D01*
X194503262Y-89638470D01*
X194472007Y-89628113D01*
X194445915Y-89615946D01*
X194421839Y-89601096D01*
X194399254Y-89583238D01*
X194394908Y-89578892D01*
X194394893Y-89578877D01*
X194394869Y-89578855D01*
X194354651Y-89542728D01*
X194354639Y-89542718D01*
X194333988Y-89526076D01*
X194290106Y-89494433D01*
X194159232Y-89434663D01*
X194092187Y-89414976D01*
X194044714Y-89408150D01*
X193949770Y-89394500D01*
X193949768Y-89394500D01*
X193929500Y-89394500D01*
X193862461Y-89374815D01*
X193816706Y-89322011D01*
X193805500Y-89270500D01*
X193805500Y-86426294D01*
X193805500Y-86426288D01*
X193785741Y-86286339D01*
X193766733Y-86220365D01*
X193758943Y-86202958D01*
X193755093Y-86193279D01*
X193715190Y-86079245D01*
X193709011Y-86052174D01*
X193704697Y-86013881D01*
X193704697Y-85986121D01*
X193709012Y-85947822D01*
X193715189Y-85920755D01*
X193751344Y-85817433D01*
X193751343Y-85817432D01*
X193755094Y-85806716D01*
X193758952Y-85797021D01*
X193766737Y-85779623D01*
X193766741Y-85779615D01*
X193785746Y-85713644D01*
X193805500Y-85573710D01*
X193805500Y-85560746D01*
X193825185Y-85493707D01*
X193841819Y-85473065D01*
X193996327Y-85318557D01*
X194221123Y-85093762D01*
X194257288Y-85053500D01*
X194273922Y-85032858D01*
X194305567Y-84988974D01*
X194365338Y-84858097D01*
X194385023Y-84791058D01*
X194385024Y-84791054D01*
X194405500Y-84648638D01*
X194405500Y-81729500D01*
X194425185Y-81662461D01*
X194477989Y-81616706D01*
X194529500Y-81605500D01*
X194599772Y-81605500D01*
X194609918Y-81604955D01*
X194653810Y-81602603D01*
X194653818Y-81602602D01*
X194653820Y-81602602D01*
X194653821Y-81602602D01*
X194660814Y-81601849D01*
X194680168Y-81599769D01*
X194680178Y-81599767D01*
X194680181Y-81599767D01*
X194689780Y-81598211D01*
X194733580Y-81591114D01*
X194868389Y-81540832D01*
X194927768Y-81508408D01*
X194929233Y-81507642D01*
X194929702Y-81507352D01*
X194929712Y-81507347D01*
X194929718Y-81507344D01*
X195010246Y-81447057D01*
X195019428Y-81440808D01*
X195070918Y-81409049D01*
X195097002Y-81396886D01*
X195128267Y-81386526D01*
X195154674Y-81380875D01*
X195156980Y-81380639D01*
X195169552Y-81380000D01*
X195880444Y-81380000D01*
X195892985Y-81380636D01*
G37*
%TD.AperFunction*%
%TD*%
%TA.AperFunction,Conductor*%
%TO.N,Net-(C11-Pad2)*%
G36*
X192347547Y-99319685D02*
G01*
X192393302Y-99372489D01*
X192404423Y-99419411D01*
X192463673Y-101019199D01*
X192452553Y-101075298D01*
X192414977Y-101157580D01*
X192414975Y-101157585D01*
X192394500Y-101299999D01*
X192394500Y-101800841D01*
X192374815Y-101867880D01*
X192371936Y-101872163D01*
X188009533Y-108076468D01*
X188001659Y-108088002D01*
X187997926Y-108093637D01*
X187990520Y-108105150D01*
X187981316Y-108126027D01*
X187936257Y-108179427D01*
X187869482Y-108199989D01*
X187867855Y-108200000D01*
X185924000Y-108200000D01*
X185856961Y-108180315D01*
X185811206Y-108127511D01*
X185800000Y-108076000D01*
X185800000Y-105342063D01*
X185819685Y-105275024D01*
X185825586Y-105266626D01*
X190362775Y-99348553D01*
X190419186Y-99307328D01*
X190461182Y-99300000D01*
X192280508Y-99300000D01*
X192347547Y-99319685D01*
G37*
%TD.AperFunction*%
%TD*%
%TA.AperFunction,Conductor*%
%TO.N,V_HIGH*%
G36*
X167003399Y-77802415D02*
G01*
X167003446Y-77802462D01*
X167204182Y-78004145D01*
X167207589Y-78012427D01*
X167204448Y-78020376D01*
X167002356Y-78237230D01*
X166936428Y-78307976D01*
X166928470Y-78316515D01*
X166920323Y-78320231D01*
X166919911Y-78320238D01*
X166687276Y-78320238D01*
X166679003Y-78316811D01*
X166675576Y-78308538D01*
X166675589Y-78307976D01*
X166699466Y-77811098D01*
X166703286Y-77803001D01*
X166711111Y-77799962D01*
X166995114Y-77799016D01*
X167003399Y-77802415D01*
G37*
%TD.AperFunction*%
%TD*%
%TA.AperFunction,Conductor*%
%TO.N,Net-(Q1-G)*%
G36*
X174695661Y-90329304D02*
G01*
X174701250Y-90334195D01*
X174944725Y-90750623D01*
X174945943Y-90759493D01*
X174942898Y-90764800D01*
X174743533Y-90964165D01*
X174735260Y-90967592D01*
X174729356Y-90965992D01*
X174312928Y-90722517D01*
X174307515Y-90715383D01*
X174308009Y-90707975D01*
X174416388Y-90444033D01*
X174422698Y-90437683D01*
X174686708Y-90329277D01*
X174695661Y-90329304D01*
G37*
%TD.AperFunction*%
%TD*%
%TA.AperFunction,Conductor*%
%TO.N,Net-(Q1-G)*%
G36*
X181186163Y-90546191D02*
G01*
X181186933Y-90546891D01*
X181387537Y-90746553D01*
X181390983Y-90754818D01*
X181390983Y-90754885D01*
X181390033Y-91039868D01*
X181386579Y-91048130D01*
X181379967Y-91051414D01*
X180906887Y-91118119D01*
X180898216Y-91115881D01*
X180893668Y-91108168D01*
X180893553Y-91106534D01*
X180893553Y-90884226D01*
X180896255Y-90876748D01*
X181169689Y-90547709D01*
X181177610Y-90543539D01*
X181186163Y-90546191D01*
G37*
%TD.AperFunction*%
%TD*%
M02*
