<?xml version="1.0" standalone="no"?>
 <!DOCTYPE svg PUBLIC "-//W3C//DTD SVG 1.1//EN" 
 "http://www.w3.org/Graphics/SVG/1.1/DTD/svg11.dtd"> 
<svg
  xmlns:svg="http://www.w3.org/2000/svg"
  xmlns="http://www.w3.org/2000/svg"
  xmlns:xlink="http://www.w3.org/1999/xlink"
  version="1.1"
  width="297.0022mm" height="210.0072mm" viewBox="0.0000 0.0000 297.0022 210.0072">
<title>SVG Image created as SEPIC-A-F_Mask.svg date 2024/09/18 14:40:37 </title>
  <desc>Image generated by PCBNEW </desc>
<g style="fill:#000000; fill-opacity:1.0000;stroke:#000000; stroke-opacity:1.0000;
stroke-linecap:round; stroke-linejoin:round;"
 transform="translate(0 0) scale(1 1)">
<path style="fill:#D864FF; fill-opacity:0.4000; stroke:none;fill-rule:evenodd;"
d="M 186.4250,114.1750
186.3293,114.1560
186.2482,114.1018
186.1940,114.0207
186.1750,113.9250
186.1750,113.2500
186.1940,113.1543
186.2482,113.0732
186.3293,113.0190
186.4250,113.0000
187.3750,113.0000
187.4707,113.0190
187.5518,113.0732
187.6060,113.1543
187.6250,113.2500
187.6250,113.9250
187.6060,114.0207
187.5518,114.1018
187.4707,114.1560
187.3750,114.1750
Z" /> 
<path style="fill:#D864FF; fill-opacity:0.4000; stroke:none;fill-rule:evenodd;"
d="M 186.4250,112.1000
186.3293,112.0810
186.2482,112.0268
186.1940,111.9457
186.1750,111.8500
186.1750,111.1750
186.1940,111.0793
186.2482,110.9982
186.3293,110.9440
186.4250,110.9250
187.3750,110.9250
187.4707,110.9440
187.5518,110.9982
187.6060,111.0793
187.6250,111.1750
187.6250,111.8500
187.6060,111.9457
187.5518,112.0268
187.4707,112.0810
187.3750,112.1000
Z" /> 
<path style="fill:#D864FF; fill-opacity:0.4000; stroke:none;fill-rule:evenodd;"
d="M 170.2300,90.5100
170.2490,90.4143
170.3032,90.3332
170.3843,90.2790
170.4800,90.2600
171.1800,90.2600
171.2757,90.2790
171.3568,90.3332
171.4110,90.4143
171.4300,90.5100
171.4300,91.4100
171.4110,91.5057
171.3568,91.5868
171.2757,91.6410
171.1800,91.6600
170.4800,91.6600
170.3843,91.6410
170.3032,91.5868
170.2490,91.5057
170.2300,91.4100
Z" /> 
<path style="fill:#D864FF; fill-opacity:0.4000; stroke:none;fill-rule:evenodd;"
d="M 172.2300,90.5100
172.2490,90.4143
172.3032,90.3332
172.3843,90.2790
172.4800,90.2600
173.1800,90.2600
173.2757,90.2790
173.3568,90.3332
173.4110,90.4143
173.4300,90.5100
173.4300,91.4100
173.4110,91.5057
173.3568,91.5868
173.2757,91.6410
173.1800,91.6600
172.4800,91.6600
172.3843,91.6410
172.3032,91.5868
172.2490,91.5057
172.2300,91.4100
Z" /> 
<path style="fill:#D864FF; fill-opacity:0.4000; stroke:none;fill-rule:evenodd;"
d="M 173.8500,95.6000
173.7543,95.5810
173.6732,95.5268
173.6190,95.4457
173.6000,95.3500
173.6000,94.6500
173.6190,94.5543
173.6732,94.4732
173.7543,94.4190
173.8500,94.4000
174.7500,94.4000
174.8457,94.4190
174.9268,94.4732
174.9810,94.5543
175.0000,94.6500
175.0000,95.3500
174.9810,95.4457
174.9268,95.5268
174.8457,95.5810
174.7500,95.6000
Z" /> 
<path style="fill:#D864FF; fill-opacity:0.4000; stroke:none;fill-rule:evenodd;"
d="M 173.8500,93.6000
173.7543,93.5810
173.6732,93.5268
173.6190,93.4457
173.6000,93.3500
173.6000,92.6500
173.6190,92.5543
173.6732,92.4732
173.7543,92.4190
173.8500,92.4000
174.7500,92.4000
174.8457,92.4190
174.9268,92.4732
174.9810,92.5543
175.0000,92.6500
175.0000,93.3500
174.9810,93.4457
174.9268,93.5268
174.8457,93.5810
174.7500,93.6000
Z" /> 
<path style="fill:#D864FF; fill-opacity:0.4000; stroke:none;fill-rule:evenodd;"
d="M 163.2025,131.0075
163.2025,128.0525
166.1575,128.0525
166.1575,131.0075
Z" /> 
</g>
<g style="fill:#D864FF; fill-opacity:0.4000; stroke:none;">
<circle cx="180.1800" cy="129.5300" r="1.4775" /> 
<path style="fill:#D864FF; fill-opacity:0.4000; stroke:none;fill-rule:evenodd;"
d="M 183.8500,83.2875
183.7543,83.2685
183.6732,83.2143
183.6190,83.1332
183.6000,83.0375
183.6000,82.2125
183.6190,82.1168
183.6732,82.0357
183.7543,81.9815
183.8500,81.9625
185.1500,81.9625
185.2457,81.9815
185.3268,82.0357
185.3810,82.1168
185.4000,82.2125
185.4000,83.0375
185.3810,83.1332
185.3268,83.2143
185.2457,83.2685
185.1500,83.2875
Z" /> 
<path style="fill:#D864FF; fill-opacity:0.4000; stroke:none;fill-rule:evenodd;"
d="M 183.8500,80.1625
183.7543,80.1435
183.6732,80.0893
183.6190,80.0082
183.6000,79.9125
183.6000,79.0875
183.6190,78.9918
183.6732,78.9107
183.7543,78.8565
183.8500,78.8375
185.1500,78.8375
185.2457,78.8565
185.3268,78.9107
185.3810,78.9918
185.4000,79.0875
185.4000,79.9125
185.3810,80.0082
185.3268,80.0893
185.2457,80.1435
185.1500,80.1625
Z" /> 
<path style="fill:#D864FF; fill-opacity:0.4000; stroke:none;fill-rule:evenodd;"
d="M 170.2300,88.5400
170.2490,88.4443
170.3032,88.3632
170.3843,88.3090
170.4800,88.2900
171.1800,88.2900
171.2757,88.3090
171.3568,88.3632
171.4110,88.4443
171.4300,88.5400
171.4300,89.4400
171.4110,89.5357
171.3568,89.6168
171.2757,89.6710
171.1800,89.6900
170.4800,89.6900
170.3843,89.6710
170.3032,89.6168
170.2490,89.5357
170.2300,89.4400
Z" /> 
<path style="fill:#D864FF; fill-opacity:0.4000; stroke:none;fill-rule:evenodd;"
d="M 172.2300,88.5400
172.2490,88.4443
172.3032,88.3632
172.3843,88.3090
172.4800,88.2900
173.1800,88.2900
173.2757,88.3090
173.3568,88.3632
173.4110,88.4443
173.4300,88.5400
173.4300,89.4400
173.4110,89.5357
173.3568,89.6168
173.2757,89.6710
173.1800,89.6900
172.4800,89.6900
172.3843,89.6710
172.3032,89.6168
172.2490,89.5357
172.2300,89.4400
Z" /> 
<path style="fill:#D864FF; fill-opacity:0.4000; stroke:none;fill-rule:evenodd;"
d="M 164.4075,85.0625
164.4256,84.9716
164.4771,84.8946
164.5541,84.8431
164.6450,84.8250
165.2450,84.8250
165.3359,84.8431
165.4129,84.8946
165.4644,84.9716
165.4825,85.0625
165.4825,85.5375
165.4644,85.6284
165.4129,85.7054
165.3359,85.7569
165.2450,85.7750
164.6450,85.7750
164.5541,85.7569
164.4771,85.7054
164.4256,85.6284
164.4075,85.5375
Z" /> 
<path style="fill:#D864FF; fill-opacity:0.4000; stroke:none;fill-rule:evenodd;"
d="M 166.1325,85.0625
166.1506,84.9716
166.2021,84.8946
166.2791,84.8431
166.3700,84.8250
166.9700,84.8250
167.0609,84.8431
167.1379,84.8946
167.1894,84.9716
167.2075,85.0625
167.2075,85.5375
167.1894,85.6284
167.1379,85.7054
167.0609,85.7569
166.9700,85.7750
166.3700,85.7750
166.2791,85.7569
166.2021,85.7054
166.1506,85.6284
166.1325,85.5375
Z" /> 
<path style="fill:#D864FF; fill-opacity:0.4000; stroke:none;fill-rule:evenodd;"
d="M 185.7500,76.9000
185.6543,76.8810
185.5732,76.8268
185.5190,76.7457
185.5000,76.6500
185.5000,75.9500
185.5190,75.8543
185.5732,75.7732
185.6543,75.7190
185.7500,75.7000
186.6500,75.7000
186.7457,75.7190
186.8268,75.7732
186.8810,75.8543
186.9000,75.9500
186.9000,76.6500
186.8810,76.7457
186.8268,76.8268
186.7457,76.8810
186.6500,76.9000
Z" /> 
<path style="fill:#D864FF; fill-opacity:0.4000; stroke:none;fill-rule:evenodd;"
d="M 185.7500,74.9000
185.6543,74.8810
185.5732,74.8268
185.5190,74.7457
185.5000,74.6500
185.5000,73.9500
185.5190,73.8543
185.5732,73.7732
185.6543,73.7190
185.7500,73.7000
186.6500,73.7000
186.7457,73.7190
186.8268,73.7732
186.8810,73.8543
186.9000,73.9500
186.9000,74.6500
186.8810,74.7457
186.8268,74.8268
186.7457,74.8810
186.6500,74.9000
Z" /> 
<path style="fill:#D864FF; fill-opacity:0.4000; stroke:none;fill-rule:evenodd;"
d="M 166.2000,70.7375
166.2181,70.6466
166.2696,70.5696
166.3466,70.5181
166.4375,70.5000
166.9375,70.5000
167.0284,70.5181
167.1054,70.5696
167.1569,70.6466
167.1750,70.7375
167.1750,71.2125
167.1569,71.3034
167.1054,71.3804
167.0284,71.4319
166.9375,71.4500
166.4375,71.4500
166.3466,71.4319
166.2696,71.3804
166.2181,71.3034
166.2000,71.2125
Z" /> 
<path style="fill:#D864FF; fill-opacity:0.4000; stroke:none;fill-rule:evenodd;"
d="M 168.0250,70.7375
168.0431,70.6466
168.0946,70.5696
168.1716,70.5181
168.2625,70.5000
168.7625,70.5000
168.8534,70.5181
168.9304,70.5696
168.9819,70.6466
169.0000,70.7375
169.0000,71.2125
168.9819,71.3034
168.9304,71.3804
168.8534,71.4319
168.7625,71.4500
168.2625,71.4500
168.1716,71.4319
168.0946,71.3804
168.0431,71.3034
168.0250,71.2125
Z" /> 
</g>
<g style="fill:#D864FF; fill-opacity:0.4000; stroke:none;">
<circle cx="172.4100" cy="86.9800" r="0.5500" /> 
<path style="fill:#D864FF; fill-opacity:0.4000; stroke:none;fill-rule:evenodd;"
d="M 189.7875,97.4750
189.7685,97.5707
189.7143,97.6518
189.6332,97.7060
189.5375,97.7250
188.8625,97.7250
188.7668,97.7060
188.6857,97.6518
188.6315,97.5707
188.6125,97.4750
188.6125,96.5250
188.6315,96.4293
188.6857,96.3482
188.7668,96.2940
188.8625,96.2750
189.5375,96.2750
189.6332,96.2940
189.7143,96.3482
189.7685,96.4293
189.7875,96.5250
Z" /> 
<path style="fill:#D864FF; fill-opacity:0.4000; stroke:none;fill-rule:evenodd;"
d="M 187.7125,97.4750
187.6935,97.5707
187.6393,97.6518
187.5582,97.7060
187.4625,97.7250
186.7875,97.7250
186.6918,97.7060
186.6107,97.6518
186.5565,97.5707
186.5375,97.4750
186.5375,96.5250
186.5565,96.4293
186.6107,96.3482
186.6918,96.2940
186.7875,96.2750
187.4625,96.2750
187.5582,96.2940
187.6393,96.3482
187.6935,96.4293
187.7125,96.5250
Z" /> 
<path style="fill:#D864FF; fill-opacity:0.4000; stroke:none;fill-rule:evenodd;"
d="M 167.3250,117.4750
167.4207,117.4940
167.5018,117.5482
167.5560,117.6293
167.5750,117.7250
167.5750,118.4000
167.5560,118.4957
167.5018,118.5768
167.4207,118.6310
167.3250,118.6500
166.3750,118.6500
166.2793,118.6310
166.1982,118.5768
166.1440,118.4957
166.1250,118.4000
166.1250,117.7250
166.1440,117.6293
166.1982,117.5482
166.2793,117.4940
166.3750,117.4750
Z" /> 
<path style="fill:#D864FF; fill-opacity:0.4000; stroke:none;fill-rule:evenodd;"
d="M 167.3250,119.5500
167.4207,119.5690
167.5018,119.6232
167.5560,119.7043
167.5750,119.8000
167.5750,120.4750
167.5560,120.5707
167.5018,120.6518
167.4207,120.7060
167.3250,120.7250
166.3750,120.7250
166.2793,120.7060
166.1982,120.6518
166.1440,120.5707
166.1250,120.4750
166.1250,119.8000
166.1440,119.7043
166.1982,119.6232
166.2793,119.5690
166.3750,119.5500
Z" /> 
<path style="fill:#D864FF; fill-opacity:0.4000; stroke:none;fill-rule:evenodd;"
d="M 177.4950,89.0500
177.4950,87.9000
178.1950,87.9000
178.1950,89.0500
Z" /> 
<path style="fill:#D864FF; fill-opacity:0.4000; stroke:none;fill-rule:evenodd;"
d="M 178.7650,89.0500
178.7650,87.9000
179.4650,87.9000
179.4650,89.0500
Z" /> 
<path style="fill:#D864FF; fill-opacity:0.4000; stroke:none;fill-rule:evenodd;"
d="M 180.0350,89.0500
180.0350,87.9000
180.7350,87.9000
180.7350,89.0500
Z" /> 
<path style="fill:#D864FF; fill-opacity:0.4000; stroke:none;fill-rule:evenodd;"
d="M 181.3050,89.0500
181.3050,87.9000
182.0050,87.9000
182.0050,89.0500
Z" /> 
<path style="fill:#D864FF; fill-opacity:0.4000; stroke:none;fill-rule:evenodd;"
d="M 181.8500,86.8500
177.6500,86.8500
177.6500,83.7500
181.8500,83.7500
Z" /> 
<path style="fill:#D864FF; fill-opacity:0.4000; stroke:none;fill-rule:evenodd;"
d="M 182.1000,83.7500
177.4000,83.7500
177.4000,82.2500
182.1000,82.2500
Z" /> 
<path style="fill:#D864FF; fill-opacity:0.4000; stroke:none;fill-rule:evenodd;"
d="M 173.4975,96.2450
173.5093,96.1857
173.5429,96.1354
173.5932,96.1018
173.6525,96.0900
174.0775,96.0900
174.1368,96.1018
174.1871,96.1354
174.2207,96.1857
174.2325,96.2450
174.2325,96.5550
174.2207,96.6143
174.1871,96.6646
174.1368,96.6982
174.0775,96.7100
173.6525,96.7100
173.5932,96.6982
173.5429,96.6646
173.5093,96.6143
173.4975,96.5550
Z" /> 
<path style="fill:#D864FF; fill-opacity:0.4000; stroke:none;fill-rule:evenodd;"
d="M 174.6325,96.2450
174.6443,96.1857
174.6779,96.1354
174.7282,96.1018
174.7875,96.0900
175.2125,96.0900
175.2718,96.1018
175.3221,96.1354
175.3557,96.1857
175.3675,96.2450
175.3675,96.5550
175.3557,96.6143
175.3221,96.6646
175.2718,96.6982
175.2125,96.7100
174.7875,96.7100
174.7282,96.6982
174.6779,96.6646
174.6443,96.6143
174.6325,96.5550
Z" /> 
<path style="fill:#D864FF; fill-opacity:0.4000; stroke:none;fill-rule:evenodd;"
d="M 182.2900,90.4325
182.3512,90.4447
182.4031,90.4794
182.4378,90.5313
182.4500,90.5925
182.4500,90.9875
182.4378,91.0487
182.4031,91.1006
182.3512,91.1353
182.2900,91.1475
181.9700,91.1475
181.9088,91.1353
181.8569,91.1006
181.8222,91.0487
181.8100,90.9875
181.8100,90.5925
181.8222,90.5313
181.8569,90.4794
181.9088,90.4447
181.9700,90.4325
Z" /> 
<path style="fill:#D864FF; fill-opacity:0.4000; stroke:none;fill-rule:evenodd;"
d="M 182.2900,91.6275
182.3512,91.6397
182.4031,91.6744
182.4378,91.7263
182.4500,91.7875
182.4500,92.1825
182.4378,92.2437
182.4031,92.2956
182.3512,92.3303
182.2900,92.3425
181.9700,92.3425
181.9088,92.3303
181.8569,92.2956
181.8222,92.2437
181.8100,92.1825
181.8100,91.7875
181.8222,91.7263
181.8569,91.6744
181.9088,91.6397
181.9700,91.6275
Z" /> 
</g>
<g style="fill:#D864FF; fill-opacity:0.4000; stroke:none;">
<circle cx="185.0200" cy="103.6600" r="0.5500" /> 
<path style="fill:#D864FF; fill-opacity:0.4000; stroke:none;fill-rule:evenodd;"
d="M 194.0750,111.0250
194.1707,111.0440
194.2518,111.0982
194.3060,111.1793
194.3250,111.2750
194.3250,111.9500
194.3060,112.0457
194.2518,112.1268
194.1707,112.1810
194.0750,112.2000
193.1250,112.2000
193.0293,112.1810
192.9482,112.1268
192.8940,112.0457
192.8750,111.9500
192.8750,111.2750
192.8940,111.1793
192.9482,111.0982
193.0293,111.0440
193.1250,111.0250
Z" /> 
<path style="fill:#D864FF; fill-opacity:0.4000; stroke:none;fill-rule:evenodd;"
d="M 194.0750,113.1000
194.1707,113.1190
194.2518,113.1732
194.3060,113.2543
194.3250,113.3500
194.3250,114.0250
194.3060,114.1207
194.2518,114.2018
194.1707,114.2560
194.0750,114.2750
193.1250,114.2750
193.0293,114.2560
192.9482,114.2018
192.8940,114.1207
192.8750,114.0250
192.8750,113.3500
192.8940,113.2543
192.9482,113.1732
193.0293,113.1190
193.1250,113.1000
Z" /> 
</g>
<g style="fill:#D864FF; fill-opacity:0.4000; stroke:none;">
<circle cx="202.0500" cy="109.8600" r="0.5500" /> 
<path style="fill:#D864FF; fill-opacity:0.4000; stroke:none;fill-rule:evenodd;"
d="M 170.8550,97.8325
170.9143,97.8443
170.9646,97.8779
170.9982,97.9282
171.0100,97.9875
171.0100,98.4125
170.9982,98.4718
170.9646,98.5221
170.9143,98.5557
170.8550,98.5675
170.5450,98.5675
170.4857,98.5557
170.4354,98.5221
170.4018,98.4718
170.3900,98.4125
170.3900,97.9875
170.4018,97.9282
170.4354,97.8779
170.4857,97.8443
170.5450,97.8325
Z" /> 
<path style="fill:#D864FF; fill-opacity:0.4000; stroke:none;fill-rule:evenodd;"
d="M 170.8550,98.9675
170.9143,98.9793
170.9646,99.0129
170.9982,99.0632
171.0100,99.1225
171.0100,99.5475
170.9982,99.6068
170.9646,99.6571
170.9143,99.6907
170.8550,99.7025
170.5450,99.7025
170.4857,99.6907
170.4354,99.6571
170.4018,99.6068
170.3900,99.5475
170.3900,99.1225
170.4018,99.0632
170.4354,99.0129
170.4857,98.9793
170.5450,98.9675
Z" /> 
<path style="fill:#D864FF; fill-opacity:0.4000; stroke:none;fill-rule:evenodd;"
d="M 171.9495,75.7760
171.9302,75.7722
171.9138,75.7612
171.9028,75.7448
171.8990,75.7255
171.8990,75.6245
171.9028,75.6052
171.9138,75.5888
171.9302,75.5778
171.9495,75.5740
172.0505,75.5740
172.0698,75.5778
172.0862,75.5888
172.0972,75.6052
172.1010,75.6245
172.1010,75.7255
172.0972,75.7448
172.0862,75.7612
172.0698,75.7722
172.0505,75.7760
Z" /> 
<path style="fill:#D864FF; fill-opacity:0.4000; stroke:none;fill-rule:evenodd;"
d="M 171.9495,75.1760
171.9302,75.1722
171.9138,75.1612
171.9028,75.1448
171.8990,75.1255
171.8990,75.0245
171.9028,75.0052
171.9138,74.9888
171.9302,74.9778
171.9495,74.9740
172.0505,74.9740
172.0698,74.9778
172.0862,74.9888
172.0972,75.0052
172.1010,75.0245
172.1010,75.1255
172.0972,75.1448
172.0862,75.1612
172.0698,75.1722
172.0505,75.1760
Z" /> 
<path style="fill:#D864FF; fill-opacity:0.4000; stroke:none;fill-rule:evenodd;"
d="M 163.5625,64.7675
163.5625,61.8125
166.5175,61.8125
166.5175,64.7675
Z" /> 
</g>
<g style="fill:#D864FF; fill-opacity:0.4000; stroke:none;">
<circle cx="180.5400" cy="63.2900" r="1.4775" /> 
<path style="fill:#D864FF; fill-opacity:0.4000; stroke:none;fill-rule:evenodd;"
d="M 167.5000,83.0500
167.5190,82.9543
167.5732,82.8732
167.6543,82.8190
167.7500,82.8000
168.4500,82.8000
168.5457,82.8190
168.6268,82.8732
168.6810,82.9543
168.7000,83.0500
168.7000,83.9500
168.6810,84.0457
168.6268,84.1268
168.5457,84.1810
168.4500,84.2000
167.7500,84.2000
167.6543,84.1810
167.5732,84.1268
167.5190,84.0457
167.5000,83.9500
Z" /> 
<path style="fill:#D864FF; fill-opacity:0.4000; stroke:none;fill-rule:evenodd;"
d="M 169.5000,83.0500
169.5190,82.9543
169.5732,82.8732
169.6543,82.8190
169.7500,82.8000
170.4500,82.8000
170.5457,82.8190
170.6268,82.8732
170.6810,82.9543
170.7000,83.0500
170.7000,83.9500
170.6810,84.0457
170.6268,84.1268
170.5457,84.1810
170.4500,84.2000
169.7500,84.2000
169.6543,84.1810
169.5732,84.1268
169.5190,84.0457
169.5000,83.9500
Z" /> 
</g>
<g style="fill:#D864FF; fill-opacity:0.4000; stroke:none;">
<circle cx="180.8100" cy="92.3900" r="0.8000" /> 
<path style="fill:#D864FF; fill-opacity:0.4000; stroke:none;fill-rule:evenodd;"
d="M 195.0500,88.0000
195.1457,88.0190
195.2268,88.0732
195.2810,88.1543
195.3000,88.2500
195.3000,88.9500
195.2810,89.0457
195.2268,89.1268
195.1457,89.1810
195.0500,89.2000
194.1500,89.2000
194.0543,89.1810
193.9732,89.1268
193.9190,89.0457
193.9000,88.9500
193.9000,88.2500
193.9190,88.1543
193.9732,88.0732
194.0543,88.0190
194.1500,88.0000
Z" /> 
<path style="fill:#D864FF; fill-opacity:0.4000; stroke:none;fill-rule:evenodd;"
d="M 195.0500,90.0000
195.1457,90.0190
195.2268,90.0732
195.2810,90.1543
195.3000,90.2500
195.3000,90.9500
195.2810,91.0457
195.2268,91.1268
195.1457,91.1810
195.0500,91.2000
194.1500,91.2000
194.0543,91.1810
193.9732,91.1268
193.9190,91.0457
193.9000,90.9500
193.9000,90.2500
193.9190,90.1543
193.9732,90.0732
194.0543,90.0190
194.1500,90.0000
Z" /> 
</g>
<g style="fill:#D864FF; fill-opacity:0.4000; stroke:none;">
<circle cx="174.2300" cy="81.0500" r="0.5500" /> 
<path style="fill:#D864FF; fill-opacity:0.4000; stroke:none;fill-rule:evenodd;"
d="M 191.9750,110.9625
192.0707,110.9815
192.1518,111.0357
192.2060,111.1168
192.2250,111.2125
192.2250,111.8875
192.2060,111.9832
192.1518,112.0643
192.0707,112.1185
191.9750,112.1375
191.0250,112.1375
190.9293,112.1185
190.8482,112.0643
190.7940,111.9832
190.7750,111.8875
190.7750,111.2125
190.7940,111.1168
190.8482,111.0357
190.9293,110.9815
191.0250,110.9625
Z" /> 
<path style="fill:#D864FF; fill-opacity:0.4000; stroke:none;fill-rule:evenodd;"
d="M 191.9750,113.0375
192.0707,113.0565
192.1518,113.1107
192.2060,113.1918
192.2250,113.2875
192.2250,113.9625
192.2060,114.0582
192.1518,114.1393
192.0707,114.1935
191.9750,114.2125
191.0250,114.2125
190.9293,114.1935
190.8482,114.1393
190.7940,114.0582
190.7750,113.9625
190.7750,113.2875
190.7940,113.1918
190.8482,113.1107
190.9293,113.0565
191.0250,113.0375
Z" /> 
<path style="fill:#D864FF; fill-opacity:0.4000; stroke:none;fill-rule:evenodd;"
d="M 207.5250,114.0875
207.4293,114.0685
207.3482,114.0143
207.2940,113.9332
207.2750,113.8375
207.2750,113.1625
207.2940,113.0668
207.3482,112.9857
207.4293,112.9315
207.5250,112.9125
208.4750,112.9125
208.5707,112.9315
208.6518,112.9857
208.7060,113.0668
208.7250,113.1625
208.7250,113.8375
208.7060,113.9332
208.6518,114.0143
208.5707,114.0685
208.4750,114.0875
Z" /> 
<path style="fill:#D864FF; fill-opacity:0.4000; stroke:none;fill-rule:evenodd;"
d="M 207.5250,112.0125
207.4293,111.9935
207.3482,111.9393
207.2940,111.8582
207.2750,111.7625
207.2750,111.0875
207.2940,110.9918
207.3482,110.9107
207.4293,110.8565
207.5250,110.8375
208.4750,110.8375
208.5707,110.8565
208.6518,110.9107
208.7060,110.9918
208.7250,111.0875
208.7250,111.7625
208.7060,111.8582
208.6518,111.9393
208.5707,111.9935
208.4750,112.0125
Z" /> 
</g>
<g style="fill:#D864FF; fill-opacity:0.4000; stroke:none;">
<circle cx="172.1900" cy="98.2400" r="0.5500" /> 
<path style="fill:#D864FF; fill-opacity:0.4000; stroke:none;fill-rule:evenodd;"
d="M 203.0375,104.3000
203.0565,104.2043
203.1107,104.1232
203.1918,104.0690
203.2875,104.0500
204.1125,104.0500
204.2082,104.0690
204.2893,104.1232
204.3435,104.2043
204.3625,104.3000
204.3625,106.5000
204.3435,106.5957
204.2893,106.6768
204.2082,106.7310
204.1125,106.7500
203.2875,106.7500
203.1918,106.7310
203.1107,106.6768
203.0565,106.5957
203.0375,106.5000
Z" /> 
<path style="fill:#D864FF; fill-opacity:0.4000; stroke:none;fill-rule:evenodd;"
d="M 206.1625,104.3000
206.1815,104.2043
206.2357,104.1232
206.3168,104.0690
206.4125,104.0500
207.2375,104.0500
207.3332,104.0690
207.4143,104.1232
207.4685,104.2043
207.4875,104.3000
207.4875,106.5000
207.4685,106.5957
207.4143,106.6768
207.3332,106.7310
207.2375,106.7500
206.4125,106.7500
206.3168,106.7310
206.2357,106.6768
206.1815,106.5957
206.1625,106.5000
Z" /> 
<path style="fill:#D864FF; fill-opacity:0.4000; stroke:none;fill-rule:evenodd;"
d="M 211.4500,92.6875
211.4319,92.7784
211.3804,92.8554
211.3034,92.9069
211.2125,92.9250
210.7125,92.9250
210.6216,92.9069
210.5446,92.8554
210.4931,92.7784
210.4750,92.6875
210.4750,92.2125
210.4931,92.1216
210.5446,92.0446
210.6216,91.9931
210.7125,91.9750
211.2125,91.9750
211.3034,91.9931
211.3804,92.0446
211.4319,92.1216
211.4500,92.2125
Z" /> 
<path style="fill:#D864FF; fill-opacity:0.4000; stroke:none;fill-rule:evenodd;"
d="M 209.6250,92.6875
209.6069,92.7784
209.5554,92.8554
209.4784,92.9069
209.3875,92.9250
208.8875,92.9250
208.7966,92.9069
208.7196,92.8554
208.6681,92.7784
208.6500,92.6875
208.6500,92.2125
208.6681,92.1216
208.7196,92.0446
208.7966,91.9931
208.8875,91.9750
209.3875,91.9750
209.4784,91.9931
209.5554,92.0446
209.6069,92.1216
209.6250,92.2125
Z" /> 
<path style="fill:#D864FF; fill-opacity:0.4000; stroke:none;fill-rule:evenodd;"
d="M 170.7000,113.8125
170.7957,113.8315
170.8768,113.8857
170.9310,113.9668
170.9500,114.0625
170.9500,114.8875
170.9310,114.9832
170.8768,115.0643
170.7957,115.1185
170.7000,115.1375
168.5000,115.1375
168.4043,115.1185
168.3232,115.0643
168.2690,114.9832
168.2500,114.8875
168.2500,114.0625
168.2690,113.9668
168.3232,113.8857
168.4043,113.8315
168.5000,113.8125
Z" /> 
<path style="fill:#D864FF; fill-opacity:0.4000; stroke:none;fill-rule:evenodd;"
d="M 170.7000,116.9375
170.7957,116.9565
170.8768,117.0107
170.9310,117.0918
170.9500,117.1875
170.9500,118.0125
170.9310,118.1082
170.8768,118.1893
170.7957,118.2435
170.7000,118.2625
168.5000,118.2625
168.4043,118.2435
168.3232,118.1893
168.2690,118.1082
168.2500,118.0125
168.2500,117.1875
168.2690,117.0918
168.3232,117.0107
168.4043,116.9565
168.5000,116.9375
Z" /> 
<path style="fill:#D864FF; fill-opacity:0.4000; stroke:none;fill-rule:evenodd;"
d="M 174.2000,113.8125
174.2957,113.8315
174.3768,113.8857
174.4310,113.9668
174.4500,114.0625
174.4500,114.8875
174.4310,114.9832
174.3768,115.0643
174.2957,115.1185
174.2000,115.1375
172.0000,115.1375
171.9043,115.1185
171.8232,115.0643
171.7690,114.9832
171.7500,114.8875
171.7500,114.0625
171.7690,113.9668
171.8232,113.8857
171.9043,113.8315
172.0000,113.8125
Z" /> 
<path style="fill:#D864FF; fill-opacity:0.4000; stroke:none;fill-rule:evenodd;"
d="M 174.2000,116.9375
174.2957,116.9565
174.3768,117.0107
174.4310,117.0918
174.4500,117.1875
174.4500,118.0125
174.4310,118.1082
174.3768,118.1893
174.2957,118.2435
174.2000,118.2625
172.0000,118.2625
171.9043,118.2435
171.8232,118.1893
171.7690,118.1082
171.7500,118.0125
171.7500,117.1875
171.7690,117.0918
171.8232,117.0107
171.9043,116.9565
172.0000,116.9375
Z" /> 
<path style="fill:#D864FF; fill-opacity:0.4000; stroke:none;fill-rule:evenodd;"
d="M 181.7800,89.9200
181.7693,89.9736
181.7390,90.0190
181.6936,90.0493
181.6400,90.0600
181.3600,90.0600
181.3064,90.0493
181.2610,90.0190
181.2307,89.9736
181.2200,89.9200
181.2200,89.5800
181.2307,89.5264
181.2610,89.4810
181.3064,89.4507
181.3600,89.4400
181.6400,89.4400
181.6936,89.4507
181.7390,89.4810
181.7693,89.5264
181.7800,89.5800
Z" /> 
<path style="fill:#D864FF; fill-opacity:0.4000; stroke:none;fill-rule:evenodd;"
d="M 180.8200,89.9200
180.8093,89.9736
180.7790,90.0190
180.7336,90.0493
180.6800,90.0600
180.4000,90.0600
180.3464,90.0493
180.3010,90.0190
180.2707,89.9736
180.2600,89.9200
180.2600,89.5800
180.2707,89.5264
180.3010,89.4810
180.3464,89.4507
180.4000,89.4400
180.6800,89.4400
180.7336,89.4507
180.7790,89.4810
180.8093,89.5264
180.8200,89.5800
Z" /> 
<path style="fill:#D864FF; fill-opacity:0.4000; stroke:none;fill-rule:evenodd;"
d="M 175.4375,80.5250
175.4565,80.4293
175.5107,80.3482
175.5918,80.2940
175.6875,80.2750
176.3625,80.2750
176.4582,80.2940
176.5393,80.3482
176.5935,80.4293
176.6125,80.5250
176.6125,81.4750
176.5935,81.5707
176.5393,81.6518
176.4582,81.7060
176.3625,81.7250
175.6875,81.7250
175.5918,81.7060
175.5107,81.6518
175.4565,81.5707
175.4375,81.4750
Z" /> 
<path style="fill:#D864FF; fill-opacity:0.4000; stroke:none;fill-rule:evenodd;"
d="M 177.5125,80.5250
177.5315,80.4293
177.5857,80.3482
177.6668,80.2940
177.7625,80.2750
178.4375,80.2750
178.5332,80.2940
178.6143,80.3482
178.6685,80.4293
178.6875,80.5250
178.6875,81.4750
178.6685,81.5707
178.6143,81.6518
178.5332,81.7060
178.4375,81.7250
177.7625,81.7250
177.6668,81.7060
177.5857,81.6518
177.5315,81.5707
177.5125,81.4750
Z" /> 
<path style="fill:#D864FF; fill-opacity:0.4000; stroke:none;fill-rule:evenodd;"
d="M 165.0750,93.6050
165.1707,93.6240
165.2518,93.6782
165.3060,93.7593
165.3250,93.8550
165.3250,94.5300
165.3060,94.6257
165.2518,94.7068
165.1707,94.7610
165.0750,94.7800
164.1250,94.7800
164.0293,94.7610
163.9482,94.7068
163.8940,94.6257
163.8750,94.5300
163.8750,93.8550
163.8940,93.7593
163.9482,93.6782
164.0293,93.6240
164.1250,93.6050
Z" /> 
<path style="fill:#D864FF; fill-opacity:0.4000; stroke:none;fill-rule:evenodd;"
d="M 165.0750,95.6800
165.1707,95.6990
165.2518,95.7532
165.3060,95.8343
165.3250,95.9300
165.3250,96.6050
165.3060,96.7007
165.2518,96.7818
165.1707,96.8360
165.0750,96.8550
164.1250,96.8550
164.0293,96.8360
163.9482,96.7818
163.8940,96.7007
163.8750,96.6050
163.8750,95.9300
163.8940,95.8343
163.9482,95.7532
164.0293,95.6990
164.1250,95.6800
Z" /> 
<path style="fill:#D864FF; fill-opacity:0.4000; stroke:none;fill-rule:evenodd;"
d="M 163.0500,93.7750
163.1457,93.7940
163.2268,93.8482
163.2810,93.9293
163.3000,94.0250
163.3000,94.8500
163.2810,94.9457
163.2268,95.0268
163.1457,95.0810
163.0500,95.1000
161.7500,95.1000
161.6543,95.0810
161.5732,95.0268
161.5190,94.9457
161.5000,94.8500
161.5000,94.0250
161.5190,93.9293
161.5732,93.8482
161.6543,93.7940
161.7500,93.7750
Z" /> 
<path style="fill:#D864FF; fill-opacity:0.4000; stroke:none;fill-rule:evenodd;"
d="M 163.0500,96.9000
163.1457,96.9190
163.2268,96.9732
163.2810,97.0543
163.3000,97.1500
163.3000,97.9750
163.2810,98.0707
163.2268,98.1518
163.1457,98.2060
163.0500,98.2250
161.7500,98.2250
161.6543,98.2060
161.5732,98.1518
161.5190,98.0707
161.5000,97.9750
161.5000,97.1500
161.5190,97.0543
161.5732,96.9732
161.6543,96.9190
161.7500,96.9000
Z" /> 
</g>
<g style="fill:#D864FF; fill-opacity:0.4000; stroke:none;">
<circle cx="158.7300" cy="73.6271" r="0.4000" /> 
</g>
<g style="fill:#D864FF; fill-opacity:0.4000; stroke:none;">
<circle cx="159.4329" cy="71.9300" r="0.4000" /> 
</g>
<g style="fill:#D864FF; fill-opacity:0.4000; stroke:none;">
<circle cx="159.4329" cy="75.3241" r="0.4000" /> 
</g>
<g style="fill:#D864FF; fill-opacity:0.4000; stroke:none;">
<circle cx="161.1300" cy="71.2271" r="0.4000" /> 
</g>
<g style="fill:#D864FF; fill-opacity:0.4000; stroke:none;">
<circle cx="161.1300" cy="73.6271" r="3.2000" /> 
</g>
<g style="fill:#D864FF; fill-opacity:0.4000; stroke:none;">
<circle cx="161.1300" cy="76.0271" r="0.4000" /> 
</g>
<g style="fill:#D864FF; fill-opacity:0.4000; stroke:none;">
<circle cx="162.8271" cy="71.9300" r="0.4000" /> 
</g>
<g style="fill:#D864FF; fill-opacity:0.4000; stroke:none;">
<circle cx="162.8271" cy="75.3241" r="0.4000" /> 
</g>
<g style="fill:#D864FF; fill-opacity:0.4000; stroke:none;">
<circle cx="163.5300" cy="73.6271" r="0.4000" /> 
<path style="fill:#D864FF; fill-opacity:0.4000; stroke:none;fill-rule:evenodd;"
d="M 176.7875,76.2250
176.7685,76.3207
176.7143,76.4018
176.6332,76.4560
176.5375,76.4750
175.8625,76.4750
175.7668,76.4560
175.6857,76.4018
175.6315,76.3207
175.6125,76.2250
175.6125,75.2750
175.6315,75.1793
175.6857,75.0982
175.7668,75.0440
175.8625,75.0250
176.5375,75.0250
176.6332,75.0440
176.7143,75.0982
176.7685,75.1793
176.7875,75.2750
Z" /> 
<path style="fill:#D864FF; fill-opacity:0.4000; stroke:none;fill-rule:evenodd;"
d="M 174.7125,76.2250
174.6935,76.3207
174.6393,76.4018
174.5582,76.4560
174.4625,76.4750
173.7875,76.4750
173.6918,76.4560
173.6107,76.4018
173.5565,76.3207
173.5375,76.2250
173.5375,75.2750
173.5565,75.1793
173.6107,75.0982
173.6918,75.0440
173.7875,75.0250
174.4625,75.0250
174.5582,75.0440
174.6393,75.0982
174.6935,75.1793
174.7125,75.2750
Z" /> 
</g>
<g style="fill:#D864FF; fill-opacity:0.4000; stroke:none;">
<circle cx="180.2700" cy="90.9300" r="0.5500" /> 
<path style="fill:#D864FF; fill-opacity:0.4000; stroke:none;fill-rule:evenodd;"
d="M 205.4750,75.0625
205.3793,75.0435
205.2982,74.9893
205.2440,74.9082
205.2250,74.8125
205.2250,74.1375
205.2440,74.0418
205.2982,73.9607
205.3793,73.9065
205.4750,73.8875
206.4250,73.8875
206.5207,73.9065
206.6018,73.9607
206.6560,74.0418
206.6750,74.1375
206.6750,74.8125
206.6560,74.9082
206.6018,74.9893
206.5207,75.0435
206.4250,75.0625
Z" /> 
<path style="fill:#D864FF; fill-opacity:0.4000; stroke:none;fill-rule:evenodd;"
d="M 205.4750,72.9875
205.3793,72.9685
205.2982,72.9143
205.2440,72.8332
205.2250,72.7375
205.2250,72.0625
205.2440,71.9668
205.2982,71.8857
205.3793,71.8315
205.4750,71.8125
206.4250,71.8125
206.5207,71.8315
206.6018,71.8857
206.6560,71.9668
206.6750,72.0625
206.6750,72.7375
206.6560,72.8332
206.6018,72.9143
206.5207,72.9685
206.4250,72.9875
Z" /> 
<path style="fill:#D864FF; fill-opacity:0.4000; stroke:none;fill-rule:evenodd;"
d="M 164.6175,86.6400
164.6297,86.5788
164.6644,86.5269
164.7163,86.4922
164.7775,86.4800
165.1725,86.4800
165.2337,86.4922
165.2856,86.5269
165.3203,86.5788
165.3325,86.6400
165.3325,86.9600
165.3203,87.0212
165.2856,87.0731
165.2337,87.1078
165.1725,87.1200
164.7775,87.1200
164.7163,87.1078
164.6644,87.0731
164.6297,87.0212
164.6175,86.9600
Z" /> 
<path style="fill:#D864FF; fill-opacity:0.4000; stroke:none;fill-rule:evenodd;"
d="M 165.8125,86.6400
165.8247,86.5788
165.8594,86.5269
165.9113,86.4922
165.9725,86.4800
166.3675,86.4800
166.4287,86.4922
166.4806,86.5269
166.5153,86.5788
166.5275,86.6400
166.5275,86.9600
166.5153,87.0212
166.4806,87.0731
166.4287,87.1078
166.3675,87.1200
165.9725,87.1200
165.9113,87.1078
165.8594,87.0731
165.8247,87.0212
165.8125,86.9600
Z" /> 
<path style="fill:#D864FF; fill-opacity:0.4000; stroke:none;fill-rule:evenodd;"
d="M 183.6500,116.9000
183.6500,119.1000
181.9500,119.1000
181.9500,116.9000
Z" /> 
<path style="fill:#D864FF; fill-opacity:0.4000; stroke:none;fill-rule:evenodd;"
d="M 178.3500,116.9000
178.3500,119.1000
176.6500,119.1000
176.6500,116.9000
Z" /> 
</g>
<g style="fill:#D864FF; fill-opacity:0.4000; stroke:none;">
<circle cx="189.7600" cy="75.7400" r="0.5500" /> 
</g>
<g style="fill:#D864FF; fill-opacity:0.4000; stroke:none;">
<circle cx="166.9000" cy="90.9900" r="0.5500" /> 
<path style="fill:#D864FF; fill-opacity:0.4000; stroke:none;fill-rule:evenodd;"
d="M 183.7500,76.9000
183.6543,76.8810
183.5732,76.8268
183.5190,76.7457
183.5000,76.6500
183.5000,75.9500
183.5190,75.8543
183.5732,75.7732
183.6543,75.7190
183.7500,75.7000
184.6500,75.7000
184.7457,75.7190
184.8268,75.7732
184.8810,75.8543
184.9000,75.9500
184.9000,76.6500
184.8810,76.7457
184.8268,76.8268
184.7457,76.8810
184.6500,76.9000
Z" /> 
<path style="fill:#D864FF; fill-opacity:0.4000; stroke:none;fill-rule:evenodd;"
d="M 183.7500,74.9000
183.6543,74.8810
183.5732,74.8268
183.5190,74.7457
183.5000,74.6500
183.5000,73.9500
183.5190,73.8543
183.5732,73.7732
183.6543,73.7190
183.7500,73.7000
184.6500,73.7000
184.7457,73.7190
184.8268,73.7732
184.8810,73.8543
184.9000,73.9500
184.9000,74.6500
184.8810,74.7457
184.8268,74.8268
184.7457,74.8810
184.6500,74.9000
Z" /> 
</g>
<g style="fill:#D864FF; fill-opacity:0.4000; stroke:none;">
<circle cx="172.3000" cy="71.7100" r="0.5500" /> 
<path style="fill:#D864FF; fill-opacity:0.4000; stroke:none;fill-rule:evenodd;"
d="M 173.4000,84.5500
173.4190,84.4543
173.4732,84.3732
173.5543,84.3190
173.6500,84.3000
174.3500,84.3000
174.4457,84.3190
174.5268,84.3732
174.5810,84.4543
174.6000,84.5500
174.6000,85.4500
174.5810,85.5457
174.5268,85.6268
174.4457,85.6810
174.3500,85.7000
173.6500,85.7000
173.5543,85.6810
173.4732,85.6268
173.4190,85.5457
173.4000,85.4500
Z" /> 
<path style="fill:#D864FF; fill-opacity:0.4000; stroke:none;fill-rule:evenodd;"
d="M 175.4000,84.5500
175.4190,84.4543
175.4732,84.3732
175.5543,84.3190
175.6500,84.3000
176.3500,84.3000
176.4457,84.3190
176.5268,84.3732
176.5810,84.4543
176.6000,84.5500
176.6000,85.4500
176.5810,85.5457
176.5268,85.6268
176.4457,85.6810
176.3500,85.7000
175.6500,85.7000
175.5543,85.6810
175.4732,85.6268
175.4190,85.5457
175.4000,85.4500
Z" /> 
<path style="fill:#D864FF; fill-opacity:0.4000; stroke:none;fill-rule:evenodd;"
d="M 205.3250,114.1250
205.2293,114.1060
205.1482,114.0518
205.0940,113.9707
205.0750,113.8750
205.0750,113.2000
205.0940,113.1043
205.1482,113.0232
205.2293,112.9690
205.3250,112.9500
206.2750,112.9500
206.3707,112.9690
206.4518,113.0232
206.5060,113.1043
206.5250,113.2000
206.5250,113.8750
206.5060,113.9707
206.4518,114.0518
206.3707,114.1060
206.2750,114.1250
Z" /> 
<path style="fill:#D864FF; fill-opacity:0.4000; stroke:none;fill-rule:evenodd;"
d="M 205.3250,112.0500
205.2293,112.0310
205.1482,111.9768
205.0940,111.8957
205.0750,111.8000
205.0750,111.1250
205.0940,111.0293
205.1482,110.9482
205.2293,110.8940
205.3250,110.8750
206.2750,110.8750
206.3707,110.8940
206.4518,110.9482
206.5060,111.0293
206.5250,111.1250
206.5250,111.8000
206.5060,111.8957
206.4518,111.9768
206.3707,112.0310
206.2750,112.0500
Z" /> 
<path style="fill:#D864FF; fill-opacity:0.4000; stroke:none;fill-rule:evenodd;"
d="M 178.0000,108.2500
178.0190,108.1543
178.0732,108.0732
178.1543,108.0190
178.2500,108.0000
178.9500,108.0000
179.0457,108.0190
179.1268,108.0732
179.1810,108.1543
179.2000,108.2500
179.2000,109.1500
179.1810,109.2457
179.1268,109.3268
179.0457,109.3810
178.9500,109.4000
178.2500,109.4000
178.1543,109.3810
178.0732,109.3268
178.0190,109.2457
178.0000,109.1500
Z" /> 
<path style="fill:#D864FF; fill-opacity:0.4000; stroke:none;fill-rule:evenodd;"
d="M 180.0000,108.2500
180.0190,108.1543
180.0732,108.0732
180.1543,108.0190
180.2500,108.0000
180.9500,108.0000
181.0457,108.0190
181.1268,108.0732
181.1810,108.1543
181.2000,108.2500
181.2000,109.1500
181.1810,109.2457
181.1268,109.3268
181.0457,109.3810
180.9500,109.4000
180.2500,109.4000
180.1543,109.3810
180.0732,109.3268
180.0190,109.2457
180.0000,109.1500
Z" /> 
<path style="fill:#D864FF; fill-opacity:0.4000; stroke:none;fill-rule:evenodd;"
d="M 167.4900,77.5200
167.5090,77.4243
167.5632,77.3432
167.6443,77.2890
167.7400,77.2700
168.4400,77.2700
168.5357,77.2890
168.6168,77.3432
168.6710,77.4243
168.6900,77.5200
168.6900,78.4200
168.6710,78.5157
168.6168,78.5968
168.5357,78.6510
168.4400,78.6700
167.7400,78.6700
167.6443,78.6510
167.5632,78.5968
167.5090,78.5157
167.4900,78.4200
Z" /> 
<path style="fill:#D864FF; fill-opacity:0.4000; stroke:none;fill-rule:evenodd;"
d="M 169.4900,77.5200
169.5090,77.4243
169.5632,77.3432
169.6443,77.2890
169.7400,77.2700
170.4400,77.2700
170.5357,77.2890
170.6168,77.3432
170.6710,77.4243
170.6900,77.5200
170.6900,78.4200
170.6710,78.5157
170.6168,78.5968
170.5357,78.6510
170.4400,78.6700
169.7400,78.6700
169.6443,78.6510
169.5632,78.5968
169.5090,78.5157
169.4900,78.4200
Z" /> 
<path style="fill:#D864FF; fill-opacity:0.4000; stroke:none;fill-rule:evenodd;"
d="M 208.0375,71.0625
208.0194,71.1534
207.9679,71.2304
207.8909,71.2819
207.8000,71.3000
207.3000,71.3000
207.2091,71.2819
207.1321,71.2304
207.0806,71.1534
207.0625,71.0625
207.0625,70.5875
207.0806,70.4966
207.1321,70.4196
207.2091,70.3681
207.3000,70.3500
207.8000,70.3500
207.8909,70.3681
207.9679,70.4196
208.0194,70.4966
208.0375,70.5875
Z" /> 
<path style="fill:#D864FF; fill-opacity:0.4000; stroke:none;fill-rule:evenodd;"
d="M 206.2125,71.0625
206.1944,71.1534
206.1429,71.2304
206.0659,71.2819
205.9750,71.3000
205.4750,71.3000
205.3841,71.2819
205.3071,71.2304
205.2556,71.1534
205.2375,71.0625
205.2375,70.5875
205.2556,70.4966
205.3071,70.4196
205.3841,70.3681
205.4750,70.3500
205.9750,70.3500
206.0659,70.3681
206.1429,70.4196
206.1944,70.4966
206.2125,70.5875
Z" /> 
<path style="fill:#D864FF; fill-opacity:0.4000; stroke:none;fill-rule:evenodd;"
d="M 192.3000,77.5000
192.3190,77.4043
192.3732,77.3232
192.4543,77.2690
192.5500,77.2500
196.4500,77.2500
196.5457,77.2690
196.6268,77.3232
196.6810,77.4043
196.7000,77.5000
196.7000,79.5000
196.6810,79.5957
196.6268,79.6768
196.5457,79.7310
196.4500,79.7500
192.5500,79.7500
192.4543,79.7310
192.3732,79.6768
192.3190,79.5957
192.3000,79.5000
Z" /> 
<path style="fill:#D864FF; fill-opacity:0.4000; stroke:none;fill-rule:evenodd;"
d="M 200.7000,77.5000
200.7190,77.4043
200.7732,77.3232
200.8543,77.2690
200.9500,77.2500
204.8500,77.2500
204.9457,77.2690
205.0268,77.3232
205.0810,77.4043
205.1000,77.5000
205.1000,79.5000
205.0810,79.5957
205.0268,79.6768
204.9457,79.7310
204.8500,79.7500
200.9500,79.7500
200.8543,79.7310
200.7732,79.6768
200.7190,79.5957
200.7000,79.5000
Z" /> 
<path style="fill:#D864FF; fill-opacity:0.4000; stroke:none;fill-rule:evenodd;"
d="M 170.5750,101.4875
170.5931,101.3966
170.6446,101.3196
170.7216,101.2681
170.8125,101.2500
171.3125,101.2500
171.4034,101.2681
171.4804,101.3196
171.5319,101.3966
171.5500,101.4875
171.5500,101.9625
171.5319,102.0534
171.4804,102.1304
171.4034,102.1819
171.3125,102.2000
170.8125,102.2000
170.7216,102.1819
170.6446,102.1304
170.5931,102.0534
170.5750,101.9625
Z" /> 
<path style="fill:#D864FF; fill-opacity:0.4000; stroke:none;fill-rule:evenodd;"
d="M 172.4000,101.4875
172.4181,101.3966
172.4696,101.3196
172.5466,101.2681
172.6375,101.2500
173.1375,101.2500
173.2284,101.2681
173.3054,101.3196
173.3569,101.3966
173.3750,101.4875
173.3750,101.9625
173.3569,102.0534
173.3054,102.1304
173.2284,102.1819
173.1375,102.2000
172.6375,102.2000
172.5466,102.1819
172.4696,102.1304
172.4181,102.0534
172.4000,101.9625
Z" /> 
<path style="fill:#D864FF; fill-opacity:0.4000; stroke:none;fill-rule:evenodd;"
d="M 202.7750,110.9125
202.8707,110.9315
202.9518,110.9857
203.0060,111.0668
203.0250,111.1625
203.0250,111.8375
203.0060,111.9332
202.9518,112.0143
202.8707,112.0685
202.7750,112.0875
201.8250,112.0875
201.7293,112.0685
201.6482,112.0143
201.5940,111.9332
201.5750,111.8375
201.5750,111.1625
201.5940,111.0668
201.6482,110.9857
201.7293,110.9315
201.8250,110.9125
Z" /> 
<path style="fill:#D864FF; fill-opacity:0.4000; stroke:none;fill-rule:evenodd;"
d="M 202.7750,112.9875
202.8707,113.0065
202.9518,113.0607
203.0060,113.1418
203.0250,113.2375
203.0250,113.9125
203.0060,114.0082
202.9518,114.0893
202.8707,114.1435
202.7750,114.1625
201.8250,114.1625
201.7293,114.1435
201.6482,114.0893
201.5940,114.0082
201.5750,113.9125
201.5750,113.2375
201.5940,113.1418
201.6482,113.0607
201.7293,113.0065
201.8250,112.9875
Z" /> 
</g>
<g style="fill:#D864FF; fill-opacity:0.4000; stroke:none;">
<circle cx="177.2400" cy="122.3000" r="0.5500" /> 
<path style="fill:#D864FF; fill-opacity:0.4000; stroke:none;fill-rule:evenodd;"
d="M 189.6625,79.3625
189.5716,79.3444
189.4946,79.2929
189.4431,79.2159
189.4250,79.1250
189.4250,78.5250
189.4431,78.4341
189.4946,78.3571
189.5716,78.3056
189.6625,78.2875
190.1375,78.2875
190.2284,78.3056
190.3054,78.3571
190.3569,78.4341
190.3750,78.5250
190.3750,79.1250
190.3569,79.2159
190.3054,79.2929
190.2284,79.3444
190.1375,79.3625
Z" /> 
<path style="fill:#D864FF; fill-opacity:0.4000; stroke:none;fill-rule:evenodd;"
d="M 189.6625,77.6375
189.5716,77.6194
189.4946,77.5679
189.4431,77.4909
189.4250,77.4000
189.4250,76.8000
189.4431,76.7091
189.4946,76.6321
189.5716,76.5806
189.6625,76.5625
190.1375,76.5625
190.2284,76.5806
190.3054,76.6321
190.3569,76.7091
190.3750,76.8000
190.3750,77.4000
190.3569,77.4909
190.3054,77.5679
190.2284,77.6194
190.1375,77.6375
Z" /> 
<path style="fill:#D864FF; fill-opacity:0.4000; stroke:none;fill-rule:evenodd;"
d="M 178.0000,109.9375
178.0957,109.9565
178.1768,110.0107
178.2310,110.0918
178.2500,110.1875
178.2500,111.0125
178.2310,111.1082
178.1768,111.1893
178.0957,111.2435
178.0000,111.2625
175.8000,111.2625
175.7043,111.2435
175.6232,111.1893
175.5690,111.1082
175.5500,111.0125
175.5500,110.1875
175.5690,110.0918
175.6232,110.0107
175.7043,109.9565
175.8000,109.9375
Z" /> 
<path style="fill:#D864FF; fill-opacity:0.4000; stroke:none;fill-rule:evenodd;"
d="M 178.0000,113.0625
178.0957,113.0815
178.1768,113.1357
178.2310,113.2168
178.2500,113.3125
178.2500,114.1375
178.2310,114.2332
178.1768,114.3143
178.0957,114.3685
178.0000,114.3875
175.8000,114.3875
175.7043,114.3685
175.6232,114.3143
175.5690,114.2332
175.5500,114.1375
175.5500,113.3125
175.5690,113.2168
175.6232,113.1357
175.7043,113.0815
175.8000,113.0625
Z" /> 
</g>
<g style="fill:#D864FF; fill-opacity:0.4000; stroke:none;">
<circle cx="176.4300" cy="108.6000" r="0.5500" /> 
<path style="fill:#D864FF; fill-opacity:0.4000; stroke:none;fill-rule:evenodd;"
d="M 176.9625,79.5000
176.9435,79.5957
176.8893,79.6768
176.8082,79.7310
176.7125,79.7500
175.8875,79.7500
175.7918,79.7310
175.7107,79.6768
175.6565,79.5957
175.6375,79.5000
175.6375,77.3000
175.6565,77.2043
175.7107,77.1232
175.7918,77.0690
175.8875,77.0500
176.7125,77.0500
176.8082,77.0690
176.8893,77.1232
176.9435,77.2043
176.9625,77.3000
Z" /> 
<path style="fill:#D864FF; fill-opacity:0.4000; stroke:none;fill-rule:evenodd;"
d="M 173.8375,79.5000
173.8185,79.5957
173.7643,79.6768
173.6832,79.7310
173.5875,79.7500
172.7625,79.7500
172.6668,79.7310
172.5857,79.6768
172.5315,79.5957
172.5125,79.5000
172.5125,77.3000
172.5315,77.2043
172.5857,77.1232
172.6668,77.0690
172.7625,77.0500
173.5875,77.0500
173.6832,77.0690
173.7643,77.1232
173.8185,77.2043
173.8375,77.3000
Z" /> 
</g>
<g style="fill:#D864FF; fill-opacity:0.4000; stroke:none;">
<circle cx="182.2300" cy="74.0300" r="0.5500" /> 
</g>
<g style="fill:#D864FF; fill-opacity:0.4000; stroke:none;">
<circle cx="184.1200" cy="115.4700" r="0.5500" /> 
</g>
<g style="fill:#D864FF; fill-opacity:0.4000; stroke:none;">
<circle cx="190.5300" cy="82.7900" r="0.5500" /> 
<path style="fill:#D864FF; fill-opacity:0.4000; stroke:none;fill-rule:evenodd;"
d="M 181.1000,81.5375
181.0043,81.5185
180.9232,81.4643
180.8690,81.3832
180.8500,81.2875
180.8500,80.4625
180.8690,80.3668
180.9232,80.2857
181.0043,80.2315
181.1000,80.2125
182.4000,80.2125
182.4957,80.2315
182.5768,80.2857
182.6310,80.3668
182.6500,80.4625
182.6500,81.2875
182.6310,81.3832
182.5768,81.4643
182.4957,81.5185
182.4000,81.5375
Z" /> 
<path style="fill:#D864FF; fill-opacity:0.4000; stroke:none;fill-rule:evenodd;"
d="M 181.1000,78.4125
181.0043,78.3935
180.9232,78.3393
180.8690,78.2582
180.8500,78.1625
180.8500,77.3375
180.8690,77.2418
180.9232,77.1607
181.0043,77.1065
181.1000,77.0875
182.4000,77.0875
182.4957,77.1065
182.5768,77.1607
182.6310,77.2418
182.6500,77.3375
182.6500,78.1625
182.6310,78.2582
182.5768,78.3393
182.4957,78.3935
182.4000,78.4125
Z" /> 
<path style="fill:#D864FF; fill-opacity:0.4000; stroke:none;fill-rule:evenodd;"
d="M 183.3000,103.3900
183.3000,105.5900
181.6000,105.5900
181.6000,103.3900
Z" /> 
<path style="fill:#D864FF; fill-opacity:0.4000; stroke:none;fill-rule:evenodd;"
d="M 178.0000,103.3900
178.0000,105.5900
176.3000,105.5900
176.3000,103.3900
Z" /> 
<path style="fill:#D864FF; fill-opacity:0.4000; stroke:none;fill-rule:evenodd;"
d="M 203.0375,107.8000
203.0565,107.7043
203.1107,107.6232
203.1918,107.5690
203.2875,107.5500
204.1125,107.5500
204.2082,107.5690
204.2893,107.6232
204.3435,107.7043
204.3625,107.8000
204.3625,110.0000
204.3435,110.0957
204.2893,110.1768
204.2082,110.2310
204.1125,110.2500
203.2875,110.2500
203.1918,110.2310
203.1107,110.1768
203.0565,110.0957
203.0375,110.0000
Z" /> 
<path style="fill:#D864FF; fill-opacity:0.4000; stroke:none;fill-rule:evenodd;"
d="M 206.1625,107.8000
206.1815,107.7043
206.2357,107.6232
206.3168,107.5690
206.4125,107.5500
207.2375,107.5500
207.3332,107.5690
207.4143,107.6232
207.4685,107.7043
207.4875,107.8000
207.4875,110.0000
207.4685,110.0957
207.4143,110.1768
207.3332,110.2310
207.2375,110.2500
206.4125,110.2500
206.3168,110.2310
206.2357,110.1768
206.1815,110.0957
206.1625,110.0000
Z" /> 
<path style="fill:#D864FF; fill-opacity:0.4000; stroke:none;fill-rule:evenodd;"
d="M 186.3500,83.2875
186.2543,83.2685
186.1732,83.2143
186.1190,83.1332
186.1000,83.0375
186.1000,82.2125
186.1190,82.1168
186.1732,82.0357
186.2543,81.9815
186.3500,81.9625
187.6500,81.9625
187.7457,81.9815
187.8268,82.0357
187.8810,82.1168
187.9000,82.2125
187.9000,83.0375
187.8810,83.1332
187.8268,83.2143
187.7457,83.2685
187.6500,83.2875
Z" /> 
<path style="fill:#D864FF; fill-opacity:0.4000; stroke:none;fill-rule:evenodd;"
d="M 186.3500,80.1625
186.2543,80.1435
186.1732,80.0893
186.1190,80.0082
186.1000,79.9125
186.1000,79.0875
186.1190,78.9918
186.1732,78.9107
186.2543,78.8565
186.3500,78.8375
187.6500,78.8375
187.7457,78.8565
187.8268,78.9107
187.8810,78.9918
187.9000,79.0875
187.9000,79.9125
187.8810,80.0082
187.8268,80.0893
187.7457,80.1435
187.6500,80.1625
Z" /> 
<path style="fill:#D864FF; fill-opacity:0.4000; stroke:none;fill-rule:evenodd;"
d="M 175.3610,100.4240
175.3420,100.5197
175.2878,100.6008
175.2067,100.6550
175.1110,100.6740
174.4360,100.6740
174.3403,100.6550
174.2592,100.6008
174.2050,100.5197
174.1860,100.4240
174.1860,99.4740
174.2050,99.3783
174.2592,99.2972
174.3403,99.2430
174.4360,99.2240
175.1110,99.2240
175.2067,99.2430
175.2878,99.2972
175.3420,99.3783
175.3610,99.4740
Z" /> 
<path style="fill:#D864FF; fill-opacity:0.4000; stroke:none;fill-rule:evenodd;"
d="M 173.2860,100.4240
173.2670,100.5197
173.2128,100.6008
173.1317,100.6550
173.0360,100.6740
172.3610,100.6740
172.2653,100.6550
172.1842,100.6008
172.1300,100.5197
172.1110,100.4240
172.1110,99.4740
172.1300,99.3783
172.1842,99.2972
172.2653,99.2430
172.3610,99.2240
173.0360,99.2240
173.1317,99.2430
173.2128,99.2972
173.2670,99.3783
173.2860,99.4740
Z" /> 
<path style="fill:#D864FF; fill-opacity:0.4000; stroke:none;fill-rule:evenodd;"
d="M 164.4525,91.4225
164.3616,91.4044
164.2846,91.3529
164.2331,91.2759
164.2150,91.1850
164.2150,90.5850
164.2331,90.4941
164.2846,90.4171
164.3616,90.3656
164.4525,90.3475
164.9275,90.3475
165.0184,90.3656
165.0954,90.4171
165.1469,90.4941
165.1650,90.5850
165.1650,91.1850
165.1469,91.2759
165.0954,91.3529
165.0184,91.4044
164.9275,91.4225
Z" /> 
<path style="fill:#D864FF; fill-opacity:0.4000; stroke:none;fill-rule:evenodd;"
d="M 164.4525,89.6975
164.3616,89.6794
164.2846,89.6279
164.2331,89.5509
164.2150,89.4600
164.2150,88.8600
164.2331,88.7691
164.2846,88.6921
164.3616,88.6406
164.4525,88.6225
164.9275,88.6225
165.0184,88.6406
165.0954,88.6921
165.1469,88.7691
165.1650,88.8600
165.1650,89.4600
165.1469,89.5509
165.0954,89.6279
165.0184,89.6794
164.9275,89.6975
Z" /> 
</g>
<g style="fill:#D864FF; fill-opacity:0.4000; stroke:none;">
<circle cx="207.1900" cy="130.1200" r="1.4775" /> 
</g>
<g style="fill:#D864FF; fill-opacity:0.4000; stroke:none;">
<circle cx="191.6900" cy="130.1200" r="1.4775" /> 
<path style="fill:#D864FF; fill-opacity:0.4000; stroke:none;fill-rule:evenodd;"
d="M 167.8000,75.2250
167.7043,75.2060
167.6232,75.1518
167.5690,75.0707
167.5500,74.9750
167.5500,74.3000
167.5690,74.2043
167.6232,74.1232
167.7043,74.0690
167.8000,74.0500
168.7500,74.0500
168.8457,74.0690
168.9268,74.1232
168.9810,74.2043
169.0000,74.3000
169.0000,74.9750
168.9810,75.0707
168.9268,75.1518
168.8457,75.2060
168.7500,75.2250
Z" /> 
<path style="fill:#D864FF; fill-opacity:0.4000; stroke:none;fill-rule:evenodd;"
d="M 167.8000,73.1500
167.7043,73.1310
167.6232,73.0768
167.5690,72.9957
167.5500,72.9000
167.5500,72.2250
167.5690,72.1293
167.6232,72.0482
167.7043,71.9940
167.8000,71.9750
168.7500,71.9750
168.8457,71.9940
168.9268,72.0482
168.9810,72.1293
169.0000,72.2250
169.0000,72.9000
168.9810,72.9957
168.9268,73.0768
168.8457,73.1310
168.7500,73.1500
Z" /> 
</g>
<g style="fill:#D864FF; fill-opacity:0.4000; stroke:none;">
<circle cx="179.8000" cy="80.9300" r="0.5500" /> 
</g>
<g style="fill:#D864FF; fill-opacity:0.4000; stroke:none;">
<circle cx="170.7500" cy="87.1400" r="0.5500" /> 
</g>
<g style="fill:#D864FF; fill-opacity:0.4000; stroke:none;">
<circle cx="168.1000" cy="76.2700" r="0.5500" /> 
<path style="fill:#D864FF; fill-opacity:0.4000; stroke:none;fill-rule:evenodd;"
d="M 163.3750,88.4500
163.4707,88.4690
163.5518,88.5232
163.6060,88.6043
163.6250,88.7000
163.6250,89.3750
163.6060,89.4707
163.5518,89.5518
163.4707,89.6060
163.3750,89.6250
162.4250,89.6250
162.3293,89.6060
162.2482,89.5518
162.1940,89.4707
162.1750,89.3750
162.1750,88.7000
162.1940,88.6043
162.2482,88.5232
162.3293,88.4690
162.4250,88.4500
Z" /> 
<path style="fill:#D864FF; fill-opacity:0.4000; stroke:none;fill-rule:evenodd;"
d="M 163.3750,90.5250
163.4707,90.5440
163.5518,90.5982
163.6060,90.6793
163.6250,90.7750
163.6250,91.4500
163.6060,91.5457
163.5518,91.6268
163.4707,91.6810
163.3750,91.7000
162.4250,91.7000
162.3293,91.6810
162.2482,91.6268
162.1940,91.5457
162.1750,91.4500
162.1750,90.7750
162.1940,90.6793
162.2482,90.5982
162.3293,90.5440
162.4250,90.5250
Z" /> 
<path style="fill:#D864FF; fill-opacity:0.4000; stroke:none;fill-rule:evenodd;"
d="M 174.8975,88.4450
174.9093,88.3857
174.9429,88.3354
174.9932,88.3018
175.0525,88.2900
175.4775,88.2900
175.5368,88.3018
175.5871,88.3354
175.6207,88.3857
175.6325,88.4450
175.6325,88.7550
175.6207,88.8143
175.5871,88.8646
175.5368,88.8982
175.4775,88.9100
175.0525,88.9100
174.9932,88.8982
174.9429,88.8646
174.9093,88.8143
174.8975,88.7550
Z" /> 
<path style="fill:#D864FF; fill-opacity:0.4000; stroke:none;fill-rule:evenodd;"
d="M 176.0325,88.4450
176.0443,88.3857
176.0779,88.3354
176.1282,88.3018
176.1875,88.2900
176.6125,88.2900
176.6718,88.3018
176.7221,88.3354
176.7557,88.3857
176.7675,88.4450
176.7675,88.7550
176.7557,88.8143
176.7221,88.8646
176.6718,88.8982
176.6125,88.9100
176.1875,88.9100
176.1282,88.8982
176.0779,88.8646
176.0443,88.8143
176.0325,88.7550
Z" /> 
<path style="fill:#D864FF; fill-opacity:0.4000; stroke:none;fill-rule:evenodd;"
d="M 188.5250,114.2125
188.4293,114.1935
188.3482,114.1393
188.2940,114.0582
188.2750,113.9625
188.2750,113.2875
188.2940,113.1918
188.3482,113.1107
188.4293,113.0565
188.5250,113.0375
189.4750,113.0375
189.5707,113.0565
189.6518,113.1107
189.7060,113.1918
189.7250,113.2875
189.7250,113.9625
189.7060,114.0582
189.6518,114.1393
189.5707,114.1935
189.4750,114.2125
Z" /> 
<path style="fill:#D864FF; fill-opacity:0.4000; stroke:none;fill-rule:evenodd;"
d="M 188.5250,112.1375
188.4293,112.1185
188.3482,112.0643
188.2940,111.9832
188.2750,111.8875
188.2750,111.2125
188.2940,111.1168
188.3482,111.0357
188.4293,110.9815
188.5250,110.9625
189.4750,110.9625
189.5707,110.9815
189.6518,111.0357
189.7060,111.1168
189.7250,111.2125
189.7250,111.8875
189.7060,111.9832
189.6518,112.0643
189.5707,112.1185
189.4750,112.1375
Z" /> 
<path style="fill:#D864FF; fill-opacity:0.4000; stroke:none;fill-rule:evenodd;"
d="M 178.7000,121.9500
178.7190,121.8543
178.7732,121.7732
178.8543,121.7190
178.9500,121.7000
179.6500,121.7000
179.7457,121.7190
179.8268,121.7732
179.8810,121.8543
179.9000,121.9500
179.9000,122.8500
179.8810,122.9457
179.8268,123.0268
179.7457,123.0810
179.6500,123.1000
178.9500,123.1000
178.8543,123.0810
178.7732,123.0268
178.7190,122.9457
178.7000,122.8500
Z" /> 
<path style="fill:#D864FF; fill-opacity:0.4000; stroke:none;fill-rule:evenodd;"
d="M 180.7000,121.9500
180.7190,121.8543
180.7732,121.7732
180.8543,121.7190
180.9500,121.7000
181.6500,121.7000
181.7457,121.7190
181.8268,121.7732
181.8810,121.8543
181.9000,121.9500
181.9000,122.8500
181.8810,122.9457
181.8268,123.0268
181.7457,123.0810
181.6500,123.1000
180.9500,123.1000
180.8543,123.0810
180.7732,123.0268
180.7190,122.9457
180.7000,122.8500
Z" /> 
<path style="fill:#D864FF; fill-opacity:0.4000; stroke:none;fill-rule:evenodd;"
d="M 180.3000,100.2000
180.2043,100.1810
180.1232,100.1268
180.0690,100.0457
180.0500,99.9500
180.0500,99.0500
180.0690,98.9543
180.1232,98.8732
180.2043,98.8190
180.3000,98.8000
181.9000,98.8000
181.9957,98.8190
182.0768,98.8732
182.1310,98.9543
182.1500,99.0500
182.1500,99.9500
182.1310,100.0457
182.0768,100.1268
181.9957,100.1810
181.9000,100.2000
Z" /> 
<path style="fill:#D864FF; fill-opacity:0.4000; stroke:none;fill-rule:evenodd;"
d="M 180.3000,95.8000
180.2043,95.7810
180.1232,95.7268
180.0690,95.6457
180.0500,95.5500
180.0500,94.6500
180.0690,94.5543
180.1232,94.4732
180.2043,94.4190
180.3000,94.4000
181.9000,94.4000
181.9957,94.4190
182.0768,94.4732
182.1310,94.5543
182.1500,94.6500
182.1500,95.5500
182.1310,95.6457
182.0768,95.7268
181.9957,95.7810
181.9000,95.8000
Z" /> 
<path style="fill:#D864FF; fill-opacity:0.4000; stroke:none;fill-rule:evenodd;"
d="M 173.4000,82.5500
173.4190,82.4543
173.4732,82.3732
173.5543,82.3190
173.6500,82.3000
174.3500,82.3000
174.4457,82.3190
174.5268,82.3732
174.5810,82.4543
174.6000,82.5500
174.6000,83.4500
174.5810,83.5457
174.5268,83.6268
174.4457,83.6810
174.3500,83.7000
173.6500,83.7000
173.5543,83.6810
173.4732,83.6268
173.4190,83.5457
173.4000,83.4500
Z" /> 
<path style="fill:#D864FF; fill-opacity:0.4000; stroke:none;fill-rule:evenodd;"
d="M 175.4000,82.5500
175.4190,82.4543
175.4732,82.3732
175.5543,82.3190
175.6500,82.3000
176.3500,82.3000
176.4457,82.3190
176.5268,82.3732
176.5810,82.4543
176.6000,82.5500
176.6000,83.4500
176.5810,83.5457
176.5268,83.6268
176.4457,83.6810
176.3500,83.7000
175.6500,83.7000
175.5543,83.6810
175.4732,83.6268
175.4190,83.5457
175.4000,83.4500
Z" /> 
</g>
<g style="fill:#D864FF; fill-opacity:0.4000; stroke:none;">
<circle cx="188.6000" cy="98.7100" r="0.5500" /> 
</g>
<g style="fill:#D864FF; fill-opacity:0.4000; stroke:none;">
<circle cx="208.6600" cy="119.8200" r="0.4000" /> 
</g>
<g style="fill:#D864FF; fill-opacity:0.4000; stroke:none;">
<circle cx="209.3629" cy="118.1229" r="0.4000" /> 
</g>
<g style="fill:#D864FF; fill-opacity:0.4000; stroke:none;">
<circle cx="209.3629" cy="121.5171" r="0.4000" /> 
</g>
<g style="fill:#D864FF; fill-opacity:0.4000; stroke:none;">
<circle cx="211.0600" cy="117.4200" r="0.4000" /> 
</g>
<g style="fill:#D864FF; fill-opacity:0.4000; stroke:none;">
<circle cx="211.0600" cy="119.8200" r="3.2000" /> 
</g>
<g style="fill:#D864FF; fill-opacity:0.4000; stroke:none;">
<circle cx="211.0600" cy="122.2200" r="0.4000" /> 
</g>
<g style="fill:#D864FF; fill-opacity:0.4000; stroke:none;">
<circle cx="212.7571" cy="118.1229" r="0.4000" /> 
</g>
<g style="fill:#D864FF; fill-opacity:0.4000; stroke:none;">
<circle cx="212.7571" cy="121.5171" r="0.4000" /> 
</g>
<g style="fill:#D864FF; fill-opacity:0.4000; stroke:none;">
<circle cx="213.4600" cy="119.8200" r="0.4000" /> 
<path style="fill:#D864FF; fill-opacity:0.4000; stroke:none;fill-rule:evenodd;"
d="M 206.8750,117.9375
206.9707,117.9565
207.0518,118.0107
207.1060,118.0918
207.1250,118.1875
207.1250,118.8625
207.1060,118.9582
207.0518,119.0393
206.9707,119.0935
206.8750,119.1125
205.9250,119.1125
205.8293,119.0935
205.7482,119.0393
205.6940,118.9582
205.6750,118.8625
205.6750,118.1875
205.6940,118.0918
205.7482,118.0107
205.8293,117.9565
205.9250,117.9375
Z" /> 
<path style="fill:#D864FF; fill-opacity:0.4000; stroke:none;fill-rule:evenodd;"
d="M 206.8750,120.0125
206.9707,120.0315
207.0518,120.0857
207.1060,120.1668
207.1250,120.2625
207.1250,120.9375
207.1060,121.0332
207.0518,121.1143
206.9707,121.1685
206.8750,121.1875
205.9250,121.1875
205.8293,121.1685
205.7482,121.1143
205.6940,121.0332
205.6750,120.9375
205.6750,120.2625
205.6940,120.1668
205.7482,120.0857
205.8293,120.0315
205.9250,120.0125
Z" /> 
<path style="fill:#D864FF; fill-opacity:0.4000; stroke:none;fill-rule:evenodd;"
d="M 169.4100,91.5800
168.2100,91.5800
168.2100,90.3800
169.4100,90.3800
Z" /> 
<path style="fill:#D864FF; fill-opacity:0.4000; stroke:none;fill-rule:evenodd;"
d="M 169.4100,88.7800
168.2100,88.7800
168.2100,87.5800
169.4100,87.5800
Z" /> 
</g>
<g style="fill:#D864FF; fill-opacity:0.4000; stroke:none;">
<circle cx="207.5000" cy="63.8350" r="1.4775" /> 
</g>
<g style="fill:#D864FF; fill-opacity:0.4000; stroke:none;">
<circle cx="192.0000" cy="63.8350" r="1.4775" /> 
</g>
<g style="fill:#D864FF; fill-opacity:0.4000; stroke:none;">
<circle cx="173.8800" cy="97.5800" r="0.5500" /> 
</g>
<g style="fill:#D864FF; fill-opacity:0.4000; stroke:none;">
<circle cx="166.2900" cy="89.1000" r="0.5500" /> 
<path style="fill:#D864FF; fill-opacity:0.4000; stroke:none;fill-rule:evenodd;"
d="M 195.1000,111.3000
195.1190,111.2043
195.1732,111.1232
195.2543,111.0690
195.3500,111.0500
196.0500,111.0500
196.1457,111.0690
196.2268,111.1232
196.2810,111.2043
196.3000,111.3000
196.3000,112.2000
196.2810,112.2957
196.2268,112.3768
196.1457,112.4310
196.0500,112.4500
195.3500,112.4500
195.2543,112.4310
195.1732,112.3768
195.1190,112.2957
195.1000,112.2000
Z" /> 
<path style="fill:#D864FF; fill-opacity:0.4000; stroke:none;fill-rule:evenodd;"
d="M 197.1000,111.3000
197.1190,111.2043
197.1732,111.1232
197.2543,111.0690
197.3500,111.0500
198.0500,111.0500
198.1457,111.0690
198.2268,111.1232
198.2810,111.2043
198.3000,111.3000
198.3000,112.2000
198.2810,112.2957
198.2268,112.3768
198.1457,112.4310
198.0500,112.4500
197.3500,112.4500
197.2543,112.4310
197.1732,112.3768
197.1190,112.2957
197.1000,112.2000
Z" /> 
</g>
<g style="fill:#D864FF; fill-opacity:0.4000; stroke:none;">
<circle cx="199.4800" cy="102.0100" r="0.5500" /> 
<path style="fill:#D864FF; fill-opacity:0.4000; stroke:none;fill-rule:evenodd;"
d="M 168.0400,99.7525
167.9788,99.7403
167.9269,99.7056
167.8922,99.6537
167.8800,99.5925
167.8800,99.1975
167.8922,99.1363
167.9269,99.0844
167.9788,99.0497
168.0400,99.0375
168.3600,99.0375
168.4212,99.0497
168.4731,99.0844
168.5078,99.1363
168.5200,99.1975
168.5200,99.5925
168.5078,99.6537
168.4731,99.7056
168.4212,99.7403
168.3600,99.7525
Z" /> 
<path style="fill:#D864FF; fill-opacity:0.4000; stroke:none;fill-rule:evenodd;"
d="M 168.0400,98.5575
167.9788,98.5453
167.9269,98.5106
167.8922,98.4587
167.8800,98.3975
167.8800,98.0025
167.8922,97.9413
167.9269,97.8894
167.9788,97.8547
168.0400,97.8425
168.3600,97.8425
168.4212,97.8547
168.4731,97.8894
168.5078,97.9413
168.5200,98.0025
168.5200,98.3975
168.5078,98.4587
168.4731,98.5106
168.4212,98.5453
168.3600,98.5575
Z" /> 
<path style="fill:#D864FF; fill-opacity:0.4000; stroke:none;fill-rule:evenodd;"
d="M 164.1250,97.4499
164.1442,97.4537
164.1604,97.4646
164.1713,97.4808
164.1751,97.4999
164.1751,97.6000
164.1713,97.6192
164.1604,97.6354
164.1442,97.6463
164.1250,97.6501
164.0249,97.6501
164.0058,97.6463
163.9896,97.6354
163.9787,97.6192
163.9749,97.6000
163.9749,97.4999
163.9787,97.4808
163.9896,97.4646
164.0058,97.4537
164.0249,97.4499
Z" /> 
<path style="fill:#D864FF; fill-opacity:0.4000; stroke:none;fill-rule:evenodd;"
d="M 164.1250,98.0499
164.1442,98.0537
164.1604,98.0646
164.1713,98.0808
164.1751,98.0999
164.1751,98.2000
164.1713,98.2192
164.1604,98.2354
164.1442,98.2463
164.1250,98.2501
164.0249,98.2501
164.0058,98.2463
163.9896,98.2354
163.9787,98.2192
163.9749,98.2000
163.9749,98.0999
163.9787,98.0808
163.9896,98.0646
164.0058,98.0537
164.0249,98.0499
Z" /> 
<path style="fill:#D864FF; fill-opacity:0.4000; stroke:none;fill-rule:evenodd;"
d="M 169.8999,118.8499
169.9037,118.8308
169.9146,118.8146
169.9308,118.8037
169.9500,118.7999
170.0500,118.7999
170.0692,118.8037
170.0854,118.8146
170.0963,118.8308
170.1001,118.8499
170.1001,118.9500
170.0963,118.9692
170.0854,118.9854
170.0692,118.9963
170.0500,119.0001
169.9500,119.0001
169.9308,118.9963
169.9146,118.9854
169.9037,118.9692
169.8999,118.9500
Z" /> 
<path style="fill:#D864FF; fill-opacity:0.4000; stroke:none;fill-rule:evenodd;"
d="M 170.4999,118.8499
170.5037,118.8308
170.5146,118.8146
170.5308,118.8037
170.5499,118.7999
170.6500,118.7999
170.6692,118.8037
170.6854,118.8146
170.6963,118.8308
170.7001,118.8499
170.7001,118.9500
170.6963,118.9692
170.6854,118.9854
170.6692,118.9963
170.6500,119.0001
170.5499,119.0001
170.5308,118.9963
170.5146,118.9854
170.5037,118.9692
170.4999,118.9500
Z" /> 
<path style="fill:#D864FF; fill-opacity:0.4000; stroke:none;fill-rule:evenodd;"
d="M 171.4375,96.3600
172.9625,96.3600
172.9625,97.0600
171.4375,97.0600
Z" /> 
<path style="fill:#D864FF; fill-opacity:0.4000; stroke:none;fill-rule:evenodd;"
d="M 171.4375,95.0900
172.9625,95.0900
172.9625,95.7900
171.4375,95.7900
Z" /> 
<path style="fill:#D864FF; fill-opacity:0.4000; stroke:none;fill-rule:evenodd;"
d="M 171.4375,93.8200
172.9625,93.8200
172.9625,94.5200
171.4375,94.5200
Z" /> 
<path style="fill:#D864FF; fill-opacity:0.4000; stroke:none;fill-rule:evenodd;"
d="M 171.4375,92.5500
172.9625,92.5500
172.9625,93.2500
171.4375,93.2500
Z" /> 
<path style="fill:#D864FF; fill-opacity:0.4000; stroke:none;fill-rule:evenodd;"
d="M 166.0135,92.5500
167.5385,92.5500
167.5385,93.2500
166.0135,93.2500
Z" /> 
<path style="fill:#D864FF; fill-opacity:0.4000; stroke:none;fill-rule:evenodd;"
d="M 166.0135,93.8200
167.5385,93.8200
167.5385,94.5200
166.0135,94.5200
Z" /> 
<path style="fill:#D864FF; fill-opacity:0.4000; stroke:none;fill-rule:evenodd;"
d="M 166.0135,95.0900
167.5385,95.0900
167.5385,95.7900
166.0135,95.7900
Z" /> 
<path style="fill:#D864FF; fill-opacity:0.4000; stroke:none;fill-rule:evenodd;"
d="M 166.0135,96.3600
167.5385,96.3600
167.5385,97.0600
166.0135,97.0600
Z" /> 
<path style="fill:#D864FF; fill-opacity:0.4000; stroke:none;fill-rule:evenodd;"
d="M 199.0250,106.3250
198.9293,106.3060
198.8482,106.2518
198.7940,106.1707
198.7750,106.0750
198.7750,105.4000
198.7940,105.3043
198.8482,105.2232
198.9293,105.1690
199.0250,105.1500
199.9750,105.1500
200.0707,105.1690
200.1518,105.2232
200.2060,105.3043
200.2250,105.4000
200.2250,106.0750
200.2060,106.1707
200.1518,106.2518
200.0707,106.3060
199.9750,106.3250
Z" /> 
<path style="fill:#D864FF; fill-opacity:0.4000; stroke:none;fill-rule:evenodd;"
d="M 199.0250,104.2500
198.9293,104.2310
198.8482,104.1768
198.7940,104.0957
198.7750,104.0000
198.7750,103.3250
198.7940,103.2293
198.8482,103.1482
198.9293,103.0940
199.0250,103.0750
199.9750,103.0750
200.0707,103.0940
200.1518,103.1482
200.2060,103.2293
200.2250,103.3250
200.2250,104.0000
200.2060,104.0957
200.1518,104.1768
200.0707,104.2310
199.9750,104.2500
Z" /> 
<path style="fill:#D864FF; fill-opacity:0.4000; stroke:none;fill-rule:evenodd;"
d="M 184.6000,109.9375
184.6957,109.9565
184.7768,110.0107
184.8310,110.0918
184.8500,110.1875
184.8500,111.0125
184.8310,111.1082
184.7768,111.1893
184.6957,111.2435
184.6000,111.2625
182.4000,111.2625
182.3043,111.2435
182.2232,111.1893
182.1690,111.1082
182.1500,111.0125
182.1500,110.1875
182.1690,110.0918
182.2232,110.0107
182.3043,109.9565
182.4000,109.9375
Z" /> 
<path style="fill:#D864FF; fill-opacity:0.4000; stroke:none;fill-rule:evenodd;"
d="M 184.6000,113.0625
184.6957,113.0815
184.7768,113.1357
184.8310,113.2168
184.8500,113.3125
184.8500,114.1375
184.8310,114.2332
184.7768,114.3143
184.6957,114.3685
184.6000,114.3875
182.4000,114.3875
182.3043,114.3685
182.2232,114.3143
182.1690,114.2332
182.1500,114.1375
182.1500,113.3125
182.1690,113.2168
182.2232,113.1357
182.3043,113.0815
182.4000,113.0625
Z" /> 
<path style="fill:#D864FF; fill-opacity:0.4000; stroke:none;fill-rule:evenodd;"
d="M 179.8000,73.5500
179.8957,73.5690
179.9768,73.6232
180.0310,73.7043
180.0500,73.8000
180.0500,74.7000
180.0310,74.7957
179.9768,74.8768
179.8957,74.9310
179.8000,74.9500
178.2000,74.9500
178.1043,74.9310
178.0232,74.8768
177.9690,74.7957
177.9500,74.7000
177.9500,73.8000
177.9690,73.7043
178.0232,73.6232
178.1043,73.5690
178.2000,73.5500
Z" /> 
<path style="fill:#D864FF; fill-opacity:0.4000; stroke:none;fill-rule:evenodd;"
d="M 179.8000,77.9500
179.8957,77.9690
179.9768,78.0232
180.0310,78.1043
180.0500,78.2000
180.0500,79.1000
180.0310,79.1957
179.9768,79.2768
179.8957,79.3310
179.8000,79.3500
178.2000,79.3500
178.1043,79.3310
178.0232,79.2768
177.9690,79.1957
177.9500,79.1000
177.9500,78.2000
177.9690,78.1043
178.0232,78.0232
178.1043,77.9690
178.2000,77.9500
Z" /> 
<path style="fill:#D864FF; fill-opacity:0.4000; stroke:none;fill-rule:evenodd;"
d="M 173.4000,86.5500
173.4190,86.4543
173.4732,86.3732
173.5543,86.3190
173.6500,86.3000
174.3500,86.3000
174.4457,86.3190
174.5268,86.3732
174.5810,86.4543
174.6000,86.5500
174.6000,87.4500
174.5810,87.5457
174.5268,87.6268
174.4457,87.6810
174.3500,87.7000
173.6500,87.7000
173.5543,87.6810
173.4732,87.6268
173.4190,87.5457
173.4000,87.4500
Z" /> 
<path style="fill:#D864FF; fill-opacity:0.4000; stroke:none;fill-rule:evenodd;"
d="M 175.4000,86.5500
175.4190,86.4543
175.4732,86.3732
175.5543,86.3190
175.6500,86.3000
176.3500,86.3000
176.4457,86.3190
176.5268,86.3732
176.5810,86.4543
176.6000,86.5500
176.6000,87.4500
176.5810,87.5457
176.5268,87.6268
176.4457,87.6810
176.3500,87.7000
175.6500,87.7000
175.5543,87.6810
175.4732,87.6268
175.4190,87.5457
175.4000,87.4500
Z" /> 
<path style="fill:#D864FF; fill-opacity:0.4000; stroke:none;fill-rule:evenodd;"
d="M 201.1250,106.3250
201.0293,106.3060
200.9482,106.2518
200.8940,106.1707
200.8750,106.0750
200.8750,105.4000
200.8940,105.3043
200.9482,105.2232
201.0293,105.1690
201.1250,105.1500
202.0750,105.1500
202.1707,105.1690
202.2518,105.2232
202.3060,105.3043
202.3250,105.4000
202.3250,106.0750
202.3060,106.1707
202.2518,106.2518
202.1707,106.3060
202.0750,106.3250
Z" /> 
<path style="fill:#D864FF; fill-opacity:0.4000; stroke:none;fill-rule:evenodd;"
d="M 201.1250,104.2500
201.0293,104.2310
200.9482,104.1768
200.8940,104.0957
200.8750,104.0000
200.8750,103.3250
200.8940,103.2293
200.9482,103.1482
201.0293,103.0940
201.1250,103.0750
202.0750,103.0750
202.1707,103.0940
202.2518,103.1482
202.3060,103.2293
202.3250,103.3250
202.3250,104.0000
202.3060,104.0957
202.2518,104.1768
202.1707,104.2310
202.0750,104.2500
Z" /> 
</g>
<g style="fill:#D864FF; fill-opacity:0.4000; stroke:none;">
<circle cx="163.7700" cy="86.8100" r="0.5500" /> 
<path style="fill:#D864FF; fill-opacity:0.4000; stroke:none;fill-rule:evenodd;"
d="M 200.6750,110.9500
200.7707,110.9690
200.8518,111.0232
200.9060,111.1043
200.9250,111.2000
200.9250,111.8750
200.9060,111.9707
200.8518,112.0518
200.7707,112.1060
200.6750,112.1250
199.7250,112.1250
199.6293,112.1060
199.5482,112.0518
199.4940,111.9707
199.4750,111.8750
199.4750,111.2000
199.4940,111.1043
199.5482,111.0232
199.6293,110.9690
199.7250,110.9500
Z" /> 
<path style="fill:#D864FF; fill-opacity:0.4000; stroke:none;fill-rule:evenodd;"
d="M 200.6750,113.0250
200.7707,113.0440
200.8518,113.0982
200.9060,113.1793
200.9250,113.2750
200.9250,113.9500
200.9060,114.0457
200.8518,114.1268
200.7707,114.1810
200.6750,114.2000
199.7250,114.2000
199.6293,114.1810
199.5482,114.1268
199.4940,114.0457
199.4750,113.9500
199.4750,113.2750
199.4940,113.1793
199.5482,113.0982
199.6293,113.0440
199.7250,113.0250
Z" /> 
<path style="fill:#D864FF; fill-opacity:0.4000; stroke:none;fill-rule:evenodd;"
d="M 176.7625,74.2250
176.7435,74.3207
176.6893,74.4018
176.6082,74.4560
176.5125,74.4750
175.8375,74.4750
175.7418,74.4560
175.6607,74.4018
175.6065,74.3207
175.5875,74.2250
175.5875,73.2750
175.6065,73.1793
175.6607,73.0982
175.7418,73.0440
175.8375,73.0250
176.5125,73.0250
176.6082,73.0440
176.6893,73.0982
176.7435,73.1793
176.7625,73.2750
Z" /> 
<path style="fill:#D864FF; fill-opacity:0.4000; stroke:none;fill-rule:evenodd;"
d="M 174.6875,74.2250
174.6685,74.3207
174.6143,74.4018
174.5332,74.4560
174.4375,74.4750
173.7625,74.4750
173.6668,74.4560
173.5857,74.4018
173.5315,74.3207
173.5125,74.2250
173.5125,73.2750
173.5315,73.1793
173.5857,73.0982
173.6668,73.0440
173.7625,73.0250
174.4375,73.0250
174.5332,73.0440
174.6143,73.0982
174.6685,73.1793
174.6875,73.2750
Z" /> 
<path style="fill:#D864FF; fill-opacity:0.4000; stroke:none;fill-rule:evenodd;"
d="M 181.3000,109.9375
181.3957,109.9565
181.4768,110.0107
181.5310,110.0918
181.5500,110.1875
181.5500,111.0125
181.5310,111.1082
181.4768,111.1893
181.3957,111.2435
181.3000,111.2625
179.1000,111.2625
179.0043,111.2435
178.9232,111.1893
178.8690,111.1082
178.8500,111.0125
178.8500,110.1875
178.8690,110.0918
178.9232,110.0107
179.0043,109.9565
179.1000,109.9375
Z" /> 
<path style="fill:#D864FF; fill-opacity:0.4000; stroke:none;fill-rule:evenodd;"
d="M 181.3000,113.0625
181.3957,113.0815
181.4768,113.1357
181.5310,113.2168
181.5500,113.3125
181.5500,114.1375
181.5310,114.2332
181.4768,114.3143
181.3957,114.3685
181.3000,114.3875
179.1000,114.3875
179.0043,114.3685
178.9232,114.3143
178.8690,114.2332
178.8500,114.1375
178.8500,113.3125
178.8690,113.2168
178.9232,113.1357
179.0043,113.0815
179.1000,113.0625
Z" /> 
</g>
<g style="fill:#D864FF; fill-opacity:0.4000; stroke:none;">
<circle cx="161.7300" cy="92.8100" r="0.5500" /> 
</g>
<g style="fill:#D864FF; fill-opacity:0.4000; stroke:none;">
<circle cx="174.4400" cy="91.4400" r="0.5500" /> 
<path style="fill:#D864FF; fill-opacity:0.4000; stroke:none;fill-rule:evenodd;"
d="M 192.0500,86.4778
192.0331,86.5628
191.9849,86.6349
191.9128,86.6831
191.8278,86.7000
189.1722,86.7000
189.0872,86.6831
189.0151,86.6349
188.9669,86.5628
188.9500,86.4778
188.9500,84.5222
188.9669,84.4372
189.0151,84.3651
189.0872,84.3169
189.1722,84.3000
191.8278,84.3000
191.9128,84.3169
191.9849,84.3651
192.0331,84.4372
192.0500,84.5222
Z" /> 
<path style="fill:#D864FF; fill-opacity:0.4000; stroke:none;fill-rule:evenodd;"
d="M 187.3500,86.4778
187.3331,86.5628
187.2849,86.6349
187.2128,86.6831
187.1278,86.7000
184.4722,86.7000
184.3872,86.6831
184.3151,86.6349
184.2669,86.5628
184.2500,86.4778
184.2500,84.5222
184.2669,84.4372
184.3151,84.3651
184.3872,84.3169
184.4722,84.3000
187.1278,84.3000
187.2128,84.3169
187.2849,84.3651
187.3331,84.4372
187.3500,84.5222
Z" /> 
<path style="fill:#D864FF; fill-opacity:0.4000; stroke:none;fill-rule:evenodd;"
d="M 187.3000,94.8778
187.2831,94.9628
187.2349,95.0349
187.1628,95.0831
187.0778,95.1000
184.4222,95.1000
184.3372,95.0831
184.2651,95.0349
184.2169,94.9628
184.2000,94.8778
184.2000,92.9222
184.2169,92.8372
184.2651,92.7651
184.3372,92.7169
184.4222,92.7000
187.0778,92.7000
187.1628,92.7169
187.2349,92.7651
187.2831,92.8372
187.3000,92.9222
Z" /> 
<path style="fill:#D864FF; fill-opacity:0.4000; stroke:none;fill-rule:evenodd;"
d="M 192.0000,94.8778
191.9831,94.9628
191.9349,95.0349
191.8628,95.0831
191.7778,95.1000
189.1222,95.1000
189.0372,95.0831
188.9651,95.0349
188.9169,94.9628
188.9000,94.8778
188.9000,92.9222
188.9169,92.8372
188.9651,92.7651
189.0372,92.7169
189.1222,92.7000
191.7778,92.7000
191.8628,92.7169
191.9349,92.7651
191.9831,92.8372
192.0000,92.9222
Z" /> 
<path style="fill:#D864FF; fill-opacity:0.4000; stroke:none;fill-rule:evenodd;"
d="M 183.3000,100.7875
183.2043,100.7685
183.1232,100.7143
183.0690,100.6332
183.0500,100.5375
183.0500,99.7125
183.0690,99.6168
183.1232,99.5357
183.2043,99.4815
183.3000,99.4625
185.5000,99.4625
185.5957,99.4815
185.6768,99.5357
185.7310,99.6168
185.7500,99.7125
185.7500,100.5375
185.7310,100.6332
185.6768,100.7143
185.5957,100.7685
185.5000,100.7875
Z" /> 
<path style="fill:#D864FF; fill-opacity:0.4000; stroke:none;fill-rule:evenodd;"
d="M 183.3000,97.6625
183.2043,97.6435
183.1232,97.5893
183.0690,97.5082
183.0500,97.4125
183.0500,96.5875
183.0690,96.4918
183.1232,96.4107
183.2043,96.3565
183.3000,96.3375
185.5000,96.3375
185.5957,96.3565
185.6768,96.4107
185.7310,96.4918
185.7500,96.5875
185.7500,97.4125
185.7310,97.5082
185.6768,97.5893
185.5957,97.6435
185.5000,97.6625
Z" /> 
<path style="fill:#D864FF; fill-opacity:0.4000; stroke:none;fill-rule:evenodd;"
d="M 167.4775,79.5950
167.4893,79.5357
167.5229,79.4854
167.5732,79.4518
167.6325,79.4400
168.8175,79.4400
168.8768,79.4518
168.9271,79.4854
168.9607,79.5357
168.9725,79.5950
168.9725,79.9050
168.9607,79.9643
168.9271,80.0146
168.8768,80.0482
168.8175,80.0600
167.6325,80.0600
167.5732,80.0482
167.5229,80.0146
167.4893,79.9643
167.4775,79.9050
Z" /> 
<path style="fill:#D864FF; fill-opacity:0.4000; stroke:none;fill-rule:evenodd;"
d="M 167.4375,81.4750
167.4508,81.4080
167.4888,81.3513
167.5455,81.3133
167.6125,81.3000
168.8375,81.3000
168.9045,81.3133
168.9612,81.3513
168.9992,81.4080
169.0125,81.4750
169.0125,81.8250
168.9992,81.8920
168.9612,81.9487
168.9045,81.9867
168.8375,82.0000
167.6125,82.0000
167.5455,81.9867
167.4888,81.9487
167.4508,81.8920
167.4375,81.8250
Z" /> 
<path style="fill:#D864FF; fill-opacity:0.4000; stroke:none;fill-rule:evenodd;"
d="M 169.3525,80.5450
169.3643,80.4857
169.3979,80.4354
169.4482,80.4018
169.5075,80.3900
170.6925,80.3900
170.7518,80.4018
170.8021,80.4354
170.8357,80.4857
170.8475,80.5450
170.8475,80.8550
170.8357,80.9143
170.8021,80.9646
170.7518,80.9982
170.6925,81.0100
169.5075,81.0100
169.4482,80.9982
169.3979,80.9646
169.3643,80.9143
169.3525,80.8550
Z" /> 
</g>
<g style="fill:#D864FF; fill-opacity:0.4000; stroke:none;">
<circle cx="158.7300" cy="119.8200" r="0.4000" /> 
</g>
<g style="fill:#D864FF; fill-opacity:0.4000; stroke:none;">
<circle cx="159.4329" cy="118.1229" r="0.4000" /> 
</g>
<g style="fill:#D864FF; fill-opacity:0.4000; stroke:none;">
<circle cx="159.4329" cy="121.5171" r="0.4000" /> 
</g>
<g style="fill:#D864FF; fill-opacity:0.4000; stroke:none;">
<circle cx="161.1300" cy="117.4200" r="0.4000" /> 
</g>
<g style="fill:#D864FF; fill-opacity:0.4000; stroke:none;">
<circle cx="161.1300" cy="119.8200" r="3.2000" /> 
</g>
<g style="fill:#D864FF; fill-opacity:0.4000; stroke:none;">
<circle cx="161.1300" cy="122.2200" r="0.4000" /> 
</g>
<g style="fill:#D864FF; fill-opacity:0.4000; stroke:none;">
<circle cx="162.8271" cy="118.1229" r="0.4000" /> 
</g>
<g style="fill:#D864FF; fill-opacity:0.4000; stroke:none;">
<circle cx="162.8271" cy="121.5171" r="0.4000" /> 
</g>
<g style="fill:#D864FF; fill-opacity:0.4000; stroke:none;">
<circle cx="163.5300" cy="119.8200" r="0.4000" /> 
<path style="fill:#D864FF; fill-opacity:0.4000; stroke:none;fill-rule:evenodd;"
d="M 164.5750,121.7625
164.5931,121.6716
164.6446,121.5946
164.7216,121.5431
164.8125,121.5250
165.3125,121.5250
165.4034,121.5431
165.4804,121.5946
165.5319,121.6716
165.5500,121.7625
165.5500,122.2375
165.5319,122.3284
165.4804,122.4054
165.4034,122.4569
165.3125,122.4750
164.8125,122.4750
164.7216,122.4569
164.6446,122.4054
164.5931,122.3284
164.5750,122.2375
Z" /> 
<path style="fill:#D864FF; fill-opacity:0.4000; stroke:none;fill-rule:evenodd;"
d="M 166.4000,121.7625
166.4181,121.6716
166.4696,121.5946
166.5466,121.5431
166.6375,121.5250
167.1375,121.5250
167.2284,121.5431
167.3054,121.5946
167.3569,121.6716
167.3750,121.7625
167.3750,122.2375
167.3569,122.3284
167.3054,122.4054
167.2284,122.4569
167.1375,122.4750
166.6375,122.4750
166.5466,122.4569
166.4696,122.4054
166.4181,122.3284
166.4000,122.2375
Z" /> 
<path style="fill:#D864FF; fill-opacity:0.4000; stroke:none;fill-rule:evenodd;"
d="M 195.5222,108.8000
195.4372,108.7831
195.3651,108.7349
195.3169,108.6628
195.3000,108.5778
195.3000,105.9222
195.3169,105.8372
195.3651,105.7651
195.4372,105.7169
195.5222,105.7000
197.4778,105.7000
197.5628,105.7169
197.6349,105.7651
197.6831,105.8372
197.7000,105.9222
197.7000,108.5778
197.6831,108.6628
197.6349,108.7349
197.5628,108.7831
197.4778,108.8000
Z" /> 
<path style="fill:#D864FF; fill-opacity:0.4000; stroke:none;fill-rule:evenodd;"
d="M 195.5222,104.1000
195.4372,104.0831
195.3651,104.0349
195.3169,103.9628
195.3000,103.8778
195.3000,101.2222
195.3169,101.1372
195.3651,101.0651
195.4372,101.0169
195.5222,101.0000
197.4778,101.0000
197.5628,101.0169
197.6349,101.0651
197.6831,101.1372
197.7000,101.2222
197.7000,103.8778
197.6831,103.9628
197.6349,104.0349
197.5628,104.0831
197.4778,104.1000
Z" /> 
<path style="fill:#D864FF; fill-opacity:0.4000; stroke:none;fill-rule:evenodd;"
d="M 187.1222,104.0500
187.0372,104.0331
186.9651,103.9849
186.9169,103.9128
186.9000,103.8278
186.9000,101.1722
186.9169,101.0872
186.9651,101.0151
187.0372,100.9669
187.1222,100.9500
189.0778,100.9500
189.1628,100.9669
189.2349,101.0151
189.2831,101.0872
189.3000,101.1722
189.3000,103.8278
189.2831,103.9128
189.2349,103.9849
189.1628,104.0331
189.0778,104.0500
Z" /> 
<path style="fill:#D864FF; fill-opacity:0.4000; stroke:none;fill-rule:evenodd;"
d="M 187.1222,108.7500
187.0372,108.7331
186.9651,108.6849
186.9169,108.6128
186.9000,108.5278
186.9000,105.8722
186.9169,105.7872
186.9651,105.7151
187.0372,105.6669
187.1222,105.6500
189.0778,105.6500
189.1628,105.6669
189.2349,105.7151
189.2831,105.7872
189.3000,105.8722
189.3000,108.5278
189.2831,108.6128
189.2349,108.6849
189.1628,108.7331
189.0778,108.7500
Z" /> 
<path style="fill:#D864FF; fill-opacity:0.4000; stroke:none;fill-rule:evenodd;"
d="M 187.7500,76.9000
187.6543,76.8810
187.5732,76.8268
187.5190,76.7457
187.5000,76.6500
187.5000,75.9500
187.5190,75.8543
187.5732,75.7732
187.6543,75.7190
187.7500,75.7000
188.6500,75.7000
188.7457,75.7190
188.8268,75.7732
188.8810,75.8543
188.9000,75.9500
188.9000,76.6500
188.8810,76.7457
188.8268,76.8268
188.7457,76.8810
188.6500,76.9000
Z" /> 
<path style="fill:#D864FF; fill-opacity:0.4000; stroke:none;fill-rule:evenodd;"
d="M 187.7500,74.9000
187.6543,74.8810
187.5732,74.8268
187.5190,74.7457
187.5000,74.6500
187.5000,73.9500
187.5190,73.8543
187.5732,73.7732
187.6543,73.7190
187.7500,73.7000
188.6500,73.7000
188.7457,73.7190
188.8268,73.7732
188.8810,73.8543
188.9000,73.9500
188.9000,74.6500
188.8810,74.7457
188.8268,74.8268
188.7457,74.8810
188.6500,74.9000
Z" /> 
<path style="fill:#D864FF; fill-opacity:0.4000; stroke:none;fill-rule:evenodd;"
d="M 173.6000,71.3000
173.6190,71.2043
173.6732,71.1232
173.7543,71.0690
173.8500,71.0500
174.5500,71.0500
174.6457,71.0690
174.7268,71.1232
174.7810,71.2043
174.8000,71.3000
174.8000,72.2000
174.7810,72.2957
174.7268,72.3768
174.6457,72.4310
174.5500,72.4500
173.8500,72.4500
173.7543,72.4310
173.6732,72.3768
173.6190,72.2957
173.6000,72.2000
Z" /> 
<path style="fill:#D864FF; fill-opacity:0.4000; stroke:none;fill-rule:evenodd;"
d="M 175.6000,71.3000
175.6190,71.2043
175.6732,71.1232
175.7543,71.0690
175.8500,71.0500
176.5500,71.0500
176.6457,71.0690
176.7268,71.1232
176.7810,71.2043
176.8000,71.3000
176.8000,72.2000
176.7810,72.2957
176.7268,72.3768
176.6457,72.4310
176.5500,72.4500
175.8500,72.4500
175.7543,72.4310
175.6732,72.3768
175.6190,72.2957
175.6000,72.2000
Z" /> 
<path style="fill:#D864FF; fill-opacity:0.4000; stroke:none;fill-rule:evenodd;"
d="M 176.1950,97.3000
176.0993,97.2810
176.0182,97.2268
175.9640,97.1457
175.9450,97.0500
175.9450,96.1500
175.9640,96.0543
176.0182,95.9732
176.0993,95.9190
176.1950,95.9000
179.0450,95.9000
179.1407,95.9190
179.2218,95.9732
179.2760,96.0543
179.2950,96.1500
179.2950,97.0500
179.2760,97.1457
179.2218,97.2268
179.1407,97.2810
179.0450,97.3000
Z" /> 
<path style="fill:#D864FF; fill-opacity:0.4000; stroke:none;fill-rule:evenodd;"
d="M 176.1950,91.2000
176.0993,91.1810
176.0182,91.1268
175.9640,91.0457
175.9450,90.9500
175.9450,90.0500
175.9640,89.9543
176.0182,89.8732
176.0993,89.8190
176.1950,89.8000
179.0450,89.8000
179.1407,89.8190
179.2218,89.8732
179.2760,89.9543
179.2950,90.0500
179.2950,90.9500
179.2760,91.0457
179.2218,91.1268
179.1407,91.1810
179.0450,91.2000
Z" /> 
<path style="fill:#D864FF; fill-opacity:0.4000; stroke:none;fill-rule:evenodd;"
d="M 207.8125,122.7875
207.7944,122.8784
207.7429,122.9554
207.6659,123.0069
207.5750,123.0250
207.0750,123.0250
206.9841,123.0069
206.9071,122.9554
206.8556,122.8784
206.8375,122.7875
206.8375,122.3125
206.8556,122.2216
206.9071,122.1446
206.9841,122.0931
207.0750,122.0750
207.5750,122.0750
207.6659,122.0931
207.7429,122.1446
207.7944,122.2216
207.8125,122.3125
Z" /> 
<path style="fill:#D864FF; fill-opacity:0.4000; stroke:none;fill-rule:evenodd;"
d="M 205.9875,122.7875
205.9694,122.8784
205.9179,122.9554
205.8409,123.0069
205.7500,123.0250
205.2500,123.0250
205.1591,123.0069
205.0821,122.9554
205.0306,122.8784
205.0125,122.7875
205.0125,122.3125
205.0306,122.2216
205.0821,122.1446
205.1591,122.0931
205.2500,122.0750
205.7500,122.0750
205.8409,122.0931
205.9179,122.1446
205.9694,122.2216
205.9875,122.3125
Z" /> 
<path style="fill:#D864FF; fill-opacity:0.4000; stroke:none;fill-rule:evenodd;"
d="M 206.6335,90.0760
206.6525,89.9803
206.7067,89.8992
206.7878,89.8450
206.8835,89.8260
207.5585,89.8260
207.6542,89.8450
207.7353,89.8992
207.7895,89.9803
207.8085,90.0760
207.8085,91.0260
207.7895,91.1217
207.7353,91.2028
207.6542,91.2570
207.5585,91.2760
206.8835,91.2760
206.7878,91.2570
206.7067,91.2028
206.6525,91.1217
206.6335,91.0260
Z" /> 
<path style="fill:#D864FF; fill-opacity:0.4000; stroke:none;fill-rule:evenodd;"
d="M 208.7085,90.0760
208.7275,89.9803
208.7817,89.8992
208.8628,89.8450
208.9585,89.8260
209.6335,89.8260
209.7292,89.8450
209.8103,89.8992
209.8645,89.9803
209.8835,90.0760
209.8835,91.0260
209.8645,91.1217
209.8103,91.2028
209.7292,91.2570
209.6335,91.2760
208.9585,91.2760
208.8628,91.2570
208.7817,91.2028
208.7275,91.1217
208.7085,91.0260
Z" /> 
</g>
<g style="fill:#D864FF; fill-opacity:0.4000; stroke:none;">
<circle cx="208.6600" cy="73.6200" r="0.4000" /> 
</g>
<g style="fill:#D864FF; fill-opacity:0.4000; stroke:none;">
<circle cx="209.3629" cy="71.9229" r="0.4000" /> 
</g>
<g style="fill:#D864FF; fill-opacity:0.4000; stroke:none;">
<circle cx="209.3629" cy="75.3171" r="0.4000" /> 
</g>
<g style="fill:#D864FF; fill-opacity:0.4000; stroke:none;">
<circle cx="211.0600" cy="71.2200" r="0.4000" /> 
</g>
<g style="fill:#D864FF; fill-opacity:0.4000; stroke:none;">
<circle cx="211.0600" cy="73.6200" r="3.2000" /> 
</g>
<g style="fill:#D864FF; fill-opacity:0.4000; stroke:none;">
<circle cx="211.0600" cy="76.0200" r="0.4000" /> 
</g>
<g style="fill:#D864FF; fill-opacity:0.4000; stroke:none;">
<circle cx="212.7571" cy="71.9229" r="0.4000" /> 
</g>
<g style="fill:#D864FF; fill-opacity:0.4000; stroke:none;">
<circle cx="212.7571" cy="75.3171" r="0.4000" /> 
</g>
<g style="fill:#D864FF; fill-opacity:0.4000; stroke:none;">
<circle cx="213.4600" cy="73.6200" r="0.4000" /> 
</g> 
</svg>
