<?xml version="1.0" standalone="no"?>
 <!DOCTYPE svg PUBLIC "-//W3C//DTD SVG 1.1//EN" 
 "http://www.w3.org/Graphics/SVG/1.1/DTD/svg11.dtd"> 
<svg
  xmlns:svg="http://www.w3.org/2000/svg"
  xmlns="http://www.w3.org/2000/svg"
  xmlns:xlink="http://www.w3.org/1999/xlink"
  version="1.1"
  width="297.0022mm" height="210.0072mm" viewBox="0.0000 0.0000 297.0022 210.0072">
<title>SVG Image created as SEPIC-A-In2_Cu.svg date 2024/09/18 14:40:37 </title>
  <desc>Image generated by PCBNEW </desc>
<g style="fill:#000000; fill-opacity:1.0000;stroke:#000000; stroke-opacity:1.0000;
stroke-linecap:round; stroke-linejoin:round;"
 transform="translate(0 0) scale(1 1)">
<path style="fill:#CE7D2C; fill-opacity:1.0000; 
stroke:#CE7D2C; stroke-width:0.0500; stroke-opacity:1; 
stroke-linecap:round; stroke-linejoin:round;fill-rule:evenodd;"
d="M 170.1100,117.9850
172.1800,117.9850
172.1800,119.9750
170.1100,119.9750
Z" /> 
</g>
<g style="fill:none; 
stroke:#CE7D2C; stroke-width:0.2000; stroke-opacity:1; 
stroke-linecap:round; stroke-linejoin:round;">
<path d="M170.8000 118.9000
L170.0000 118.9000
" />
<path style="fill:#CE7D2C; fill-opacity:1.0000; 
stroke:#CE7D2C; stroke-width:0.0010; stroke-opacity:1; 
stroke-linecap:round; stroke-linejoin:round;fill-rule:evenodd;"
d="M 161.0011,96.3600
166.2100,96.3600
166.2100,97.9600
161.0011,97.9600
Z" /> 
<path style="fill:#CE7D2C; fill-opacity:1.0000; 
stroke:#CE7D2C; stroke-width:0.0500; stroke-opacity:1; 
stroke-linecap:round; stroke-linejoin:round;fill-rule:evenodd;"
d="M 167.9400,117.9900
170.4400,117.9900
170.4400,119.9800
167.9400,119.9800
Z" /> 
</g>
<g style="fill:none; 
stroke:#CE7D2C; stroke-width:0.2000; stroke-opacity:1; 
stroke-linecap:round; stroke-linejoin:round;">
<path d="M164.8000 97.5000
L164.8000 98.2000
" />
<path style="fill:#CE7D2C; fill-opacity:1.0000; 
stroke:#CE7D2C; stroke-width:0.0500; stroke-opacity:1; 
stroke-linecap:round; stroke-linejoin:round;fill-rule:evenodd;"
d="M 168.5650,117.5200
170.9400,117.5200
170.9400,118.2700
168.5650,118.2700
Z" /> 
</g>
<g style="fill:none; 
stroke:#CE7D2C; stroke-width:0.2000; stroke-opacity:1; 
stroke-linecap:round; stroke-linejoin:round;">
<path d="M165.5000 98.2000
L164.8000 97.5000
" />
<path d="M164.1000 98.2000
L164.0750 97.5000
" />
<path d="M164.1000 98.2000
L164.8000 98.2000
" />
<path d="M164.8000 98.2000
L165.5000 98.2000
" />
<path style="fill:#CE7D2C; fill-opacity:1.0000; 
stroke:#CE7D2C; stroke-width:0.0010; stroke-opacity:1; 
stroke-linecap:round; stroke-linejoin:round;fill-rule:evenodd;"
d="M 161.8900,97.8200
166.2077,97.8200
166.2077,98.9800
161.8900,98.9800
Z" /> 
<path style="fill:#CE7D2C; fill-opacity:1.0000; stroke:none;fill-rule:evenodd;"
d="M 163.2025,131.0075
163.2025,128.0525
166.1575,128.0525
166.1575,131.0075
Z" /> 
</g>
<g style="fill:#CE7D2C; fill-opacity:1.0000; stroke:none;">
<circle cx="180.1800" cy="129.5300" r="1.4775" /> 
<path style="fill:#CE7D2C; fill-opacity:1.0000; stroke:none;fill-rule:evenodd;"
d="M 163.5625,64.7675
163.5625,61.8125
166.5175,61.8125
166.5175,64.7675
Z" /> 
</g>
<g style="fill:#CE7D2C; fill-opacity:1.0000; stroke:none;">
<circle cx="180.5400" cy="63.2900" r="1.4775" /> 
</g>
<g style="fill:#CE7D2C; fill-opacity:1.0000; stroke:none;">
<circle cx="158.7300" cy="73.6271" r="0.4000" /> 
</g>
<g style="fill:#CE7D2C; fill-opacity:1.0000; stroke:none;">
<circle cx="159.4329" cy="71.9300" r="0.4000" /> 
</g>
<g style="fill:#CE7D2C; fill-opacity:1.0000; stroke:none;">
<circle cx="159.4329" cy="75.3241" r="0.4000" /> 
</g>
<g style="fill:#CE7D2C; fill-opacity:1.0000; stroke:none;">
<circle cx="161.1300" cy="71.2271" r="0.4000" /> 
</g>
<g style="fill:#CE7D2C; fill-opacity:1.0000; stroke:none;">
<circle cx="161.1300" cy="73.6271" r="3.2000" /> 
</g>
<g style="fill:#CE7D2C; fill-opacity:1.0000; stroke:none;">
<circle cx="161.1300" cy="76.0271" r="0.4000" /> 
</g>
<g style="fill:#CE7D2C; fill-opacity:1.0000; stroke:none;">
<circle cx="162.8271" cy="71.9300" r="0.4000" /> 
</g>
<g style="fill:#CE7D2C; fill-opacity:1.0000; stroke:none;">
<circle cx="162.8271" cy="75.3241" r="0.4000" /> 
</g>
<g style="fill:#CE7D2C; fill-opacity:1.0000; stroke:none;">
<circle cx="163.5300" cy="73.6271" r="0.4000" /> 
</g>
<g style="fill:#CE7D2C; fill-opacity:1.0000; stroke:none;">
<circle cx="207.1900" cy="130.1200" r="1.4775" /> 
</g>
<g style="fill:#CE7D2C; fill-opacity:1.0000; stroke:none;">
<circle cx="191.6900" cy="130.1200" r="1.4775" /> 
</g>
<g style="fill:#CE7D2C; fill-opacity:1.0000; stroke:none;">
<circle cx="208.6600" cy="119.8200" r="0.4000" /> 
</g>
<g style="fill:#CE7D2C; fill-opacity:1.0000; stroke:none;">
<circle cx="209.3629" cy="118.1229" r="0.4000" /> 
</g>
<g style="fill:#CE7D2C; fill-opacity:1.0000; stroke:none;">
<circle cx="209.3629" cy="121.5171" r="0.4000" /> 
</g>
<g style="fill:#CE7D2C; fill-opacity:1.0000; stroke:none;">
<circle cx="211.0600" cy="117.4200" r="0.4000" /> 
</g>
<g style="fill:#CE7D2C; fill-opacity:1.0000; stroke:none;">
<circle cx="211.0600" cy="119.8200" r="3.2000" /> 
</g>
<g style="fill:#CE7D2C; fill-opacity:1.0000; stroke:none;">
<circle cx="211.0600" cy="122.2200" r="0.4000" /> 
</g>
<g style="fill:#CE7D2C; fill-opacity:1.0000; stroke:none;">
<circle cx="212.7571" cy="118.1229" r="0.4000" /> 
</g>
<g style="fill:#CE7D2C; fill-opacity:1.0000; stroke:none;">
<circle cx="212.7571" cy="121.5171" r="0.4000" /> 
</g>
<g style="fill:#CE7D2C; fill-opacity:1.0000; stroke:none;">
<circle cx="213.4600" cy="119.8200" r="0.4000" /> 
</g>
<g style="fill:#CE7D2C; fill-opacity:1.0000; stroke:none;">
<circle cx="207.5000" cy="63.8350" r="1.4775" /> 
</g>
<g style="fill:#CE7D2C; fill-opacity:1.0000; stroke:none;">
<circle cx="192.0000" cy="63.8350" r="1.4775" /> 
</g>
<g style="fill:#CE7D2C; fill-opacity:1.0000; stroke:none;">
<circle cx="158.7300" cy="119.8200" r="0.4000" /> 
</g>
<g style="fill:#CE7D2C; fill-opacity:1.0000; stroke:none;">
<circle cx="159.4329" cy="118.1229" r="0.4000" /> 
</g>
<g style="fill:#CE7D2C; fill-opacity:1.0000; stroke:none;">
<circle cx="159.4329" cy="121.5171" r="0.4000" /> 
</g>
<g style="fill:#CE7D2C; fill-opacity:1.0000; stroke:none;">
<circle cx="161.1300" cy="117.4200" r="0.4000" /> 
</g>
<g style="fill:#CE7D2C; fill-opacity:1.0000; stroke:none;">
<circle cx="161.1300" cy="119.8200" r="3.2000" /> 
</g>
<g style="fill:#CE7D2C; fill-opacity:1.0000; stroke:none;">
<circle cx="161.1300" cy="122.2200" r="0.4000" /> 
</g>
<g style="fill:#CE7D2C; fill-opacity:1.0000; stroke:none;">
<circle cx="162.8271" cy="118.1229" r="0.4000" /> 
</g>
<g style="fill:#CE7D2C; fill-opacity:1.0000; stroke:none;">
<circle cx="162.8271" cy="121.5171" r="0.4000" /> 
</g>
<g style="fill:#CE7D2C; fill-opacity:1.0000; stroke:none;">
<circle cx="163.5300" cy="119.8200" r="0.4000" /> 
</g>
<g style="fill:#CE7D2C; fill-opacity:1.0000; stroke:none;">
<circle cx="208.6600" cy="73.6200" r="0.4000" /> 
</g>
<g style="fill:#CE7D2C; fill-opacity:1.0000; stroke:none;">
<circle cx="209.3629" cy="71.9229" r="0.4000" /> 
</g>
<g style="fill:#CE7D2C; fill-opacity:1.0000; stroke:none;">
<circle cx="209.3629" cy="75.3171" r="0.4000" /> 
</g>
<g style="fill:#CE7D2C; fill-opacity:1.0000; stroke:none;">
<circle cx="211.0600" cy="71.2200" r="0.4000" /> 
</g>
<g style="fill:#CE7D2C; fill-opacity:1.0000; stroke:none;">
<circle cx="211.0600" cy="73.6200" r="3.2000" /> 
</g>
<g style="fill:#CE7D2C; fill-opacity:1.0000; stroke:none;">
<circle cx="211.0600" cy="76.0200" r="0.4000" /> 
</g>
<g style="fill:#CE7D2C; fill-opacity:1.0000; stroke:none;">
<circle cx="212.7571" cy="71.9229" r="0.4000" /> 
</g>
<g style="fill:#CE7D2C; fill-opacity:1.0000; stroke:none;">
<circle cx="212.7571" cy="75.3171" r="0.4000" /> 
</g>
<g style="fill:#CE7D2C; fill-opacity:1.0000; stroke:none;">
<circle cx="213.4600" cy="73.6200" r="0.4000" /> 
</g>
<g style="fill:#ECECEC; fill-opacity:1.0000; stroke:none;">
<circle cx="159.0040" cy="79.9760" r="0.3000" /> 
</g>
<g style="fill:#ECECEC; fill-opacity:1.0000; stroke:none;">
<circle cx="182.4710" cy="134.4930" r="0.3000" /> 
</g>
<g style="fill:#ECECEC; fill-opacity:1.0000; stroke:none;">
<circle cx="212.9790" cy="100.5950" r="0.3000" /> 
</g>
<g style="fill:#ECECEC; fill-opacity:1.0000; stroke:none;">
<circle cx="159.0040" cy="109.9760" r="0.3000" /> 
</g>
<g style="fill:#ECECEC; fill-opacity:1.0000; stroke:none;">
<circle cx="186.0000" cy="59.0000" r="0.3000" /> 
</g>
<g style="fill:#ECECEC; fill-opacity:1.0000; stroke:none;">
<circle cx="198.0000" cy="59.0000" r="0.3000" /> 
</g>
<g style="fill:#ECECEC; fill-opacity:1.0000; stroke:none;">
<circle cx="212.9790" cy="103.5950" r="0.3000" /> 
</g>
<g style="fill:#ECECEC; fill-opacity:1.0000; stroke:none;">
<circle cx="159.0040" cy="130.8100" r="0.3000" /> 
</g>
<g style="fill:#ECECEC; fill-opacity:1.0000; stroke:none;">
<circle cx="212.8520" cy="132.2070" r="0.3000" /> 
</g>
<g style="fill:#ECECEC; fill-opacity:1.0000; stroke:none;">
<circle cx="164.4710" cy="134.4930" r="0.3000" /> 
</g>
<g style="fill:#ECECEC; fill-opacity:1.0000; stroke:none;">
<circle cx="212.9790" cy="67.5950" r="0.3000" /> 
</g>
<g style="fill:#ECECEC; fill-opacity:1.0000; stroke:none;">
<circle cx="212.8520" cy="126.6670" r="0.3000" /> 
</g>
<g style="fill:#ECECEC; fill-opacity:1.0000; stroke:none;">
<circle cx="204.0000" cy="59.0000" r="0.3000" /> 
</g>
<g style="fill:#ECECEC; fill-opacity:1.0000; stroke:none;">
<circle cx="185.4710" cy="134.4930" r="0.3000" /> 
</g>
<g style="fill:#ECECEC; fill-opacity:1.0000; stroke:none;">
<circle cx="212.9790" cy="82.5950" r="0.3000" /> 
</g>
<g style="fill:#ECECEC; fill-opacity:1.0000; stroke:none;">
<circle cx="212.8520" cy="123.6670" r="0.3000" /> 
</g>
<g style="fill:#ECECEC; fill-opacity:1.0000; stroke:none;">
<circle cx="168.0000" cy="59.0000" r="0.3000" /> 
</g>
<g style="fill:#ECECEC; fill-opacity:1.0000; stroke:none;">
<circle cx="165.0000" cy="59.0000" r="0.3000" /> 
</g>
<g style="fill:#ECECEC; fill-opacity:1.0000; stroke:none;">
<circle cx="161.4710" cy="134.4930" r="0.3000" /> 
</g>
<g style="fill:#ECECEC; fill-opacity:1.0000; stroke:none;">
<circle cx="159.0040" cy="82.9760" r="0.3000" /> 
</g>
<g style="fill:#ECECEC; fill-opacity:1.0000; stroke:none;">
<circle cx="212.8520" cy="134.4930" r="0.3000" /> 
</g>
<g style="fill:#ECECEC; fill-opacity:1.0000; stroke:none;">
<circle cx="176.4710" cy="134.4930" r="0.3000" /> 
</g>
<g style="fill:#ECECEC; fill-opacity:1.0000; stroke:none;">
<circle cx="206.4710" cy="134.4930" r="0.3000" /> 
</g>
<g style="fill:#ECECEC; fill-opacity:1.0000; stroke:none;">
<circle cx="159.0040" cy="61.9760" r="0.3000" /> 
</g>
<g style="fill:#ECECEC; fill-opacity:1.0000; stroke:none;">
<circle cx="159.0000" cy="59.0000" r="0.3000" /> 
</g>
<g style="fill:#ECECEC; fill-opacity:1.0000; stroke:none;">
<circle cx="179.4710" cy="134.4930" r="0.3000" /> 
</g>
<g style="fill:#ECECEC; fill-opacity:1.0000; stroke:none;">
<circle cx="159.0040" cy="124.8100" r="0.3000" /> 
</g>
<g style="fill:#ECECEC; fill-opacity:1.0000; stroke:none;">
<circle cx="183.0000" cy="59.0000" r="0.3000" /> 
</g>
<g style="fill:#ECECEC; fill-opacity:1.0000; stroke:none;">
<circle cx="159.0040" cy="85.9760" r="0.3000" /> 
</g>
<g style="fill:#ECECEC; fill-opacity:1.0000; stroke:none;">
<circle cx="188.4710" cy="134.4930" r="0.3000" /> 
</g>
<g style="fill:#ECECEC; fill-opacity:1.0000; stroke:none;">
<circle cx="197.4710" cy="134.4930" r="0.3000" /> 
</g>
<g style="fill:#ECECEC; fill-opacity:1.0000; stroke:none;">
<circle cx="159.0040" cy="88.9760" r="0.3000" /> 
</g>
<g style="fill:#ECECEC; fill-opacity:1.0000; stroke:none;">
<circle cx="159.0040" cy="64.9760" r="0.3000" /> 
</g>
<g style="fill:#ECECEC; fill-opacity:1.0000; stroke:none;">
<circle cx="200.4710" cy="134.4930" r="0.3000" /> 
</g>
<g style="fill:#ECECEC; fill-opacity:1.0000; stroke:none;">
<circle cx="195.0000" cy="59.0000" r="0.3000" /> 
</g>
<g style="fill:#ECECEC; fill-opacity:1.0000; stroke:none;">
<circle cx="203.4710" cy="134.4930" r="0.3000" /> 
</g>
<g style="fill:#ECECEC; fill-opacity:1.0000; stroke:none;">
<circle cx="194.4710" cy="134.4930" r="0.3000" /> 
</g>
<g style="fill:#ECECEC; fill-opacity:1.0000; stroke:none;">
<circle cx="213.0000" cy="59.0000" r="0.3000" /> 
</g>
<g style="fill:#ECECEC; fill-opacity:1.0000; stroke:none;">
<circle cx="159.0040" cy="106.9760" r="0.3000" /> 
</g>
<g style="fill:#ECECEC; fill-opacity:1.0000; stroke:none;">
<circle cx="159.0040" cy="103.9760" r="0.3000" /> 
</g>
<g style="fill:#ECECEC; fill-opacity:1.0000; stroke:none;">
<circle cx="212.9790" cy="97.5950" r="0.3000" /> 
</g>
<g style="fill:#ECECEC; fill-opacity:1.0000; stroke:none;">
<circle cx="159.0040" cy="67.9760" r="0.3000" /> 
</g>
<g style="fill:#ECECEC; fill-opacity:1.0000; stroke:none;">
<circle cx="212.9790" cy="94.5950" r="0.3000" /> 
</g>
<g style="fill:#ECECEC; fill-opacity:1.0000; stroke:none;">
<circle cx="212.9790" cy="91.5950" r="0.3000" /> 
</g>
<g style="fill:#ECECEC; fill-opacity:1.0000; stroke:none;">
<circle cx="201.0000" cy="59.0000" r="0.3000" /> 
</g>
<g style="fill:#ECECEC; fill-opacity:1.0000; stroke:none;">
<circle cx="189.0000" cy="59.0000" r="0.3000" /> 
</g>
<g style="fill:#ECECEC; fill-opacity:1.0000; stroke:none;">
<circle cx="159.0040" cy="94.9760" r="0.3000" /> 
</g>
<g style="fill:#ECECEC; fill-opacity:1.0000; stroke:none;">
<circle cx="212.9790" cy="88.5950" r="0.3000" /> 
</g>
<g style="fill:#ECECEC; fill-opacity:1.0000; stroke:none;">
<circle cx="180.0000" cy="59.0000" r="0.3000" /> 
</g>
<g style="fill:#ECECEC; fill-opacity:1.0000; stroke:none;">
<circle cx="210.0000" cy="59.0000" r="0.3000" /> 
</g>
<g style="fill:#ECECEC; fill-opacity:1.0000; stroke:none;">
<circle cx="207.0000" cy="59.0000" r="0.3000" /> 
</g>
<g style="fill:#ECECEC; fill-opacity:1.0000; stroke:none;">
<circle cx="212.9790" cy="109.5950" r="0.3000" /> 
</g>
<g style="fill:#ECECEC; fill-opacity:1.0000; stroke:none;">
<circle cx="212.9790" cy="115.5950" r="0.3000" /> 
</g>
<g style="fill:#ECECEC; fill-opacity:1.0000; stroke:none;">
<circle cx="170.4710" cy="134.4930" r="0.3000" /> 
</g>
<g style="fill:#ECECEC; fill-opacity:1.0000; stroke:none;">
<circle cx="212.9790" cy="64.5950" r="0.3000" /> 
</g>
<g style="fill:#ECECEC; fill-opacity:1.0000; stroke:none;">
<circle cx="212.9790" cy="79.5950" r="0.3000" /> 
</g>
<g style="fill:#ECECEC; fill-opacity:1.0000; stroke:none;">
<circle cx="167.4710" cy="134.4930" r="0.3000" /> 
</g>
<g style="fill:#ECECEC; fill-opacity:1.0000; stroke:none;">
<circle cx="212.8520" cy="129.6670" r="0.3000" /> 
</g>
<g style="fill:#ECECEC; fill-opacity:1.0000; stroke:none;">
<circle cx="209.4710" cy="134.4930" r="0.3000" /> 
</g>
<g style="fill:#ECECEC; fill-opacity:1.0000; stroke:none;">
<circle cx="212.9790" cy="61.5950" r="0.3000" /> 
</g>
<g style="fill:#ECECEC; fill-opacity:1.0000; stroke:none;">
<circle cx="177.0000" cy="59.0000" r="0.3000" /> 
</g>
<g style="fill:#ECECEC; fill-opacity:1.0000; stroke:none;">
<circle cx="192.0000" cy="59.0000" r="0.3000" /> 
</g>
<g style="fill:#ECECEC; fill-opacity:1.0000; stroke:none;">
<circle cx="212.9790" cy="106.5950" r="0.3000" /> 
</g>
<g style="fill:#ECECEC; fill-opacity:1.0000; stroke:none;">
<circle cx="159.0040" cy="100.9760" r="0.3000" /> 
</g>
<g style="fill:#ECECEC; fill-opacity:1.0000; stroke:none;">
<circle cx="162.0000" cy="59.0000" r="0.3000" /> 
</g>
<g style="fill:#ECECEC; fill-opacity:1.0000; stroke:none;">
<circle cx="159.0040" cy="115.9760" r="0.3000" /> 
</g>
<g style="fill:#ECECEC; fill-opacity:1.0000; stroke:none;">
<circle cx="159.0040" cy="134.4930" r="0.3000" /> 
</g>
<g style="fill:#ECECEC; fill-opacity:1.0000; stroke:none;">
<circle cx="212.9790" cy="112.5950" r="0.3000" /> 
</g>
<g style="fill:#ECECEC; fill-opacity:1.0000; stroke:none;">
<circle cx="174.0000" cy="59.0000" r="0.3000" /> 
</g>
<g style="fill:#ECECEC; fill-opacity:1.0000; stroke:none;">
<circle cx="173.4710" cy="134.4930" r="0.3000" /> 
</g>
<g style="fill:#ECECEC; fill-opacity:1.0000; stroke:none;">
<circle cx="191.4710" cy="134.4930" r="0.3000" /> 
</g>
<g style="fill:#ECECEC; fill-opacity:1.0000; stroke:none;">
<circle cx="159.0040" cy="112.9760" r="0.3000" /> 
</g>
<g style="fill:#ECECEC; fill-opacity:1.0000; stroke:none;">
<circle cx="159.0040" cy="97.9760" r="0.3000" /> 
</g>
<g style="fill:#ECECEC; fill-opacity:1.0000; stroke:none;">
<circle cx="159.0040" cy="127.8100" r="0.3000" /> 
</g>
<g style="fill:#ECECEC; fill-opacity:1.0000; stroke:none;">
<circle cx="159.0040" cy="91.9760" r="0.3000" /> 
</g>
<g style="fill:#ECECEC; fill-opacity:1.0000; stroke:none;">
<circle cx="171.0000" cy="59.0000" r="0.3000" /> 
</g>
<g style="fill:#ECECEC; fill-opacity:1.0000; stroke:none;">
<circle cx="212.9790" cy="85.5950" r="0.3000" /> 
</g>
<g style="fill:#ECECEC; fill-opacity:1.0000; stroke:none;">
<circle cx="198.9000" cy="106.8000" r="0.3000" /> 
</g>
<g style="fill:#ECECEC; fill-opacity:1.0000; stroke:none;">
<circle cx="198.2000" cy="106.8000" r="0.3000" /> 
</g>
<g style="fill:#ECECEC; fill-opacity:1.0000; stroke:none;">
<circle cx="198.3000" cy="107.5000" r="0.3000" /> 
</g>
<g style="fill:#ECECEC; fill-opacity:1.0000; stroke:none;">
<circle cx="205.7000" cy="76.5000" r="0.3000" /> 
</g>
<g style="fill:#ECECEC; fill-opacity:1.0000; stroke:none;">
<circle cx="206.3000" cy="76.8000" r="0.3000" /> 
</g>
<g style="fill:#ECECEC; fill-opacity:1.0000; stroke:none;">
<circle cx="205.7000" cy="78.6000" r="0.3000" /> 
</g>
<g style="fill:#ECECEC; fill-opacity:1.0000; stroke:none;">
<circle cx="206.3000" cy="77.6000" r="0.3000" /> 
</g>
<g style="fill:#ECECEC; fill-opacity:1.0000; stroke:none;">
<circle cx="205.7000" cy="77.2000" r="0.3000" /> 
</g>
<g style="fill:#ECECEC; fill-opacity:1.0000; stroke:none;">
<circle cx="205.7000" cy="80.0000" r="0.3000" /> 
</g>
<g style="fill:#ECECEC; fill-opacity:1.0000; stroke:none;">
<circle cx="206.3000" cy="78.3000" r="0.3000" /> 
</g>
<g style="fill:#ECECEC; fill-opacity:1.0000; stroke:none;">
<circle cx="206.4000" cy="117.6000" r="0.3000" /> 
</g>
<g style="fill:#ECECEC; fill-opacity:1.0000; stroke:none;">
<circle cx="205.7000" cy="77.9000" r="0.3000" /> 
</g>
<g style="fill:#ECECEC; fill-opacity:1.0000; stroke:none;">
<circle cx="205.7000" cy="79.3000" r="0.3000" /> 
</g>
<g style="fill:#ECECEC; fill-opacity:1.0000; stroke:none;">
<circle cx="205.8670" cy="90.5510" r="0.3000" /> 
</g>
<g style="fill:#ECECEC; fill-opacity:1.0000; stroke:none;">
<circle cx="197.9000" cy="86.0000" r="0.3000" /> 
</g>
<g style="fill:#ECECEC; fill-opacity:1.0000; stroke:none;">
<circle cx="166.8750" cy="116.7250" r="0.3000" /> 
</g>
<g style="fill:#ECECEC; fill-opacity:1.0000; stroke:none;">
<circle cx="169.3500" cy="74.6250" r="0.3000" /> 
</g>
<g style="fill:#ECECEC; fill-opacity:1.0000; stroke:none;">
<circle cx="176.0220" cy="99.9490" r="0.3000" /> 
</g>
<g style="fill:#ECECEC; fill-opacity:1.0000; stroke:none;">
<circle cx="197.2000" cy="86.0000" r="0.3000" /> 
</g>
<g style="fill:#ECECEC; fill-opacity:1.0000; stroke:none;">
<circle cx="196.4000" cy="86.0000" r="0.3000" /> 
</g>
<g style="fill:#ECECEC; fill-opacity:1.0000; stroke:none;">
<circle cx="171.9776" cy="75.7765" r="0.3000" /> 
</g>
<g style="fill:#ECECEC; fill-opacity:1.0000; stroke:none;">
<circle cx="186.5000" cy="106.5000" r="0.3000" /> 
</g>
<g style="fill:#ECECEC; fill-opacity:1.0000; stroke:none;">
<circle cx="186.5000" cy="107.2000" r="0.3000" /> 
</g>
<g style="fill:#ECECEC; fill-opacity:1.0000; stroke:none;">
<circle cx="162.8700" cy="93.1500" r="0.3000" /> 
</g>
<g style="fill:#ECECEC; fill-opacity:1.0000; stroke:none;">
<circle cx="167.0000" cy="77.8000" r="0.3000" /> 
</g>
<g style="fill:#ECECEC; fill-opacity:1.0000; stroke:none;">
<circle cx="177.9000" cy="98.7000" r="0.3000" /> 
</g>
<g style="fill:#ECECEC; fill-opacity:1.0000; stroke:none;">
<circle cx="177.4000" cy="74.5000" r="0.3000" /> 
</g>
<g style="fill:#ECECEC; fill-opacity:1.0000; stroke:none;">
<circle cx="177.4000" cy="75.3000" r="0.3000" /> 
</g>
<g style="fill:#ECECEC; fill-opacity:1.0000; stroke:none;">
<circle cx="178.2000" cy="73.0000" r="0.3000" /> 
</g>
<g style="fill:#ECECEC; fill-opacity:1.0000; stroke:none;">
<circle cx="180.7000" cy="73.8000" r="0.3000" /> 
</g>
<g style="fill:#ECECEC; fill-opacity:1.0000; stroke:none;">
<circle cx="178.2000" cy="75.3000" r="0.3000" /> 
</g>
<g style="fill:#ECECEC; fill-opacity:1.0000; stroke:none;">
<circle cx="177.4000" cy="73.0000" r="0.3000" /> 
</g>
<g style="fill:#ECECEC; fill-opacity:1.0000; stroke:none;">
<circle cx="179.8000" cy="73.0000" r="0.3000" /> 
</g>
<g style="fill:#ECECEC; fill-opacity:1.0000; stroke:none;">
<circle cx="180.7000" cy="75.3000" r="0.3000" /> 
</g>
<g style="fill:#ECECEC; fill-opacity:1.0000; stroke:none;">
<circle cx="180.7000" cy="73.0000" r="0.3000" /> 
</g>
<g style="fill:#ECECEC; fill-opacity:1.0000; stroke:none;">
<circle cx="179.0000" cy="73.0000" r="0.3000" /> 
</g>
<g style="fill:#ECECEC; fill-opacity:1.0000; stroke:none;">
<circle cx="177.4000" cy="73.8000" r="0.3000" /> 
</g>
<g style="fill:#ECECEC; fill-opacity:1.0000; stroke:none;">
<circle cx="179.9000" cy="75.3000" r="0.3000" /> 
</g>
<g style="fill:#ECECEC; fill-opacity:1.0000; stroke:none;">
<circle cx="195.1000" cy="86.0000" r="0.3000" /> 
</g>
<g style="fill:#ECECEC; fill-opacity:1.0000; stroke:none;">
<circle cx="180.7000" cy="74.6000" r="0.3000" /> 
</g>
<g style="fill:#ECECEC; fill-opacity:1.0000; stroke:none;">
<circle cx="194.0000" cy="86.0000" r="0.3000" /> 
</g>
<g style="fill:#ECECEC; fill-opacity:1.0000; stroke:none;">
<circle cx="179.1000" cy="75.3000" r="0.3000" /> 
</g>
<g style="fill:#ECECEC; fill-opacity:1.0000; stroke:none;">
<circle cx="179.3200" cy="76.9600" r="0.3000" /> 
</g>
<g style="fill:#ECECEC; fill-opacity:1.0000; stroke:none;">
<circle cx="178.4000" cy="77.5400" r="0.3000" /> 
</g>
<g style="fill:#ECECEC; fill-opacity:1.0000; stroke:none;">
<circle cx="179.0300" cy="77.5400" r="0.3000" /> 
</g>
<g style="fill:#ECECEC; fill-opacity:1.0000; stroke:none;">
<circle cx="179.6600" cy="77.5400" r="0.3000" /> 
</g>
<g style="fill:#ECECEC; fill-opacity:1.0000; stroke:none;">
<circle cx="177.6000" cy="78.4000" r="0.3000" /> 
</g>
<g style="fill:#ECECEC; fill-opacity:1.0000; stroke:none;">
<circle cx="179.9400" cy="76.9400" r="0.3000" /> 
</g>
<g style="fill:#ECECEC; fill-opacity:1.0000; stroke:none;">
<circle cx="177.6000" cy="77.8000" r="0.3000" /> 
</g>
<g style="fill:#ECECEC; fill-opacity:1.0000; stroke:none;">
<circle cx="178.0900" cy="76.9600" r="0.3000" /> 
</g>
<g style="fill:#ECECEC; fill-opacity:1.0000; stroke:none;">
<circle cx="177.6000" cy="79.0000" r="0.3000" /> 
</g>
<g style="fill:#ECECEC; fill-opacity:1.0000; stroke:none;">
<circle cx="178.7000" cy="76.9600" r="0.3000" /> 
</g>
<g style="fill:#ECECEC; fill-opacity:1.0000; stroke:none;">
<circle cx="179.6000" cy="85.0000" r="0.3000" /> 
</g>
<g style="fill:#ECECEC; fill-opacity:1.0000; stroke:none;">
<circle cx="180.5000" cy="84.4000" r="0.3000" /> 
</g>
<g style="fill:#ECECEC; fill-opacity:1.0000; stroke:none;">
<circle cx="178.0600" cy="84.4600" r="0.3000" /> 
</g>
<g style="fill:#ECECEC; fill-opacity:1.0000; stroke:none;">
<circle cx="178.7800" cy="84.4500" r="0.3000" /> 
</g>
<g style="fill:#ECECEC; fill-opacity:1.0000; stroke:none;">
<circle cx="179.6000" cy="84.0000" r="0.3000" /> 
</g>
<g style="fill:#ECECEC; fill-opacity:1.0000; stroke:none;">
<circle cx="181.3000" cy="84.4000" r="0.3000" /> 
</g>
<g style="fill:#ECECEC; fill-opacity:1.0000; stroke:none;">
<circle cx="181.3900" cy="90.7500" r="0.3000" /> 
</g>
<g style="fill:#ECECEC; fill-opacity:1.0000; stroke:none;">
<circle cx="174.4190" cy="90.4402" r="0.3000" /> 
</g>
<g style="fill:#ECECEC; fill-opacity:1.0000; stroke:none;">
<circle cx="169.2000" cy="119.6000" r="0.3000" /> 
</g>
<g style="fill:#ECECEC; fill-opacity:1.0000; stroke:none;">
<circle cx="169.2000" cy="118.9000" r="0.3000" /> 
</g>
<g style="fill:#ECECEC; fill-opacity:1.0000; stroke:none;">
<circle cx="168.5000" cy="118.9000" r="0.3000" /> 
</g>
<g style="fill:#ECECEC; fill-opacity:1.0000; stroke:none;">
<circle cx="169.9000" cy="118.9000" r="0.3000" /> 
</g>
<g style="fill:#ECECEC; fill-opacity:1.0000; stroke:none;">
<circle cx="169.9000" cy="119.6000" r="0.3000" /> 
</g>
<g style="fill:#ECECEC; fill-opacity:1.0000; stroke:none;">
<circle cx="173.3000" cy="80.3000" r="0.3000" /> 
</g>
<g style="fill:#ECECEC; fill-opacity:1.0000; stroke:none;">
<circle cx="172.8000" cy="75.7000" r="0.3000" /> 
</g>
<g style="fill:#ECECEC; fill-opacity:1.0000; stroke:none;">
<circle cx="181.2000" cy="93.6000" r="0.3000" /> 
</g>
<g style="fill:#ECECEC; fill-opacity:1.0000; stroke:none;">
<circle cx="164.0800" cy="97.5000" r="0.3000" /> 
</g>
<g style="fill:#ECECEC; fill-opacity:1.0000; stroke:none;">
<circle cx="181.9000" cy="93.6000" r="0.3000" /> 
</g>
<g style="fill:#ECECEC; fill-opacity:1.0000; stroke:none;">
<circle cx="180.5000" cy="93.6000" r="0.3000" /> 
</g>
<g style="fill:#ECECEC; fill-opacity:1.0000; stroke:none;">
<circle cx="172.8000" cy="74.3000" r="0.3000" /> 
</g>
<g style="fill:#ECECEC; fill-opacity:1.0000; stroke:none;">
<circle cx="172.8000" cy="75.0000" r="0.3000" /> 
</g>
<g style="fill:#ECECEC; fill-opacity:1.0000; stroke:none;">
<circle cx="179.8000" cy="93.6000" r="0.3000" /> 
</g>
<g style="fill:#ECECEC; fill-opacity:1.0000; stroke:none;">
<circle cx="172.7000" cy="82.2900" r="0.3000" /> 
</g>
<g style="fill:#ECECEC; fill-opacity:1.0000; stroke:none;">
<circle cx="172.7000" cy="82.9400" r="0.3000" /> 
</g>
<g style="fill:#ECECEC; fill-opacity:1.0000; stroke:none;">
<circle cx="170.8000" cy="118.9000" r="0.3000" /> 
</g>
<g style="fill:#ECECEC; fill-opacity:1.0000; stroke:none;">
<circle cx="172.0000" cy="74.3000" r="0.3000" /> 
</g>
<g style="fill:#ECECEC; fill-opacity:1.0000; stroke:none;">
<circle cx="172.7000" cy="80.3000" r="0.3000" /> 
</g>
<g style="fill:#ECECEC; fill-opacity:1.0000; stroke:none;">
<circle cx="172.7000" cy="81.6500" r="0.3000" /> 
</g>
<g style="fill:#ECECEC; fill-opacity:1.0000; stroke:none;">
<circle cx="172.0000" cy="75.0000" r="0.3000" /> 
</g>
<g style="fill:#ECECEC; fill-opacity:1.0000; stroke:none;">
<circle cx="170.9450" cy="94.1900" r="0.3000" /> 
</g>
<g style="fill:#ECECEC; fill-opacity:1.0000; stroke:none;">
<circle cx="172.7000" cy="80.9500" r="0.3000" /> 
</g>
<g style="fill:#ECECEC; fill-opacity:1.0000; stroke:none;">
<circle cx="162.5000" cy="86.7000" r="0.3000" /> 
</g>
<g style="fill:#ECECEC; fill-opacity:1.0000; stroke:none;">
<circle cx="164.8000" cy="97.5000" r="0.3000" /> 
</g>
<g style="fill:#ECECEC; fill-opacity:1.0000; stroke:none;">
<circle cx="164.4000" cy="88.1000" r="0.3000" /> 
</g>
<g style="fill:#ECECEC; fill-opacity:1.0000; stroke:none;">
<circle cx="165.5000" cy="98.2000" r="0.3000" /> 
</g>
<g style="fill:#ECECEC; fill-opacity:1.0000; stroke:none;">
<circle cx="164.8000" cy="98.2000" r="0.3000" /> 
</g>
<g style="fill:#ECECEC; fill-opacity:1.0000; stroke:none;">
<circle cx="164.1000" cy="98.2000" r="0.3000" /> 
</g>
<g style="fill:#ECECEC; fill-opacity:1.0000; stroke:none;">
<circle cx="162.5000" cy="87.5000" r="0.3000" /> 
</g>
<g style="fill:#ECECEC; fill-opacity:1.0000; stroke:none;">
<circle cx="193.4000" cy="98.3000" r="0.3000" /> 
</g>
<g style="fill:#ECECEC; fill-opacity:1.0000; stroke:none;">
<circle cx="193.4000" cy="97.6000" r="0.3000" /> 
</g>
<g style="fill:#ECECEC; fill-opacity:1.0000; stroke:none;">
<circle cx="192.7000" cy="98.3000" r="0.3000" /> 
</g>
<g style="fill:#ECECEC; fill-opacity:1.0000; stroke:none;">
<circle cx="172.3100" cy="72.8200" r="0.3000" /> 
</g>
<g style="fill:#ECECEC; fill-opacity:1.0000; stroke:none;">
<circle cx="168.2000" cy="97.0400" r="0.3000" /> 
</g>
<g style="fill:#ECECEC; fill-opacity:1.0000; stroke:none;">
<circle cx="171.3200" cy="83.5100" r="0.3000" /> 
</g>
<g style="fill:#ECECEC; fill-opacity:1.0000; stroke:none;">
<circle cx="170.7000" cy="97.1000" r="0.3000" /> 
<path style="fill:#CE7D2C; fill-opacity:1.0000; stroke:none;fill-rule:evenodd;"
d="M 172.8430,100.6197
172.8888,100.6725
172.9000,100.7240
172.9000,106.4760
172.8803,106.5430
172.8275,106.5888
172.7760,106.6000
166.6240,106.6000
166.5570,106.5803
166.5112,106.5275
166.5000,106.4760
166.5000,100.7240
166.5197,100.6570
166.5725,100.6112
166.6240,100.6000
172.7760,100.6000
Z" /> 
<path style="fill:#CE7D2C; fill-opacity:1.0000; stroke:none;fill-rule:evenodd;"
d="M 214.5262,58.2197
214.5932,58.2396
214.6388,58.2925
214.6499,58.3438
214.6001,135.1672
214.5804,135.2343
214.5275,135.2800
214.4772,135.2911
159.7764,135.7995
159.7753,135.7995
157.6939,135.7995
157.6269,135.7798
157.5811,135.7270
157.5699,135.6756
157.5697,135.2343
157.5513,97.5760
160.4945,97.5760
160.4994,97.6219
160.5001,97.6352
160.5001,98.0260
160.5343,98.1534
160.5599,98.1977
160.6002,98.2676
160.6935,98.3609
160.8078,98.4269
160.9081,98.4537
160.9678,98.4901
160.9983,98.5529
161.0000,98.5735
161.0000,98.7000
161.0000,98.7000
161.3915,99.1133
161.4213,99.1665
161.4231,99.1734
161.4891,99.2876
161.5824,99.3809
161.6601,99.4258
161.7037,99.4509
161.7026,99.4527
161.7328,99.4735
162.7673,100.5655
162.7991,100.6277
162.8012,100.6475
162.9000,104.3984
162.9000,104.4016
162.9000,117.0000
165.8514,119.2628
165.8927,119.3192
165.9000,119.3612
165.9000,127.4280
165.8803,127.4950
165.8275,127.5408
165.7760,127.5520
163.1546,127.5520
163.1546,127.5520
163.0950,127.5584
162.9602,127.6087
162.9602,127.6087
162.8450,127.6950
162.8450,127.6950
162.7587,127.8102
162.7587,127.8102
162.7084,127.9450
162.7020,128.0046
162.7020,128.0046
162.7020,131.0554
162.7020,131.0554
162.7084,131.1150
162.7587,131.2498
162.7587,131.2498
162.8450,131.3650
162.8450,131.3650
162.9602,131.4513
162.9602,131.4513
163.0950,131.5016
163.0950,131.5016
163.1019,131.5023
163.1546,131.5080
165.7760,131.5080
165.8430,131.5277
165.8888,131.5805
165.9000,131.6320
165.9000,132.6000
206.7000,132.7000
206.6865,132.1919
206.7044,132.1244
206.7560,132.0772
206.8248,132.0654
206.8368,132.0674
206.9078,132.0829
207.1643,132.1012
207.1900,132.1031
207.1900,132.1031
207.1900,132.1031
207.2102,132.1016
207.4722,132.0829
207.7487,132.0227
208.0138,131.9238
208.2621,131.7883
208.4886,131.6187
208.6887,131.4186
208.8582,131.1921
208.9938,130.9438
209.0927,130.6787
209.1529,130.4022
209.1731,130.1200
209.1529,129.8378
209.0927,129.5613
208.9938,129.2962
208.9674,129.2478
208.8583,129.0479
208.8582,129.0479
208.6887,128.8214
208.6887,128.8214
208.4886,128.6213
208.4886,128.6213
208.2621,128.4518
208.2621,128.4517
208.0138,128.3162
208.0138,128.3162
207.9133,128.2787
207.7487,128.2173
207.7487,128.2173
207.7487,128.2173
207.4722,128.1571
207.4722,128.1571
207.1900,128.1369
207.1900,128.1369
206.9078,128.1571
206.9078,128.1571
206.7276,128.1963
206.6579,128.1913
206.6020,128.1495
206.5776,128.0840
206.5773,128.0785
206.4023,121.4850
206.4202,121.4175
206.4717,121.3704
206.4785,121.3673
207.6000,120.9000
207.6000,117.9563
207.6197,117.8892
207.6423,117.8629
208.6286,117.0000
210.0000,115.8000
210.1509,85.3906
210.2000,75.5000
210.2000,75.5000
210.2000,75.5000
208.3536,73.5899
207.3348,72.5360
207.3024,72.4742
207.3000,72.4499
207.3000,69.2000
206.7863,68.3920
206.7669,68.3275
206.7272,65.8384
206.7458,65.7711
206.7979,65.7245
206.8669,65.7135
206.8945,65.7203
206.9413,65.7377
206.9413,65.7377
206.9413,65.7377
207.1792,65.7895
207.2178,65.7979
207.4783,65.8165
207.5000,65.8181
207.5000,65.8181
207.5000,65.8181
207.5202,65.8166
207.7822,65.7979
208.0587,65.7377
208.3238,65.6388
208.5721,65.5032
208.7986,65.3337
208.9987,65.1336
209.1683,64.9071
209.3038,64.6588
209.4027,64.3937
209.4629,64.1172
209.4831,63.8350
209.4629,63.5528
209.4027,63.2763
209.3038,63.0112
209.1683,62.7629
209.1446,62.7313
208.9987,62.5364
208.9987,62.5364
208.7986,62.3363
208.7986,62.3363
208.5721,62.1668
208.5721,62.1667
208.3238,62.0312
208.3238,62.0312
208.2171,61.9914
208.0587,61.9323
208.0587,61.9323
208.0587,61.9323
207.7822,61.8721
207.7822,61.8721
207.5000,61.8519
207.5000,61.8519
207.2178,61.8721
207.2178,61.8721
206.9413,61.9323
206.9413,61.9323
206.9413,61.9323
206.9151,61.9420
206.8310,61.9734
206.7613,61.9784
206.7000,61.9449
206.6665,61.8836
206.6637,61.8592
206.6500,61.0000
206.6500,61.0000
165.7000,61.1100
165.7000,61.1880
165.6803,61.2550
165.6275,61.3008
165.5760,61.3120
163.5146,61.3120
163.5146,61.3120
163.4550,61.3184
163.3202,61.3687
163.3202,61.3687
163.2050,61.4550
163.2050,61.4550
163.1187,61.5702
163.1187,61.5702
163.0684,61.7050
163.0620,61.7646
163.0620,61.7646
163.0620,64.8154
163.0620,64.8154
163.0684,64.8750
163.1187,65.0098
163.1187,65.0098
163.2050,65.1250
163.2050,65.1250
163.3202,65.2113
163.3202,65.2113
163.4550,65.2616
163.4550,65.2616
163.4619,65.2623
163.5146,65.2680
165.5760,65.2680
165.6430,65.2877
165.6888,65.3405
165.7000,65.3920
165.7000,67.9720
165.6879,68.0253
165.1900,69.0700
165.1900,69.0700
165.1702,74.2802
165.1600,74.3145
165.1600,80.2500
165.1403,80.3170
165.1366,80.3225
162.2059,84.3919
162.1929,84.4071
161.7418,84.8582
161.6805,84.8917
161.6541,84.8945
161.3258,84.8945
161.2148,84.9069
161.2148,84.9069
161.1616,84.9188
161.1616,84.9188
161.0559,84.9553
160.9361,85.0349
160.8839,85.0814
160.8839,85.0814
160.7913,85.1915
160.7335,85.3232
160.7335,85.3232
160.7148,85.3905
160.7148,85.3906
160.6964,85.5332
160.6964,85.5333
160.7914,91.9925
160.7727,92.0598
160.7666,92.0687
160.6204,92.2636
160.6097,92.2785
160.6046,92.2858
160.5944,92.3010
160.5944,92.3010
160.5347,92.4319
160.5150,92.4989
160.4945,92.6413
160.4945,97.5760
157.5513,97.5760
157.5400,74.5406
157.5597,74.4736
157.5754,74.4538
157.5800,74.4492
157.5800,74.4492
157.5800,58.2243
157.5997,58.1572
157.6525,58.1115
157.7043,58.1003
Z" /> 
<path style="fill:#CE7D2C; fill-opacity:1.0000; stroke:none;fill-rule:evenodd;"
d="M 172.8430,107.2197
172.8888,107.2725
172.9000,107.3240
172.9000,113.0760
172.8803,113.1430
172.8275,113.1888
172.7760,113.2000
166.6240,113.2000
166.5570,113.1803
166.5112,113.1275
166.5000,113.0760
166.5000,107.3240
166.5197,107.2570
166.5725,107.2112
166.6240,107.2000
172.7760,107.2000
Z" /> 
<path style="fill:#CE7D2C; fill-opacity:1.0000; stroke:none;fill-rule:evenodd;"
d="M 181.9430,76.6252
181.9888,76.6780
182.0000,76.7295
182.0000,79.5760
181.9803,79.6430
181.9275,79.6888
181.8760,79.7000
176.8240,79.7000
176.7570,79.6803
176.7112,79.6275
176.7000,79.5760
176.7000,76.7295
176.7197,76.6625
176.7725,76.6167
176.8240,76.6055
181.8760,76.6055
Z" /> 
<path style="fill:#CE7D2C; fill-opacity:1.0000; stroke:none;fill-rule:evenodd;"
d="M 182.8430,82.1197
182.8888,82.1725
182.9000,82.2240
182.9000,86.9752
182.8803,87.0422
182.8275,87.0880
182.7752,87.0992
176.9134,87.0608
176.8465,87.0407
176.8011,86.9876
176.7902,86.9366
176.7998,82.2237
176.8196,82.1568
176.8725,82.1111
176.9238,82.1000
182.7760,82.1000
Z" /> 
<path style="fill:#CE7D2C; fill-opacity:1.0000; stroke:none;fill-rule:evenodd;"
d="M 181.9430,72.4197
181.9888,72.4725
182.0000,72.5240
182.0000,75.9760
181.9803,76.0430
181.9275,76.0888
181.8760,76.1000
176.8240,76.1000
176.7570,76.0803
176.7112,76.0275
176.7000,75.9760
176.7000,72.5240
176.7197,72.4570
176.7725,72.4112
176.8240,72.4000
181.8760,72.4000
Z" /> 
<path style="fill:#CE7D2C; fill-opacity:1.0000; stroke:none;fill-rule:evenodd;"
d="M 172.9857,74.0451
173.0314,74.0979
173.0426,74.1478
173.0522,74.8637
173.0623,75.6217
173.0643,75.7748
173.0455,75.8421
172.9934,75.8886
172.9403,75.9005
172.5568,75.9005
172.4897,75.8808
172.4440,75.8280
172.4347,75.7852
172.4340,75.7852
172.4143,75.6482
172.4143,75.6482
172.4022,75.6217
172.3910,75.5702
172.3910,75.3505
172.1436,75.3505
172.1087,75.3454
172.0808,75.3372
172.0424,75.3260
172.0424,75.3260
171.9129,75.3260
171.9122,75.3260
171.8452,75.3063
171.7994,75.2535
171.7882,75.2043
171.7684,74.1518
171.7868,74.0844
171.8387,74.0376
171.8924,74.0255
172.9186,74.0255
Z" /> 
<path style="fill:#CE7D2C; fill-opacity:1.0000; stroke:none;fill-rule:evenodd;"
d="M 206.0973,61.5267
206.1431,61.5794
206.1545,61.6292
206.1583,61.8673
206.1583,61.8673
206.1616,61.9173
206.1644,61.9416
206.1644,61.9416
206.1726,61.9910
206.1726,61.9910
206.2229,62.1258
206.2229,62.1258
206.2563,62.1872
206.3426,62.3023
206.3455,62.3053
206.3475,62.3089
206.3479,62.3094
206.3478,62.3095
206.3790,62.3666
206.3740,62.4363
206.3422,62.4838
206.1930,62.6223
206.1930,62.6223
206.0268,62.8306
205.8936,63.0614
205.7962,63.3094
205.7962,63.3095
205.7369,63.5693
205.7369,63.5693
205.7170,63.8350
205.7170,63.8350
205.7369,64.1007
205.7369,64.1007
205.7962,64.3605
205.7962,64.3605
205.7962,64.3605
205.8936,64.6086
206.0268,64.8394
206.1203,64.9566
206.1930,65.0477
206.1930,65.0477
206.3914,65.2318
206.4271,65.2918
206.4247,65.3617
206.4020,65.4024
206.3163,65.5046
206.2586,65.6364
206.2404,65.7022
206.2400,65.7036
206.2218,65.8465
206.2615,68.3356
206.2827,68.4726
206.3021,68.5371
206.3021,68.5371
206.3597,68.6633
206.3597,68.6633
206.5410,68.9483
206.7751,69.3166
206.7945,69.3832
206.7945,72.4499
206.7970,72.4996
206.7970,72.4996
206.7970,72.4996
206.7994,72.5239
206.8067,72.5732
206.8547,72.7089
206.8547,72.7089
206.8547,72.7089
206.8871,72.7708
206.9714,72.8874
207.5236,73.4586
207.5561,73.5205
207.5583,73.5513
207.5547,73.6200
207.5739,73.9864
207.6313,74.3488
207.6876,74.5589
207.7263,74.7032
207.8577,75.0457
208.0243,75.3727
208.2241,75.6804
208.2741,75.7421
208.4551,75.9655
208.7145,76.2249
208.7145,76.2250
208.9996,76.4559
209.3073,76.6557
209.3073,76.6557
209.6197,76.8148
209.6705,76.8628
209.6874,76.9259
209.4959,115.5137
209.4759,115.5807
209.4536,115.6064
207.3095,117.4825
207.2595,117.5329
207.2368,117.5591
207.2368,117.5591
207.1944,117.6159
207.1347,117.7468
207.1150,117.8138
207.0945,117.9563
207.0945,120.4803
207.0748,120.5474
207.0220,120.5931
207.0182,120.5948
206.2841,120.9007
206.2701,120.9067
206.2633,120.9098
206.2496,120.9163
206.1432,120.9887
206.1307,120.9972
206.1307,120.9973
206.0791,121.0444
205.9878,121.1556
205.9878,121.1556
205.9315,121.2880
205.9315,121.2880
205.9211,121.3272
205.9136,121.3555
205.9136,121.3555
205.9136,121.3555
205.9129,121.3614
205.9128,121.3627
205.8969,121.4984
206.0720,128.0920
206.0724,128.1033
206.0727,128.1087
206.0727,128.1087
206.0734,128.1201
206.0734,128.1201
206.0734,128.1201
206.1039,128.2607
206.1039,128.2607
206.1191,128.3013
206.1284,128.3261
206.1284,128.3261
206.1973,128.4524
206.1973,128.4524
206.2059,128.4610
206.2394,128.5223
206.2344,128.5920
206.1926,128.6480
206.1881,128.6512
206.0783,128.7260
205.8830,128.9073
205.8830,128.9073
205.7168,129.1156
205.5836,129.3464
205.4862,129.5944
205.4862,129.5945
205.4269,129.8543
205.4269,129.8543
205.4070,130.1200
205.4070,130.1200
205.4269,130.3857
205.4269,130.3857
205.4862,130.6455
205.4862,130.6455
205.4862,130.6455
205.5836,130.8936
205.7168,131.1244
205.8830,131.3327
206.0783,131.5140
206.2108,131.6043
206.2739,131.6474
206.3182,131.7014
206.3263,131.7708
206.2999,131.8285
206.2721,131.8624
206.2720,131.8624
206.2158,131.9949
206.2158,131.9949
206.1979,132.0624
206.1954,132.0833
206.1681,132.1476
206.1103,132.1870
206.0720,132.1930
166.5292,132.0960
166.4622,132.0762
166.4166,132.0233
166.4055,131.9720
166.4055,131.6320
166.4055,131.6320
166.3939,131.5245
166.3939,131.5245
166.3827,131.4730
166.3826,131.4726
166.3486,131.3705
166.3453,131.3635
166.3481,131.3621
166.3324,131.3089
166.3521,131.2419
166.3687,131.2212
166.4097,131.1803
166.4551,131.0775
166.4580,131.0524
166.4580,129.5300
178.3970,129.5300
178.4169,129.7957
178.4169,129.7957
178.4762,130.0555
178.4762,130.0555
178.4762,130.0555
178.5736,130.3036
178.7068,130.5344
178.8730,130.7427
179.0683,130.9240
179.2885,131.0741
179.5286,131.1897
179.7832,131.2683
179.7832,131.2683
179.7833,131.2683
180.0467,131.3080
180.0468,131.3080
180.0468,131.3080
180.0468,131.3080
180.3132,131.3080
180.3132,131.3080
180.3132,131.3080
180.5767,131.2683
180.5767,131.2683
180.5768,131.2683
180.8314,131.1897
181.0715,131.0741
181.2917,130.9240
181.4870,130.7427
181.6532,130.5344
181.7864,130.3036
181.8585,130.1200
189.9070,130.1200
189.9269,130.3857
189.9269,130.3857
189.9862,130.6455
189.9862,130.6455
189.9862,130.6455
190.0836,130.8936
190.2168,131.1244
190.3830,131.3327
190.5783,131.5140
190.7985,131.6641
191.0386,131.7797
191.2932,131.8583
191.2932,131.8583
191.2933,131.8583
191.5567,131.8980
191.5568,131.8980
191.5568,131.8980
191.5568,131.8980
191.8232,131.8980
191.8232,131.8980
191.8233,131.8980
192.0867,131.8583
192.0867,131.8583
192.0868,131.8583
192.3414,131.7797
192.5815,131.6641
192.8017,131.5140
192.9970,131.3327
193.1632,131.1244
193.2964,130.8936
193.3938,130.6455
193.4531,130.3857
193.4730,130.1200
193.4682,130.0555
193.4531,129.8543
193.4531,129.8543
193.4531,129.8543
193.3938,129.5945
193.2964,129.3464
193.1632,129.1156
192.9970,128.9073
192.8017,128.7260
192.5815,128.5759
192.3414,128.4603
192.3159,128.4524
192.0868,128.3817
192.0867,128.3817
191.8233,128.3420
191.8232,128.3420
191.5568,128.3420
191.5567,128.3420
191.2933,128.3817
191.2932,128.3817
191.0386,128.4603
190.7985,128.5759
190.7985,128.5759
190.5783,128.7260
190.3830,128.9073
190.3830,128.9073
190.2168,129.1156
190.0836,129.3464
189.9862,129.5944
189.9862,129.5945
189.9269,129.8543
189.9269,129.8543
189.9070,130.1200
189.9070,130.1200
181.8585,130.1200
181.8838,130.0555
181.9431,129.7957
181.9582,129.5945
181.9630,129.5300
181.9630,129.5300
181.9431,129.2643
181.9431,129.2643
181.9431,129.2643
181.8838,129.0045
181.7864,128.7564
181.6532,128.5256
181.4870,128.3173
181.2917,128.1360
181.0715,127.9859
181.0645,127.9825
180.8314,127.8703
180.5768,127.7917
180.5767,127.7917
180.3132,127.7520
180.3132,127.7520
180.0468,127.7520
180.0467,127.7520
179.7833,127.7917
179.7832,127.7917
179.5286,127.8703
179.2885,127.9859
179.2885,127.9859
179.0683,128.1360
178.8730,128.3173
178.8730,128.3173
178.7068,128.5256
178.5736,128.7564
178.4762,129.0044
178.4762,129.0045
178.4169,129.2643
178.4169,129.2643
178.3970,129.5300
178.3970,129.5300
166.4580,129.5300
166.4580,128.0076
166.4580,128.0076
166.4551,127.9825
166.4551,127.9825
166.4551,127.9825
166.4097,127.8797
166.4002,127.8703
166.3642,127.8342
166.3307,127.7729
166.3357,127.7032
166.3391,127.6950
166.3653,127.6375
166.3850,127.5704
166.3850,127.5704
166.4055,127.4280
166.4055,119.3612
166.3980,119.2743
166.3906,119.2323
166.3683,119.1480
166.3008,119.0209
166.2601,118.9652
166.2596,118.9645
166.1590,118.8616
166.1590,118.8616
163.4541,116.7878
163.4128,116.7314
163.4055,116.6894
163.4055,104.4016
163.4055,104.3950
163.4055,104.3950
163.4054,104.3917
163.4053,104.3851
163.3066,100.6342
163.3039,100.5937
163.3017,100.5738
163.2958,100.5336
163.2492,100.3975
163.2174,100.3353
163.2174,100.3353
163.2174,100.3353
163.1343,100.2178
163.1343,100.2178
162.4682,99.5148
162.4364,99.4526
162.4433,99.3830
162.4866,99.3283
162.5527,99.3056
162.5582,99.3055
164.0672,99.3055
164.0680,99.3055
164.0908,99.3046
164.1003,99.3038
164.1275,99.3047
164.1328,99.3055
164.7672,99.3055
164.7680,99.3055
164.7908,99.3046
164.8003,99.3038
164.8275,99.3047
164.8328,99.3055
165.4672,99.3055
165.4680,99.3055
165.4908,99.3046
165.5003,99.3038
165.5275,99.3047
165.5328,99.3055
177.2440,99.3055
177.2454,99.3055
177.2621,99.3050
177.2768,99.3041
177.3789,99.2800
177.4431,99.2525
177.4857,99.2289
177.5539,99.2137
177.5931,99.2229
177.5972,99.2245
177.5972,99.2245
177.7432,99.2850
177.7941,99.2917
177.8580,99.3200
177.8965,99.3783
177.8973,99.4482
177.8656,99.5024
173.6172,103.7508
173.5559,103.7843
173.4862,103.7793
173.4302,103.7374
173.4058,103.6719
173.4055,103.6631
173.4055,100.7240
173.4055,100.7240
173.3939,100.6165
173.3827,100.5650
173.3723,100.5336
173.3486,100.4625
173.3486,100.4625
173.2708,100.3415
173.2708,100.3415
173.2655,100.3353
173.2251,100.2887
173.2251,100.2887
173.2251,100.2887
173.1163,100.1944
173.1163,100.1944
173.1163,100.1944
172.9855,100.1347
172.9855,100.1347
172.9855,100.1347
172.9184,100.1150
172.9184,100.1150
172.9184,100.1150
172.8563,100.1061
172.7760,100.0945
166.6240,100.0945
166.6240,100.0945
166.6240,100.0945
166.5165,100.1061
166.5165,100.1061
166.4650,100.1173
166.3625,100.1514
166.3625,100.1514
166.2415,100.2292
166.2415,100.2292
166.1887,100.2749
166.0944,100.3837
166.0944,100.3837
166.0347,100.5145
166.0150,100.5816
166.0099,100.6165
165.9945,100.7240
165.9945,106.4760
165.9945,106.4760
166.0061,106.5834
166.0061,106.5835
166.0173,106.6350
166.0514,106.7375
166.0514,106.7375
166.1104,106.8293
166.1300,106.8963
166.1104,106.9634
166.0998,106.9775
166.0944,106.9837
166.0944,106.9837
166.0347,107.1145
166.0150,107.1816
166.0123,107.2000
165.9945,107.3240
165.9945,113.0760
165.9945,113.0760
166.0061,113.1834
166.0061,113.1835
166.0173,113.2350
166.0514,113.3375
166.0514,113.3375
166.1292,113.4585
166.1292,113.4585
166.1749,113.5113
166.1749,113.5113
166.1749,113.5113
166.2837,113.6056
166.4145,113.6653
166.4816,113.6850
166.4816,113.6850
166.6240,113.7055
166.6240,113.7055
172.4756,113.7055
172.5426,113.7252
172.5884,113.7780
172.5983,113.8471
172.5693,113.9107
172.5531,113.9263
172.3723,114.0710
168.4494,117.2093
168.4339,117.2198
168.3651,117.2595
168.3651,117.2595
168.3045,117.3201
168.3045,117.3201
168.2617,117.3944
168.2617,117.3944
168.2395,117.4771
168.2395,117.5124
168.2394,117.5176
168.2388,117.5329
168.2382,117.5457
168.2157,117.6119
168.1611,117.6554
168.1143,117.6645
167.8971,117.6645
167.8144,117.6867
167.8144,117.6867
167.7401,117.7295
167.7401,117.7295
167.6795,117.7901
167.6795,117.7901
167.6367,117.8644
167.6367,117.8644
167.6145,117.9471
167.6145,118.0338
167.5948,118.1009
167.5629,118.1345
167.4824,118.1924
167.4824,118.1924
167.4211,118.2865
167.4211,118.2865
167.4178,118.2946
167.4151,118.3011
167.3945,118.4115
167.3945,119.9885
167.3946,119.9955
167.3946,119.9955
167.4177,120.1054
167.4178,120.1054
167.4211,120.1135
167.4268,120.1265
167.4268,120.1265
167.4924,120.2176
167.4924,120.2176
167.4924,120.2176
167.5865,120.2789
167.5946,120.2822
167.6011,120.2849
167.7115,120.3055
167.7115,120.3055
170.4829,120.3055
170.4829,120.3055
170.4857,120.3047
170.5178,120.3005
170.7959,120.3005
170.8135,120.3018
170.8395,120.3055
170.8395,120.3055
172.0760,120.3055
172.0760,120.3055
172.1159,120.3012
172.1291,120.3005
172.2229,120.3005
172.2229,120.3005
172.3056,120.2783
172.3799,120.2355
172.4405,120.1749
172.4833,120.1006
172.5055,120.0179
172.5055,118.6007
172.5252,118.5337
172.5499,118.5056
172.7944,118.3011
177.8522,114.0710
177.8842,114.0400
177.9081,114.0131
177.9203,113.9987
177.9723,113.8992
177.9928,113.8324
178.0061,113.7465
178.0823,107.2000
185.8943,107.2000
185.9150,107.3568
185.9150,107.3568
185.9743,107.5000
185.9755,107.5028
186.0717,107.6283
186.1972,107.7245
186.3432,107.7850
186.4216,107.7954
186.5000,107.8057
186.5000,107.8057
186.5000,107.8057
186.5523,107.7988
186.6568,107.7850
186.8028,107.7245
186.9283,107.6283
187.0245,107.5028
187.0850,107.3568
187.1057,107.2000
187.0850,107.0432
187.0520,106.9634
187.0247,106.8975
187.0172,106.8280
187.0247,106.8025
187.0257,106.8000
197.5943,106.8000
197.6150,106.9568
197.6150,106.9568
197.6755,107.1028
197.7222,107.1637
197.7474,107.2289
197.7384,107.2867
197.7150,107.3432
197.7150,107.3432
197.6943,107.5000
197.6943,107.5000
197.7150,107.6568
197.7150,107.6568
197.7755,107.8028
197.8717,107.9283
197.9972,108.0245
198.1432,108.0850
198.2216,108.0954
198.3000,108.1057
198.3000,108.1057
198.3000,108.1057
198.3523,108.0988
198.4568,108.0850
198.6028,108.0245
198.7283,107.9283
198.8245,107.8028
198.8850,107.6568
198.9057,107.5000
198.9057,107.5000
198.9060,107.4976
198.9343,107.4337
198.9926,107.3952
199.0127,107.3908
199.0568,107.3850
199.2028,107.3245
199.3283,107.2283
199.4245,107.1028
199.4850,106.9568
199.5057,106.8000
199.4850,106.6432
199.4245,106.4972
199.3283,106.3717
199.2028,106.2755
199.2025,106.2753
199.0568,106.2150
199.0568,106.2150
198.9000,106.1943
198.9000,106.1943
198.7432,106.2150
198.7432,106.2150
198.5975,106.2753
198.5280,106.2828
198.5025,106.2753
198.3568,106.2150
198.3568,106.2150
198.2000,106.1943
198.2000,106.1943
198.0432,106.2150
198.0432,106.2150
197.8972,106.2755
197.7717,106.3717
197.6755,106.4972
197.6150,106.6432
197.6150,106.6432
197.5943,106.8000
197.5943,106.8000
187.0257,106.8000
187.0522,106.7360
187.0850,106.6568
187.1057,106.5000
187.1025,106.4760
187.0850,106.3432
187.0850,106.3432
187.0245,106.1972
186.9283,106.0717
186.8028,105.9755
186.6568,105.9150
186.6568,105.9150
186.5000,105.8943
186.5000,105.8943
186.3432,105.9150
186.3432,105.9150
186.1972,105.9755
186.0717,106.0717
185.9755,106.1972
185.9150,106.3432
185.9150,106.3432
185.8943,106.5000
185.8943,106.5000
185.9150,106.6568
185.9150,106.6568
185.9753,106.8025
185.9828,106.8720
185.9753,106.8975
185.9150,107.0432
185.9150,107.0432
185.8943,107.2000
185.8943,107.2000
178.0823,107.2000
178.1036,105.3663
178.1240,105.2995
178.1357,105.2845
182.6153,100.3415
183.6985,99.1462
183.7581,99.1098
183.7904,99.1055
188.9452,99.1055
188.9452,99.1055
188.9849,99.1029
189.0169,99.0987
189.0309,99.0966
189.1359,99.0568
189.1956,99.0206
189.2627,98.9653
189.8688,98.3000
192.0943,98.3000
192.1150,98.4568
192.1150,98.4568
192.1297,98.4925
192.1755,98.6028
192.2717,98.7283
192.3972,98.8245
192.5432,98.8850
192.6216,98.8954
192.7000,98.9057
192.7000,98.9057
192.7000,98.9057
192.7523,98.8988
192.8568,98.8850
192.9360,98.8522
193.0025,98.8247
193.0720,98.8172
193.0975,98.8247
193.1921,98.8639
193.2432,98.8850
193.3216,98.8954
193.4000,98.9057
193.4000,98.9057
193.4000,98.9057
193.4523,98.8988
193.5568,98.8850
193.7028,98.8245
193.8283,98.7283
193.9245,98.6028
193.9850,98.4568
194.0057,98.3000
193.9850,98.1432
193.9247,97.9975
193.9172,97.9280
193.9247,97.9025
193.9374,97.8717
193.9850,97.7568
194.0057,97.6000
193.9850,97.4432
193.9245,97.2972
193.8283,97.1717
193.7028,97.0755
193.5568,97.0150
193.5568,97.0150
193.4000,96.9943
193.4000,96.9943
193.2432,97.0150
193.2432,97.0150
193.0972,97.0755
192.9717,97.1717
192.8755,97.2972
192.8150,97.4432
192.8150,97.4432
192.7958,97.5890
192.7675,97.6529
192.7092,97.6914
192.6890,97.6958
192.5657,97.7120
192.5432,97.7150
192.5432,97.7150
192.3972,97.7755
192.2717,97.8717
192.1755,97.9972
192.1150,98.1432
192.1150,98.1432
192.0943,98.3000
192.0943,98.3000
189.8688,98.3000
193.2935,94.5412
193.3099,94.5216
193.3226,94.5051
193.3734,94.4051
193.3931,94.3381
193.4055,94.2520
193.4055,86.5522
193.4252,86.4851
193.4780,86.4394
193.5471,86.4294
193.6050,86.4538
193.6972,86.5245
193.8432,86.5850
193.9216,86.5954
194.0000,86.6057
194.0000,86.6057
194.0000,86.6057
194.0523,86.5988
194.1568,86.5850
194.3028,86.5245
194.4283,86.4283
194.4516,86.3979
194.5081,86.3567
194.5778,86.3525
194.6387,86.3867
194.6484,86.3979
194.6717,86.4283
194.7972,86.5245
194.9432,86.5850
195.0216,86.5954
195.1000,86.6057
195.1000,86.6057
195.1000,86.6057
195.1523,86.5988
195.2568,86.5850
195.4028,86.5245
195.5283,86.4283
195.6245,86.3028
195.6850,86.1568
195.7057,86.0000
195.6850,85.8432
195.6245,85.6972
195.5283,85.5717
195.4028,85.4755
195.2568,85.4150
195.2568,85.4150
195.1000,85.3943
195.1000,85.3943
194.9432,85.4150
194.9432,85.4150
194.7972,85.4755
194.7972,85.4755
194.6717,85.5717
194.6484,85.6021
194.5919,85.6433
194.5222,85.6475
194.4613,85.6133
194.4516,85.6021
194.4283,85.5717
194.3028,85.4755
194.1568,85.4150
194.1568,85.4150
194.0000,85.3943
194.0000,85.3943
193.8432,85.4150
193.8432,85.4150
193.6972,85.4755
193.6050,85.5462
193.5398,85.5714
193.4714,85.5573
193.4214,85.5085
193.4055,85.4478
193.4055,72.0235
193.3987,71.9592
193.3986,71.9592
193.3877,71.9081
193.3876,71.9081
193.3770,71.8705
193.3716,71.8612
193.3207,71.7733
193.3207,71.7733
193.3207,71.7733
193.2752,71.7203
193.2752,71.7203
193.2751,71.7203
193.2480,71.6945
193.2306,71.6780
193.1307,71.6267
193.1307,71.6267
193.0638,71.6067
193.0637,71.6067
192.9777,71.5940
192.9777,71.5940
192.9777,71.5940
186.6260,71.5683
182.3915,71.5511
182.3915,71.5511
182.3915,71.5511
182.3691,71.5519
182.3691,71.5519
182.3690,71.5519
182.3509,71.5531
182.2452,71.5800
182.1817,71.6090
182.1286,71.6401
182.1286,71.6401
182.0516,71.7218
182.0516,71.7218
182.0124,71.7827
181.9596,71.8285
181.9074,71.8397
176.8134,71.8122
176.7465,71.7922
176.7068,71.7504
176.6811,71.7060
176.6811,71.7060
176.6356,71.6530
176.6356,71.6530
176.6355,71.6530
176.6146,71.6330
176.5910,71.6106
176.4911,71.5593
176.4911,71.5593
176.4242,71.5394
176.4241,71.5394
176.3381,71.5266
176.3381,71.5266
176.3381,71.5266
174.7001,71.5200
174.7001,71.5200
174.7001,71.5200
174.6353,71.5267
174.6353,71.5267
174.5839,71.5376
174.5839,71.5376
174.5458,71.5483
174.4486,71.6045
174.4486,71.6045
174.3955,71.6500
174.3531,71.6945
174.3531,71.6945
174.3017,71.7943
174.3017,71.7943
174.2817,71.8612
174.2817,71.8612
174.2803,71.8705
174.2689,71.9473
174.2458,76.3597
174.2257,76.4267
174.1867,76.4647
171.7238,77.9786
171.7238,77.9786
171.6704,78.0203
171.6312,78.0585
171.6312,78.0585
171.6031,78.0901
171.5519,78.1900
171.5519,78.1900
171.5319,78.2570
171.5319,78.2570
171.5193,78.3430
171.5193,78.3430
171.5037,82.7875
171.4837,82.8545
171.4308,82.9001
171.3635,82.9100
171.3200,82.9043
171.3200,82.9043
171.1632,82.9250
171.1632,82.9250
171.0172,82.9855
170.8917,83.0817
170.7955,83.2072
170.7350,83.3532
170.7350,83.3532
170.7143,83.5100
170.7143,83.5100
170.7350,83.6668
170.7350,83.6668
170.7955,83.8128
170.8917,83.9383
171.0172,84.0345
171.1632,84.0950
171.2416,84.1054
171.3200,84.1157
171.3200,84.1157
171.3584,84.1106
171.4274,84.1214
171.4797,84.1678
171.4986,84.2340
171.4967,84.7709
171.4768,84.8379
171.4238,84.8835
171.3727,84.8945
162.7084,84.8945
162.6413,84.8748
162.5956,84.8220
162.5856,84.7529
162.6108,84.6940
162.6160,84.6873
162.6160,84.6873
164.1342,82.5793
164.1488,82.5625
166.5000,80.3000
166.5167,78.4340
166.5369,78.3671
166.5902,78.3218
166.6594,78.3125
166.6890,78.3229
166.6897,78.3214
166.6972,78.3245
166.6972,78.3245
166.8432,78.3850
166.9216,78.3954
167.0000,78.4057
167.0000,78.4057
167.0000,78.4057
167.0523,78.3988
167.1568,78.3850
167.3028,78.3245
167.4283,78.2283
167.5245,78.1028
167.5850,77.9568
167.6057,77.8000
167.5850,77.6432
167.5245,77.4972
167.4283,77.3717
167.3028,77.2755
167.3005,77.2745
167.1568,77.2150
167.1568,77.2150
167.0000,77.1943
167.0000,77.1943
166.8432,77.2150
166.8432,77.2150
166.6995,77.2745
166.6300,77.2820
166.5675,77.2507
166.5319,77.1906
166.5280,77.1588
166.5473,75.0000
171.3943,75.0000
171.4150,75.1568
171.4150,75.1568
171.4755,75.3028
171.4755,75.3028
171.4963,75.3299
171.5118,75.3564
171.5119,75.3566
171.5685,75.4535
171.5686,75.4535
171.6143,75.5063
171.6143,75.5064
171.6590,75.5485
171.6590,75.5485
171.6590,75.5485
171.7591,75.5994
171.8262,75.6191
171.9122,75.6315
171.9807,75.6315
172.0156,75.6365
172.0226,75.6386
172.0227,75.6386
172.0228,75.6386
172.0228,75.6386
172.0248,75.6391
172.0247,75.6396
172.0841,75.6721
172.1176,75.7334
172.1192,75.7421
172.1316,75.8287
172.1370,75.8566
172.1372,75.8572
172.1400,75.8681
172.1454,75.8929
172.1455,75.8929
172.1455,75.8929
172.1564,75.9311
172.1920,75.9920
172.2131,76.0280
172.2131,76.0280
172.2588,76.0808
172.2589,76.0808
172.3036,76.1230
172.3036,76.1230
172.3036,76.1230
172.4037,76.1739
172.4229,76.1795
172.4260,76.1805
172.4666,76.2011
172.4972,76.2245
172.4972,76.2245
172.4972,76.2245
172.6432,76.2850
172.7216,76.2954
172.8000,76.3057
172.8000,76.3057
172.8000,76.3057
172.8523,76.2988
172.9568,76.2850
173.1028,76.2245
173.2283,76.1283
173.3245,76.0028
173.3850,75.8568
173.4057,75.7000
173.3850,75.5432
173.3753,75.5197
173.3658,75.4739
173.3627,75.2371
173.3721,75.1880
173.3850,75.1568
173.4057,75.0000
173.3850,74.8432
173.3656,74.7964
173.3562,74.7506
173.3536,74.5589
173.3631,74.5098
173.3850,74.4568
173.4057,74.3000
173.3850,74.1432
173.3245,73.9972
173.3118,73.9806
173.3032,73.9677
173.2623,73.8979
173.2623,73.8979
173.2166,73.8451
173.2166,73.8451
173.1718,73.8029
173.1718,73.8029
173.1718,73.8029
173.0718,73.7520
173.0718,73.7520
173.0718,73.7520
173.0047,73.7323
173.0047,73.7323
173.0047,73.7323
173.0047,73.7323
173.0029,73.7319
172.9818,73.7253
172.9568,73.7150
172.9568,73.7150
172.8000,73.6943
172.8000,73.6943
172.6432,73.7150
172.6404,73.7157
172.6083,73.7200
172.1917,73.7200
172.1596,73.7157
172.1568,73.7150
172.0000,73.6943
172.0000,73.6943
171.8432,73.7150
171.8081,73.7295
171.7882,73.7358
171.7710,73.7398
171.7710,73.7398
171.7710,73.7398
171.7302,73.7521
171.7302,73.7521
171.7302,73.7521
171.6344,73.8106
171.5824,73.8573
171.5824,73.8573
171.5411,73.9029
171.5350,73.9153
171.5219,73.9367
171.4755,73.9972
171.4150,74.1432
171.4150,74.1432
171.3943,74.3000
171.3943,74.3000
171.4150,74.4568
171.4150,74.4568
171.4622,74.5708
171.4716,74.6159
171.4727,74.6767
171.4633,74.7265
171.4150,74.8432
171.3943,75.0000
171.3943,75.0000
166.5473,75.0000
166.5668,72.8200
171.7043,72.8200
171.7250,72.9768
171.7250,72.9768
171.7855,73.1228
171.8817,73.2483
172.0072,73.3445
172.1532,73.4050
172.2316,73.4154
172.3100,73.4257
172.3100,73.4257
172.3100,73.4257
172.3623,73.4188
172.4668,73.4050
172.6128,73.3445
172.7383,73.2483
172.8345,73.1228
172.8950,72.9768
172.9157,72.8200
172.8950,72.6632
172.8345,72.5172
172.7383,72.3917
172.6128,72.2955
172.4668,72.2350
172.4668,72.2350
172.3100,72.2143
172.3100,72.2143
172.1532,72.2350
172.1532,72.2350
172.0072,72.2955
171.8817,72.3917
171.7855,72.5172
171.7250,72.6632
171.7250,72.6632
171.7043,72.8200
171.7043,72.8200
166.5668,72.8200
166.6000,69.1000
166.4759,68.9483
166.1037,68.4934
166.0764,68.4290
166.0877,68.3615
166.1443,68.2428
166.1810,68.1368
166.1930,68.0835
166.2055,67.9720
166.2055,65.3920
166.1939,65.2845
166.1827,65.2330
166.1814,65.2290
166.1486,65.1305
166.1486,65.1305
166.0708,65.0095
166.0708,65.0095
166.0708,65.0095
166.0251,64.9566
165.9163,64.8624
165.7855,64.8027
165.7855,64.8027
165.7855,64.8027
165.7813,64.8011
165.7820,64.7992
165.7303,64.7659
165.7013,64.7024
165.7000,64.6847
165.7000,63.8350
190.2170,63.8350
190.2369,64.1007
190.2369,64.1007
190.2962,64.3605
190.2962,64.3605
190.2962,64.3605
190.3936,64.6086
190.5268,64.8394
190.6930,65.0477
190.8883,65.2290
191.1085,65.3791
191.3486,65.4947
191.6032,65.5733
191.6032,65.5733
191.6033,65.5733
191.8667,65.6130
191.8668,65.6130
191.8668,65.6130
191.8668,65.6130
192.1332,65.6130
192.1332,65.6130
192.1333,65.6130
192.3967,65.5733
192.3967,65.5733
192.3968,65.5733
192.6514,65.4947
192.8915,65.3791
193.1117,65.2290
193.3070,65.0477
193.4732,64.8394
193.6064,64.6086
193.7038,64.3605
193.7631,64.1007
193.7830,63.8350
193.7631,63.5693
193.7038,63.3095
193.6064,63.0614
193.4732,62.8306
193.3070,62.6223
193.1117,62.4410
192.8915,62.2909
192.6514,62.1753
192.4912,62.1258
192.3968,62.0967
192.3967,62.0967
192.1333,62.0570
192.1332,62.0570
191.8668,62.0570
191.8667,62.0570
191.6033,62.0967
191.6032,62.0967
191.3486,62.1753
191.1085,62.2909
191.1085,62.2909
190.8883,62.4410
190.6930,62.6223
190.6930,62.6223
190.5268,62.8306
190.3936,63.0614
190.2962,63.3094
190.2962,63.3095
190.2369,63.5693
190.2369,63.5693
190.2170,63.8350
190.2170,63.8350
165.7000,63.8350
165.7000,61.8958
165.7197,61.8288
165.7725,61.7830
165.7848,61.7781
165.8375,61.7606
165.9585,61.6828
166.0025,61.6448
166.0660,61.6157
166.0833,61.6145
206.0302,61.5072
Z" /> 
<path style="fill:#CE7D2C; fill-opacity:1.0000; stroke:none;fill-rule:evenodd;"
d="M 163.6525,98.1144
163.6559,98.1225
163.6558,98.1241
163.6449,98.2000
163.6633,98.3282
163.7171,98.4461
163.7171,98.4461
163.8020,98.5440
163.8020,98.5440
163.9109,98.6140
163.9836,98.6353
164.0352,98.6505
164.0352,98.6505
164.1648,98.6505
164.2891,98.6140
164.3980,98.5440
164.4413,98.4940
164.4492,98.4901
164.4575,98.4929
164.4587,98.4940
164.5020,98.5440
164.6109,98.6140
164.7000,98.6402
164.7000,98.9000
163.6000,98.9000
163.6000,98.1110
163.6444,98.1110
Z" /> 
<path style="fill:#CE7D2C; fill-opacity:1.0000; stroke:none;fill-rule:evenodd;"
d="M 168.4502,118.4034
168.4656,118.4188
168.5301,118.4455
168.5999,118.4455
169.9230,118.4455
169.9311,118.4489
169.9345,118.4570
169.9345,118.6483
169.9311,118.6564
169.9274,118.6589
169.8581,118.6876
169.7876,118.7581
169.7495,118.8502
169.7495,118.9498
169.7495,118.9498
169.7495,118.9498
169.7876,119.0419
169.8581,119.1124
169.9274,119.1411
169.9336,119.1473
169.9345,119.1517
169.9345,119.9885
169.9311,119.9966
169.9230,120.0000
167.7115,120.0000
167.7034,119.9966
167.7000,119.9885
167.7000,118.4115
167.7034,118.4034
167.7115,118.4000
168.4420,118.4000
Z" /> 
<path style="fill:#CE7D2C; fill-opacity:1.0000; stroke:none;fill-rule:evenodd;"
d="M 164.5472,97.5540
164.5495,97.5609
164.5495,97.6575
164.5461,97.6656
164.5380,97.6690
164.5160,97.6690
164.5078,97.6656
164.5045,97.6575
164.5055,97.6527
164.5167,97.6282
164.5266,97.5592
164.5311,97.5517
164.5396,97.5495
Z" /> 
<path style="fill:#CE7D2C; fill-opacity:1.0000; stroke:none;fill-rule:evenodd;"
d="M 166.2000,97.0444
166.2000,97.6575
166.1966,97.6656
166.1885,97.6690
165.0620,97.6690
165.0539,97.6656
165.0505,97.6575
165.0505,97.4502
165.0493,97.4473
165.0124,97.3581
164.9419,97.2876
164.8498,97.2495
164.7502,97.2495
164.6581,97.2876
164.6581,97.2876
164.5876,97.3581
164.5876,97.3581
164.5876,97.3581
164.5820,97.3718
164.5496,97.4500
164.5433,97.4563
164.5345,97.4563
164.5283,97.4500
164.5276,97.4473
164.5167,97.3718
164.5167,97.3718
164.4629,97.2539
164.4629,97.2539
164.3780,97.1560
164.3780,97.1560
164.2691,97.0860
164.1448,97.0495
164.1448,97.0495
164.0152,97.0495
164.0152,97.0495
163.8909,97.0860
163.7820,97.1560
163.7819,97.1560
163.7000,97.2506
163.7000,96.6000
166.2000,96.6000
Z" /> 
<path style="fill:#CE7D2C; fill-opacity:1.0000; stroke:none;fill-rule:evenodd;"
d="M 176.3369,71.8321
176.4039,71.8521
176.4494,71.9051
176.4591,71.9743
176.4298,72.0377
176.4176,72.0498
176.3887,72.0749
176.2944,72.1837
176.2944,72.1837
176.2347,72.3145
176.2150,72.3816
176.2099,72.4165
176.1945,72.5240
176.1945,75.9760
176.1945,75.9760
176.2061,76.0834
176.2061,76.0835
176.2173,76.1350
176.2514,76.2375
176.2514,76.2375
176.2804,76.2827
176.3001,76.3497
176.2889,76.4013
176.2347,76.5200
176.2150,76.5871
176.2099,76.6220
176.1945,76.7295
176.1945,79.5760
176.1945,79.5760
176.2061,79.6834
176.2061,79.6835
176.2173,79.7350
176.2514,79.8375
176.2514,79.8375
176.3292,79.9585
176.3292,79.9585
176.3749,80.0113
176.3749,80.0113
176.3749,80.0113
176.4837,80.1056
176.4837,80.1056
176.4837,80.1056
176.5779,80.1486
176.6145,80.1653
176.6816,80.1850
176.6816,80.1850
176.8240,80.2055
176.8240,80.2055
181.8760,80.2055
181.8760,80.2055
181.9835,80.1939
182.0350,80.1827
182.0692,80.1713
182.1375,80.1486
182.1375,80.1486
182.1375,80.1486
182.2585,80.0708
182.3113,80.0251
182.4056,79.9163
182.4653,79.7855
182.4850,79.7184
182.4850,79.7184
182.5055,79.5760
182.5055,76.7295
182.4939,76.6220
182.4827,76.5705
182.4826,76.5702
182.4486,76.4680
182.4486,76.4680
182.4486,76.4680
182.4196,76.4228
182.3999,76.3558
182.4111,76.3042
182.4653,76.1855
182.4850,76.1184
182.4850,76.1184
182.5055,75.9760
182.5055,72.5240
182.4939,72.4165
182.4827,72.3650
182.4741,72.3391
182.4486,72.2625
182.4486,72.2625
182.3708,72.1415
182.3708,72.1415
182.3708,72.1415
182.3251,72.0887
182.3251,72.0887
182.3251,72.0887
182.3086,72.0743
182.2708,72.0156
182.2708,71.9457
182.3086,71.8869
182.3721,71.8579
182.3903,71.8566
192.9765,71.8995
193.0435,71.9195
193.0890,71.9724
193.1000,72.0235
193.1000,94.2520
193.0803,94.3190
193.0677,94.3355
189.0369,98.7595
188.9772,98.7958
188.9452,98.8000
183.6000,98.8000
177.8000,105.2000
177.7007,113.7429
177.6802,113.8097
177.6562,113.8366
172.2000,118.4000
172.2000,119.8760
172.1803,119.9430
172.1275,119.9888
172.0760,120.0000
170.8395,120.0000
170.7725,119.9803
170.7267,119.9275
170.7155,119.8760
170.7155,117.9352
170.7155,117.9352
170.6736,117.8339
170.5961,117.7564
170.4948,117.7145
168.6604,117.7145
168.5933,117.6948
168.5476,117.6420
168.5376,117.5729
168.5667,117.5093
168.5829,117.4937
173.2000,113.8000
173.2000,113.5844
173.2197,113.5174
173.2303,113.5032
173.3056,113.4163
173.3653,113.2855
173.3850,113.2184
173.3850,113.2184
173.4055,113.0760
173.4055,107.3240
173.3939,107.2165
173.3827,107.1650
173.3826,107.1647
173.3486,107.0625
173.3486,107.0625
173.2896,106.9707
173.2700,106.9037
173.2896,106.8366
173.3002,106.8225
173.3056,106.8163
173.3653,106.6855
173.3850,106.6184
173.3850,106.6184
173.4055,106.4760
173.4055,104.4459
173.4252,104.3788
173.4418,104.3582
178.8000,99.0000
178.5561,99.0000
178.4890,98.9803
178.4433,98.9275
178.4333,98.8584
178.4363,98.8439
178.4363,98.8437
178.4363,98.8437
178.4363,98.8437
178.4552,98.7000
178.4363,98.5563
178.3809,98.4224
178.2926,98.3074
178.1776,98.2191
178.1776,98.2191
178.1776,98.2191
178.0437,98.1637
178.0437,98.1637
178.0437,98.1637
177.9719,98.1542
177.9000,98.1448
177.9000,98.1448
177.7563,98.1637
177.7563,98.1637
177.6224,98.2191
177.5074,98.3074
177.4191,98.4224
177.3637,98.5563
177.3637,98.5563
177.3473,98.6809
177.3448,98.7000
177.3579,98.8000
177.3637,98.8437
177.3637,98.8439
177.3637,98.8441
177.3647,98.8518
177.3635,98.8519
177.3621,98.9138
177.3229,98.9716
177.2587,98.9991
177.2439,99.0000
165.5328,99.0000
165.5022,98.9910
165.4863,98.9985
165.4672,99.0000
164.8328,99.0000
164.8022,98.9910
164.7863,98.9985
164.7672,99.0000
164.1328,99.0000
164.1022,98.9910
164.0863,98.9985
164.0672,99.0000
162.5240,99.0000
162.4570,98.9803
162.4112,98.9275
162.4000,98.8760
162.4000,98.3350
162.4197,98.2680
162.4725,98.2222
162.5240,98.2110
163.4375,98.2110
163.5045,98.2307
163.5502,98.2835
163.5604,98.3188
163.5637,98.3437
163.5637,98.3437
163.6000,98.4314
163.6000,98.9000
164.7000,98.9000
164.7000,98.7421
164.7801,98.7526
164.7834,98.7531
164.7956,98.7585
164.7979,98.7570
164.8166,98.7531
164.8196,98.7527
164.9437,98.7363
165.0776,98.6809
165.0776,98.6809
165.0847,98.6768
165.0859,98.6789
165.1397,98.6581
165.2081,98.6721
165.2164,98.6774
165.2224,98.6809
165.2224,98.6809
165.3563,98.7363
165.4801,98.7526
165.4834,98.7531
165.4956,98.7585
165.4979,98.7570
165.5166,98.7531
165.5196,98.7527
165.6437,98.7363
165.7776,98.6809
165.8926,98.5926
165.9809,98.4776
166.0363,98.3437
166.0396,98.3188
166.0679,98.2549
166.1262,98.2164
166.1625,98.2110
166.2599,98.2110
166.2599,98.2110
166.3522,98.1728
166.3522,98.1728
166.3522,98.1728
166.4228,98.1022
166.4228,98.1022
166.4228,98.1022
166.4610,98.0099
166.4610,97.5361
166.4807,97.4690
166.5070,97.4397
166.5708,97.3880
166.8932,97.0400
167.6447,97.0400
167.6637,97.1837
167.6637,97.1837
167.7191,97.3176
167.7191,97.3176
167.7191,97.3176
167.8074,97.4326
167.9224,97.5209
168.0563,97.5763
168.1833,97.5930
168.2000,97.5952
168.2000,97.5952
168.2000,97.5952
168.2150,97.5933
168.3437,97.5763
168.4776,97.5209
168.5926,97.4326
168.6809,97.3176
168.7363,97.1837
168.7474,97.1000
170.1447,97.1000
170.1637,97.2437
170.1637,97.2437
170.2191,97.3776
170.2191,97.3776
170.2191,97.3776
170.3074,97.4926
170.4224,97.5809
170.5563,97.6363
170.6833,97.6530
170.7000,97.6552
170.7000,97.6552
170.7000,97.6552
170.7150,97.6533
170.8437,97.6363
170.9776,97.5809
171.0926,97.4926
171.1809,97.3776
171.2363,97.2437
171.2552,97.1000
171.2363,96.9563
171.1809,96.8224
171.0926,96.7074
170.9776,96.6191
170.9776,96.6191
170.9776,96.6191
170.8437,96.5637
170.8437,96.5637
170.8437,96.5637
170.7719,96.5542
170.7000,96.5447
170.7000,96.5447
170.5563,96.5637
170.5563,96.5637
170.4224,96.6191
170.3074,96.7074
170.2191,96.8224
170.1637,96.9563
170.1637,96.9563
170.1447,97.1000
170.1447,97.1000
168.7474,97.1000
168.7552,97.0400
168.7363,96.8963
168.6809,96.7624
168.5926,96.6474
168.4776,96.5591
168.4776,96.5591
168.4776,96.5591
168.3437,96.5037
168.3437,96.5037
168.3437,96.5037
168.2719,96.4942
168.2000,96.4847
168.2000,96.4847
168.0563,96.5037
168.0563,96.5037
167.9224,96.5591
167.8074,96.6474
167.7191,96.7624
167.6637,96.8963
167.6637,96.8963
167.6447,97.0400
167.6447,97.0400
166.8932,97.0400
172.1378,91.3792
172.1666,91.3453
172.1799,91.3280
172.2056,91.2917
172.2653,91.1608
172.2850,91.0938
172.2850,91.0938
172.3055,90.9514
172.3055,90.4402
173.8637,90.4402
173.8679,90.4724
173.8826,90.5839
173.8826,90.5839
173.9381,90.7178
173.9381,90.7178
173.9381,90.7178
174.0263,90.8328
174.1413,90.9211
174.2752,90.9765
174.4022,90.9933
174.4190,90.9955
174.4190,90.9955
174.4190,90.9955
174.4339,90.9935
174.5627,90.9765
174.6966,90.9211
174.8116,90.8328
174.8751,90.7500
180.8347,90.7500
180.8537,90.8937
180.8537,90.8937
180.9091,91.0276
180.9091,91.0276
180.9091,91.0276
180.9974,91.1426
181.1124,91.2309
181.2463,91.2863
181.3733,91.3030
181.3900,91.3053
181.3900,91.3053
181.3900,91.3053
181.4050,91.3033
181.5337,91.2863
181.6676,91.2309
181.7826,91.1426
181.8709,91.0276
181.9263,90.8937
181.9452,90.7500
181.9263,90.6063
181.8709,90.4724
181.7826,90.3574
181.6676,90.2691
181.6676,90.2691
181.6676,90.2691
181.5337,90.2137
181.5337,90.2137
181.5337,90.2137
181.4619,90.2042
181.3900,90.1947
181.3900,90.1947
181.2463,90.2137
181.2463,90.2137
181.1124,90.2691
180.9974,90.3574
180.9091,90.4724
180.8537,90.6063
180.8537,90.6063
180.8347,90.7500
180.8347,90.7500
174.8751,90.7500
174.8998,90.7178
174.9553,90.5839
174.9742,90.4402
174.9553,90.2965
174.8998,90.1626
174.8116,90.0476
174.6966,89.9594
174.6966,89.9594
174.6966,89.9594
174.5627,89.9039
174.5627,89.9039
174.5627,89.9039
174.4908,89.8944
174.4190,89.8850
174.4190,89.8850
174.2752,89.9039
174.2752,89.9039
174.1413,89.9594
174.0263,90.0476
173.9381,90.1626
173.8826,90.2965
173.8826,90.2965
173.8637,90.4402
172.3055,90.4402
172.3055,86.9356
176.2847,86.9356
176.2848,86.9356
176.2958,87.0419
176.2958,87.0419
176.3067,87.0929
176.3067,87.0929
176.3399,87.1946
176.3399,87.1946
176.4169,87.3161
176.4623,87.3692
176.5705,87.4641
176.7009,87.5248
176.7678,87.5449
176.9101,87.5663
182.7719,87.6047
182.8810,87.5935
182.9333,87.5823
183.0375,87.5478
183.1585,87.4700
183.2113,87.4243
183.3056,87.3155
183.3653,87.1846
183.3850,87.1176
183.3850,87.1176
183.4055,86.9752
183.4055,82.2240
183.3939,82.1165
183.3827,82.0650
183.3826,82.0647
183.3486,81.9625
183.3486,81.9625
183.2708,81.8415
183.2708,81.8415
183.2708,81.8415
183.2251,81.7887
183.2251,81.7887
183.2251,81.7887
183.1163,81.6944
183.1163,81.6944
183.1163,81.6944
182.9855,81.6347
182.9855,81.6347
182.9855,81.6347
182.9255,81.6171
182.9184,81.6150
182.8556,81.6059
182.7760,81.5945
176.9238,81.5945
176.9237,81.5945
176.8168,81.6059
176.8168,81.6059
176.8168,81.6059
176.8168,81.6059
176.7655,81.6170
176.7655,81.6170
176.7655,81.6170
176.7655,81.6171
176.6634,81.6509
176.6634,81.6509
176.5422,81.7284
176.5422,81.7284
176.4893,81.7741
176.3949,81.8826
176.3348,82.0134
176.3181,82.0698
176.3156,82.0761
176.2943,82.2227
176.2943,82.2227
176.2847,86.9356
172.3055,86.9356
172.3055,85.5240
172.2939,85.4165
172.2827,85.3650
172.2826,85.3647
172.2486,85.2625
172.2486,85.2625
172.1708,85.1415
172.1708,85.1415
172.1708,85.1415
172.1251,85.0887
172.1251,85.0887
172.1251,85.0887
172.0163,84.9944
172.0163,84.9944
172.0163,84.9944
171.8855,84.9347
171.8827,84.9336
171.8819,84.9330
171.8814,84.9328
171.8815,84.9327
171.8268,84.8918
171.8024,84.8263
171.8020,84.8170
171.8056,83.8004
171.8150,83.7534
171.8563,83.6537
171.8752,83.5100
171.8563,83.3663
171.8171,83.2715
171.8076,83.2236
171.8248,78.3440
171.8447,78.2771
171.8838,78.2388
174.5500,76.6000
174.5744,71.9488
174.5944,71.8819
174.6474,71.8364
174.6988,71.8255
Z" /> 
<path style="fill:#CE7D2C; fill-opacity:1.0000; stroke:none;fill-rule:evenodd;"
d="M 171.7430,85.4197
171.7888,85.4725
171.8000,85.5240
171.8000,90.9514
171.7803,91.0184
171.7670,91.0357
166.2000,97.0444
166.2000,96.6000
163.7000,96.6000
163.7000,96.7934
163.5777,96.8702
163.4502,96.9977
163.3542,97.1505
163.3243,97.2360
163.2836,97.2927
163.2186,97.3185
163.2073,97.3190
161.8240,97.3190
161.6966,97.3531
161.5824,97.4191
161.5824,97.4191
161.4891,97.5124
161.4891,97.5124
161.4191,97.6337
161.4171,97.6325
161.3806,97.6779
161.3143,97.6999
161.3099,97.7000
161.1240,97.7000
161.0570,97.6803
161.0112,97.6275
161.0000,97.5760
161.0000,93.1500
162.0644,93.1500
162.0846,93.3292
162.0846,93.3293
162.1442,93.4995
162.1823,93.5602
162.2402,93.6523
162.3677,93.7798
162.5205,93.8758
162.6907,93.9354
162.6907,93.9354
162.8700,93.9556
162.8700,93.9556
162.8700,93.9556
163.0492,93.9354
163.0493,93.9354
163.0493,93.9354
163.2195,93.8758
163.3723,93.7798
163.4998,93.6523
163.5958,93.4995
163.6554,93.3293
163.6756,93.1500
163.6554,92.9707
163.5958,92.8005
163.4998,92.6477
163.3723,92.5202
163.2195,92.4242
163.0493,92.3646
163.0492,92.3646
162.8700,92.3444
162.8700,92.3444
162.6907,92.3646
162.6907,92.3646
162.5205,92.4242
162.3677,92.5202
162.2402,92.6477
162.1442,92.8005
162.0846,92.9707
162.0846,92.9707
162.0644,93.1500
162.0644,93.1500
161.0000,93.1500
161.0000,92.6413
161.0197,92.5743
161.0248,92.5669
161.0599,92.5202
161.3000,92.2000
161.2018,85.5258
161.2205,85.4585
161.2727,85.4120
161.3258,85.4000
171.6760,85.4000
Z" /> 
</g> 
</svg>
