M48
; DRILL file {KiCad 8.0.1} date 2024-07-03T15:51:49+0200
; FORMAT={-:-/ absolute / metric / decimal}
; #@! TF.CreationDate,2024-07-03T15:51:49+02:00
; #@! TF.GenerationSoftware,Kicad,Pcbnew,8.0.1
; #@! TF.FileFunction,MixedPlating,1,6
FMAT,2
METRIC
; #@! TA.AperFunction,Plated,PTH,ViaDrill
T1C0.300
; #@! TA.AperFunction,Plated,PTH,ComponentDrill
T2C0.500
; #@! TA.AperFunction,Plated,PTH,ComponentDrill
T3C1.970
; #@! TA.AperFunction,Plated,PTH,ComponentDrill
T4C3.200
%
G90
G05
T1
X162.5Y-86.7
X162.5Y-87.5
X162.87Y-93.15
X164.08Y-97.5
X164.1Y-98.2
X164.4Y-88.1
X164.8Y-97.5
X164.8Y-98.2
X165.5Y-98.2
X166.9Y-116.9
X167.0Y-77.8
X167.99Y-75.24
X168.2Y-97.04
X168.5Y-118.9
X169.2Y-118.9
X169.2Y-119.6
X169.9Y-118.9
X169.9Y-119.6
X170.7Y-97.1
X170.8Y-118.9
X170.945Y-94.19
X171.32Y-83.51
X172.0Y-74.3
X172.0Y-75.0
X172.01Y-75.68
X172.31Y-72.82
X172.7Y-80.3
X172.7Y-80.95
X172.7Y-81.65
X172.7Y-82.29
X172.7Y-82.94
X172.8Y-74.3
X172.8Y-75.0
X172.8Y-75.7
X173.3Y-80.3
X174.419Y-90.44
X177.4Y-73.0
X177.4Y-73.8
X177.4Y-74.5
X177.4Y-75.3
X177.6Y-77.8
X177.6Y-78.4
X177.6Y-79.0
X177.9Y-98.7
X178.06Y-84.46
X178.09Y-76.96
X178.2Y-73.0
X178.2Y-75.3
X178.4Y-77.54
X178.7Y-76.96
X178.78Y-84.45
X179.0Y-73.0
X179.03Y-77.54
X179.1Y-75.3
X179.32Y-76.96
X179.6Y-84.0
X179.6Y-85.0
X179.66Y-77.54
X179.8Y-73.0
X179.8Y-93.6
X179.9Y-75.3
X179.94Y-76.94
X180.5Y-84.4
X180.5Y-93.6
X180.7Y-73.0
X180.7Y-73.8
X180.7Y-74.6
X180.7Y-75.3
X181.2Y-93.6
X181.3Y-84.4
X181.39Y-90.75
X181.9Y-93.6
X186.5Y-106.5
X186.5Y-107.2
X192.7Y-98.3
X193.4Y-97.6
X193.4Y-98.3
X194.0Y-86.0
X195.1Y-86.0
X196.4Y-86.0
X197.2Y-86.0
X197.9Y-86.0
X198.2Y-106.8
X198.3Y-107.5
X198.9Y-106.8
X205.7Y-76.5
X205.7Y-77.2
X205.7Y-77.9
X205.7Y-78.6
X205.7Y-79.3
X205.7Y-80.0
X206.3Y-76.8
X206.3Y-77.6
X206.3Y-78.3
X206.4Y-117.6
T2
X158.73Y-73.627
X158.73Y-119.82
X159.433Y-71.93
X159.433Y-75.324
X159.433Y-118.123
X159.433Y-121.517
X161.13Y-71.227
X161.13Y-76.027
X161.13Y-117.42
X161.13Y-122.22
X162.827Y-71.93
X162.827Y-75.324
X162.827Y-118.123
X162.827Y-121.517
X163.53Y-73.627
X163.53Y-119.82
X208.66Y-73.62
X208.66Y-119.82
X209.363Y-71.923
X209.363Y-75.317
X209.363Y-118.123
X209.363Y-121.517
X211.06Y-71.22
X211.06Y-76.02
X211.06Y-117.42
X211.06Y-122.22
X212.757Y-71.923
X212.757Y-75.317
X212.757Y-118.123
X212.757Y-121.517
X213.46Y-73.62
X213.46Y-119.82
T3
X164.68Y-129.53
X165.04Y-63.29
X180.18Y-129.53
X180.54Y-63.29
X191.69Y-130.12
X192.0Y-63.835
X207.19Y-130.12
X207.5Y-63.835
T4
X161.13Y-73.627
X161.13Y-119.82
X211.06Y-73.62
X211.06Y-119.82
M30
