<?xml version="1.0" standalone="no"?>
 <!DOCTYPE svg PUBLIC "-//W3C//DTD SVG 1.1//EN" 
 "http://www.w3.org/Graphics/SVG/1.1/DTD/svg11.dtd"> 
<svg
  xmlns:svg="http://www.w3.org/2000/svg"
  xmlns="http://www.w3.org/2000/svg"
  xmlns:xlink="http://www.w3.org/1999/xlink"
  version="1.1"
  width="297.0022mm" height="210.0072mm" viewBox="0.0000 0.0000 297.0022 210.0072">
<title>SVG Image created as SEPIC-A-In4_Cu.svg date 2024/09/18 14:40:37 </title>
  <desc>Image generated by PCBNEW </desc>
<g style="fill:#000000; fill-opacity:1.0000;stroke:#000000; stroke-opacity:1.0000;
stroke-linecap:round; stroke-linejoin:round;"
 transform="translate(0 0) scale(1 1)">
<path style="fill:#DB628B; fill-opacity:1.0000; stroke:none;fill-rule:evenodd;"
d="M 163.2025,131.0075
163.2025,128.0525
166.1575,128.0525
166.1575,131.0075
Z" /> 
</g>
<g style="fill:#DB628B; fill-opacity:1.0000; stroke:none;">
<circle cx="180.1800" cy="129.5300" r="1.4775" /> 
<path style="fill:#DB628B; fill-opacity:1.0000; stroke:none;fill-rule:evenodd;"
d="M 163.5625,64.7675
163.5625,61.8125
166.5175,61.8125
166.5175,64.7675
Z" /> 
</g>
<g style="fill:#DB628B; fill-opacity:1.0000; stroke:none;">
<circle cx="180.5400" cy="63.2900" r="1.4775" /> 
</g>
<g style="fill:#DB628B; fill-opacity:1.0000; stroke:none;">
<circle cx="158.7300" cy="73.6271" r="0.4000" /> 
</g>
<g style="fill:#DB628B; fill-opacity:1.0000; stroke:none;">
<circle cx="159.4329" cy="71.9300" r="0.4000" /> 
</g>
<g style="fill:#DB628B; fill-opacity:1.0000; stroke:none;">
<circle cx="159.4329" cy="75.3241" r="0.4000" /> 
</g>
<g style="fill:#DB628B; fill-opacity:1.0000; stroke:none;">
<circle cx="161.1300" cy="71.2271" r="0.4000" /> 
</g>
<g style="fill:#DB628B; fill-opacity:1.0000; stroke:none;">
<circle cx="161.1300" cy="73.6271" r="3.2000" /> 
</g>
<g style="fill:#DB628B; fill-opacity:1.0000; stroke:none;">
<circle cx="161.1300" cy="76.0271" r="0.4000" /> 
</g>
<g style="fill:#DB628B; fill-opacity:1.0000; stroke:none;">
<circle cx="162.8271" cy="71.9300" r="0.4000" /> 
</g>
<g style="fill:#DB628B; fill-opacity:1.0000; stroke:none;">
<circle cx="162.8271" cy="75.3241" r="0.4000" /> 
</g>
<g style="fill:#DB628B; fill-opacity:1.0000; stroke:none;">
<circle cx="163.5300" cy="73.6271" r="0.4000" /> 
</g>
<g style="fill:#DB628B; fill-opacity:1.0000; stroke:none;">
<circle cx="207.1900" cy="130.1200" r="1.4775" /> 
</g>
<g style="fill:#DB628B; fill-opacity:1.0000; stroke:none;">
<circle cx="191.6900" cy="130.1200" r="1.4775" /> 
</g>
<g style="fill:#DB628B; fill-opacity:1.0000; stroke:none;">
<circle cx="208.6600" cy="119.8200" r="0.4000" /> 
</g>
<g style="fill:#DB628B; fill-opacity:1.0000; stroke:none;">
<circle cx="209.3629" cy="118.1229" r="0.4000" /> 
</g>
<g style="fill:#DB628B; fill-opacity:1.0000; stroke:none;">
<circle cx="209.3629" cy="121.5171" r="0.4000" /> 
</g>
<g style="fill:#DB628B; fill-opacity:1.0000; stroke:none;">
<circle cx="211.0600" cy="117.4200" r="0.4000" /> 
</g>
<g style="fill:#DB628B; fill-opacity:1.0000; stroke:none;">
<circle cx="211.0600" cy="119.8200" r="3.2000" /> 
</g>
<g style="fill:#DB628B; fill-opacity:1.0000; stroke:none;">
<circle cx="211.0600" cy="122.2200" r="0.4000" /> 
</g>
<g style="fill:#DB628B; fill-opacity:1.0000; stroke:none;">
<circle cx="212.7571" cy="118.1229" r="0.4000" /> 
</g>
<g style="fill:#DB628B; fill-opacity:1.0000; stroke:none;">
<circle cx="212.7571" cy="121.5171" r="0.4000" /> 
</g>
<g style="fill:#DB628B; fill-opacity:1.0000; stroke:none;">
<circle cx="213.4600" cy="119.8200" r="0.4000" /> 
</g>
<g style="fill:#DB628B; fill-opacity:1.0000; stroke:none;">
<circle cx="207.5000" cy="63.8350" r="1.4775" /> 
</g>
<g style="fill:#DB628B; fill-opacity:1.0000; stroke:none;">
<circle cx="192.0000" cy="63.8350" r="1.4775" /> 
</g>
<g style="fill:#DB628B; fill-opacity:1.0000; stroke:none;">
<circle cx="158.7300" cy="119.8200" r="0.4000" /> 
</g>
<g style="fill:#DB628B; fill-opacity:1.0000; stroke:none;">
<circle cx="159.4329" cy="118.1229" r="0.4000" /> 
</g>
<g style="fill:#DB628B; fill-opacity:1.0000; stroke:none;">
<circle cx="159.4329" cy="121.5171" r="0.4000" /> 
</g>
<g style="fill:#DB628B; fill-opacity:1.0000; stroke:none;">
<circle cx="161.1300" cy="117.4200" r="0.4000" /> 
</g>
<g style="fill:#DB628B; fill-opacity:1.0000; stroke:none;">
<circle cx="161.1300" cy="119.8200" r="3.2000" /> 
</g>
<g style="fill:#DB628B; fill-opacity:1.0000; stroke:none;">
<circle cx="161.1300" cy="122.2200" r="0.4000" /> 
</g>
<g style="fill:#DB628B; fill-opacity:1.0000; stroke:none;">
<circle cx="162.8271" cy="118.1229" r="0.4000" /> 
</g>
<g style="fill:#DB628B; fill-opacity:1.0000; stroke:none;">
<circle cx="162.8271" cy="121.5171" r="0.4000" /> 
</g>
<g style="fill:#DB628B; fill-opacity:1.0000; stroke:none;">
<circle cx="163.5300" cy="119.8200" r="0.4000" /> 
</g>
<g style="fill:#DB628B; fill-opacity:1.0000; stroke:none;">
<circle cx="208.6600" cy="73.6200" r="0.4000" /> 
</g>
<g style="fill:#DB628B; fill-opacity:1.0000; stroke:none;">
<circle cx="209.3629" cy="71.9229" r="0.4000" /> 
</g>
<g style="fill:#DB628B; fill-opacity:1.0000; stroke:none;">
<circle cx="209.3629" cy="75.3171" r="0.4000" /> 
</g>
<g style="fill:#DB628B; fill-opacity:1.0000; stroke:none;">
<circle cx="211.0600" cy="71.2200" r="0.4000" /> 
</g>
<g style="fill:#DB628B; fill-opacity:1.0000; stroke:none;">
<circle cx="211.0600" cy="73.6200" r="3.2000" /> 
</g>
<g style="fill:#DB628B; fill-opacity:1.0000; stroke:none;">
<circle cx="211.0600" cy="76.0200" r="0.4000" /> 
</g>
<g style="fill:#DB628B; fill-opacity:1.0000; stroke:none;">
<circle cx="212.7571" cy="71.9229" r="0.4000" /> 
</g>
<g style="fill:#DB628B; fill-opacity:1.0000; stroke:none;">
<circle cx="212.7571" cy="75.3171" r="0.4000" /> 
</g>
<g style="fill:#DB628B; fill-opacity:1.0000; stroke:none;">
<circle cx="213.4600" cy="73.6200" r="0.4000" /> 
</g>
<g style="fill:#ECECEC; fill-opacity:1.0000; stroke:none;">
<circle cx="159.0040" cy="79.9760" r="0.3000" /> 
</g>
<g style="fill:#ECECEC; fill-opacity:1.0000; stroke:none;">
<circle cx="182.4710" cy="134.4930" r="0.3000" /> 
</g>
<g style="fill:#ECECEC; fill-opacity:1.0000; stroke:none;">
<circle cx="212.9790" cy="100.5950" r="0.3000" /> 
</g>
<g style="fill:#ECECEC; fill-opacity:1.0000; stroke:none;">
<circle cx="159.0040" cy="109.9760" r="0.3000" /> 
</g>
<g style="fill:#ECECEC; fill-opacity:1.0000; stroke:none;">
<circle cx="186.0000" cy="59.0000" r="0.3000" /> 
</g>
<g style="fill:#ECECEC; fill-opacity:1.0000; stroke:none;">
<circle cx="198.0000" cy="59.0000" r="0.3000" /> 
</g>
<g style="fill:#ECECEC; fill-opacity:1.0000; stroke:none;">
<circle cx="212.9790" cy="103.5950" r="0.3000" /> 
</g>
<g style="fill:#ECECEC; fill-opacity:1.0000; stroke:none;">
<circle cx="159.0040" cy="130.8100" r="0.3000" /> 
</g>
<g style="fill:#ECECEC; fill-opacity:1.0000; stroke:none;">
<circle cx="212.8520" cy="132.2070" r="0.3000" /> 
</g>
<g style="fill:#ECECEC; fill-opacity:1.0000; stroke:none;">
<circle cx="164.4710" cy="134.4930" r="0.3000" /> 
</g>
<g style="fill:#ECECEC; fill-opacity:1.0000; stroke:none;">
<circle cx="212.9790" cy="67.5950" r="0.3000" /> 
</g>
<g style="fill:#ECECEC; fill-opacity:1.0000; stroke:none;">
<circle cx="212.8520" cy="126.6670" r="0.3000" /> 
</g>
<g style="fill:#ECECEC; fill-opacity:1.0000; stroke:none;">
<circle cx="204.0000" cy="59.0000" r="0.3000" /> 
</g>
<g style="fill:#ECECEC; fill-opacity:1.0000; stroke:none;">
<circle cx="185.4710" cy="134.4930" r="0.3000" /> 
</g>
<g style="fill:#ECECEC; fill-opacity:1.0000; stroke:none;">
<circle cx="212.9790" cy="82.5950" r="0.3000" /> 
</g>
<g style="fill:#ECECEC; fill-opacity:1.0000; stroke:none;">
<circle cx="212.8520" cy="123.6670" r="0.3000" /> 
</g>
<g style="fill:#ECECEC; fill-opacity:1.0000; stroke:none;">
<circle cx="168.0000" cy="59.0000" r="0.3000" /> 
</g>
<g style="fill:#ECECEC; fill-opacity:1.0000; stroke:none;">
<circle cx="165.0000" cy="59.0000" r="0.3000" /> 
</g>
<g style="fill:#ECECEC; fill-opacity:1.0000; stroke:none;">
<circle cx="161.4710" cy="134.4930" r="0.3000" /> 
</g>
<g style="fill:#ECECEC; fill-opacity:1.0000; stroke:none;">
<circle cx="159.0040" cy="82.9760" r="0.3000" /> 
</g>
<g style="fill:#ECECEC; fill-opacity:1.0000; stroke:none;">
<circle cx="212.8520" cy="134.4930" r="0.3000" /> 
</g>
<g style="fill:#ECECEC; fill-opacity:1.0000; stroke:none;">
<circle cx="176.4710" cy="134.4930" r="0.3000" /> 
</g>
<g style="fill:#ECECEC; fill-opacity:1.0000; stroke:none;">
<circle cx="206.4710" cy="134.4930" r="0.3000" /> 
</g>
<g style="fill:#ECECEC; fill-opacity:1.0000; stroke:none;">
<circle cx="159.0040" cy="61.9760" r="0.3000" /> 
</g>
<g style="fill:#ECECEC; fill-opacity:1.0000; stroke:none;">
<circle cx="159.0000" cy="59.0000" r="0.3000" /> 
</g>
<g style="fill:#ECECEC; fill-opacity:1.0000; stroke:none;">
<circle cx="179.4710" cy="134.4930" r="0.3000" /> 
</g>
<g style="fill:#ECECEC; fill-opacity:1.0000; stroke:none;">
<circle cx="159.0040" cy="124.8100" r="0.3000" /> 
</g>
<g style="fill:#ECECEC; fill-opacity:1.0000; stroke:none;">
<circle cx="183.0000" cy="59.0000" r="0.3000" /> 
</g>
<g style="fill:#ECECEC; fill-opacity:1.0000; stroke:none;">
<circle cx="159.0040" cy="85.9760" r="0.3000" /> 
</g>
<g style="fill:#ECECEC; fill-opacity:1.0000; stroke:none;">
<circle cx="188.4710" cy="134.4930" r="0.3000" /> 
</g>
<g style="fill:#ECECEC; fill-opacity:1.0000; stroke:none;">
<circle cx="197.4710" cy="134.4930" r="0.3000" /> 
</g>
<g style="fill:#ECECEC; fill-opacity:1.0000; stroke:none;">
<circle cx="159.0040" cy="88.9760" r="0.3000" /> 
</g>
<g style="fill:#ECECEC; fill-opacity:1.0000; stroke:none;">
<circle cx="159.0040" cy="64.9760" r="0.3000" /> 
</g>
<g style="fill:#ECECEC; fill-opacity:1.0000; stroke:none;">
<circle cx="200.4710" cy="134.4930" r="0.3000" /> 
</g>
<g style="fill:#ECECEC; fill-opacity:1.0000; stroke:none;">
<circle cx="195.0000" cy="59.0000" r="0.3000" /> 
</g>
<g style="fill:#ECECEC; fill-opacity:1.0000; stroke:none;">
<circle cx="203.4710" cy="134.4930" r="0.3000" /> 
</g>
<g style="fill:#ECECEC; fill-opacity:1.0000; stroke:none;">
<circle cx="194.4710" cy="134.4930" r="0.3000" /> 
</g>
<g style="fill:#ECECEC; fill-opacity:1.0000; stroke:none;">
<circle cx="213.0000" cy="59.0000" r="0.3000" /> 
</g>
<g style="fill:#ECECEC; fill-opacity:1.0000; stroke:none;">
<circle cx="159.0040" cy="106.9760" r="0.3000" /> 
</g>
<g style="fill:#ECECEC; fill-opacity:1.0000; stroke:none;">
<circle cx="159.0040" cy="103.9760" r="0.3000" /> 
</g>
<g style="fill:#ECECEC; fill-opacity:1.0000; stroke:none;">
<circle cx="212.9790" cy="97.5950" r="0.3000" /> 
</g>
<g style="fill:#ECECEC; fill-opacity:1.0000; stroke:none;">
<circle cx="159.0040" cy="67.9760" r="0.3000" /> 
</g>
<g style="fill:#ECECEC; fill-opacity:1.0000; stroke:none;">
<circle cx="212.9790" cy="94.5950" r="0.3000" /> 
</g>
<g style="fill:#ECECEC; fill-opacity:1.0000; stroke:none;">
<circle cx="212.9790" cy="91.5950" r="0.3000" /> 
</g>
<g style="fill:#ECECEC; fill-opacity:1.0000; stroke:none;">
<circle cx="201.0000" cy="59.0000" r="0.3000" /> 
</g>
<g style="fill:#ECECEC; fill-opacity:1.0000; stroke:none;">
<circle cx="189.0000" cy="59.0000" r="0.3000" /> 
</g>
<g style="fill:#ECECEC; fill-opacity:1.0000; stroke:none;">
<circle cx="159.0040" cy="94.9760" r="0.3000" /> 
</g>
<g style="fill:#ECECEC; fill-opacity:1.0000; stroke:none;">
<circle cx="212.9790" cy="88.5950" r="0.3000" /> 
</g>
<g style="fill:#ECECEC; fill-opacity:1.0000; stroke:none;">
<circle cx="180.0000" cy="59.0000" r="0.3000" /> 
</g>
<g style="fill:#ECECEC; fill-opacity:1.0000; stroke:none;">
<circle cx="210.0000" cy="59.0000" r="0.3000" /> 
</g>
<g style="fill:#ECECEC; fill-opacity:1.0000; stroke:none;">
<circle cx="207.0000" cy="59.0000" r="0.3000" /> 
</g>
<g style="fill:#ECECEC; fill-opacity:1.0000; stroke:none;">
<circle cx="212.9790" cy="109.5950" r="0.3000" /> 
</g>
<g style="fill:#ECECEC; fill-opacity:1.0000; stroke:none;">
<circle cx="212.9790" cy="115.5950" r="0.3000" /> 
</g>
<g style="fill:#ECECEC; fill-opacity:1.0000; stroke:none;">
<circle cx="170.4710" cy="134.4930" r="0.3000" /> 
</g>
<g style="fill:#ECECEC; fill-opacity:1.0000; stroke:none;">
<circle cx="212.9790" cy="64.5950" r="0.3000" /> 
</g>
<g style="fill:#ECECEC; fill-opacity:1.0000; stroke:none;">
<circle cx="212.9790" cy="79.5950" r="0.3000" /> 
</g>
<g style="fill:#ECECEC; fill-opacity:1.0000; stroke:none;">
<circle cx="167.4710" cy="134.4930" r="0.3000" /> 
</g>
<g style="fill:#ECECEC; fill-opacity:1.0000; stroke:none;">
<circle cx="212.8520" cy="129.6670" r="0.3000" /> 
</g>
<g style="fill:#ECECEC; fill-opacity:1.0000; stroke:none;">
<circle cx="209.4710" cy="134.4930" r="0.3000" /> 
</g>
<g style="fill:#ECECEC; fill-opacity:1.0000; stroke:none;">
<circle cx="212.9790" cy="61.5950" r="0.3000" /> 
</g>
<g style="fill:#ECECEC; fill-opacity:1.0000; stroke:none;">
<circle cx="177.0000" cy="59.0000" r="0.3000" /> 
</g>
<g style="fill:#ECECEC; fill-opacity:1.0000; stroke:none;">
<circle cx="192.0000" cy="59.0000" r="0.3000" /> 
</g>
<g style="fill:#ECECEC; fill-opacity:1.0000; stroke:none;">
<circle cx="212.9790" cy="106.5950" r="0.3000" /> 
</g>
<g style="fill:#ECECEC; fill-opacity:1.0000; stroke:none;">
<circle cx="159.0040" cy="100.9760" r="0.3000" /> 
</g>
<g style="fill:#ECECEC; fill-opacity:1.0000; stroke:none;">
<circle cx="162.0000" cy="59.0000" r="0.3000" /> 
</g>
<g style="fill:#ECECEC; fill-opacity:1.0000; stroke:none;">
<circle cx="159.0040" cy="115.9760" r="0.3000" /> 
</g>
<g style="fill:#ECECEC; fill-opacity:1.0000; stroke:none;">
<circle cx="159.0040" cy="134.4930" r="0.3000" /> 
</g>
<g style="fill:#ECECEC; fill-opacity:1.0000; stroke:none;">
<circle cx="212.9790" cy="112.5950" r="0.3000" /> 
</g>
<g style="fill:#ECECEC; fill-opacity:1.0000; stroke:none;">
<circle cx="174.0000" cy="59.0000" r="0.3000" /> 
</g>
<g style="fill:#ECECEC; fill-opacity:1.0000; stroke:none;">
<circle cx="173.4710" cy="134.4930" r="0.3000" /> 
</g>
<g style="fill:#ECECEC; fill-opacity:1.0000; stroke:none;">
<circle cx="191.4710" cy="134.4930" r="0.3000" /> 
</g>
<g style="fill:#ECECEC; fill-opacity:1.0000; stroke:none;">
<circle cx="159.0040" cy="112.9760" r="0.3000" /> 
</g>
<g style="fill:#ECECEC; fill-opacity:1.0000; stroke:none;">
<circle cx="159.0040" cy="97.9760" r="0.3000" /> 
</g>
<g style="fill:#ECECEC; fill-opacity:1.0000; stroke:none;">
<circle cx="159.0040" cy="127.8100" r="0.3000" /> 
</g>
<g style="fill:#ECECEC; fill-opacity:1.0000; stroke:none;">
<circle cx="159.0040" cy="91.9760" r="0.3000" /> 
</g>
<g style="fill:#ECECEC; fill-opacity:1.0000; stroke:none;">
<circle cx="171.0000" cy="59.0000" r="0.3000" /> 
</g>
<g style="fill:#ECECEC; fill-opacity:1.0000; stroke:none;">
<circle cx="212.9790" cy="85.5950" r="0.3000" /> 
</g>
<g style="fill:#ECECEC; fill-opacity:1.0000; stroke:none;">
<circle cx="198.9000" cy="106.8000" r="0.3000" /> 
</g>
<g style="fill:#ECECEC; fill-opacity:1.0000; stroke:none;">
<circle cx="198.2000" cy="106.8000" r="0.3000" /> 
</g>
<g style="fill:#ECECEC; fill-opacity:1.0000; stroke:none;">
<circle cx="198.3000" cy="107.5000" r="0.3000" /> 
</g>
<g style="fill:#ECECEC; fill-opacity:1.0000; stroke:none;">
<circle cx="205.7000" cy="76.5000" r="0.3000" /> 
</g>
<g style="fill:#ECECEC; fill-opacity:1.0000; stroke:none;">
<circle cx="206.3000" cy="76.8000" r="0.3000" /> 
</g>
<g style="fill:#ECECEC; fill-opacity:1.0000; stroke:none;">
<circle cx="205.7000" cy="78.6000" r="0.3000" /> 
</g>
<g style="fill:#ECECEC; fill-opacity:1.0000; stroke:none;">
<circle cx="206.3000" cy="77.6000" r="0.3000" /> 
</g>
<g style="fill:#ECECEC; fill-opacity:1.0000; stroke:none;">
<circle cx="205.7000" cy="77.2000" r="0.3000" /> 
</g>
<g style="fill:#ECECEC; fill-opacity:1.0000; stroke:none;">
<circle cx="205.7000" cy="80.0000" r="0.3000" /> 
</g>
<g style="fill:#ECECEC; fill-opacity:1.0000; stroke:none;">
<circle cx="206.3000" cy="78.3000" r="0.3000" /> 
</g>
<g style="fill:#ECECEC; fill-opacity:1.0000; stroke:none;">
<circle cx="206.4000" cy="117.6000" r="0.3000" /> 
</g>
<g style="fill:#ECECEC; fill-opacity:1.0000; stroke:none;">
<circle cx="205.7000" cy="77.9000" r="0.3000" /> 
</g>
<g style="fill:#ECECEC; fill-opacity:1.0000; stroke:none;">
<circle cx="205.7000" cy="79.3000" r="0.3000" /> 
</g>
<g style="fill:#ECECEC; fill-opacity:1.0000; stroke:none;">
<circle cx="205.8670" cy="90.5510" r="0.3000" /> 
</g>
<g style="fill:#ECECEC; fill-opacity:1.0000; stroke:none;">
<circle cx="197.9000" cy="86.0000" r="0.3000" /> 
</g>
<g style="fill:#ECECEC; fill-opacity:1.0000; stroke:none;">
<circle cx="166.8750" cy="116.7250" r="0.3000" /> 
</g>
<g style="fill:#ECECEC; fill-opacity:1.0000; stroke:none;">
<circle cx="169.3500" cy="74.6250" r="0.3000" /> 
</g>
<g style="fill:#ECECEC; fill-opacity:1.0000; stroke:none;">
<circle cx="176.0220" cy="99.9490" r="0.3000" /> 
</g>
<g style="fill:#ECECEC; fill-opacity:1.0000; stroke:none;">
<circle cx="197.2000" cy="86.0000" r="0.3000" /> 
</g>
<g style="fill:#ECECEC; fill-opacity:1.0000; stroke:none;">
<circle cx="196.4000" cy="86.0000" r="0.3000" /> 
</g>
<g style="fill:#ECECEC; fill-opacity:1.0000; stroke:none;">
<circle cx="171.9776" cy="75.7765" r="0.3000" /> 
</g>
<g style="fill:#ECECEC; fill-opacity:1.0000; stroke:none;">
<circle cx="186.5000" cy="106.5000" r="0.3000" /> 
</g>
<g style="fill:#ECECEC; fill-opacity:1.0000; stroke:none;">
<circle cx="186.5000" cy="107.2000" r="0.3000" /> 
</g>
<g style="fill:#ECECEC; fill-opacity:1.0000; stroke:none;">
<circle cx="162.8700" cy="93.1500" r="0.3000" /> 
</g>
<g style="fill:#ECECEC; fill-opacity:1.0000; stroke:none;">
<circle cx="167.0000" cy="77.8000" r="0.3000" /> 
</g>
<g style="fill:#ECECEC; fill-opacity:1.0000; stroke:none;">
<circle cx="177.9000" cy="98.7000" r="0.3000" /> 
</g>
<g style="fill:#ECECEC; fill-opacity:1.0000; stroke:none;">
<circle cx="177.4000" cy="74.5000" r="0.3000" /> 
</g>
<g style="fill:#ECECEC; fill-opacity:1.0000; stroke:none;">
<circle cx="177.4000" cy="75.3000" r="0.3000" /> 
</g>
<g style="fill:#ECECEC; fill-opacity:1.0000; stroke:none;">
<circle cx="178.2000" cy="73.0000" r="0.3000" /> 
</g>
<g style="fill:#ECECEC; fill-opacity:1.0000; stroke:none;">
<circle cx="180.7000" cy="73.8000" r="0.3000" /> 
</g>
<g style="fill:#ECECEC; fill-opacity:1.0000; stroke:none;">
<circle cx="178.2000" cy="75.3000" r="0.3000" /> 
</g>
<g style="fill:#ECECEC; fill-opacity:1.0000; stroke:none;">
<circle cx="177.4000" cy="73.0000" r="0.3000" /> 
</g>
<g style="fill:#ECECEC; fill-opacity:1.0000; stroke:none;">
<circle cx="179.8000" cy="73.0000" r="0.3000" /> 
</g>
<g style="fill:#ECECEC; fill-opacity:1.0000; stroke:none;">
<circle cx="180.7000" cy="75.3000" r="0.3000" /> 
</g>
<g style="fill:#ECECEC; fill-opacity:1.0000; stroke:none;">
<circle cx="180.7000" cy="73.0000" r="0.3000" /> 
</g>
<g style="fill:#ECECEC; fill-opacity:1.0000; stroke:none;">
<circle cx="179.0000" cy="73.0000" r="0.3000" /> 
</g>
<g style="fill:#ECECEC; fill-opacity:1.0000; stroke:none;">
<circle cx="177.4000" cy="73.8000" r="0.3000" /> 
</g>
<g style="fill:#ECECEC; fill-opacity:1.0000; stroke:none;">
<circle cx="179.9000" cy="75.3000" r="0.3000" /> 
</g>
<g style="fill:#ECECEC; fill-opacity:1.0000; stroke:none;">
<circle cx="195.1000" cy="86.0000" r="0.3000" /> 
</g>
<g style="fill:#ECECEC; fill-opacity:1.0000; stroke:none;">
<circle cx="180.7000" cy="74.6000" r="0.3000" /> 
</g>
<g style="fill:#ECECEC; fill-opacity:1.0000; stroke:none;">
<circle cx="194.0000" cy="86.0000" r="0.3000" /> 
</g>
<g style="fill:#ECECEC; fill-opacity:1.0000; stroke:none;">
<circle cx="179.1000" cy="75.3000" r="0.3000" /> 
</g>
<g style="fill:#ECECEC; fill-opacity:1.0000; stroke:none;">
<circle cx="179.3200" cy="76.9600" r="0.3000" /> 
</g>
<g style="fill:#ECECEC; fill-opacity:1.0000; stroke:none;">
<circle cx="178.4000" cy="77.5400" r="0.3000" /> 
</g>
<g style="fill:#ECECEC; fill-opacity:1.0000; stroke:none;">
<circle cx="179.0300" cy="77.5400" r="0.3000" /> 
</g>
<g style="fill:#ECECEC; fill-opacity:1.0000; stroke:none;">
<circle cx="179.6600" cy="77.5400" r="0.3000" /> 
</g>
<g style="fill:#ECECEC; fill-opacity:1.0000; stroke:none;">
<circle cx="177.6000" cy="78.4000" r="0.3000" /> 
</g>
<g style="fill:#ECECEC; fill-opacity:1.0000; stroke:none;">
<circle cx="179.9400" cy="76.9400" r="0.3000" /> 
</g>
<g style="fill:#ECECEC; fill-opacity:1.0000; stroke:none;">
<circle cx="177.6000" cy="77.8000" r="0.3000" /> 
</g>
<g style="fill:#ECECEC; fill-opacity:1.0000; stroke:none;">
<circle cx="178.0900" cy="76.9600" r="0.3000" /> 
</g>
<g style="fill:#ECECEC; fill-opacity:1.0000; stroke:none;">
<circle cx="177.6000" cy="79.0000" r="0.3000" /> 
</g>
<g style="fill:#ECECEC; fill-opacity:1.0000; stroke:none;">
<circle cx="178.7000" cy="76.9600" r="0.3000" /> 
</g>
<g style="fill:#ECECEC; fill-opacity:1.0000; stroke:none;">
<circle cx="179.6000" cy="85.0000" r="0.3000" /> 
</g>
<g style="fill:#ECECEC; fill-opacity:1.0000; stroke:none;">
<circle cx="180.5000" cy="84.4000" r="0.3000" /> 
</g>
<g style="fill:#ECECEC; fill-opacity:1.0000; stroke:none;">
<circle cx="178.0600" cy="84.4600" r="0.3000" /> 
</g>
<g style="fill:#ECECEC; fill-opacity:1.0000; stroke:none;">
<circle cx="178.7800" cy="84.4500" r="0.3000" /> 
</g>
<g style="fill:#ECECEC; fill-opacity:1.0000; stroke:none;">
<circle cx="179.6000" cy="84.0000" r="0.3000" /> 
</g>
<g style="fill:#ECECEC; fill-opacity:1.0000; stroke:none;">
<circle cx="181.3000" cy="84.4000" r="0.3000" /> 
</g>
<g style="fill:#ECECEC; fill-opacity:1.0000; stroke:none;">
<circle cx="181.3900" cy="90.7500" r="0.3000" /> 
</g>
<g style="fill:#ECECEC; fill-opacity:1.0000; stroke:none;">
<circle cx="174.4190" cy="90.4402" r="0.3000" /> 
</g>
<g style="fill:#ECECEC; fill-opacity:1.0000; stroke:none;">
<circle cx="169.2000" cy="119.6000" r="0.3000" /> 
</g>
<g style="fill:#ECECEC; fill-opacity:1.0000; stroke:none;">
<circle cx="169.2000" cy="118.9000" r="0.3000" /> 
</g>
<g style="fill:#ECECEC; fill-opacity:1.0000; stroke:none;">
<circle cx="168.5000" cy="118.9000" r="0.3000" /> 
</g>
<g style="fill:#ECECEC; fill-opacity:1.0000; stroke:none;">
<circle cx="169.9000" cy="118.9000" r="0.3000" /> 
</g>
<g style="fill:#ECECEC; fill-opacity:1.0000; stroke:none;">
<circle cx="169.9000" cy="119.6000" r="0.3000" /> 
</g>
<g style="fill:#ECECEC; fill-opacity:1.0000; stroke:none;">
<circle cx="173.3000" cy="80.3000" r="0.3000" /> 
</g>
<g style="fill:#ECECEC; fill-opacity:1.0000; stroke:none;">
<circle cx="172.8000" cy="75.7000" r="0.3000" /> 
</g>
<g style="fill:#ECECEC; fill-opacity:1.0000; stroke:none;">
<circle cx="181.2000" cy="93.6000" r="0.3000" /> 
</g>
<g style="fill:#ECECEC; fill-opacity:1.0000; stroke:none;">
<circle cx="164.0800" cy="97.5000" r="0.3000" /> 
</g>
<g style="fill:#ECECEC; fill-opacity:1.0000; stroke:none;">
<circle cx="181.9000" cy="93.6000" r="0.3000" /> 
</g>
<g style="fill:#ECECEC; fill-opacity:1.0000; stroke:none;">
<circle cx="180.5000" cy="93.6000" r="0.3000" /> 
</g>
<g style="fill:#ECECEC; fill-opacity:1.0000; stroke:none;">
<circle cx="172.8000" cy="74.3000" r="0.3000" /> 
</g>
<g style="fill:#ECECEC; fill-opacity:1.0000; stroke:none;">
<circle cx="172.8000" cy="75.0000" r="0.3000" /> 
</g>
<g style="fill:#ECECEC; fill-opacity:1.0000; stroke:none;">
<circle cx="179.8000" cy="93.6000" r="0.3000" /> 
</g>
<g style="fill:#ECECEC; fill-opacity:1.0000; stroke:none;">
<circle cx="172.7000" cy="82.2900" r="0.3000" /> 
</g>
<g style="fill:#ECECEC; fill-opacity:1.0000; stroke:none;">
<circle cx="172.7000" cy="82.9400" r="0.3000" /> 
</g>
<g style="fill:#ECECEC; fill-opacity:1.0000; stroke:none;">
<circle cx="170.8000" cy="118.9000" r="0.3000" /> 
</g>
<g style="fill:#ECECEC; fill-opacity:1.0000; stroke:none;">
<circle cx="172.0000" cy="74.3000" r="0.3000" /> 
</g>
<g style="fill:#ECECEC; fill-opacity:1.0000; stroke:none;">
<circle cx="172.7000" cy="80.3000" r="0.3000" /> 
</g>
<g style="fill:#ECECEC; fill-opacity:1.0000; stroke:none;">
<circle cx="172.7000" cy="81.6500" r="0.3000" /> 
</g>
<g style="fill:#ECECEC; fill-opacity:1.0000; stroke:none;">
<circle cx="172.0000" cy="75.0000" r="0.3000" /> 
</g>
<g style="fill:#ECECEC; fill-opacity:1.0000; stroke:none;">
<circle cx="170.9450" cy="94.1900" r="0.3000" /> 
</g>
<g style="fill:#ECECEC; fill-opacity:1.0000; stroke:none;">
<circle cx="172.7000" cy="80.9500" r="0.3000" /> 
</g>
<g style="fill:#ECECEC; fill-opacity:1.0000; stroke:none;">
<circle cx="162.5000" cy="86.7000" r="0.3000" /> 
</g>
<g style="fill:#ECECEC; fill-opacity:1.0000; stroke:none;">
<circle cx="164.8000" cy="97.5000" r="0.3000" /> 
</g>
<g style="fill:#ECECEC; fill-opacity:1.0000; stroke:none;">
<circle cx="164.4000" cy="88.1000" r="0.3000" /> 
</g>
<g style="fill:#ECECEC; fill-opacity:1.0000; stroke:none;">
<circle cx="165.5000" cy="98.2000" r="0.3000" /> 
</g>
<g style="fill:#ECECEC; fill-opacity:1.0000; stroke:none;">
<circle cx="164.8000" cy="98.2000" r="0.3000" /> 
</g>
<g style="fill:#ECECEC; fill-opacity:1.0000; stroke:none;">
<circle cx="164.1000" cy="98.2000" r="0.3000" /> 
</g>
<g style="fill:#ECECEC; fill-opacity:1.0000; stroke:none;">
<circle cx="162.5000" cy="87.5000" r="0.3000" /> 
</g>
<g style="fill:#ECECEC; fill-opacity:1.0000; stroke:none;">
<circle cx="193.4000" cy="98.3000" r="0.3000" /> 
</g>
<g style="fill:#ECECEC; fill-opacity:1.0000; stroke:none;">
<circle cx="193.4000" cy="97.6000" r="0.3000" /> 
</g>
<g style="fill:#ECECEC; fill-opacity:1.0000; stroke:none;">
<circle cx="192.7000" cy="98.3000" r="0.3000" /> 
</g>
<g style="fill:#ECECEC; fill-opacity:1.0000; stroke:none;">
<circle cx="172.3100" cy="72.8200" r="0.3000" /> 
</g>
<g style="fill:#ECECEC; fill-opacity:1.0000; stroke:none;">
<circle cx="168.2000" cy="97.0400" r="0.3000" /> 
</g>
<g style="fill:#ECECEC; fill-opacity:1.0000; stroke:none;">
<circle cx="171.3200" cy="83.5100" r="0.3000" /> 
</g>
<g style="fill:#ECECEC; fill-opacity:1.0000; stroke:none;">
<circle cx="170.7000" cy="97.1000" r="0.3000" /> 
</g>
<g style="fill:none; 
stroke:#DB628B; stroke-width:0.1500; stroke-opacity:1; 
stroke-linecap:round; stroke-linejoin:round;">
<path d="M172.3100 72.8400
L168.2000 76.9500
" />
<path d="M168.2000 76.9500
L168.2000 97.0400
" />
<path d="M172.3100 72.8200
L172.3100 72.8400
" />
<path d="M170.7000 97.1000
L168.8800 95.2800
" />
<path d="M168.8800 85.9500
L171.3200 83.5100
" />
<path d="M168.8800 95.2800
L168.8800 85.9500
" />
<path style="fill:#DB628B; fill-opacity:1.0000; stroke:none;fill-rule:evenodd;"
d="M 172.8430,100.6197
172.8888,100.6725
172.9000,100.7240
172.9000,106.4760
172.8803,106.5430
172.8275,106.5888
172.7760,106.6000
166.6240,106.6000
166.5570,106.5803
166.5112,106.5275
166.5000,106.4760
166.5000,100.7240
166.5197,100.6570
166.5725,100.6112
166.6240,100.6000
172.7760,100.6000
Z" /> 
<path style="fill:#DB628B; fill-opacity:1.0000; stroke:none;fill-rule:evenodd;"
d="M 214.5262,58.2197
214.5932,58.2396
214.6388,58.2925
214.6499,58.3438
214.6001,135.1672
214.5804,135.2343
214.5275,135.2800
214.4772,135.2911
159.7764,135.7995
159.7753,135.7995
157.6939,135.7995
157.6269,135.7798
157.5811,135.7270
157.5699,135.6756
157.5697,135.2343
157.5518,98.6419
160.4953,98.6419
160.4971,98.6930
160.4977,98.7000
160.4977,98.7000
160.4993,98.7179
160.4993,98.7179
160.5062,98.7685
160.5062,98.7685
160.5529,98.9046
160.5529,98.9046
160.5823,98.9621
160.5847,98.9668
160.6678,99.0843
160.6678,99.0843
162.2620,100.7672
162.2939,100.8294
162.2960,100.8517
162.3704,113.0489
162.3706,113.0791
162.3897,116.2172
162.3914,116.4950
162.4093,116.6254
162.4093,116.6254
162.4263,116.6871
162.4263,116.6871
162.4772,116.8085
162.4772,116.8085
162.5667,116.9211
162.6175,116.9691
162.6175,116.9691
162.6672,117.0041
162.6746,117.0135
163.0051,117.2281
163.0156,117.2357
163.2658,117.4383
163.2754,117.4470
163.5030,117.6746
163.5117,117.6842
163.7143,117.9344
163.7219,117.9449
163.8972,118.2149
163.9037,118.2261
163.9898,118.3950
163.9898,118.3951
164.0516,118.4889
164.0516,118.4889
164.0866,118.5310
164.0866,118.5310
164.0866,118.5310
164.1677,118.6088
164.5474,118.9000
164.5474,118.9000
164.8716,119.1485
165.0707,119.3012
165.3459,119.5122
165.3872,119.5686
165.3945,119.6106
165.3945,127.4280
165.3748,127.4950
165.3220,127.5408
165.2705,127.5520
163.1546,127.5520
163.1546,127.5520
163.0950,127.5584
162.9602,127.6087
162.9602,127.6087
162.8450,127.6950
162.8450,127.6950
162.7587,127.8102
162.7587,127.8102
162.7084,127.9450
162.7020,128.0046
162.7020,128.0046
162.7020,131.0554
162.7020,131.0554
162.7084,131.1150
162.7587,131.2498
162.7587,131.2498
162.8450,131.3650
162.8450,131.3650
162.9602,131.4513
162.9602,131.4513
163.0950,131.5016
163.0950,131.5016
163.1019,131.5023
163.1546,131.5080
165.2705,131.5080
165.3375,131.5277
165.3833,131.5805
165.3945,131.6320
165.3945,132.4763
165.4059,132.5831
165.4059,132.5832
165.4170,132.6344
165.4170,132.6344
165.4507,132.7364
165.5282,132.8576
165.5282,132.8576
165.5282,132.8576
165.5739,132.9105
165.5739,132.9105
165.6824,133.0050
165.8131,133.0651
165.8801,133.0850
165.8802,133.0850
165.8802,133.0850
166.0225,133.1058
206.5711,133.2052
206.6858,133.1923
206.7405,133.1797
206.8493,133.1412
206.9682,133.0602
207.0198,133.0130
207.0198,133.0130
207.1111,132.9018
207.1673,132.7694
207.1852,132.7019
207.2019,132.5590
207.1930,132.2216
207.2109,132.1540
207.2624,132.1069
207.3081,132.0946
207.4722,132.0829
207.7487,132.0227
208.0138,131.9238
208.2621,131.7883
208.4886,131.6187
208.6887,131.4186
208.8582,131.1921
208.9938,130.9438
209.0927,130.6787
209.1529,130.4022
209.1731,130.1200
209.1529,129.8378
209.0927,129.5613
208.9938,129.2962
208.8582,129.0479
208.8582,129.0479
208.6887,128.8214
208.6887,128.8214
208.4886,128.6213
208.4886,128.6213
208.2621,128.4518
208.2621,128.4517
208.0138,128.3162
208.0138,128.3162
207.9133,128.2787
207.7487,128.2173
207.7487,128.2173
207.7487,128.2173
207.4722,128.1571
207.4722,128.1571
207.1965,128.1374
207.1310,128.1130
207.0891,128.0571
207.0813,128.0170
206.9168,121.8183
206.9347,121.7507
206.9862,121.7036
206.9930,121.7005
207.6208,121.4390
207.6873,121.4053
207.7186,121.3864
207.7795,121.3433
207.8763,121.2368
207.9154,121.1790
207.9154,121.1790
207.9154,121.1790
207.9187,121.1723
207.9190,121.1717
207.9783,121.0496
208.0022,120.9077
208.0038,120.8378
208.0038,120.8378
207.9867,120.6950
207.9322,120.4914
207.9295,120.4788
207.8792,120.1608
207.8778,120.1479
207.8610,119.8265
207.8610,119.8135
207.8778,119.4921
207.8792,119.4791
207.9295,119.1612
207.9322,119.1486
208.0155,118.8376
208.0195,118.8253
208.0637,118.7102
208.0888,118.6212
208.0970,118.5768
208.1055,118.4846
208.1055,118.1856
208.1252,118.1186
208.1478,118.0923
210.2908,116.2172
210.3399,116.1679
210.3623,116.1421
210.4042,116.0864
210.4646,115.9559
210.4846,115.8889
210.5058,115.7466
210.6965,77.3165
210.6948,77.2732
210.6931,77.2520
210.6878,77.2090
210.6440,77.0719
210.6134,77.0091
210.5328,76.8899
210.4219,76.7983
210.3643,76.7632
210.3628,76.7623
210.3622,76.7619
210.2697,76.7223
210.2158,76.6778
210.1945,76.6113
210.1945,76.6078
210.2000,75.5000
207.9467,73.1689
207.9142,73.1071
207.9133,73.0634
207.9295,72.9612
207.9322,72.9485
207.9495,72.8842
207.9495,72.8842
207.9664,72.7696
207.9682,72.7132
207.9587,72.5979
207.9107,72.4622
207.9107,72.4622
207.9107,72.4622
207.9107,72.4622
207.8713,72.3871
207.8635,72.3799
207.8290,72.3321
207.8057,72.2663
207.8055,72.2595
207.8055,69.2361
207.8055,69.2361
207.7854,69.0949
207.7854,69.0948
207.7854,69.0948
207.7660,69.0283
207.7072,68.8983
207.6597,68.8237
207.2894,68.2413
207.2701,68.1767
207.2343,65.9342
207.2529,65.8669
207.3050,65.8203
207.3671,65.8085
207.5000,65.8181
207.5000,65.8181
207.5202,65.8166
207.7822,65.7979
208.0587,65.7377
208.3238,65.6388
208.5721,65.5032
208.7986,65.3337
208.9987,65.1336
209.1683,64.9071
209.3038,64.6588
209.4027,64.3937
209.4629,64.1172
209.4831,63.8350
209.4629,63.5528
209.4027,63.2763
209.3038,63.0112
209.1683,62.7629
209.1682,62.7629
208.9987,62.5364
208.9987,62.5364
208.7986,62.3363
208.7986,62.3363
208.5721,62.1668
208.5721,62.1667
208.3238,62.0312
208.3238,62.0312
208.2233,61.9937
208.0587,61.9323
208.0587,61.9323
208.0587,61.9323
207.7822,61.8721
207.7822,61.8721
207.5000,61.8519
207.5000,61.8519
207.3003,61.8662
207.2320,61.8514
207.1826,61.8020
207.1674,61.7445
207.1574,61.1143
207.1574,61.1143
207.1574,61.1143
207.1449,61.0103
207.1403,60.9904
207.1335,60.9605
207.1108,60.8933
207.0999,60.8613
207.0999,60.8613
207.0999,60.8613
207.0218,60.7405
207.0204,60.7388
206.9759,60.6878
206.9759,60.6878
206.8669,60.5939
206.8669,60.5939
206.7358,60.5344
206.7358,60.5344
206.7358,60.5344
206.6733,60.5162
206.6712,60.5155
206.6687,60.5149
206.6227,60.5084
206.5263,60.4948
165.8223,60.6042
165.7155,60.6159
165.6644,60.6271
165.5625,60.6611
165.4415,60.7388
165.4415,60.7388
165.3887,60.7846
165.2944,60.8933
165.2944,60.8933
165.2347,61.0242
165.2150,61.0912
165.1985,61.2056
165.1695,61.2692
165.1107,61.3070
165.0758,61.3120
163.5146,61.3120
163.5146,61.3120
163.4550,61.3184
163.3202,61.3687
163.3202,61.3687
163.2050,61.4550
163.2050,61.4550
163.1187,61.5702
163.1187,61.5702
163.0684,61.7050
163.0620,61.7646
163.0620,61.7646
163.0620,64.8154
163.0620,64.8154
163.0684,64.8750
163.1187,65.0098
163.1187,65.0098
163.2050,65.1250
163.2050,65.1250
163.3202,65.2113
163.3202,65.2113
163.4550,65.2616
163.4550,65.2616
163.4619,65.2623
163.5146,65.2680
165.0705,65.2680
165.1375,65.2877
165.1833,65.3405
165.1945,65.3920
165.1945,67.8615
165.1831,67.9136
164.7624,68.8237
164.7624,68.8237
164.7280,68.9250
164.7280,68.9250
164.7166,68.9759
164.7043,69.0822
164.6265,77.7955
164.6264,77.8000
164.6264,77.8000
164.6064,80.0464
164.5861,80.1133
164.5811,80.1204
160.8224,85.0615
160.8128,85.0746
160.8082,85.0810
160.7990,85.0944
160.7990,85.0944
160.7372,85.2243
160.7372,85.2243
160.7166,85.2911
160.6939,85.4332
160.6939,85.4332
160.6630,87.4924
160.6629,87.5000
160.6629,87.5000
160.6538,88.1000
160.5780,93.1424
160.5779,93.1500
160.5779,93.1500
160.5126,97.4924
160.5125,97.5000
160.5125,97.5000
160.4953,98.6419
157.5518,98.6419
157.5400,74.5406
157.5597,74.4736
157.5754,74.4538
157.5800,74.4492
157.5800,74.4492
157.5800,58.2243
157.5997,58.1572
157.6525,58.1115
157.7043,58.1003
Z" /> 
<path style="fill:#DB628B; fill-opacity:1.0000; stroke:none;fill-rule:evenodd;"
d="M 172.8430,107.2197
172.8888,107.2725
172.9000,107.3240
172.9000,113.0760
172.8803,113.1430
172.8275,113.1888
172.7760,113.2000
166.6240,113.2000
166.5570,113.1803
166.5112,113.1275
166.5000,113.0760
166.5000,107.3240
166.5197,107.2570
166.5725,107.2112
166.6240,107.2000
172.7760,107.2000
Z" /> 
<path style="fill:#DB628B; fill-opacity:1.0000; stroke:none;fill-rule:evenodd;"
d="M 181.9430,76.6252
181.9888,76.6780
182.0000,76.7295
182.0000,79.5760
181.9803,79.6430
181.9275,79.6888
181.8760,79.7000
176.8240,79.7000
176.7570,79.6803
176.7112,79.6275
176.7000,79.5760
176.7000,76.7295
176.7197,76.6625
176.7725,76.6167
176.8240,76.6055
181.8760,76.6055
Z" /> 
<path style="fill:#DB628B; fill-opacity:1.0000; stroke:none;fill-rule:evenodd;"
d="M 182.8430,82.1197
182.8888,82.1725
182.9000,82.2240
182.9000,86.9752
182.8803,87.0422
182.8275,87.0880
182.7752,87.0992
176.9134,87.0608
176.8465,87.0407
176.8011,86.9876
176.7902,86.9366
176.7998,82.2237
176.8196,82.1568
176.8725,82.1111
176.9238,82.1000
182.7760,82.1000
Z" /> 
<path style="fill:#DB628B; fill-opacity:1.0000; stroke:none;fill-rule:evenodd;"
d="M 181.9430,72.4197
181.9888,72.4725
182.0000,72.5240
182.0000,75.9760
181.9803,76.0430
181.9275,76.0888
181.8760,76.1000
176.8240,76.1000
176.7570,76.0803
176.7112,76.0275
176.7000,75.9760
176.7000,72.5240
176.7197,72.4570
176.7725,72.4112
176.8240,72.4000
181.8760,72.4000
Z" /> 
<path style="fill:#DB628B; fill-opacity:1.0000; stroke:none;fill-rule:evenodd;"
d="M 172.9478,74.0445
172.9733,74.0605
172.9950,74.0778
173.0067,74.0895
173.0402,74.1508
173.0430,74.1755
173.0470,74.4781
173.0451,74.5014
173.0447,74.5037
173.0315,74.6469
173.0351,74.7167
173.0492,74.7883
173.0515,74.8106
173.0559,75.1438
173.0518,75.1773
173.0447,75.2037
173.0315,75.3469
173.0351,75.4167
173.0592,75.5394
173.0615,75.5616
173.0643,75.7748
173.0455,75.8421
172.9934,75.8886
172.9403,75.9005
172.6461,75.9005
172.5790,75.8808
172.5411,75.8424
172.5400,75.8407
172.5279,75.8156
172.4913,75.7108
172.4913,75.7108
172.4518,75.6339
172.4279,75.5874
172.4135,75.5669
172.3911,75.5007
172.3910,75.4957
172.3910,75.3505
172.1816,75.3505
172.1336,75.3408
172.1068,75.3295
172.0720,75.3204
171.9676,75.2932
171.9478,75.2910
171.9208,75.2848
171.8844,75.2721
171.8594,75.2600
171.8452,75.2511
171.7989,75.1988
171.7872,75.1485
171.7684,74.1518
171.7868,74.0844
171.8387,74.0376
171.8924,74.0255
172.8818,74.0255
Z" /> 
<path style="fill:#DB628B; fill-opacity:1.0000; stroke:none;fill-rule:evenodd;"
d="M 168.5522,118.6090
168.5792,118.6152
168.6421,118.6372
168.6666,118.6451
168.6788,118.6486
168.7037,118.6553
168.8469,118.6685
168.9136,118.6650
168.9156,118.6650
168.9167,118.6649
168.9167,118.6649
168.9167,118.6649
169.0579,118.6372
169.1208,118.6152
169.1478,118.6090
169.1861,118.6047
169.2139,118.6047
169.2522,118.6090
169.2792,118.6152
169.3421,118.6372
169.3666,118.6451
169.3788,118.6486
169.4037,118.6553
169.5469,118.6685
169.6136,118.6650
169.6156,118.6650
169.6167,118.6649
169.6167,118.6649
169.6167,118.6649
169.7579,118.6372
169.8208,118.6152
169.8478,118.6090
169.8861,118.6047
169.9139,118.6047
169.9522,118.6090
169.9792,118.6152
170.0131,118.6270
170.0421,118.6372
170.0480,118.6392
170.0579,118.6432
170.1416,118.6809
170.1416,118.6809
170.1416,118.6809
170.1416,118.6809
170.1440,118.6818
170.1447,118.6823
170.1455,118.6827
170.1454,118.6828
170.2001,118.7235
170.2247,118.7889
170.2250,118.7981
170.2250,119.5528
170.2110,119.6100
170.2050,119.6217
170.2050,119.6217
170.1721,119.7156
170.1600,119.7406
170.1395,119.7733
170.1222,119.7950
170.0950,119.8222
170.0733,119.8395
170.0471,119.8560
169.9811,119.8750
169.8138,119.8750
169.7728,119.8680
169.7579,119.8628
169.7334,119.8549
169.7212,119.8514
169.7212,119.8514
169.7212,119.8514
169.6963,119.8447
169.6963,119.8447
169.5530,119.8315
169.4833,119.8351
169.3421,119.8628
169.3421,119.8628
169.3272,119.8680
169.2862,119.8750
169.1189,119.8750
169.0529,119.8560
169.0529,119.8560
169.0267,119.8395
169.0050,119.8222
168.9778,119.7950
168.9605,119.7733
168.9400,119.7406
168.9279,119.7156
168.9070,119.6557
168.9000,119.6148
168.9000,119.2500
168.6105,119.2500
168.5529,119.2350
168.5457,119.2349
168.5247,119.2263
168.5236,119.2258
168.5154,119.2179
168.4956,119.2110
168.4956,119.2110
168.4943,119.2105
168.4943,119.2105
168.4884,119.2085
168.4884,119.2085
168.4877,119.2082
168.4877,119.2082
168.4777,119.2047
168.4400,119.1915
168.3844,119.1721
168.3594,119.1600
168.3267,119.1395
168.3050,119.1222
168.2778,119.0950
168.2605,119.0733
168.2400,119.0406
168.2279,119.0156
168.2152,118.9792
168.2090,118.9522
168.2047,118.9139
168.2047,118.8861
168.2090,118.8478
168.2152,118.8208
168.2279,118.7844
168.2400,118.7594
168.2605,118.7267
168.2778,118.7050
168.3050,118.6778
168.3267,118.6605
168.3594,118.6400
168.3844,118.6279
168.4208,118.6152
168.4478,118.6090
168.4728,118.6062
168.4861,118.6047
168.5139,118.6047
Z" /> 
<path style="fill:#DB628B; fill-opacity:1.0000; stroke:none;fill-rule:evenodd;"
d="M 164.8522,97.2090
164.8792,97.2152
164.9156,97.2279
164.9406,97.2400
164.9733,97.2605
164.9950,97.2778
165.0222,97.3050
165.0395,97.3267
165.0600,97.3594
165.0721,97.3844
165.1174,97.5138
165.1177,97.5141
165.1259,97.5298
165.1263,97.5309
165.1270,97.5364
165.1326,97.5465
165.1375,97.5567
165.1392,97.5605
165.1394,97.5608
165.1471,97.5732
165.1598,97.5965
165.1750,97.6559
165.1750,97.8750
165.4433,97.8750
165.4843,97.8820
165.5016,97.8880
165.5016,97.8880
165.5142,97.8924
165.6156,97.9279
165.6406,97.9400
165.6733,97.9605
165.6950,97.9778
165.7222,98.0050
165.7395,98.0267
165.7600,98.0594
165.7721,98.0844
165.7848,98.1208
165.7910,98.1478
165.7910,98.1478
165.7953,98.1861
165.7953,98.2139
165.7930,98.2339
165.7910,98.2522
165.7848,98.2792
165.7775,98.3000
165.7775,98.3000
165.7721,98.3156
165.7600,98.3406
165.7395,98.3733
165.7222,98.3950
165.6950,98.4222
165.6733,98.4395
165.6406,98.4600
165.6156,98.4721
165.5792,98.4848
165.5522,98.4910
165.5240,98.4942
165.5139,98.4953
165.4861,98.4953
165.4478,98.4910
165.4208,98.4848
165.4208,98.4848
165.3844,98.4721
165.3579,98.4628
165.3334,98.4549
165.3334,98.4549
165.3277,98.4533
165.3213,98.4514
165.2963,98.4447
165.2963,98.4447
165.2640,98.4418
165.1530,98.4315
165.0833,98.4351
165.0821,98.4353
165.0801,98.4357
164.9421,98.4628
164.9421,98.4628
164.9156,98.4721
164.8792,98.4848
164.8522,98.4910
164.8139,98.4953
164.7861,98.4953
164.7478,98.4910
164.7208,98.4848
164.6579,98.4628
164.6334,98.4549
164.6212,98.4514
164.6212,98.4514
164.6212,98.4514
164.5963,98.4447
164.5963,98.4447
164.4530,98.4315
164.3833,98.4351
164.2421,98.4628
164.2421,98.4628
164.1792,98.4848
164.1522,98.4910
164.1139,98.4953
164.0861,98.4953
164.0478,98.4910
164.0208,98.4848
163.9844,98.4721
163.9594,98.4600
163.9512,98.4549
163.9267,98.4395
163.9050,98.4222
163.8778,98.3950
163.8605,98.3733
163.8400,98.3406
163.8279,98.3156
163.8152,98.2792
163.8090,98.2522
163.8047,98.2139
163.8047,98.1861
163.8090,98.1478
163.8152,98.1208
163.8272,98.0865
163.8279,98.0844
163.8351,98.0619
163.8386,98.0498
163.8432,98.0325
163.8795,97.9728
163.9423,97.9422
163.9980,97.9454
164.0152,97.9505
164.0152,97.9505
164.0152,97.9505
164.1448,97.9505
164.1448,97.9505
164.2691,97.9140
164.2691,97.9140
164.2991,97.8947
164.3662,97.8750
164.4750,97.8750
164.4750,97.7465
164.4862,97.6950
164.5167,97.6282
164.5351,97.5000
164.5187,97.3860
164.5287,97.3168
164.5744,97.2640
164.6176,97.2466
164.6479,97.2407
164.7208,97.2152
164.7478,97.2090
164.7861,97.2047
164.8139,97.2047
Z" /> 
<path style="fill:#DB628B; fill-opacity:1.0000; stroke:none;fill-rule:evenodd;"
d="M 168.2755,96.4434
168.2780,96.4472
168.4727,96.9144
168.4727,96.9234
168.4664,96.9297
168.2045,97.0391
168.1956,97.0391
168.1955,97.0391
168.0669,96.9854
167.9336,96.9297
167.9273,96.9233
167.9273,96.9144
168.1220,96.4472
168.1283,96.4409
168.1328,96.4400
168.2672,96.4400
Z" /> 
<path style="fill:#DB628B; fill-opacity:1.0000; stroke:none;fill-rule:evenodd;"
d="M 172.0439,72.7098
172.3062,72.8174
172.3125,72.8237
172.3126,72.8238
172.4205,73.0866
172.4204,73.0956
172.4143,73.1018
171.9581,73.3021
171.9491,73.3023
171.9451,73.2997
171.8500,73.2046
171.8466,73.1963
171.8474,73.1922
171.8818,73.1018
172.0286,72.7164
172.0347,72.7099
172.0437,72.7096
Z" /> 
<path style="fill:#DB628B; fill-opacity:1.0000; stroke:none;fill-rule:evenodd;"
d="M 206.5947,61.0198
206.6406,61.0725
206.6520,61.1223
206.6653,61.9615
206.6467,62.0289
206.6008,62.0723
206.4279,62.1668
206.4279,62.1668
206.2014,62.3363
206.2014,62.3363
206.0013,62.5364
206.0013,62.5364
205.8318,62.7629
205.8317,62.7629
205.6962,63.0112
205.6962,63.0112
205.5973,63.2763
205.5371,63.5528
205.5371,63.5528
205.5169,63.8350
205.5169,63.8350
205.5371,64.1172
205.5371,64.1172
205.5973,64.3937
205.5973,64.3937
205.6587,64.5583
205.6962,64.6588
205.6962,64.6588
205.8317,64.9071
205.8318,64.9071
206.0013,65.1336
206.0013,65.1336
206.2014,65.3337
206.2014,65.3337
206.4279,65.5032
206.4279,65.5033
206.6610,65.6306
206.7105,65.6800
206.7256,65.7374
206.7617,68.0000
206.7675,68.3625
207.1956,69.0358
207.2806,69.1696
207.3000,69.2361
207.3000,72.5000
207.4306,72.6351
207.4630,72.6969
207.4612,72.7533
207.4354,72.8496
207.4354,72.8496
207.3747,73.2327
207.3544,73.6200
207.3544,73.6200
207.3747,74.0073
207.4211,74.3000
207.4354,74.3904
207.5159,74.6910
207.5358,74.7651
207.6748,75.1272
207.8509,75.4728
208.0621,75.7981
208.2062,75.9760
208.3062,76.0995
208.5805,76.3738
208.6968,76.4680
208.8819,76.6179
209.0538,76.7295
209.2072,76.8291
209.5528,77.0052
209.9149,77.1442
210.0991,77.1936
210.1588,77.2299
210.1893,77.2928
210.1910,77.3140
210.0003,115.7441
209.9803,115.8110
209.9579,115.8368
207.6000,117.9000
207.6000,118.4846
207.5918,118.5291
207.5358,118.6749
207.4354,119.0496
207.4354,119.0496
207.3747,119.4327
207.3544,119.8200
207.3544,119.8200
207.3747,120.2073
207.4354,120.5904
207.4354,120.5904
207.4985,120.8258
207.4968,120.8956
207.4576,120.9535
207.4264,120.9723
206.4000,121.4000
206.4000,121.4000
206.5791,128.1473
206.5612,128.2149
206.5097,128.2620
206.4985,128.2668
206.3662,128.3162
206.3662,128.3162
206.1179,128.4517
206.1179,128.4518
205.8914,128.6213
205.8914,128.6213
205.6913,128.8214
205.6913,128.8214
205.5218,129.0479
205.5217,129.0479
205.3862,129.2962
205.3862,129.2962
205.3112,129.4972
205.2990,129.5300
205.2873,129.5613
205.2271,129.8378
205.2271,129.8378
205.2069,130.1200
205.2069,130.1200
205.2271,130.4022
205.2271,130.4022
205.2706,130.6021
205.2873,130.6787
205.3432,130.8286
205.3862,130.9438
205.3862,130.9438
205.5217,131.1921
205.5218,131.1921
205.6913,131.4186
205.6913,131.4186
205.8914,131.6187
205.8914,131.6187
206.1179,131.7882
206.1179,131.7883
206.3662,131.9238
206.3662,131.9238
206.3662,131.9238
206.6041,132.0126
206.6601,132.0545
206.6845,132.1199
206.6847,132.1255
206.6966,132.5724
206.6787,132.6399
206.6271,132.6871
206.5724,132.6997
166.0237,132.6003
165.9567,132.5805
165.9111,132.5275
165.9000,132.4763
165.9000,131.6320
165.9197,131.5650
165.9725,131.5192
166.0240,131.5080
166.2054,131.5080
166.2650,131.5016
166.3998,131.4513
166.5150,131.3650
166.6013,131.2498
166.6516,131.1150
166.6580,131.0554
166.6580,129.5300
178.1969,129.5300
178.2171,129.8122
178.2171,129.8122
178.2773,130.0887
178.2773,130.0887
178.3387,130.2533
178.3762,130.3538
178.3762,130.3538
178.5117,130.6021
178.5118,130.6021
178.6813,130.8286
178.6813,130.8286
178.8814,131.0287
178.8814,131.0287
179.1079,131.1982
179.1079,131.1983
179.3562,131.3338
179.3562,131.3338
179.3562,131.3338
179.6213,131.4327
179.8978,131.4929
180.1583,131.5115
180.1800,131.5131
180.1800,131.5131
180.1800,131.5131
180.2002,131.5116
180.4622,131.4929
180.7387,131.4327
181.0038,131.3338
181.2521,131.1983
181.4786,131.0287
181.6787,130.8286
181.8482,130.6021
181.9838,130.3538
182.0710,130.1200
189.7069,130.1200
189.7271,130.4022
189.7271,130.4022
189.7706,130.6021
189.7873,130.6787
189.8432,130.8286
189.8862,130.9438
189.8862,130.9438
190.0217,131.1921
190.0218,131.1921
190.1913,131.4186
190.1913,131.4186
190.3914,131.6187
190.3914,131.6187
190.6179,131.7882
190.6179,131.7883
190.8662,131.9238
190.8662,131.9238
190.8662,131.9238
191.1313,132.0227
191.4078,132.0829
191.6683,132.1015
191.6900,132.1031
191.6900,132.1031
191.6900,132.1031
191.7102,132.1016
191.9722,132.0829
192.2487,132.0227
192.5138,131.9238
192.7621,131.7883
192.9886,131.6187
193.1887,131.4186
193.3582,131.1921
193.4938,130.9438
193.5927,130.6787
193.6529,130.4022
193.6731,130.1200
193.6529,129.8378
193.5927,129.5613
193.4938,129.2962
193.4674,129.2478
193.3583,129.0479
193.3582,129.0479
193.1887,128.8214
193.1887,128.8214
192.9886,128.6213
192.9886,128.6213
192.7621,128.4518
192.7621,128.4517
192.5138,128.3162
192.5138,128.3162
192.3686,128.2620
192.2487,128.2173
192.2487,128.2173
192.2487,128.2173
191.9722,128.1571
191.9722,128.1571
191.6900,128.1369
191.6900,128.1369
191.4078,128.1571
191.4078,128.1571
191.1313,128.2173
191.1313,128.2173
191.1313,128.2173
191.0935,128.2314
190.8662,128.3162
190.8662,128.3162
190.6179,128.4517
190.6179,128.4518
190.3914,128.6213
190.3914,128.6213
190.1913,128.8214
190.1913,128.8214
190.0218,129.0479
190.0217,129.0479
189.8862,129.2962
189.8862,129.2962
189.8112,129.4972
189.7990,129.5300
189.7873,129.5613
189.7271,129.8378
189.7271,129.8378
189.7069,130.1200
189.7069,130.1200
182.0710,130.1200
182.0827,130.0887
182.1429,129.8122
182.1631,129.5300
182.1429,129.2478
182.0827,128.9713
181.9838,128.7062
181.9375,128.6213
181.8483,128.4579
181.8482,128.4579
181.6787,128.2314
181.6787,128.2314
181.4786,128.0313
181.4786,128.0313
181.2521,127.8618
181.2521,127.8617
181.0038,127.7262
181.0038,127.7262
180.9033,127.6887
180.7387,127.6273
180.7387,127.6273
180.7387,127.6273
180.4622,127.5671
180.4622,127.5671
180.1800,127.5469
180.1800,127.5469
179.8978,127.5671
179.8978,127.5671
179.6213,127.6273
179.6213,127.6273
179.6213,127.6273
179.5572,127.6512
179.3562,127.7262
179.3562,127.7262
179.1079,127.8617
179.1079,127.8618
178.8814,128.0313
178.8814,128.0313
178.6813,128.2314
178.6813,128.2314
178.5118,128.4579
178.5117,128.4579
178.3762,128.7062
178.3762,128.7062
178.2773,128.9713
178.2171,129.2478
178.2171,129.2478
178.1969,129.5300
178.1969,129.5300
166.6580,129.5300
166.6580,128.0046
166.6516,127.9450
166.6205,127.8618
166.6013,127.8102
166.6013,127.8102
166.5150,127.6950
166.5150,127.6950
166.3998,127.6087
166.3998,127.6087
166.2650,127.5584
166.2650,127.5584
166.2054,127.5520
166.2054,127.5520
166.2054,127.5520
166.2054,127.5520
166.0240,127.5520
165.9570,127.5323
165.9112,127.4795
165.9000,127.4280
165.9000,119.3000
165.3783,118.9000
167.6944,118.9000
167.7146,119.0792
167.7146,119.0793
167.7742,119.2495
167.8059,119.3000
167.8702,119.4023
167.9977,119.5298
168.1505,119.6258
168.3207,119.6854
168.3208,119.6854
168.3212,119.6855
168.3215,119.6856
168.3273,119.6877
168.3270,119.6887
168.3822,119.7196
168.4114,119.7730
168.4123,119.7727
168.4144,119.7785
168.4145,119.7788
168.4146,119.7792
168.4146,119.7793
168.4465,119.8704
168.4742,119.9495
168.4742,119.9495
168.5702,120.1023
168.6977,120.2298
168.8505,120.3258
169.0207,120.3854
169.0207,120.3854
169.0207,120.3854
169.2000,120.4056
169.2000,120.4056
169.2000,120.4056
169.3792,120.3854
169.3793,120.3854
169.3793,120.3854
169.3793,120.3854
169.3793,120.3854
169.5090,120.3400
169.5788,120.3364
169.5910,120.3400
169.7207,120.3854
169.7207,120.3854
169.7207,120.3854
169.7207,120.3854
169.7207,120.3854
169.9000,120.4056
169.9000,120.4056
169.9000,120.4056
170.0792,120.3854
170.0793,120.3854
170.0793,120.3854
170.2495,120.3258
170.4023,120.2298
170.5298,120.1023
170.6258,119.9495
170.6821,119.7886
170.7228,119.7318
170.7878,119.7061
170.7991,119.7056
170.8000,119.7056
170.9792,119.6854
170.9793,119.6854
170.9793,119.6854
171.1495,119.6258
171.3023,119.5298
171.4298,119.4023
171.5258,119.2495
171.5854,119.0793
171.5854,119.0792
171.6056,118.9000
171.6056,118.9000
171.5854,118.7207
171.5854,118.7207
171.5258,118.5505
171.4298,118.3977
171.3023,118.2702
171.1495,118.1742
170.9793,118.1146
170.9792,118.1146
170.8000,118.0944
170.8000,118.0944
170.6207,118.1146
170.6207,118.1146
170.4505,118.1742
170.4160,118.1959
170.3487,118.2149
170.2840,118.1959
170.2495,118.1742
170.0793,118.1146
170.0792,118.1146
169.9000,118.0944
169.9000,118.0944
169.7207,118.1146
169.7207,118.1146
169.5910,118.1600
169.5212,118.1636
169.5090,118.1600
169.3793,118.1146
169.3792,118.1146
169.2000,118.0944
169.2000,118.0944
169.0207,118.1146
169.0207,118.1146
168.8910,118.1600
168.8212,118.1636
168.8090,118.1600
168.6793,118.1146
168.6792,118.1146
168.5000,118.0944
168.5000,118.0944
168.3208,118.1146
168.3207,118.1146
168.1505,118.1742
167.9977,118.2702
167.8702,118.3977
167.7742,118.5505
167.7146,118.7207
167.7146,118.7207
167.6944,118.9000
167.6944,118.9000
165.3783,118.9000
164.4752,118.2077
164.4402,118.1656
164.4392,118.1636
164.3391,117.9672
164.1279,117.6419
163.8838,117.3405
163.6095,117.0662
163.3081,116.8221
163.3081,116.8221
162.9828,116.6109
162.9828,116.6109
162.9646,116.6016
162.9138,116.5536
162.8969,116.4919
162.8761,113.0760
165.9945,113.0760
165.9945,113.0760
166.0061,113.1834
166.0061,113.1835
166.0173,113.2350
166.0514,113.3375
166.0514,113.3375
166.1292,113.4585
166.1292,113.4585
166.1749,113.5113
166.1749,113.5113
166.1749,113.5113
166.2837,113.6056
166.2837,113.6056
166.2837,113.6056
166.3779,113.6486
166.4145,113.6653
166.4816,113.6850
166.4816,113.6850
166.6240,113.7055
166.6240,113.7055
172.7760,113.7055
172.7760,113.7055
172.8835,113.6939
172.9350,113.6827
172.9692,113.6713
173.0375,113.6486
173.0375,113.6486
173.0375,113.6486
173.1585,113.5708
173.2113,113.5251
173.3056,113.4163
173.3653,113.2855
173.3850,113.2184
173.3850,113.2184
173.4055,113.0760
173.4055,107.3240
173.3939,107.2165
173.3903,107.2000
185.6944,107.2000
185.7146,107.3792
185.7146,107.3793
185.7742,107.5495
185.8011,107.5923
185.8702,107.7023
185.9977,107.8298
186.1505,107.9258
186.3207,107.9854
186.3208,107.9854
186.5000,108.0056
186.5000,108.0056
186.5000,108.0056
186.6792,107.9854
186.6793,107.9854
186.6793,107.9854
186.8495,107.9258
187.0023,107.8298
187.1298,107.7023
187.2258,107.5495
187.2854,107.3793
187.2916,107.3240
187.3056,107.2000
187.3056,107.2000
187.2854,107.0207
187.2854,107.0207
187.2400,106.8910
187.2364,106.8212
187.2400,106.8090
187.2431,106.8000
197.3944,106.8000
197.4146,106.9792
197.4146,106.9793
197.4742,107.1495
197.4742,107.1495
197.5069,107.2015
197.5259,107.2688
197.5189,107.3084
197.5146,107.3207
197.5146,107.3207
197.4944,107.5000
197.4944,107.5000
197.5146,107.6792
197.5146,107.6793
197.5742,107.8495
197.6596,107.9854
197.6702,108.0023
197.7977,108.1298
197.9505,108.2258
198.1207,108.2854
198.1207,108.2854
198.3000,108.3056
198.3000,108.3056
198.3000,108.3056
198.4792,108.2854
198.4793,108.2854
198.4793,108.2854
198.6495,108.2258
198.8023,108.1298
198.9298,108.0023
199.0258,107.8495
199.0854,107.6793
199.0879,107.6567
199.1150,107.5923
199.1702,107.5536
199.2495,107.5258
199.4023,107.4298
199.5298,107.3023
199.6258,107.1495
199.6854,106.9793
199.6854,106.9792
199.7056,106.8000
199.7056,106.8000
199.6854,106.6208
199.6854,106.6207
199.6723,106.5834
199.6258,106.4505
199.5298,106.2977
199.4023,106.1702
199.3709,106.1505
199.2495,106.0742
199.0793,106.0146
199.0792,106.0146
198.9000,105.9944
198.9000,105.9944
198.7207,106.0146
198.7207,106.0146
198.5910,106.0600
198.5212,106.0636
198.5090,106.0600
198.3793,106.0146
198.3792,106.0146
198.2000,105.9944
198.2000,105.9944
198.0207,106.0146
198.0207,106.0146
197.8505,106.0742
197.6977,106.1702
197.5702,106.2977
197.4742,106.4505
197.4146,106.6207
197.4146,106.6208
197.3944,106.8000
197.3944,106.8000
187.2431,106.8000
187.2854,106.6793
187.2854,106.6792
187.3056,106.5000
187.3056,106.5000
187.2854,106.3207
187.2854,106.3207
187.2258,106.1505
187.1298,105.9977
187.0023,105.8702
186.8495,105.7742
186.6793,105.7146
186.6792,105.7146
186.5000,105.6944
186.5000,105.6944
186.3208,105.7146
186.3207,105.7146
186.1505,105.7742
185.9977,105.8702
185.8702,105.9977
185.7742,106.1505
185.7146,106.3207
185.7146,106.3207
185.6944,106.5000
185.6944,106.5000
185.7146,106.6792
185.7146,106.6793
185.7600,106.8090
185.7636,106.8788
185.7600,106.8910
185.7146,107.0207
185.7146,107.0207
185.6944,107.2000
185.6944,107.2000
173.3903,107.2000
173.3827,107.1650
173.3776,107.1495
173.3486,107.0625
173.3486,107.0625
173.2896,106.9707
173.2700,106.9037
173.2896,106.8366
173.3002,106.8225
173.3056,106.8163
173.3653,106.6855
173.3850,106.6184
173.3850,106.6184
173.4055,106.4760
173.4055,100.7240
173.3939,100.6165
173.3827,100.5650
173.3826,100.5647
173.3486,100.4625
173.3486,100.4625
173.2708,100.3415
173.2708,100.3415
173.2708,100.3415
173.2251,100.2887
173.2251,100.2887
173.2251,100.2887
173.1163,100.1944
173.1163,100.1944
173.1163,100.1944
172.9855,100.1347
172.9855,100.1347
172.9855,100.1347
172.9184,100.1150
172.9184,100.1150
172.9184,100.1150
172.8563,100.1061
172.7760,100.0945
166.6240,100.0945
166.6240,100.0945
166.6240,100.0945
166.5165,100.1061
166.5165,100.1061
166.4650,100.1173
166.3625,100.1514
166.3625,100.1514
166.2415,100.2292
166.2415,100.2292
166.1887,100.2749
166.0944,100.3837
166.0944,100.3837
166.0347,100.5145
166.0150,100.5816
166.0099,100.6165
165.9945,100.7240
165.9945,106.4760
165.9945,106.4760
166.0061,106.5834
166.0061,106.5835
166.0173,106.6350
166.0514,106.7375
166.0514,106.7375
166.1104,106.8293
166.1300,106.8963
166.1104,106.9634
166.0998,106.9775
166.0944,106.9837
166.0944,106.9837
166.0347,107.1145
166.0150,107.1816
166.0024,107.2688
165.9945,107.3240
165.9945,113.0760
162.8761,113.0760
162.8000,100.6000
161.4758,99.2023
161.0347,98.7367
161.0029,98.6745
161.0008,98.6495
161.0027,98.5207
161.0180,97.5000
163.2744,97.5000
163.2946,97.6792
163.2946,97.6793
163.3500,97.8376
163.3536,97.9074
163.3500,97.9195
163.3146,98.0207
163.3146,98.0207
163.2944,98.2000
163.2944,98.2000
163.3146,98.3792
163.3146,98.3793
163.3742,98.5495
163.4370,98.6495
163.4702,98.7023
163.5977,98.8298
163.7505,98.9258
163.9207,98.9854
163.9207,98.9854
163.9207,98.9854
164.1000,99.0056
164.1000,99.0056
164.1000,99.0056
164.2792,98.9854
164.2793,98.9854
164.2793,98.9854
164.2793,98.9854
164.2793,98.9854
164.4090,98.9400
164.4788,98.9364
164.4910,98.9400
164.6207,98.9854
164.6207,98.9854
164.6207,98.9854
164.6207,98.9854
164.6207,98.9854
164.8000,99.0056
164.8000,99.0056
164.8000,99.0056
164.9792,98.9854
164.9793,98.9854
164.9793,98.9854
164.9793,98.9854
164.9793,98.9854
165.0360,98.9655
165.1090,98.9400
165.1788,98.9364
165.1910,98.9400
165.3207,98.9854
165.3207,98.9854
165.3207,98.9854
165.3207,98.9854
165.3208,98.9854
165.5000,99.0056
165.5000,99.0056
165.5000,99.0056
165.6793,98.9854
165.6793,98.9854
165.6793,98.9854
165.8495,98.9258
166.0023,98.8298
166.1298,98.7023
166.1312,98.7000
177.0944,98.7000
177.1146,98.8792
177.1146,98.8793
177.1742,99.0495
177.1967,99.0854
177.2702,99.2023
177.3977,99.3298
177.5505,99.4258
177.7207,99.4854
177.7207,99.4854
177.9000,99.5056
177.9000,99.5056
177.9000,99.5056
178.0792,99.4854
178.0793,99.4854
178.0793,99.4854
178.2495,99.4258
178.4023,99.3298
178.5298,99.2023
178.6258,99.0495
178.6854,98.8793
178.6854,98.8792
178.7056,98.7000
178.7056,98.7000
178.6854,98.5207
178.6854,98.5207
178.6708,98.4792
178.6258,98.3505
178.5941,98.3000
191.8944,98.3000
191.9146,98.4792
191.9146,98.4793
191.9742,98.6495
192.0290,98.7367
192.0702,98.8023
192.1977,98.9298
192.3505,99.0258
192.4183,99.0495
192.5207,99.0854
192.5207,99.0854
192.7000,99.1056
192.7000,99.1056
192.7000,99.1056
192.8792,99.0854
192.8793,99.0854
192.8793,99.0854
192.8793,99.0854
192.8793,99.0854
193.0090,99.0400
193.0788,99.0364
193.0910,99.0400
193.2207,99.0854
193.2207,99.0854
193.2207,99.0854
193.2207,99.0854
193.2207,99.0854
193.4000,99.1056
193.4000,99.1056
193.4000,99.1056
193.5792,99.0854
193.5793,99.0854
193.5793,99.0854
193.7495,99.0258
193.9023,98.9298
194.0298,98.8023
194.1258,98.6495
194.1854,98.4793
194.1854,98.4792
194.2056,98.3000
194.2056,98.3000
194.1854,98.1208
194.1854,98.1207
194.1400,97.9910
194.1364,97.9212
194.1399,97.9091
194.1692,97.8254
194.1854,97.7793
194.1854,97.7792
194.2056,97.6000
194.2056,97.6000
194.1854,97.4207
194.1854,97.4207
194.1713,97.3804
194.1258,97.2505
194.1062,97.2192
194.0312,97.1000
194.0298,97.0977
193.9023,96.9702
193.7495,96.8742
193.5793,96.8146
193.5792,96.8146
193.4000,96.7944
193.4000,96.7944
193.2207,96.8146
193.2207,96.8146
193.0505,96.8742
192.8977,96.9702
192.7702,97.0977
192.6742,97.2505
192.6146,97.4207
192.6145,97.4212
192.6144,97.4215
192.6123,97.4273
192.6113,97.4270
192.5804,97.4822
192.5270,97.5114
192.5273,97.5123
192.5215,97.5144
192.5212,97.5145
192.5207,97.5146
192.3505,97.5742
192.1977,97.6702
192.0702,97.7977
191.9742,97.9505
191.9146,98.1207
191.9146,98.1208
191.8944,98.3000
191.8944,98.3000
178.5941,98.3000
178.5298,98.1977
178.4023,98.0702
178.2495,97.9742
178.0793,97.9146
178.0792,97.9146
177.9000,97.8944
177.9000,97.8944
177.7207,97.9146
177.7207,97.9146
177.5505,97.9742
177.3977,98.0702
177.2702,98.1977
177.1742,98.3505
177.1146,98.5207
177.1146,98.5207
177.0944,98.7000
177.0944,98.7000
166.1312,98.7000
166.2258,98.5495
166.2854,98.3793
166.2854,98.3792
166.3056,98.2000
166.3056,98.2000
166.2854,98.0207
166.2854,98.0207
166.2691,97.9742
166.2258,97.8505
166.2252,97.8495
166.1298,97.6977
166.0023,97.5702
165.8495,97.4742
165.6792,97.4146
165.6788,97.4145
165.6785,97.4144
165.6727,97.4123
165.6730,97.4113
165.6178,97.3804
165.5886,97.3270
165.5877,97.3273
165.5856,97.3215
165.5855,97.3212
165.5854,97.3207
165.5258,97.1505
165.4564,97.0400
165.4298,96.9977
165.3023,96.8702
165.2138,96.8146
165.1495,96.7742
164.9793,96.7146
164.9792,96.7146
164.8000,96.6944
164.8000,96.6944
164.6207,96.7146
164.6207,96.7146
164.4810,96.7635
164.4112,96.7671
164.3990,96.7635
164.2593,96.7146
164.2592,96.7146
164.0800,96.6944
164.0800,96.6944
163.9007,96.7146
163.9007,96.7146
163.7305,96.7742
163.5777,96.8702
163.4502,96.9977
163.3542,97.1505
163.2946,97.3207
163.2946,97.3207
163.2744,97.5000
163.2744,97.5000
161.0180,97.5000
161.0835,93.1500
162.0644,93.1500
162.0846,93.3292
162.0846,93.3293
162.1442,93.4995
162.2073,93.6000
162.2402,93.6523
162.3677,93.7798
162.5205,93.8758
162.6907,93.9354
162.6907,93.9354
162.8700,93.9556
162.8700,93.9556
162.8700,93.9556
163.0492,93.9354
163.0493,93.9354
163.0493,93.9354
163.2195,93.8758
163.3723,93.7798
163.4998,93.6523
163.5958,93.4995
163.6554,93.3293
163.6642,93.2505
163.6756,93.1500
163.6756,93.1500
163.6554,92.9707
163.6554,92.9707
163.6166,92.8600
163.5958,92.8005
163.4998,92.6477
163.3723,92.5202
163.2195,92.4242
163.0493,92.3646
163.0492,92.3646
162.8700,92.3444
162.8700,92.3444
162.6907,92.3646
162.6907,92.3646
162.5205,92.4242
162.3677,92.5202
162.2402,92.6477
162.1442,92.8005
162.0846,92.9707
162.0846,92.9707
162.0644,93.1500
162.0644,93.1500
161.0835,93.1500
161.1684,87.5000
161.6944,87.5000
161.7146,87.6792
161.7146,87.6793
161.7742,87.8495
161.8702,88.0023
161.9977,88.1298
162.1505,88.2258
162.3033,88.2792
162.3207,88.2854
162.3208,88.2854
162.5000,88.3056
162.5000,88.3056
162.5000,88.3056
162.6792,88.2854
162.6793,88.2854
162.6793,88.2854
162.8495,88.2258
163.0023,88.1298
163.0321,88.1000
163.5944,88.1000
163.6146,88.2792
163.6146,88.2793
163.6742,88.4495
163.7702,88.6023
163.8977,88.7298
164.0505,88.8258
164.2207,88.8854
164.2207,88.8854
164.4000,88.9056
164.4000,88.9056
164.4000,88.9056
164.5792,88.8854
164.5793,88.8854
164.5793,88.8854
164.7495,88.8258
164.9023,88.7298
165.0298,88.6023
165.1258,88.4495
165.1854,88.2793
165.1914,88.2258
165.2056,88.1000
165.2056,88.1000
165.1854,87.9207
165.1854,87.9207
165.1258,87.7505
165.0342,87.6047
165.0298,87.5977
164.9023,87.4702
164.8926,87.4641
164.7495,87.3742
164.5793,87.3146
164.5792,87.3146
164.4000,87.2944
164.4000,87.2944
164.2207,87.3146
164.2207,87.3146
164.0505,87.3742
163.8977,87.4702
163.7702,87.5977
163.6742,87.7505
163.6146,87.9207
163.6146,87.9207
163.5944,88.1000
163.5944,88.1000
163.0321,88.1000
163.1298,88.0023
163.2258,87.8495
163.2854,87.6793
163.2963,87.5823
163.3056,87.5000
163.3056,87.5000
163.2854,87.3207
163.2854,87.3207
163.2235,87.1439
163.2256,87.1432
163.2160,87.0849
163.2244,87.0564
163.2235,87.0561
163.2854,86.8793
163.2854,86.8792
163.3056,86.7000
163.3056,86.7000
163.2854,86.5207
163.2854,86.5207
163.2258,86.3505
163.2252,86.3495
163.1298,86.1977
163.0023,86.0702
162.8495,85.9742
162.6793,85.9146
162.6792,85.9146
162.5000,85.8944
162.5000,85.8944
162.3208,85.9146
162.3207,85.9146
162.1505,85.9742
161.9977,86.0702
161.8702,86.1977
161.7742,86.3505
161.7146,86.5207
161.7146,86.5207
161.6944,86.7000
161.6944,86.7000
161.7146,86.8792
161.7146,86.8793
161.7765,87.0561
161.7744,87.0568
161.7840,87.1151
161.7756,87.1436
161.7765,87.1439
161.7146,87.3207
161.7146,87.3207
161.6944,87.5000
161.6944,87.5000
161.1684,87.5000
161.1994,85.4408
161.2201,85.3740
161.2247,85.3676
161.2314,85.3587
165.1100,80.2600
165.1320,77.8000
166.1944,77.8000
166.2146,77.9792
166.2146,77.9793
166.2742,78.1495
166.3702,78.3023
166.4977,78.4298
166.6505,78.5258
166.7979,78.5774
166.8207,78.5854
166.8208,78.5854
167.0000,78.6056
167.0000,78.6056
167.0000,78.6056
167.1792,78.5854
167.1793,78.5854
167.1793,78.5854
167.3495,78.5258
167.4345,78.4724
167.5018,78.4534
167.5686,78.4737
167.6138,78.5270
167.6245,78.5774
167.6245,96.3021
167.6150,96.3498
167.4607,96.7200
167.4427,96.7708
167.4427,96.7708
167.4419,96.7760
167.4363,96.7990
167.4146,96.8607
167.4146,96.8607
167.3944,97.0400
167.3944,97.0400
167.4146,97.2192
167.4146,97.2193
167.4742,97.3895
167.5508,97.5114
167.5702,97.5423
167.6977,97.6698
167.8505,97.7658
167.9418,97.7977
168.0207,97.8254
168.0207,97.8254
168.2000,97.8456
168.2000,97.8456
168.2000,97.8456
168.3792,97.8254
168.3793,97.8254
168.3793,97.8254
168.5495,97.7658
168.7023,97.6698
168.8298,97.5423
168.9258,97.3895
168.9854,97.2193
168.9854,97.2192
169.0056,97.0400
169.0056,97.0400
168.9854,96.8607
168.9854,96.8607
168.9498,96.7592
168.9468,96.7492
168.9393,96.7200
168.7850,96.3498
168.7755,96.3021
168.7755,96.2887
168.7952,96.2217
168.8480,96.1759
168.9171,96.1660
168.9807,96.1950
168.9872,96.2011
169.7713,96.9852
169.7983,97.0256
169.9510,97.3965
169.9510,97.3965
169.9658,97.4277
169.9709,97.4400
169.9742,97.4495
169.9742,97.4495
169.9742,97.4495
170.0702,97.6023
170.1977,97.7298
170.2550,97.7658
170.3498,97.8254
170.3505,97.8258
170.4777,97.8703
170.5207,97.8854
170.5207,97.8854
170.7000,97.9056
170.7000,97.9056
170.7000,97.9056
170.8792,97.8854
170.8793,97.8854
170.8793,97.8854
171.0495,97.8258
171.2023,97.7298
171.3298,97.6023
171.4258,97.4495
171.4854,97.2793
171.4886,97.2505
171.5056,97.1000
171.5056,97.1000
171.4854,96.9207
171.4854,96.9207
171.4482,96.8146
171.4258,96.7505
171.4033,96.7146
171.3298,96.5977
171.2023,96.4702
171.0495,96.3742
171.0495,96.3742
171.0495,96.3742
171.0275,96.3665
171.0054,96.3562
170.9965,96.3510
170.9965,96.3510
170.9965,96.3510
170.6256,96.1983
170.5852,96.1713
169.4918,95.0779
169.4583,95.0166
169.4555,94.9903
169.4555,94.1900
170.1394,94.1900
170.1596,94.3692
170.1596,94.3693
170.2192,94.5395
170.3152,94.6923
170.4427,94.8198
170.5955,94.9158
170.7657,94.9754
170.7657,94.9754
170.9450,94.9956
170.9450,94.9956
170.9450,94.9956
171.1242,94.9754
171.1243,94.9754
171.1243,94.9754
171.2945,94.9158
171.4473,94.8198
171.5748,94.6923
171.6708,94.5395
171.7304,94.3693
171.7341,94.3364
171.7506,94.1900
171.7506,94.1900
171.7304,94.0108
171.7304,94.0107
171.6831,93.8758
171.6708,93.8405
171.5748,93.6877
171.4871,93.6000
178.9944,93.6000
179.0146,93.7792
179.0146,93.7793
179.0742,93.9495
179.1127,94.0107
179.1702,94.1023
179.2977,94.2298
179.4505,94.3258
179.5747,94.3692
179.6207,94.3854
179.6207,94.3854
179.8000,94.4056
179.8000,94.4056
179.8000,94.4056
179.9792,94.3854
179.9793,94.3854
179.9793,94.3854
179.9793,94.3854
179.9793,94.3854
180.1090,94.3400
180.1788,94.3364
180.1910,94.3400
180.3207,94.3854
180.3207,94.3854
180.3207,94.3854
180.3207,94.3854
180.3208,94.3854
180.5000,94.4056
180.5000,94.4056
180.5000,94.4056
180.6792,94.3854
180.6793,94.3854
180.6793,94.3854
180.6793,94.3854
180.6793,94.3854
180.8090,94.3400
180.8788,94.3364
180.8910,94.3400
181.0207,94.3854
181.0207,94.3854
181.0207,94.3854
181.0207,94.3854
181.0207,94.3854
181.2000,94.4056
181.2000,94.4056
181.2000,94.4056
181.3792,94.3854
181.3793,94.3854
181.3793,94.3854
181.3793,94.3854
181.3793,94.3854
181.5090,94.3400
181.5788,94.3364
181.5910,94.3400
181.7207,94.3854
181.7207,94.3854
181.7207,94.3854
181.7207,94.3854
181.7207,94.3854
181.9000,94.4056
181.9000,94.4056
181.9000,94.4056
182.0792,94.3854
182.0793,94.3854
182.0793,94.3854
182.2495,94.3258
182.4023,94.2298
182.5298,94.1023
182.6258,93.9495
182.6854,93.7793
182.6854,93.7792
182.7056,93.6000
182.7056,93.6000
182.6854,93.4207
182.6854,93.4207
182.6258,93.2505
182.5298,93.0977
182.4023,92.9702
182.2495,92.8742
182.0793,92.8146
182.0792,92.8146
181.9000,92.7944
181.9000,92.7944
181.7207,92.8146
181.7207,92.8146
181.5910,92.8600
181.5212,92.8636
181.5090,92.8600
181.3793,92.8146
181.3792,92.8146
181.2000,92.7944
181.2000,92.7944
181.0207,92.8146
181.0207,92.8146
180.8910,92.8600
180.8212,92.8636
180.8090,92.8600
180.6793,92.8146
180.6792,92.8146
180.5000,92.7944
180.5000,92.7944
180.3208,92.8146
180.3207,92.8146
180.1910,92.8600
180.1212,92.8636
180.1090,92.8600
179.9793,92.8146
179.9792,92.8146
179.8000,92.7944
179.8000,92.7944
179.6207,92.8146
179.6207,92.8146
179.4505,92.8742
179.2977,92.9702
179.1702,93.0977
179.0742,93.2505
179.0146,93.4207
179.0146,93.4207
178.9944,93.6000
178.9944,93.6000
171.4871,93.6000
171.4473,93.5602
171.3507,93.4995
171.2945,93.4642
171.1243,93.4046
171.1242,93.4046
170.9450,93.3844
170.9450,93.3844
170.7657,93.4046
170.7657,93.4046
170.5955,93.4642
170.4427,93.5602
170.3152,93.6877
170.2192,93.8405
170.1596,94.0107
170.1596,94.0108
170.1394,94.1900
170.1394,94.1900
169.4555,94.1900
169.4555,90.4402
173.6134,90.4402
173.6336,90.6195
173.6336,90.6195
173.6932,90.7897
173.7891,90.9425
173.9167,91.0700
174.0694,91.1660
174.2397,91.2256
174.2397,91.2256
174.4189,91.2458
174.4190,91.2458
174.4190,91.2458
174.5982,91.2256
174.5982,91.2256
174.5982,91.2256
174.7685,91.1660
174.9212,91.0700
175.0488,90.9425
175.1447,90.7897
175.1586,90.7500
180.5844,90.7500
180.6046,90.9292
180.6046,90.9293
180.6642,91.0995
180.7561,91.2458
180.7602,91.2523
180.8877,91.3798
181.0405,91.4758
181.2107,91.5354
181.2107,91.5354
181.3900,91.5556
181.3900,91.5556
181.3900,91.5556
181.5692,91.5354
181.5693,91.5354
181.5693,91.5354
181.7395,91.4758
181.8923,91.3798
182.0198,91.2523
182.1158,91.0995
182.1754,90.9293
182.1754,90.9292
182.1956,90.7500
182.1956,90.7500
182.1754,90.5707
182.1754,90.5707
182.1297,90.4402
182.1158,90.4005
182.0198,90.2477
181.8923,90.1202
181.8453,90.0907
181.7395,90.0242
181.5693,89.9646
181.5692,89.9646
181.3900,89.9444
181.3900,89.9444
181.2107,89.9646
181.2107,89.9646
181.0405,90.0242
180.8877,90.1202
180.7602,90.2477
180.6642,90.4005
180.6046,90.5707
180.6046,90.5707
180.5844,90.7500
180.5844,90.7500
175.1586,90.7500
175.2043,90.6195
175.2098,90.5707
175.2245,90.4402
175.2245,90.4402
175.2043,90.2610
175.2043,90.2610
175.1447,90.0907
175.0488,89.9380
174.9212,89.8104
174.7685,89.7144
174.5982,89.6548
174.5982,89.6548
174.4190,89.6347
174.4189,89.6347
174.2397,89.6548
174.2397,89.6548
174.0694,89.7144
173.9167,89.8104
173.7891,89.9380
173.6932,90.0907
173.6336,90.2610
173.6336,90.2610
173.6134,90.4402
173.6134,90.4402
169.4555,90.4402
169.4555,86.9356
176.2847,86.9356
176.2848,86.9356
176.2958,87.0419
176.2958,87.0419
176.3067,87.0929
176.3067,87.0929
176.3399,87.1946
176.3399,87.1946
176.4169,87.3161
176.4623,87.3692
176.5705,87.4641
176.7009,87.5248
176.7678,87.5449
176.9101,87.5663
182.7719,87.6047
182.8810,87.5935
182.9333,87.5823
183.0375,87.5478
183.1585,87.4700
183.2113,87.4243
183.3056,87.3155
183.3653,87.1846
183.3850,87.1176
183.3850,87.1176
183.4055,86.9752
183.4055,86.0000
193.1944,86.0000
193.2146,86.1792
193.2146,86.1793
193.2742,86.3495
193.3702,86.5023
193.4977,86.6298
193.6505,86.7258
193.8207,86.7854
193.8208,86.7854
194.0000,86.8056
194.0000,86.8056
194.0000,86.8056
194.1792,86.7854
194.1793,86.7854
194.1793,86.7854
194.3495,86.7258
194.4840,86.6413
194.5513,86.6223
194.6160,86.6413
194.6807,86.6820
194.7505,86.7258
194.9207,86.7854
194.9207,86.7854
195.1000,86.8056
195.1000,86.8056
195.1000,86.8056
195.2792,86.7854
195.2793,86.7854
195.2793,86.7854
195.4495,86.7258
195.6023,86.6298
195.7298,86.5023
195.8258,86.3495
195.8854,86.1793
195.8854,86.1792
195.9056,86.0000
195.9056,86.0000
195.8854,85.8207
195.8854,85.8207
195.8258,85.6505
195.7298,85.4977
195.6023,85.3702
195.4495,85.2742
195.2793,85.2146
195.2792,85.2146
195.1000,85.1944
195.1000,85.1944
194.9207,85.2146
194.9207,85.2146
194.7505,85.2742
194.6160,85.3587
194.5487,85.3777
194.4840,85.3587
194.3495,85.2742
194.1793,85.2146
194.1792,85.2146
194.0000,85.1944
194.0000,85.1944
193.8208,85.2146
193.8207,85.2146
193.6505,85.2742
193.4977,85.3702
193.3702,85.4977
193.2742,85.6505
193.2146,85.8207
193.2146,85.8207
193.1944,86.0000
193.1944,86.0000
183.4055,86.0000
183.4055,82.2240
183.3939,82.1165
183.3827,82.0650
183.3826,82.0647
183.3486,81.9625
183.3486,81.9625
183.2708,81.8415
183.2708,81.8415
183.2602,81.8292
183.2251,81.7887
183.2251,81.7887
183.2251,81.7887
183.1163,81.6944
183.1163,81.6944
183.1163,81.6944
182.9855,81.6347
182.9855,81.6347
182.9855,81.6347
182.9255,81.6171
182.9184,81.6150
182.8556,81.6059
182.7760,81.5945
176.9238,81.5945
176.9237,81.5945
176.8168,81.6059
176.8168,81.6059
176.8168,81.6059
176.8168,81.6059
176.7655,81.6170
176.7655,81.6170
176.7655,81.6170
176.7655,81.6171
176.6634,81.6509
176.6634,81.6509
176.5422,81.7284
176.5422,81.7284
176.4893,81.7741
176.3949,81.8826
176.3348,82.0134
176.3181,82.0698
176.3156,82.0761
176.2943,82.2227
176.2943,82.2227
176.2849,86.8793
176.2847,86.9356
169.4555,86.9356
169.4555,86.2397
169.4752,86.1727
169.4918,86.1521
171.2052,84.4387
171.2456,84.4117
171.6165,84.2590
171.6165,84.2590
171.6165,84.2590
171.6477,84.2442
171.6600,84.2391
171.6616,84.2386
171.6695,84.2358
171.8223,84.1398
171.9498,84.0123
172.0458,83.8595
172.1049,83.6905
172.1456,83.6338
172.2106,83.6080
172.2792,83.6215
172.2879,83.6265
172.2995,83.6338
172.3505,83.6658
172.4175,83.6893
172.5207,83.7254
172.5207,83.7254
172.7000,83.7456
172.7000,83.7456
172.7000,83.7456
172.8792,83.7254
172.8793,83.7254
172.8793,83.7254
173.0495,83.6658
173.2023,83.5698
173.3298,83.4423
173.4258,83.2895
173.4854,83.1193
173.5056,82.9400
173.4988,82.8802
173.4854,82.7608
173.4854,82.7607
173.4854,82.7607
173.4487,82.6560
173.4451,82.5862
173.4487,82.5741
173.4854,82.4693
173.5056,82.2900
173.4854,82.1107
173.4504,82.0110
173.4469,81.9412
173.4504,81.9291
173.4854,81.8293
173.5055,81.6509
173.5056,81.6500
173.5056,81.6500
173.4854,81.4707
173.4854,81.4707
173.4400,81.3410
173.4364,81.2712
173.4400,81.2590
173.4840,81.1332
173.5247,81.0764
173.5601,81.0571
173.6495,81.0258
173.8023,80.9298
173.9298,80.8023
174.0258,80.6495
174.0854,80.4793
174.1056,80.3000
174.1011,80.2600
174.0854,80.1208
174.0854,80.1207
174.0471,80.0113
174.0258,79.9505
173.9298,79.7977
173.8023,79.6702
173.6524,79.5760
176.1945,79.5760
176.1945,79.5760
176.2061,79.6834
176.2061,79.6835
176.2173,79.7350
176.2514,79.8375
176.2514,79.8375
176.3292,79.9585
176.3292,79.9585
176.3749,80.0113
176.3749,80.0113
176.3749,80.0113
176.4837,80.1056
176.4837,80.1056
176.4837,80.1056
176.5779,80.1486
176.6145,80.1653
176.6816,80.1850
176.6816,80.1850
176.8240,80.2055
176.8240,80.2055
181.8760,80.2055
181.8760,80.2055
181.9835,80.1939
182.0350,80.1827
182.0692,80.1713
182.1375,80.1486
182.1375,80.1486
182.1375,80.1486
182.2585,80.0708
182.3113,80.0251
182.4056,79.9163
182.4653,79.7855
182.4850,79.7184
182.4850,79.7184
182.5055,79.5760
182.5055,76.7295
182.4939,76.6220
182.4827,76.5705
182.4826,76.5702
182.4486,76.4680
182.4486,76.4680
182.4486,76.4680
182.4196,76.4228
182.3999,76.3558
182.4111,76.3042
182.4653,76.1855
182.4850,76.1184
182.4850,76.1184
182.5055,75.9760
182.5055,72.5240
182.4939,72.4165
182.4827,72.3650
182.4670,72.3177
182.4486,72.2625
182.4486,72.2625
182.3708,72.1415
182.3708,72.1415
182.3460,72.1128
182.3251,72.0887
182.3251,72.0887
182.3251,72.0887
182.2163,71.9944
182.2163,71.9944
182.2163,71.9944
182.0855,71.9347
182.0855,71.9347
182.0855,71.9347
182.0184,71.9150
182.0184,71.9150
182.0184,71.9150
181.9563,71.9061
181.8760,71.8945
176.8240,71.8945
176.8240,71.8945
176.8240,71.8945
176.7165,71.9061
176.7165,71.9061
176.6650,71.9173
176.5625,71.9514
176.5625,71.9514
176.4415,72.0292
176.4415,72.0292
176.3887,72.0749
176.2944,72.1837
176.2944,72.1837
176.2347,72.3145
176.2150,72.3816
176.2099,72.4165
176.1945,72.5240
176.1945,75.9760
176.1945,75.9760
176.2061,76.0834
176.2061,76.0835
176.2173,76.1350
176.2514,76.2375
176.2514,76.2375
176.2804,76.2827
176.3001,76.3497
176.2889,76.4013
176.2347,76.5200
176.2150,76.5871
176.2099,76.6220
176.1945,76.7295
176.1945,79.5760
173.6524,79.5760
173.6495,79.5742
173.4793,79.5146
173.4792,79.5146
173.3000,79.4944
173.3000,79.4944
173.1207,79.5146
173.1207,79.5146
173.0410,79.5426
172.9712,79.5461
172.9590,79.5426
172.8793,79.5146
172.7000,79.4944
172.7000,79.4944
172.5207,79.5146
172.5207,79.5146
172.3505,79.5742
172.1977,79.6702
172.0702,79.7977
171.9742,79.9505
171.9146,80.1207
171.9146,80.1208
171.8944,80.3000
171.8944,80.3000
171.9146,80.4793
171.9513,80.5840
171.9549,80.6538
171.9513,80.6660
171.9146,80.7707
171.8944,80.9500
171.8944,80.9500
171.9146,81.1292
171.9146,81.1293
171.9600,81.2590
171.9636,81.3288
171.9600,81.3410
171.9146,81.4707
171.9146,81.4707
171.8944,81.6500
171.8944,81.6500
171.9146,81.8293
171.9146,81.8293
171.9495,81.9290
171.9531,81.9988
171.9495,82.0110
171.9146,82.1107
171.9146,82.1107
171.8944,82.2900
171.8944,82.2900
171.9146,82.4693
171.9513,82.5740
171.9549,82.6438
171.9513,82.6560
171.9151,82.7595
171.8744,82.8162
171.8094,82.8420
171.7408,82.8285
171.7321,82.8235
171.6695,82.7842
171.4993,82.7246
171.4992,82.7246
171.3200,82.7044
171.3200,82.7044
171.1407,82.7246
171.1407,82.7246
170.9705,82.7842
170.8177,82.8802
170.6902,83.0077
170.5942,83.1605
170.5942,83.1605
170.5865,83.1825
170.5762,83.2046
170.5710,83.2135
170.4183,83.5844
170.3913,83.6248
168.9872,85.0289
168.9259,85.0624
168.8562,85.0574
168.8002,85.0156
168.7758,84.9501
168.7755,84.9413
168.7755,77.2397
168.7952,77.1727
168.8118,77.1521
170.9890,74.9749
171.0503,74.9414
171.1200,74.9464
171.1760,74.9882
171.1999,75.0487
171.2146,75.1792
171.2146,75.1793
171.2742,75.3495
171.3002,75.3910
171.3702,75.5023
171.4977,75.6298
171.6505,75.7258
171.8207,75.7854
171.8208,75.7854
171.9110,75.7955
171.9754,75.8226
172.0141,75.8778
172.0742,76.0495
172.1279,76.1350
172.1702,76.2023
172.2977,76.3298
172.3677,76.3738
172.4114,76.4013
172.4505,76.4258
172.5711,76.4680
172.6207,76.4854
172.6207,76.4854
172.8000,76.5056
172.8000,76.5056
172.8000,76.5056
172.9792,76.4854
172.9793,76.4854
172.9793,76.4854
173.1495,76.4258
173.3023,76.3298
173.4298,76.2023
173.5258,76.0495
173.5854,75.8793
173.5937,75.8051
173.6056,75.7000
173.6056,75.7000
173.5854,75.5207
173.5854,75.5207
173.5400,75.3910
173.5364,75.3212
173.5400,75.3090
173.5854,75.1793
173.5854,75.1792
173.6056,75.0000
173.6056,75.0000
173.5854,74.8207
173.5854,74.8207
173.5400,74.6910
173.5364,74.6212
173.5400,74.6090
173.5854,74.4793
173.5854,74.4792
173.6056,74.3000
173.6056,74.3000
173.5854,74.1208
173.5854,74.1207
173.5482,74.0144
173.5258,73.9505
173.4298,73.7977
173.3023,73.6702
173.1495,73.5742
172.9934,73.5196
172.9367,73.4789
172.9109,73.4139
172.9244,73.3454
172.9374,73.3252
172.9398,73.3223
172.9398,73.3223
173.0358,73.1695
173.0954,72.9993
173.0954,72.9992
173.1156,72.8200
173.1156,72.8200
173.0954,72.6407
173.0954,72.6407
173.0934,72.6351
173.0358,72.4705
172.9398,72.3177
172.8123,72.1902
172.8019,72.1837
172.6595,72.0942
172.4893,72.0346
172.4892,72.0346
172.3100,72.0144
172.3100,72.0144
172.1308,72.0346
172.1307,72.0346
171.9605,72.0942
171.8077,72.1902
171.6802,72.3177
171.5842,72.4705
171.5842,72.4705
171.5730,72.5024
171.5644,72.5216
171.5562,72.5365
171.5562,72.5365
171.4159,72.9049
171.3877,72.9484
167.8466,76.4895
167.7395,76.5966
167.7395,76.5966
167.6637,76.7279
167.6245,76.8742
167.6245,77.0226
167.6048,77.0897
167.5520,77.1354
167.4829,77.1454
167.4345,77.1276
167.3495,77.0742
167.1793,77.0146
167.1792,77.0146
167.0000,76.9944
167.0000,76.9944
166.8208,77.0146
166.8207,77.0146
166.6505,77.0742
166.4977,77.1702
166.3702,77.2977
166.2742,77.4505
166.2146,77.6207
166.2146,77.6208
166.1944,77.8000
166.1944,77.8000
165.1320,77.8000
165.2098,69.0867
165.2212,69.0358
165.7000,68.0000
165.7000,63.8350
190.0169,63.8350
190.0371,64.1172
190.0371,64.1172
190.0973,64.3937
190.0973,64.3937
190.1587,64.5583
190.1962,64.6588
190.1962,64.6588
190.3317,64.9071
190.3318,64.9071
190.5013,65.1336
190.5013,65.1336
190.7014,65.3337
190.7014,65.3337
190.9279,65.5032
190.9279,65.5033
191.1762,65.6388
191.1762,65.6388
191.1762,65.6388
191.4413,65.7377
191.7178,65.7979
191.9783,65.8165
192.0000,65.8181
192.0000,65.8181
192.0000,65.8181
192.0202,65.8166
192.2822,65.7979
192.5587,65.7377
192.8238,65.6388
193.0721,65.5032
193.2986,65.3337
193.4987,65.1336
193.6683,64.9071
193.8038,64.6588
193.9027,64.3937
193.9629,64.1172
193.9831,63.8350
193.9629,63.5528
193.9027,63.2763
193.8038,63.0112
193.6683,62.7629
193.6682,62.7629
193.4987,62.5364
193.4987,62.5364
193.2986,62.3363
193.2986,62.3363
193.0721,62.1668
193.0721,62.1667
192.8238,62.0312
192.8238,62.0312
192.7233,61.9937
192.5587,61.9323
192.5587,61.9323
192.5587,61.9323
192.2822,61.8721
192.2822,61.8721
192.0000,61.8519
192.0000,61.8519
191.7178,61.8721
191.7178,61.8721
191.4413,61.9323
191.4413,61.9323
191.4413,61.9323
191.3772,61.9562
191.1762,62.0312
191.1762,62.0312
190.9279,62.1667
190.9279,62.1668
190.7014,62.3363
190.7014,62.3363
190.5013,62.5364
190.5013,62.5364
190.3318,62.7629
190.3317,62.7629
190.1962,63.0112
190.1962,63.0112
190.0973,63.2763
190.0371,63.5528
190.0371,63.5528
190.0169,63.8350
190.0169,63.8350
165.7000,63.8350
165.7000,61.2337
165.7197,61.1666
165.7725,61.1209
165.8237,61.1097
206.5276,61.0003
Z" /> 
<path style="fill:#DB628B; fill-opacity:1.0000; stroke:none;fill-rule:evenodd;"
d="M 170.3360,96.6257
170.8040,96.8184
170.8103,96.8247
170.8104,96.8336
170.7026,97.0962
170.6963,97.1025
170.6962,97.1026
170.4336,97.2104
170.4247,97.2103
170.4184,97.2040
170.2257,96.7360
170.2257,96.7270
170.2282,96.7233
170.3233,96.6282
170.3315,96.6248
Z" /> 
<path style="fill:#DB628B; fill-opacity:1.0000; stroke:none;fill-rule:evenodd;"
d="M 171.2450,83.4782
171.3162,83.5074
171.3225,83.5137
171.3226,83.5138
171.4304,83.7764
171.4303,83.7853
171.4240,83.7916
170.9560,83.9843
170.9470,83.9843
170.9433,83.9818
170.8482,83.8867
170.8448,83.8785
170.8457,83.8740
171.0384,83.4060
171.0447,83.3997
171.0536,83.3996
Z" /> 
</g> 
</svg>
