%TF.GenerationSoftware,KiCad,Pcbnew,8.0.1*%
%TF.CreationDate,2024-07-03T15:52:00+02:00*%
%TF.ProjectId,SEPIC-A,53455049-432d-4412-9e6b-696361645f70,rev?*%
%TF.SameCoordinates,Original*%
%TF.FileFunction,Soldermask,Bot*%
%TF.FilePolarity,Negative*%
%FSLAX46Y46*%
G04 Gerber Fmt 4.6, Leading zero omitted, Abs format (unit mm)*
G04 Created by KiCad (PCBNEW 8.0.1) date 2024-07-03 15:52:00*
%MOMM*%
%LPD*%
G01*
G04 APERTURE LIST*
G04 Aperture macros list*
%AMRoundRect*
0 Rectangle with rounded corners*
0 $1 Rounding radius*
0 $2 $3 $4 $5 $6 $7 $8 $9 X,Y pos of 4 corners*
0 Add a 4 corners polygon primitive as box body*
4,1,4,$2,$3,$4,$5,$6,$7,$8,$9,$2,$3,0*
0 Add four circle primitives for the rounded corners*
1,1,$1+$1,$2,$3*
1,1,$1+$1,$4,$5*
1,1,$1+$1,$6,$7*
1,1,$1+$1,$8,$9*
0 Add four rect primitives between the rounded corners*
20,1,$1+$1,$2,$3,$4,$5,0*
20,1,$1+$1,$4,$5,$6,$7,0*
20,1,$1+$1,$6,$7,$8,$9,0*
20,1,$1+$1,$8,$9,$2,$3,0*%
G04 Aperture macros list end*
%ADD10C,0.800000*%
%ADD11C,6.400000*%
%ADD12R,2.955000X2.955000*%
%ADD13C,2.955000*%
%ADD14RoundRect,0.250000X-0.350000X-0.450000X0.350000X-0.450000X0.350000X0.450000X-0.350000X0.450000X0*%
%ADD15RoundRect,0.250000X-0.337500X-0.475000X0.337500X-0.475000X0.337500X0.475000X-0.337500X0.475000X0*%
%ADD16RoundRect,0.250000X0.412500X1.100000X-0.412500X1.100000X-0.412500X-1.100000X0.412500X-1.100000X0*%
%ADD17RoundRect,0.250000X-0.412500X-1.100000X0.412500X-1.100000X0.412500X1.100000X-0.412500X1.100000X0*%
G04 APERTURE END LIST*
D10*
%TO.C,H4*%
X208660000Y-119820000D03*
X209362944Y-118122944D03*
X209362944Y-121517056D03*
X211060000Y-117420000D03*
D11*
X211060000Y-119820000D03*
D10*
X211060000Y-122220000D03*
X212757056Y-118122944D03*
X212757056Y-121517056D03*
X213460000Y-119820000D03*
%TD*%
%TO.C,H3*%
X158730000Y-119820000D03*
X159432944Y-118122944D03*
X159432944Y-121517056D03*
X161130000Y-117420000D03*
D11*
X161130000Y-119820000D03*
D10*
X161130000Y-122220000D03*
X162827056Y-118122944D03*
X162827056Y-121517056D03*
X163530000Y-119820000D03*
%TD*%
%TO.C,H2*%
X208660000Y-73620000D03*
X209362944Y-71922944D03*
X209362944Y-75317056D03*
X211060000Y-71220000D03*
D11*
X211060000Y-73620000D03*
D10*
X211060000Y-76020000D03*
X212757056Y-71922944D03*
X212757056Y-75317056D03*
X213460000Y-73620000D03*
%TD*%
%TO.C,H1*%
X158730000Y-73627056D03*
X159432944Y-71930000D03*
X159432944Y-75324112D03*
X161130000Y-71227056D03*
D11*
X161130000Y-73627056D03*
D10*
X161130000Y-76027056D03*
X162827056Y-71930000D03*
X162827056Y-75324112D03*
X163530000Y-73627056D03*
%TD*%
D12*
%TO.C,J3*%
X164680000Y-129530000D03*
D13*
X180180000Y-129530000D03*
%TD*%
D12*
%TO.C,J4*%
X165040000Y-63290000D03*
D13*
X180540000Y-63290000D03*
%TD*%
%TO.C,J1*%
X207190000Y-130120000D03*
X191690000Y-130120000D03*
%TD*%
%TO.C,J2*%
X207500000Y-63835000D03*
X192000000Y-63835000D03*
%TD*%
D14*
%TO.C,R14*%
X191700000Y-100500000D03*
X193700000Y-100500000D03*
%TD*%
D15*
%TO.C,C41*%
X195525000Y-84200000D03*
X197600000Y-84200000D03*
%TD*%
D16*
%TO.C,C5*%
X198725000Y-96600000D03*
X195600000Y-96600000D03*
%TD*%
%TO.C,C7*%
X198700000Y-99900000D03*
X195575000Y-99900000D03*
%TD*%
D17*
%TO.C,C42*%
X194975000Y-88300000D03*
X198100000Y-88300000D03*
%TD*%
D15*
%TO.C,C23*%
X195525000Y-82100000D03*
X197600000Y-82100000D03*
%TD*%
D16*
%TO.C,C6*%
X198725000Y-93300000D03*
X195600000Y-93300000D03*
%TD*%
M02*
