<?xml version="1.0" standalone="no"?>
 <!DOCTYPE svg PUBLIC "-//W3C//DTD SVG 1.1//EN" 
 "http://www.w3.org/Graphics/SVG/1.1/DTD/svg11.dtd"> 
<svg
  xmlns:svg="http://www.w3.org/2000/svg"
  xmlns="http://www.w3.org/2000/svg"
  xmlns:xlink="http://www.w3.org/1999/xlink"
  version="1.1"
  width="297.0022mm" height="210.0072mm" viewBox="0.0000 0.0000 297.0022 210.0072">
<title>SVG Image created as SEPIC-A-B_Paste.svg date 2024/09/18 14:40:37 </title>
  <desc>Image generated by PCBNEW </desc>
<g style="fill:#000000; fill-opacity:1.0000;stroke:#000000; stroke-opacity:1.0000;
stroke-linecap:round; stroke-linejoin:round;"
 transform="translate(0 0) scale(1 1)">
<path style="fill:#00C2C2; fill-opacity:0.9000; stroke:none;fill-rule:evenodd;"
d="M 191.1000,100.0500
191.1190,99.9543
191.1732,99.8732
191.2543,99.8190
191.3500,99.8000
192.0500,99.8000
192.1457,99.8190
192.2268,99.8732
192.2810,99.9543
192.3000,100.0500
192.3000,100.9500
192.2810,101.0457
192.2268,101.1268
192.1457,101.1810
192.0500,101.2000
191.3500,101.2000
191.2543,101.1810
191.1732,101.1268
191.1190,101.0457
191.1000,100.9500
Z" /> 
<path style="fill:#00C2C2; fill-opacity:0.9000; stroke:none;fill-rule:evenodd;"
d="M 193.1000,100.0500
193.1190,99.9543
193.1732,99.8732
193.2543,99.8190
193.3500,99.8000
194.0500,99.8000
194.1457,99.8190
194.2268,99.8732
194.2810,99.9543
194.3000,100.0500
194.3000,100.9500
194.2810,101.0457
194.2268,101.1268
194.1457,101.1810
194.0500,101.2000
193.3500,101.2000
193.2543,101.1810
193.1732,101.1268
193.1190,101.0457
193.1000,100.9500
Z" /> 
<path style="fill:#00C2C2; fill-opacity:0.9000; stroke:none;fill-rule:evenodd;"
d="M 206.8500,117.9035
206.9457,117.9225
207.0268,117.9767
207.0810,118.0578
207.1000,118.1535
207.1000,118.8285
207.0810,118.9242
207.0268,119.0053
206.9457,119.0595
206.8500,119.0785
205.9000,119.0785
205.8043,119.0595
205.7232,119.0053
205.6690,118.9242
205.6500,118.8285
205.6500,118.1535
205.6690,118.0578
205.7232,117.9767
205.8043,117.9225
205.9000,117.9035
Z" /> 
<path style="fill:#00C2C2; fill-opacity:0.9000; stroke:none;fill-rule:evenodd;"
d="M 206.8500,119.9785
206.9457,119.9975
207.0268,120.0517
207.0810,120.1328
207.1000,120.2285
207.1000,120.9035
207.0810,120.9992
207.0268,121.0803
206.9457,121.1345
206.8500,121.1535
205.9000,121.1535
205.8043,121.1345
205.7232,121.0803
205.6690,120.9992
205.6500,120.9035
205.6500,120.2285
205.6690,120.1328
205.7232,120.0517
205.8043,119.9975
205.9000,119.9785
Z" /> 
<path style="fill:#00C2C2; fill-opacity:0.9000; stroke:none;fill-rule:evenodd;"
d="M 194.9375,83.7250
194.9565,83.6293
195.0107,83.5482
195.0918,83.4940
195.1875,83.4750
195.8625,83.4750
195.9582,83.4940
196.0393,83.5482
196.0935,83.6293
196.1125,83.7250
196.1125,84.6750
196.0935,84.7707
196.0393,84.8518
195.9582,84.9060
195.8625,84.9250
195.1875,84.9250
195.0918,84.9060
195.0107,84.8518
194.9565,84.7707
194.9375,84.6750
Z" /> 
<path style="fill:#00C2C2; fill-opacity:0.9000; stroke:none;fill-rule:evenodd;"
d="M 197.0125,83.7250
197.0315,83.6293
197.0857,83.5482
197.1668,83.4940
197.2625,83.4750
197.9375,83.4750
198.0332,83.4940
198.1143,83.5482
198.1685,83.6293
198.1875,83.7250
198.1875,84.6750
198.1685,84.7707
198.1143,84.8518
198.0332,84.9060
197.9375,84.9250
197.2625,84.9250
197.1668,84.9060
197.0857,84.8518
197.0315,84.7707
197.0125,84.6750
Z" /> 
<path style="fill:#00C2C2; fill-opacity:0.9000; stroke:none;fill-rule:evenodd;"
d="M 159.6625,98.0125
159.6806,97.9216
159.7321,97.8446
159.8091,97.7931
159.9000,97.7750
160.4000,97.7750
160.4909,97.7931
160.5679,97.8446
160.6194,97.9216
160.6375,98.0125
160.6375,98.4875
160.6194,98.5784
160.5679,98.6554
160.4909,98.7069
160.4000,98.7250
159.9000,98.7250
159.8091,98.7069
159.7321,98.6554
159.6806,98.5784
159.6625,98.4875
Z" /> 
<path style="fill:#00C2C2; fill-opacity:0.9000; stroke:none;fill-rule:evenodd;"
d="M 161.4875,98.0125
161.5056,97.9216
161.5571,97.8446
161.6341,97.7931
161.7250,97.7750
162.2250,97.7750
162.3159,97.7931
162.3929,97.8446
162.4444,97.9216
162.4625,98.0125
162.4625,98.4875
162.4444,98.5784
162.3929,98.6554
162.3159,98.7069
162.2250,98.7250
161.7250,98.7250
161.6341,98.7069
161.5571,98.6554
161.5056,98.5784
161.4875,98.4875
Z" /> 
<path style="fill:#00C2C2; fill-opacity:0.9000; stroke:none;fill-rule:evenodd;"
d="M 199.3875,97.7000
199.3685,97.7957
199.3143,97.8768
199.2332,97.9310
199.1375,97.9500
198.3125,97.9500
198.2168,97.9310
198.1357,97.8768
198.0815,97.7957
198.0625,97.7000
198.0625,95.5000
198.0815,95.4043
198.1357,95.3232
198.2168,95.2690
198.3125,95.2500
199.1375,95.2500
199.2332,95.2690
199.3143,95.3232
199.3685,95.4043
199.3875,95.5000
Z" /> 
<path style="fill:#00C2C2; fill-opacity:0.9000; stroke:none;fill-rule:evenodd;"
d="M 196.2625,97.7000
196.2435,97.7957
196.1893,97.8768
196.1082,97.9310
196.0125,97.9500
195.1875,97.9500
195.0918,97.9310
195.0107,97.8768
194.9565,97.7957
194.9375,97.7000
194.9375,95.5000
194.9565,95.4043
195.0107,95.3232
195.0918,95.2690
195.1875,95.2500
196.0125,95.2500
196.1082,95.2690
196.1893,95.3232
196.2435,95.4043
196.2625,95.5000
Z" /> 
<path style="fill:#00C2C2; fill-opacity:0.9000; stroke:none;fill-rule:evenodd;"
d="M 167.3530,117.3955
167.4487,117.4145
167.5298,117.4687
167.5840,117.5498
167.6030,117.6455
167.6030,118.3205
167.5840,118.4162
167.5298,118.4973
167.4487,118.5515
167.3530,118.5705
166.4030,118.5705
166.3073,118.5515
166.2262,118.4973
166.1720,118.4162
166.1530,118.3205
166.1530,117.6455
166.1720,117.5498
166.2262,117.4687
166.3073,117.4145
166.4030,117.3955
Z" /> 
<path style="fill:#00C2C2; fill-opacity:0.9000; stroke:none;fill-rule:evenodd;"
d="M 167.3530,119.4705
167.4487,119.4895
167.5298,119.5437
167.5840,119.6248
167.6030,119.7205
167.6030,120.3955
167.5840,120.4912
167.5298,120.5723
167.4487,120.6265
167.3530,120.6455
166.4030,120.6455
166.3073,120.6265
166.2262,120.5723
166.1720,120.4912
166.1530,120.3955
166.1530,119.7205
166.1720,119.6248
166.2262,119.5437
166.3073,119.4895
166.4030,119.4705
Z" /> 
<path style="fill:#00C2C2; fill-opacity:0.9000; stroke:none;fill-rule:evenodd;"
d="M 211.4315,92.6625
211.4134,92.7534
211.3619,92.8304
211.2849,92.8819
211.1940,92.9000
210.6940,92.9000
210.6031,92.8819
210.5261,92.8304
210.4746,92.7534
210.4565,92.6625
210.4565,92.1875
210.4746,92.0966
210.5261,92.0196
210.6031,91.9681
210.6940,91.9500
211.1940,91.9500
211.2849,91.9681
211.3619,92.0196
211.4134,92.0966
211.4315,92.1875
Z" /> 
<path style="fill:#00C2C2; fill-opacity:0.9000; stroke:none;fill-rule:evenodd;"
d="M 209.6065,92.6625
209.5884,92.7534
209.5369,92.8304
209.4599,92.8819
209.3690,92.9000
208.8690,92.9000
208.7781,92.8819
208.7011,92.8304
208.6496,92.7534
208.6315,92.6625
208.6315,92.1875
208.6496,92.0966
208.7011,92.0196
208.7781,91.9681
208.8690,91.9500
209.3690,91.9500
209.4599,91.9681
209.5369,92.0196
209.5884,92.0966
209.6065,92.1875
Z" /> 
<path style="fill:#00C2C2; fill-opacity:0.9000; stroke:none;fill-rule:evenodd;"
d="M 206.6335,90.0760
206.6525,89.9803
206.7067,89.8992
206.7878,89.8450
206.8835,89.8260
207.5585,89.8260
207.6542,89.8450
207.7353,89.8992
207.7895,89.9803
207.8085,90.0760
207.8085,91.0260
207.7895,91.1217
207.7353,91.2028
207.6542,91.2570
207.5585,91.2760
206.8835,91.2760
206.7878,91.2570
206.7067,91.2028
206.6525,91.1217
206.6335,91.0260
Z" /> 
<path style="fill:#00C2C2; fill-opacity:0.9000; stroke:none;fill-rule:evenodd;"
d="M 208.7085,90.0760
208.7275,89.9803
208.7817,89.8992
208.8628,89.8450
208.9585,89.8260
209.6335,89.8260
209.7292,89.8450
209.8103,89.8992
209.8645,89.9803
209.8835,90.0760
209.8835,91.0260
209.8645,91.1217
209.8103,91.2028
209.7292,91.2570
209.6335,91.2760
208.9585,91.2760
208.8628,91.2570
208.7817,91.2028
208.7275,91.1217
208.7085,91.0260
Z" /> 
<path style="fill:#00C2C2; fill-opacity:0.9000; stroke:none;fill-rule:evenodd;"
d="M 208.5125,70.4875
208.4944,70.5784
208.4429,70.6554
208.3659,70.7069
208.2750,70.7250
207.7750,70.7250
207.6841,70.7069
207.6071,70.6554
207.5556,70.5784
207.5375,70.4875
207.5375,70.0125
207.5556,69.9216
207.6071,69.8446
207.6841,69.7931
207.7750,69.7750
208.2750,69.7750
208.3659,69.7931
208.4429,69.8446
208.4944,69.9216
208.5125,70.0125
Z" /> 
<path style="fill:#00C2C2; fill-opacity:0.9000; stroke:none;fill-rule:evenodd;"
d="M 206.6875,70.4875
206.6694,70.5784
206.6179,70.6554
206.5409,70.7069
206.4500,70.7250
205.9500,70.7250
205.8591,70.7069
205.7821,70.6554
205.7306,70.5784
205.7125,70.4875
205.7125,70.0125
205.7306,69.9216
205.7821,69.8446
205.8591,69.7931
205.9500,69.7750
206.4500,69.7750
206.5409,69.7931
206.6179,69.8446
206.6694,69.9216
206.6875,70.0125
Z" /> 
<path style="fill:#00C2C2; fill-opacity:0.9000; stroke:none;fill-rule:evenodd;"
d="M 163.9375,69.6375
163.9556,69.5466
164.0071,69.4696
164.0841,69.4181
164.1750,69.4000
164.6750,69.4000
164.7659,69.4181
164.8429,69.4696
164.8944,69.5466
164.9125,69.6375
164.9125,70.1125
164.8944,70.2034
164.8429,70.2804
164.7659,70.3319
164.6750,70.3500
164.1750,70.3500
164.0841,70.3319
164.0071,70.2804
163.9556,70.2034
163.9375,70.1125
Z" /> 
<path style="fill:#00C2C2; fill-opacity:0.9000; stroke:none;fill-rule:evenodd;"
d="M 165.7625,69.6375
165.7806,69.5466
165.8321,69.4696
165.9091,69.4181
166.0000,69.4000
166.5000,69.4000
166.5909,69.4181
166.6679,69.4696
166.7194,69.5466
166.7375,69.6375
166.7375,70.1125
166.7194,70.2034
166.6679,70.2804
166.5909,70.3319
166.5000,70.3500
166.0000,70.3500
165.9091,70.3319
165.8321,70.2804
165.7806,70.2034
165.7625,70.1125
Z" /> 
<path style="fill:#00C2C2; fill-opacity:0.9000; stroke:none;fill-rule:evenodd;"
d="M 199.3625,101.0000
199.3435,101.0957
199.2893,101.1768
199.2082,101.2310
199.1125,101.2500
198.2875,101.2500
198.1918,101.2310
198.1107,101.1768
198.0565,101.0957
198.0375,101.0000
198.0375,98.8000
198.0565,98.7043
198.1107,98.6232
198.1918,98.5690
198.2875,98.5500
199.1125,98.5500
199.2082,98.5690
199.2893,98.6232
199.3435,98.7043
199.3625,98.8000
Z" /> 
<path style="fill:#00C2C2; fill-opacity:0.9000; stroke:none;fill-rule:evenodd;"
d="M 196.2375,101.0000
196.2185,101.0957
196.1643,101.1768
196.0832,101.2310
195.9875,101.2500
195.1625,101.2500
195.0668,101.2310
194.9857,101.1768
194.9315,101.0957
194.9125,101.0000
194.9125,98.8000
194.9315,98.7043
194.9857,98.6232
195.0668,98.5690
195.1625,98.5500
195.9875,98.5500
196.0832,98.5690
196.1643,98.6232
196.2185,98.7043
196.2375,98.8000
Z" /> 
<path style="fill:#00C2C2; fill-opacity:0.9000; stroke:none;fill-rule:evenodd;"
d="M 164.2905,100.6780
164.2715,100.7737
164.2173,100.8548
164.1362,100.9090
164.0405,100.9280
163.3655,100.9280
163.2698,100.9090
163.1887,100.8548
163.1345,100.7737
163.1155,100.6780
163.1155,99.7280
163.1345,99.6323
163.1887,99.5512
163.2698,99.4970
163.3655,99.4780
164.0405,99.4780
164.1362,99.4970
164.2173,99.5512
164.2715,99.6323
164.2905,99.7280
Z" /> 
<path style="fill:#00C2C2; fill-opacity:0.9000; stroke:none;fill-rule:evenodd;"
d="M 162.2155,100.6780
162.1965,100.7737
162.1423,100.8548
162.0612,100.9090
161.9655,100.9280
161.2905,100.9280
161.1948,100.9090
161.1137,100.8548
161.0595,100.7737
161.0405,100.6780
161.0405,99.7280
161.0595,99.6323
161.1137,99.5512
161.1948,99.4970
161.2905,99.4780
161.9655,99.4780
162.0612,99.4970
162.1423,99.5512
162.1965,99.6323
162.2155,99.7280
Z" /> 
<path style="fill:#00C2C2; fill-opacity:0.9000; stroke:none;fill-rule:evenodd;"
d="M 194.3125,87.2000
194.3315,87.1043
194.3857,87.0232
194.4668,86.9690
194.5625,86.9500
195.3875,86.9500
195.4832,86.9690
195.5643,87.0232
195.6185,87.1043
195.6375,87.2000
195.6375,89.4000
195.6185,89.4957
195.5643,89.5768
195.4832,89.6310
195.3875,89.6500
194.5625,89.6500
194.4668,89.6310
194.3857,89.5768
194.3315,89.4957
194.3125,89.4000
Z" /> 
<path style="fill:#00C2C2; fill-opacity:0.9000; stroke:none;fill-rule:evenodd;"
d="M 197.4375,87.2000
197.4565,87.1043
197.5107,87.0232
197.5918,86.9690
197.6875,86.9500
198.5125,86.9500
198.6082,86.9690
198.6893,87.0232
198.7435,87.1043
198.7625,87.2000
198.7625,89.4000
198.7435,89.4957
198.6893,89.5768
198.6082,89.6310
198.5125,89.6500
197.6875,89.6500
197.5918,89.6310
197.5107,89.5768
197.4565,89.4957
197.4375,89.4000
Z" /> 
<path style="fill:#00C2C2; fill-opacity:0.9000; stroke:none;fill-rule:evenodd;"
d="M 205.6460,74.6500
205.5503,74.6310
205.4692,74.5768
205.4150,74.4957
205.3960,74.4000
205.3960,73.7250
205.4150,73.6293
205.4692,73.5482
205.5503,73.4940
205.6460,73.4750
206.5960,73.4750
206.6917,73.4940
206.7728,73.5482
206.8270,73.6293
206.8460,73.7250
206.8460,74.4000
206.8270,74.4957
206.7728,74.5768
206.6917,74.6310
206.5960,74.6500
Z" /> 
<path style="fill:#00C2C2; fill-opacity:0.9000; stroke:none;fill-rule:evenodd;"
d="M 205.6460,72.5750
205.5503,72.5560
205.4692,72.5018
205.4150,72.4207
205.3960,72.3250
205.3960,71.6500
205.4150,71.5543
205.4692,71.4732
205.5503,71.4190
205.6460,71.4000
206.5960,71.4000
206.6917,71.4190
206.7728,71.4732
206.8270,71.5543
206.8460,71.6500
206.8460,72.3250
206.8270,72.4207
206.7728,72.5018
206.6917,72.5560
206.5960,72.5750
Z" /> 
<path style="fill:#00C2C2; fill-opacity:0.9000; stroke:none;fill-rule:evenodd;"
d="M 168.6300,72.3570
168.6110,72.4527
168.5568,72.5338
168.4757,72.5880
168.3800,72.6070
167.7050,72.6070
167.6093,72.5880
167.5282,72.5338
167.4740,72.4527
167.4550,72.3570
167.4550,71.4070
167.4740,71.3113
167.5282,71.2302
167.6093,71.1760
167.7050,71.1570
168.3800,71.1570
168.4757,71.1760
168.5568,71.2302
168.6110,71.3113
168.6300,71.4070
Z" /> 
<path style="fill:#00C2C2; fill-opacity:0.9000; stroke:none;fill-rule:evenodd;"
d="M 166.5550,72.3570
166.5360,72.4527
166.4818,72.5338
166.4007,72.5880
166.3050,72.6070
165.6300,72.6070
165.5343,72.5880
165.4532,72.5338
165.3990,72.4527
165.3800,72.3570
165.3800,71.4070
165.3990,71.3113
165.4532,71.2302
165.5343,71.1760
165.6300,71.1570
166.3050,71.1570
166.4007,71.1760
166.4818,71.2302
166.5360,71.3113
166.5550,71.4070
Z" /> 
<path style="fill:#00C2C2; fill-opacity:0.9000; stroke:none;fill-rule:evenodd;"
d="M 194.9375,81.6250
194.9565,81.5293
195.0107,81.4482
195.0918,81.3940
195.1875,81.3750
195.8625,81.3750
195.9582,81.3940
196.0393,81.4482
196.0935,81.5293
196.1125,81.6250
196.1125,82.5750
196.0935,82.6707
196.0393,82.7518
195.9582,82.8060
195.8625,82.8250
195.1875,82.8250
195.0918,82.8060
195.0107,82.7518
194.9565,82.6707
194.9375,82.5750
Z" /> 
<path style="fill:#00C2C2; fill-opacity:0.9000; stroke:none;fill-rule:evenodd;"
d="M 197.0125,81.6250
197.0315,81.5293
197.0857,81.4482
197.1668,81.3940
197.2625,81.3750
197.9375,81.3750
198.0332,81.3940
198.1143,81.4482
198.1685,81.5293
198.1875,81.6250
198.1875,82.5750
198.1685,82.6707
198.1143,82.7518
198.0332,82.8060
197.9375,82.8250
197.2625,82.8250
197.1668,82.8060
197.0857,82.7518
197.0315,82.6707
197.0125,82.5750
Z" /> 
<path style="fill:#00C2C2; fill-opacity:0.9000; stroke:none;fill-rule:evenodd;"
d="M 199.3875,94.4000
199.3685,94.4957
199.3143,94.5768
199.2332,94.6310
199.1375,94.6500
198.3125,94.6500
198.2168,94.6310
198.1357,94.5768
198.0815,94.4957
198.0625,94.4000
198.0625,92.2000
198.0815,92.1043
198.1357,92.0232
198.2168,91.9690
198.3125,91.9500
199.1375,91.9500
199.2332,91.9690
199.3143,92.0232
199.3685,92.1043
199.3875,92.2000
Z" /> 
<path style="fill:#00C2C2; fill-opacity:0.9000; stroke:none;fill-rule:evenodd;"
d="M 196.2625,94.4000
196.2435,94.4957
196.1893,94.5768
196.1082,94.6310
196.0125,94.6500
195.1875,94.6500
195.0918,94.6310
195.0107,94.5768
194.9565,94.4957
194.9375,94.4000
194.9375,92.2000
194.9565,92.1043
195.0107,92.0232
195.0918,91.9690
195.1875,91.9500
196.0125,91.9500
196.1082,91.9690
196.1893,92.0232
196.2435,92.1043
196.2625,92.2000
Z" /> 
<path style="fill:#00C2C2; fill-opacity:0.9000; stroke:none;fill-rule:evenodd;"
d="M 164.3875,121.7125
164.4056,121.6216
164.4571,121.5446
164.5341,121.4931
164.6250,121.4750
165.1250,121.4750
165.2159,121.4931
165.2929,121.5446
165.3444,121.6216
165.3625,121.7125
165.3625,122.1875
165.3444,122.2784
165.2929,122.3554
165.2159,122.4069
165.1250,122.4250
164.6250,122.4250
164.5341,122.4069
164.4571,122.3554
164.4056,122.2784
164.3875,122.1875
Z" /> 
<path style="fill:#00C2C2; fill-opacity:0.9000; stroke:none;fill-rule:evenodd;"
d="M 166.2125,121.7125
166.2306,121.6216
166.2821,121.5446
166.3591,121.4931
166.4500,121.4750
166.9500,121.4750
167.0409,121.4931
167.1179,121.5446
167.1694,121.6216
167.1875,121.7125
167.1875,122.1875
167.1694,122.2784
167.1179,122.3554
167.0409,122.4069
166.9500,122.4250
166.4500,122.4250
166.3591,122.4069
166.2821,122.3554
166.2306,122.2784
166.2125,122.1875
Z" /> 
<path style="fill:#00C2C2; fill-opacity:0.9000; stroke:none;fill-rule:evenodd;"
d="M 208.2565,122.6655
208.2384,122.7564
208.1869,122.8334
208.1099,122.8849
208.0190,122.9030
207.5190,122.9030
207.4281,122.8849
207.3511,122.8334
207.2996,122.7564
207.2815,122.6655
207.2815,122.1905
207.2996,122.0996
207.3511,122.0226
207.4281,121.9711
207.5190,121.9530
208.0190,121.9530
208.1099,121.9711
208.1869,122.0226
208.2384,122.0996
208.2565,122.1905
Z" /> 
<path style="fill:#00C2C2; fill-opacity:0.9000; stroke:none;fill-rule:evenodd;"
d="M 206.4315,122.6655
206.4134,122.7564
206.3619,122.8334
206.2849,122.8849
206.1940,122.9030
205.6940,122.9030
205.6031,122.8849
205.5261,122.8334
205.4746,122.7564
205.4565,122.6655
205.4565,122.1905
205.4746,122.0996
205.5261,122.0226
205.6031,121.9711
205.6940,121.9530
206.1940,121.9530
206.2849,121.9711
206.3619,122.0226
206.4134,122.0996
206.4315,122.1905
Z" /> 
</g> 
</svg>
