%TF.GenerationSoftware,KiCad,Pcbnew,8.0.1*%
%TF.CreationDate,2024-07-03T15:52:00+02:00*%
%TF.ProjectId,SEPIC-A,53455049-432d-4412-9e6b-696361645f70,rev?*%
%TF.SameCoordinates,Original*%
%TF.FileFunction,Copper,L3,Inr*%
%TF.FilePolarity,Positive*%
%FSLAX46Y46*%
G04 Gerber Fmt 4.6, Leading zero omitted, Abs format (unit mm)*
G04 Created by KiCad (PCBNEW 8.0.1) date 2024-07-03 15:52:00*
%MOMM*%
%LPD*%
G01*
G04 APERTURE LIST*
%TA.AperFunction,Conductor*%
%ADD10C,0.200000*%
%TD*%
%TA.AperFunction,Conductor*%
%ADD11C,0.050000*%
%TD*%
%TA.AperFunction,Conductor*%
%ADD12C,0.001000*%
%TD*%
%TA.AperFunction,ComponentPad*%
%ADD13C,0.800000*%
%TD*%
%TA.AperFunction,ComponentPad*%
%ADD14C,6.400000*%
%TD*%
%TA.AperFunction,ComponentPad*%
%ADD15R,2.955000X2.955000*%
%TD*%
%TA.AperFunction,ComponentPad*%
%ADD16C,2.955000*%
%TD*%
%TA.AperFunction,ViaPad*%
%ADD17C,0.600000*%
%TD*%
G04 APERTURE END LIST*
D10*
%TO.N,GND_SEPIC*%
X172800000Y-75000000D02*
X172800000Y-75700000D01*
D11*
X170110000Y-117985000D02*
X172180000Y-117985000D01*
X172180000Y-119975000D01*
X170110000Y-119975000D01*
X170110000Y-117985000D01*
%TA.AperFunction,Conductor*%
G36*
X170110000Y-117985000D02*
G01*
X172180000Y-117985000D01*
X172180000Y-119975000D01*
X170110000Y-119975000D01*
X170110000Y-117985000D01*
G37*
%TD.AperFunction*%
D10*
X170800000Y-118900000D02*
X170000000Y-118900000D01*
%TO.N,GND_LOGIC*%
D12*
X161001150Y-96360000D02*
X166210000Y-96360000D01*
X166210000Y-97960000D01*
X161001150Y-97960000D01*
X161001150Y-96360000D01*
%TA.AperFunction,Conductor*%
G36*
X161001150Y-96360000D02*
G01*
X166210000Y-96360000D01*
X166210000Y-97960000D01*
X161001150Y-97960000D01*
X161001150Y-96360000D01*
G37*
%TD.AperFunction*%
%TO.N,G_G_GND*%
D11*
X167940000Y-117990000D02*
X170440000Y-117990000D01*
X170440000Y-119980000D01*
X167940000Y-119980000D01*
X167940000Y-117990000D01*
%TA.AperFunction,Conductor*%
G36*
X167940000Y-117990000D02*
G01*
X170440000Y-117990000D01*
X170440000Y-119980000D01*
X167940000Y-119980000D01*
X167940000Y-117990000D01*
G37*
%TD.AperFunction*%
D10*
%TO.N,GND_SEPIC*%
X164800000Y-97500000D02*
X164800000Y-98200000D01*
X171800000Y-73590000D02*
X173340000Y-73590000D01*
X173340000Y-76000000D01*
X171800000Y-76000000D01*
X171800000Y-73590000D01*
%TA.AperFunction,Conductor*%
G36*
X171800000Y-73590000D02*
G01*
X173340000Y-73590000D01*
X173340000Y-76000000D01*
X171800000Y-76000000D01*
X171800000Y-73590000D01*
G37*
%TD.AperFunction*%
X172800000Y-74300000D02*
X172800000Y-75000000D01*
D11*
X168565000Y-117520000D02*
X170940000Y-117520000D01*
X170940000Y-118270000D01*
X168565000Y-118270000D01*
X168565000Y-117520000D01*
%TA.AperFunction,Conductor*%
G36*
X168565000Y-117520000D02*
G01*
X170940000Y-117520000D01*
X170940000Y-118270000D01*
X168565000Y-118270000D01*
X168565000Y-117520000D01*
G37*
%TD.AperFunction*%
D10*
%TO.N,GND_LOGIC*%
X165500000Y-98200000D02*
X164800000Y-97500000D01*
%TO.N,GND_SEPIC*%
X164200000Y-98100000D02*
X164700000Y-97600000D01*
X164100000Y-98200000D02*
X164800000Y-98200000D01*
X164800000Y-98200000D02*
X165500000Y-98200000D01*
D12*
X161890000Y-97820000D02*
X166207700Y-97820000D01*
X166207700Y-98980000D01*
X161890000Y-98980000D01*
X161890000Y-97820000D01*
%TA.AperFunction,Conductor*%
G36*
X161890000Y-97820000D02*
G01*
X166207700Y-97820000D01*
X166207700Y-98980000D01*
X161890000Y-98980000D01*
X161890000Y-97820000D01*
G37*
%TD.AperFunction*%
D10*
X172800000Y-75000000D02*
X172100000Y-75000000D01*
%TD*%
D13*
%TO.N,GNDH*%
%TO.C,H4*%
X208660000Y-119820000D03*
X209362944Y-118122944D03*
X209362944Y-121517056D03*
X211060000Y-117420000D03*
D14*
X211060000Y-119820000D03*
D13*
X211060000Y-122220000D03*
X212757056Y-118122944D03*
X212757056Y-121517056D03*
X213460000Y-119820000D03*
%TD*%
%TO.N,GNDH*%
%TO.C,H3*%
X158730000Y-119820000D03*
X159432944Y-118122944D03*
X159432944Y-121517056D03*
X161130000Y-117420000D03*
D14*
X161130000Y-119820000D03*
D13*
X161130000Y-122220000D03*
X162827056Y-118122944D03*
X162827056Y-121517056D03*
X163530000Y-119820000D03*
%TD*%
%TO.N,GNDH*%
%TO.C,H2*%
X208660000Y-73620000D03*
X209362944Y-71922944D03*
X209362944Y-75317056D03*
X211060000Y-71220000D03*
D14*
X211060000Y-73620000D03*
D13*
X211060000Y-76020000D03*
X212757056Y-71922944D03*
X212757056Y-75317056D03*
X213460000Y-73620000D03*
%TD*%
%TO.N,GNDH*%
%TO.C,H1*%
X158730000Y-73627056D03*
X159432944Y-71930000D03*
X159432944Y-75324112D03*
X161130000Y-71227056D03*
D14*
X161130000Y-73627056D03*
D13*
X161130000Y-76027056D03*
X162827056Y-71930000D03*
X162827056Y-75324112D03*
X163530000Y-73627056D03*
%TD*%
D15*
%TO.N,G_G_GND1*%
%TO.C,J3*%
X164680000Y-129530000D03*
D16*
X180180000Y-129530000D03*
%TD*%
D15*
%TO.N,GND*%
%TO.C,J4*%
X165040000Y-63290000D03*
D16*
X180540000Y-63290000D03*
%TD*%
%TO.N,+24V*%
%TO.C,J1*%
X207190000Y-130120000D03*
X191690000Y-130120000D03*
%TD*%
%TO.N,V_LOW*%
%TO.C,J2*%
X207500000Y-63835000D03*
X192000000Y-63835000D03*
%TD*%
D17*
%TO.N,+24V*%
X198900000Y-106800000D03*
X198200000Y-106800000D03*
X198300000Y-107500000D03*
%TO.N,GND*%
X205700000Y-76500000D03*
X206300000Y-76800000D03*
X205700000Y-78600000D03*
X206300000Y-77600000D03*
X205700000Y-77200000D03*
X205700000Y-80000000D03*
X206300000Y-78300000D03*
X206400000Y-117600000D03*
X205700000Y-77900000D03*
X172800000Y-75000000D03*
X205700000Y-79300000D03*
X197900000Y-86000000D03*
X166900000Y-116900000D03*
X167990000Y-75240000D03*
X197200000Y-86000000D03*
X196400000Y-86000000D03*
%TO.N,Net-(C11-Pad2)*%
X186500000Y-106500000D03*
X186500000Y-107200000D03*
%TO.N,V_HIGH*%
X162870000Y-93150000D03*
X167000000Y-77800000D03*
X177900000Y-98700000D03*
%TO.N,V_LOW*%
X177400000Y-74500000D03*
X177400000Y-75300000D03*
X178200000Y-73000000D03*
X180700000Y-73800000D03*
X178200000Y-75300000D03*
X177400000Y-73000000D03*
X179800000Y-73000000D03*
X180700000Y-75300000D03*
X180700000Y-73000000D03*
X179000000Y-73000000D03*
X177400000Y-73800000D03*
X179900000Y-75300000D03*
X195100000Y-86000000D03*
X180700000Y-74600000D03*
X194000000Y-86000000D03*
X179100000Y-75300000D03*
%TO.N,Net-(D2-A)*%
X179320000Y-76960000D03*
X178400000Y-77540000D03*
X179030000Y-77540000D03*
X179660000Y-77540000D03*
X177600000Y-78400000D03*
X179940000Y-76940000D03*
X177600000Y-77800000D03*
X178090000Y-76960000D03*
X177600000Y-79000000D03*
X178700000Y-76960000D03*
%TO.N,Net-(Q1-D_1)*%
X179600000Y-85000000D03*
X180500000Y-84400000D03*
X178060000Y-84460000D03*
X178780000Y-84450000D03*
X179600000Y-84000000D03*
X181300000Y-84400000D03*
%TO.N,Net-(Q1-G)*%
X181390000Y-90750000D03*
X174418952Y-90440219D03*
%TO.N,G_G_GND*%
X169200000Y-119600000D03*
X169200000Y-118900000D03*
X168500000Y-118900000D03*
X169900000Y-118900000D03*
X169900000Y-119600000D03*
%TO.N,GND_SEPIC*%
X173300000Y-80300000D03*
X172800000Y-75700000D03*
X181200000Y-93600000D03*
X181900000Y-93600000D03*
X180500000Y-93600000D03*
X172800000Y-74300000D03*
X179800000Y-93600000D03*
X172700000Y-82290000D03*
X172700000Y-82940000D03*
X170800000Y-118900000D03*
X172000000Y-74300000D03*
X164100000Y-98200000D03*
X172700000Y-80300000D03*
X172700000Y-81650000D03*
X172000000Y-75000000D03*
X172010000Y-75680000D03*
X170945000Y-94190000D03*
X172700000Y-80950000D03*
%TO.N,GND_LOGIC*%
X162500000Y-86700000D03*
X164800000Y-97500000D03*
X164400000Y-88100000D03*
X165500003Y-98200000D03*
X164080000Y-97500000D03*
X164800000Y-98200000D03*
X162500000Y-87500000D03*
%TO.N,G_G_GND1*%
X193400000Y-98300000D03*
X193400000Y-97599997D03*
X192700000Y-98300000D03*
%TO.N,VFB*%
X172310000Y-72820000D03*
X168200000Y-97040000D03*
%TO.N,Net-(IC1-EN)*%
X171320000Y-83510000D03*
X170700000Y-97100000D03*
%TD*%
%TA.AperFunction,Conductor*%
%TO.N,Net-(D2-A)*%
G36*
X181943039Y-76625185D02*
G01*
X181988794Y-76677989D01*
X182000000Y-76729500D01*
X182000000Y-79576000D01*
X181980315Y-79643039D01*
X181927511Y-79688794D01*
X181876000Y-79700000D01*
X176824000Y-79700000D01*
X176756961Y-79680315D01*
X176711206Y-79627511D01*
X176700000Y-79576000D01*
X176700000Y-76729500D01*
X176719685Y-76662461D01*
X176772489Y-76616706D01*
X176824000Y-76605500D01*
X181876000Y-76605500D01*
X181943039Y-76625185D01*
G37*
%TD.AperFunction*%
%TD*%
%TA.AperFunction,Conductor*%
%TO.N,V_LOW*%
G36*
X181943039Y-72419685D02*
G01*
X181988794Y-72472489D01*
X182000000Y-72524000D01*
X182000000Y-75976000D01*
X181980315Y-76043039D01*
X181927511Y-76088794D01*
X181876000Y-76100000D01*
X176824000Y-76100000D01*
X176756961Y-76080315D01*
X176711206Y-76027511D01*
X176700000Y-75976000D01*
X176700000Y-72524000D01*
X176719685Y-72456961D01*
X176772489Y-72411206D01*
X176824000Y-72400000D01*
X181876000Y-72400000D01*
X181943039Y-72419685D01*
G37*
%TD.AperFunction*%
%TD*%
%TA.AperFunction,NonConductor*%
G36*
X172843039Y-100619685D02*
G01*
X172888794Y-100672489D01*
X172900000Y-100724000D01*
X172900000Y-106476000D01*
X172880315Y-106543039D01*
X172827511Y-106588794D01*
X172776000Y-106600000D01*
X166624000Y-106600000D01*
X166556961Y-106580315D01*
X166511206Y-106527511D01*
X166500000Y-106476000D01*
X166500000Y-100724000D01*
X166519685Y-100656961D01*
X166572489Y-100611206D01*
X166624000Y-100600000D01*
X172776000Y-100600000D01*
X172843039Y-100619685D01*
G37*
%TD.AperFunction*%
%TA.AperFunction,Conductor*%
%TO.N,GNDH*%
G36*
X214526182Y-58219739D02*
G01*
X214593178Y-58239565D01*
X214638821Y-58292465D01*
X214649919Y-58343819D01*
X214600079Y-135167225D01*
X214580351Y-135234252D01*
X214527517Y-135279973D01*
X214477231Y-135291140D01*
X159776415Y-135799495D01*
X159775263Y-135799500D01*
X157693929Y-135799500D01*
X157626890Y-135779815D01*
X157581135Y-135727011D01*
X157569929Y-135675561D01*
X157569713Y-135234252D01*
X157551304Y-97576007D01*
X160494500Y-97576007D01*
X160499439Y-97621936D01*
X160500150Y-97635192D01*
X160500150Y-98025957D01*
X160534292Y-98153380D01*
X160559903Y-98197738D01*
X160600250Y-98267621D01*
X160693529Y-98360900D01*
X160807771Y-98426858D01*
X160908095Y-98453739D01*
X160967753Y-98490102D01*
X160998283Y-98552949D01*
X161000000Y-98573513D01*
X161000000Y-98700000D01*
X160999999Y-98700000D01*
X161391534Y-99113286D01*
X161421290Y-99166468D01*
X161423142Y-99173379D01*
X161489100Y-99287621D01*
X161582379Y-99380900D01*
X161660129Y-99425789D01*
X161703660Y-99450922D01*
X161702612Y-99452737D01*
X161732772Y-99473482D01*
X162767311Y-100565495D01*
X162799127Y-100627700D01*
X162801250Y-100647513D01*
X162899957Y-104398366D01*
X162900000Y-104401628D01*
X162900000Y-117000000D01*
X165851446Y-119262775D01*
X165892672Y-119319186D01*
X165900000Y-119361182D01*
X165900000Y-127428000D01*
X165880315Y-127495039D01*
X165827511Y-127540794D01*
X165776000Y-127552000D01*
X163154629Y-127552000D01*
X163154623Y-127552001D01*
X163095016Y-127558408D01*
X162960171Y-127608702D01*
X162960164Y-127608706D01*
X162844955Y-127694952D01*
X162844952Y-127694955D01*
X162758706Y-127810164D01*
X162758702Y-127810171D01*
X162708408Y-127945017D01*
X162702001Y-128004616D01*
X162702000Y-128004635D01*
X162702000Y-131055370D01*
X162702001Y-131055376D01*
X162708408Y-131114983D01*
X162758702Y-131249828D01*
X162758706Y-131249835D01*
X162844952Y-131365044D01*
X162844955Y-131365047D01*
X162960164Y-131451293D01*
X162960171Y-131451297D01*
X163095017Y-131501591D01*
X163095016Y-131501591D01*
X163101944Y-131502335D01*
X163154627Y-131508000D01*
X165776000Y-131507999D01*
X165843039Y-131527684D01*
X165888794Y-131580487D01*
X165900000Y-131631999D01*
X165900000Y-132600000D01*
X206700000Y-132700000D01*
X206686510Y-132191884D01*
X206704407Y-132124351D01*
X206755978Y-132077211D01*
X206824848Y-132065435D01*
X206836823Y-132067431D01*
X206907782Y-132082868D01*
X207164299Y-132101214D01*
X207189999Y-132103053D01*
X207190000Y-132103053D01*
X207190001Y-132103053D01*
X207210186Y-132101609D01*
X207472218Y-132082868D01*
X207748691Y-132022725D01*
X208013790Y-131923848D01*
X208262119Y-131788250D01*
X208488624Y-131618691D01*
X208688691Y-131418624D01*
X208858250Y-131192119D01*
X208993848Y-130943790D01*
X209092725Y-130678691D01*
X209152868Y-130402218D01*
X209173053Y-130120000D01*
X209152868Y-129837782D01*
X209092725Y-129561309D01*
X208993848Y-129296210D01*
X208967404Y-129247782D01*
X208858253Y-129047886D01*
X208858248Y-129047878D01*
X208688697Y-128821383D01*
X208688681Y-128821365D01*
X208488634Y-128621318D01*
X208488616Y-128621302D01*
X208262121Y-128451751D01*
X208262113Y-128451746D01*
X208013795Y-128316154D01*
X208013791Y-128316152D01*
X207913288Y-128278666D01*
X207748691Y-128217275D01*
X207748687Y-128217274D01*
X207748684Y-128217273D01*
X207472226Y-128157133D01*
X207472219Y-128157132D01*
X207190001Y-128136947D01*
X207189999Y-128136947D01*
X206907780Y-128157132D01*
X206907773Y-128157133D01*
X206727616Y-128196324D01*
X206657924Y-128191340D01*
X206601991Y-128149468D01*
X206577574Y-128084004D01*
X206577306Y-128078536D01*
X206402257Y-121485033D01*
X206420155Y-121417497D01*
X206471726Y-121370356D01*
X206478495Y-121367293D01*
X207600000Y-120900000D01*
X207600000Y-117956268D01*
X207619685Y-117889229D01*
X207642345Y-117862948D01*
X208628571Y-117000000D01*
X210000000Y-115800000D01*
X210150915Y-85390552D01*
X210200000Y-75500001D01*
X210199999Y-75500000D01*
X210200000Y-75500000D01*
X208353566Y-73589896D01*
X207334845Y-72536046D01*
X207302404Y-72474164D01*
X207300000Y-72449863D01*
X207300000Y-69200000D01*
X206786285Y-68392044D01*
X206766941Y-68327491D01*
X206727217Y-65838436D01*
X206745829Y-65771094D01*
X206797896Y-65724502D01*
X206866887Y-65713456D01*
X206894525Y-65720275D01*
X206941309Y-65737725D01*
X206941315Y-65737726D01*
X206941317Y-65737727D01*
X207179153Y-65789464D01*
X207217782Y-65797868D01*
X207478259Y-65816498D01*
X207499999Y-65818053D01*
X207500000Y-65818053D01*
X207500001Y-65818053D01*
X207520186Y-65816609D01*
X207782218Y-65797868D01*
X208058691Y-65737725D01*
X208323790Y-65638848D01*
X208572119Y-65503250D01*
X208798624Y-65333691D01*
X208998691Y-65133624D01*
X209168250Y-64907119D01*
X209303848Y-64658790D01*
X209402725Y-64393691D01*
X209462868Y-64117218D01*
X209483053Y-63835000D01*
X209462868Y-63552782D01*
X209402725Y-63276309D01*
X209303848Y-63011210D01*
X209168250Y-62762881D01*
X209144616Y-62731309D01*
X208998697Y-62536383D01*
X208998681Y-62536365D01*
X208798634Y-62336318D01*
X208798616Y-62336302D01*
X208572121Y-62166751D01*
X208572113Y-62166746D01*
X208323795Y-62031154D01*
X208323791Y-62031152D01*
X208217147Y-61991376D01*
X208058691Y-61932275D01*
X208058687Y-61932274D01*
X208058684Y-61932273D01*
X207782226Y-61872133D01*
X207782219Y-61872132D01*
X207500001Y-61851947D01*
X207499999Y-61851947D01*
X207217780Y-61872132D01*
X207217773Y-61872133D01*
X206941315Y-61932273D01*
X206941310Y-61932274D01*
X206941309Y-61932275D01*
X206915112Y-61942045D01*
X206831028Y-61973407D01*
X206761336Y-61978391D01*
X206700013Y-61944905D01*
X206666529Y-61883582D01*
X206663712Y-61859216D01*
X206650000Y-61000000D01*
X206649999Y-61000000D01*
X165700000Y-61110000D01*
X165700000Y-61188000D01*
X165680315Y-61255039D01*
X165627511Y-61300794D01*
X165576000Y-61312000D01*
X163514629Y-61312000D01*
X163514623Y-61312001D01*
X163455016Y-61318408D01*
X163320171Y-61368702D01*
X163320164Y-61368706D01*
X163204955Y-61454952D01*
X163204952Y-61454955D01*
X163118706Y-61570164D01*
X163118702Y-61570171D01*
X163068408Y-61705017D01*
X163062001Y-61764616D01*
X163062000Y-61764635D01*
X163062000Y-64815370D01*
X163062001Y-64815376D01*
X163068408Y-64874983D01*
X163118702Y-65009828D01*
X163118706Y-65009835D01*
X163204952Y-65125044D01*
X163204955Y-65125047D01*
X163320164Y-65211293D01*
X163320171Y-65211297D01*
X163455017Y-65261591D01*
X163455016Y-65261591D01*
X163461944Y-65262335D01*
X163514627Y-65268000D01*
X165576001Y-65267999D01*
X165643039Y-65287684D01*
X165688794Y-65340487D01*
X165700000Y-65391999D01*
X165700000Y-67971960D01*
X165687935Y-68025312D01*
X165190000Y-69069997D01*
X165189999Y-69070000D01*
X165170226Y-74280195D01*
X165160000Y-74314538D01*
X165160000Y-80249995D01*
X165140315Y-80317034D01*
X165136621Y-80322462D01*
X162205853Y-84391872D01*
X162192913Y-84407086D01*
X161741819Y-84858181D01*
X161680496Y-84891666D01*
X161654138Y-84894500D01*
X161325835Y-84894500D01*
X161214757Y-84906855D01*
X161214754Y-84906855D01*
X161161601Y-84918828D01*
X161161579Y-84918834D01*
X161055939Y-84955294D01*
X160936055Y-85034855D01*
X160883933Y-85081379D01*
X160883929Y-85081383D01*
X160791325Y-85191482D01*
X160733484Y-85323224D01*
X160733483Y-85323229D01*
X160714791Y-85390527D01*
X160714785Y-85390552D01*
X160696405Y-85533250D01*
X160696405Y-85533253D01*
X160791393Y-91992467D01*
X160772696Y-92059788D01*
X160766606Y-92068689D01*
X160620403Y-92263627D01*
X160609696Y-92278456D01*
X160604565Y-92285838D01*
X160594437Y-92300990D01*
X160594435Y-92300993D01*
X160534663Y-92431870D01*
X160514976Y-92498915D01*
X160494500Y-92641334D01*
X160494500Y-97576007D01*
X157551304Y-97576007D01*
X157540044Y-74540624D01*
X157559696Y-74473577D01*
X157575448Y-74453808D01*
X157579999Y-74449160D01*
X157580000Y-74449160D01*
X157580000Y-58224261D01*
X157599685Y-58157222D01*
X157652489Y-58111467D01*
X157704259Y-58100261D01*
X214526182Y-58219739D01*
G37*
%TD.AperFunction*%
%TD*%
%TA.AperFunction,NonConductor*%
G36*
X172843039Y-107219685D02*
G01*
X172888794Y-107272489D01*
X172900000Y-107324000D01*
X172900000Y-113076000D01*
X172880315Y-113143039D01*
X172827511Y-113188794D01*
X172776000Y-113200000D01*
X166624000Y-113200000D01*
X166556961Y-113180315D01*
X166511206Y-113127511D01*
X166500000Y-113076000D01*
X166500000Y-107324000D01*
X166519685Y-107256961D01*
X166572489Y-107211206D01*
X166624000Y-107200000D01*
X172776000Y-107200000D01*
X172843039Y-107219685D01*
G37*
%TD.AperFunction*%
%TA.AperFunction,Conductor*%
%TO.N,Net-(Q1-D_1)*%
G36*
X182843039Y-82119685D02*
G01*
X182888794Y-82172489D01*
X182900000Y-82224000D01*
X182900000Y-86975185D01*
X182880315Y-87042224D01*
X182827511Y-87087979D01*
X182775188Y-87099182D01*
X176913436Y-87060808D01*
X176846527Y-87040685D01*
X176801119Y-86987583D01*
X176790248Y-86936565D01*
X176799751Y-82223750D01*
X176819571Y-82156750D01*
X176872467Y-82111102D01*
X176923751Y-82100000D01*
X182776000Y-82100000D01*
X182843039Y-82119685D01*
G37*
%TD.AperFunction*%
%TD*%
%TA.AperFunction,Conductor*%
%TO.N,GND*%
G36*
X206097250Y-61526670D02*
G01*
X206143147Y-61579351D01*
X206154475Y-61629186D01*
X206158274Y-61867252D01*
X206158275Y-61867267D01*
X206161558Y-61917287D01*
X206164371Y-61941615D01*
X206164376Y-61941650D01*
X206172579Y-61991026D01*
X206172580Y-61991027D01*
X206222855Y-62125827D01*
X206222860Y-62125838D01*
X206246712Y-62169521D01*
X206261563Y-62237794D01*
X206237145Y-62303258D01*
X206212194Y-62328210D01*
X206201379Y-62336306D01*
X206201365Y-62336318D01*
X206001318Y-62536365D01*
X206001302Y-62536383D01*
X205831751Y-62762878D01*
X205831746Y-62762886D01*
X205696154Y-63011204D01*
X205696152Y-63011208D01*
X205597273Y-63276315D01*
X205537133Y-63552773D01*
X205537132Y-63552780D01*
X205516947Y-63834998D01*
X205516947Y-63835001D01*
X205537132Y-64117219D01*
X205537133Y-64117226D01*
X205597273Y-64393684D01*
X205597275Y-64393691D01*
X205658666Y-64558288D01*
X205696152Y-64658791D01*
X205696154Y-64658795D01*
X205831746Y-64907113D01*
X205831751Y-64907121D01*
X206001302Y-65133616D01*
X206001318Y-65133634D01*
X206201365Y-65333681D01*
X206201383Y-65333697D01*
X206265560Y-65381739D01*
X206307432Y-65437672D01*
X206312416Y-65507364D01*
X206304852Y-65530710D01*
X206258598Y-65636425D01*
X206240415Y-65702214D01*
X206239998Y-65703649D01*
X206221780Y-65846505D01*
X206261504Y-68335557D01*
X206282715Y-68472595D01*
X206302057Y-68537145D01*
X206302058Y-68537147D01*
X206359707Y-68663266D01*
X206359709Y-68663270D01*
X206540961Y-68948337D01*
X206775140Y-69316647D01*
X206794500Y-69383179D01*
X206794500Y-72449895D01*
X206796953Y-72499601D01*
X206796954Y-72499621D01*
X206796955Y-72499627D01*
X206799359Y-72523928D01*
X206806706Y-72573229D01*
X206854695Y-72708871D01*
X206854696Y-72708874D01*
X206854698Y-72708878D01*
X206887138Y-72770756D01*
X206971399Y-72887384D01*
X207333645Y-73262121D01*
X207366086Y-73324003D01*
X207368321Y-73354794D01*
X207354422Y-73619999D01*
X207354422Y-73620000D01*
X207374722Y-74007339D01*
X207435397Y-74390427D01*
X207435397Y-74390429D01*
X207535788Y-74765094D01*
X207674787Y-75127197D01*
X207850877Y-75472793D01*
X208062122Y-75798082D01*
X208062124Y-75798084D01*
X208306219Y-76099516D01*
X208580484Y-76373781D01*
X208580488Y-76373784D01*
X208881917Y-76617877D01*
X209207206Y-76829122D01*
X209207211Y-76829125D01*
X209552806Y-77005214D01*
X209577341Y-77014632D01*
X209606781Y-77025933D01*
X209662314Y-77068336D01*
X209686106Y-77134030D01*
X209686341Y-77142312D01*
X209495913Y-115513727D01*
X209475896Y-115580668D01*
X209453570Y-115606431D01*
X207309467Y-117482523D01*
X207259499Y-117532856D01*
X207236844Y-117559133D01*
X207236836Y-117559142D01*
X207194430Y-117615936D01*
X207134664Y-117746802D01*
X207114976Y-117813850D01*
X207094500Y-117956269D01*
X207094500Y-120480333D01*
X207074815Y-120547372D01*
X207022011Y-120593127D01*
X207018193Y-120594794D01*
X206284072Y-120900678D01*
X206270097Y-120906749D01*
X206263328Y-120909812D01*
X206249600Y-120916274D01*
X206143178Y-120988730D01*
X206130665Y-120997250D01*
X206130662Y-120997252D01*
X206079098Y-121044387D01*
X205987800Y-121155581D01*
X205987799Y-121155582D01*
X205931523Y-121288001D01*
X205931522Y-121288004D01*
X205921123Y-121327243D01*
X205913625Y-121355539D01*
X205913625Y-121355540D01*
X205913625Y-121355541D01*
X205912865Y-121361371D01*
X205912788Y-121362706D01*
X205896934Y-121498450D01*
X206071983Y-128091958D01*
X206072411Y-128103277D01*
X206072675Y-128108658D01*
X206072680Y-128108750D01*
X206073362Y-128120067D01*
X206073362Y-128120070D01*
X206073363Y-128120075D01*
X206097577Y-128231383D01*
X206103946Y-128260659D01*
X206124644Y-128316152D01*
X206129911Y-128330273D01*
X206128098Y-128330949D01*
X206136868Y-128392244D01*
X206107799Y-128455779D01*
X206088453Y-128473779D01*
X205891377Y-128621308D01*
X205891365Y-128621318D01*
X205691318Y-128821365D01*
X205691302Y-128821383D01*
X205521751Y-129047878D01*
X205521746Y-129047886D01*
X205386154Y-129296204D01*
X205386152Y-129296208D01*
X205311181Y-129497213D01*
X205298954Y-129529998D01*
X205287273Y-129561315D01*
X205227133Y-129837773D01*
X205227132Y-129837780D01*
X205206947Y-130119998D01*
X205206947Y-130120001D01*
X205227132Y-130402219D01*
X205227133Y-130402226D01*
X205270618Y-130602121D01*
X205287275Y-130678691D01*
X205343194Y-130828616D01*
X205386152Y-130943791D01*
X205386154Y-130943795D01*
X205521746Y-131192113D01*
X205521751Y-131192121D01*
X205691302Y-131418616D01*
X205691318Y-131418634D01*
X205891365Y-131618681D01*
X205891383Y-131618697D01*
X206117878Y-131788248D01*
X206117891Y-131788256D01*
X206169938Y-131816676D01*
X206219344Y-131866081D01*
X206234196Y-131934354D01*
X206224636Y-131974003D01*
X206215776Y-131994852D01*
X206215770Y-131994868D01*
X206197878Y-132062383D01*
X206195430Y-132083345D01*
X206168100Y-132147647D01*
X206110344Y-132186967D01*
X206071963Y-132192958D01*
X192566716Y-132159857D01*
X192499725Y-132140008D01*
X192454100Y-132087092D01*
X192444326Y-132017909D01*
X192473506Y-131954425D01*
X192510402Y-131926885D01*
X192509903Y-131925971D01*
X192762108Y-131788256D01*
X192762119Y-131788250D01*
X192988624Y-131618691D01*
X193188691Y-131418624D01*
X193358250Y-131192119D01*
X193493848Y-130943790D01*
X193592725Y-130678691D01*
X193652868Y-130402218D01*
X193673053Y-130120000D01*
X193652868Y-129837782D01*
X193592725Y-129561309D01*
X193493848Y-129296210D01*
X193467404Y-129247782D01*
X193358253Y-129047886D01*
X193358248Y-129047878D01*
X193188697Y-128821383D01*
X193188681Y-128821365D01*
X192988634Y-128621318D01*
X192988616Y-128621302D01*
X192762121Y-128451751D01*
X192762113Y-128451746D01*
X192513795Y-128316154D01*
X192513791Y-128316152D01*
X192413288Y-128278666D01*
X192248691Y-128217275D01*
X192248687Y-128217274D01*
X192248684Y-128217273D01*
X191972226Y-128157133D01*
X191972219Y-128157132D01*
X191690001Y-128136947D01*
X191689999Y-128136947D01*
X191407780Y-128157132D01*
X191407773Y-128157133D01*
X191131315Y-128217273D01*
X191131310Y-128217274D01*
X191131309Y-128217275D01*
X191093503Y-128231376D01*
X190866208Y-128316152D01*
X190866204Y-128316154D01*
X190617886Y-128451746D01*
X190617878Y-128451751D01*
X190391383Y-128621302D01*
X190391365Y-128621318D01*
X190191318Y-128821365D01*
X190191302Y-128821383D01*
X190021751Y-129047878D01*
X190021746Y-129047886D01*
X189886154Y-129296204D01*
X189886152Y-129296208D01*
X189811181Y-129497213D01*
X189798954Y-129529998D01*
X189787273Y-129561315D01*
X189727133Y-129837773D01*
X189727132Y-129837780D01*
X189706947Y-130119998D01*
X189706947Y-130120001D01*
X189727132Y-130402219D01*
X189727133Y-130402226D01*
X189770618Y-130602121D01*
X189787275Y-130678691D01*
X189843194Y-130828616D01*
X189886152Y-130943791D01*
X189886154Y-130943795D01*
X190021746Y-131192113D01*
X190021751Y-131192121D01*
X190191302Y-131418616D01*
X190191318Y-131418634D01*
X190391365Y-131618681D01*
X190391383Y-131618697D01*
X190617878Y-131788248D01*
X190617886Y-131788253D01*
X190864118Y-131922706D01*
X190913523Y-131972111D01*
X190928375Y-132040384D01*
X190903958Y-132105848D01*
X190848025Y-132147720D01*
X190804387Y-132155538D01*
X166529196Y-132096040D01*
X166462205Y-132076191D01*
X166416580Y-132023275D01*
X166405500Y-131972040D01*
X166405500Y-131632007D01*
X166405499Y-131631991D01*
X166404068Y-131618681D01*
X166394644Y-131531032D01*
X166407048Y-131462276D01*
X166443620Y-131418515D01*
X166515046Y-131365046D01*
X166601296Y-131249831D01*
X166651591Y-131114983D01*
X166658000Y-131055373D01*
X166658000Y-129530001D01*
X178196947Y-129530001D01*
X178217132Y-129812219D01*
X178217133Y-129812226D01*
X178277273Y-130088684D01*
X178277275Y-130088691D01*
X178338666Y-130253288D01*
X178376152Y-130353791D01*
X178376154Y-130353795D01*
X178511746Y-130602113D01*
X178511751Y-130602121D01*
X178681302Y-130828616D01*
X178681318Y-130828634D01*
X178881365Y-131028681D01*
X178881383Y-131028697D01*
X179107878Y-131198248D01*
X179107886Y-131198253D01*
X179356204Y-131333845D01*
X179356208Y-131333847D01*
X179356210Y-131333848D01*
X179621309Y-131432725D01*
X179897782Y-131492868D01*
X180158259Y-131511498D01*
X180179999Y-131513053D01*
X180180000Y-131513053D01*
X180180001Y-131513053D01*
X180200186Y-131511609D01*
X180462218Y-131492868D01*
X180738691Y-131432725D01*
X181003790Y-131333848D01*
X181252119Y-131198250D01*
X181478624Y-131028691D01*
X181678691Y-130828624D01*
X181848250Y-130602119D01*
X181983848Y-130353790D01*
X182082725Y-130088691D01*
X182142868Y-129812218D01*
X182163053Y-129530000D01*
X182142868Y-129247782D01*
X182082725Y-128971309D01*
X181983848Y-128706210D01*
X181937493Y-128621318D01*
X181848253Y-128457886D01*
X181848248Y-128457878D01*
X181678697Y-128231383D01*
X181678681Y-128231365D01*
X181478634Y-128031318D01*
X181478616Y-128031302D01*
X181252121Y-127861751D01*
X181252113Y-127861746D01*
X181003795Y-127726154D01*
X181003791Y-127726152D01*
X180903288Y-127688666D01*
X180738691Y-127627275D01*
X180738687Y-127627274D01*
X180738684Y-127627273D01*
X180462226Y-127567133D01*
X180462219Y-127567132D01*
X180180001Y-127546947D01*
X180179999Y-127546947D01*
X179897780Y-127567132D01*
X179897773Y-127567133D01*
X179621315Y-127627273D01*
X179621310Y-127627274D01*
X179621309Y-127627275D01*
X179589699Y-127639065D01*
X179356208Y-127726152D01*
X179356204Y-127726154D01*
X179107886Y-127861746D01*
X179107878Y-127861751D01*
X178881383Y-128031302D01*
X178881365Y-128031318D01*
X178681318Y-128231365D01*
X178681302Y-128231383D01*
X178511751Y-128457878D01*
X178511746Y-128457886D01*
X178376154Y-128706204D01*
X178376152Y-128706208D01*
X178277273Y-128971315D01*
X178217133Y-129247773D01*
X178217132Y-129247780D01*
X178196947Y-129529998D01*
X178196947Y-129530001D01*
X166658000Y-129530001D01*
X166657999Y-128004628D01*
X166651591Y-127945017D01*
X166620534Y-127861750D01*
X166601297Y-127810171D01*
X166601293Y-127810164D01*
X166515047Y-127694955D01*
X166515044Y-127694952D01*
X166440389Y-127639065D01*
X166398518Y-127583131D01*
X166391962Y-127522156D01*
X166405500Y-127428000D01*
X166405500Y-119361182D01*
X166397976Y-119274289D01*
X166390648Y-119232293D01*
X166368298Y-119147985D01*
X166300799Y-119020920D01*
X166260051Y-118965163D01*
X166259596Y-118964532D01*
X166159008Y-118861607D01*
X166159007Y-118861606D01*
X163454054Y-116787808D01*
X163412828Y-116731397D01*
X163405500Y-116689401D01*
X163405500Y-104401572D01*
X163405456Y-104394999D01*
X163405456Y-104394965D01*
X163405413Y-104391703D01*
X163405282Y-104385068D01*
X163306575Y-100634215D01*
X163303873Y-100593656D01*
X163301750Y-100573843D01*
X163295797Y-100533631D01*
X163249176Y-100397513D01*
X163217360Y-100335308D01*
X163217358Y-100335305D01*
X163217357Y-100335303D01*
X163134282Y-100217843D01*
X163134273Y-100217832D01*
X162657697Y-99714780D01*
X162625881Y-99652575D01*
X162632746Y-99583043D01*
X162676114Y-99528261D01*
X162742214Y-99505622D01*
X162747715Y-99505500D01*
X164767187Y-99505500D01*
X164806254Y-99503988D01*
X164806288Y-99503985D01*
X164807613Y-99503934D01*
X164830060Y-99505104D01*
X164832813Y-99505500D01*
X164832819Y-99505500D01*
X165467190Y-99505500D01*
X165506257Y-99503988D01*
X165506291Y-99503985D01*
X165507616Y-99503934D01*
X165530063Y-99505104D01*
X165532816Y-99505500D01*
X165532822Y-99505500D01*
X177243954Y-99505500D01*
X177257453Y-99505098D01*
X177273988Y-99504607D01*
X177273995Y-99504606D01*
X177275830Y-99504552D01*
X177275844Y-99505047D01*
X177342033Y-99520241D01*
X177390870Y-99570208D01*
X177404940Y-99638646D01*
X177379776Y-99703827D01*
X177369046Y-99716067D01*
X173617181Y-103467933D01*
X173555858Y-103501418D01*
X173486166Y-103496434D01*
X173430233Y-103454562D01*
X173405816Y-103389098D01*
X173405500Y-103380252D01*
X173405500Y-100724010D01*
X173405500Y-100724000D01*
X173393947Y-100616544D01*
X173382741Y-100565033D01*
X173372290Y-100533632D01*
X173348616Y-100462502D01*
X173348613Y-100462496D01*
X173270828Y-100341462D01*
X173270825Y-100341457D01*
X173265493Y-100335303D01*
X173225076Y-100288659D01*
X173225072Y-100288656D01*
X173225070Y-100288653D01*
X173116336Y-100194433D01*
X173116333Y-100194431D01*
X173116331Y-100194430D01*
X172985465Y-100134664D01*
X172985460Y-100134662D01*
X172985459Y-100134662D01*
X172918420Y-100114977D01*
X172918422Y-100114977D01*
X172918417Y-100114976D01*
X172856347Y-100106052D01*
X172776000Y-100094500D01*
X166624000Y-100094500D01*
X166623991Y-100094500D01*
X166623990Y-100094501D01*
X166516549Y-100106052D01*
X166516537Y-100106054D01*
X166465027Y-100117260D01*
X166362502Y-100151383D01*
X166362496Y-100151386D01*
X166241462Y-100229171D01*
X166241451Y-100229179D01*
X166188659Y-100274923D01*
X166094433Y-100383664D01*
X166094430Y-100383668D01*
X166034664Y-100514534D01*
X166014976Y-100581582D01*
X166009949Y-100616549D01*
X165994500Y-100724000D01*
X165994500Y-106476000D01*
X165994501Y-106476009D01*
X166006052Y-106583450D01*
X166006054Y-106583462D01*
X166017260Y-106634972D01*
X166051383Y-106737497D01*
X166051386Y-106737503D01*
X166110363Y-106829272D01*
X166130048Y-106896312D01*
X166110364Y-106963351D01*
X166099762Y-106977513D01*
X166094435Y-106983659D01*
X166094433Y-106983663D01*
X166034663Y-107114537D01*
X166014976Y-107181582D01*
X166002442Y-107268762D01*
X165994500Y-107324000D01*
X165994500Y-113076000D01*
X165994501Y-113076009D01*
X166006052Y-113183450D01*
X166006054Y-113183462D01*
X166017260Y-113234972D01*
X166051383Y-113337497D01*
X166051386Y-113337503D01*
X166129171Y-113458537D01*
X166129179Y-113458548D01*
X166174923Y-113511340D01*
X166174926Y-113511343D01*
X166174930Y-113511347D01*
X166283664Y-113605567D01*
X166414541Y-113665338D01*
X166481580Y-113685023D01*
X166481584Y-113685024D01*
X166624000Y-113705500D01*
X172155433Y-113705500D01*
X172222472Y-113725185D01*
X172268227Y-113777989D01*
X172278171Y-113847147D01*
X172249146Y-113910703D01*
X172232895Y-113926328D01*
X168336265Y-117043630D01*
X168320805Y-117054188D01*
X168242335Y-117099494D01*
X168144493Y-117197337D01*
X168144492Y-117197338D01*
X168075313Y-117317161D01*
X168075312Y-117317162D01*
X168060460Y-117372594D01*
X168024095Y-117432254D01*
X167961248Y-117462783D01*
X167940685Y-117464500D01*
X167870817Y-117464500D01*
X167737164Y-117500312D01*
X167737161Y-117500313D01*
X167617338Y-117569492D01*
X167617333Y-117569496D01*
X167519496Y-117667333D01*
X167519492Y-117667338D01*
X167450313Y-117787161D01*
X167450312Y-117787164D01*
X167414500Y-117920817D01*
X167414500Y-117934692D01*
X167394815Y-118001731D01*
X167375000Y-118025443D01*
X167309755Y-118086193D01*
X167309754Y-118086195D01*
X167236340Y-118209938D01*
X167236336Y-118209946D01*
X167232974Y-118218064D01*
X167214976Y-118269081D01*
X167194500Y-118411501D01*
X167194500Y-119988505D01*
X167197392Y-120042507D01*
X167197394Y-120042518D01*
X167224076Y-120147074D01*
X167232971Y-120181928D01*
X167236339Y-120190060D01*
X167288151Y-120284947D01*
X167386198Y-120390248D01*
X167509940Y-120463661D01*
X167518072Y-120467029D01*
X167569084Y-120485024D01*
X167711500Y-120505500D01*
X167711503Y-120505500D01*
X170509181Y-120505500D01*
X170509183Y-120505500D01*
X170512080Y-120504723D01*
X170544168Y-120500500D01*
X170795855Y-120500500D01*
X170813501Y-120501762D01*
X170839500Y-120505500D01*
X170839503Y-120505500D01*
X172075990Y-120505500D01*
X172076000Y-120505500D01*
X172115911Y-120501209D01*
X172129148Y-120500500D01*
X172249181Y-120500500D01*
X172249183Y-120500500D01*
X172382836Y-120464688D01*
X172502665Y-120395505D01*
X172600505Y-120297665D01*
X172669688Y-120177836D01*
X172705500Y-120044183D01*
X172705500Y-118694156D01*
X172725185Y-118627117D01*
X172749947Y-118599038D01*
X173205450Y-118218072D01*
X177980530Y-114224369D01*
X178033401Y-114173165D01*
X178057377Y-114146295D01*
X178102246Y-114087964D01*
X178163534Y-113957790D01*
X178183790Y-113891657D01*
X178183995Y-113891003D01*
X178206127Y-113748829D01*
X178206127Y-113748823D01*
X178206129Y-113748813D01*
X178282277Y-107200003D01*
X185694435Y-107200003D01*
X185714630Y-107379249D01*
X185714631Y-107379254D01*
X185774211Y-107549523D01*
X185801090Y-107592300D01*
X185870184Y-107702262D01*
X185997738Y-107829816D01*
X186150478Y-107925789D01*
X186320745Y-107985368D01*
X186320750Y-107985369D01*
X186499996Y-108005565D01*
X186500000Y-108005565D01*
X186500004Y-108005565D01*
X186679249Y-107985369D01*
X186679252Y-107985368D01*
X186679255Y-107985368D01*
X186849522Y-107925789D01*
X187002262Y-107829816D01*
X187129816Y-107702262D01*
X187225789Y-107549522D01*
X187285368Y-107379255D01*
X187291594Y-107324000D01*
X187305565Y-107200003D01*
X187305565Y-107199996D01*
X187285369Y-107020750D01*
X187285366Y-107020737D01*
X187239953Y-106890955D01*
X187236391Y-106821176D01*
X187239953Y-106809045D01*
X187243117Y-106800003D01*
X197394435Y-106800003D01*
X197414630Y-106979249D01*
X197414633Y-106979262D01*
X197474209Y-107149518D01*
X197474213Y-107149527D01*
X197506885Y-107201525D01*
X197525885Y-107268762D01*
X197518935Y-107308444D01*
X197514631Y-107320744D01*
X197514631Y-107320746D01*
X197494435Y-107499996D01*
X197494435Y-107500003D01*
X197514630Y-107679249D01*
X197514631Y-107679254D01*
X197574211Y-107849523D01*
X197659569Y-107985368D01*
X197670184Y-108002262D01*
X197797738Y-108129816D01*
X197950478Y-108225789D01*
X198120745Y-108285368D01*
X198120750Y-108285369D01*
X198299996Y-108305565D01*
X198300000Y-108305565D01*
X198300004Y-108305565D01*
X198479249Y-108285369D01*
X198479252Y-108285368D01*
X198479255Y-108285368D01*
X198649522Y-108225789D01*
X198802262Y-108129816D01*
X198929816Y-108002262D01*
X199025789Y-107849522D01*
X199085368Y-107679255D01*
X199087907Y-107656712D01*
X199114973Y-107592300D01*
X199170174Y-107553553D01*
X199249522Y-107525789D01*
X199402262Y-107429816D01*
X199529816Y-107302262D01*
X199625789Y-107149522D01*
X199685368Y-106979255D01*
X199685369Y-106979249D01*
X199705565Y-106800003D01*
X199705565Y-106799996D01*
X199685369Y-106620750D01*
X199685368Y-106620745D01*
X199672318Y-106583450D01*
X199625789Y-106450478D01*
X199529816Y-106297738D01*
X199402262Y-106170184D01*
X199370897Y-106150476D01*
X199249523Y-106074211D01*
X199079254Y-106014631D01*
X199079249Y-106014630D01*
X198900004Y-105994435D01*
X198899996Y-105994435D01*
X198720750Y-106014630D01*
X198720742Y-106014632D01*
X198590954Y-106060047D01*
X198521175Y-106063608D01*
X198509046Y-106060047D01*
X198379257Y-106014632D01*
X198379249Y-106014630D01*
X198200004Y-105994435D01*
X198199996Y-105994435D01*
X198020750Y-106014630D01*
X198020745Y-106014631D01*
X197850476Y-106074211D01*
X197697737Y-106170184D01*
X197570184Y-106297737D01*
X197474211Y-106450476D01*
X197414631Y-106620745D01*
X197414630Y-106620750D01*
X197394435Y-106799996D01*
X197394435Y-106800003D01*
X187243117Y-106800003D01*
X187285366Y-106679262D01*
X187285369Y-106679249D01*
X187305565Y-106500003D01*
X187305565Y-106499996D01*
X187285369Y-106320750D01*
X187285368Y-106320745D01*
X187225789Y-106150478D01*
X187129816Y-105997738D01*
X187002262Y-105870184D01*
X186849523Y-105774211D01*
X186679254Y-105714631D01*
X186679249Y-105714630D01*
X186500004Y-105694435D01*
X186499996Y-105694435D01*
X186320750Y-105714630D01*
X186320745Y-105714631D01*
X186150476Y-105774211D01*
X185997737Y-105870184D01*
X185870184Y-105997737D01*
X185774211Y-106150476D01*
X185714631Y-106320745D01*
X185714630Y-106320750D01*
X185694435Y-106499996D01*
X185694435Y-106500003D01*
X185714630Y-106679249D01*
X185714632Y-106679257D01*
X185760047Y-106809046D01*
X185763608Y-106878825D01*
X185760047Y-106890954D01*
X185714632Y-107020742D01*
X185714630Y-107020750D01*
X185694435Y-107199996D01*
X185694435Y-107200003D01*
X178282277Y-107200003D01*
X178302690Y-105444467D01*
X178323153Y-105377663D01*
X178334795Y-105362649D01*
X182656701Y-100593652D01*
X183787176Y-99346232D01*
X183846780Y-99309775D01*
X183879058Y-99305500D01*
X188945218Y-99305500D01*
X188945228Y-99305500D01*
X189010924Y-99301213D01*
X189010939Y-99301211D01*
X189010940Y-99301211D01*
X189042857Y-99297028D01*
X189042870Y-99297025D01*
X189042883Y-99297024D01*
X189107473Y-99284233D01*
X189239800Y-99227742D01*
X189299501Y-99191444D01*
X189410552Y-99099962D01*
X190139404Y-98300003D01*
X191894435Y-98300003D01*
X191914630Y-98479249D01*
X191914631Y-98479254D01*
X191974211Y-98649523D01*
X192070184Y-98802262D01*
X192197738Y-98929816D01*
X192350478Y-99025789D01*
X192520739Y-99085366D01*
X192520745Y-99085368D01*
X192520750Y-99085369D01*
X192699996Y-99105565D01*
X192700000Y-99105565D01*
X192700004Y-99105565D01*
X192879249Y-99085369D01*
X192879251Y-99085368D01*
X192879255Y-99085368D01*
X192879258Y-99085366D01*
X192879262Y-99085366D01*
X193009045Y-99039953D01*
X193078824Y-99036391D01*
X193090955Y-99039953D01*
X193220737Y-99085366D01*
X193220743Y-99085367D01*
X193220745Y-99085368D01*
X193220746Y-99085368D01*
X193220750Y-99085369D01*
X193399996Y-99105565D01*
X193400000Y-99105565D01*
X193400004Y-99105565D01*
X193579249Y-99085369D01*
X193579252Y-99085368D01*
X193579255Y-99085368D01*
X193749522Y-99025789D01*
X193902262Y-98929816D01*
X194029816Y-98802262D01*
X194125789Y-98649522D01*
X194185368Y-98479255D01*
X194205565Y-98300000D01*
X194185368Y-98120745D01*
X194185367Y-98120743D01*
X194185366Y-98120737D01*
X194139952Y-97990953D01*
X194136390Y-97921174D01*
X194139949Y-97909051D01*
X194165519Y-97835975D01*
X194185367Y-97779256D01*
X194185369Y-97779246D01*
X194205565Y-97600000D01*
X194205565Y-97599993D01*
X194185369Y-97420747D01*
X194185368Y-97420742D01*
X194125788Y-97250473D01*
X194029815Y-97097734D01*
X193902262Y-96970181D01*
X193749523Y-96874208D01*
X193579254Y-96814628D01*
X193579249Y-96814627D01*
X193400004Y-96794432D01*
X193399996Y-96794432D01*
X193220750Y-96814627D01*
X193220745Y-96814628D01*
X193050476Y-96874208D01*
X192897737Y-96970181D01*
X192770184Y-97097734D01*
X192674210Y-97250475D01*
X192614629Y-97420749D01*
X192614517Y-97421244D01*
X192614356Y-97421530D01*
X192612333Y-97427314D01*
X192611318Y-97426959D01*
X192580398Y-97482217D01*
X192526983Y-97511379D01*
X192527317Y-97512333D01*
X192521525Y-97514359D01*
X192521228Y-97514522D01*
X192520747Y-97514631D01*
X192350478Y-97574210D01*
X192197737Y-97670184D01*
X192070184Y-97797737D01*
X191974211Y-97950476D01*
X191914631Y-98120745D01*
X191914630Y-98120750D01*
X191894435Y-98299996D01*
X191894435Y-98300003D01*
X190139404Y-98300003D01*
X193441324Y-94675944D01*
X193468535Y-94643439D01*
X193481190Y-94626965D01*
X193505567Y-94592318D01*
X193565338Y-94461441D01*
X193585023Y-94394402D01*
X193585024Y-94394398D01*
X193605500Y-94251982D01*
X193605500Y-86884812D01*
X193625185Y-86817773D01*
X193677989Y-86772018D01*
X193747147Y-86762074D01*
X193770456Y-86767771D01*
X193820740Y-86785367D01*
X193820750Y-86785369D01*
X193999996Y-86805565D01*
X194000000Y-86805565D01*
X194000004Y-86805565D01*
X194179249Y-86785369D01*
X194179252Y-86785368D01*
X194179255Y-86785368D01*
X194349522Y-86725789D01*
X194484029Y-86641272D01*
X194551264Y-86622272D01*
X194615970Y-86641272D01*
X194680720Y-86681957D01*
X194750475Y-86725788D01*
X194920745Y-86785368D01*
X194920750Y-86785369D01*
X195099996Y-86805565D01*
X195100000Y-86805565D01*
X195100004Y-86805565D01*
X195279249Y-86785369D01*
X195279252Y-86785368D01*
X195279255Y-86785368D01*
X195449522Y-86725789D01*
X195602262Y-86629816D01*
X195729816Y-86502262D01*
X195825789Y-86349522D01*
X195885368Y-86179255D01*
X195905565Y-86000000D01*
X195885368Y-85820745D01*
X195825789Y-85650478D01*
X195729816Y-85497738D01*
X195602262Y-85370184D01*
X195584028Y-85358727D01*
X195449523Y-85274211D01*
X195279254Y-85214631D01*
X195279249Y-85214630D01*
X195100004Y-85194435D01*
X195099996Y-85194435D01*
X194920750Y-85214630D01*
X194920745Y-85214631D01*
X194750476Y-85274211D01*
X194615972Y-85358727D01*
X194548736Y-85377727D01*
X194484028Y-85358727D01*
X194349523Y-85274211D01*
X194179254Y-85214631D01*
X194179249Y-85214630D01*
X194000004Y-85194435D01*
X193999996Y-85194435D01*
X193820750Y-85214630D01*
X193820742Y-85214632D01*
X193770454Y-85232229D01*
X193700675Y-85235790D01*
X193640048Y-85201061D01*
X193607821Y-85139068D01*
X193605500Y-85115187D01*
X193605500Y-72023346D01*
X193604554Y-72014435D01*
X193594230Y-71917197D01*
X193583295Y-71866283D01*
X193549988Y-71764873D01*
X193472841Y-71643423D01*
X193435825Y-71600245D01*
X193427369Y-71590381D01*
X193427366Y-71590378D01*
X193319133Y-71495586D01*
X193188575Y-71435124D01*
X193188576Y-71435124D01*
X193168692Y-71429171D01*
X193121640Y-71415084D01*
X193121630Y-71415081D01*
X193121516Y-71415065D01*
X192979325Y-71393853D01*
X192979327Y-71393853D01*
X182377653Y-71337760D01*
X182377650Y-71337760D01*
X182377637Y-71337760D01*
X182340220Y-71338948D01*
X182321922Y-71340208D01*
X182284740Y-71344156D01*
X182284738Y-71344157D01*
X182146687Y-71384690D01*
X182146681Y-71384692D01*
X182089149Y-71410966D01*
X182087587Y-71411581D01*
X182083126Y-71413716D01*
X181962087Y-71491503D01*
X181962085Y-71491504D01*
X181867863Y-71600241D01*
X181867860Y-71600245D01*
X181831302Y-71657131D01*
X181830188Y-71658797D01*
X181779510Y-71769766D01*
X181733755Y-71822570D01*
X181666715Y-71842254D01*
X181666090Y-71842252D01*
X177067890Y-71819029D01*
X177000951Y-71799007D01*
X176955463Y-71745972D01*
X176949358Y-71729345D01*
X176934277Y-71676959D01*
X176934276Y-71676958D01*
X176934276Y-71676956D01*
X176857135Y-71555516D01*
X176857128Y-71555507D01*
X176811658Y-71502467D01*
X176811655Y-71502464D01*
X176703422Y-71407672D01*
X176572864Y-71347210D01*
X176572865Y-71347210D01*
X176572862Y-71347209D01*
X176505929Y-71327170D01*
X176505928Y-71327170D01*
X176505918Y-71327167D01*
X176505806Y-71327151D01*
X176363615Y-71305939D01*
X174203167Y-71294508D01*
X174203167Y-71294509D01*
X174202114Y-71294504D01*
X174201919Y-71294504D01*
X174201895Y-71294503D01*
X174201371Y-71294501D01*
X174199773Y-71294500D01*
X174199722Y-71294500D01*
X173424000Y-71294500D01*
X173423991Y-71294500D01*
X173423990Y-71294501D01*
X173316549Y-71306052D01*
X173316537Y-71306054D01*
X173265027Y-71317260D01*
X173162502Y-71351383D01*
X173162496Y-71351386D01*
X173041462Y-71429171D01*
X173041451Y-71429179D01*
X172988659Y-71474923D01*
X172894433Y-71583664D01*
X172894430Y-71583668D01*
X172834664Y-71714534D01*
X172814976Y-71781582D01*
X172794500Y-71924001D01*
X172794500Y-71966679D01*
X172774815Y-72033718D01*
X172722011Y-72079473D01*
X172652853Y-72089417D01*
X172629546Y-72083721D01*
X172489257Y-72034632D01*
X172489249Y-72034630D01*
X172310004Y-72014435D01*
X172309996Y-72014435D01*
X172130750Y-72034630D01*
X172130745Y-72034631D01*
X171960476Y-72094211D01*
X171807737Y-72190184D01*
X171680184Y-72317737D01*
X171584211Y-72470476D01*
X171524631Y-72640745D01*
X171524630Y-72640750D01*
X171504435Y-72819996D01*
X171504435Y-72820004D01*
X171521500Y-72971468D01*
X171509445Y-73040290D01*
X171462096Y-73091669D01*
X171460283Y-73092737D01*
X171431284Y-73109480D01*
X171431281Y-73109482D01*
X171319481Y-73221282D01*
X171319475Y-73221290D01*
X171240426Y-73358209D01*
X171240423Y-73358216D01*
X171199500Y-73510943D01*
X171199500Y-74248085D01*
X171198720Y-74261969D01*
X171194435Y-74299998D01*
X171194435Y-74300001D01*
X171198720Y-74338029D01*
X171199500Y-74351914D01*
X171199500Y-74948085D01*
X171198720Y-74961969D01*
X171194435Y-74999998D01*
X171194435Y-75000001D01*
X171198720Y-75038029D01*
X171199500Y-75051914D01*
X171199500Y-76079057D01*
X171240423Y-76231784D01*
X171277887Y-76296674D01*
X171294500Y-76358673D01*
X171294500Y-82596494D01*
X171274815Y-82663533D01*
X171222011Y-82709288D01*
X171184385Y-82719714D01*
X171140751Y-82724630D01*
X171140747Y-82724631D01*
X170970478Y-82784210D01*
X170817737Y-82880184D01*
X170690184Y-83007737D01*
X170594211Y-83160476D01*
X170534631Y-83330745D01*
X170534630Y-83330750D01*
X170514435Y-83509996D01*
X170514435Y-83510003D01*
X170534630Y-83689249D01*
X170534631Y-83689254D01*
X170594211Y-83859523D01*
X170690184Y-84012262D01*
X170817738Y-84139816D01*
X170970478Y-84235789D01*
X171140745Y-84295368D01*
X171184383Y-84300284D01*
X171248795Y-84327348D01*
X171288351Y-84384942D01*
X171294500Y-84423504D01*
X171294500Y-84770500D01*
X171274815Y-84837539D01*
X171222011Y-84883294D01*
X171170500Y-84894500D01*
X162708381Y-84894500D01*
X162641342Y-84874815D01*
X162595587Y-84822011D01*
X162585643Y-84752853D01*
X162610763Y-84694037D01*
X162616033Y-84687307D01*
X162616046Y-84687291D01*
X164134200Y-82579313D01*
X164148815Y-82562460D01*
X166500000Y-80300000D01*
X166514714Y-78651933D01*
X166534996Y-78585075D01*
X166588207Y-78539793D01*
X166657451Y-78530468D01*
X166679664Y-78536002D01*
X166820737Y-78585366D01*
X166820743Y-78585367D01*
X166820745Y-78585368D01*
X166820746Y-78585368D01*
X166820750Y-78585369D01*
X166999996Y-78605565D01*
X167000000Y-78605565D01*
X167000004Y-78605565D01*
X167179249Y-78585369D01*
X167179252Y-78585368D01*
X167179255Y-78585368D01*
X167349522Y-78525789D01*
X167502262Y-78429816D01*
X167629816Y-78302262D01*
X167725789Y-78149522D01*
X167785368Y-77979255D01*
X167805565Y-77800000D01*
X167785368Y-77620745D01*
X167725789Y-77450478D01*
X167629816Y-77297738D01*
X167502262Y-77170184D01*
X167457904Y-77142312D01*
X167349523Y-77074211D01*
X167179254Y-77014631D01*
X167179249Y-77014630D01*
X167000004Y-76994435D01*
X166999996Y-76994435D01*
X166820750Y-77014630D01*
X166820742Y-77014632D01*
X166694944Y-77058651D01*
X166625166Y-77062212D01*
X166564538Y-77027483D01*
X166532311Y-76965490D01*
X166529995Y-76940507D01*
X166600000Y-69100000D01*
X166475912Y-68948337D01*
X166103653Y-68493353D01*
X166076436Y-68429003D01*
X166087688Y-68361480D01*
X166144252Y-68242809D01*
X166180985Y-68136810D01*
X166193050Y-68083458D01*
X166205500Y-67971960D01*
X166205500Y-65391999D01*
X166193947Y-65284545D01*
X166182741Y-65233033D01*
X166182587Y-65232570D01*
X166148612Y-65130491D01*
X166148611Y-65130489D01*
X166070824Y-65009454D01*
X166070823Y-65009453D01*
X166070822Y-65009451D01*
X166025067Y-64956648D01*
X165916338Y-64862434D01*
X165785461Y-64802662D01*
X165785459Y-64802661D01*
X165785454Y-64802659D01*
X165781306Y-64801112D01*
X165782021Y-64799194D01*
X165730284Y-64765943D01*
X165701262Y-64702386D01*
X165700000Y-64684743D01*
X165700000Y-63835001D01*
X190016947Y-63835001D01*
X190037132Y-64117219D01*
X190037133Y-64117226D01*
X190097273Y-64393684D01*
X190097275Y-64393691D01*
X190158666Y-64558288D01*
X190196152Y-64658791D01*
X190196154Y-64658795D01*
X190331746Y-64907113D01*
X190331751Y-64907121D01*
X190501302Y-65133616D01*
X190501318Y-65133634D01*
X190701365Y-65333681D01*
X190701383Y-65333697D01*
X190927878Y-65503248D01*
X190927886Y-65503253D01*
X191176204Y-65638845D01*
X191176208Y-65638847D01*
X191176210Y-65638848D01*
X191441309Y-65737725D01*
X191717782Y-65797868D01*
X191978259Y-65816498D01*
X191999999Y-65818053D01*
X192000000Y-65818053D01*
X192000001Y-65818053D01*
X192020186Y-65816609D01*
X192282218Y-65797868D01*
X192558691Y-65737725D01*
X192823790Y-65638848D01*
X193072119Y-65503250D01*
X193298624Y-65333691D01*
X193498691Y-65133624D01*
X193668250Y-64907119D01*
X193803848Y-64658790D01*
X193902725Y-64393691D01*
X193962868Y-64117218D01*
X193983053Y-63835000D01*
X193962868Y-63552782D01*
X193902725Y-63276309D01*
X193803848Y-63011210D01*
X193668250Y-62762881D01*
X193668248Y-62762878D01*
X193498697Y-62536383D01*
X193498681Y-62536365D01*
X193298634Y-62336318D01*
X193298616Y-62336302D01*
X193072121Y-62166751D01*
X193072113Y-62166746D01*
X192823795Y-62031154D01*
X192823791Y-62031152D01*
X192716208Y-61991026D01*
X192558691Y-61932275D01*
X192558687Y-61932274D01*
X192558684Y-61932273D01*
X192282226Y-61872133D01*
X192282219Y-61872132D01*
X192000001Y-61851947D01*
X191999999Y-61851947D01*
X191717780Y-61872132D01*
X191717773Y-61872133D01*
X191441315Y-61932273D01*
X191441310Y-61932274D01*
X191441309Y-61932275D01*
X191416268Y-61941615D01*
X191176208Y-62031152D01*
X191176204Y-62031154D01*
X190927886Y-62166746D01*
X190927878Y-62166751D01*
X190701383Y-62336302D01*
X190701365Y-62336318D01*
X190501318Y-62536365D01*
X190501302Y-62536383D01*
X190331751Y-62762878D01*
X190331746Y-62762886D01*
X190196154Y-63011204D01*
X190196152Y-63011208D01*
X190097273Y-63276315D01*
X190037133Y-63552773D01*
X190037132Y-63552780D01*
X190016947Y-63834998D01*
X190016947Y-63835001D01*
X165700000Y-63835001D01*
X165700000Y-61895795D01*
X165719685Y-61828756D01*
X165772489Y-61783001D01*
X165784828Y-61778145D01*
X165837504Y-61760613D01*
X165958543Y-61682825D01*
X166002475Y-61644757D01*
X166066027Y-61615733D01*
X166083330Y-61614471D01*
X206030160Y-61507165D01*
X206097250Y-61526670D01*
G37*
%TD.AperFunction*%
%TD*%
%TA.AperFunction,Conductor*%
%TO.N,GND_SEPIC*%
G36*
X164352523Y-98114368D02*
G01*
X164355891Y-98122500D01*
X164355774Y-98124137D01*
X164344867Y-98200000D01*
X164363302Y-98328223D01*
X164417118Y-98446063D01*
X164417118Y-98446064D01*
X164501950Y-98543966D01*
X164501951Y-98543967D01*
X164610931Y-98614004D01*
X164700000Y-98640156D01*
X164700000Y-98900000D01*
X163600000Y-98900000D01*
X163600000Y-98111000D01*
X164344391Y-98111000D01*
X164352523Y-98114368D01*
G37*
%TD.AperFunction*%
%TD*%
%TA.AperFunction,Conductor*%
%TO.N,G_G_GND*%
G36*
X168450173Y-118403368D02*
G01*
X168465587Y-118418782D01*
X168530091Y-118445500D01*
X168599909Y-118445500D01*
X169923000Y-118445500D01*
X169931132Y-118448868D01*
X169934500Y-118457000D01*
X169934500Y-118648306D01*
X169931132Y-118656438D01*
X169927401Y-118658931D01*
X169858101Y-118687637D01*
X169787637Y-118758101D01*
X169749500Y-118850173D01*
X169749500Y-118949826D01*
X169749499Y-118949826D01*
X169749500Y-118949828D01*
X169787636Y-119041897D01*
X169858103Y-119112364D01*
X169927401Y-119141067D01*
X169933625Y-119147291D01*
X169934500Y-119151692D01*
X169934500Y-119988500D01*
X169931132Y-119996632D01*
X169923000Y-120000000D01*
X167711500Y-120000000D01*
X167703368Y-119996632D01*
X167700000Y-119988500D01*
X167700000Y-118411500D01*
X167703368Y-118403368D01*
X167711500Y-118400000D01*
X168442041Y-118400000D01*
X168450173Y-118403368D01*
G37*
%TD.AperFunction*%
%TD*%
%TA.AperFunction,Conductor*%
%TO.N,GND_LOGIC*%
G36*
X166200000Y-97044443D02*
G01*
X166200000Y-97657500D01*
X166196632Y-97665632D01*
X166188500Y-97669000D01*
X165062000Y-97669000D01*
X165053868Y-97665632D01*
X165050500Y-97657500D01*
X165050500Y-97450173D01*
X165050500Y-97450172D01*
X165012364Y-97358103D01*
X164941897Y-97287636D01*
X164849828Y-97249500D01*
X164750172Y-97249500D01*
X164658103Y-97287636D01*
X164658101Y-97287637D01*
X164587635Y-97358103D01*
X164580807Y-97374586D01*
X164574584Y-97380808D01*
X164558105Y-97387634D01*
X164280108Y-97665632D01*
X164271976Y-97669000D01*
X163700000Y-97669000D01*
X163700000Y-96600000D01*
X166200000Y-96600000D01*
X166200000Y-97044443D01*
G37*
%TD.AperFunction*%
%TD*%
%TA.AperFunction,Conductor*%
%TO.N,GND_SEPIC*%
G36*
X174200378Y-71800002D02*
G01*
X176360946Y-71811433D01*
X176427879Y-71831472D01*
X176473354Y-71884517D01*
X176482932Y-71953727D01*
X176453571Y-72017128D01*
X176441492Y-72029143D01*
X176388659Y-72074922D01*
X176294433Y-72183664D01*
X176294430Y-72183668D01*
X176234664Y-72314534D01*
X176214976Y-72381582D01*
X176209949Y-72416549D01*
X176194500Y-72524000D01*
X176194500Y-75976000D01*
X176194501Y-75976009D01*
X176206052Y-76083450D01*
X176206054Y-76083462D01*
X176217260Y-76134972D01*
X176251383Y-76237497D01*
X176251386Y-76237503D01*
X176280433Y-76282700D01*
X176300118Y-76349740D01*
X176288912Y-76401252D01*
X176234664Y-76520034D01*
X176214976Y-76587082D01*
X176209949Y-76622049D01*
X176194500Y-76729500D01*
X176194500Y-79576000D01*
X176194501Y-79576009D01*
X176206052Y-79683450D01*
X176206054Y-79683462D01*
X176217260Y-79734972D01*
X176251383Y-79837497D01*
X176251386Y-79837503D01*
X176329171Y-79958537D01*
X176329179Y-79958548D01*
X176374923Y-80011340D01*
X176374926Y-80011343D01*
X176374930Y-80011347D01*
X176483664Y-80105567D01*
X176483667Y-80105568D01*
X176483668Y-80105569D01*
X176577925Y-80148616D01*
X176614541Y-80165338D01*
X176681580Y-80185023D01*
X176681584Y-80185024D01*
X176824000Y-80205500D01*
X176824003Y-80205500D01*
X181875990Y-80205500D01*
X181876000Y-80205500D01*
X181983456Y-80193947D01*
X182034967Y-80182741D01*
X182069197Y-80171347D01*
X182137497Y-80148616D01*
X182137501Y-80148613D01*
X182137504Y-80148613D01*
X182258543Y-80070825D01*
X182311347Y-80025070D01*
X182405567Y-79916336D01*
X182465338Y-79785459D01*
X182485023Y-79718420D01*
X182485024Y-79718416D01*
X182505500Y-79576000D01*
X182505500Y-76729500D01*
X182493947Y-76622044D01*
X182482741Y-76570533D01*
X182482637Y-76570222D01*
X182448616Y-76468002D01*
X182448613Y-76467997D01*
X182448613Y-76467996D01*
X182419565Y-76422797D01*
X182399881Y-76355760D01*
X182411087Y-76304248D01*
X182465338Y-76185459D01*
X182485023Y-76118420D01*
X182485024Y-76118416D01*
X182505500Y-75976000D01*
X182505500Y-72524000D01*
X182493947Y-72416544D01*
X182482741Y-72365033D01*
X182474123Y-72339139D01*
X182448616Y-72262502D01*
X182448613Y-72262496D01*
X182370828Y-72141462D01*
X182370825Y-72141457D01*
X182370820Y-72141451D01*
X182325076Y-72088659D01*
X182325072Y-72088656D01*
X182325070Y-72088653D01*
X182293113Y-72060961D01*
X182255341Y-72002185D01*
X182255341Y-71932315D01*
X182293116Y-71873537D01*
X182356672Y-71844513D01*
X182374962Y-71843253D01*
X192976657Y-71899347D01*
X193043590Y-71919386D01*
X193089065Y-71972431D01*
X193100000Y-72023345D01*
X193100000Y-94251982D01*
X193080315Y-94319021D01*
X193067660Y-94335495D01*
X189036888Y-98759513D01*
X188977187Y-98795811D01*
X188945228Y-98800000D01*
X183600000Y-98800000D01*
X177799999Y-105199999D01*
X177700663Y-113742936D01*
X177680200Y-113809742D01*
X177656224Y-113836612D01*
X172200000Y-118400000D01*
X172200000Y-119876000D01*
X172180315Y-119943039D01*
X172127511Y-119988794D01*
X172076000Y-120000000D01*
X170839500Y-120000000D01*
X170772461Y-119980315D01*
X170726706Y-119927511D01*
X170715500Y-119876000D01*
X170715500Y-117935201D01*
X170715500Y-117935200D01*
X170673557Y-117833942D01*
X170596058Y-117756443D01*
X170494800Y-117714500D01*
X168660372Y-117714500D01*
X168593333Y-117694815D01*
X168547578Y-117642011D01*
X168537634Y-117572853D01*
X168566659Y-117509297D01*
X168582910Y-117493672D01*
X173200000Y-113800000D01*
X173200000Y-113584414D01*
X173219685Y-113517375D01*
X173230281Y-113503219D01*
X173305567Y-113416336D01*
X173365338Y-113285459D01*
X173385023Y-113218420D01*
X173385024Y-113218416D01*
X173405500Y-113076000D01*
X173405500Y-107324000D01*
X173393947Y-107216544D01*
X173382741Y-107165033D01*
X173382637Y-107164722D01*
X173348616Y-107062502D01*
X173348613Y-107062496D01*
X173289636Y-106970727D01*
X173269951Y-106903688D01*
X173289635Y-106836648D01*
X173300231Y-106822493D01*
X173305567Y-106816336D01*
X173365338Y-106685459D01*
X173385023Y-106618420D01*
X173385024Y-106618416D01*
X173405500Y-106476000D01*
X173405500Y-104445862D01*
X173425185Y-104378823D01*
X173441819Y-104358181D01*
X178800000Y-99000000D01*
X178556052Y-99000000D01*
X178489013Y-98980315D01*
X178443258Y-98927511D01*
X178433314Y-98858353D01*
X178436276Y-98843913D01*
X178436328Y-98843715D01*
X178436328Y-98843713D01*
X178436330Y-98843709D01*
X178455250Y-98700000D01*
X178436330Y-98556291D01*
X178380861Y-98422375D01*
X178292621Y-98307379D01*
X178177625Y-98219139D01*
X178177624Y-98219138D01*
X178177622Y-98219137D01*
X178043712Y-98163671D01*
X178043710Y-98163670D01*
X178043709Y-98163670D01*
X177971854Y-98154210D01*
X177900001Y-98144750D01*
X177899999Y-98144750D01*
X177756291Y-98163670D01*
X177756287Y-98163671D01*
X177622377Y-98219137D01*
X177507379Y-98307379D01*
X177419137Y-98422377D01*
X177363671Y-98556287D01*
X177363670Y-98556291D01*
X177347270Y-98680862D01*
X177344750Y-98700000D01*
X177357915Y-98800000D01*
X177363671Y-98843715D01*
X177363724Y-98843913D01*
X177363719Y-98844086D01*
X177364731Y-98851766D01*
X177363532Y-98851923D01*
X177362058Y-98913763D01*
X177322893Y-98971623D01*
X177258663Y-98999124D01*
X177243948Y-99000000D01*
X165532816Y-99000000D01*
X165502220Y-98991016D01*
X165486296Y-98998519D01*
X165467190Y-99000000D01*
X164832813Y-99000000D01*
X164802217Y-98991016D01*
X164786293Y-98998519D01*
X164767187Y-99000000D01*
X162524000Y-99000000D01*
X162456961Y-98980315D01*
X162411206Y-98927511D01*
X162400000Y-98876000D01*
X162400000Y-98335000D01*
X162419685Y-98267961D01*
X162472489Y-98222206D01*
X162524000Y-98211000D01*
X163600000Y-98211000D01*
X163600000Y-98900000D01*
X164700000Y-98900000D01*
X164700000Y-98742084D01*
X164780066Y-98752625D01*
X164783373Y-98753061D01*
X164795615Y-98758476D01*
X164797878Y-98757023D01*
X164816627Y-98753061D01*
X164819557Y-98752675D01*
X164943709Y-98736330D01*
X165077625Y-98680861D01*
X165077631Y-98680856D01*
X165084664Y-98676797D01*
X165085857Y-98678863D01*
X165139674Y-98658054D01*
X165208120Y-98672087D01*
X165216436Y-98677430D01*
X165222374Y-98680858D01*
X165222378Y-98680861D01*
X165356294Y-98736330D01*
X165480069Y-98752625D01*
X165483376Y-98753061D01*
X165495618Y-98758476D01*
X165497881Y-98757023D01*
X165516630Y-98753061D01*
X165519560Y-98752675D01*
X165643712Y-98736330D01*
X165777628Y-98680861D01*
X165892624Y-98592621D01*
X165980864Y-98477625D01*
X166036333Y-98343709D01*
X166039610Y-98318814D01*
X166067876Y-98254919D01*
X166126200Y-98216447D01*
X166162549Y-98211000D01*
X166259926Y-98211000D01*
X166259927Y-98211000D01*
X166352180Y-98172787D01*
X166352182Y-98172785D01*
X166352183Y-98172785D01*
X166422785Y-98102183D01*
X166422785Y-98102182D01*
X166422787Y-98102180D01*
X166461000Y-98009927D01*
X166461000Y-97536071D01*
X166480685Y-97469032D01*
X166506955Y-97439712D01*
X166570815Y-97387993D01*
X166893220Y-97040000D01*
X167644750Y-97040000D01*
X167663670Y-97183708D01*
X167663671Y-97183712D01*
X167719137Y-97317622D01*
X167719138Y-97317624D01*
X167719139Y-97317625D01*
X167807379Y-97432621D01*
X167922375Y-97520861D01*
X168056291Y-97576330D01*
X168183280Y-97593048D01*
X168199999Y-97595250D01*
X168200000Y-97595250D01*
X168200001Y-97595250D01*
X168214977Y-97593278D01*
X168343709Y-97576330D01*
X168477625Y-97520861D01*
X168592621Y-97432621D01*
X168680861Y-97317625D01*
X168736330Y-97183709D01*
X168747351Y-97100000D01*
X170144750Y-97100000D01*
X170163670Y-97243708D01*
X170163671Y-97243712D01*
X170219137Y-97377622D01*
X170219138Y-97377624D01*
X170219139Y-97377625D01*
X170307379Y-97492621D01*
X170422375Y-97580861D01*
X170556291Y-97636330D01*
X170683280Y-97653048D01*
X170699999Y-97655250D01*
X170700000Y-97655250D01*
X170700001Y-97655250D01*
X170714977Y-97653278D01*
X170843709Y-97636330D01*
X170977625Y-97580861D01*
X171092621Y-97492621D01*
X171180861Y-97377625D01*
X171236330Y-97243709D01*
X171255250Y-97100000D01*
X171236330Y-96956291D01*
X171180861Y-96822375D01*
X171092621Y-96707379D01*
X170977625Y-96619139D01*
X170977624Y-96619138D01*
X170977622Y-96619137D01*
X170843712Y-96563671D01*
X170843710Y-96563670D01*
X170843709Y-96563670D01*
X170771854Y-96554210D01*
X170700001Y-96544750D01*
X170699999Y-96544750D01*
X170556291Y-96563670D01*
X170556287Y-96563671D01*
X170422377Y-96619137D01*
X170307379Y-96707379D01*
X170219137Y-96822377D01*
X170163671Y-96956287D01*
X170163670Y-96956291D01*
X170144750Y-97099999D01*
X170144750Y-97100000D01*
X168747351Y-97100000D01*
X168755250Y-97040000D01*
X168736330Y-96896291D01*
X168680861Y-96762375D01*
X168592621Y-96647379D01*
X168477625Y-96559139D01*
X168477624Y-96559138D01*
X168477622Y-96559137D01*
X168343712Y-96503671D01*
X168343710Y-96503670D01*
X168343709Y-96503670D01*
X168271854Y-96494210D01*
X168200001Y-96484750D01*
X168199999Y-96484750D01*
X168056291Y-96503670D01*
X168056287Y-96503671D01*
X167922377Y-96559137D01*
X167807379Y-96647379D01*
X167719137Y-96762377D01*
X167663671Y-96896287D01*
X167663670Y-96896291D01*
X167644750Y-97039999D01*
X167644750Y-97040000D01*
X166893220Y-97040000D01*
X172137777Y-91379210D01*
X172166554Y-91345266D01*
X172179907Y-91328032D01*
X172205567Y-91291723D01*
X172265338Y-91160846D01*
X172285023Y-91093807D01*
X172285024Y-91093803D01*
X172305500Y-90951387D01*
X172305500Y-90440219D01*
X173863702Y-90440219D01*
X173867935Y-90472375D01*
X173882622Y-90583927D01*
X173882623Y-90583931D01*
X173938089Y-90717841D01*
X173938090Y-90717843D01*
X173938091Y-90717844D01*
X174026331Y-90832840D01*
X174141327Y-90921080D01*
X174275243Y-90976549D01*
X174402232Y-90993267D01*
X174418951Y-90995469D01*
X174418952Y-90995469D01*
X174418953Y-90995469D01*
X174433929Y-90993497D01*
X174562661Y-90976549D01*
X174696577Y-90921080D01*
X174811573Y-90832840D01*
X174875139Y-90750000D01*
X180834750Y-90750000D01*
X180853670Y-90893708D01*
X180853671Y-90893712D01*
X180909137Y-91027622D01*
X180909138Y-91027624D01*
X180909139Y-91027625D01*
X180997379Y-91142621D01*
X181112375Y-91230861D01*
X181246291Y-91286330D01*
X181373280Y-91303048D01*
X181389999Y-91305250D01*
X181390000Y-91305250D01*
X181390001Y-91305250D01*
X181404977Y-91303278D01*
X181533709Y-91286330D01*
X181667625Y-91230861D01*
X181782621Y-91142621D01*
X181870861Y-91027625D01*
X181926330Y-90893709D01*
X181945250Y-90750000D01*
X181926330Y-90606291D01*
X181870861Y-90472375D01*
X181782621Y-90357379D01*
X181667625Y-90269139D01*
X181667624Y-90269138D01*
X181667622Y-90269137D01*
X181533712Y-90213671D01*
X181533710Y-90213670D01*
X181533709Y-90213670D01*
X181461854Y-90204210D01*
X181390001Y-90194750D01*
X181389999Y-90194750D01*
X181246291Y-90213670D01*
X181246287Y-90213671D01*
X181112377Y-90269137D01*
X180997379Y-90357379D01*
X180909137Y-90472377D01*
X180853671Y-90606287D01*
X180853670Y-90606291D01*
X180834750Y-90749999D01*
X180834750Y-90750000D01*
X174875139Y-90750000D01*
X174899813Y-90717844D01*
X174955282Y-90583928D01*
X174974202Y-90440219D01*
X174955282Y-90296510D01*
X174899813Y-90162594D01*
X174811573Y-90047598D01*
X174696577Y-89959358D01*
X174696576Y-89959357D01*
X174696574Y-89959356D01*
X174562664Y-89903890D01*
X174562662Y-89903889D01*
X174562661Y-89903889D01*
X174490806Y-89894429D01*
X174418953Y-89884969D01*
X174418951Y-89884969D01*
X174275243Y-89903889D01*
X174275239Y-89903890D01*
X174141329Y-89959356D01*
X174026331Y-90047598D01*
X173938089Y-90162596D01*
X173882623Y-90296506D01*
X173882622Y-90296510D01*
X173863702Y-90440219D01*
X172305500Y-90440219D01*
X172305500Y-86935555D01*
X176284749Y-86935555D01*
X176284750Y-86935565D01*
X176295846Y-87041907D01*
X176295846Y-87041909D01*
X176306718Y-87092930D01*
X176306718Y-87092933D01*
X176339935Y-87194562D01*
X176339936Y-87194563D01*
X176416929Y-87316107D01*
X176462337Y-87369209D01*
X176570455Y-87464140D01*
X176700939Y-87524766D01*
X176767848Y-87544889D01*
X176910127Y-87566297D01*
X182771879Y-87604671D01*
X182881023Y-87593479D01*
X182933346Y-87582276D01*
X183037504Y-87547798D01*
X183158543Y-87470010D01*
X183211347Y-87424255D01*
X183305567Y-87315521D01*
X183365338Y-87184644D01*
X183385023Y-87117605D01*
X183385024Y-87117601D01*
X183405500Y-86975185D01*
X183405500Y-82224000D01*
X183393947Y-82116544D01*
X183382741Y-82065033D01*
X183382637Y-82064722D01*
X183348616Y-81962502D01*
X183348613Y-81962496D01*
X183270828Y-81841462D01*
X183270825Y-81841457D01*
X183270820Y-81841451D01*
X183225076Y-81788659D01*
X183225072Y-81788656D01*
X183225070Y-81788653D01*
X183116336Y-81694433D01*
X183116333Y-81694431D01*
X183116331Y-81694430D01*
X182985465Y-81634664D01*
X182985460Y-81634662D01*
X182985459Y-81634662D01*
X182925483Y-81617051D01*
X182918417Y-81614976D01*
X182855575Y-81605941D01*
X182776000Y-81594500D01*
X176923751Y-81594500D01*
X176923745Y-81594500D01*
X176816811Y-81605941D01*
X176816807Y-81605942D01*
X176816798Y-81605943D01*
X176816797Y-81605944D01*
X176765513Y-81617046D01*
X176765509Y-81617047D01*
X176765501Y-81617049D01*
X176765493Y-81617051D01*
X176663404Y-81650858D01*
X176663401Y-81650860D01*
X176542214Y-81728397D01*
X176542201Y-81728407D01*
X176489310Y-81774051D01*
X176394868Y-81882600D01*
X176334835Y-82013356D01*
X176318147Y-82069770D01*
X176315629Y-82076141D01*
X176294252Y-82222726D01*
X176294252Y-82222734D01*
X176284749Y-86935555D01*
X172305500Y-86935555D01*
X172305500Y-85524000D01*
X172293947Y-85416544D01*
X172282741Y-85365033D01*
X172282637Y-85364722D01*
X172248616Y-85262502D01*
X172248613Y-85262496D01*
X172170828Y-85141462D01*
X172170825Y-85141457D01*
X172170820Y-85141451D01*
X172125076Y-85088659D01*
X172125072Y-85088656D01*
X172125070Y-85088653D01*
X172016336Y-84994433D01*
X172016333Y-84994431D01*
X172016331Y-84994430D01*
X171885457Y-84934660D01*
X171881315Y-84933116D01*
X171882017Y-84931232D01*
X171830182Y-84897825D01*
X171801239Y-84834231D01*
X171800000Y-84816743D01*
X171800000Y-83814368D01*
X171809439Y-83766916D01*
X171818389Y-83745307D01*
X171856330Y-83653709D01*
X171875250Y-83510000D01*
X171856330Y-83366291D01*
X171809438Y-83253081D01*
X171800000Y-83205630D01*
X171800000Y-75000000D01*
X172244750Y-75000000D01*
X172263670Y-75143708D01*
X172263671Y-75143712D01*
X172319137Y-75277622D01*
X172319138Y-75277624D01*
X172319139Y-75277625D01*
X172407379Y-75392621D01*
X172522375Y-75480861D01*
X172656291Y-75536330D01*
X172783280Y-75553048D01*
X172799999Y-75555250D01*
X172800000Y-75555250D01*
X172800001Y-75555250D01*
X172814977Y-75553278D01*
X172943709Y-75536330D01*
X173077625Y-75480861D01*
X173192621Y-75392621D01*
X173280861Y-75277625D01*
X173336330Y-75143709D01*
X173355250Y-75000000D01*
X173336330Y-74856291D01*
X173280861Y-74722375D01*
X173192621Y-74607379D01*
X173077625Y-74519139D01*
X173077624Y-74519138D01*
X173077622Y-74519137D01*
X172943712Y-74463671D01*
X172943710Y-74463670D01*
X172943709Y-74463670D01*
X172871854Y-74454210D01*
X172800001Y-74444750D01*
X172799999Y-74444750D01*
X172656291Y-74463670D01*
X172656287Y-74463671D01*
X172522377Y-74519137D01*
X172407379Y-74607379D01*
X172319137Y-74722377D01*
X172263671Y-74856287D01*
X172263670Y-74856291D01*
X172244750Y-74999999D01*
X172244750Y-75000000D01*
X171800000Y-75000000D01*
X171800000Y-73624000D01*
X171819685Y-73556961D01*
X171872489Y-73511206D01*
X171924000Y-73500000D01*
X173300000Y-73500000D01*
X173300000Y-71924000D01*
X173319685Y-71856961D01*
X173372489Y-71811206D01*
X173424000Y-71800000D01*
X174199722Y-71800000D01*
X174200378Y-71800002D01*
G37*
%TD.AperFunction*%
%TD*%
%TA.AperFunction,Conductor*%
%TO.N,GND_LOGIC*%
G36*
X171743039Y-85419685D02*
G01*
X171788794Y-85472489D01*
X171800000Y-85524000D01*
X171800000Y-90951387D01*
X171780315Y-91018426D01*
X171766962Y-91035660D01*
X166200000Y-97044443D01*
X166200000Y-96600000D01*
X163700000Y-96600000D01*
X163700000Y-97319000D01*
X161824042Y-97319000D01*
X161696619Y-97353142D01*
X161582379Y-97419100D01*
X161582376Y-97419102D01*
X161489102Y-97512376D01*
X161489100Y-97512379D01*
X161419078Y-97633660D01*
X161417132Y-97632536D01*
X161380615Y-97677855D01*
X161314321Y-97699921D01*
X161309893Y-97700000D01*
X161124000Y-97700000D01*
X161056961Y-97680315D01*
X161011206Y-97627511D01*
X161000000Y-97576000D01*
X161000000Y-93150003D01*
X162064435Y-93150003D01*
X162084630Y-93329249D01*
X162084631Y-93329254D01*
X162144211Y-93499523D01*
X162182327Y-93560184D01*
X162240184Y-93652262D01*
X162367738Y-93779816D01*
X162520478Y-93875789D01*
X162690745Y-93935368D01*
X162690750Y-93935369D01*
X162869996Y-93955565D01*
X162870000Y-93955565D01*
X162870004Y-93955565D01*
X163049249Y-93935369D01*
X163049252Y-93935368D01*
X163049255Y-93935368D01*
X163219522Y-93875789D01*
X163372262Y-93779816D01*
X163499816Y-93652262D01*
X163595789Y-93499522D01*
X163655368Y-93329255D01*
X163675565Y-93150000D01*
X163655368Y-92970745D01*
X163595789Y-92800478D01*
X163499816Y-92647738D01*
X163372262Y-92520184D01*
X163219523Y-92424211D01*
X163049254Y-92364631D01*
X163049249Y-92364630D01*
X162870004Y-92344435D01*
X162869996Y-92344435D01*
X162690750Y-92364630D01*
X162690745Y-92364631D01*
X162520476Y-92424211D01*
X162367737Y-92520184D01*
X162240184Y-92647737D01*
X162144211Y-92800476D01*
X162084631Y-92970745D01*
X162084630Y-92970750D01*
X162064435Y-93149996D01*
X162064435Y-93150003D01*
X161000000Y-93150003D01*
X161000000Y-92641333D01*
X161019685Y-92574294D01*
X161024800Y-92566933D01*
X161059862Y-92520184D01*
X161300000Y-92200000D01*
X161201850Y-85525821D01*
X161220547Y-85458502D01*
X161272673Y-85411975D01*
X161325837Y-85400000D01*
X171676000Y-85400000D01*
X171743039Y-85419685D01*
G37*
%TD.AperFunction*%
%TD*%
M02*
